G75*
%MOIN*%
%OFA0B0*%
%FSLAX25Y25*%
%IPPOS*%
%LPD*%
%AMOC8*
5,1,8,0,0,1.08239X$1,22.5*
%
%ADD10C,0.00000*%
%ADD11C,0.01600*%
%ADD12C,0.00004*%
D10*
X0012494Y0016780D02*
X0012496Y0016927D01*
X0012502Y0017073D01*
X0012512Y0017219D01*
X0012526Y0017365D01*
X0012544Y0017511D01*
X0012565Y0017656D01*
X0012591Y0017800D01*
X0012621Y0017944D01*
X0012654Y0018086D01*
X0012691Y0018228D01*
X0012732Y0018369D01*
X0012777Y0018508D01*
X0012826Y0018647D01*
X0012878Y0018784D01*
X0012935Y0018919D01*
X0012994Y0019053D01*
X0013058Y0019185D01*
X0013125Y0019315D01*
X0013195Y0019444D01*
X0013269Y0019571D01*
X0013346Y0019695D01*
X0013427Y0019818D01*
X0013511Y0019938D01*
X0013598Y0020056D01*
X0013688Y0020171D01*
X0013781Y0020284D01*
X0013878Y0020395D01*
X0013977Y0020503D01*
X0014079Y0020608D01*
X0014184Y0020710D01*
X0014292Y0020809D01*
X0014403Y0020906D01*
X0014516Y0020999D01*
X0014631Y0021089D01*
X0014749Y0021176D01*
X0014869Y0021260D01*
X0014992Y0021341D01*
X0015116Y0021418D01*
X0015243Y0021492D01*
X0015372Y0021562D01*
X0015502Y0021629D01*
X0015634Y0021693D01*
X0015768Y0021752D01*
X0015903Y0021809D01*
X0016040Y0021861D01*
X0016179Y0021910D01*
X0016318Y0021955D01*
X0016459Y0021996D01*
X0016601Y0022033D01*
X0016743Y0022066D01*
X0016887Y0022096D01*
X0017031Y0022122D01*
X0017176Y0022143D01*
X0017322Y0022161D01*
X0017468Y0022175D01*
X0017614Y0022185D01*
X0017760Y0022191D01*
X0017907Y0022193D01*
X0018054Y0022191D01*
X0018200Y0022185D01*
X0018346Y0022175D01*
X0018492Y0022161D01*
X0018638Y0022143D01*
X0018783Y0022122D01*
X0018927Y0022096D01*
X0019071Y0022066D01*
X0019213Y0022033D01*
X0019355Y0021996D01*
X0019496Y0021955D01*
X0019635Y0021910D01*
X0019774Y0021861D01*
X0019911Y0021809D01*
X0020046Y0021752D01*
X0020180Y0021693D01*
X0020312Y0021629D01*
X0020442Y0021562D01*
X0020571Y0021492D01*
X0020698Y0021418D01*
X0020822Y0021341D01*
X0020945Y0021260D01*
X0021065Y0021176D01*
X0021183Y0021089D01*
X0021298Y0020999D01*
X0021411Y0020906D01*
X0021522Y0020809D01*
X0021630Y0020710D01*
X0021735Y0020608D01*
X0021837Y0020503D01*
X0021936Y0020395D01*
X0022033Y0020284D01*
X0022126Y0020171D01*
X0022216Y0020056D01*
X0022303Y0019938D01*
X0022387Y0019818D01*
X0022468Y0019695D01*
X0022545Y0019571D01*
X0022619Y0019444D01*
X0022689Y0019315D01*
X0022756Y0019185D01*
X0022820Y0019053D01*
X0022879Y0018919D01*
X0022936Y0018784D01*
X0022988Y0018647D01*
X0023037Y0018508D01*
X0023082Y0018369D01*
X0023123Y0018228D01*
X0023160Y0018086D01*
X0023193Y0017944D01*
X0023223Y0017800D01*
X0023249Y0017656D01*
X0023270Y0017511D01*
X0023288Y0017365D01*
X0023302Y0017219D01*
X0023312Y0017073D01*
X0023318Y0016927D01*
X0023320Y0016780D01*
X0023318Y0016633D01*
X0023312Y0016487D01*
X0023302Y0016341D01*
X0023288Y0016195D01*
X0023270Y0016049D01*
X0023249Y0015904D01*
X0023223Y0015760D01*
X0023193Y0015616D01*
X0023160Y0015474D01*
X0023123Y0015332D01*
X0023082Y0015191D01*
X0023037Y0015052D01*
X0022988Y0014913D01*
X0022936Y0014776D01*
X0022879Y0014641D01*
X0022820Y0014507D01*
X0022756Y0014375D01*
X0022689Y0014245D01*
X0022619Y0014116D01*
X0022545Y0013989D01*
X0022468Y0013865D01*
X0022387Y0013742D01*
X0022303Y0013622D01*
X0022216Y0013504D01*
X0022126Y0013389D01*
X0022033Y0013276D01*
X0021936Y0013165D01*
X0021837Y0013057D01*
X0021735Y0012952D01*
X0021630Y0012850D01*
X0021522Y0012751D01*
X0021411Y0012654D01*
X0021298Y0012561D01*
X0021183Y0012471D01*
X0021065Y0012384D01*
X0020945Y0012300D01*
X0020822Y0012219D01*
X0020698Y0012142D01*
X0020571Y0012068D01*
X0020442Y0011998D01*
X0020312Y0011931D01*
X0020180Y0011867D01*
X0020046Y0011808D01*
X0019911Y0011751D01*
X0019774Y0011699D01*
X0019635Y0011650D01*
X0019496Y0011605D01*
X0019355Y0011564D01*
X0019213Y0011527D01*
X0019071Y0011494D01*
X0018927Y0011464D01*
X0018783Y0011438D01*
X0018638Y0011417D01*
X0018492Y0011399D01*
X0018346Y0011385D01*
X0018200Y0011375D01*
X0018054Y0011369D01*
X0017907Y0011367D01*
X0017760Y0011369D01*
X0017614Y0011375D01*
X0017468Y0011385D01*
X0017322Y0011399D01*
X0017176Y0011417D01*
X0017031Y0011438D01*
X0016887Y0011464D01*
X0016743Y0011494D01*
X0016601Y0011527D01*
X0016459Y0011564D01*
X0016318Y0011605D01*
X0016179Y0011650D01*
X0016040Y0011699D01*
X0015903Y0011751D01*
X0015768Y0011808D01*
X0015634Y0011867D01*
X0015502Y0011931D01*
X0015372Y0011998D01*
X0015243Y0012068D01*
X0015116Y0012142D01*
X0014992Y0012219D01*
X0014869Y0012300D01*
X0014749Y0012384D01*
X0014631Y0012471D01*
X0014516Y0012561D01*
X0014403Y0012654D01*
X0014292Y0012751D01*
X0014184Y0012850D01*
X0014079Y0012952D01*
X0013977Y0013057D01*
X0013878Y0013165D01*
X0013781Y0013276D01*
X0013688Y0013389D01*
X0013598Y0013504D01*
X0013511Y0013622D01*
X0013427Y0013742D01*
X0013346Y0013865D01*
X0013269Y0013989D01*
X0013195Y0014116D01*
X0013125Y0014245D01*
X0013058Y0014375D01*
X0012994Y0014507D01*
X0012935Y0014641D01*
X0012878Y0014776D01*
X0012826Y0014913D01*
X0012777Y0015052D01*
X0012732Y0015191D01*
X0012691Y0015332D01*
X0012654Y0015474D01*
X0012621Y0015616D01*
X0012591Y0015760D01*
X0012565Y0015904D01*
X0012544Y0016049D01*
X0012526Y0016195D01*
X0012512Y0016341D01*
X0012502Y0016487D01*
X0012496Y0016633D01*
X0012494Y0016780D01*
X0205407Y0016780D02*
X0205409Y0016927D01*
X0205415Y0017073D01*
X0205425Y0017219D01*
X0205439Y0017365D01*
X0205457Y0017511D01*
X0205478Y0017656D01*
X0205504Y0017800D01*
X0205534Y0017944D01*
X0205567Y0018086D01*
X0205604Y0018228D01*
X0205645Y0018369D01*
X0205690Y0018508D01*
X0205739Y0018647D01*
X0205791Y0018784D01*
X0205848Y0018919D01*
X0205907Y0019053D01*
X0205971Y0019185D01*
X0206038Y0019315D01*
X0206108Y0019444D01*
X0206182Y0019571D01*
X0206259Y0019695D01*
X0206340Y0019818D01*
X0206424Y0019938D01*
X0206511Y0020056D01*
X0206601Y0020171D01*
X0206694Y0020284D01*
X0206791Y0020395D01*
X0206890Y0020503D01*
X0206992Y0020608D01*
X0207097Y0020710D01*
X0207205Y0020809D01*
X0207316Y0020906D01*
X0207429Y0020999D01*
X0207544Y0021089D01*
X0207662Y0021176D01*
X0207782Y0021260D01*
X0207905Y0021341D01*
X0208029Y0021418D01*
X0208156Y0021492D01*
X0208285Y0021562D01*
X0208415Y0021629D01*
X0208547Y0021693D01*
X0208681Y0021752D01*
X0208816Y0021809D01*
X0208953Y0021861D01*
X0209092Y0021910D01*
X0209231Y0021955D01*
X0209372Y0021996D01*
X0209514Y0022033D01*
X0209656Y0022066D01*
X0209800Y0022096D01*
X0209944Y0022122D01*
X0210089Y0022143D01*
X0210235Y0022161D01*
X0210381Y0022175D01*
X0210527Y0022185D01*
X0210673Y0022191D01*
X0210820Y0022193D01*
X0210967Y0022191D01*
X0211113Y0022185D01*
X0211259Y0022175D01*
X0211405Y0022161D01*
X0211551Y0022143D01*
X0211696Y0022122D01*
X0211840Y0022096D01*
X0211984Y0022066D01*
X0212126Y0022033D01*
X0212268Y0021996D01*
X0212409Y0021955D01*
X0212548Y0021910D01*
X0212687Y0021861D01*
X0212824Y0021809D01*
X0212959Y0021752D01*
X0213093Y0021693D01*
X0213225Y0021629D01*
X0213355Y0021562D01*
X0213484Y0021492D01*
X0213611Y0021418D01*
X0213735Y0021341D01*
X0213858Y0021260D01*
X0213978Y0021176D01*
X0214096Y0021089D01*
X0214211Y0020999D01*
X0214324Y0020906D01*
X0214435Y0020809D01*
X0214543Y0020710D01*
X0214648Y0020608D01*
X0214750Y0020503D01*
X0214849Y0020395D01*
X0214946Y0020284D01*
X0215039Y0020171D01*
X0215129Y0020056D01*
X0215216Y0019938D01*
X0215300Y0019818D01*
X0215381Y0019695D01*
X0215458Y0019571D01*
X0215532Y0019444D01*
X0215602Y0019315D01*
X0215669Y0019185D01*
X0215733Y0019053D01*
X0215792Y0018919D01*
X0215849Y0018784D01*
X0215901Y0018647D01*
X0215950Y0018508D01*
X0215995Y0018369D01*
X0216036Y0018228D01*
X0216073Y0018086D01*
X0216106Y0017944D01*
X0216136Y0017800D01*
X0216162Y0017656D01*
X0216183Y0017511D01*
X0216201Y0017365D01*
X0216215Y0017219D01*
X0216225Y0017073D01*
X0216231Y0016927D01*
X0216233Y0016780D01*
X0216231Y0016633D01*
X0216225Y0016487D01*
X0216215Y0016341D01*
X0216201Y0016195D01*
X0216183Y0016049D01*
X0216162Y0015904D01*
X0216136Y0015760D01*
X0216106Y0015616D01*
X0216073Y0015474D01*
X0216036Y0015332D01*
X0215995Y0015191D01*
X0215950Y0015052D01*
X0215901Y0014913D01*
X0215849Y0014776D01*
X0215792Y0014641D01*
X0215733Y0014507D01*
X0215669Y0014375D01*
X0215602Y0014245D01*
X0215532Y0014116D01*
X0215458Y0013989D01*
X0215381Y0013865D01*
X0215300Y0013742D01*
X0215216Y0013622D01*
X0215129Y0013504D01*
X0215039Y0013389D01*
X0214946Y0013276D01*
X0214849Y0013165D01*
X0214750Y0013057D01*
X0214648Y0012952D01*
X0214543Y0012850D01*
X0214435Y0012751D01*
X0214324Y0012654D01*
X0214211Y0012561D01*
X0214096Y0012471D01*
X0213978Y0012384D01*
X0213858Y0012300D01*
X0213735Y0012219D01*
X0213611Y0012142D01*
X0213484Y0012068D01*
X0213355Y0011998D01*
X0213225Y0011931D01*
X0213093Y0011867D01*
X0212959Y0011808D01*
X0212824Y0011751D01*
X0212687Y0011699D01*
X0212548Y0011650D01*
X0212409Y0011605D01*
X0212268Y0011564D01*
X0212126Y0011527D01*
X0211984Y0011494D01*
X0211840Y0011464D01*
X0211696Y0011438D01*
X0211551Y0011417D01*
X0211405Y0011399D01*
X0211259Y0011385D01*
X0211113Y0011375D01*
X0210967Y0011369D01*
X0210820Y0011367D01*
X0210673Y0011369D01*
X0210527Y0011375D01*
X0210381Y0011385D01*
X0210235Y0011399D01*
X0210089Y0011417D01*
X0209944Y0011438D01*
X0209800Y0011464D01*
X0209656Y0011494D01*
X0209514Y0011527D01*
X0209372Y0011564D01*
X0209231Y0011605D01*
X0209092Y0011650D01*
X0208953Y0011699D01*
X0208816Y0011751D01*
X0208681Y0011808D01*
X0208547Y0011867D01*
X0208415Y0011931D01*
X0208285Y0011998D01*
X0208156Y0012068D01*
X0208029Y0012142D01*
X0207905Y0012219D01*
X0207782Y0012300D01*
X0207662Y0012384D01*
X0207544Y0012471D01*
X0207429Y0012561D01*
X0207316Y0012654D01*
X0207205Y0012751D01*
X0207097Y0012850D01*
X0206992Y0012952D01*
X0206890Y0013057D01*
X0206791Y0013165D01*
X0206694Y0013276D01*
X0206601Y0013389D01*
X0206511Y0013504D01*
X0206424Y0013622D01*
X0206340Y0013742D01*
X0206259Y0013865D01*
X0206182Y0013989D01*
X0206108Y0014116D01*
X0206038Y0014245D01*
X0205971Y0014375D01*
X0205907Y0014507D01*
X0205848Y0014641D01*
X0205791Y0014776D01*
X0205739Y0014913D01*
X0205690Y0015052D01*
X0205645Y0015191D01*
X0205604Y0015332D01*
X0205567Y0015474D01*
X0205534Y0015616D01*
X0205504Y0015760D01*
X0205478Y0015904D01*
X0205457Y0016049D01*
X0205439Y0016195D01*
X0205425Y0016341D01*
X0205415Y0016487D01*
X0205409Y0016633D01*
X0205407Y0016780D01*
X0368304Y0054630D02*
X0368306Y0054823D01*
X0368313Y0055016D01*
X0368325Y0055209D01*
X0368342Y0055402D01*
X0368363Y0055594D01*
X0368389Y0055785D01*
X0368420Y0055976D01*
X0368455Y0056166D01*
X0368495Y0056355D01*
X0368540Y0056543D01*
X0368589Y0056730D01*
X0368643Y0056916D01*
X0368701Y0057100D01*
X0368764Y0057283D01*
X0368832Y0057464D01*
X0368903Y0057643D01*
X0368980Y0057821D01*
X0369060Y0057997D01*
X0369145Y0058170D01*
X0369234Y0058342D01*
X0369327Y0058511D01*
X0369424Y0058678D01*
X0369526Y0058843D01*
X0369631Y0059005D01*
X0369740Y0059164D01*
X0369854Y0059321D01*
X0369971Y0059474D01*
X0370091Y0059625D01*
X0370216Y0059773D01*
X0370344Y0059918D01*
X0370475Y0060059D01*
X0370610Y0060198D01*
X0370749Y0060333D01*
X0370890Y0060464D01*
X0371035Y0060592D01*
X0371183Y0060717D01*
X0371334Y0060837D01*
X0371487Y0060954D01*
X0371644Y0061068D01*
X0371803Y0061177D01*
X0371965Y0061282D01*
X0372130Y0061384D01*
X0372297Y0061481D01*
X0372466Y0061574D01*
X0372638Y0061663D01*
X0372811Y0061748D01*
X0372987Y0061828D01*
X0373165Y0061905D01*
X0373344Y0061976D01*
X0373525Y0062044D01*
X0373708Y0062107D01*
X0373892Y0062165D01*
X0374078Y0062219D01*
X0374265Y0062268D01*
X0374453Y0062313D01*
X0374642Y0062353D01*
X0374832Y0062388D01*
X0375023Y0062419D01*
X0375214Y0062445D01*
X0375406Y0062466D01*
X0375599Y0062483D01*
X0375792Y0062495D01*
X0375985Y0062502D01*
X0376178Y0062504D01*
X0376371Y0062502D01*
X0376564Y0062495D01*
X0376757Y0062483D01*
X0376950Y0062466D01*
X0377142Y0062445D01*
X0377333Y0062419D01*
X0377524Y0062388D01*
X0377714Y0062353D01*
X0377903Y0062313D01*
X0378091Y0062268D01*
X0378278Y0062219D01*
X0378464Y0062165D01*
X0378648Y0062107D01*
X0378831Y0062044D01*
X0379012Y0061976D01*
X0379191Y0061905D01*
X0379369Y0061828D01*
X0379545Y0061748D01*
X0379718Y0061663D01*
X0379890Y0061574D01*
X0380059Y0061481D01*
X0380226Y0061384D01*
X0380391Y0061282D01*
X0380553Y0061177D01*
X0380712Y0061068D01*
X0380869Y0060954D01*
X0381022Y0060837D01*
X0381173Y0060717D01*
X0381321Y0060592D01*
X0381466Y0060464D01*
X0381607Y0060333D01*
X0381746Y0060198D01*
X0381881Y0060059D01*
X0382012Y0059918D01*
X0382140Y0059773D01*
X0382265Y0059625D01*
X0382385Y0059474D01*
X0382502Y0059321D01*
X0382616Y0059164D01*
X0382725Y0059005D01*
X0382830Y0058843D01*
X0382932Y0058678D01*
X0383029Y0058511D01*
X0383122Y0058342D01*
X0383211Y0058170D01*
X0383296Y0057997D01*
X0383376Y0057821D01*
X0383453Y0057643D01*
X0383524Y0057464D01*
X0383592Y0057283D01*
X0383655Y0057100D01*
X0383713Y0056916D01*
X0383767Y0056730D01*
X0383816Y0056543D01*
X0383861Y0056355D01*
X0383901Y0056166D01*
X0383936Y0055976D01*
X0383967Y0055785D01*
X0383993Y0055594D01*
X0384014Y0055402D01*
X0384031Y0055209D01*
X0384043Y0055016D01*
X0384050Y0054823D01*
X0384052Y0054630D01*
X0384050Y0054437D01*
X0384043Y0054244D01*
X0384031Y0054051D01*
X0384014Y0053858D01*
X0383993Y0053666D01*
X0383967Y0053475D01*
X0383936Y0053284D01*
X0383901Y0053094D01*
X0383861Y0052905D01*
X0383816Y0052717D01*
X0383767Y0052530D01*
X0383713Y0052344D01*
X0383655Y0052160D01*
X0383592Y0051977D01*
X0383524Y0051796D01*
X0383453Y0051617D01*
X0383376Y0051439D01*
X0383296Y0051263D01*
X0383211Y0051090D01*
X0383122Y0050918D01*
X0383029Y0050749D01*
X0382932Y0050582D01*
X0382830Y0050417D01*
X0382725Y0050255D01*
X0382616Y0050096D01*
X0382502Y0049939D01*
X0382385Y0049786D01*
X0382265Y0049635D01*
X0382140Y0049487D01*
X0382012Y0049342D01*
X0381881Y0049201D01*
X0381746Y0049062D01*
X0381607Y0048927D01*
X0381466Y0048796D01*
X0381321Y0048668D01*
X0381173Y0048543D01*
X0381022Y0048423D01*
X0380869Y0048306D01*
X0380712Y0048192D01*
X0380553Y0048083D01*
X0380391Y0047978D01*
X0380226Y0047876D01*
X0380059Y0047779D01*
X0379890Y0047686D01*
X0379718Y0047597D01*
X0379545Y0047512D01*
X0379369Y0047432D01*
X0379191Y0047355D01*
X0379012Y0047284D01*
X0378831Y0047216D01*
X0378648Y0047153D01*
X0378464Y0047095D01*
X0378278Y0047041D01*
X0378091Y0046992D01*
X0377903Y0046947D01*
X0377714Y0046907D01*
X0377524Y0046872D01*
X0377333Y0046841D01*
X0377142Y0046815D01*
X0376950Y0046794D01*
X0376757Y0046777D01*
X0376564Y0046765D01*
X0376371Y0046758D01*
X0376178Y0046756D01*
X0375985Y0046758D01*
X0375792Y0046765D01*
X0375599Y0046777D01*
X0375406Y0046794D01*
X0375214Y0046815D01*
X0375023Y0046841D01*
X0374832Y0046872D01*
X0374642Y0046907D01*
X0374453Y0046947D01*
X0374265Y0046992D01*
X0374078Y0047041D01*
X0373892Y0047095D01*
X0373708Y0047153D01*
X0373525Y0047216D01*
X0373344Y0047284D01*
X0373165Y0047355D01*
X0372987Y0047432D01*
X0372811Y0047512D01*
X0372638Y0047597D01*
X0372466Y0047686D01*
X0372297Y0047779D01*
X0372130Y0047876D01*
X0371965Y0047978D01*
X0371803Y0048083D01*
X0371644Y0048192D01*
X0371487Y0048306D01*
X0371334Y0048423D01*
X0371183Y0048543D01*
X0371035Y0048668D01*
X0370890Y0048796D01*
X0370749Y0048927D01*
X0370610Y0049062D01*
X0370475Y0049201D01*
X0370344Y0049342D01*
X0370216Y0049487D01*
X0370091Y0049635D01*
X0369971Y0049786D01*
X0369854Y0049939D01*
X0369740Y0050096D01*
X0369631Y0050255D01*
X0369526Y0050417D01*
X0369424Y0050582D01*
X0369327Y0050749D01*
X0369234Y0050918D01*
X0369145Y0051090D01*
X0369060Y0051263D01*
X0368980Y0051439D01*
X0368903Y0051617D01*
X0368832Y0051796D01*
X0368764Y0051977D01*
X0368701Y0052160D01*
X0368643Y0052344D01*
X0368589Y0052530D01*
X0368540Y0052717D01*
X0368495Y0052905D01*
X0368455Y0053094D01*
X0368420Y0053284D01*
X0368389Y0053475D01*
X0368363Y0053666D01*
X0368342Y0053858D01*
X0368325Y0054051D01*
X0368313Y0054244D01*
X0368306Y0054437D01*
X0368304Y0054630D01*
X0205407Y0245126D02*
X0205409Y0245273D01*
X0205415Y0245419D01*
X0205425Y0245565D01*
X0205439Y0245711D01*
X0205457Y0245857D01*
X0205478Y0246002D01*
X0205504Y0246146D01*
X0205534Y0246290D01*
X0205567Y0246432D01*
X0205604Y0246574D01*
X0205645Y0246715D01*
X0205690Y0246854D01*
X0205739Y0246993D01*
X0205791Y0247130D01*
X0205848Y0247265D01*
X0205907Y0247399D01*
X0205971Y0247531D01*
X0206038Y0247661D01*
X0206108Y0247790D01*
X0206182Y0247917D01*
X0206259Y0248041D01*
X0206340Y0248164D01*
X0206424Y0248284D01*
X0206511Y0248402D01*
X0206601Y0248517D01*
X0206694Y0248630D01*
X0206791Y0248741D01*
X0206890Y0248849D01*
X0206992Y0248954D01*
X0207097Y0249056D01*
X0207205Y0249155D01*
X0207316Y0249252D01*
X0207429Y0249345D01*
X0207544Y0249435D01*
X0207662Y0249522D01*
X0207782Y0249606D01*
X0207905Y0249687D01*
X0208029Y0249764D01*
X0208156Y0249838D01*
X0208285Y0249908D01*
X0208415Y0249975D01*
X0208547Y0250039D01*
X0208681Y0250098D01*
X0208816Y0250155D01*
X0208953Y0250207D01*
X0209092Y0250256D01*
X0209231Y0250301D01*
X0209372Y0250342D01*
X0209514Y0250379D01*
X0209656Y0250412D01*
X0209800Y0250442D01*
X0209944Y0250468D01*
X0210089Y0250489D01*
X0210235Y0250507D01*
X0210381Y0250521D01*
X0210527Y0250531D01*
X0210673Y0250537D01*
X0210820Y0250539D01*
X0210967Y0250537D01*
X0211113Y0250531D01*
X0211259Y0250521D01*
X0211405Y0250507D01*
X0211551Y0250489D01*
X0211696Y0250468D01*
X0211840Y0250442D01*
X0211984Y0250412D01*
X0212126Y0250379D01*
X0212268Y0250342D01*
X0212409Y0250301D01*
X0212548Y0250256D01*
X0212687Y0250207D01*
X0212824Y0250155D01*
X0212959Y0250098D01*
X0213093Y0250039D01*
X0213225Y0249975D01*
X0213355Y0249908D01*
X0213484Y0249838D01*
X0213611Y0249764D01*
X0213735Y0249687D01*
X0213858Y0249606D01*
X0213978Y0249522D01*
X0214096Y0249435D01*
X0214211Y0249345D01*
X0214324Y0249252D01*
X0214435Y0249155D01*
X0214543Y0249056D01*
X0214648Y0248954D01*
X0214750Y0248849D01*
X0214849Y0248741D01*
X0214946Y0248630D01*
X0215039Y0248517D01*
X0215129Y0248402D01*
X0215216Y0248284D01*
X0215300Y0248164D01*
X0215381Y0248041D01*
X0215458Y0247917D01*
X0215532Y0247790D01*
X0215602Y0247661D01*
X0215669Y0247531D01*
X0215733Y0247399D01*
X0215792Y0247265D01*
X0215849Y0247130D01*
X0215901Y0246993D01*
X0215950Y0246854D01*
X0215995Y0246715D01*
X0216036Y0246574D01*
X0216073Y0246432D01*
X0216106Y0246290D01*
X0216136Y0246146D01*
X0216162Y0246002D01*
X0216183Y0245857D01*
X0216201Y0245711D01*
X0216215Y0245565D01*
X0216225Y0245419D01*
X0216231Y0245273D01*
X0216233Y0245126D01*
X0216231Y0244979D01*
X0216225Y0244833D01*
X0216215Y0244687D01*
X0216201Y0244541D01*
X0216183Y0244395D01*
X0216162Y0244250D01*
X0216136Y0244106D01*
X0216106Y0243962D01*
X0216073Y0243820D01*
X0216036Y0243678D01*
X0215995Y0243537D01*
X0215950Y0243398D01*
X0215901Y0243259D01*
X0215849Y0243122D01*
X0215792Y0242987D01*
X0215733Y0242853D01*
X0215669Y0242721D01*
X0215602Y0242591D01*
X0215532Y0242462D01*
X0215458Y0242335D01*
X0215381Y0242211D01*
X0215300Y0242088D01*
X0215216Y0241968D01*
X0215129Y0241850D01*
X0215039Y0241735D01*
X0214946Y0241622D01*
X0214849Y0241511D01*
X0214750Y0241403D01*
X0214648Y0241298D01*
X0214543Y0241196D01*
X0214435Y0241097D01*
X0214324Y0241000D01*
X0214211Y0240907D01*
X0214096Y0240817D01*
X0213978Y0240730D01*
X0213858Y0240646D01*
X0213735Y0240565D01*
X0213611Y0240488D01*
X0213484Y0240414D01*
X0213355Y0240344D01*
X0213225Y0240277D01*
X0213093Y0240213D01*
X0212959Y0240154D01*
X0212824Y0240097D01*
X0212687Y0240045D01*
X0212548Y0239996D01*
X0212409Y0239951D01*
X0212268Y0239910D01*
X0212126Y0239873D01*
X0211984Y0239840D01*
X0211840Y0239810D01*
X0211696Y0239784D01*
X0211551Y0239763D01*
X0211405Y0239745D01*
X0211259Y0239731D01*
X0211113Y0239721D01*
X0210967Y0239715D01*
X0210820Y0239713D01*
X0210673Y0239715D01*
X0210527Y0239721D01*
X0210381Y0239731D01*
X0210235Y0239745D01*
X0210089Y0239763D01*
X0209944Y0239784D01*
X0209800Y0239810D01*
X0209656Y0239840D01*
X0209514Y0239873D01*
X0209372Y0239910D01*
X0209231Y0239951D01*
X0209092Y0239996D01*
X0208953Y0240045D01*
X0208816Y0240097D01*
X0208681Y0240154D01*
X0208547Y0240213D01*
X0208415Y0240277D01*
X0208285Y0240344D01*
X0208156Y0240414D01*
X0208029Y0240488D01*
X0207905Y0240565D01*
X0207782Y0240646D01*
X0207662Y0240730D01*
X0207544Y0240817D01*
X0207429Y0240907D01*
X0207316Y0241000D01*
X0207205Y0241097D01*
X0207097Y0241196D01*
X0206992Y0241298D01*
X0206890Y0241403D01*
X0206791Y0241511D01*
X0206694Y0241622D01*
X0206601Y0241735D01*
X0206511Y0241850D01*
X0206424Y0241968D01*
X0206340Y0242088D01*
X0206259Y0242211D01*
X0206182Y0242335D01*
X0206108Y0242462D01*
X0206038Y0242591D01*
X0205971Y0242721D01*
X0205907Y0242853D01*
X0205848Y0242987D01*
X0205791Y0243122D01*
X0205739Y0243259D01*
X0205690Y0243398D01*
X0205645Y0243537D01*
X0205604Y0243678D01*
X0205567Y0243820D01*
X0205534Y0243962D01*
X0205504Y0244106D01*
X0205478Y0244250D01*
X0205457Y0244395D01*
X0205439Y0244541D01*
X0205425Y0244687D01*
X0205415Y0244833D01*
X0205409Y0244979D01*
X0205407Y0245126D01*
X0012494Y0245126D02*
X0012496Y0245273D01*
X0012502Y0245419D01*
X0012512Y0245565D01*
X0012526Y0245711D01*
X0012544Y0245857D01*
X0012565Y0246002D01*
X0012591Y0246146D01*
X0012621Y0246290D01*
X0012654Y0246432D01*
X0012691Y0246574D01*
X0012732Y0246715D01*
X0012777Y0246854D01*
X0012826Y0246993D01*
X0012878Y0247130D01*
X0012935Y0247265D01*
X0012994Y0247399D01*
X0013058Y0247531D01*
X0013125Y0247661D01*
X0013195Y0247790D01*
X0013269Y0247917D01*
X0013346Y0248041D01*
X0013427Y0248164D01*
X0013511Y0248284D01*
X0013598Y0248402D01*
X0013688Y0248517D01*
X0013781Y0248630D01*
X0013878Y0248741D01*
X0013977Y0248849D01*
X0014079Y0248954D01*
X0014184Y0249056D01*
X0014292Y0249155D01*
X0014403Y0249252D01*
X0014516Y0249345D01*
X0014631Y0249435D01*
X0014749Y0249522D01*
X0014869Y0249606D01*
X0014992Y0249687D01*
X0015116Y0249764D01*
X0015243Y0249838D01*
X0015372Y0249908D01*
X0015502Y0249975D01*
X0015634Y0250039D01*
X0015768Y0250098D01*
X0015903Y0250155D01*
X0016040Y0250207D01*
X0016179Y0250256D01*
X0016318Y0250301D01*
X0016459Y0250342D01*
X0016601Y0250379D01*
X0016743Y0250412D01*
X0016887Y0250442D01*
X0017031Y0250468D01*
X0017176Y0250489D01*
X0017322Y0250507D01*
X0017468Y0250521D01*
X0017614Y0250531D01*
X0017760Y0250537D01*
X0017907Y0250539D01*
X0018054Y0250537D01*
X0018200Y0250531D01*
X0018346Y0250521D01*
X0018492Y0250507D01*
X0018638Y0250489D01*
X0018783Y0250468D01*
X0018927Y0250442D01*
X0019071Y0250412D01*
X0019213Y0250379D01*
X0019355Y0250342D01*
X0019496Y0250301D01*
X0019635Y0250256D01*
X0019774Y0250207D01*
X0019911Y0250155D01*
X0020046Y0250098D01*
X0020180Y0250039D01*
X0020312Y0249975D01*
X0020442Y0249908D01*
X0020571Y0249838D01*
X0020698Y0249764D01*
X0020822Y0249687D01*
X0020945Y0249606D01*
X0021065Y0249522D01*
X0021183Y0249435D01*
X0021298Y0249345D01*
X0021411Y0249252D01*
X0021522Y0249155D01*
X0021630Y0249056D01*
X0021735Y0248954D01*
X0021837Y0248849D01*
X0021936Y0248741D01*
X0022033Y0248630D01*
X0022126Y0248517D01*
X0022216Y0248402D01*
X0022303Y0248284D01*
X0022387Y0248164D01*
X0022468Y0248041D01*
X0022545Y0247917D01*
X0022619Y0247790D01*
X0022689Y0247661D01*
X0022756Y0247531D01*
X0022820Y0247399D01*
X0022879Y0247265D01*
X0022936Y0247130D01*
X0022988Y0246993D01*
X0023037Y0246854D01*
X0023082Y0246715D01*
X0023123Y0246574D01*
X0023160Y0246432D01*
X0023193Y0246290D01*
X0023223Y0246146D01*
X0023249Y0246002D01*
X0023270Y0245857D01*
X0023288Y0245711D01*
X0023302Y0245565D01*
X0023312Y0245419D01*
X0023318Y0245273D01*
X0023320Y0245126D01*
X0023318Y0244979D01*
X0023312Y0244833D01*
X0023302Y0244687D01*
X0023288Y0244541D01*
X0023270Y0244395D01*
X0023249Y0244250D01*
X0023223Y0244106D01*
X0023193Y0243962D01*
X0023160Y0243820D01*
X0023123Y0243678D01*
X0023082Y0243537D01*
X0023037Y0243398D01*
X0022988Y0243259D01*
X0022936Y0243122D01*
X0022879Y0242987D01*
X0022820Y0242853D01*
X0022756Y0242721D01*
X0022689Y0242591D01*
X0022619Y0242462D01*
X0022545Y0242335D01*
X0022468Y0242211D01*
X0022387Y0242088D01*
X0022303Y0241968D01*
X0022216Y0241850D01*
X0022126Y0241735D01*
X0022033Y0241622D01*
X0021936Y0241511D01*
X0021837Y0241403D01*
X0021735Y0241298D01*
X0021630Y0241196D01*
X0021522Y0241097D01*
X0021411Y0241000D01*
X0021298Y0240907D01*
X0021183Y0240817D01*
X0021065Y0240730D01*
X0020945Y0240646D01*
X0020822Y0240565D01*
X0020698Y0240488D01*
X0020571Y0240414D01*
X0020442Y0240344D01*
X0020312Y0240277D01*
X0020180Y0240213D01*
X0020046Y0240154D01*
X0019911Y0240097D01*
X0019774Y0240045D01*
X0019635Y0239996D01*
X0019496Y0239951D01*
X0019355Y0239910D01*
X0019213Y0239873D01*
X0019071Y0239840D01*
X0018927Y0239810D01*
X0018783Y0239784D01*
X0018638Y0239763D01*
X0018492Y0239745D01*
X0018346Y0239731D01*
X0018200Y0239721D01*
X0018054Y0239715D01*
X0017907Y0239713D01*
X0017760Y0239715D01*
X0017614Y0239721D01*
X0017468Y0239731D01*
X0017322Y0239745D01*
X0017176Y0239763D01*
X0017031Y0239784D01*
X0016887Y0239810D01*
X0016743Y0239840D01*
X0016601Y0239873D01*
X0016459Y0239910D01*
X0016318Y0239951D01*
X0016179Y0239996D01*
X0016040Y0240045D01*
X0015903Y0240097D01*
X0015768Y0240154D01*
X0015634Y0240213D01*
X0015502Y0240277D01*
X0015372Y0240344D01*
X0015243Y0240414D01*
X0015116Y0240488D01*
X0014992Y0240565D01*
X0014869Y0240646D01*
X0014749Y0240730D01*
X0014631Y0240817D01*
X0014516Y0240907D01*
X0014403Y0241000D01*
X0014292Y0241097D01*
X0014184Y0241196D01*
X0014079Y0241298D01*
X0013977Y0241403D01*
X0013878Y0241511D01*
X0013781Y0241622D01*
X0013688Y0241735D01*
X0013598Y0241850D01*
X0013511Y0241968D01*
X0013427Y0242088D01*
X0013346Y0242211D01*
X0013269Y0242335D01*
X0013195Y0242462D01*
X0013125Y0242591D01*
X0013058Y0242721D01*
X0012994Y0242853D01*
X0012935Y0242987D01*
X0012878Y0243122D01*
X0012826Y0243259D01*
X0012777Y0243398D01*
X0012732Y0243537D01*
X0012691Y0243678D01*
X0012654Y0243820D01*
X0012621Y0243962D01*
X0012591Y0244106D01*
X0012565Y0244250D01*
X0012544Y0244395D01*
X0012526Y0244541D01*
X0012512Y0244687D01*
X0012502Y0244833D01*
X0012496Y0244979D01*
X0012494Y0245126D01*
D11*
X0013970Y0003000D02*
X0414789Y0003000D01*
X0415062Y0002991D01*
X0415336Y0002989D01*
X0415610Y0002994D01*
X0415883Y0003005D01*
X0416156Y0003022D01*
X0416429Y0003046D01*
X0416700Y0003077D01*
X0416971Y0003115D01*
X0417242Y0003159D01*
X0417510Y0003209D01*
X0417778Y0003266D01*
X0418044Y0003329D01*
X0418309Y0003399D01*
X0418572Y0003475D01*
X0418832Y0003558D01*
X0419091Y0003647D01*
X0419348Y0003742D01*
X0419602Y0003843D01*
X0419854Y0003950D01*
X0420103Y0004063D01*
X0420349Y0004183D01*
X0420592Y0004308D01*
X0420832Y0004439D01*
X0421069Y0004576D01*
X0421303Y0004718D01*
X0421533Y0004866D01*
X0421759Y0005020D01*
X0421982Y0005179D01*
X0422201Y0005343D01*
X0422415Y0005513D01*
X0422626Y0005688D01*
X0422832Y0005868D01*
X0423034Y0006052D01*
X0423231Y0006242D01*
X0423424Y0006436D01*
X0423612Y0006635D01*
X0423795Y0006838D01*
X0423973Y0007046D01*
X0424146Y0007258D01*
X0424314Y0007474D01*
X0424476Y0007694D01*
X0424633Y0007918D01*
X0424785Y0008146D01*
X0424931Y0008377D01*
X0425072Y0008612D01*
X0425207Y0008850D01*
X0425336Y0009091D01*
X0425459Y0009335D01*
X0425576Y0009583D01*
X0425688Y0009833D01*
X0425793Y0010085D01*
X0425892Y0010340D01*
X0425985Y0010598D01*
X0426071Y0010857D01*
X0426152Y0011119D01*
X0426226Y0011382D01*
X0426293Y0011647D01*
X0426354Y0011914D01*
X0426409Y0012182D01*
X0426457Y0012451D01*
X0426499Y0012722D01*
X0426534Y0012993D01*
X0426563Y0013265D01*
X0426585Y0013538D01*
X0426600Y0013811D01*
X0426600Y0254150D01*
X0426584Y0254447D01*
X0426561Y0254744D01*
X0426531Y0255040D01*
X0426494Y0255336D01*
X0426450Y0255630D01*
X0426398Y0255924D01*
X0426340Y0256215D01*
X0426274Y0256506D01*
X0426202Y0256795D01*
X0426122Y0257082D01*
X0426036Y0257367D01*
X0425943Y0257649D01*
X0425843Y0257930D01*
X0425736Y0258208D01*
X0425623Y0258483D01*
X0425502Y0258755D01*
X0425376Y0259025D01*
X0425243Y0259291D01*
X0425103Y0259554D01*
X0424957Y0259814D01*
X0424805Y0260070D01*
X0424647Y0260322D01*
X0424483Y0260570D01*
X0424313Y0260815D01*
X0424137Y0261055D01*
X0423955Y0261291D01*
X0423767Y0261522D01*
X0423574Y0261749D01*
X0423376Y0261971D01*
X0423172Y0262188D01*
X0422963Y0262400D01*
X0422749Y0262607D01*
X0422530Y0262809D01*
X0422307Y0263005D01*
X0422078Y0263196D01*
X0421845Y0263382D01*
X0421608Y0263562D01*
X0421366Y0263736D01*
X0421121Y0263904D01*
X0420871Y0264066D01*
X0420617Y0264222D01*
X0420360Y0264371D01*
X0420099Y0264515D01*
X0419835Y0264652D01*
X0419567Y0264783D01*
X0419297Y0264907D01*
X0419023Y0265025D01*
X0418747Y0265136D01*
X0418468Y0265241D01*
X0418187Y0265338D01*
X0417903Y0265429D01*
X0417618Y0265513D01*
X0417330Y0265590D01*
X0417041Y0265660D01*
X0416750Y0265723D01*
X0416457Y0265779D01*
X0416164Y0265828D01*
X0415869Y0265869D01*
X0415573Y0265904D01*
X0415277Y0265931D01*
X0414980Y0265952D01*
X0414682Y0265965D01*
X0414384Y0265971D01*
X0414087Y0265969D01*
X0413789Y0265961D01*
X0011970Y0265961D01*
X0002159Y0259150D02*
X0002159Y0014811D01*
X0002162Y0014526D01*
X0002173Y0014240D01*
X0002190Y0013955D01*
X0002214Y0013671D01*
X0002245Y0013387D01*
X0002283Y0013104D01*
X0002328Y0012823D01*
X0002379Y0012542D01*
X0002437Y0012262D01*
X0002502Y0011984D01*
X0002574Y0011708D01*
X0002652Y0011434D01*
X0002737Y0011161D01*
X0002829Y0010891D01*
X0002927Y0010623D01*
X0003031Y0010357D01*
X0003142Y0010094D01*
X0003259Y0009834D01*
X0003382Y0009576D01*
X0003512Y0009322D01*
X0003648Y0009071D01*
X0003789Y0008823D01*
X0003937Y0008579D01*
X0004090Y0008338D01*
X0004250Y0008102D01*
X0004415Y0007869D01*
X0004585Y0007640D01*
X0004761Y0007415D01*
X0004943Y0007195D01*
X0005129Y0006979D01*
X0005321Y0006768D01*
X0005518Y0006561D01*
X0005720Y0006359D01*
X0005927Y0006162D01*
X0006138Y0005970D01*
X0006354Y0005784D01*
X0006574Y0005602D01*
X0006799Y0005426D01*
X0007028Y0005256D01*
X0007261Y0005091D01*
X0007497Y0004931D01*
X0007738Y0004778D01*
X0007982Y0004630D01*
X0008230Y0004489D01*
X0008481Y0004353D01*
X0008735Y0004223D01*
X0008993Y0004100D01*
X0009253Y0003983D01*
X0009516Y0003872D01*
X0009782Y0003768D01*
X0010050Y0003670D01*
X0010320Y0003578D01*
X0010593Y0003493D01*
X0010867Y0003415D01*
X0011143Y0003343D01*
X0011421Y0003278D01*
X0011701Y0003220D01*
X0011982Y0003169D01*
X0012263Y0003124D01*
X0012546Y0003086D01*
X0012830Y0003055D01*
X0013114Y0003031D01*
X0013399Y0003014D01*
X0013685Y0003003D01*
X0013970Y0003000D01*
X0002159Y0259150D02*
X0002199Y0259353D01*
X0002243Y0259556D01*
X0002292Y0259757D01*
X0002346Y0259957D01*
X0002405Y0260156D01*
X0002469Y0260353D01*
X0002538Y0260549D01*
X0002612Y0260742D01*
X0002690Y0260934D01*
X0002773Y0261124D01*
X0002860Y0261312D01*
X0002953Y0261498D01*
X0003049Y0261681D01*
X0003150Y0261862D01*
X0003256Y0262040D01*
X0003366Y0262216D01*
X0003480Y0262389D01*
X0003599Y0262559D01*
X0003721Y0262726D01*
X0003848Y0262890D01*
X0003978Y0263051D01*
X0004113Y0263209D01*
X0004251Y0263363D01*
X0004393Y0263514D01*
X0004539Y0263662D01*
X0004688Y0263805D01*
X0004841Y0263945D01*
X0004997Y0264082D01*
X0005157Y0264214D01*
X0005319Y0264343D01*
X0005485Y0264467D01*
X0005654Y0264587D01*
X0005826Y0264703D01*
X0006000Y0264815D01*
X0006177Y0264923D01*
X0006357Y0265026D01*
X0006539Y0265125D01*
X0006724Y0265219D01*
X0006911Y0265308D01*
X0007100Y0265393D01*
X0007291Y0265474D01*
X0007484Y0265549D01*
X0007679Y0265620D01*
X0007875Y0265686D01*
X0008073Y0265748D01*
X0008273Y0265804D01*
X0008473Y0265856D01*
X0008675Y0265902D01*
X0008878Y0265944D01*
X0009082Y0265980D01*
X0009287Y0266012D01*
X0009493Y0266038D01*
X0009699Y0266060D01*
X0009906Y0266076D01*
X0010113Y0266087D01*
X0010320Y0266094D01*
X0010527Y0266095D01*
X0010734Y0266091D01*
X0010941Y0266082D01*
X0011148Y0266068D01*
X0011355Y0266049D01*
X0011560Y0266024D01*
X0011766Y0265995D01*
X0011970Y0265961D01*
D12*
X0358757Y0164952D02*
X0378443Y0199048D01*
X0378442Y0199048D02*
X0378024Y0199282D01*
X0377601Y0199507D01*
X0377172Y0199721D01*
X0376738Y0199924D01*
X0376299Y0200117D01*
X0375855Y0200299D01*
X0375408Y0200470D01*
X0374956Y0200631D01*
X0374500Y0200780D01*
X0374041Y0200918D01*
X0373579Y0201045D01*
X0373114Y0201161D01*
X0372646Y0201265D01*
X0372176Y0201358D01*
X0371703Y0201439D01*
X0371229Y0201509D01*
X0370753Y0201567D01*
X0370276Y0201614D01*
X0369798Y0201649D01*
X0369319Y0201672D01*
X0368840Y0201684D01*
X0368360Y0201684D01*
X0367881Y0201672D01*
X0367402Y0201649D01*
X0366924Y0201614D01*
X0366447Y0201567D01*
X0365971Y0201509D01*
X0365497Y0201439D01*
X0365024Y0201358D01*
X0364554Y0201265D01*
X0364086Y0201161D01*
X0363621Y0201045D01*
X0363159Y0200918D01*
X0362700Y0200780D01*
X0362244Y0200631D01*
X0361792Y0200470D01*
X0361345Y0200299D01*
X0360901Y0200117D01*
X0360462Y0199924D01*
X0360028Y0199721D01*
X0359599Y0199507D01*
X0359176Y0199282D01*
X0358757Y0199048D01*
X0358345Y0198803D01*
X0357939Y0198548D01*
X0357539Y0198284D01*
X0357146Y0198010D01*
X0356760Y0197726D01*
X0356380Y0197433D01*
X0356008Y0197131D01*
X0355643Y0196820D01*
X0355286Y0196500D01*
X0354937Y0196171D01*
X0354596Y0195834D01*
X0354263Y0195489D01*
X0353939Y0195136D01*
X0353624Y0194775D01*
X0353317Y0194407D01*
X0353019Y0194031D01*
X0352731Y0193648D01*
X0352452Y0193258D01*
X0352183Y0192862D01*
X0351923Y0192459D01*
X0351673Y0192049D01*
X0351434Y0191634D01*
X0351204Y0191213D01*
X0350985Y0190787D01*
X0350776Y0190355D01*
X0350578Y0189919D01*
X0350391Y0189478D01*
X0350214Y0189032D01*
X0350048Y0188582D01*
X0349893Y0188129D01*
X0349750Y0187671D01*
X0349617Y0187211D01*
X0349496Y0186747D01*
X0349386Y0186280D01*
X0349287Y0185811D01*
X0349200Y0185340D01*
X0349125Y0184866D01*
X0349061Y0184391D01*
X0349008Y0183915D01*
X0348968Y0183437D01*
X0348938Y0182958D01*
X0348921Y0182479D01*
X0348915Y0182000D01*
X0348921Y0181521D01*
X0348938Y0181042D01*
X0348968Y0180563D01*
X0349008Y0180085D01*
X0349061Y0179609D01*
X0349125Y0179134D01*
X0349200Y0178660D01*
X0349287Y0178189D01*
X0349386Y0177720D01*
X0349496Y0177253D01*
X0349617Y0176789D01*
X0349750Y0176329D01*
X0349893Y0175871D01*
X0350048Y0175418D01*
X0350214Y0174968D01*
X0350391Y0174522D01*
X0350578Y0174081D01*
X0350776Y0173645D01*
X0350985Y0173213D01*
X0351204Y0172787D01*
X0351434Y0172366D01*
X0351673Y0171951D01*
X0351923Y0171541D01*
X0352183Y0171138D01*
X0352452Y0170742D01*
X0352731Y0170352D01*
X0353019Y0169969D01*
X0353317Y0169593D01*
X0353624Y0169225D01*
X0353939Y0168864D01*
X0354263Y0168511D01*
X0354596Y0168166D01*
X0354937Y0167829D01*
X0355286Y0167500D01*
X0355643Y0167180D01*
X0356008Y0166869D01*
X0356380Y0166567D01*
X0356760Y0166274D01*
X0357146Y0165990D01*
X0357539Y0165716D01*
X0357939Y0165452D01*
X0358345Y0165197D01*
X0358758Y0164952D01*
X0358345Y0165197D01*
X0357939Y0165452D01*
X0357539Y0165716D01*
X0357146Y0165990D01*
X0356760Y0166274D01*
X0356380Y0166567D01*
X0356008Y0166869D01*
X0355643Y0167180D01*
X0355286Y0167500D01*
X0354937Y0167829D01*
X0354596Y0168166D01*
X0354263Y0168511D01*
X0353939Y0168864D01*
X0353624Y0169225D01*
X0353317Y0169593D01*
X0353019Y0169969D01*
X0352731Y0170352D01*
X0352452Y0170742D01*
X0352183Y0171138D01*
X0351923Y0171541D01*
X0351673Y0171951D01*
X0351434Y0172366D01*
X0351204Y0172787D01*
X0350985Y0173213D01*
X0350776Y0173645D01*
X0350578Y0174081D01*
X0350391Y0174522D01*
X0350214Y0174968D01*
X0350048Y0175418D01*
X0349893Y0175871D01*
X0349750Y0176329D01*
X0349617Y0176789D01*
X0349496Y0177253D01*
X0349386Y0177720D01*
X0349287Y0178189D01*
X0349200Y0178660D01*
X0349125Y0179134D01*
X0349061Y0179609D01*
X0349008Y0180085D01*
X0348968Y0180563D01*
X0348938Y0181042D01*
X0348921Y0181521D01*
X0348915Y0182000D01*
X0348921Y0182479D01*
X0348938Y0182958D01*
X0348968Y0183437D01*
X0349008Y0183915D01*
X0349061Y0184391D01*
X0349125Y0184866D01*
X0349200Y0185340D01*
X0349287Y0185811D01*
X0349386Y0186280D01*
X0349496Y0186747D01*
X0349617Y0187211D01*
X0349750Y0187671D01*
X0349893Y0188129D01*
X0350048Y0188582D01*
X0350214Y0189032D01*
X0350391Y0189478D01*
X0350578Y0189919D01*
X0350776Y0190355D01*
X0350985Y0190787D01*
X0351204Y0191213D01*
X0351434Y0191634D01*
X0351673Y0192049D01*
X0351923Y0192459D01*
X0352183Y0192862D01*
X0352452Y0193258D01*
X0352731Y0193648D01*
X0353019Y0194031D01*
X0353317Y0194407D01*
X0353624Y0194775D01*
X0353939Y0195136D01*
X0354263Y0195489D01*
X0354596Y0195834D01*
X0354937Y0196171D01*
X0355286Y0196500D01*
X0355643Y0196820D01*
X0356008Y0197131D01*
X0356380Y0197433D01*
X0356760Y0197726D01*
X0357146Y0198010D01*
X0357539Y0198284D01*
X0357939Y0198548D01*
X0358345Y0198803D01*
X0358757Y0199048D01*
X0359176Y0199282D01*
X0359599Y0199507D01*
X0360028Y0199721D01*
X0360462Y0199924D01*
X0360901Y0200117D01*
X0361345Y0200299D01*
X0361792Y0200470D01*
X0362244Y0200631D01*
X0362700Y0200780D01*
X0363159Y0200918D01*
X0363621Y0201045D01*
X0364086Y0201161D01*
X0364554Y0201265D01*
X0365024Y0201358D01*
X0365497Y0201439D01*
X0365971Y0201509D01*
X0366447Y0201567D01*
X0366924Y0201614D01*
X0367402Y0201649D01*
X0367881Y0201672D01*
X0368360Y0201684D01*
X0368840Y0201684D01*
X0369319Y0201672D01*
X0369798Y0201649D01*
X0370276Y0201614D01*
X0370753Y0201567D01*
X0371229Y0201509D01*
X0371703Y0201439D01*
X0372176Y0201358D01*
X0372646Y0201265D01*
X0373114Y0201161D01*
X0373579Y0201045D01*
X0374041Y0200918D01*
X0374500Y0200780D01*
X0374956Y0200631D01*
X0375408Y0200470D01*
X0375855Y0200299D01*
X0376299Y0200117D01*
X0376738Y0199924D01*
X0377172Y0199721D01*
X0377601Y0199507D01*
X0378024Y0199282D01*
X0378442Y0199048D01*
M02*
