G75*
%MOIN*%
%OFA0B0*%
%FSLAX25Y25*%
%IPPOS*%
%LPD*%
%AMOC8*
5,1,8,0,0,1.08239X$1,22.5*
%
%ADD10C,0.11127*%
%ADD11C,0.07700*%
%ADD12R,0.05261X0.01717*%
%ADD13R,0.04237X0.04631*%
%ADD14R,0.02662X0.06206*%
%ADD15R,0.01875X0.06206*%
%ADD16R,0.06300X0.07300*%
%ADD17R,0.04631X0.04237*%
%ADD18C,0.16048*%
%ADD19R,0.05300X0.02800*%
%ADD20R,0.02800X0.05300*%
%ADD21R,0.08961X0.02662*%
%ADD22R,0.05812X0.04237*%
%ADD23C,0.07700*%
%ADD24C,0.13300*%
%ADD25R,0.01560X0.03843*%
%ADD26C,0.31796*%
%ADD27R,0.12800X0.12800*%
%ADD28R,0.04631X0.07780*%
%ADD29R,0.06599X0.09355*%
%ADD30OC8,0.06300*%
%ADD31C,0.03253*%
%ADD32C,0.03843*%
D10*
X0017907Y0016780D03*
X0210820Y0016780D03*
X0210820Y0245126D03*
X0017907Y0245126D03*
D11*
X0039600Y0250000D03*
X0049600Y0250000D03*
X0059600Y0250000D03*
X0080600Y0250000D03*
X0090600Y0250000D03*
X0100600Y0250000D03*
X0023813Y0226465D03*
X0013813Y0226465D03*
X0013813Y0216465D03*
X0023813Y0216465D03*
X0023813Y0206465D03*
X0013813Y0206465D03*
X0013813Y0196465D03*
X0023813Y0196465D03*
X0023813Y0186465D03*
X0013813Y0186465D03*
X0013813Y0176465D03*
X0023813Y0176465D03*
X0023813Y0166465D03*
X0013813Y0166465D03*
X0013813Y0156465D03*
X0023813Y0156465D03*
X0023813Y0146465D03*
X0013813Y0146465D03*
X0013813Y0136465D03*
X0023813Y0136465D03*
X0023813Y0126465D03*
X0013813Y0126465D03*
X0013813Y0116465D03*
X0023813Y0116465D03*
X0023813Y0106465D03*
X0013813Y0106465D03*
X0013813Y0096465D03*
X0023813Y0096465D03*
X0023813Y0086465D03*
X0013813Y0086465D03*
X0013813Y0076465D03*
X0023813Y0076465D03*
X0023813Y0066465D03*
X0013813Y0066465D03*
X0013813Y0056465D03*
X0023813Y0056465D03*
X0023813Y0046465D03*
X0013813Y0046465D03*
X0013813Y0036465D03*
X0023813Y0036465D03*
X0046600Y0011000D03*
X0056600Y0011000D03*
X0068600Y0011000D03*
X0078600Y0011000D03*
X0090600Y0011000D03*
X0100600Y0011000D03*
X0112600Y0011000D03*
X0122600Y0011000D03*
X0134600Y0011000D03*
X0144600Y0011000D03*
X0154600Y0011000D03*
X0166600Y0011000D03*
X0176600Y0011000D03*
X0186600Y0011000D03*
X0267600Y0238000D03*
X0281600Y0238000D03*
X0281600Y0248000D03*
X0267600Y0248000D03*
X0267600Y0258000D03*
X0281600Y0258000D03*
D12*
X0104087Y0094677D03*
X0104087Y0092118D03*
X0104087Y0089559D03*
X0104087Y0087000D03*
X0104087Y0084441D03*
X0104087Y0081882D03*
X0104087Y0079323D03*
X0081113Y0079323D03*
X0081113Y0081882D03*
X0081113Y0084441D03*
X0081113Y0087000D03*
X0081113Y0089559D03*
X0081113Y0092118D03*
X0081113Y0094677D03*
D13*
X0074600Y0094654D03*
X0068600Y0094654D03*
X0062600Y0094654D03*
X0062600Y0101346D03*
X0068600Y0101346D03*
X0074600Y0101346D03*
X0074600Y0079346D03*
X0068600Y0079346D03*
X0062600Y0079346D03*
X0062600Y0072654D03*
X0068600Y0072654D03*
X0074600Y0072654D03*
X0093600Y0072346D03*
X0099600Y0072346D03*
X0105600Y0072346D03*
X0105600Y0065654D03*
X0099600Y0065654D03*
X0093600Y0065654D03*
X0091600Y0043346D03*
X0097600Y0043346D03*
X0097600Y0036654D03*
X0091600Y0036654D03*
X0075600Y0036654D03*
X0069600Y0036654D03*
X0069600Y0043346D03*
X0075600Y0043346D03*
X0053710Y0043268D03*
X0047655Y0043425D03*
X0047655Y0036732D03*
X0053710Y0036575D03*
X0113600Y0036654D03*
X0119600Y0036654D03*
X0119600Y0043346D03*
X0113600Y0043346D03*
X0135600Y0044346D03*
X0141600Y0044346D03*
X0141600Y0037654D03*
X0135600Y0037654D03*
X0166600Y0037654D03*
X0173600Y0037654D03*
X0173600Y0044346D03*
X0166600Y0044346D03*
X0172600Y0071654D03*
X0178600Y0071654D03*
X0184600Y0071654D03*
X0184600Y0078346D03*
X0178600Y0078346D03*
X0172600Y0078346D03*
X0218600Y0076654D03*
X0218600Y0083346D03*
X0218600Y0098654D03*
X0218600Y0105346D03*
X0218600Y0116654D03*
X0218600Y0123346D03*
X0211600Y0141654D03*
X0211600Y0148346D03*
X0204600Y0148346D03*
X0204600Y0141654D03*
X0218600Y0156654D03*
X0218600Y0163346D03*
X0218600Y0174654D03*
X0218600Y0181346D03*
X0218600Y0196654D03*
X0218600Y0203346D03*
X0218600Y0215654D03*
X0218600Y0222346D03*
X0093600Y0146346D03*
X0087600Y0146346D03*
X0087600Y0139654D03*
X0093600Y0139654D03*
X0110600Y0101346D03*
X0116600Y0101346D03*
X0122600Y0101346D03*
X0122600Y0094654D03*
X0116600Y0094654D03*
X0110600Y0094654D03*
X0218600Y0065346D03*
X0218600Y0058654D03*
D14*
X0135100Y0119370D03*
X0130100Y0119370D03*
X0125100Y0119370D03*
X0120100Y0119370D03*
X0115100Y0119370D03*
X0110100Y0119370D03*
X0105100Y0119370D03*
X0100100Y0119370D03*
X0100100Y0140630D03*
X0105100Y0140630D03*
X0110100Y0140630D03*
X0115100Y0140630D03*
X0120100Y0140630D03*
X0125100Y0140630D03*
X0130100Y0140630D03*
X0135100Y0140630D03*
D15*
X0163966Y0128728D03*
X0166525Y0128728D03*
X0169084Y0128728D03*
X0171643Y0128728D03*
X0174202Y0128728D03*
X0176761Y0128728D03*
X0179320Y0128728D03*
X0181880Y0128728D03*
X0184439Y0128728D03*
X0186998Y0128728D03*
X0189557Y0128728D03*
X0192116Y0128728D03*
X0194675Y0128728D03*
X0197234Y0128728D03*
X0197234Y0157272D03*
X0194675Y0157272D03*
X0192116Y0157272D03*
X0189557Y0157272D03*
X0186998Y0157272D03*
X0184439Y0157272D03*
X0181880Y0157272D03*
X0179320Y0157272D03*
X0176761Y0157272D03*
X0174202Y0157272D03*
X0171643Y0157272D03*
X0169084Y0157272D03*
X0166525Y0157272D03*
X0163966Y0157272D03*
D16*
X0228850Y0155000D03*
X0228850Y0165000D03*
X0228850Y0175000D03*
X0228850Y0185000D03*
X0228850Y0195000D03*
X0228850Y0205000D03*
X0228850Y0215000D03*
X0228850Y0225000D03*
X0266350Y0225000D03*
X0266350Y0215000D03*
X0266350Y0205000D03*
X0266350Y0195000D03*
X0266350Y0185000D03*
X0266350Y0175000D03*
X0266350Y0165000D03*
X0266350Y0155000D03*
X0267350Y0126000D03*
X0267350Y0116000D03*
X0267350Y0106000D03*
X0267350Y0096000D03*
X0267350Y0086000D03*
X0267350Y0076000D03*
X0267350Y0066000D03*
X0267350Y0056000D03*
X0229850Y0056000D03*
X0229850Y0066000D03*
X0229850Y0076000D03*
X0229850Y0086000D03*
X0229850Y0096000D03*
X0229850Y0106000D03*
X0229850Y0116000D03*
X0229850Y0126000D03*
D17*
X0277254Y0154000D03*
X0283946Y0154000D03*
X0283946Y0166000D03*
X0283946Y0172000D03*
X0277254Y0172000D03*
X0277254Y0166000D03*
X0277254Y0186000D03*
X0277254Y0192000D03*
X0283946Y0192000D03*
X0283946Y0186000D03*
X0283946Y0206000D03*
X0277254Y0206000D03*
X0277254Y0212000D03*
X0283946Y0212000D03*
X0283946Y0224000D03*
X0277254Y0224000D03*
X0131946Y0192000D03*
X0125254Y0192000D03*
X0125254Y0186000D03*
X0131946Y0186000D03*
X0131946Y0179000D03*
X0125254Y0179000D03*
X0103946Y0238000D03*
X0097254Y0238000D03*
X0083946Y0238000D03*
X0077254Y0238000D03*
X0062946Y0238000D03*
X0056254Y0238000D03*
X0042946Y0238000D03*
X0036254Y0238000D03*
X0150254Y0095000D03*
X0156946Y0095000D03*
X0156946Y0089000D03*
X0150254Y0089000D03*
X0133946Y0076000D03*
X0133946Y0070000D03*
X0133946Y0064000D03*
X0127254Y0064000D03*
X0127254Y0070000D03*
X0127254Y0076000D03*
X0280254Y0074000D03*
X0286946Y0074000D03*
X0286946Y0068000D03*
X0280254Y0068000D03*
X0280254Y0056000D03*
X0286946Y0056000D03*
X0286946Y0088000D03*
X0280254Y0088000D03*
X0280254Y0094000D03*
X0286946Y0094000D03*
X0286946Y0108000D03*
X0280254Y0108000D03*
X0280254Y0114000D03*
X0286946Y0114000D03*
X0286946Y0126000D03*
X0280254Y0126000D03*
D18*
X0334506Y0162315D03*
X0348915Y0147906D03*
X0368600Y0142630D03*
X0388285Y0147906D03*
X0402694Y0162315D03*
X0407970Y0182000D03*
X0402694Y0201685D03*
X0388285Y0216094D03*
X0368600Y0221370D03*
X0348915Y0216094D03*
X0334506Y0201685D03*
X0329230Y0182000D03*
X0366510Y0109462D03*
X0379609Y0093850D03*
X0383147Y0073781D03*
X0376178Y0054630D03*
X0360566Y0041531D03*
X0340497Y0037992D03*
D19*
X0298600Y0058800D03*
X0298600Y0062000D03*
X0298600Y0065200D03*
X0298600Y0077800D03*
X0298600Y0081000D03*
X0298600Y0084200D03*
X0298600Y0097800D03*
X0298600Y0101000D03*
X0298600Y0104200D03*
X0298600Y0116800D03*
X0298600Y0120000D03*
X0298600Y0123200D03*
X0294600Y0156800D03*
X0294600Y0160000D03*
X0294600Y0163200D03*
X0294600Y0175800D03*
X0294600Y0179000D03*
X0294600Y0182200D03*
X0294600Y0195800D03*
X0294600Y0199000D03*
X0294600Y0202200D03*
X0294600Y0215800D03*
X0294600Y0219000D03*
X0294600Y0222200D03*
X0293600Y0244800D03*
X0293600Y0248000D03*
X0293600Y0251200D03*
X0041600Y0159200D03*
X0041600Y0156000D03*
X0041600Y0152800D03*
X0038600Y0187800D03*
X0038600Y0191000D03*
X0038600Y0194200D03*
X0038600Y0207800D03*
X0038600Y0211000D03*
X0038600Y0214200D03*
D20*
X0050400Y0028000D03*
X0053600Y0028000D03*
X0056800Y0028000D03*
X0072400Y0029000D03*
X0075600Y0029000D03*
X0078800Y0029000D03*
X0094400Y0029000D03*
X0097600Y0029000D03*
X0100800Y0029000D03*
X0116400Y0029000D03*
X0119600Y0029000D03*
X0122800Y0029000D03*
X0138400Y0029000D03*
X0141600Y0029000D03*
X0144800Y0029000D03*
X0170400Y0029000D03*
X0173600Y0029000D03*
X0176800Y0029000D03*
D21*
X0163836Y0066500D03*
X0163836Y0071500D03*
X0163836Y0076500D03*
X0163836Y0081500D03*
X0143364Y0081500D03*
X0143364Y0076500D03*
X0143364Y0071500D03*
X0143364Y0066500D03*
D22*
X0132269Y0057740D03*
X0140931Y0054000D03*
X0132269Y0050260D03*
X0118931Y0054000D03*
X0110269Y0057740D03*
X0110269Y0050260D03*
X0096931Y0054000D03*
X0088269Y0057740D03*
X0088269Y0050260D03*
X0074931Y0054000D03*
X0066269Y0057740D03*
X0066269Y0050260D03*
X0052931Y0054000D03*
X0044269Y0057740D03*
X0044269Y0050260D03*
X0157269Y0050260D03*
X0165931Y0054000D03*
X0157269Y0057740D03*
D23*
X0305200Y0148000D02*
X0312600Y0148000D01*
D24*
X0313600Y0034000D03*
X0293600Y0034000D03*
D25*
X0119537Y0194142D03*
X0117569Y0194142D03*
X0115600Y0194142D03*
X0113631Y0194142D03*
X0111663Y0194142D03*
X0111663Y0211858D03*
X0113631Y0211858D03*
X0115600Y0211858D03*
X0117569Y0211858D03*
X0119537Y0211858D03*
D26*
X0166600Y0219000D03*
D27*
X0135600Y0219000D03*
X0197600Y0219000D03*
D28*
X0123521Y0222000D03*
X0113679Y0222000D03*
D29*
X0097600Y0214402D03*
X0097600Y0189598D03*
D30*
X0343600Y0251000D03*
X0413600Y0251000D03*
D31*
X0316600Y0249000D03*
X0311600Y0249000D03*
X0306600Y0249000D03*
X0306600Y0244000D03*
X0306600Y0239000D03*
X0311600Y0239000D03*
X0311600Y0244000D03*
X0316600Y0244000D03*
X0316600Y0239000D03*
X0316600Y0254000D03*
X0311600Y0254000D03*
X0306600Y0254000D03*
X0306600Y0259000D03*
X0311600Y0259000D03*
X0316600Y0259000D03*
X0300600Y0209000D03*
X0295600Y0209000D03*
X0290600Y0209000D03*
X0290600Y0189000D03*
X0289600Y0169000D03*
X0294600Y0169000D03*
X0299600Y0169000D03*
X0283600Y0148000D03*
X0287600Y0132000D03*
X0315600Y0131000D03*
X0315600Y0135000D03*
X0312600Y0113000D03*
X0305600Y0113000D03*
X0292600Y0114000D03*
X0292600Y0110000D03*
X0273600Y0111000D03*
X0293600Y0091000D03*
X0292600Y0072000D03*
X0297600Y0072000D03*
X0302600Y0072000D03*
X0293600Y0054000D03*
X0218600Y0052000D03*
X0190600Y0066000D03*
X0184600Y0066000D03*
X0178600Y0066000D03*
X0166600Y0062000D03*
X0162600Y0062000D03*
X0146600Y0062000D03*
X0142600Y0060000D03*
X0138600Y0062000D03*
X0129600Y0044000D03*
X0149600Y0044000D03*
X0181254Y0044346D03*
X0190600Y0072000D03*
X0164600Y0089000D03*
X0144100Y0088600D03*
X0144100Y0094600D03*
X0135600Y0111000D03*
X0129600Y0111000D03*
X0104600Y0107000D03*
X0104600Y0101000D03*
X0098600Y0101000D03*
X0087600Y0087000D03*
X0115600Y0073000D03*
X0115600Y0069000D03*
X0115600Y0065000D03*
X0081600Y0066000D03*
X0081600Y0062000D03*
X0081600Y0058000D03*
X0062600Y0067000D03*
X0058600Y0067000D03*
X0059600Y0058000D03*
X0062600Y0043000D03*
X0064600Y0029000D03*
X0085600Y0043000D03*
X0107600Y0043000D03*
X0039600Y0043000D03*
X0042600Y0023000D03*
X0182600Y0122000D03*
X0186600Y0122000D03*
X0190600Y0122000D03*
X0218600Y0130000D03*
X0193600Y0143000D03*
X0181600Y0140000D03*
X0201100Y0157600D03*
X0205100Y0157600D03*
X0211600Y0156000D03*
X0202600Y0177000D03*
X0202600Y0184000D03*
X0202600Y0191000D03*
X0202600Y0198000D03*
X0218600Y0189000D03*
X0211600Y0222000D03*
X0137600Y0192000D03*
X0137600Y0186000D03*
X0125600Y0198000D03*
X0107600Y0210000D03*
X0107600Y0214000D03*
X0106600Y0152000D03*
X0106600Y0148000D03*
X0111600Y0148000D03*
X0111600Y0152000D03*
X0082600Y0146000D03*
X0143600Y0137000D03*
X0147600Y0140000D03*
X0211600Y0097000D03*
D32*
X0284600Y0230000D03*
X0354600Y0238000D03*
M02*
