G75*
%MOIN*%
%OFA0B0*%
%FSLAX25Y25*%
%IPPOS*%
%LPD*%
%AMOC8*
5,1,8,0,0,1.08239X$1,22.5*
%
%ADD10C,0.00300*%
%ADD11C,0.00800*%
%ADD12C,0.00500*%
%ADD13C,0.00600*%
%ADD14C,0.00200*%
%ADD15C,0.00400*%
%ADD16R,0.02000X0.04050*%
%ADD17C,0.00010*%
%ADD18C,0.01969*%
D10*
X0122637Y0199604D02*
X0122637Y0200838D01*
X0122637Y0200221D02*
X0126340Y0200221D01*
X0126340Y0199604D02*
X0126340Y0200838D01*
X0125723Y0202059D02*
X0123254Y0202059D01*
X0122637Y0202676D01*
X0122637Y0203911D01*
X0123254Y0204528D01*
X0123254Y0205742D02*
X0123871Y0205742D01*
X0124488Y0206360D01*
X0124488Y0208211D01*
X0123254Y0208211D02*
X0125723Y0208211D01*
X0126340Y0207594D01*
X0126340Y0206360D01*
X0125723Y0205742D01*
X0125723Y0204528D02*
X0126340Y0203911D01*
X0126340Y0202676D01*
X0125723Y0202059D01*
X0123254Y0205742D02*
X0122637Y0206360D01*
X0122637Y0207594D01*
X0123254Y0208211D01*
X0102166Y0232310D02*
X0102650Y0232794D01*
X0102650Y0233762D01*
X0102166Y0234245D01*
X0101199Y0234245D01*
X0101199Y0233278D01*
X0100231Y0232310D02*
X0102166Y0232310D01*
X0100231Y0232310D02*
X0099748Y0232794D01*
X0099748Y0233762D01*
X0100231Y0234245D01*
X0099748Y0235257D02*
X0102650Y0237192D01*
X0099748Y0237192D01*
X0099748Y0238203D02*
X0099748Y0239655D01*
X0100231Y0240138D01*
X0102166Y0240138D01*
X0102650Y0239655D01*
X0102650Y0238203D01*
X0099748Y0238203D01*
X0099748Y0235257D02*
X0102650Y0235257D01*
X0092650Y0235310D02*
X0090715Y0235310D01*
X0089748Y0236278D01*
X0090715Y0237245D01*
X0092650Y0237245D01*
X0092166Y0238257D02*
X0092650Y0238741D01*
X0092650Y0239708D01*
X0092166Y0240192D01*
X0092650Y0241203D02*
X0089748Y0241203D01*
X0090231Y0240192D02*
X0089748Y0239708D01*
X0089748Y0238741D01*
X0090231Y0238257D01*
X0092166Y0238257D01*
X0091199Y0237245D02*
X0091199Y0235310D01*
X0089748Y0234299D02*
X0089748Y0232364D01*
X0089748Y0233331D02*
X0092650Y0233331D01*
X0081650Y0234321D02*
X0081166Y0233837D01*
X0081650Y0234321D02*
X0081650Y0235288D01*
X0081166Y0235772D01*
X0080683Y0235772D01*
X0080199Y0235288D01*
X0080199Y0234805D01*
X0080199Y0235288D02*
X0079715Y0235772D01*
X0079231Y0235772D01*
X0078748Y0235288D01*
X0078748Y0234321D01*
X0079231Y0233837D01*
X0080199Y0232826D02*
X0080199Y0230891D01*
X0081166Y0231858D02*
X0079231Y0231858D01*
X0081166Y0236784D02*
X0081166Y0237267D01*
X0081650Y0237267D01*
X0081650Y0236784D01*
X0081166Y0236784D01*
X0081166Y0238257D02*
X0081650Y0238741D01*
X0081650Y0239708D01*
X0081166Y0240192D01*
X0080683Y0240192D01*
X0080199Y0239708D01*
X0080199Y0239224D01*
X0080199Y0239708D02*
X0079715Y0240192D01*
X0079231Y0240192D01*
X0078748Y0239708D01*
X0078748Y0238741D01*
X0079231Y0238257D01*
X0078748Y0241203D02*
X0080683Y0241203D01*
X0081650Y0242171D01*
X0080683Y0243138D01*
X0078748Y0243138D01*
X0089748Y0243138D02*
X0092650Y0243138D01*
X0091199Y0243138D02*
X0091199Y0241203D01*
X0061650Y0240655D02*
X0061166Y0241138D01*
X0059231Y0241138D01*
X0058748Y0240655D01*
X0058748Y0239203D01*
X0061650Y0239203D01*
X0061650Y0240655D01*
X0061650Y0238192D02*
X0058748Y0238192D01*
X0058748Y0236257D02*
X0061650Y0238192D01*
X0061650Y0236257D02*
X0058748Y0236257D01*
X0059231Y0235245D02*
X0058748Y0234762D01*
X0058748Y0233794D01*
X0059231Y0233310D01*
X0061166Y0233310D01*
X0061650Y0233794D01*
X0061650Y0234762D01*
X0061166Y0235245D01*
X0060199Y0235245D01*
X0060199Y0234278D01*
X0050650Y0236278D02*
X0049683Y0235310D01*
X0047748Y0235310D01*
X0047748Y0237245D02*
X0049683Y0237245D01*
X0050650Y0236278D01*
X0050166Y0238257D02*
X0050650Y0238741D01*
X0050650Y0239708D01*
X0050166Y0240192D01*
X0049683Y0240192D01*
X0049199Y0239708D01*
X0049199Y0238741D01*
X0048715Y0238257D01*
X0048231Y0238257D01*
X0047748Y0238741D01*
X0047748Y0239708D01*
X0048231Y0240192D01*
X0048231Y0241203D02*
X0048715Y0241203D01*
X0049199Y0241687D01*
X0049199Y0242655D01*
X0049683Y0243138D01*
X0050166Y0243138D01*
X0050650Y0242655D01*
X0050650Y0241687D01*
X0050166Y0241203D01*
X0048231Y0241203D02*
X0047748Y0241687D01*
X0047748Y0242655D01*
X0048231Y0243138D01*
X0040650Y0242171D02*
X0039683Y0241203D01*
X0037748Y0241203D01*
X0038231Y0240192D02*
X0038715Y0240192D01*
X0039199Y0239708D01*
X0039683Y0240192D01*
X0040166Y0240192D01*
X0040650Y0239708D01*
X0040650Y0238741D01*
X0040166Y0238257D01*
X0040166Y0237267D02*
X0040650Y0237267D01*
X0040650Y0236784D01*
X0040166Y0236784D01*
X0040166Y0237267D01*
X0040166Y0235772D02*
X0040650Y0235288D01*
X0040650Y0234321D01*
X0040166Y0233837D01*
X0039199Y0234805D02*
X0039199Y0235288D01*
X0039683Y0235772D01*
X0040166Y0235772D01*
X0039199Y0235288D02*
X0038715Y0235772D01*
X0038231Y0235772D01*
X0037748Y0235288D01*
X0037748Y0234321D01*
X0038231Y0233837D01*
X0039199Y0232826D02*
X0039199Y0230891D01*
X0040166Y0231858D02*
X0038231Y0231858D01*
X0038231Y0238257D02*
X0037748Y0238741D01*
X0037748Y0239708D01*
X0038231Y0240192D01*
X0039199Y0239708D02*
X0039199Y0239224D01*
X0040650Y0242171D02*
X0039683Y0243138D01*
X0037748Y0243138D01*
X0121968Y0244767D02*
X0122585Y0244150D01*
X0123820Y0244150D01*
X0124437Y0244767D01*
X0123820Y0245384D02*
X0123820Y0246619D01*
X0122585Y0246619D01*
X0122585Y0245384D01*
X0123820Y0245384D01*
X0124437Y0246002D01*
X0124437Y0247236D01*
X0123820Y0247853D01*
X0122585Y0247853D01*
X0121968Y0247236D01*
X0121968Y0244767D01*
X0125651Y0244767D02*
X0126269Y0244150D01*
X0126886Y0244767D01*
X0127503Y0244150D01*
X0128120Y0244767D01*
X0128120Y0246619D01*
X0129335Y0246002D02*
X0129952Y0246619D01*
X0131186Y0246619D01*
X0131803Y0246002D01*
X0131803Y0244150D01*
X0133018Y0244150D02*
X0134252Y0244150D01*
X0133635Y0244150D02*
X0133635Y0246619D01*
X0133018Y0246619D01*
X0133635Y0247853D02*
X0133635Y0248470D01*
X0135473Y0246619D02*
X0136708Y0246619D01*
X0136090Y0247236D02*
X0136090Y0244767D01*
X0136708Y0244150D01*
X0138546Y0244150D02*
X0138546Y0247236D01*
X0139163Y0247853D01*
X0140384Y0246619D02*
X0141001Y0246619D01*
X0141001Y0244150D01*
X0140384Y0244150D02*
X0141618Y0244150D01*
X0142839Y0242916D02*
X0143457Y0242916D01*
X0144074Y0243533D01*
X0144074Y0246619D01*
X0144074Y0247853D02*
X0144074Y0248470D01*
X0145909Y0250150D02*
X0147760Y0250150D01*
X0148378Y0250767D01*
X0148378Y0253236D01*
X0147760Y0253853D01*
X0145909Y0253853D01*
X0145909Y0250150D01*
X0149592Y0250767D02*
X0149592Y0252002D01*
X0150209Y0252619D01*
X0151443Y0252619D01*
X0152061Y0252002D01*
X0152061Y0251384D01*
X0149592Y0251384D01*
X0149592Y0250767D02*
X0150209Y0250150D01*
X0151443Y0250150D01*
X0153275Y0250767D02*
X0153892Y0250150D01*
X0155744Y0250150D01*
X0155744Y0252619D02*
X0153892Y0252619D01*
X0153275Y0252002D01*
X0153275Y0250767D01*
X0152057Y0256150D02*
X0150823Y0256150D01*
X0150206Y0256767D01*
X0152675Y0259236D01*
X0152675Y0256767D01*
X0152057Y0256150D01*
X0150206Y0256767D02*
X0150206Y0259236D01*
X0150823Y0259853D01*
X0152057Y0259853D01*
X0152675Y0259236D01*
X0148991Y0258002D02*
X0146523Y0258002D01*
X0148374Y0259853D01*
X0148374Y0256150D01*
X0145308Y0256150D02*
X0142839Y0256150D01*
X0145308Y0258619D01*
X0145308Y0259236D01*
X0144691Y0259853D01*
X0143457Y0259853D01*
X0142839Y0259236D01*
X0137942Y0258002D02*
X0137942Y0256767D01*
X0137325Y0256150D01*
X0136090Y0256150D01*
X0135473Y0256767D01*
X0135473Y0258002D01*
X0136090Y0258619D01*
X0137325Y0258619D01*
X0137942Y0258002D01*
X0134259Y0258619D02*
X0133024Y0256150D01*
X0131790Y0258619D01*
X0129952Y0259853D02*
X0129952Y0256150D01*
X0129335Y0256150D02*
X0130569Y0256150D01*
X0128120Y0256767D02*
X0128120Y0258002D01*
X0127503Y0258619D01*
X0126269Y0258619D01*
X0125651Y0258002D01*
X0125651Y0256767D01*
X0126269Y0256150D01*
X0127503Y0256150D01*
X0128120Y0256767D01*
X0129335Y0259853D02*
X0129952Y0259853D01*
X0124437Y0259853D02*
X0124437Y0257384D01*
X0123203Y0256150D01*
X0121968Y0257384D01*
X0121968Y0259853D01*
X0121968Y0253853D02*
X0123820Y0253853D01*
X0124437Y0253236D01*
X0124437Y0252002D01*
X0123820Y0251384D01*
X0121968Y0251384D01*
X0121968Y0250150D02*
X0121968Y0253853D01*
X0123203Y0251384D02*
X0124437Y0250150D01*
X0125651Y0250767D02*
X0125651Y0252002D01*
X0126269Y0252619D01*
X0127503Y0252619D01*
X0128120Y0252002D01*
X0128120Y0251384D01*
X0125651Y0251384D01*
X0125651Y0250767D02*
X0126269Y0250150D01*
X0127503Y0250150D01*
X0129335Y0247853D02*
X0129335Y0244150D01*
X0125651Y0244767D02*
X0125651Y0246619D01*
X0130569Y0250150D02*
X0131803Y0252619D01*
X0129335Y0252619D02*
X0130569Y0250150D01*
X0136701Y0250150D02*
X0136701Y0252619D01*
X0137935Y0253853D01*
X0139170Y0252619D01*
X0139170Y0250150D01*
X0140384Y0250150D02*
X0141001Y0250150D01*
X0141001Y0250767D01*
X0140384Y0250767D01*
X0140384Y0250150D01*
X0141001Y0248470D02*
X0141001Y0247853D01*
X0139163Y0246002D02*
X0137929Y0246002D01*
X0145295Y0246002D02*
X0145912Y0246619D01*
X0147764Y0246619D01*
X0147146Y0245384D02*
X0145912Y0245384D01*
X0145295Y0246002D01*
X0145295Y0244150D02*
X0147146Y0244150D01*
X0147764Y0244767D01*
X0147146Y0245384D01*
X0139170Y0252002D02*
X0136701Y0252002D01*
X0157572Y0256150D02*
X0157572Y0259853D01*
X0159424Y0259853D01*
X0160041Y0259236D01*
X0160041Y0258002D01*
X0159424Y0257384D01*
X0157572Y0257384D01*
X0161255Y0256150D02*
X0162490Y0256150D01*
X0161872Y0256150D02*
X0161872Y0258619D01*
X0161255Y0258619D01*
X0161872Y0259853D02*
X0161872Y0260470D01*
X0167394Y0259853D02*
X0167394Y0256150D01*
X0169245Y0256150D01*
X0169863Y0256767D01*
X0169863Y0259236D01*
X0169245Y0259853D01*
X0167394Y0259853D01*
X0171694Y0258619D02*
X0172928Y0258619D01*
X0173546Y0258002D01*
X0173546Y0256150D01*
X0171694Y0256150D01*
X0171077Y0256767D01*
X0171694Y0257384D01*
X0173546Y0257384D01*
X0174760Y0258002D02*
X0175377Y0257384D01*
X0176612Y0257384D01*
X0177229Y0256767D01*
X0176612Y0256150D01*
X0174760Y0256150D01*
X0174760Y0258002D02*
X0175377Y0258619D01*
X0177229Y0258619D01*
X0178443Y0258002D02*
X0179060Y0258619D01*
X0180295Y0258619D01*
X0180912Y0258002D01*
X0180912Y0256150D01*
X0178443Y0256150D02*
X0178443Y0259853D01*
X0185809Y0258619D02*
X0185809Y0256150D01*
X0185809Y0258002D02*
X0188278Y0258002D01*
X0188278Y0258619D02*
X0188278Y0256150D01*
X0189493Y0256767D02*
X0189493Y0258002D01*
X0190110Y0258619D01*
X0191961Y0258619D01*
X0191961Y0259853D02*
X0191961Y0256150D01*
X0190110Y0256150D01*
X0189493Y0256767D01*
X0188278Y0258619D02*
X0187044Y0259853D01*
X0185809Y0258619D01*
X0193176Y0256767D02*
X0193793Y0257384D01*
X0195645Y0257384D01*
X0195645Y0258002D02*
X0195645Y0256150D01*
X0193793Y0256150D01*
X0193176Y0256767D01*
X0193793Y0258619D02*
X0195027Y0258619D01*
X0195645Y0258002D01*
X0196859Y0258619D02*
X0198710Y0258619D01*
X0199328Y0258002D01*
X0199328Y0256767D01*
X0198710Y0256150D01*
X0196859Y0256150D01*
X0196859Y0254916D02*
X0196859Y0258619D01*
X0200542Y0258619D02*
X0201776Y0258619D01*
X0201159Y0259236D02*
X0201159Y0256767D01*
X0201776Y0256150D01*
X0202997Y0256767D02*
X0202997Y0258002D01*
X0203615Y0258619D01*
X0204849Y0258619D01*
X0205466Y0258002D01*
X0205466Y0257384D01*
X0202997Y0257384D01*
X0202997Y0256767D02*
X0203615Y0256150D01*
X0204849Y0256150D01*
X0206681Y0256150D02*
X0206681Y0258619D01*
X0207915Y0258619D02*
X0208532Y0258619D01*
X0207915Y0258619D02*
X0206681Y0257384D01*
X0174160Y0250150D02*
X0171691Y0250150D01*
X0170476Y0250150D02*
X0168008Y0250150D01*
X0170476Y0252619D01*
X0170476Y0253236D01*
X0169859Y0253853D01*
X0168625Y0253853D01*
X0168008Y0253236D01*
X0166793Y0253236D02*
X0164324Y0250767D01*
X0164942Y0250150D01*
X0166176Y0250150D01*
X0166793Y0250767D01*
X0166793Y0253236D01*
X0166176Y0253853D01*
X0164942Y0253853D01*
X0164324Y0253236D01*
X0164324Y0250767D01*
X0163110Y0250150D02*
X0160641Y0250150D01*
X0163110Y0252619D01*
X0163110Y0253236D01*
X0162493Y0253853D01*
X0161259Y0253853D01*
X0160641Y0253236D01*
X0171691Y0252619D02*
X0172925Y0253853D01*
X0172925Y0250150D01*
D11*
X0041600Y0008500D02*
X0044100Y0006000D01*
X0049100Y0006000D01*
X0051600Y0008500D01*
X0054100Y0006000D01*
X0059100Y0006000D01*
X0061600Y0008500D01*
X0061600Y0013500D01*
X0059100Y0016000D01*
X0054100Y0016000D01*
X0051600Y0013500D01*
X0049100Y0016000D01*
X0044100Y0016000D01*
X0041600Y0013500D01*
X0041600Y0008500D01*
X0063600Y0008500D02*
X0066100Y0006000D01*
X0071100Y0006000D01*
X0073600Y0008500D01*
X0076100Y0006000D01*
X0081100Y0006000D01*
X0083600Y0008500D01*
X0083600Y0013500D01*
X0081100Y0016000D01*
X0076100Y0016000D01*
X0073600Y0013500D01*
X0071100Y0016000D01*
X0066100Y0016000D01*
X0063600Y0013500D01*
X0063600Y0008500D01*
X0085600Y0008500D02*
X0088100Y0006000D01*
X0093100Y0006000D01*
X0095600Y0008500D01*
X0098100Y0006000D01*
X0103100Y0006000D01*
X0105600Y0008500D01*
X0105600Y0013500D01*
X0103100Y0016000D01*
X0098100Y0016000D01*
X0095600Y0013500D01*
X0093100Y0016000D01*
X0088100Y0016000D01*
X0085600Y0013500D01*
X0085600Y0008500D01*
X0107600Y0008500D02*
X0110100Y0006000D01*
X0115100Y0006000D01*
X0117600Y0008500D01*
X0120100Y0006000D01*
X0125100Y0006000D01*
X0127600Y0008500D01*
X0127600Y0013500D01*
X0125100Y0016000D01*
X0120100Y0016000D01*
X0117600Y0013500D01*
X0115100Y0016000D01*
X0110100Y0016000D01*
X0107600Y0013500D01*
X0107600Y0008500D01*
X0129600Y0008500D02*
X0132100Y0006000D01*
X0137100Y0006000D01*
X0139600Y0008500D01*
X0142100Y0006000D01*
X0147100Y0006000D01*
X0149600Y0008500D01*
X0152100Y0006000D01*
X0157100Y0006000D01*
X0159600Y0008500D01*
X0159600Y0013500D01*
X0157100Y0016000D01*
X0152100Y0016000D01*
X0149600Y0013500D01*
X0147100Y0016000D01*
X0142100Y0016000D01*
X0139600Y0013500D01*
X0137100Y0016000D01*
X0132100Y0016000D01*
X0129600Y0013500D01*
X0129600Y0008500D01*
X0161600Y0008500D02*
X0164100Y0006000D01*
X0169100Y0006000D01*
X0171600Y0008500D01*
X0174100Y0006000D01*
X0179100Y0006000D01*
X0181600Y0008500D01*
X0184100Y0006000D01*
X0189100Y0006000D01*
X0191600Y0008500D01*
X0191600Y0013500D01*
X0189100Y0016000D01*
X0184100Y0016000D01*
X0181600Y0013500D01*
X0179100Y0016000D01*
X0174100Y0016000D01*
X0171600Y0013500D01*
X0169100Y0016000D01*
X0164100Y0016000D01*
X0161600Y0013500D01*
X0161600Y0008500D01*
X0030313Y0032965D02*
X0030313Y0039465D01*
X0028813Y0038965D02*
X0026313Y0041465D01*
X0011313Y0041465D01*
X0008813Y0043965D01*
X0008813Y0048965D01*
X0011313Y0051465D01*
X0026313Y0051465D01*
X0028813Y0048965D01*
X0028813Y0043965D01*
X0026313Y0041465D01*
X0028813Y0038965D02*
X0028813Y0033965D01*
X0026313Y0031465D01*
X0021313Y0031465D01*
X0018813Y0033965D01*
X0016313Y0031465D01*
X0011313Y0031465D01*
X0008813Y0033965D01*
X0008813Y0038965D01*
X0011313Y0041465D01*
X0011313Y0051465D02*
X0008813Y0053965D01*
X0008813Y0058965D01*
X0011313Y0061465D01*
X0026313Y0061465D01*
X0028813Y0063965D01*
X0028813Y0068965D01*
X0026313Y0071465D01*
X0011313Y0071465D01*
X0008813Y0073965D01*
X0008813Y0078965D01*
X0011313Y0081465D01*
X0026313Y0081465D01*
X0028813Y0078965D01*
X0028813Y0073965D01*
X0026313Y0071465D01*
X0026313Y0081465D02*
X0028813Y0083965D01*
X0028813Y0088965D01*
X0026313Y0091465D01*
X0011313Y0091465D01*
X0008813Y0093965D01*
X0008813Y0098965D01*
X0011313Y0101465D01*
X0026313Y0101465D01*
X0028813Y0103965D01*
X0028813Y0108965D01*
X0026313Y0111465D01*
X0011313Y0111465D01*
X0008813Y0113965D01*
X0008813Y0118965D01*
X0011313Y0121465D01*
X0026313Y0121465D01*
X0028813Y0118965D01*
X0028813Y0113965D01*
X0026313Y0111465D01*
X0026313Y0121465D02*
X0028813Y0123965D01*
X0028813Y0128965D01*
X0026313Y0131465D01*
X0011313Y0131465D01*
X0008813Y0133965D01*
X0008813Y0138965D01*
X0011313Y0141465D01*
X0026313Y0141465D01*
X0028813Y0143965D01*
X0028813Y0148965D01*
X0026313Y0151465D01*
X0011313Y0151465D01*
X0008813Y0148965D01*
X0008813Y0143965D01*
X0011313Y0141465D01*
X0011313Y0151465D02*
X0008813Y0153965D01*
X0008813Y0158965D01*
X0011313Y0161465D01*
X0026313Y0161465D01*
X0028813Y0163965D01*
X0028813Y0168965D01*
X0026313Y0171465D01*
X0028813Y0173965D01*
X0028813Y0178965D01*
X0026313Y0181465D01*
X0028813Y0183965D01*
X0028813Y0188965D01*
X0026313Y0191465D01*
X0028813Y0193965D01*
X0028813Y0198965D01*
X0026313Y0201465D01*
X0028813Y0203965D01*
X0028813Y0208965D01*
X0026313Y0211465D01*
X0028813Y0213965D01*
X0028813Y0218965D01*
X0026313Y0221465D01*
X0028813Y0223965D01*
X0028813Y0228965D01*
X0026313Y0231465D01*
X0021313Y0231465D01*
X0018813Y0228965D01*
X0016313Y0231465D01*
X0011313Y0231465D01*
X0008813Y0228965D01*
X0008813Y0223965D01*
X0011313Y0221465D01*
X0026313Y0221465D01*
X0026313Y0211465D02*
X0011313Y0211465D01*
X0008813Y0213965D01*
X0008813Y0218965D01*
X0011313Y0221465D01*
X0011313Y0211465D02*
X0008813Y0208965D01*
X0008813Y0203965D01*
X0011313Y0201465D01*
X0026313Y0201465D01*
X0026313Y0191465D02*
X0011313Y0191465D01*
X0008813Y0188965D01*
X0008813Y0183965D01*
X0011313Y0181465D01*
X0026313Y0181465D01*
X0026313Y0171465D02*
X0011313Y0171465D01*
X0008813Y0173965D01*
X0008813Y0178965D01*
X0011313Y0181465D01*
X0011313Y0171465D02*
X0008813Y0168965D01*
X0008813Y0163965D01*
X0011313Y0161465D01*
X0026313Y0161465D02*
X0028813Y0158965D01*
X0028813Y0153965D01*
X0026313Y0151465D01*
X0026313Y0141465D02*
X0028813Y0138965D01*
X0028813Y0133965D01*
X0026313Y0131465D01*
X0011313Y0131465D02*
X0008813Y0128965D01*
X0008813Y0123965D01*
X0011313Y0121465D01*
X0011313Y0111465D02*
X0008813Y0108965D01*
X0008813Y0103965D01*
X0011313Y0101465D01*
X0011313Y0091465D02*
X0008813Y0088965D01*
X0008813Y0083965D01*
X0011313Y0081465D01*
X0011313Y0071465D02*
X0008813Y0068965D01*
X0008813Y0063965D01*
X0011313Y0061465D01*
X0026313Y0061465D02*
X0028813Y0058965D01*
X0028813Y0053965D01*
X0026313Y0051465D01*
X0026313Y0091465D02*
X0028813Y0093965D01*
X0028813Y0098965D01*
X0026313Y0101465D01*
X0096900Y0123444D02*
X0096900Y0127400D01*
X0097100Y0127400D02*
X0097198Y0127402D01*
X0097296Y0127408D01*
X0097394Y0127417D01*
X0097491Y0127431D01*
X0097588Y0127448D01*
X0097684Y0127469D01*
X0097779Y0127494D01*
X0097873Y0127522D01*
X0097965Y0127555D01*
X0098057Y0127590D01*
X0098147Y0127630D01*
X0098235Y0127672D01*
X0098322Y0127719D01*
X0098406Y0127768D01*
X0098489Y0127821D01*
X0098569Y0127877D01*
X0098648Y0127937D01*
X0098724Y0127999D01*
X0098797Y0128064D01*
X0098868Y0128132D01*
X0098936Y0128203D01*
X0099001Y0128276D01*
X0099063Y0128352D01*
X0099123Y0128431D01*
X0099179Y0128511D01*
X0099232Y0128594D01*
X0099281Y0128678D01*
X0099328Y0128765D01*
X0099370Y0128853D01*
X0099410Y0128943D01*
X0099445Y0129035D01*
X0099478Y0129127D01*
X0099506Y0129221D01*
X0099531Y0129316D01*
X0099552Y0129412D01*
X0099569Y0129509D01*
X0099583Y0129606D01*
X0099592Y0129704D01*
X0099598Y0129802D01*
X0099600Y0129900D01*
X0099598Y0129998D01*
X0099592Y0130096D01*
X0099583Y0130194D01*
X0099569Y0130291D01*
X0099552Y0130388D01*
X0099531Y0130484D01*
X0099506Y0130579D01*
X0099478Y0130673D01*
X0099445Y0130765D01*
X0099410Y0130857D01*
X0099370Y0130947D01*
X0099328Y0131035D01*
X0099281Y0131122D01*
X0099232Y0131206D01*
X0099179Y0131289D01*
X0099123Y0131369D01*
X0099063Y0131448D01*
X0099001Y0131524D01*
X0098936Y0131597D01*
X0098868Y0131668D01*
X0098797Y0131736D01*
X0098724Y0131801D01*
X0098648Y0131863D01*
X0098569Y0131923D01*
X0098489Y0131979D01*
X0098406Y0132032D01*
X0098322Y0132081D01*
X0098235Y0132128D01*
X0098147Y0132170D01*
X0098057Y0132210D01*
X0097965Y0132245D01*
X0097873Y0132278D01*
X0097779Y0132306D01*
X0097684Y0132331D01*
X0097588Y0132352D01*
X0097491Y0132369D01*
X0097394Y0132383D01*
X0097296Y0132392D01*
X0097198Y0132398D01*
X0097100Y0132400D01*
X0096900Y0132400D02*
X0096900Y0135719D01*
X0096899Y0135769D02*
X0096892Y0135850D01*
X0096888Y0135931D01*
X0096889Y0136012D01*
X0096893Y0136094D01*
X0096901Y0136174D01*
X0096913Y0136255D01*
X0096928Y0136335D01*
X0096948Y0136414D01*
X0096971Y0136492D01*
X0096998Y0136568D01*
X0097028Y0136644D01*
X0097062Y0136718D01*
X0097100Y0136790D01*
X0097141Y0136860D01*
X0097185Y0136928D01*
X0097232Y0136994D01*
X0097283Y0137058D01*
X0097336Y0137119D01*
X0097393Y0137178D01*
X0097452Y0137234D01*
X0097513Y0137287D01*
X0097577Y0137337D01*
X0097644Y0137384D01*
X0097712Y0137428D01*
X0097783Y0137468D01*
X0097855Y0137505D01*
X0097929Y0137539D01*
X0098005Y0137568D01*
X0098082Y0137595D01*
X0098160Y0137617D01*
X0098239Y0137636D01*
X0098319Y0137651D01*
X0098400Y0137663D01*
X0136800Y0137663D01*
X0136876Y0137661D01*
X0136951Y0137655D01*
X0137027Y0137646D01*
X0137102Y0137632D01*
X0137176Y0137615D01*
X0137249Y0137594D01*
X0137321Y0137570D01*
X0137391Y0137542D01*
X0137460Y0137510D01*
X0137528Y0137475D01*
X0137593Y0137436D01*
X0137657Y0137394D01*
X0137718Y0137349D01*
X0137777Y0137301D01*
X0137833Y0137250D01*
X0137887Y0137196D01*
X0137938Y0137140D01*
X0137986Y0137081D01*
X0138031Y0137020D01*
X0138073Y0136956D01*
X0138112Y0136891D01*
X0138147Y0136823D01*
X0138179Y0136754D01*
X0138207Y0136684D01*
X0138231Y0136612D01*
X0138252Y0136539D01*
X0138269Y0136465D01*
X0138283Y0136390D01*
X0138292Y0136314D01*
X0138298Y0136239D01*
X0138300Y0136163D01*
X0138300Y0123837D01*
X0138300Y0123838D02*
X0138309Y0123767D01*
X0138314Y0123696D01*
X0138315Y0123624D01*
X0138312Y0123553D01*
X0138305Y0123482D01*
X0138295Y0123411D01*
X0138281Y0123342D01*
X0138262Y0123272D01*
X0138241Y0123204D01*
X0138215Y0123138D01*
X0138186Y0123073D01*
X0138154Y0123009D01*
X0138118Y0122947D01*
X0138079Y0122888D01*
X0138036Y0122830D01*
X0137991Y0122775D01*
X0137942Y0122723D01*
X0137891Y0122673D01*
X0137838Y0122626D01*
X0137781Y0122582D01*
X0137723Y0122541D01*
X0137662Y0122503D01*
X0137600Y0122469D01*
X0137535Y0122438D01*
X0137469Y0122411D01*
X0137402Y0122387D01*
X0137334Y0122367D01*
X0137264Y0122350D01*
X0137194Y0122338D01*
X0137194Y0122337D02*
X0098400Y0122337D01*
X0098400Y0122338D02*
X0098330Y0122329D01*
X0098258Y0122324D01*
X0098187Y0122323D01*
X0098116Y0122326D01*
X0098045Y0122333D01*
X0097974Y0122343D01*
X0097904Y0122357D01*
X0097835Y0122375D01*
X0097767Y0122397D01*
X0097700Y0122423D01*
X0097635Y0122452D01*
X0097572Y0122484D01*
X0097510Y0122520D01*
X0097450Y0122559D01*
X0097393Y0122602D01*
X0097338Y0122647D01*
X0097285Y0122695D01*
X0097235Y0122747D01*
X0097188Y0122800D01*
X0097144Y0122856D01*
X0097104Y0122915D01*
X0097066Y0122976D01*
X0097032Y0123038D01*
X0097001Y0123102D01*
X0096973Y0123168D01*
X0096950Y0123236D01*
X0096930Y0123304D01*
X0096913Y0123374D01*
X0096901Y0123444D01*
X0160521Y0132764D02*
X0200679Y0132764D01*
X0200679Y0153236D01*
X0160521Y0153236D01*
X0104490Y0191173D02*
X0104490Y0212827D01*
X0104488Y0212889D01*
X0104482Y0212950D01*
X0104473Y0213011D01*
X0104459Y0213072D01*
X0104442Y0213131D01*
X0104421Y0213189D01*
X0104396Y0213246D01*
X0104368Y0213301D01*
X0104337Y0213354D01*
X0104302Y0213405D01*
X0104264Y0213454D01*
X0104223Y0213501D01*
X0104180Y0213544D01*
X0104133Y0213585D01*
X0104084Y0213623D01*
X0104033Y0213658D01*
X0103980Y0213689D01*
X0103925Y0213717D01*
X0103868Y0213742D01*
X0103810Y0213763D01*
X0103751Y0213780D01*
X0103690Y0213794D01*
X0103629Y0213803D01*
X0103568Y0213809D01*
X0103506Y0213811D01*
X0101931Y0213811D01*
X0100553Y0207906D02*
X0094647Y0207906D01*
X0094647Y0196094D01*
X0100553Y0196094D01*
X0100553Y0207906D01*
X0109498Y0208512D02*
X0109498Y0197488D01*
X0109497Y0197488D02*
X0109499Y0197442D01*
X0109504Y0197396D01*
X0109513Y0197350D01*
X0109526Y0197305D01*
X0109542Y0197262D01*
X0109561Y0197220D01*
X0109584Y0197179D01*
X0109610Y0197141D01*
X0109639Y0197104D01*
X0109670Y0197070D01*
X0109704Y0197039D01*
X0109741Y0197010D01*
X0109779Y0196984D01*
X0109820Y0196961D01*
X0109862Y0196942D01*
X0109905Y0196926D01*
X0109950Y0196913D01*
X0109996Y0196904D01*
X0110042Y0196899D01*
X0110088Y0196897D01*
X0110088Y0196898D02*
X0121112Y0196898D01*
X0121112Y0196897D02*
X0121158Y0196899D01*
X0121204Y0196904D01*
X0121250Y0196913D01*
X0121295Y0196926D01*
X0121338Y0196942D01*
X0121380Y0196961D01*
X0121421Y0196984D01*
X0121459Y0197010D01*
X0121496Y0197039D01*
X0121530Y0197070D01*
X0121561Y0197104D01*
X0121590Y0197141D01*
X0121616Y0197179D01*
X0121639Y0197220D01*
X0121658Y0197262D01*
X0121674Y0197305D01*
X0121687Y0197350D01*
X0121696Y0197396D01*
X0121701Y0197442D01*
X0121703Y0197488D01*
X0121702Y0197488D02*
X0121702Y0208512D01*
X0121703Y0208512D02*
X0121701Y0208558D01*
X0121696Y0208604D01*
X0121687Y0208650D01*
X0121674Y0208695D01*
X0121658Y0208738D01*
X0121639Y0208780D01*
X0121616Y0208821D01*
X0121590Y0208859D01*
X0121561Y0208896D01*
X0121530Y0208930D01*
X0121496Y0208961D01*
X0121459Y0208990D01*
X0121421Y0209016D01*
X0121380Y0209039D01*
X0121338Y0209058D01*
X0121295Y0209074D01*
X0121250Y0209087D01*
X0121204Y0209096D01*
X0121158Y0209101D01*
X0121112Y0209103D01*
X0121112Y0209102D02*
X0110088Y0209102D01*
X0110088Y0209103D02*
X0110042Y0209101D01*
X0109996Y0209096D01*
X0109950Y0209087D01*
X0109905Y0209074D01*
X0109862Y0209058D01*
X0109820Y0209039D01*
X0109779Y0209016D01*
X0109741Y0208990D01*
X0109704Y0208961D01*
X0109670Y0208930D01*
X0109639Y0208896D01*
X0109610Y0208859D01*
X0109584Y0208821D01*
X0109561Y0208780D01*
X0109542Y0208738D01*
X0109526Y0208695D01*
X0109513Y0208650D01*
X0109504Y0208604D01*
X0109499Y0208558D01*
X0109497Y0208512D01*
X0093269Y0213811D02*
X0091694Y0213811D01*
X0091632Y0213809D01*
X0091571Y0213803D01*
X0091510Y0213794D01*
X0091449Y0213780D01*
X0091390Y0213763D01*
X0091332Y0213742D01*
X0091275Y0213717D01*
X0091220Y0213689D01*
X0091167Y0213658D01*
X0091116Y0213623D01*
X0091067Y0213585D01*
X0091020Y0213544D01*
X0090977Y0213501D01*
X0090936Y0213454D01*
X0090898Y0213405D01*
X0090863Y0213354D01*
X0090832Y0213301D01*
X0090804Y0213246D01*
X0090779Y0213189D01*
X0090758Y0213131D01*
X0090741Y0213072D01*
X0090727Y0213011D01*
X0090718Y0212950D01*
X0090712Y0212889D01*
X0090710Y0212827D01*
X0090710Y0191173D01*
X0090712Y0191111D01*
X0090718Y0191050D01*
X0090727Y0190989D01*
X0090741Y0190928D01*
X0090758Y0190869D01*
X0090779Y0190811D01*
X0090804Y0190754D01*
X0090832Y0190699D01*
X0090863Y0190646D01*
X0090898Y0190595D01*
X0090936Y0190546D01*
X0090977Y0190499D01*
X0091020Y0190456D01*
X0091067Y0190415D01*
X0091116Y0190377D01*
X0091167Y0190342D01*
X0091220Y0190311D01*
X0091275Y0190283D01*
X0091332Y0190258D01*
X0091390Y0190237D01*
X0091449Y0190220D01*
X0091510Y0190206D01*
X0091571Y0190197D01*
X0091632Y0190191D01*
X0091694Y0190189D01*
X0093269Y0190189D01*
X0101931Y0190189D02*
X0103506Y0190189D01*
X0103568Y0190191D01*
X0103629Y0190197D01*
X0103690Y0190206D01*
X0103751Y0190220D01*
X0103810Y0190237D01*
X0103868Y0190258D01*
X0103925Y0190283D01*
X0103980Y0190311D01*
X0104033Y0190342D01*
X0104084Y0190377D01*
X0104133Y0190415D01*
X0104180Y0190456D01*
X0104223Y0190499D01*
X0104264Y0190546D01*
X0104302Y0190595D01*
X0104337Y0190646D01*
X0104368Y0190699D01*
X0104396Y0190754D01*
X0104421Y0190811D01*
X0104442Y0190869D01*
X0104459Y0190928D01*
X0104473Y0190989D01*
X0104482Y0191050D01*
X0104488Y0191111D01*
X0104490Y0191173D01*
X0142600Y0206000D02*
X0142600Y0236000D01*
X0142662Y0236156D01*
X0142729Y0236311D01*
X0142798Y0236464D01*
X0142872Y0236616D01*
X0142949Y0236765D01*
X0143030Y0236913D01*
X0143114Y0237059D01*
X0143202Y0237202D01*
X0143293Y0237344D01*
X0143387Y0237483D01*
X0143485Y0237620D01*
X0143586Y0237754D01*
X0143691Y0237886D01*
X0143798Y0238016D01*
X0143909Y0238142D01*
X0144023Y0238266D01*
X0144139Y0238388D01*
X0144259Y0238506D01*
X0144381Y0238622D01*
X0144506Y0238734D01*
X0144634Y0238844D01*
X0144765Y0238950D01*
X0144898Y0239053D01*
X0145033Y0239153D01*
X0145171Y0239250D01*
X0145311Y0239343D01*
X0145453Y0239433D01*
X0145598Y0239519D01*
X0145744Y0239602D01*
X0145893Y0239681D01*
X0146043Y0239757D01*
X0146195Y0239829D01*
X0146349Y0239897D01*
X0146504Y0239962D01*
X0146661Y0240023D01*
X0146819Y0240080D01*
X0146979Y0240133D01*
X0147140Y0240182D01*
X0147302Y0240228D01*
X0147465Y0240269D01*
X0147629Y0240307D01*
X0147794Y0240340D01*
X0147960Y0240370D01*
X0148126Y0240396D01*
X0148293Y0240417D01*
X0148460Y0240435D01*
X0148628Y0240448D01*
X0148796Y0240457D01*
X0148964Y0240463D01*
X0149133Y0240464D01*
X0149301Y0240461D01*
X0149469Y0240454D01*
X0149637Y0240443D01*
X0149805Y0240428D01*
X0149972Y0240409D01*
X0150138Y0240386D01*
X0150305Y0240359D01*
X0150470Y0240328D01*
X0150635Y0240293D01*
X0150798Y0240254D01*
X0150961Y0240211D01*
X0151123Y0240164D01*
X0151283Y0240113D01*
X0151442Y0240058D01*
X0151600Y0240000D01*
X0151967Y0239642D01*
X0152342Y0239293D01*
X0152726Y0238953D01*
X0153118Y0238622D01*
X0153518Y0238301D01*
X0153925Y0237990D01*
X0154340Y0237689D01*
X0154761Y0237398D01*
X0155190Y0237117D01*
X0155626Y0236846D01*
X0156068Y0236586D01*
X0156516Y0236337D01*
X0156969Y0236099D01*
X0157429Y0235872D01*
X0157894Y0235656D01*
X0158364Y0235451D01*
X0158839Y0235258D01*
X0159318Y0235076D01*
X0159802Y0234906D01*
X0160289Y0234748D01*
X0160780Y0234601D01*
X0161275Y0234466D01*
X0161773Y0234344D01*
X0162273Y0234233D01*
X0162776Y0234134D01*
X0163282Y0234048D01*
X0163789Y0233974D01*
X0164298Y0233912D01*
X0164808Y0233863D01*
X0165319Y0233826D01*
X0165831Y0233801D01*
X0166344Y0233789D01*
X0166856Y0233789D01*
X0167369Y0233801D01*
X0167881Y0233826D01*
X0168392Y0233863D01*
X0168902Y0233912D01*
X0169411Y0233974D01*
X0169918Y0234048D01*
X0170424Y0234134D01*
X0170927Y0234233D01*
X0171427Y0234344D01*
X0171925Y0234466D01*
X0172420Y0234601D01*
X0172911Y0234748D01*
X0173398Y0234906D01*
X0173882Y0235076D01*
X0174361Y0235258D01*
X0174836Y0235451D01*
X0175306Y0235656D01*
X0175771Y0235872D01*
X0176231Y0236099D01*
X0176684Y0236337D01*
X0177132Y0236586D01*
X0177574Y0236846D01*
X0178010Y0237117D01*
X0178439Y0237398D01*
X0178860Y0237689D01*
X0179275Y0237990D01*
X0179682Y0238301D01*
X0180082Y0238622D01*
X0180474Y0238953D01*
X0180858Y0239293D01*
X0181233Y0239642D01*
X0181600Y0240000D01*
X0190600Y0236000D02*
X0190600Y0206000D01*
X0178600Y0194000D01*
X0154600Y0194000D01*
X0142600Y0206000D01*
X0181600Y0240000D02*
X0181758Y0240058D01*
X0181917Y0240113D01*
X0182077Y0240164D01*
X0182239Y0240211D01*
X0182402Y0240254D01*
X0182565Y0240293D01*
X0182730Y0240328D01*
X0182895Y0240359D01*
X0183062Y0240386D01*
X0183228Y0240409D01*
X0183395Y0240428D01*
X0183563Y0240443D01*
X0183731Y0240454D01*
X0183899Y0240461D01*
X0184067Y0240464D01*
X0184236Y0240463D01*
X0184404Y0240457D01*
X0184572Y0240448D01*
X0184740Y0240435D01*
X0184907Y0240417D01*
X0185074Y0240396D01*
X0185240Y0240370D01*
X0185406Y0240340D01*
X0185571Y0240307D01*
X0185735Y0240269D01*
X0185898Y0240228D01*
X0186060Y0240182D01*
X0186221Y0240133D01*
X0186381Y0240080D01*
X0186539Y0240023D01*
X0186696Y0239962D01*
X0186851Y0239897D01*
X0187005Y0239829D01*
X0187157Y0239757D01*
X0187307Y0239681D01*
X0187456Y0239602D01*
X0187602Y0239519D01*
X0187747Y0239433D01*
X0187889Y0239343D01*
X0188029Y0239250D01*
X0188167Y0239153D01*
X0188302Y0239053D01*
X0188435Y0238950D01*
X0188566Y0238844D01*
X0188694Y0238734D01*
X0188819Y0238622D01*
X0188941Y0238506D01*
X0189061Y0238388D01*
X0189177Y0238266D01*
X0189291Y0238142D01*
X0189402Y0238016D01*
X0189509Y0237886D01*
X0189614Y0237754D01*
X0189715Y0237620D01*
X0189813Y0237483D01*
X0189907Y0237344D01*
X0189998Y0237202D01*
X0190086Y0237059D01*
X0190170Y0236913D01*
X0190251Y0236765D01*
X0190328Y0236616D01*
X0190402Y0236464D01*
X0190471Y0236311D01*
X0190538Y0236156D01*
X0190600Y0236000D01*
X0262600Y0235500D02*
X0265100Y0233000D01*
X0270100Y0233000D01*
X0272600Y0235500D01*
X0272600Y0240500D01*
X0270100Y0243000D01*
X0272600Y0245500D01*
X0272600Y0250500D01*
X0270100Y0253000D01*
X0272600Y0255500D01*
X0272600Y0260500D01*
X0270100Y0263000D01*
X0265100Y0263000D01*
X0262600Y0260500D01*
X0262600Y0255500D01*
X0265100Y0253000D01*
X0262600Y0250500D01*
X0262600Y0245500D01*
X0265100Y0243000D01*
X0262600Y0240500D01*
X0262600Y0235500D01*
X0276600Y0235500D02*
X0279100Y0233000D01*
X0284100Y0233000D01*
X0286600Y0235500D01*
X0286600Y0240500D01*
X0284100Y0243000D01*
X0286600Y0245500D01*
X0286600Y0250500D01*
X0284100Y0253000D01*
X0286600Y0255500D01*
X0286600Y0260500D01*
X0284100Y0263000D01*
X0279100Y0263000D01*
X0276600Y0260500D01*
X0276600Y0255500D01*
X0279100Y0253000D01*
X0276600Y0250500D01*
X0276600Y0245500D01*
X0279100Y0243000D01*
X0276600Y0240500D01*
X0276600Y0235500D01*
X0310100Y0153000D02*
X0315100Y0153000D01*
X0317600Y0150500D01*
X0317600Y0145500D01*
X0315100Y0143000D01*
X0310100Y0143000D01*
X0105600Y0247500D02*
X0103100Y0245000D01*
X0098100Y0245000D01*
X0095600Y0247500D01*
X0093100Y0245000D01*
X0088100Y0245000D01*
X0085600Y0247500D01*
X0083100Y0245000D01*
X0078100Y0245000D01*
X0075600Y0247500D01*
X0075600Y0252500D01*
X0078100Y0255000D01*
X0083100Y0255000D01*
X0085600Y0252500D01*
X0088100Y0255000D01*
X0093100Y0255000D01*
X0095600Y0252500D01*
X0098100Y0255000D01*
X0103100Y0255000D01*
X0105600Y0252500D01*
X0105600Y0247500D01*
X0064600Y0247500D02*
X0062100Y0245000D01*
X0057100Y0245000D01*
X0054600Y0247500D01*
X0052100Y0245000D01*
X0047100Y0245000D01*
X0044600Y0247500D01*
X0042100Y0245000D01*
X0037100Y0245000D01*
X0034600Y0247500D01*
X0034600Y0252500D01*
X0037100Y0255000D01*
X0042100Y0255000D01*
X0044600Y0252500D01*
X0047100Y0255000D01*
X0052100Y0255000D01*
X0054600Y0252500D01*
X0057100Y0255000D01*
X0062100Y0255000D01*
X0064600Y0252500D01*
X0064600Y0247500D01*
X0011313Y0201465D02*
X0008813Y0198965D01*
X0008813Y0193965D01*
X0011313Y0191465D01*
D12*
X0031948Y0191567D02*
X0032265Y0191250D01*
X0031948Y0191567D02*
X0031948Y0192201D01*
X0032265Y0192518D01*
X0032582Y0192518D01*
X0033850Y0191250D01*
X0033850Y0192518D01*
X0032899Y0193460D02*
X0032899Y0194728D01*
X0031948Y0194411D02*
X0032899Y0193460D01*
X0033850Y0194411D02*
X0031948Y0194411D01*
X0032265Y0190308D02*
X0032899Y0190308D01*
X0033216Y0189991D01*
X0033216Y0189040D01*
X0033850Y0189040D02*
X0031948Y0189040D01*
X0031948Y0189991D01*
X0032265Y0190308D01*
X0031948Y0188098D02*
X0031948Y0187464D01*
X0031948Y0187781D02*
X0033533Y0187781D01*
X0033850Y0187464D01*
X0033850Y0187147D01*
X0033533Y0186830D01*
X0033533Y0206830D02*
X0033850Y0207147D01*
X0033850Y0207464D01*
X0033533Y0207781D01*
X0031948Y0207781D01*
X0031948Y0207464D02*
X0031948Y0208098D01*
X0031948Y0209040D02*
X0031948Y0209991D01*
X0032265Y0210308D01*
X0032899Y0210308D01*
X0033216Y0209991D01*
X0033216Y0209040D01*
X0033850Y0209040D02*
X0031948Y0209040D01*
X0032265Y0211250D02*
X0031948Y0211567D01*
X0031948Y0212201D01*
X0032265Y0212518D01*
X0032582Y0212518D01*
X0033850Y0211250D01*
X0033850Y0212518D01*
X0033533Y0213460D02*
X0033850Y0213777D01*
X0033850Y0214411D01*
X0033533Y0214728D01*
X0033216Y0214728D01*
X0032899Y0214411D01*
X0032899Y0214094D01*
X0032899Y0214411D02*
X0032582Y0214728D01*
X0032265Y0214728D01*
X0031948Y0214411D01*
X0031948Y0213777D01*
X0032265Y0213460D01*
X0036535Y0232850D02*
X0036535Y0234752D01*
X0037486Y0234752D01*
X0037803Y0234435D01*
X0037803Y0233801D01*
X0037486Y0233484D01*
X0036535Y0233484D01*
X0037169Y0233484D02*
X0037803Y0232850D01*
X0038745Y0232850D02*
X0038745Y0233167D01*
X0040013Y0234435D01*
X0040013Y0234752D01*
X0038745Y0234752D01*
X0040955Y0234435D02*
X0040955Y0234118D01*
X0041272Y0233801D01*
X0041906Y0233801D01*
X0042223Y0233484D01*
X0042223Y0233167D01*
X0041906Y0232850D01*
X0041272Y0232850D01*
X0040955Y0233167D01*
X0040955Y0233484D01*
X0041272Y0233801D01*
X0041906Y0233801D02*
X0042223Y0234118D01*
X0042223Y0234435D01*
X0041906Y0234752D01*
X0041272Y0234752D01*
X0040955Y0234435D01*
X0056535Y0234752D02*
X0056535Y0232850D01*
X0056535Y0233484D02*
X0057486Y0233484D01*
X0057803Y0233801D01*
X0057803Y0234435D01*
X0057486Y0234752D01*
X0056535Y0234752D01*
X0057169Y0233484D02*
X0057803Y0232850D01*
X0058745Y0232850D02*
X0058745Y0233167D01*
X0060013Y0234435D01*
X0060013Y0234752D01*
X0058745Y0234752D01*
X0060955Y0234435D02*
X0060955Y0234118D01*
X0061272Y0233801D01*
X0062223Y0233801D01*
X0062223Y0234435D02*
X0061906Y0234752D01*
X0061272Y0234752D01*
X0060955Y0234435D01*
X0062223Y0234435D02*
X0062223Y0233167D01*
X0061906Y0232850D01*
X0061272Y0232850D01*
X0060955Y0233167D01*
X0061064Y0242350D02*
X0061064Y0244252D01*
X0060430Y0243618D01*
X0059488Y0244252D02*
X0058854Y0244252D01*
X0059171Y0244252D02*
X0059171Y0242667D01*
X0058854Y0242350D01*
X0058537Y0242350D01*
X0058220Y0242667D01*
X0060430Y0242350D02*
X0061698Y0242350D01*
X0062640Y0242667D02*
X0062957Y0242350D01*
X0063591Y0242350D01*
X0063908Y0242667D01*
X0063908Y0243301D01*
X0063591Y0243618D01*
X0063274Y0243618D01*
X0062640Y0243301D01*
X0062640Y0244252D01*
X0063908Y0244252D01*
X0077535Y0234752D02*
X0077535Y0232850D01*
X0077535Y0233484D02*
X0078486Y0233484D01*
X0078803Y0233801D01*
X0078803Y0234435D01*
X0078486Y0234752D01*
X0077535Y0234752D01*
X0078169Y0233484D02*
X0078803Y0232850D01*
X0079745Y0232850D02*
X0079745Y0233167D01*
X0081013Y0234435D01*
X0081013Y0234752D01*
X0079745Y0234752D01*
X0081955Y0233801D02*
X0081955Y0233167D01*
X0082272Y0232850D01*
X0082906Y0232850D01*
X0083223Y0233167D01*
X0083223Y0233484D01*
X0082906Y0233801D01*
X0081955Y0233801D01*
X0082589Y0234435D01*
X0083223Y0234752D01*
X0097535Y0234752D02*
X0097535Y0232850D01*
X0097535Y0233484D02*
X0098486Y0233484D01*
X0098803Y0233801D01*
X0098803Y0234435D01*
X0098486Y0234752D01*
X0097535Y0234752D01*
X0098169Y0233484D02*
X0098803Y0232850D01*
X0099745Y0232850D02*
X0099745Y0233167D01*
X0101013Y0234435D01*
X0101013Y0234752D01*
X0099745Y0234752D01*
X0101955Y0234752D02*
X0103223Y0234752D01*
X0103223Y0234435D01*
X0101955Y0233167D01*
X0101955Y0232850D01*
X0102064Y0242350D02*
X0102064Y0244252D01*
X0101430Y0243618D01*
X0100488Y0244252D02*
X0099854Y0244252D01*
X0100171Y0244252D02*
X0100171Y0242667D01*
X0099854Y0242350D01*
X0099537Y0242350D01*
X0099220Y0242667D01*
X0101430Y0242350D02*
X0102698Y0242350D01*
X0103640Y0242667D02*
X0103957Y0242350D01*
X0104591Y0242350D01*
X0104908Y0242667D01*
X0104908Y0242984D01*
X0104591Y0243301D01*
X0103640Y0243301D01*
X0103640Y0242667D01*
X0103640Y0243301D02*
X0104274Y0243935D01*
X0104908Y0244252D01*
X0116631Y0224953D02*
X0120569Y0224953D01*
X0120569Y0219047D02*
X0116631Y0219047D01*
X0107250Y0203518D02*
X0107250Y0202250D01*
X0107250Y0202884D02*
X0105348Y0202884D01*
X0105982Y0202250D01*
X0105665Y0201308D02*
X0105348Y0200991D01*
X0105348Y0200357D01*
X0105665Y0200040D01*
X0105982Y0200040D01*
X0106299Y0200357D01*
X0106299Y0200991D01*
X0106616Y0201308D01*
X0106933Y0201308D01*
X0107250Y0200991D01*
X0107250Y0200357D01*
X0106933Y0200040D01*
X0125535Y0196835D02*
X0125535Y0195567D01*
X0125852Y0195250D01*
X0126486Y0195250D01*
X0126803Y0195567D01*
X0127745Y0195250D02*
X0129013Y0195250D01*
X0128379Y0195250D02*
X0128379Y0197152D01*
X0127745Y0196518D01*
X0126803Y0196835D02*
X0126486Y0197152D01*
X0125852Y0197152D01*
X0125535Y0196835D01*
X0129955Y0196835D02*
X0129955Y0196518D01*
X0130272Y0196201D01*
X0131223Y0196201D01*
X0131223Y0196835D02*
X0130906Y0197152D01*
X0130272Y0197152D01*
X0129955Y0196835D01*
X0131223Y0196835D02*
X0131223Y0195567D01*
X0130906Y0195250D01*
X0130272Y0195250D01*
X0129955Y0195567D01*
X0130272Y0191152D02*
X0130906Y0191152D01*
X0131223Y0190835D01*
X0129955Y0189567D01*
X0130272Y0189250D01*
X0130906Y0189250D01*
X0131223Y0189567D01*
X0131223Y0190835D01*
X0130272Y0191152D02*
X0129955Y0190835D01*
X0129955Y0189567D01*
X0129013Y0189250D02*
X0127745Y0189250D01*
X0129013Y0190518D01*
X0129013Y0190835D01*
X0128696Y0191152D01*
X0128062Y0191152D01*
X0127745Y0190835D01*
X0126803Y0190835D02*
X0126486Y0191152D01*
X0125852Y0191152D01*
X0125535Y0190835D01*
X0125535Y0189567D01*
X0125852Y0189250D01*
X0126486Y0189250D01*
X0126803Y0189567D01*
X0126486Y0175752D02*
X0126803Y0175435D01*
X0126803Y0174801D01*
X0126486Y0174484D01*
X0125535Y0174484D01*
X0125535Y0173850D02*
X0125535Y0175752D01*
X0126486Y0175752D01*
X0127745Y0175752D02*
X0129013Y0175752D01*
X0129013Y0175435D01*
X0127745Y0174167D01*
X0127745Y0173850D01*
X0126803Y0173850D02*
X0126169Y0174484D01*
X0129955Y0174801D02*
X0130589Y0175118D01*
X0130906Y0175118D01*
X0131223Y0174801D01*
X0131223Y0174167D01*
X0130906Y0173850D01*
X0130272Y0173850D01*
X0129955Y0174167D01*
X0129955Y0174801D02*
X0129955Y0175752D01*
X0131223Y0175752D01*
X0163535Y0191350D02*
X0164486Y0191350D01*
X0164803Y0191667D01*
X0164803Y0191984D01*
X0164486Y0192301D01*
X0163535Y0192301D01*
X0163535Y0191350D02*
X0163535Y0193252D01*
X0164486Y0193252D01*
X0164803Y0192935D01*
X0164803Y0192618D01*
X0164486Y0192301D01*
X0165745Y0193252D02*
X0167013Y0193252D01*
X0166379Y0193252D02*
X0166379Y0191350D01*
X0167955Y0191350D02*
X0169223Y0191350D01*
X0168589Y0191350D02*
X0168589Y0193252D01*
X0167955Y0192618D01*
X0213448Y0180306D02*
X0213448Y0179672D01*
X0213765Y0179355D01*
X0213765Y0178413D02*
X0213448Y0178096D01*
X0213448Y0177462D01*
X0213765Y0177145D01*
X0213765Y0176203D02*
X0214399Y0176203D01*
X0214716Y0175886D01*
X0214716Y0174935D01*
X0215350Y0174935D02*
X0213448Y0174935D01*
X0213448Y0175886D01*
X0213765Y0176203D01*
X0214716Y0175569D02*
X0215350Y0176203D01*
X0215350Y0177145D02*
X0214082Y0178413D01*
X0213765Y0178413D01*
X0215350Y0178413D02*
X0215350Y0177145D01*
X0215350Y0179355D02*
X0214082Y0180623D01*
X0213765Y0180623D01*
X0213448Y0180306D01*
X0215350Y0180623D02*
X0215350Y0179355D01*
X0221848Y0196935D02*
X0221848Y0197886D01*
X0222165Y0198203D01*
X0222799Y0198203D01*
X0223116Y0197886D01*
X0223116Y0196935D01*
X0223750Y0196935D02*
X0221848Y0196935D01*
X0223116Y0197569D02*
X0223750Y0198203D01*
X0223750Y0199145D02*
X0222482Y0200413D01*
X0222165Y0200413D01*
X0221848Y0200096D01*
X0221848Y0199462D01*
X0222165Y0199145D01*
X0223750Y0199145D02*
X0223750Y0200413D01*
X0223750Y0201355D02*
X0223433Y0201355D01*
X0222165Y0202623D01*
X0221848Y0202623D01*
X0221848Y0201355D01*
X0215350Y0215935D02*
X0213448Y0215935D01*
X0213448Y0216886D01*
X0213765Y0217203D01*
X0214399Y0217203D01*
X0214716Y0216886D01*
X0214716Y0215935D01*
X0214716Y0216569D02*
X0215350Y0217203D01*
X0215350Y0218145D02*
X0214082Y0219413D01*
X0213765Y0219413D01*
X0213448Y0219096D01*
X0213448Y0218462D01*
X0213765Y0218145D01*
X0215350Y0218145D02*
X0215350Y0219413D01*
X0215033Y0220355D02*
X0214716Y0220355D01*
X0214399Y0220672D01*
X0214399Y0221306D01*
X0214716Y0221623D01*
X0215033Y0221623D01*
X0215350Y0221306D01*
X0215350Y0220672D01*
X0215033Y0220355D01*
X0214399Y0220672D02*
X0214082Y0220355D01*
X0213765Y0220355D01*
X0213448Y0220672D01*
X0213448Y0221306D01*
X0213765Y0221623D01*
X0214082Y0221623D01*
X0214399Y0221306D01*
X0234519Y0229370D02*
X0260681Y0229370D01*
X0260681Y0150630D01*
X0234519Y0150630D01*
X0234519Y0229370D01*
X0259948Y0233884D02*
X0259948Y0234518D01*
X0259948Y0234201D02*
X0261533Y0234201D01*
X0261850Y0233884D01*
X0261850Y0233567D01*
X0261533Y0233250D01*
X0261533Y0235460D02*
X0261850Y0235777D01*
X0261850Y0236411D01*
X0261533Y0236728D01*
X0260265Y0236728D01*
X0259948Y0236411D01*
X0259948Y0235777D01*
X0260265Y0235460D01*
X0260582Y0235460D01*
X0260899Y0235777D01*
X0260899Y0236728D01*
X0273948Y0236094D02*
X0275850Y0236094D01*
X0275850Y0235460D02*
X0275850Y0236728D01*
X0275850Y0237670D02*
X0275850Y0238937D01*
X0275850Y0238304D02*
X0273948Y0238304D01*
X0274582Y0237670D01*
X0273948Y0236094D02*
X0274582Y0235460D01*
X0273948Y0234518D02*
X0273948Y0233884D01*
X0273948Y0234201D02*
X0275533Y0234201D01*
X0275850Y0233884D01*
X0275850Y0233567D01*
X0275533Y0233250D01*
X0277535Y0229152D02*
X0278486Y0229152D01*
X0278803Y0228835D01*
X0278803Y0228201D01*
X0278486Y0227884D01*
X0277535Y0227884D01*
X0277535Y0227250D02*
X0277535Y0229152D01*
X0278169Y0227884D02*
X0278803Y0227250D01*
X0279745Y0227250D02*
X0281013Y0228518D01*
X0281013Y0228835D01*
X0280696Y0229152D01*
X0280062Y0229152D01*
X0279745Y0228835D01*
X0279745Y0227250D02*
X0281013Y0227250D01*
X0281955Y0227567D02*
X0282272Y0227250D01*
X0282906Y0227250D01*
X0283223Y0227567D01*
X0283223Y0228201D01*
X0282906Y0228518D01*
X0282589Y0228518D01*
X0281955Y0228201D01*
X0281955Y0229152D01*
X0283223Y0229152D01*
X0299348Y0221306D02*
X0300299Y0220355D01*
X0300299Y0221623D01*
X0301250Y0221306D02*
X0299348Y0221306D01*
X0299665Y0219413D02*
X0300299Y0219413D01*
X0300616Y0219096D01*
X0300616Y0218145D01*
X0301250Y0218145D02*
X0299348Y0218145D01*
X0299348Y0219096D01*
X0299665Y0219413D01*
X0299348Y0217203D02*
X0299348Y0216569D01*
X0299348Y0216886D02*
X0300933Y0216886D01*
X0301250Y0216569D01*
X0301250Y0216252D01*
X0300933Y0215935D01*
X0289533Y0201623D02*
X0289850Y0201306D01*
X0289850Y0200672D01*
X0289533Y0200355D01*
X0288899Y0200989D02*
X0288899Y0201306D01*
X0289216Y0201623D01*
X0289533Y0201623D01*
X0288899Y0201306D02*
X0288582Y0201623D01*
X0288265Y0201623D01*
X0287948Y0201306D01*
X0287948Y0200672D01*
X0288265Y0200355D01*
X0288265Y0199413D02*
X0288899Y0199413D01*
X0289216Y0199096D01*
X0289216Y0198145D01*
X0289850Y0198145D02*
X0287948Y0198145D01*
X0287948Y0199096D01*
X0288265Y0199413D01*
X0287948Y0197203D02*
X0287948Y0196569D01*
X0287948Y0196886D02*
X0289533Y0196886D01*
X0289850Y0196569D01*
X0289850Y0196252D01*
X0289533Y0195935D01*
X0283223Y0195884D02*
X0283223Y0195567D01*
X0282906Y0195250D01*
X0282272Y0195250D01*
X0281955Y0195567D01*
X0282589Y0196201D02*
X0282906Y0196201D01*
X0283223Y0195884D01*
X0282906Y0196201D02*
X0283223Y0196518D01*
X0283223Y0196835D01*
X0282906Y0197152D01*
X0282272Y0197152D01*
X0281955Y0196835D01*
X0281013Y0196835D02*
X0280696Y0197152D01*
X0280062Y0197152D01*
X0279745Y0196835D01*
X0278803Y0196835D02*
X0278803Y0196201D01*
X0278486Y0195884D01*
X0277535Y0195884D01*
X0277535Y0195250D02*
X0277535Y0197152D01*
X0278486Y0197152D01*
X0278803Y0196835D01*
X0278169Y0195884D02*
X0278803Y0195250D01*
X0279745Y0195250D02*
X0281013Y0196518D01*
X0281013Y0196835D01*
X0281013Y0195250D02*
X0279745Y0195250D01*
X0280062Y0191152D02*
X0279745Y0190835D01*
X0280062Y0191152D02*
X0280696Y0191152D01*
X0281013Y0190835D01*
X0281013Y0190518D01*
X0279745Y0189250D01*
X0281013Y0189250D01*
X0281955Y0189567D02*
X0283223Y0190835D01*
X0283223Y0189567D01*
X0282906Y0189250D01*
X0282272Y0189250D01*
X0281955Y0189567D01*
X0281955Y0190835D01*
X0282272Y0191152D01*
X0282906Y0191152D01*
X0283223Y0190835D01*
X0278803Y0190835D02*
X0278803Y0190201D01*
X0278486Y0189884D01*
X0277535Y0189884D01*
X0277535Y0189250D02*
X0277535Y0191152D01*
X0278486Y0191152D01*
X0278803Y0190835D01*
X0278169Y0189884D02*
X0278803Y0189250D01*
X0278803Y0200850D02*
X0278169Y0201484D01*
X0278486Y0201484D02*
X0277535Y0201484D01*
X0277535Y0200850D02*
X0277535Y0202752D01*
X0278486Y0202752D01*
X0278803Y0202435D01*
X0278803Y0201801D01*
X0278486Y0201484D01*
X0279745Y0200850D02*
X0281013Y0202118D01*
X0281013Y0202435D01*
X0280696Y0202752D01*
X0280062Y0202752D01*
X0279745Y0202435D01*
X0279745Y0200850D02*
X0281013Y0200850D01*
X0281955Y0201801D02*
X0283223Y0201801D01*
X0282906Y0202752D02*
X0281955Y0201801D01*
X0282906Y0200850D02*
X0282906Y0202752D01*
X0282906Y0206850D02*
X0283223Y0207167D01*
X0283223Y0207484D01*
X0282906Y0207801D01*
X0281955Y0207801D01*
X0281955Y0207167D01*
X0282272Y0206850D01*
X0282906Y0206850D01*
X0281955Y0207801D02*
X0282589Y0208435D01*
X0283223Y0208752D01*
X0281013Y0208435D02*
X0280696Y0208752D01*
X0280062Y0208752D01*
X0279745Y0208435D01*
X0278803Y0208435D02*
X0278803Y0207801D01*
X0278486Y0207484D01*
X0277535Y0207484D01*
X0277535Y0206850D02*
X0277535Y0208752D01*
X0278486Y0208752D01*
X0278803Y0208435D01*
X0278169Y0207484D02*
X0278803Y0206850D01*
X0279745Y0206850D02*
X0281013Y0208118D01*
X0281013Y0208435D01*
X0281013Y0206850D02*
X0279745Y0206850D01*
X0299665Y0181623D02*
X0299348Y0181306D01*
X0299348Y0180672D01*
X0299665Y0180355D01*
X0299665Y0179413D02*
X0300299Y0179413D01*
X0300616Y0179096D01*
X0300616Y0178145D01*
X0301250Y0178145D02*
X0299348Y0178145D01*
X0299348Y0179096D01*
X0299665Y0179413D01*
X0301250Y0180355D02*
X0299982Y0181623D01*
X0299665Y0181623D01*
X0301250Y0181623D02*
X0301250Y0180355D01*
X0300933Y0176886D02*
X0299348Y0176886D01*
X0299348Y0176569D02*
X0299348Y0177203D01*
X0300933Y0176886D02*
X0301250Y0176569D01*
X0301250Y0176252D01*
X0300933Y0175935D01*
X0289850Y0162623D02*
X0289850Y0161355D01*
X0289850Y0161989D02*
X0287948Y0161989D01*
X0288582Y0161355D01*
X0288265Y0160413D02*
X0288899Y0160413D01*
X0289216Y0160096D01*
X0289216Y0159145D01*
X0289850Y0159145D02*
X0287948Y0159145D01*
X0287948Y0160096D01*
X0288265Y0160413D01*
X0287948Y0158203D02*
X0287948Y0157569D01*
X0287948Y0157886D02*
X0289533Y0157886D01*
X0289850Y0157569D01*
X0289850Y0157252D01*
X0289533Y0156935D01*
X0283223Y0158835D02*
X0281955Y0157567D01*
X0281955Y0157250D01*
X0281013Y0157250D02*
X0279745Y0157250D01*
X0280379Y0157250D02*
X0280379Y0159152D01*
X0279745Y0158518D01*
X0278803Y0158835D02*
X0278803Y0158201D01*
X0278486Y0157884D01*
X0277535Y0157884D01*
X0277535Y0157250D02*
X0277535Y0159152D01*
X0278486Y0159152D01*
X0278803Y0158835D01*
X0278169Y0157884D02*
X0278803Y0157250D01*
X0281955Y0159152D02*
X0283223Y0159152D01*
X0283223Y0158835D01*
X0282906Y0160850D02*
X0282272Y0160850D01*
X0281955Y0161167D01*
X0281955Y0161484D01*
X0282272Y0161801D01*
X0282906Y0161801D01*
X0283223Y0161484D01*
X0283223Y0161167D01*
X0282906Y0160850D01*
X0282906Y0161801D02*
X0283223Y0162118D01*
X0283223Y0162435D01*
X0282906Y0162752D01*
X0282272Y0162752D01*
X0281955Y0162435D01*
X0281955Y0162118D01*
X0282272Y0161801D01*
X0281013Y0160850D02*
X0279745Y0160850D01*
X0280379Y0160850D02*
X0280379Y0162752D01*
X0279745Y0162118D01*
X0278803Y0162435D02*
X0278803Y0161801D01*
X0278486Y0161484D01*
X0277535Y0161484D01*
X0277535Y0160850D02*
X0277535Y0162752D01*
X0278486Y0162752D01*
X0278803Y0162435D01*
X0278169Y0161484D02*
X0278803Y0160850D01*
X0278803Y0166850D02*
X0278169Y0167484D01*
X0278486Y0167484D02*
X0277535Y0167484D01*
X0277535Y0166850D02*
X0277535Y0168752D01*
X0278486Y0168752D01*
X0278803Y0168435D01*
X0278803Y0167801D01*
X0278486Y0167484D01*
X0279745Y0166850D02*
X0281013Y0168118D01*
X0281013Y0168435D01*
X0280696Y0168752D01*
X0280062Y0168752D01*
X0279745Y0168435D01*
X0279745Y0166850D02*
X0281013Y0166850D01*
X0281955Y0166850D02*
X0283223Y0166850D01*
X0282589Y0166850D02*
X0282589Y0168752D01*
X0281955Y0168118D01*
X0257247Y0149754D02*
X0257247Y0145250D01*
X0255746Y0145250D02*
X0258749Y0145250D01*
X0255746Y0148253D02*
X0257247Y0149754D01*
X0257100Y0151000D02*
X0257098Y0151082D01*
X0257092Y0151164D01*
X0257083Y0151245D01*
X0257069Y0151326D01*
X0257052Y0151407D01*
X0257031Y0151486D01*
X0257007Y0151564D01*
X0256978Y0151641D01*
X0256946Y0151717D01*
X0256911Y0151791D01*
X0256872Y0151863D01*
X0256830Y0151934D01*
X0256785Y0152002D01*
X0256736Y0152068D01*
X0256685Y0152132D01*
X0256630Y0152193D01*
X0256573Y0152252D01*
X0256513Y0152308D01*
X0256450Y0152361D01*
X0256385Y0152411D01*
X0256318Y0152458D01*
X0256249Y0152502D01*
X0256177Y0152542D01*
X0256104Y0152579D01*
X0256029Y0152613D01*
X0255953Y0152643D01*
X0255875Y0152669D01*
X0255796Y0152692D01*
X0255717Y0152711D01*
X0255636Y0152726D01*
X0255555Y0152738D01*
X0255473Y0152746D01*
X0255391Y0152750D01*
X0255309Y0152750D01*
X0255227Y0152746D01*
X0255145Y0152738D01*
X0255064Y0152726D01*
X0254983Y0152711D01*
X0254904Y0152692D01*
X0254825Y0152669D01*
X0254747Y0152643D01*
X0254671Y0152613D01*
X0254596Y0152579D01*
X0254523Y0152542D01*
X0254451Y0152502D01*
X0254382Y0152458D01*
X0254315Y0152411D01*
X0254250Y0152361D01*
X0254187Y0152308D01*
X0254127Y0152252D01*
X0254070Y0152193D01*
X0254015Y0152132D01*
X0253964Y0152068D01*
X0253915Y0152002D01*
X0253870Y0151934D01*
X0253828Y0151863D01*
X0253789Y0151791D01*
X0253754Y0151717D01*
X0253722Y0151641D01*
X0253693Y0151564D01*
X0253669Y0151486D01*
X0253648Y0151407D01*
X0253631Y0151326D01*
X0253617Y0151245D01*
X0253608Y0151164D01*
X0253602Y0151082D01*
X0253600Y0151000D01*
X0254145Y0149754D02*
X0251142Y0146751D01*
X0251893Y0147502D02*
X0254145Y0145250D01*
X0251142Y0145250D02*
X0251142Y0149754D01*
X0249541Y0149003D02*
X0248790Y0149754D01*
X0247289Y0149754D01*
X0246538Y0149003D01*
X0246538Y0146001D01*
X0247289Y0145250D01*
X0248790Y0145250D01*
X0249541Y0146001D01*
X0249541Y0149003D01*
X0261681Y0130370D02*
X0235519Y0130370D01*
X0235519Y0051630D01*
X0261681Y0051630D01*
X0261681Y0130370D01*
X0280535Y0129884D02*
X0281486Y0129884D01*
X0281803Y0130201D01*
X0281803Y0130835D01*
X0281486Y0131152D01*
X0280535Y0131152D01*
X0280535Y0129250D01*
X0281169Y0129884D02*
X0281803Y0129250D01*
X0282745Y0130201D02*
X0284013Y0130201D01*
X0284955Y0130518D02*
X0285272Y0130201D01*
X0286223Y0130201D01*
X0286223Y0129567D02*
X0286223Y0130835D01*
X0285906Y0131152D01*
X0285272Y0131152D01*
X0284955Y0130835D01*
X0284955Y0130518D01*
X0284955Y0129567D02*
X0285272Y0129250D01*
X0285906Y0129250D01*
X0286223Y0129567D01*
X0283696Y0129250D02*
X0283696Y0131152D01*
X0282745Y0130201D01*
X0298448Y0143884D02*
X0298448Y0144518D01*
X0298448Y0144201D02*
X0300033Y0144201D01*
X0300350Y0143884D01*
X0300350Y0143567D01*
X0300033Y0143250D01*
X0300350Y0145460D02*
X0300350Y0146728D01*
X0300350Y0146094D02*
X0298448Y0146094D01*
X0299082Y0145460D01*
X0298765Y0147670D02*
X0298448Y0147987D01*
X0298448Y0148621D01*
X0298765Y0148938D01*
X0299082Y0148938D01*
X0300350Y0147670D01*
X0300350Y0148938D01*
X0303665Y0123728D02*
X0303348Y0123411D01*
X0303348Y0122777D01*
X0303665Y0122460D01*
X0303665Y0123728D02*
X0303982Y0123728D01*
X0305250Y0122460D01*
X0305250Y0123728D01*
X0305250Y0121518D02*
X0305250Y0120250D01*
X0305250Y0120884D02*
X0303348Y0120884D01*
X0303982Y0120250D01*
X0303665Y0119308D02*
X0304299Y0119308D01*
X0304616Y0118991D01*
X0304616Y0118040D01*
X0305250Y0118040D02*
X0303348Y0118040D01*
X0303348Y0118991D01*
X0303665Y0119308D01*
X0303348Y0117098D02*
X0303348Y0116464D01*
X0303348Y0116781D02*
X0304933Y0116781D01*
X0305250Y0116464D01*
X0305250Y0116147D01*
X0304933Y0115830D01*
X0293850Y0104728D02*
X0293850Y0103460D01*
X0293850Y0104094D02*
X0291948Y0104094D01*
X0292582Y0103460D01*
X0293850Y0102518D02*
X0293850Y0101250D01*
X0293850Y0101884D02*
X0291948Y0101884D01*
X0292582Y0101250D01*
X0292265Y0100308D02*
X0292899Y0100308D01*
X0293216Y0099991D01*
X0293216Y0099040D01*
X0293850Y0099040D02*
X0291948Y0099040D01*
X0291948Y0099991D01*
X0292265Y0100308D01*
X0291948Y0098098D02*
X0291948Y0097464D01*
X0291948Y0097781D02*
X0293533Y0097781D01*
X0293850Y0097464D01*
X0293850Y0097147D01*
X0293533Y0096830D01*
X0286223Y0098835D02*
X0284955Y0097567D01*
X0284955Y0097250D01*
X0283696Y0097250D02*
X0283696Y0099152D01*
X0282745Y0098201D01*
X0284013Y0098201D01*
X0284955Y0099152D02*
X0286223Y0099152D01*
X0286223Y0098835D01*
X0285906Y0102850D02*
X0285272Y0102850D01*
X0284955Y0103167D01*
X0284955Y0103484D01*
X0285272Y0103801D01*
X0285906Y0103801D01*
X0286223Y0103484D01*
X0286223Y0103167D01*
X0285906Y0102850D01*
X0285906Y0103801D02*
X0286223Y0104118D01*
X0286223Y0104435D01*
X0285906Y0104752D01*
X0285272Y0104752D01*
X0284955Y0104435D01*
X0284955Y0104118D01*
X0285272Y0103801D01*
X0284013Y0103801D02*
X0282745Y0103801D01*
X0283696Y0104752D01*
X0283696Y0102850D01*
X0281803Y0102850D02*
X0281169Y0103484D01*
X0281486Y0103484D02*
X0280535Y0103484D01*
X0280535Y0102850D02*
X0280535Y0104752D01*
X0281486Y0104752D01*
X0281803Y0104435D01*
X0281803Y0103801D01*
X0281486Y0103484D01*
X0281486Y0099152D02*
X0281803Y0098835D01*
X0281803Y0098201D01*
X0281486Y0097884D01*
X0280535Y0097884D01*
X0280535Y0097250D02*
X0280535Y0099152D01*
X0281486Y0099152D01*
X0281169Y0097884D02*
X0281803Y0097250D01*
X0281486Y0093152D02*
X0281803Y0092835D01*
X0281803Y0092201D01*
X0281486Y0091884D01*
X0280535Y0091884D01*
X0280535Y0091250D02*
X0280535Y0093152D01*
X0281486Y0093152D01*
X0281169Y0091884D02*
X0281803Y0091250D01*
X0282745Y0092201D02*
X0284013Y0092201D01*
X0284955Y0092201D02*
X0286223Y0092201D01*
X0285906Y0093152D02*
X0284955Y0092201D01*
X0285906Y0091250D02*
X0285906Y0093152D01*
X0283696Y0093152D02*
X0282745Y0092201D01*
X0283696Y0091250D02*
X0283696Y0093152D01*
X0303348Y0084411D02*
X0303348Y0083777D01*
X0303665Y0083460D01*
X0304933Y0083460D01*
X0303665Y0084728D01*
X0304933Y0084728D01*
X0305250Y0084411D01*
X0305250Y0083777D01*
X0304933Y0083460D01*
X0305250Y0082518D02*
X0305250Y0081250D01*
X0305250Y0081884D02*
X0303348Y0081884D01*
X0303982Y0081250D01*
X0303665Y0080308D02*
X0304299Y0080308D01*
X0304616Y0079991D01*
X0304616Y0079040D01*
X0305250Y0079040D02*
X0303348Y0079040D01*
X0303348Y0079991D01*
X0303665Y0080308D01*
X0303348Y0078098D02*
X0303348Y0077464D01*
X0303348Y0077781D02*
X0304933Y0077781D01*
X0305250Y0077464D01*
X0305250Y0077147D01*
X0304933Y0076830D01*
X0303348Y0084411D02*
X0303665Y0084728D01*
X0286223Y0070752D02*
X0284955Y0070752D01*
X0284955Y0069801D01*
X0285589Y0070118D01*
X0285906Y0070118D01*
X0286223Y0069801D01*
X0286223Y0069167D01*
X0285906Y0068850D01*
X0285272Y0068850D01*
X0284955Y0069167D01*
X0284013Y0069801D02*
X0282745Y0069801D01*
X0283696Y0070752D01*
X0283696Y0068850D01*
X0281803Y0068850D02*
X0281169Y0069484D01*
X0281486Y0069484D02*
X0280535Y0069484D01*
X0280535Y0068850D02*
X0280535Y0070752D01*
X0281486Y0070752D01*
X0281803Y0070435D01*
X0281803Y0069801D01*
X0281486Y0069484D01*
X0281486Y0064752D02*
X0281803Y0064435D01*
X0281803Y0063801D01*
X0281486Y0063484D01*
X0280535Y0063484D01*
X0280535Y0062850D02*
X0280535Y0064752D01*
X0281486Y0064752D01*
X0281169Y0063484D02*
X0281803Y0062850D01*
X0282745Y0063801D02*
X0284013Y0063801D01*
X0283696Y0064752D02*
X0282745Y0063801D01*
X0283696Y0062850D02*
X0283696Y0064752D01*
X0284955Y0064435D02*
X0285272Y0064752D01*
X0285906Y0064752D01*
X0286223Y0064435D01*
X0286223Y0064118D01*
X0284955Y0062850D01*
X0286223Y0062850D01*
X0285589Y0061152D02*
X0285589Y0059250D01*
X0284955Y0059250D02*
X0286223Y0059250D01*
X0284955Y0060518D02*
X0285589Y0061152D01*
X0284013Y0060201D02*
X0282745Y0060201D01*
X0283696Y0061152D01*
X0283696Y0059250D01*
X0281803Y0059250D02*
X0281169Y0059884D01*
X0281486Y0059884D02*
X0280535Y0059884D01*
X0280535Y0059250D02*
X0280535Y0061152D01*
X0281486Y0061152D01*
X0281803Y0060835D01*
X0281803Y0060201D01*
X0281486Y0059884D01*
X0291948Y0059886D02*
X0293533Y0059886D01*
X0293850Y0059569D01*
X0293850Y0059252D01*
X0293533Y0058935D01*
X0291948Y0059569D02*
X0291948Y0060203D01*
X0291948Y0061145D02*
X0291948Y0062096D01*
X0292265Y0062413D01*
X0292899Y0062413D01*
X0293216Y0062096D01*
X0293216Y0061145D01*
X0293850Y0061145D02*
X0291948Y0061145D01*
X0292265Y0063355D02*
X0292582Y0063355D01*
X0292899Y0063672D01*
X0292899Y0064623D01*
X0292265Y0064623D02*
X0291948Y0064306D01*
X0291948Y0063672D01*
X0292265Y0063355D01*
X0292265Y0064623D02*
X0293533Y0064623D01*
X0293850Y0064306D01*
X0293850Y0063672D01*
X0293533Y0063355D01*
X0292721Y0043152D02*
X0293038Y0042835D01*
X0293038Y0042518D01*
X0292721Y0042201D01*
X0293038Y0041884D01*
X0293038Y0041567D01*
X0292721Y0041250D01*
X0292087Y0041250D01*
X0291770Y0041567D01*
X0292404Y0042201D02*
X0292721Y0042201D01*
X0292721Y0043152D02*
X0292087Y0043152D01*
X0291770Y0042835D01*
X0290194Y0043152D02*
X0290194Y0041250D01*
X0289560Y0041250D02*
X0290828Y0041250D01*
X0289560Y0042518D02*
X0290194Y0043152D01*
X0288618Y0043152D02*
X0287984Y0043152D01*
X0288301Y0043152D02*
X0288301Y0041567D01*
X0287984Y0041250D01*
X0287667Y0041250D01*
X0287350Y0041567D01*
X0307350Y0041567D02*
X0307667Y0041250D01*
X0307984Y0041250D01*
X0308301Y0041567D01*
X0308301Y0043152D01*
X0307984Y0043152D02*
X0308618Y0043152D01*
X0309560Y0042518D02*
X0310194Y0043152D01*
X0310194Y0041250D01*
X0309560Y0041250D02*
X0310828Y0041250D01*
X0311770Y0042201D02*
X0313038Y0042201D01*
X0312721Y0043152D02*
X0311770Y0042201D01*
X0312721Y0041250D02*
X0312721Y0043152D01*
X0259749Y0047001D02*
X0258998Y0046250D01*
X0257497Y0046250D01*
X0256746Y0047001D01*
X0255145Y0046250D02*
X0252893Y0048502D01*
X0252142Y0047751D02*
X0255145Y0050754D01*
X0254600Y0052000D02*
X0254602Y0052082D01*
X0254608Y0052164D01*
X0254617Y0052245D01*
X0254631Y0052326D01*
X0254648Y0052407D01*
X0254669Y0052486D01*
X0254693Y0052564D01*
X0254722Y0052641D01*
X0254754Y0052717D01*
X0254789Y0052791D01*
X0254828Y0052863D01*
X0254870Y0052934D01*
X0254915Y0053002D01*
X0254964Y0053068D01*
X0255015Y0053132D01*
X0255070Y0053193D01*
X0255127Y0053252D01*
X0255187Y0053308D01*
X0255250Y0053361D01*
X0255315Y0053411D01*
X0255382Y0053458D01*
X0255451Y0053502D01*
X0255523Y0053542D01*
X0255596Y0053579D01*
X0255671Y0053613D01*
X0255747Y0053643D01*
X0255825Y0053669D01*
X0255904Y0053692D01*
X0255983Y0053711D01*
X0256064Y0053726D01*
X0256145Y0053738D01*
X0256227Y0053746D01*
X0256309Y0053750D01*
X0256391Y0053750D01*
X0256473Y0053746D01*
X0256555Y0053738D01*
X0256636Y0053726D01*
X0256717Y0053711D01*
X0256796Y0053692D01*
X0256875Y0053669D01*
X0256953Y0053643D01*
X0257029Y0053613D01*
X0257104Y0053579D01*
X0257177Y0053542D01*
X0257249Y0053502D01*
X0257318Y0053458D01*
X0257385Y0053411D01*
X0257450Y0053361D01*
X0257513Y0053308D01*
X0257573Y0053252D01*
X0257630Y0053193D01*
X0257685Y0053132D01*
X0257736Y0053068D01*
X0257785Y0053002D01*
X0257830Y0052934D01*
X0257872Y0052863D01*
X0257911Y0052791D01*
X0257946Y0052717D01*
X0257978Y0052641D01*
X0258007Y0052564D01*
X0258031Y0052486D01*
X0258052Y0052407D01*
X0258069Y0052326D01*
X0258083Y0052245D01*
X0258092Y0052164D01*
X0258098Y0052082D01*
X0258100Y0052000D01*
X0257497Y0050754D02*
X0258998Y0050754D01*
X0259749Y0050003D01*
X0259749Y0049253D01*
X0258998Y0048502D01*
X0259749Y0047751D01*
X0259749Y0047001D01*
X0258998Y0048502D02*
X0258247Y0048502D01*
X0256746Y0050003D02*
X0257497Y0050754D01*
X0252142Y0050754D02*
X0252142Y0046250D01*
X0250541Y0047001D02*
X0250541Y0050003D01*
X0249790Y0050754D01*
X0248289Y0050754D01*
X0247538Y0050003D01*
X0247538Y0047001D01*
X0248289Y0046250D01*
X0249790Y0046250D01*
X0250541Y0047001D01*
X0223750Y0058935D02*
X0221848Y0058935D01*
X0221848Y0059886D01*
X0222165Y0060203D01*
X0222799Y0060203D01*
X0223116Y0059886D01*
X0223116Y0058935D01*
X0223116Y0059569D02*
X0223750Y0060203D01*
X0222799Y0061145D02*
X0222799Y0062413D01*
X0221848Y0062096D02*
X0222799Y0061145D01*
X0223750Y0062096D02*
X0221848Y0062096D01*
X0222165Y0063355D02*
X0221848Y0063672D01*
X0221848Y0064306D01*
X0222165Y0064623D01*
X0222482Y0064623D01*
X0222799Y0064306D01*
X0223116Y0064623D01*
X0223433Y0064623D01*
X0223750Y0064306D01*
X0223750Y0063672D01*
X0223433Y0063355D01*
X0222799Y0063989D02*
X0222799Y0064306D01*
X0215350Y0076935D02*
X0213448Y0076935D01*
X0213448Y0077886D01*
X0213765Y0078203D01*
X0214399Y0078203D01*
X0214716Y0077886D01*
X0214716Y0076935D01*
X0214716Y0077569D02*
X0215350Y0078203D01*
X0214399Y0079145D02*
X0214399Y0080413D01*
X0214399Y0081355D02*
X0214399Y0082306D01*
X0214716Y0082623D01*
X0215033Y0082623D01*
X0215350Y0082306D01*
X0215350Y0081672D01*
X0215033Y0081355D01*
X0214399Y0081355D01*
X0213765Y0081989D01*
X0213448Y0082623D01*
X0213448Y0080096D02*
X0214399Y0079145D01*
X0215350Y0080096D02*
X0213448Y0080096D01*
X0189750Y0077306D02*
X0189750Y0076672D01*
X0189433Y0076355D01*
X0189116Y0076355D01*
X0188799Y0076672D01*
X0188799Y0077306D01*
X0189116Y0077623D01*
X0189433Y0077623D01*
X0189750Y0077306D01*
X0188799Y0077306D02*
X0188482Y0077623D01*
X0188165Y0077623D01*
X0187848Y0077306D01*
X0187848Y0076672D01*
X0188165Y0076355D01*
X0188482Y0076355D01*
X0188799Y0076672D01*
X0189750Y0075413D02*
X0189750Y0074145D01*
X0189750Y0074779D02*
X0187848Y0074779D01*
X0188482Y0074145D01*
X0188165Y0073203D02*
X0187848Y0072886D01*
X0187848Y0072252D01*
X0188165Y0071935D01*
X0189433Y0071935D01*
X0189750Y0072252D01*
X0189750Y0072886D01*
X0189433Y0073203D01*
X0177750Y0073203D02*
X0177116Y0072569D01*
X0177116Y0072886D02*
X0177116Y0071935D01*
X0177750Y0071935D02*
X0175848Y0071935D01*
X0175848Y0072886D01*
X0176165Y0073203D01*
X0176799Y0073203D01*
X0177116Y0072886D01*
X0176799Y0074145D02*
X0176799Y0075096D01*
X0177116Y0075413D01*
X0177433Y0075413D01*
X0177750Y0075096D01*
X0177750Y0074462D01*
X0177433Y0074145D01*
X0176799Y0074145D01*
X0176165Y0074779D01*
X0175848Y0075413D01*
X0176165Y0076355D02*
X0175848Y0076672D01*
X0175848Y0077306D01*
X0176165Y0077623D01*
X0176482Y0077623D01*
X0176799Y0077306D01*
X0176799Y0076672D01*
X0176482Y0076355D01*
X0176165Y0076355D01*
X0176799Y0076672D02*
X0177116Y0076355D01*
X0177433Y0076355D01*
X0177750Y0076672D01*
X0177750Y0077306D01*
X0177433Y0077623D01*
X0177116Y0077623D01*
X0176799Y0077306D01*
X0175350Y0077306D02*
X0175350Y0076672D01*
X0175033Y0076355D01*
X0173765Y0077623D01*
X0175033Y0077623D01*
X0175350Y0077306D01*
X0175033Y0076355D02*
X0173765Y0076355D01*
X0173448Y0076672D01*
X0173448Y0077306D01*
X0173765Y0077623D01*
X0173765Y0075413D02*
X0175033Y0074145D01*
X0175350Y0074145D01*
X0175350Y0073203D02*
X0174716Y0072569D01*
X0174716Y0072886D02*
X0174716Y0071935D01*
X0175350Y0071935D02*
X0173448Y0071935D01*
X0173448Y0072886D01*
X0173765Y0073203D01*
X0174399Y0073203D01*
X0174716Y0072886D01*
X0173448Y0074145D02*
X0173448Y0075413D01*
X0173765Y0075413D01*
X0156223Y0084167D02*
X0156223Y0084801D01*
X0155906Y0085118D01*
X0155589Y0085118D01*
X0154955Y0084801D01*
X0154955Y0085752D01*
X0156223Y0085752D01*
X0156223Y0084167D02*
X0155906Y0083850D01*
X0155272Y0083850D01*
X0154955Y0084167D01*
X0154013Y0083850D02*
X0152745Y0083850D01*
X0153379Y0083850D02*
X0153379Y0085752D01*
X0152745Y0085118D01*
X0151803Y0085435D02*
X0151486Y0085752D01*
X0150852Y0085752D01*
X0150535Y0085435D01*
X0150535Y0084167D01*
X0150852Y0083850D01*
X0151486Y0083850D01*
X0151803Y0084167D01*
X0151486Y0089850D02*
X0151803Y0090167D01*
X0151486Y0089850D02*
X0150852Y0089850D01*
X0150535Y0090167D01*
X0150535Y0091435D01*
X0150852Y0091752D01*
X0151486Y0091752D01*
X0151803Y0091435D01*
X0152745Y0091118D02*
X0153379Y0091752D01*
X0153379Y0089850D01*
X0152745Y0089850D02*
X0154013Y0089850D01*
X0154955Y0090167D02*
X0155272Y0089850D01*
X0155906Y0089850D01*
X0156223Y0090167D01*
X0156223Y0090484D01*
X0155906Y0090801D01*
X0154955Y0090801D01*
X0154955Y0090167D01*
X0154955Y0090801D02*
X0155589Y0091435D01*
X0156223Y0091752D01*
X0133223Y0080201D02*
X0131955Y0080201D01*
X0132906Y0081152D01*
X0132906Y0079250D01*
X0131013Y0079567D02*
X0131013Y0079884D01*
X0130696Y0080201D01*
X0129745Y0080201D01*
X0129745Y0079567D01*
X0130062Y0079250D01*
X0130696Y0079250D01*
X0131013Y0079567D01*
X0130379Y0080835D02*
X0129745Y0080201D01*
X0130379Y0080835D02*
X0131013Y0081152D01*
X0128803Y0080835D02*
X0128803Y0080201D01*
X0128486Y0079884D01*
X0127535Y0079884D01*
X0127535Y0079250D02*
X0127535Y0081152D01*
X0128486Y0081152D01*
X0128803Y0080835D01*
X0128169Y0079884D02*
X0128803Y0079250D01*
X0128486Y0069152D02*
X0127852Y0069152D01*
X0127535Y0068835D01*
X0127535Y0067567D01*
X0127852Y0067250D01*
X0128486Y0067250D01*
X0128803Y0067567D01*
X0128486Y0066752D02*
X0128803Y0066435D01*
X0128803Y0065801D01*
X0128486Y0065484D01*
X0127535Y0065484D01*
X0127535Y0064850D02*
X0127535Y0066752D01*
X0128486Y0066752D01*
X0128169Y0065484D02*
X0128803Y0064850D01*
X0129745Y0065167D02*
X0130062Y0064850D01*
X0130696Y0064850D01*
X0131013Y0065167D01*
X0131013Y0065484D01*
X0130696Y0065801D01*
X0129745Y0065801D01*
X0129745Y0065167D01*
X0129745Y0065801D02*
X0130379Y0066435D01*
X0131013Y0066752D01*
X0131013Y0067250D02*
X0129745Y0067250D01*
X0130379Y0067250D02*
X0130379Y0069152D01*
X0129745Y0068518D01*
X0128803Y0068835D02*
X0128486Y0069152D01*
X0131955Y0069152D02*
X0133223Y0069152D01*
X0133223Y0068835D01*
X0131955Y0067567D01*
X0131955Y0067250D01*
X0132589Y0066435D02*
X0131955Y0065801D01*
X0132906Y0065801D01*
X0133223Y0065484D01*
X0133223Y0065167D01*
X0132906Y0064850D01*
X0132272Y0064850D01*
X0131955Y0065167D01*
X0131955Y0065801D01*
X0132589Y0066435D02*
X0133223Y0066752D01*
X0110750Y0067040D02*
X0108848Y0067040D01*
X0108848Y0067991D01*
X0109165Y0068308D01*
X0109799Y0068308D01*
X0110116Y0067991D01*
X0110116Y0067040D01*
X0110116Y0067674D02*
X0110750Y0068308D01*
X0110433Y0069250D02*
X0110750Y0069567D01*
X0110750Y0070201D01*
X0110433Y0070518D01*
X0109799Y0070518D01*
X0109482Y0070201D01*
X0109482Y0069884D01*
X0109799Y0069250D01*
X0108848Y0069250D01*
X0108848Y0070518D01*
X0098750Y0070201D02*
X0098750Y0069567D01*
X0098433Y0069250D01*
X0097799Y0069884D02*
X0097799Y0070201D01*
X0098116Y0070518D01*
X0098433Y0070518D01*
X0098750Y0070201D01*
X0097799Y0070201D02*
X0097482Y0070518D01*
X0097165Y0070518D01*
X0096848Y0070201D01*
X0096848Y0069567D01*
X0097165Y0069250D01*
X0096350Y0069413D02*
X0096350Y0068145D01*
X0096848Y0067991D02*
X0096848Y0067357D01*
X0097165Y0067040D01*
X0098433Y0067040D01*
X0098750Y0067357D01*
X0098750Y0067991D01*
X0098433Y0068308D01*
X0097165Y0068308D02*
X0096848Y0067991D01*
X0096350Y0068779D02*
X0094448Y0068779D01*
X0095082Y0068145D01*
X0094765Y0067203D02*
X0095399Y0067203D01*
X0095716Y0066886D01*
X0095716Y0065935D01*
X0096350Y0065935D02*
X0094448Y0065935D01*
X0094448Y0066886D01*
X0094765Y0067203D01*
X0095716Y0066569D02*
X0096350Y0067203D01*
X0095399Y0070355D02*
X0095399Y0071623D01*
X0094448Y0071306D02*
X0095399Y0070355D01*
X0096350Y0071306D02*
X0094448Y0071306D01*
X0073750Y0072935D02*
X0071848Y0072935D01*
X0071848Y0073886D01*
X0072165Y0074203D01*
X0072799Y0074203D01*
X0073116Y0073886D01*
X0073116Y0072935D01*
X0073116Y0073569D02*
X0073750Y0074203D01*
X0073750Y0075145D02*
X0073750Y0076413D01*
X0073750Y0075779D02*
X0071848Y0075779D01*
X0072482Y0075145D01*
X0071350Y0075308D02*
X0070716Y0074674D01*
X0070716Y0074991D02*
X0070716Y0074040D01*
X0071350Y0074040D02*
X0069448Y0074040D01*
X0069448Y0074991D01*
X0069765Y0075308D01*
X0070399Y0075308D01*
X0070716Y0074991D01*
X0071033Y0076250D02*
X0071350Y0076567D01*
X0071350Y0077201D01*
X0071033Y0077518D01*
X0070716Y0077518D01*
X0070399Y0077201D01*
X0070399Y0076884D01*
X0070399Y0077201D02*
X0070082Y0077518D01*
X0069765Y0077518D01*
X0069448Y0077201D01*
X0069448Y0076567D01*
X0069765Y0076250D01*
X0071848Y0077355D02*
X0072799Y0077355D01*
X0072482Y0077989D01*
X0072482Y0078306D01*
X0072799Y0078623D01*
X0073433Y0078623D01*
X0073750Y0078306D01*
X0073750Y0077672D01*
X0073433Y0077355D01*
X0071848Y0077355D02*
X0071848Y0078623D01*
X0059350Y0077518D02*
X0059350Y0076250D01*
X0058082Y0077518D01*
X0057765Y0077518D01*
X0057448Y0077201D01*
X0057448Y0076567D01*
X0057765Y0076250D01*
X0057765Y0075308D02*
X0057448Y0074991D01*
X0057448Y0074357D01*
X0057765Y0074040D01*
X0059033Y0074040D01*
X0059350Y0074357D01*
X0059350Y0074991D01*
X0059033Y0075308D01*
X0063448Y0094935D02*
X0063448Y0095886D01*
X0063765Y0096203D01*
X0064399Y0096203D01*
X0064716Y0095886D01*
X0064716Y0094935D01*
X0065350Y0094935D02*
X0063448Y0094935D01*
X0064716Y0095569D02*
X0065350Y0096203D01*
X0065848Y0096357D02*
X0066165Y0096040D01*
X0067433Y0096040D01*
X0067750Y0096357D01*
X0067750Y0096991D01*
X0067433Y0097308D01*
X0067750Y0098250D02*
X0067750Y0099518D01*
X0067750Y0098884D02*
X0065848Y0098884D01*
X0066482Y0098250D01*
X0066165Y0097308D02*
X0065848Y0096991D01*
X0065848Y0096357D01*
X0065350Y0097145D02*
X0065350Y0098413D01*
X0065350Y0097779D02*
X0063448Y0097779D01*
X0064082Y0097145D01*
X0063765Y0099355D02*
X0063448Y0099672D01*
X0063448Y0100306D01*
X0063765Y0100623D01*
X0064082Y0100623D01*
X0064399Y0100306D01*
X0064716Y0100623D01*
X0065033Y0100623D01*
X0065350Y0100306D01*
X0065350Y0099672D01*
X0065033Y0099355D01*
X0064399Y0099989D02*
X0064399Y0100306D01*
X0077848Y0099201D02*
X0077848Y0098567D01*
X0078165Y0098250D01*
X0078165Y0097308D02*
X0078799Y0097308D01*
X0079116Y0096991D01*
X0079116Y0096040D01*
X0079116Y0096674D02*
X0079750Y0097308D01*
X0079750Y0098250D02*
X0078482Y0099518D01*
X0078165Y0099518D01*
X0077848Y0099201D01*
X0078165Y0097308D02*
X0077848Y0096991D01*
X0077848Y0096040D01*
X0079750Y0096040D01*
X0079750Y0098250D02*
X0079750Y0099518D01*
X0111448Y0100623D02*
X0111765Y0099989D01*
X0112399Y0099355D01*
X0112399Y0100306D01*
X0112716Y0100623D01*
X0113033Y0100623D01*
X0113350Y0100306D01*
X0113350Y0099672D01*
X0113033Y0099355D01*
X0112399Y0099355D01*
X0113350Y0098413D02*
X0113350Y0097145D01*
X0113848Y0096991D02*
X0114165Y0097308D01*
X0114799Y0097308D01*
X0115116Y0096991D01*
X0115116Y0096040D01*
X0115116Y0096674D02*
X0115750Y0097308D01*
X0115750Y0098250D02*
X0115433Y0098250D01*
X0114165Y0099518D01*
X0113848Y0099518D01*
X0113848Y0098250D01*
X0113350Y0097779D02*
X0111448Y0097779D01*
X0112082Y0097145D01*
X0111765Y0096203D02*
X0112399Y0096203D01*
X0112716Y0095886D01*
X0112716Y0094935D01*
X0113350Y0094935D02*
X0111448Y0094935D01*
X0111448Y0095886D01*
X0111765Y0096203D01*
X0112716Y0095569D02*
X0113350Y0096203D01*
X0113848Y0096040D02*
X0113848Y0096991D01*
X0113848Y0096040D02*
X0115750Y0096040D01*
X0125848Y0096357D02*
X0126165Y0096040D01*
X0127433Y0096040D01*
X0127750Y0096357D01*
X0127750Y0096991D01*
X0127433Y0097308D01*
X0126799Y0098250D02*
X0126799Y0099518D01*
X0125848Y0099201D02*
X0126799Y0098250D01*
X0126165Y0097308D02*
X0125848Y0096991D01*
X0125848Y0096357D01*
X0125848Y0099201D02*
X0127750Y0099201D01*
X0094850Y0127303D02*
X0094850Y0127937D01*
X0094850Y0127620D02*
X0092948Y0127620D01*
X0092948Y0127303D02*
X0092948Y0127937D01*
X0093265Y0128777D02*
X0094533Y0128777D01*
X0094850Y0129094D01*
X0094850Y0129728D01*
X0094533Y0130044D01*
X0094850Y0130987D02*
X0093582Y0132254D01*
X0093265Y0132254D01*
X0092948Y0131937D01*
X0092948Y0131304D01*
X0093265Y0130987D01*
X0093265Y0130044D02*
X0092948Y0129728D01*
X0092948Y0129094D01*
X0093265Y0128777D01*
X0094850Y0130987D02*
X0094850Y0132254D01*
X0097165Y0141040D02*
X0098433Y0141040D01*
X0098750Y0141357D01*
X0098750Y0141991D01*
X0098433Y0142308D01*
X0098433Y0143250D02*
X0098750Y0143250D01*
X0098433Y0143250D02*
X0097165Y0144518D01*
X0096848Y0144518D01*
X0096848Y0143250D01*
X0097165Y0142308D02*
X0096848Y0141991D01*
X0096848Y0141357D01*
X0097165Y0141040D01*
X0092750Y0141357D02*
X0092750Y0141991D01*
X0092433Y0142308D01*
X0092433Y0143250D02*
X0092116Y0143250D01*
X0091799Y0143567D01*
X0091799Y0144201D01*
X0092116Y0144518D01*
X0092433Y0144518D01*
X0092750Y0144201D01*
X0092750Y0143567D01*
X0092433Y0143250D01*
X0091799Y0143567D02*
X0091482Y0143250D01*
X0091165Y0143250D01*
X0090848Y0143567D01*
X0090848Y0144201D01*
X0091165Y0144518D01*
X0091482Y0144518D01*
X0091799Y0144201D01*
X0091165Y0142308D02*
X0090848Y0141991D01*
X0090848Y0141357D01*
X0091165Y0141040D01*
X0092433Y0141040D01*
X0092750Y0141357D01*
X0048250Y0152147D02*
X0047933Y0151830D01*
X0048250Y0152147D02*
X0048250Y0152464D01*
X0047933Y0152781D01*
X0046348Y0152781D01*
X0046348Y0152464D02*
X0046348Y0153098D01*
X0046348Y0154040D02*
X0046348Y0154991D01*
X0046665Y0155308D01*
X0047299Y0155308D01*
X0047616Y0154991D01*
X0047616Y0154040D01*
X0048250Y0154040D02*
X0046348Y0154040D01*
X0046665Y0156250D02*
X0046348Y0156567D01*
X0046348Y0157201D01*
X0046665Y0157518D01*
X0046982Y0157518D01*
X0048250Y0156250D01*
X0048250Y0157518D01*
X0048250Y0158460D02*
X0046982Y0159728D01*
X0046665Y0159728D01*
X0046348Y0159411D01*
X0046348Y0158777D01*
X0046665Y0158460D01*
X0048250Y0158460D02*
X0048250Y0159728D01*
X0207848Y0146201D02*
X0207848Y0145567D01*
X0208165Y0145250D01*
X0208482Y0145250D01*
X0208799Y0145567D01*
X0208799Y0146518D01*
X0208165Y0146518D02*
X0207848Y0146201D01*
X0208165Y0146518D02*
X0209433Y0146518D01*
X0209750Y0146201D01*
X0209750Y0145567D01*
X0209433Y0145250D01*
X0209433Y0144308D02*
X0209750Y0143991D01*
X0209750Y0143357D01*
X0209433Y0143040D01*
X0208165Y0143040D01*
X0207848Y0143357D01*
X0207848Y0143991D01*
X0208165Y0144308D01*
X0214848Y0144779D02*
X0216750Y0144779D01*
X0216750Y0144145D02*
X0216750Y0145413D01*
X0216433Y0146355D02*
X0215165Y0147623D01*
X0216433Y0147623D01*
X0216750Y0147306D01*
X0216750Y0146672D01*
X0216433Y0146355D01*
X0215165Y0146355D01*
X0214848Y0146672D01*
X0214848Y0147306D01*
X0215165Y0147623D01*
X0214848Y0144779D02*
X0215482Y0144145D01*
X0215165Y0143203D02*
X0214848Y0142886D01*
X0214848Y0142252D01*
X0215165Y0141935D01*
X0216433Y0141935D01*
X0216750Y0142252D01*
X0216750Y0142886D01*
X0216433Y0143203D01*
X0221848Y0156935D02*
X0221848Y0157886D01*
X0222165Y0158203D01*
X0222799Y0158203D01*
X0223116Y0157886D01*
X0223116Y0156935D01*
X0223750Y0156935D02*
X0221848Y0156935D01*
X0223116Y0157569D02*
X0223750Y0158203D01*
X0223750Y0159145D02*
X0223750Y0160413D01*
X0223750Y0159779D02*
X0221848Y0159779D01*
X0222482Y0159145D01*
X0222482Y0161355D02*
X0222799Y0161672D01*
X0222799Y0162623D01*
X0222165Y0162623D02*
X0221848Y0162306D01*
X0221848Y0161672D01*
X0222165Y0161355D01*
X0222482Y0161355D01*
X0223433Y0161355D02*
X0223750Y0161672D01*
X0223750Y0162306D01*
X0223433Y0162623D01*
X0222165Y0162623D01*
X0215350Y0122623D02*
X0215350Y0121355D01*
X0214082Y0122623D01*
X0213765Y0122623D01*
X0213448Y0122306D01*
X0213448Y0121672D01*
X0213765Y0121355D01*
X0213448Y0120413D02*
X0213448Y0119145D01*
X0214399Y0119145D01*
X0214082Y0119779D01*
X0214082Y0120096D01*
X0214399Y0120413D01*
X0215033Y0120413D01*
X0215350Y0120096D01*
X0215350Y0119462D01*
X0215033Y0119145D01*
X0215350Y0118203D02*
X0214716Y0117569D01*
X0214716Y0117886D02*
X0214716Y0116935D01*
X0215350Y0116935D02*
X0213448Y0116935D01*
X0213448Y0117886D01*
X0213765Y0118203D01*
X0214399Y0118203D01*
X0214716Y0117886D01*
X0221848Y0103989D02*
X0223750Y0103989D01*
X0223750Y0103355D02*
X0223750Y0104623D01*
X0222482Y0103355D02*
X0221848Y0103989D01*
X0221848Y0102413D02*
X0221848Y0101145D01*
X0222799Y0101145D01*
X0222482Y0101779D01*
X0222482Y0102096D01*
X0222799Y0102413D01*
X0223433Y0102413D01*
X0223750Y0102096D01*
X0223750Y0101462D01*
X0223433Y0101145D01*
X0223750Y0100203D02*
X0223116Y0099569D01*
X0223116Y0099886D02*
X0223116Y0098935D01*
X0223750Y0098935D02*
X0221848Y0098935D01*
X0221848Y0099886D01*
X0222165Y0100203D01*
X0222799Y0100203D01*
X0223116Y0099886D01*
X0280535Y0108850D02*
X0280535Y0110752D01*
X0281486Y0110752D01*
X0281803Y0110435D01*
X0281803Y0109801D01*
X0281486Y0109484D01*
X0280535Y0109484D01*
X0281169Y0109484D02*
X0281803Y0108850D01*
X0282745Y0109167D02*
X0283062Y0108850D01*
X0283696Y0108850D01*
X0284013Y0109167D01*
X0284013Y0109801D01*
X0283696Y0110118D01*
X0283379Y0110118D01*
X0282745Y0109801D01*
X0282745Y0110752D01*
X0284013Y0110752D01*
X0284955Y0110435D02*
X0285272Y0110752D01*
X0285906Y0110752D01*
X0286223Y0110435D01*
X0284955Y0109167D01*
X0285272Y0108850D01*
X0285906Y0108850D01*
X0286223Y0109167D01*
X0286223Y0110435D01*
X0284955Y0110435D02*
X0284955Y0109167D01*
X0170350Y0042355D02*
X0170033Y0042355D01*
X0168765Y0043623D01*
X0168448Y0043623D01*
X0168448Y0042355D01*
X0168448Y0041413D02*
X0168765Y0040779D01*
X0169399Y0040145D01*
X0169399Y0041096D01*
X0169716Y0041413D01*
X0170033Y0041413D01*
X0170350Y0041096D01*
X0170350Y0040462D01*
X0170033Y0040145D01*
X0169399Y0040145D01*
X0169399Y0039203D02*
X0169716Y0038886D01*
X0169716Y0037935D01*
X0170350Y0037935D02*
X0168448Y0037935D01*
X0168448Y0038886D01*
X0168765Y0039203D01*
X0169399Y0039203D01*
X0169716Y0038569D02*
X0170350Y0039203D01*
X0163350Y0039203D02*
X0162716Y0038569D01*
X0162716Y0038886D02*
X0162716Y0037935D01*
X0163350Y0037935D02*
X0161448Y0037935D01*
X0161448Y0038886D01*
X0161765Y0039203D01*
X0162399Y0039203D01*
X0162716Y0038886D01*
X0162399Y0040145D02*
X0162399Y0041096D01*
X0162716Y0041413D01*
X0163033Y0041413D01*
X0163350Y0041096D01*
X0163350Y0040462D01*
X0163033Y0040145D01*
X0162399Y0040145D01*
X0161765Y0040779D01*
X0161448Y0041413D01*
X0161765Y0042355D02*
X0162082Y0042355D01*
X0162399Y0042672D01*
X0162399Y0043623D01*
X0161765Y0043623D02*
X0161448Y0043306D01*
X0161448Y0042672D01*
X0161765Y0042355D01*
X0161765Y0043623D02*
X0163033Y0043623D01*
X0163350Y0043306D01*
X0163350Y0042672D01*
X0163033Y0042355D01*
X0138350Y0042672D02*
X0138033Y0042355D01*
X0138350Y0042672D02*
X0138350Y0043306D01*
X0138033Y0043623D01*
X0137399Y0043623D01*
X0137082Y0043306D01*
X0137082Y0042989D01*
X0137399Y0042355D01*
X0136448Y0042355D01*
X0136448Y0043623D01*
X0136448Y0041413D02*
X0136765Y0040779D01*
X0137399Y0040145D01*
X0137399Y0041096D01*
X0137716Y0041413D01*
X0138033Y0041413D01*
X0138350Y0041096D01*
X0138350Y0040462D01*
X0138033Y0040145D01*
X0137399Y0040145D01*
X0137399Y0039203D02*
X0137716Y0038886D01*
X0137716Y0037935D01*
X0138350Y0037935D02*
X0136448Y0037935D01*
X0136448Y0038886D01*
X0136765Y0039203D01*
X0137399Y0039203D01*
X0137716Y0038569D02*
X0138350Y0039203D01*
X0132350Y0039203D02*
X0131716Y0038569D01*
X0131716Y0038886D02*
X0131716Y0037935D01*
X0132350Y0037935D02*
X0130448Y0037935D01*
X0130448Y0038886D01*
X0130765Y0039203D01*
X0131399Y0039203D01*
X0131716Y0038886D01*
X0131399Y0040145D02*
X0131399Y0041096D01*
X0131716Y0041413D01*
X0132033Y0041413D01*
X0132350Y0041096D01*
X0132350Y0040462D01*
X0132033Y0040145D01*
X0131399Y0040145D01*
X0130765Y0040779D01*
X0130448Y0041413D01*
X0130765Y0042355D02*
X0130448Y0042672D01*
X0130448Y0043306D01*
X0130765Y0043623D01*
X0131082Y0043623D01*
X0131399Y0043306D01*
X0131716Y0043623D01*
X0132033Y0043623D01*
X0132350Y0043306D01*
X0132350Y0042672D01*
X0132033Y0042355D01*
X0131399Y0042989D02*
X0131399Y0043306D01*
X0116350Y0041201D02*
X0116350Y0040567D01*
X0116033Y0040250D01*
X0115716Y0040250D01*
X0115399Y0040567D01*
X0115399Y0041201D01*
X0115716Y0041518D01*
X0116033Y0041518D01*
X0116350Y0041201D01*
X0115399Y0041201D02*
X0115082Y0041518D01*
X0114765Y0041518D01*
X0114448Y0041201D01*
X0114448Y0040567D01*
X0114765Y0040250D01*
X0115082Y0040250D01*
X0115399Y0040567D01*
X0115399Y0039308D02*
X0115716Y0038991D01*
X0115716Y0038040D01*
X0115716Y0038674D02*
X0116350Y0039308D01*
X0115399Y0039308D02*
X0114765Y0039308D01*
X0114448Y0038991D01*
X0114448Y0038040D01*
X0116350Y0038040D01*
X0110350Y0038203D02*
X0109716Y0037569D01*
X0109716Y0037886D02*
X0109716Y0036935D01*
X0110350Y0036935D02*
X0108448Y0036935D01*
X0108448Y0037886D01*
X0108765Y0038203D01*
X0109399Y0038203D01*
X0109716Y0037886D01*
X0109082Y0039145D02*
X0108448Y0039779D01*
X0110350Y0039779D01*
X0110350Y0039145D02*
X0110350Y0040413D01*
X0110350Y0041355D02*
X0109082Y0042623D01*
X0108765Y0042623D01*
X0108448Y0042306D01*
X0108448Y0041672D01*
X0108765Y0041355D01*
X0110350Y0041355D02*
X0110350Y0042623D01*
X0094350Y0041201D02*
X0094350Y0040567D01*
X0094033Y0040250D01*
X0093399Y0040250D01*
X0093399Y0041201D01*
X0093716Y0041518D01*
X0094033Y0041518D01*
X0094350Y0041201D01*
X0093399Y0040250D02*
X0092765Y0040884D01*
X0092448Y0041518D01*
X0092765Y0039308D02*
X0093399Y0039308D01*
X0093716Y0038991D01*
X0093716Y0038040D01*
X0093716Y0038674D02*
X0094350Y0039308D01*
X0094350Y0038040D02*
X0092448Y0038040D01*
X0092448Y0038991D01*
X0092765Y0039308D01*
X0088350Y0039145D02*
X0088350Y0040413D01*
X0088350Y0039779D02*
X0086448Y0039779D01*
X0087082Y0039145D01*
X0086765Y0038203D02*
X0087399Y0038203D01*
X0087716Y0037886D01*
X0087716Y0036935D01*
X0088350Y0036935D02*
X0086448Y0036935D01*
X0086448Y0037886D01*
X0086765Y0038203D01*
X0087716Y0037569D02*
X0088350Y0038203D01*
X0088350Y0041355D02*
X0088350Y0042623D01*
X0088350Y0041989D02*
X0086448Y0041989D01*
X0087082Y0041355D01*
X0072350Y0041201D02*
X0070448Y0041201D01*
X0071399Y0040250D01*
X0071399Y0041518D01*
X0071399Y0039308D02*
X0071716Y0038991D01*
X0071716Y0038040D01*
X0071716Y0038674D02*
X0072350Y0039308D01*
X0071399Y0039308D02*
X0070765Y0039308D01*
X0070448Y0038991D01*
X0070448Y0038040D01*
X0072350Y0038040D01*
X0066350Y0038203D02*
X0065716Y0037569D01*
X0065716Y0037886D02*
X0065716Y0036935D01*
X0066350Y0036935D02*
X0064448Y0036935D01*
X0064448Y0037886D01*
X0064765Y0038203D01*
X0065399Y0038203D01*
X0065716Y0037886D01*
X0065082Y0039145D02*
X0064448Y0039779D01*
X0066350Y0039779D01*
X0066350Y0039145D02*
X0066350Y0040413D01*
X0066033Y0041355D02*
X0064765Y0042623D01*
X0066033Y0042623D01*
X0066350Y0042306D01*
X0066350Y0041672D01*
X0066033Y0041355D01*
X0064765Y0041355D01*
X0064448Y0041672D01*
X0064448Y0042306D01*
X0064765Y0042623D01*
X0050460Y0041439D02*
X0050460Y0040171D01*
X0050460Y0040805D02*
X0048559Y0040805D01*
X0049192Y0040171D01*
X0048876Y0039229D02*
X0049509Y0039229D01*
X0049826Y0038912D01*
X0049826Y0037961D01*
X0050460Y0037961D02*
X0048559Y0037961D01*
X0048559Y0038912D01*
X0048876Y0039229D01*
X0049826Y0038595D02*
X0050460Y0039229D01*
X0044405Y0039387D02*
X0043771Y0038753D01*
X0043771Y0039070D02*
X0043771Y0038119D01*
X0044405Y0038119D02*
X0042503Y0038119D01*
X0042503Y0039070D01*
X0042820Y0039387D01*
X0043454Y0039387D01*
X0043771Y0039070D01*
X0044088Y0040329D02*
X0044405Y0040646D01*
X0044405Y0041280D01*
X0044088Y0041596D01*
X0042820Y0041596D01*
X0042503Y0041280D01*
X0042503Y0040646D01*
X0042820Y0040329D01*
X0043137Y0040329D01*
X0043454Y0040646D01*
X0043454Y0041596D01*
X0050064Y0023252D02*
X0050698Y0023252D01*
X0050381Y0023252D02*
X0050381Y0021667D01*
X0050064Y0021350D01*
X0049747Y0021350D01*
X0049430Y0021667D01*
X0051640Y0021984D02*
X0052591Y0021984D01*
X0052908Y0022301D01*
X0052908Y0022935D01*
X0052591Y0023252D01*
X0051640Y0023252D01*
X0051640Y0021350D01*
X0053850Y0021350D02*
X0055118Y0021350D01*
X0054484Y0021350D02*
X0054484Y0023252D01*
X0053850Y0022618D01*
X0056060Y0022935D02*
X0056377Y0023252D01*
X0057011Y0023252D01*
X0057328Y0022935D01*
X0057328Y0022618D01*
X0057011Y0022301D01*
X0057328Y0021984D01*
X0057328Y0021667D01*
X0057011Y0021350D01*
X0056377Y0021350D01*
X0056060Y0021667D01*
X0056694Y0022301D02*
X0057011Y0022301D01*
X0064484Y0018652D02*
X0065118Y0018652D01*
X0064801Y0018652D02*
X0064801Y0017067D01*
X0064484Y0016750D01*
X0064167Y0016750D01*
X0063850Y0017067D01*
X0066060Y0017067D02*
X0066377Y0016750D01*
X0067011Y0016750D01*
X0067328Y0017067D01*
X0067328Y0017384D01*
X0067011Y0017701D01*
X0066694Y0017701D01*
X0067011Y0017701D02*
X0067328Y0018018D01*
X0067328Y0018335D01*
X0067011Y0018652D01*
X0066377Y0018652D01*
X0066060Y0018335D01*
X0071430Y0022667D02*
X0071747Y0022350D01*
X0072064Y0022350D01*
X0072381Y0022667D01*
X0072381Y0024252D01*
X0072064Y0024252D02*
X0072698Y0024252D01*
X0073640Y0024252D02*
X0074591Y0024252D01*
X0074908Y0023935D01*
X0074908Y0023301D01*
X0074591Y0022984D01*
X0073640Y0022984D01*
X0073640Y0022350D02*
X0073640Y0024252D01*
X0075850Y0023618D02*
X0076484Y0024252D01*
X0076484Y0022350D01*
X0075850Y0022350D02*
X0077118Y0022350D01*
X0078060Y0023301D02*
X0079328Y0023301D01*
X0079011Y0024252D02*
X0078060Y0023301D01*
X0079011Y0022350D02*
X0079011Y0024252D01*
X0086484Y0018652D02*
X0087118Y0018652D01*
X0086801Y0018652D02*
X0086801Y0017067D01*
X0086484Y0016750D01*
X0086167Y0016750D01*
X0085850Y0017067D01*
X0088060Y0017701D02*
X0089328Y0017701D01*
X0089011Y0018652D02*
X0088060Y0017701D01*
X0089011Y0016750D02*
X0089011Y0018652D01*
X0093430Y0022667D02*
X0093747Y0022350D01*
X0094064Y0022350D01*
X0094381Y0022667D01*
X0094381Y0024252D01*
X0094064Y0024252D02*
X0094698Y0024252D01*
X0095640Y0024252D02*
X0096591Y0024252D01*
X0096908Y0023935D01*
X0096908Y0023301D01*
X0096591Y0022984D01*
X0095640Y0022984D01*
X0095640Y0022350D02*
X0095640Y0024252D01*
X0097850Y0023618D02*
X0098484Y0024252D01*
X0098484Y0022350D01*
X0097850Y0022350D02*
X0099118Y0022350D01*
X0100060Y0022667D02*
X0100377Y0022350D01*
X0101011Y0022350D01*
X0101328Y0022667D01*
X0101328Y0023301D01*
X0101011Y0023618D01*
X0100694Y0023618D01*
X0100060Y0023301D01*
X0100060Y0024252D01*
X0101328Y0024252D01*
X0108484Y0018652D02*
X0109118Y0018652D01*
X0108801Y0018652D02*
X0108801Y0017067D01*
X0108484Y0016750D01*
X0108167Y0016750D01*
X0107850Y0017067D01*
X0110060Y0017067D02*
X0110377Y0016750D01*
X0111011Y0016750D01*
X0111328Y0017067D01*
X0111328Y0017701D01*
X0111011Y0018018D01*
X0110694Y0018018D01*
X0110060Y0017701D01*
X0110060Y0018652D01*
X0111328Y0018652D01*
X0115430Y0022667D02*
X0115747Y0022350D01*
X0116064Y0022350D01*
X0116381Y0022667D01*
X0116381Y0024252D01*
X0116064Y0024252D02*
X0116698Y0024252D01*
X0117640Y0024252D02*
X0118591Y0024252D01*
X0118908Y0023935D01*
X0118908Y0023301D01*
X0118591Y0022984D01*
X0117640Y0022984D01*
X0117640Y0022350D02*
X0117640Y0024252D01*
X0119850Y0023618D02*
X0120484Y0024252D01*
X0120484Y0022350D01*
X0119850Y0022350D02*
X0121118Y0022350D01*
X0122060Y0022667D02*
X0122377Y0022350D01*
X0123011Y0022350D01*
X0123328Y0022667D01*
X0123328Y0022984D01*
X0123011Y0023301D01*
X0122060Y0023301D01*
X0122060Y0022667D01*
X0122060Y0023301D02*
X0122694Y0023935D01*
X0123328Y0024252D01*
X0130484Y0018652D02*
X0131118Y0018652D01*
X0130801Y0018652D02*
X0130801Y0017067D01*
X0130484Y0016750D01*
X0130167Y0016750D01*
X0129850Y0017067D01*
X0132060Y0016750D02*
X0133328Y0016750D01*
X0132694Y0016750D02*
X0132694Y0018652D01*
X0132060Y0018018D01*
X0134270Y0018335D02*
X0134587Y0018652D01*
X0135221Y0018652D01*
X0135538Y0018335D01*
X0134270Y0017067D01*
X0134587Y0016750D01*
X0135221Y0016750D01*
X0135538Y0017067D01*
X0135538Y0018335D01*
X0134270Y0018335D02*
X0134270Y0017067D01*
X0137747Y0022350D02*
X0138064Y0022350D01*
X0138381Y0022667D01*
X0138381Y0024252D01*
X0138064Y0024252D02*
X0138698Y0024252D01*
X0139640Y0024252D02*
X0140591Y0024252D01*
X0140908Y0023935D01*
X0140908Y0023301D01*
X0140591Y0022984D01*
X0139640Y0022984D01*
X0139640Y0022350D02*
X0139640Y0024252D01*
X0141850Y0023618D02*
X0142484Y0024252D01*
X0142484Y0022350D01*
X0141850Y0022350D02*
X0143118Y0022350D01*
X0144060Y0022667D02*
X0144377Y0022350D01*
X0145011Y0022350D01*
X0145328Y0022667D01*
X0145328Y0023935D01*
X0145011Y0024252D01*
X0144377Y0024252D01*
X0144060Y0023935D01*
X0144060Y0023618D01*
X0144377Y0023301D01*
X0145328Y0023301D01*
X0137747Y0022350D02*
X0137430Y0022667D01*
X0161850Y0017067D02*
X0162167Y0016750D01*
X0162484Y0016750D01*
X0162801Y0017067D01*
X0162801Y0018652D01*
X0162484Y0018652D02*
X0163118Y0018652D01*
X0164060Y0018335D02*
X0164060Y0018018D01*
X0164377Y0017701D01*
X0165011Y0017701D01*
X0165328Y0017384D01*
X0165328Y0017067D01*
X0165011Y0016750D01*
X0164377Y0016750D01*
X0164060Y0017067D01*
X0164060Y0017384D01*
X0164377Y0017701D01*
X0165011Y0017701D02*
X0165328Y0018018D01*
X0165328Y0018335D01*
X0165011Y0018652D01*
X0164377Y0018652D01*
X0164060Y0018335D01*
X0169430Y0022667D02*
X0169747Y0022350D01*
X0170064Y0022350D01*
X0170381Y0022667D01*
X0170381Y0024252D01*
X0170064Y0024252D02*
X0170698Y0024252D01*
X0171640Y0024252D02*
X0172591Y0024252D01*
X0172908Y0023935D01*
X0172908Y0023301D01*
X0172591Y0022984D01*
X0171640Y0022984D01*
X0171640Y0022350D02*
X0171640Y0024252D01*
X0173850Y0023935D02*
X0174167Y0024252D01*
X0174801Y0024252D01*
X0175118Y0023935D01*
X0175118Y0023618D01*
X0173850Y0022350D01*
X0175118Y0022350D01*
X0176060Y0022667D02*
X0177328Y0023935D01*
X0177328Y0022667D01*
X0177011Y0022350D01*
X0176377Y0022350D01*
X0176060Y0022667D01*
X0176060Y0023935D01*
X0176377Y0024252D01*
X0177011Y0024252D01*
X0177328Y0023935D01*
X0045328Y0018335D02*
X0045011Y0018652D01*
X0044377Y0018652D01*
X0044060Y0018335D01*
X0043118Y0018652D02*
X0042484Y0018652D01*
X0042801Y0018652D02*
X0042801Y0017067D01*
X0042484Y0016750D01*
X0042167Y0016750D01*
X0041850Y0017067D01*
X0044060Y0016750D02*
X0045328Y0018018D01*
X0045328Y0018335D01*
X0045328Y0016750D02*
X0044060Y0016750D01*
X0007563Y0032031D02*
X0007563Y0032348D01*
X0007246Y0032665D01*
X0005661Y0032665D01*
X0005661Y0032348D02*
X0005661Y0032982D01*
X0006295Y0033924D02*
X0005661Y0034558D01*
X0007563Y0034558D01*
X0007563Y0033924D02*
X0007563Y0035192D01*
X0007563Y0032031D02*
X0007246Y0031715D01*
X0299933Y0243830D02*
X0300250Y0244147D01*
X0300250Y0244464D01*
X0299933Y0244781D01*
X0298348Y0244781D01*
X0298348Y0244464D02*
X0298348Y0245098D01*
X0298348Y0246040D02*
X0298348Y0246991D01*
X0298665Y0247308D01*
X0299299Y0247308D01*
X0299616Y0246991D01*
X0299616Y0246040D01*
X0300250Y0246040D02*
X0298348Y0246040D01*
X0298665Y0248250D02*
X0298348Y0248567D01*
X0298348Y0249201D01*
X0298665Y0249518D01*
X0298982Y0249518D01*
X0300250Y0248250D01*
X0300250Y0249518D01*
X0300250Y0250460D02*
X0300250Y0251728D01*
X0300250Y0251094D02*
X0298348Y0251094D01*
X0298982Y0250460D01*
X0397038Y0237154D02*
X0397038Y0232650D01*
X0397038Y0234151D02*
X0399290Y0234151D01*
X0400041Y0234902D01*
X0400041Y0236403D01*
X0399290Y0237154D01*
X0397038Y0237154D01*
X0398539Y0234151D02*
X0400041Y0232650D01*
X0401642Y0233401D02*
X0401642Y0234151D01*
X0402393Y0234902D01*
X0403894Y0234902D01*
X0404645Y0234151D01*
X0404645Y0233401D01*
X0403894Y0232650D01*
X0402393Y0232650D01*
X0401642Y0233401D01*
X0402393Y0234902D02*
X0401642Y0235653D01*
X0401642Y0236403D01*
X0402393Y0237154D01*
X0403894Y0237154D01*
X0404645Y0236403D01*
X0404645Y0235653D01*
X0403894Y0234902D01*
X0406246Y0236403D02*
X0406997Y0237154D01*
X0408498Y0237154D01*
X0409249Y0236403D01*
X0409249Y0235653D01*
X0406246Y0232650D01*
X0409249Y0232650D01*
D13*
X0409600Y0239000D02*
X0406100Y0239000D01*
X0405100Y0240000D01*
X0352100Y0240000D01*
X0351100Y0239000D01*
X0347600Y0239000D01*
X0347524Y0239002D01*
X0347448Y0239008D01*
X0347373Y0239017D01*
X0347298Y0239031D01*
X0347224Y0239048D01*
X0347151Y0239069D01*
X0347079Y0239093D01*
X0347008Y0239122D01*
X0346939Y0239153D01*
X0346872Y0239188D01*
X0346807Y0239227D01*
X0346743Y0239269D01*
X0346682Y0239314D01*
X0346623Y0239362D01*
X0346567Y0239413D01*
X0346513Y0239467D01*
X0346462Y0239523D01*
X0346414Y0239582D01*
X0346369Y0239643D01*
X0346327Y0239707D01*
X0346288Y0239772D01*
X0346253Y0239839D01*
X0346222Y0239908D01*
X0346193Y0239979D01*
X0346169Y0240051D01*
X0346148Y0240124D01*
X0346131Y0240198D01*
X0346117Y0240273D01*
X0346108Y0240348D01*
X0346102Y0240424D01*
X0346100Y0240500D01*
X0346100Y0247000D01*
X0346100Y0255000D02*
X0346100Y0261500D01*
X0346102Y0261576D01*
X0346108Y0261652D01*
X0346117Y0261727D01*
X0346131Y0261802D01*
X0346148Y0261876D01*
X0346169Y0261949D01*
X0346193Y0262021D01*
X0346222Y0262092D01*
X0346253Y0262161D01*
X0346288Y0262228D01*
X0346327Y0262293D01*
X0346369Y0262357D01*
X0346414Y0262418D01*
X0346462Y0262477D01*
X0346513Y0262533D01*
X0346567Y0262587D01*
X0346623Y0262638D01*
X0346682Y0262686D01*
X0346743Y0262731D01*
X0346807Y0262773D01*
X0346872Y0262812D01*
X0346939Y0262847D01*
X0347008Y0262878D01*
X0347079Y0262907D01*
X0347151Y0262931D01*
X0347224Y0262952D01*
X0347298Y0262969D01*
X0347373Y0262983D01*
X0347448Y0262992D01*
X0347524Y0262998D01*
X0347600Y0263000D01*
X0351100Y0263000D01*
X0352100Y0262000D01*
X0405100Y0262000D01*
X0406100Y0263000D01*
X0409600Y0263000D01*
X0409676Y0262998D01*
X0409752Y0262992D01*
X0409827Y0262983D01*
X0409902Y0262969D01*
X0409976Y0262952D01*
X0410049Y0262931D01*
X0410121Y0262907D01*
X0410192Y0262878D01*
X0410261Y0262847D01*
X0410328Y0262812D01*
X0410393Y0262773D01*
X0410457Y0262731D01*
X0410518Y0262686D01*
X0410577Y0262638D01*
X0410633Y0262587D01*
X0410687Y0262533D01*
X0410738Y0262477D01*
X0410786Y0262418D01*
X0410831Y0262357D01*
X0410873Y0262293D01*
X0410912Y0262228D01*
X0410947Y0262161D01*
X0410978Y0262092D01*
X0411007Y0262021D01*
X0411031Y0261949D01*
X0411052Y0261876D01*
X0411069Y0261802D01*
X0411083Y0261727D01*
X0411092Y0261652D01*
X0411098Y0261576D01*
X0411100Y0261500D01*
X0411100Y0255000D01*
X0411100Y0247000D02*
X0411100Y0240500D01*
X0411098Y0240424D01*
X0411092Y0240348D01*
X0411083Y0240273D01*
X0411069Y0240198D01*
X0411052Y0240124D01*
X0411031Y0240051D01*
X0411007Y0239979D01*
X0410978Y0239908D01*
X0410947Y0239839D01*
X0410912Y0239772D01*
X0410873Y0239707D01*
X0410831Y0239643D01*
X0410786Y0239582D01*
X0410738Y0239523D01*
X0410687Y0239467D01*
X0410633Y0239413D01*
X0410577Y0239362D01*
X0410518Y0239314D01*
X0410457Y0239269D01*
X0410393Y0239227D01*
X0410328Y0239188D01*
X0410261Y0239153D01*
X0410192Y0239122D01*
X0410121Y0239093D01*
X0410049Y0239069D01*
X0409976Y0239048D01*
X0409902Y0239031D01*
X0409827Y0239017D01*
X0409752Y0239008D01*
X0409676Y0239002D01*
X0409600Y0239000D01*
X0298600Y0224000D02*
X0298600Y0214000D01*
X0298598Y0213940D01*
X0298593Y0213879D01*
X0298584Y0213820D01*
X0298571Y0213761D01*
X0298555Y0213702D01*
X0298535Y0213645D01*
X0298512Y0213590D01*
X0298485Y0213535D01*
X0298456Y0213483D01*
X0298423Y0213432D01*
X0298387Y0213383D01*
X0298349Y0213337D01*
X0298307Y0213293D01*
X0298263Y0213251D01*
X0298217Y0213213D01*
X0298168Y0213177D01*
X0298117Y0213144D01*
X0298065Y0213115D01*
X0298010Y0213088D01*
X0297955Y0213065D01*
X0297898Y0213045D01*
X0297839Y0213029D01*
X0297780Y0213016D01*
X0297721Y0213007D01*
X0297660Y0213002D01*
X0297600Y0213000D01*
X0291600Y0213000D01*
X0291540Y0213002D01*
X0291479Y0213007D01*
X0291420Y0213016D01*
X0291361Y0213029D01*
X0291302Y0213045D01*
X0291245Y0213065D01*
X0291190Y0213088D01*
X0291135Y0213115D01*
X0291083Y0213144D01*
X0291032Y0213177D01*
X0290983Y0213213D01*
X0290937Y0213251D01*
X0290893Y0213293D01*
X0290851Y0213337D01*
X0290813Y0213383D01*
X0290777Y0213432D01*
X0290744Y0213483D01*
X0290715Y0213535D01*
X0290688Y0213590D01*
X0290665Y0213645D01*
X0290645Y0213702D01*
X0290629Y0213761D01*
X0290616Y0213820D01*
X0290607Y0213879D01*
X0290602Y0213940D01*
X0290600Y0214000D01*
X0290600Y0224000D01*
X0290602Y0224060D01*
X0290607Y0224121D01*
X0290616Y0224180D01*
X0290629Y0224239D01*
X0290645Y0224298D01*
X0290665Y0224355D01*
X0290688Y0224410D01*
X0290715Y0224465D01*
X0290744Y0224517D01*
X0290777Y0224568D01*
X0290813Y0224617D01*
X0290851Y0224663D01*
X0290893Y0224707D01*
X0290937Y0224749D01*
X0290983Y0224787D01*
X0291032Y0224823D01*
X0291083Y0224856D01*
X0291135Y0224885D01*
X0291190Y0224912D01*
X0291245Y0224935D01*
X0291302Y0224955D01*
X0291361Y0224971D01*
X0291420Y0224984D01*
X0291479Y0224993D01*
X0291540Y0224998D01*
X0291600Y0225000D01*
X0297600Y0225000D01*
X0297660Y0224998D01*
X0297721Y0224993D01*
X0297780Y0224984D01*
X0297839Y0224971D01*
X0297898Y0224955D01*
X0297955Y0224935D01*
X0298010Y0224912D01*
X0298065Y0224885D01*
X0298117Y0224856D01*
X0298168Y0224823D01*
X0298217Y0224787D01*
X0298263Y0224749D01*
X0298307Y0224707D01*
X0298349Y0224663D01*
X0298387Y0224617D01*
X0298423Y0224568D01*
X0298456Y0224517D01*
X0298485Y0224465D01*
X0298512Y0224410D01*
X0298535Y0224355D01*
X0298555Y0224298D01*
X0298571Y0224239D01*
X0298584Y0224180D01*
X0298593Y0224121D01*
X0298598Y0224060D01*
X0298600Y0224000D01*
X0296600Y0242000D02*
X0290600Y0242000D01*
X0290540Y0242002D01*
X0290479Y0242007D01*
X0290420Y0242016D01*
X0290361Y0242029D01*
X0290302Y0242045D01*
X0290245Y0242065D01*
X0290190Y0242088D01*
X0290135Y0242115D01*
X0290083Y0242144D01*
X0290032Y0242177D01*
X0289983Y0242213D01*
X0289937Y0242251D01*
X0289893Y0242293D01*
X0289851Y0242337D01*
X0289813Y0242383D01*
X0289777Y0242432D01*
X0289744Y0242483D01*
X0289715Y0242535D01*
X0289688Y0242590D01*
X0289665Y0242645D01*
X0289645Y0242702D01*
X0289629Y0242761D01*
X0289616Y0242820D01*
X0289607Y0242879D01*
X0289602Y0242940D01*
X0289600Y0243000D01*
X0289600Y0253000D01*
X0289602Y0253060D01*
X0289607Y0253121D01*
X0289616Y0253180D01*
X0289629Y0253239D01*
X0289645Y0253298D01*
X0289665Y0253355D01*
X0289688Y0253410D01*
X0289715Y0253465D01*
X0289744Y0253517D01*
X0289777Y0253568D01*
X0289813Y0253617D01*
X0289851Y0253663D01*
X0289893Y0253707D01*
X0289937Y0253749D01*
X0289983Y0253787D01*
X0290032Y0253823D01*
X0290083Y0253856D01*
X0290135Y0253885D01*
X0290190Y0253912D01*
X0290245Y0253935D01*
X0290302Y0253955D01*
X0290361Y0253971D01*
X0290420Y0253984D01*
X0290479Y0253993D01*
X0290540Y0253998D01*
X0290600Y0254000D01*
X0296600Y0254000D01*
X0296660Y0253998D01*
X0296721Y0253993D01*
X0296780Y0253984D01*
X0296839Y0253971D01*
X0296898Y0253955D01*
X0296955Y0253935D01*
X0297010Y0253912D01*
X0297065Y0253885D01*
X0297117Y0253856D01*
X0297168Y0253823D01*
X0297217Y0253787D01*
X0297263Y0253749D01*
X0297307Y0253707D01*
X0297349Y0253663D01*
X0297387Y0253617D01*
X0297423Y0253568D01*
X0297456Y0253517D01*
X0297485Y0253465D01*
X0297512Y0253410D01*
X0297535Y0253355D01*
X0297555Y0253298D01*
X0297571Y0253239D01*
X0297584Y0253180D01*
X0297593Y0253121D01*
X0297598Y0253060D01*
X0297600Y0253000D01*
X0297600Y0243000D01*
X0297598Y0242940D01*
X0297593Y0242879D01*
X0297584Y0242820D01*
X0297571Y0242761D01*
X0297555Y0242702D01*
X0297535Y0242645D01*
X0297512Y0242590D01*
X0297485Y0242535D01*
X0297456Y0242483D01*
X0297423Y0242432D01*
X0297387Y0242383D01*
X0297349Y0242337D01*
X0297307Y0242293D01*
X0297263Y0242251D01*
X0297217Y0242213D01*
X0297168Y0242177D01*
X0297117Y0242144D01*
X0297065Y0242115D01*
X0297010Y0242088D01*
X0296955Y0242065D01*
X0296898Y0242045D01*
X0296839Y0242029D01*
X0296780Y0242016D01*
X0296721Y0242007D01*
X0296660Y0242002D01*
X0296600Y0242000D01*
X0260120Y0229114D02*
X0235080Y0229114D01*
X0290600Y0204000D02*
X0290600Y0194000D01*
X0290602Y0193940D01*
X0290607Y0193879D01*
X0290616Y0193820D01*
X0290629Y0193761D01*
X0290645Y0193702D01*
X0290665Y0193645D01*
X0290688Y0193590D01*
X0290715Y0193535D01*
X0290744Y0193483D01*
X0290777Y0193432D01*
X0290813Y0193383D01*
X0290851Y0193337D01*
X0290893Y0193293D01*
X0290937Y0193251D01*
X0290983Y0193213D01*
X0291032Y0193177D01*
X0291083Y0193144D01*
X0291135Y0193115D01*
X0291190Y0193088D01*
X0291245Y0193065D01*
X0291302Y0193045D01*
X0291361Y0193029D01*
X0291420Y0193016D01*
X0291479Y0193007D01*
X0291540Y0193002D01*
X0291600Y0193000D01*
X0297600Y0193000D01*
X0297660Y0193002D01*
X0297721Y0193007D01*
X0297780Y0193016D01*
X0297839Y0193029D01*
X0297898Y0193045D01*
X0297955Y0193065D01*
X0298010Y0193088D01*
X0298065Y0193115D01*
X0298117Y0193144D01*
X0298168Y0193177D01*
X0298217Y0193213D01*
X0298263Y0193251D01*
X0298307Y0193293D01*
X0298349Y0193337D01*
X0298387Y0193383D01*
X0298423Y0193432D01*
X0298456Y0193483D01*
X0298485Y0193535D01*
X0298512Y0193590D01*
X0298535Y0193645D01*
X0298555Y0193702D01*
X0298571Y0193761D01*
X0298584Y0193820D01*
X0298593Y0193879D01*
X0298598Y0193940D01*
X0298600Y0194000D01*
X0298600Y0204000D01*
X0298598Y0204060D01*
X0298593Y0204121D01*
X0298584Y0204180D01*
X0298571Y0204239D01*
X0298555Y0204298D01*
X0298535Y0204355D01*
X0298512Y0204410D01*
X0298485Y0204465D01*
X0298456Y0204517D01*
X0298423Y0204568D01*
X0298387Y0204617D01*
X0298349Y0204663D01*
X0298307Y0204707D01*
X0298263Y0204749D01*
X0298217Y0204787D01*
X0298168Y0204823D01*
X0298117Y0204856D01*
X0298065Y0204885D01*
X0298010Y0204912D01*
X0297955Y0204935D01*
X0297898Y0204955D01*
X0297839Y0204971D01*
X0297780Y0204984D01*
X0297721Y0204993D01*
X0297660Y0204998D01*
X0297600Y0205000D01*
X0291600Y0205000D01*
X0291540Y0204998D01*
X0291479Y0204993D01*
X0291420Y0204984D01*
X0291361Y0204971D01*
X0291302Y0204955D01*
X0291245Y0204935D01*
X0291190Y0204912D01*
X0291135Y0204885D01*
X0291083Y0204856D01*
X0291032Y0204823D01*
X0290983Y0204787D01*
X0290937Y0204749D01*
X0290893Y0204707D01*
X0290851Y0204663D01*
X0290813Y0204617D01*
X0290777Y0204568D01*
X0290744Y0204517D01*
X0290715Y0204465D01*
X0290688Y0204410D01*
X0290665Y0204355D01*
X0290645Y0204298D01*
X0290629Y0204239D01*
X0290616Y0204180D01*
X0290607Y0204121D01*
X0290602Y0204060D01*
X0290600Y0204000D01*
X0291600Y0185000D02*
X0297600Y0185000D01*
X0297660Y0184998D01*
X0297721Y0184993D01*
X0297780Y0184984D01*
X0297839Y0184971D01*
X0297898Y0184955D01*
X0297955Y0184935D01*
X0298010Y0184912D01*
X0298065Y0184885D01*
X0298117Y0184856D01*
X0298168Y0184823D01*
X0298217Y0184787D01*
X0298263Y0184749D01*
X0298307Y0184707D01*
X0298349Y0184663D01*
X0298387Y0184617D01*
X0298423Y0184568D01*
X0298456Y0184517D01*
X0298485Y0184465D01*
X0298512Y0184410D01*
X0298535Y0184355D01*
X0298555Y0184298D01*
X0298571Y0184239D01*
X0298584Y0184180D01*
X0298593Y0184121D01*
X0298598Y0184060D01*
X0298600Y0184000D01*
X0298600Y0174000D01*
X0298598Y0173940D01*
X0298593Y0173879D01*
X0298584Y0173820D01*
X0298571Y0173761D01*
X0298555Y0173702D01*
X0298535Y0173645D01*
X0298512Y0173590D01*
X0298485Y0173535D01*
X0298456Y0173483D01*
X0298423Y0173432D01*
X0298387Y0173383D01*
X0298349Y0173337D01*
X0298307Y0173293D01*
X0298263Y0173251D01*
X0298217Y0173213D01*
X0298168Y0173177D01*
X0298117Y0173144D01*
X0298065Y0173115D01*
X0298010Y0173088D01*
X0297955Y0173065D01*
X0297898Y0173045D01*
X0297839Y0173029D01*
X0297780Y0173016D01*
X0297721Y0173007D01*
X0297660Y0173002D01*
X0297600Y0173000D01*
X0291600Y0173000D01*
X0291540Y0173002D01*
X0291479Y0173007D01*
X0291420Y0173016D01*
X0291361Y0173029D01*
X0291302Y0173045D01*
X0291245Y0173065D01*
X0291190Y0173088D01*
X0291135Y0173115D01*
X0291083Y0173144D01*
X0291032Y0173177D01*
X0290983Y0173213D01*
X0290937Y0173251D01*
X0290893Y0173293D01*
X0290851Y0173337D01*
X0290813Y0173383D01*
X0290777Y0173432D01*
X0290744Y0173483D01*
X0290715Y0173535D01*
X0290688Y0173590D01*
X0290665Y0173645D01*
X0290645Y0173702D01*
X0290629Y0173761D01*
X0290616Y0173820D01*
X0290607Y0173879D01*
X0290602Y0173940D01*
X0290600Y0174000D01*
X0290600Y0184000D01*
X0290602Y0184060D01*
X0290607Y0184121D01*
X0290616Y0184180D01*
X0290629Y0184239D01*
X0290645Y0184298D01*
X0290665Y0184355D01*
X0290688Y0184410D01*
X0290715Y0184465D01*
X0290744Y0184517D01*
X0290777Y0184568D01*
X0290813Y0184617D01*
X0290851Y0184663D01*
X0290893Y0184707D01*
X0290937Y0184749D01*
X0290983Y0184787D01*
X0291032Y0184823D01*
X0291083Y0184856D01*
X0291135Y0184885D01*
X0291190Y0184912D01*
X0291245Y0184935D01*
X0291302Y0184955D01*
X0291361Y0184971D01*
X0291420Y0184984D01*
X0291479Y0184993D01*
X0291540Y0184998D01*
X0291600Y0185000D01*
X0291600Y0166000D02*
X0297600Y0166000D01*
X0297660Y0165998D01*
X0297721Y0165993D01*
X0297780Y0165984D01*
X0297839Y0165971D01*
X0297898Y0165955D01*
X0297955Y0165935D01*
X0298010Y0165912D01*
X0298065Y0165885D01*
X0298117Y0165856D01*
X0298168Y0165823D01*
X0298217Y0165787D01*
X0298263Y0165749D01*
X0298307Y0165707D01*
X0298349Y0165663D01*
X0298387Y0165617D01*
X0298423Y0165568D01*
X0298456Y0165517D01*
X0298485Y0165465D01*
X0298512Y0165410D01*
X0298535Y0165355D01*
X0298555Y0165298D01*
X0298571Y0165239D01*
X0298584Y0165180D01*
X0298593Y0165121D01*
X0298598Y0165060D01*
X0298600Y0165000D01*
X0298600Y0155000D01*
X0298598Y0154940D01*
X0298593Y0154879D01*
X0298584Y0154820D01*
X0298571Y0154761D01*
X0298555Y0154702D01*
X0298535Y0154645D01*
X0298512Y0154590D01*
X0298485Y0154535D01*
X0298456Y0154483D01*
X0298423Y0154432D01*
X0298387Y0154383D01*
X0298349Y0154337D01*
X0298307Y0154293D01*
X0298263Y0154251D01*
X0298217Y0154213D01*
X0298168Y0154177D01*
X0298117Y0154144D01*
X0298065Y0154115D01*
X0298010Y0154088D01*
X0297955Y0154065D01*
X0297898Y0154045D01*
X0297839Y0154029D01*
X0297780Y0154016D01*
X0297721Y0154007D01*
X0297660Y0154002D01*
X0297600Y0154000D01*
X0291600Y0154000D01*
X0291540Y0154002D01*
X0291479Y0154007D01*
X0291420Y0154016D01*
X0291361Y0154029D01*
X0291302Y0154045D01*
X0291245Y0154065D01*
X0291190Y0154088D01*
X0291135Y0154115D01*
X0291083Y0154144D01*
X0291032Y0154177D01*
X0290983Y0154213D01*
X0290937Y0154251D01*
X0290893Y0154293D01*
X0290851Y0154337D01*
X0290813Y0154383D01*
X0290777Y0154432D01*
X0290744Y0154483D01*
X0290715Y0154535D01*
X0290688Y0154590D01*
X0290665Y0154645D01*
X0290645Y0154702D01*
X0290629Y0154761D01*
X0290616Y0154820D01*
X0290607Y0154879D01*
X0290602Y0154940D01*
X0290600Y0155000D01*
X0290600Y0165000D01*
X0290602Y0165060D01*
X0290607Y0165121D01*
X0290616Y0165180D01*
X0290629Y0165239D01*
X0290645Y0165298D01*
X0290665Y0165355D01*
X0290688Y0165410D01*
X0290715Y0165465D01*
X0290744Y0165517D01*
X0290777Y0165568D01*
X0290813Y0165617D01*
X0290851Y0165663D01*
X0290893Y0165707D01*
X0290937Y0165749D01*
X0290983Y0165787D01*
X0291032Y0165823D01*
X0291083Y0165856D01*
X0291135Y0165885D01*
X0291190Y0165912D01*
X0291245Y0165935D01*
X0291302Y0165955D01*
X0291361Y0165971D01*
X0291420Y0165984D01*
X0291479Y0165993D01*
X0291540Y0165998D01*
X0291600Y0166000D01*
X0261120Y0130114D02*
X0236080Y0130114D01*
X0294600Y0125000D02*
X0294600Y0115000D01*
X0294602Y0114940D01*
X0294607Y0114879D01*
X0294616Y0114820D01*
X0294629Y0114761D01*
X0294645Y0114702D01*
X0294665Y0114645D01*
X0294688Y0114590D01*
X0294715Y0114535D01*
X0294744Y0114483D01*
X0294777Y0114432D01*
X0294813Y0114383D01*
X0294851Y0114337D01*
X0294893Y0114293D01*
X0294937Y0114251D01*
X0294983Y0114213D01*
X0295032Y0114177D01*
X0295083Y0114144D01*
X0295135Y0114115D01*
X0295190Y0114088D01*
X0295245Y0114065D01*
X0295302Y0114045D01*
X0295361Y0114029D01*
X0295420Y0114016D01*
X0295479Y0114007D01*
X0295540Y0114002D01*
X0295600Y0114000D01*
X0301600Y0114000D01*
X0301660Y0114002D01*
X0301721Y0114007D01*
X0301780Y0114016D01*
X0301839Y0114029D01*
X0301898Y0114045D01*
X0301955Y0114065D01*
X0302010Y0114088D01*
X0302065Y0114115D01*
X0302117Y0114144D01*
X0302168Y0114177D01*
X0302217Y0114213D01*
X0302263Y0114251D01*
X0302307Y0114293D01*
X0302349Y0114337D01*
X0302387Y0114383D01*
X0302423Y0114432D01*
X0302456Y0114483D01*
X0302485Y0114535D01*
X0302512Y0114590D01*
X0302535Y0114645D01*
X0302555Y0114702D01*
X0302571Y0114761D01*
X0302584Y0114820D01*
X0302593Y0114879D01*
X0302598Y0114940D01*
X0302600Y0115000D01*
X0302600Y0125000D01*
X0302598Y0125060D01*
X0302593Y0125121D01*
X0302584Y0125180D01*
X0302571Y0125239D01*
X0302555Y0125298D01*
X0302535Y0125355D01*
X0302512Y0125410D01*
X0302485Y0125465D01*
X0302456Y0125517D01*
X0302423Y0125568D01*
X0302387Y0125617D01*
X0302349Y0125663D01*
X0302307Y0125707D01*
X0302263Y0125749D01*
X0302217Y0125787D01*
X0302168Y0125823D01*
X0302117Y0125856D01*
X0302065Y0125885D01*
X0302010Y0125912D01*
X0301955Y0125935D01*
X0301898Y0125955D01*
X0301839Y0125971D01*
X0301780Y0125984D01*
X0301721Y0125993D01*
X0301660Y0125998D01*
X0301600Y0126000D01*
X0295600Y0126000D01*
X0295540Y0125998D01*
X0295479Y0125993D01*
X0295420Y0125984D01*
X0295361Y0125971D01*
X0295302Y0125955D01*
X0295245Y0125935D01*
X0295190Y0125912D01*
X0295135Y0125885D01*
X0295083Y0125856D01*
X0295032Y0125823D01*
X0294983Y0125787D01*
X0294937Y0125749D01*
X0294893Y0125707D01*
X0294851Y0125663D01*
X0294813Y0125617D01*
X0294777Y0125568D01*
X0294744Y0125517D01*
X0294715Y0125465D01*
X0294688Y0125410D01*
X0294665Y0125355D01*
X0294645Y0125298D01*
X0294629Y0125239D01*
X0294616Y0125180D01*
X0294607Y0125121D01*
X0294602Y0125060D01*
X0294600Y0125000D01*
X0295600Y0107000D02*
X0301600Y0107000D01*
X0301660Y0106998D01*
X0301721Y0106993D01*
X0301780Y0106984D01*
X0301839Y0106971D01*
X0301898Y0106955D01*
X0301955Y0106935D01*
X0302010Y0106912D01*
X0302065Y0106885D01*
X0302117Y0106856D01*
X0302168Y0106823D01*
X0302217Y0106787D01*
X0302263Y0106749D01*
X0302307Y0106707D01*
X0302349Y0106663D01*
X0302387Y0106617D01*
X0302423Y0106568D01*
X0302456Y0106517D01*
X0302485Y0106465D01*
X0302512Y0106410D01*
X0302535Y0106355D01*
X0302555Y0106298D01*
X0302571Y0106239D01*
X0302584Y0106180D01*
X0302593Y0106121D01*
X0302598Y0106060D01*
X0302600Y0106000D01*
X0302600Y0096000D01*
X0302598Y0095940D01*
X0302593Y0095879D01*
X0302584Y0095820D01*
X0302571Y0095761D01*
X0302555Y0095702D01*
X0302535Y0095645D01*
X0302512Y0095590D01*
X0302485Y0095535D01*
X0302456Y0095483D01*
X0302423Y0095432D01*
X0302387Y0095383D01*
X0302349Y0095337D01*
X0302307Y0095293D01*
X0302263Y0095251D01*
X0302217Y0095213D01*
X0302168Y0095177D01*
X0302117Y0095144D01*
X0302065Y0095115D01*
X0302010Y0095088D01*
X0301955Y0095065D01*
X0301898Y0095045D01*
X0301839Y0095029D01*
X0301780Y0095016D01*
X0301721Y0095007D01*
X0301660Y0095002D01*
X0301600Y0095000D01*
X0295600Y0095000D01*
X0295540Y0095002D01*
X0295479Y0095007D01*
X0295420Y0095016D01*
X0295361Y0095029D01*
X0295302Y0095045D01*
X0295245Y0095065D01*
X0295190Y0095088D01*
X0295135Y0095115D01*
X0295083Y0095144D01*
X0295032Y0095177D01*
X0294983Y0095213D01*
X0294937Y0095251D01*
X0294893Y0095293D01*
X0294851Y0095337D01*
X0294813Y0095383D01*
X0294777Y0095432D01*
X0294744Y0095483D01*
X0294715Y0095535D01*
X0294688Y0095590D01*
X0294665Y0095645D01*
X0294645Y0095702D01*
X0294629Y0095761D01*
X0294616Y0095820D01*
X0294607Y0095879D01*
X0294602Y0095940D01*
X0294600Y0096000D01*
X0294600Y0106000D01*
X0294602Y0106060D01*
X0294607Y0106121D01*
X0294616Y0106180D01*
X0294629Y0106239D01*
X0294645Y0106298D01*
X0294665Y0106355D01*
X0294688Y0106410D01*
X0294715Y0106465D01*
X0294744Y0106517D01*
X0294777Y0106568D01*
X0294813Y0106617D01*
X0294851Y0106663D01*
X0294893Y0106707D01*
X0294937Y0106749D01*
X0294983Y0106787D01*
X0295032Y0106823D01*
X0295083Y0106856D01*
X0295135Y0106885D01*
X0295190Y0106912D01*
X0295245Y0106935D01*
X0295302Y0106955D01*
X0295361Y0106971D01*
X0295420Y0106984D01*
X0295479Y0106993D01*
X0295540Y0106998D01*
X0295600Y0107000D01*
X0295600Y0087000D02*
X0301600Y0087000D01*
X0301660Y0086998D01*
X0301721Y0086993D01*
X0301780Y0086984D01*
X0301839Y0086971D01*
X0301898Y0086955D01*
X0301955Y0086935D01*
X0302010Y0086912D01*
X0302065Y0086885D01*
X0302117Y0086856D01*
X0302168Y0086823D01*
X0302217Y0086787D01*
X0302263Y0086749D01*
X0302307Y0086707D01*
X0302349Y0086663D01*
X0302387Y0086617D01*
X0302423Y0086568D01*
X0302456Y0086517D01*
X0302485Y0086465D01*
X0302512Y0086410D01*
X0302535Y0086355D01*
X0302555Y0086298D01*
X0302571Y0086239D01*
X0302584Y0086180D01*
X0302593Y0086121D01*
X0302598Y0086060D01*
X0302600Y0086000D01*
X0302600Y0076000D01*
X0302598Y0075940D01*
X0302593Y0075879D01*
X0302584Y0075820D01*
X0302571Y0075761D01*
X0302555Y0075702D01*
X0302535Y0075645D01*
X0302512Y0075590D01*
X0302485Y0075535D01*
X0302456Y0075483D01*
X0302423Y0075432D01*
X0302387Y0075383D01*
X0302349Y0075337D01*
X0302307Y0075293D01*
X0302263Y0075251D01*
X0302217Y0075213D01*
X0302168Y0075177D01*
X0302117Y0075144D01*
X0302065Y0075115D01*
X0302010Y0075088D01*
X0301955Y0075065D01*
X0301898Y0075045D01*
X0301839Y0075029D01*
X0301780Y0075016D01*
X0301721Y0075007D01*
X0301660Y0075002D01*
X0301600Y0075000D01*
X0295600Y0075000D01*
X0295540Y0075002D01*
X0295479Y0075007D01*
X0295420Y0075016D01*
X0295361Y0075029D01*
X0295302Y0075045D01*
X0295245Y0075065D01*
X0295190Y0075088D01*
X0295135Y0075115D01*
X0295083Y0075144D01*
X0295032Y0075177D01*
X0294983Y0075213D01*
X0294937Y0075251D01*
X0294893Y0075293D01*
X0294851Y0075337D01*
X0294813Y0075383D01*
X0294777Y0075432D01*
X0294744Y0075483D01*
X0294715Y0075535D01*
X0294688Y0075590D01*
X0294665Y0075645D01*
X0294645Y0075702D01*
X0294629Y0075761D01*
X0294616Y0075820D01*
X0294607Y0075879D01*
X0294602Y0075940D01*
X0294600Y0076000D01*
X0294600Y0086000D01*
X0294602Y0086060D01*
X0294607Y0086121D01*
X0294616Y0086180D01*
X0294629Y0086239D01*
X0294645Y0086298D01*
X0294665Y0086355D01*
X0294688Y0086410D01*
X0294715Y0086465D01*
X0294744Y0086517D01*
X0294777Y0086568D01*
X0294813Y0086617D01*
X0294851Y0086663D01*
X0294893Y0086707D01*
X0294937Y0086749D01*
X0294983Y0086787D01*
X0295032Y0086823D01*
X0295083Y0086856D01*
X0295135Y0086885D01*
X0295190Y0086912D01*
X0295245Y0086935D01*
X0295302Y0086955D01*
X0295361Y0086971D01*
X0295420Y0086984D01*
X0295479Y0086993D01*
X0295540Y0086998D01*
X0295600Y0087000D01*
X0295600Y0068000D02*
X0301600Y0068000D01*
X0301660Y0067998D01*
X0301721Y0067993D01*
X0301780Y0067984D01*
X0301839Y0067971D01*
X0301898Y0067955D01*
X0301955Y0067935D01*
X0302010Y0067912D01*
X0302065Y0067885D01*
X0302117Y0067856D01*
X0302168Y0067823D01*
X0302217Y0067787D01*
X0302263Y0067749D01*
X0302307Y0067707D01*
X0302349Y0067663D01*
X0302387Y0067617D01*
X0302423Y0067568D01*
X0302456Y0067517D01*
X0302485Y0067465D01*
X0302512Y0067410D01*
X0302535Y0067355D01*
X0302555Y0067298D01*
X0302571Y0067239D01*
X0302584Y0067180D01*
X0302593Y0067121D01*
X0302598Y0067060D01*
X0302600Y0067000D01*
X0302600Y0057000D01*
X0302598Y0056940D01*
X0302593Y0056879D01*
X0302584Y0056820D01*
X0302571Y0056761D01*
X0302555Y0056702D01*
X0302535Y0056645D01*
X0302512Y0056590D01*
X0302485Y0056535D01*
X0302456Y0056483D01*
X0302423Y0056432D01*
X0302387Y0056383D01*
X0302349Y0056337D01*
X0302307Y0056293D01*
X0302263Y0056251D01*
X0302217Y0056213D01*
X0302168Y0056177D01*
X0302117Y0056144D01*
X0302065Y0056115D01*
X0302010Y0056088D01*
X0301955Y0056065D01*
X0301898Y0056045D01*
X0301839Y0056029D01*
X0301780Y0056016D01*
X0301721Y0056007D01*
X0301660Y0056002D01*
X0301600Y0056000D01*
X0295600Y0056000D01*
X0295540Y0056002D01*
X0295479Y0056007D01*
X0295420Y0056016D01*
X0295361Y0056029D01*
X0295302Y0056045D01*
X0295245Y0056065D01*
X0295190Y0056088D01*
X0295135Y0056115D01*
X0295083Y0056144D01*
X0295032Y0056177D01*
X0294983Y0056213D01*
X0294937Y0056251D01*
X0294893Y0056293D01*
X0294851Y0056337D01*
X0294813Y0056383D01*
X0294777Y0056432D01*
X0294744Y0056483D01*
X0294715Y0056535D01*
X0294688Y0056590D01*
X0294665Y0056645D01*
X0294645Y0056702D01*
X0294629Y0056761D01*
X0294616Y0056820D01*
X0294607Y0056879D01*
X0294602Y0056940D01*
X0294600Y0057000D01*
X0294600Y0067000D01*
X0294602Y0067060D01*
X0294607Y0067121D01*
X0294616Y0067180D01*
X0294629Y0067239D01*
X0294645Y0067298D01*
X0294665Y0067355D01*
X0294688Y0067410D01*
X0294715Y0067465D01*
X0294744Y0067517D01*
X0294777Y0067568D01*
X0294813Y0067617D01*
X0294851Y0067663D01*
X0294893Y0067707D01*
X0294937Y0067749D01*
X0294983Y0067787D01*
X0295032Y0067823D01*
X0295083Y0067856D01*
X0295135Y0067885D01*
X0295190Y0067912D01*
X0295245Y0067935D01*
X0295302Y0067955D01*
X0295361Y0067971D01*
X0295420Y0067984D01*
X0295479Y0067993D01*
X0295540Y0067998D01*
X0295600Y0068000D01*
X0179600Y0032000D02*
X0179600Y0026000D01*
X0179598Y0025940D01*
X0179593Y0025879D01*
X0179584Y0025820D01*
X0179571Y0025761D01*
X0179555Y0025702D01*
X0179535Y0025645D01*
X0179512Y0025590D01*
X0179485Y0025535D01*
X0179456Y0025483D01*
X0179423Y0025432D01*
X0179387Y0025383D01*
X0179349Y0025337D01*
X0179307Y0025293D01*
X0179263Y0025251D01*
X0179217Y0025213D01*
X0179168Y0025177D01*
X0179117Y0025144D01*
X0179065Y0025115D01*
X0179010Y0025088D01*
X0178955Y0025065D01*
X0178898Y0025045D01*
X0178839Y0025029D01*
X0178780Y0025016D01*
X0178721Y0025007D01*
X0178660Y0025002D01*
X0178600Y0025000D01*
X0168600Y0025000D01*
X0168540Y0025002D01*
X0168479Y0025007D01*
X0168420Y0025016D01*
X0168361Y0025029D01*
X0168302Y0025045D01*
X0168245Y0025065D01*
X0168190Y0025088D01*
X0168135Y0025115D01*
X0168083Y0025144D01*
X0168032Y0025177D01*
X0167983Y0025213D01*
X0167937Y0025251D01*
X0167893Y0025293D01*
X0167851Y0025337D01*
X0167813Y0025383D01*
X0167777Y0025432D01*
X0167744Y0025483D01*
X0167715Y0025535D01*
X0167688Y0025590D01*
X0167665Y0025645D01*
X0167645Y0025702D01*
X0167629Y0025761D01*
X0167616Y0025820D01*
X0167607Y0025879D01*
X0167602Y0025940D01*
X0167600Y0026000D01*
X0167600Y0032000D01*
X0167602Y0032060D01*
X0167607Y0032121D01*
X0167616Y0032180D01*
X0167629Y0032239D01*
X0167645Y0032298D01*
X0167665Y0032355D01*
X0167688Y0032410D01*
X0167715Y0032465D01*
X0167744Y0032517D01*
X0167777Y0032568D01*
X0167813Y0032617D01*
X0167851Y0032663D01*
X0167893Y0032707D01*
X0167937Y0032749D01*
X0167983Y0032787D01*
X0168032Y0032823D01*
X0168083Y0032856D01*
X0168135Y0032885D01*
X0168190Y0032912D01*
X0168245Y0032935D01*
X0168302Y0032955D01*
X0168361Y0032971D01*
X0168420Y0032984D01*
X0168479Y0032993D01*
X0168540Y0032998D01*
X0168600Y0033000D01*
X0178600Y0033000D01*
X0178660Y0032998D01*
X0178721Y0032993D01*
X0178780Y0032984D01*
X0178839Y0032971D01*
X0178898Y0032955D01*
X0178955Y0032935D01*
X0179010Y0032912D01*
X0179065Y0032885D01*
X0179117Y0032856D01*
X0179168Y0032823D01*
X0179217Y0032787D01*
X0179263Y0032749D01*
X0179307Y0032707D01*
X0179349Y0032663D01*
X0179387Y0032617D01*
X0179423Y0032568D01*
X0179456Y0032517D01*
X0179485Y0032465D01*
X0179512Y0032410D01*
X0179535Y0032355D01*
X0179555Y0032298D01*
X0179571Y0032239D01*
X0179584Y0032180D01*
X0179593Y0032121D01*
X0179598Y0032060D01*
X0179600Y0032000D01*
X0164200Y0048400D02*
X0161000Y0048400D01*
X0164200Y0048400D02*
X0164200Y0050600D01*
X0164200Y0057400D02*
X0164200Y0059600D01*
X0161000Y0059600D01*
X0139200Y0059600D02*
X0139200Y0057400D01*
X0139200Y0059600D02*
X0136000Y0059600D01*
X0139200Y0050600D02*
X0139200Y0048400D01*
X0136000Y0048400D01*
X0117200Y0048400D02*
X0117200Y0050600D01*
X0117200Y0048400D02*
X0114000Y0048400D01*
X0117200Y0057400D02*
X0117200Y0059600D01*
X0114000Y0059600D01*
X0095200Y0059600D02*
X0095200Y0057400D01*
X0095200Y0059600D02*
X0092000Y0059600D01*
X0095200Y0050600D02*
X0095200Y0048400D01*
X0092000Y0048400D01*
X0073200Y0048400D02*
X0073200Y0050600D01*
X0073200Y0048400D02*
X0070000Y0048400D01*
X0073200Y0057400D02*
X0073200Y0059600D01*
X0070000Y0059600D01*
X0051200Y0059600D02*
X0051200Y0057400D01*
X0051200Y0059600D02*
X0048000Y0059600D01*
X0051200Y0050600D02*
X0051200Y0048400D01*
X0048000Y0048400D01*
X0070600Y0033000D02*
X0080600Y0033000D01*
X0080660Y0032998D01*
X0080721Y0032993D01*
X0080780Y0032984D01*
X0080839Y0032971D01*
X0080898Y0032955D01*
X0080955Y0032935D01*
X0081010Y0032912D01*
X0081065Y0032885D01*
X0081117Y0032856D01*
X0081168Y0032823D01*
X0081217Y0032787D01*
X0081263Y0032749D01*
X0081307Y0032707D01*
X0081349Y0032663D01*
X0081387Y0032617D01*
X0081423Y0032568D01*
X0081456Y0032517D01*
X0081485Y0032465D01*
X0081512Y0032410D01*
X0081535Y0032355D01*
X0081555Y0032298D01*
X0081571Y0032239D01*
X0081584Y0032180D01*
X0081593Y0032121D01*
X0081598Y0032060D01*
X0081600Y0032000D01*
X0081600Y0026000D01*
X0081598Y0025940D01*
X0081593Y0025879D01*
X0081584Y0025820D01*
X0081571Y0025761D01*
X0081555Y0025702D01*
X0081535Y0025645D01*
X0081512Y0025590D01*
X0081485Y0025535D01*
X0081456Y0025483D01*
X0081423Y0025432D01*
X0081387Y0025383D01*
X0081349Y0025337D01*
X0081307Y0025293D01*
X0081263Y0025251D01*
X0081217Y0025213D01*
X0081168Y0025177D01*
X0081117Y0025144D01*
X0081065Y0025115D01*
X0081010Y0025088D01*
X0080955Y0025065D01*
X0080898Y0025045D01*
X0080839Y0025029D01*
X0080780Y0025016D01*
X0080721Y0025007D01*
X0080660Y0025002D01*
X0080600Y0025000D01*
X0070600Y0025000D01*
X0070540Y0025002D01*
X0070479Y0025007D01*
X0070420Y0025016D01*
X0070361Y0025029D01*
X0070302Y0025045D01*
X0070245Y0025065D01*
X0070190Y0025088D01*
X0070135Y0025115D01*
X0070083Y0025144D01*
X0070032Y0025177D01*
X0069983Y0025213D01*
X0069937Y0025251D01*
X0069893Y0025293D01*
X0069851Y0025337D01*
X0069813Y0025383D01*
X0069777Y0025432D01*
X0069744Y0025483D01*
X0069715Y0025535D01*
X0069688Y0025590D01*
X0069665Y0025645D01*
X0069645Y0025702D01*
X0069629Y0025761D01*
X0069616Y0025820D01*
X0069607Y0025879D01*
X0069602Y0025940D01*
X0069600Y0026000D01*
X0069600Y0032000D01*
X0069602Y0032060D01*
X0069607Y0032121D01*
X0069616Y0032180D01*
X0069629Y0032239D01*
X0069645Y0032298D01*
X0069665Y0032355D01*
X0069688Y0032410D01*
X0069715Y0032465D01*
X0069744Y0032517D01*
X0069777Y0032568D01*
X0069813Y0032617D01*
X0069851Y0032663D01*
X0069893Y0032707D01*
X0069937Y0032749D01*
X0069983Y0032787D01*
X0070032Y0032823D01*
X0070083Y0032856D01*
X0070135Y0032885D01*
X0070190Y0032912D01*
X0070245Y0032935D01*
X0070302Y0032955D01*
X0070361Y0032971D01*
X0070420Y0032984D01*
X0070479Y0032993D01*
X0070540Y0032998D01*
X0070600Y0033000D01*
X0059600Y0031000D02*
X0059600Y0025000D01*
X0059598Y0024940D01*
X0059593Y0024879D01*
X0059584Y0024820D01*
X0059571Y0024761D01*
X0059555Y0024702D01*
X0059535Y0024645D01*
X0059512Y0024590D01*
X0059485Y0024535D01*
X0059456Y0024483D01*
X0059423Y0024432D01*
X0059387Y0024383D01*
X0059349Y0024337D01*
X0059307Y0024293D01*
X0059263Y0024251D01*
X0059217Y0024213D01*
X0059168Y0024177D01*
X0059117Y0024144D01*
X0059065Y0024115D01*
X0059010Y0024088D01*
X0058955Y0024065D01*
X0058898Y0024045D01*
X0058839Y0024029D01*
X0058780Y0024016D01*
X0058721Y0024007D01*
X0058660Y0024002D01*
X0058600Y0024000D01*
X0048600Y0024000D01*
X0048540Y0024002D01*
X0048479Y0024007D01*
X0048420Y0024016D01*
X0048361Y0024029D01*
X0048302Y0024045D01*
X0048245Y0024065D01*
X0048190Y0024088D01*
X0048135Y0024115D01*
X0048083Y0024144D01*
X0048032Y0024177D01*
X0047983Y0024213D01*
X0047937Y0024251D01*
X0047893Y0024293D01*
X0047851Y0024337D01*
X0047813Y0024383D01*
X0047777Y0024432D01*
X0047744Y0024483D01*
X0047715Y0024535D01*
X0047688Y0024590D01*
X0047665Y0024645D01*
X0047645Y0024702D01*
X0047629Y0024761D01*
X0047616Y0024820D01*
X0047607Y0024879D01*
X0047602Y0024940D01*
X0047600Y0025000D01*
X0047600Y0031000D01*
X0047602Y0031060D01*
X0047607Y0031121D01*
X0047616Y0031180D01*
X0047629Y0031239D01*
X0047645Y0031298D01*
X0047665Y0031355D01*
X0047688Y0031410D01*
X0047715Y0031465D01*
X0047744Y0031517D01*
X0047777Y0031568D01*
X0047813Y0031617D01*
X0047851Y0031663D01*
X0047893Y0031707D01*
X0047937Y0031749D01*
X0047983Y0031787D01*
X0048032Y0031823D01*
X0048083Y0031856D01*
X0048135Y0031885D01*
X0048190Y0031912D01*
X0048245Y0031935D01*
X0048302Y0031955D01*
X0048361Y0031971D01*
X0048420Y0031984D01*
X0048479Y0031993D01*
X0048540Y0031998D01*
X0048600Y0032000D01*
X0058600Y0032000D01*
X0058660Y0031998D01*
X0058721Y0031993D01*
X0058780Y0031984D01*
X0058839Y0031971D01*
X0058898Y0031955D01*
X0058955Y0031935D01*
X0059010Y0031912D01*
X0059065Y0031885D01*
X0059117Y0031856D01*
X0059168Y0031823D01*
X0059217Y0031787D01*
X0059263Y0031749D01*
X0059307Y0031707D01*
X0059349Y0031663D01*
X0059387Y0031617D01*
X0059423Y0031568D01*
X0059456Y0031517D01*
X0059485Y0031465D01*
X0059512Y0031410D01*
X0059535Y0031355D01*
X0059555Y0031298D01*
X0059571Y0031239D01*
X0059584Y0031180D01*
X0059593Y0031121D01*
X0059598Y0031060D01*
X0059600Y0031000D01*
X0091600Y0032000D02*
X0091600Y0026000D01*
X0091602Y0025940D01*
X0091607Y0025879D01*
X0091616Y0025820D01*
X0091629Y0025761D01*
X0091645Y0025702D01*
X0091665Y0025645D01*
X0091688Y0025590D01*
X0091715Y0025535D01*
X0091744Y0025483D01*
X0091777Y0025432D01*
X0091813Y0025383D01*
X0091851Y0025337D01*
X0091893Y0025293D01*
X0091937Y0025251D01*
X0091983Y0025213D01*
X0092032Y0025177D01*
X0092083Y0025144D01*
X0092135Y0025115D01*
X0092190Y0025088D01*
X0092245Y0025065D01*
X0092302Y0025045D01*
X0092361Y0025029D01*
X0092420Y0025016D01*
X0092479Y0025007D01*
X0092540Y0025002D01*
X0092600Y0025000D01*
X0102600Y0025000D01*
X0102660Y0025002D01*
X0102721Y0025007D01*
X0102780Y0025016D01*
X0102839Y0025029D01*
X0102898Y0025045D01*
X0102955Y0025065D01*
X0103010Y0025088D01*
X0103065Y0025115D01*
X0103117Y0025144D01*
X0103168Y0025177D01*
X0103217Y0025213D01*
X0103263Y0025251D01*
X0103307Y0025293D01*
X0103349Y0025337D01*
X0103387Y0025383D01*
X0103423Y0025432D01*
X0103456Y0025483D01*
X0103485Y0025535D01*
X0103512Y0025590D01*
X0103535Y0025645D01*
X0103555Y0025702D01*
X0103571Y0025761D01*
X0103584Y0025820D01*
X0103593Y0025879D01*
X0103598Y0025940D01*
X0103600Y0026000D01*
X0103600Y0032000D01*
X0103598Y0032060D01*
X0103593Y0032121D01*
X0103584Y0032180D01*
X0103571Y0032239D01*
X0103555Y0032298D01*
X0103535Y0032355D01*
X0103512Y0032410D01*
X0103485Y0032465D01*
X0103456Y0032517D01*
X0103423Y0032568D01*
X0103387Y0032617D01*
X0103349Y0032663D01*
X0103307Y0032707D01*
X0103263Y0032749D01*
X0103217Y0032787D01*
X0103168Y0032823D01*
X0103117Y0032856D01*
X0103065Y0032885D01*
X0103010Y0032912D01*
X0102955Y0032935D01*
X0102898Y0032955D01*
X0102839Y0032971D01*
X0102780Y0032984D01*
X0102721Y0032993D01*
X0102660Y0032998D01*
X0102600Y0033000D01*
X0092600Y0033000D01*
X0092540Y0032998D01*
X0092479Y0032993D01*
X0092420Y0032984D01*
X0092361Y0032971D01*
X0092302Y0032955D01*
X0092245Y0032935D01*
X0092190Y0032912D01*
X0092135Y0032885D01*
X0092083Y0032856D01*
X0092032Y0032823D01*
X0091983Y0032787D01*
X0091937Y0032749D01*
X0091893Y0032707D01*
X0091851Y0032663D01*
X0091813Y0032617D01*
X0091777Y0032568D01*
X0091744Y0032517D01*
X0091715Y0032465D01*
X0091688Y0032410D01*
X0091665Y0032355D01*
X0091645Y0032298D01*
X0091629Y0032239D01*
X0091616Y0032180D01*
X0091607Y0032121D01*
X0091602Y0032060D01*
X0091600Y0032000D01*
X0113600Y0032000D02*
X0113600Y0026000D01*
X0113602Y0025940D01*
X0113607Y0025879D01*
X0113616Y0025820D01*
X0113629Y0025761D01*
X0113645Y0025702D01*
X0113665Y0025645D01*
X0113688Y0025590D01*
X0113715Y0025535D01*
X0113744Y0025483D01*
X0113777Y0025432D01*
X0113813Y0025383D01*
X0113851Y0025337D01*
X0113893Y0025293D01*
X0113937Y0025251D01*
X0113983Y0025213D01*
X0114032Y0025177D01*
X0114083Y0025144D01*
X0114135Y0025115D01*
X0114190Y0025088D01*
X0114245Y0025065D01*
X0114302Y0025045D01*
X0114361Y0025029D01*
X0114420Y0025016D01*
X0114479Y0025007D01*
X0114540Y0025002D01*
X0114600Y0025000D01*
X0124600Y0025000D01*
X0124660Y0025002D01*
X0124721Y0025007D01*
X0124780Y0025016D01*
X0124839Y0025029D01*
X0124898Y0025045D01*
X0124955Y0025065D01*
X0125010Y0025088D01*
X0125065Y0025115D01*
X0125117Y0025144D01*
X0125168Y0025177D01*
X0125217Y0025213D01*
X0125263Y0025251D01*
X0125307Y0025293D01*
X0125349Y0025337D01*
X0125387Y0025383D01*
X0125423Y0025432D01*
X0125456Y0025483D01*
X0125485Y0025535D01*
X0125512Y0025590D01*
X0125535Y0025645D01*
X0125555Y0025702D01*
X0125571Y0025761D01*
X0125584Y0025820D01*
X0125593Y0025879D01*
X0125598Y0025940D01*
X0125600Y0026000D01*
X0125600Y0032000D01*
X0125598Y0032060D01*
X0125593Y0032121D01*
X0125584Y0032180D01*
X0125571Y0032239D01*
X0125555Y0032298D01*
X0125535Y0032355D01*
X0125512Y0032410D01*
X0125485Y0032465D01*
X0125456Y0032517D01*
X0125423Y0032568D01*
X0125387Y0032617D01*
X0125349Y0032663D01*
X0125307Y0032707D01*
X0125263Y0032749D01*
X0125217Y0032787D01*
X0125168Y0032823D01*
X0125117Y0032856D01*
X0125065Y0032885D01*
X0125010Y0032912D01*
X0124955Y0032935D01*
X0124898Y0032955D01*
X0124839Y0032971D01*
X0124780Y0032984D01*
X0124721Y0032993D01*
X0124660Y0032998D01*
X0124600Y0033000D01*
X0114600Y0033000D01*
X0114540Y0032998D01*
X0114479Y0032993D01*
X0114420Y0032984D01*
X0114361Y0032971D01*
X0114302Y0032955D01*
X0114245Y0032935D01*
X0114190Y0032912D01*
X0114135Y0032885D01*
X0114083Y0032856D01*
X0114032Y0032823D01*
X0113983Y0032787D01*
X0113937Y0032749D01*
X0113893Y0032707D01*
X0113851Y0032663D01*
X0113813Y0032617D01*
X0113777Y0032568D01*
X0113744Y0032517D01*
X0113715Y0032465D01*
X0113688Y0032410D01*
X0113665Y0032355D01*
X0113645Y0032298D01*
X0113629Y0032239D01*
X0113616Y0032180D01*
X0113607Y0032121D01*
X0113602Y0032060D01*
X0113600Y0032000D01*
X0135600Y0032000D02*
X0135600Y0026000D01*
X0135602Y0025940D01*
X0135607Y0025879D01*
X0135616Y0025820D01*
X0135629Y0025761D01*
X0135645Y0025702D01*
X0135665Y0025645D01*
X0135688Y0025590D01*
X0135715Y0025535D01*
X0135744Y0025483D01*
X0135777Y0025432D01*
X0135813Y0025383D01*
X0135851Y0025337D01*
X0135893Y0025293D01*
X0135937Y0025251D01*
X0135983Y0025213D01*
X0136032Y0025177D01*
X0136083Y0025144D01*
X0136135Y0025115D01*
X0136190Y0025088D01*
X0136245Y0025065D01*
X0136302Y0025045D01*
X0136361Y0025029D01*
X0136420Y0025016D01*
X0136479Y0025007D01*
X0136540Y0025002D01*
X0136600Y0025000D01*
X0146600Y0025000D01*
X0146660Y0025002D01*
X0146721Y0025007D01*
X0146780Y0025016D01*
X0146839Y0025029D01*
X0146898Y0025045D01*
X0146955Y0025065D01*
X0147010Y0025088D01*
X0147065Y0025115D01*
X0147117Y0025144D01*
X0147168Y0025177D01*
X0147217Y0025213D01*
X0147263Y0025251D01*
X0147307Y0025293D01*
X0147349Y0025337D01*
X0147387Y0025383D01*
X0147423Y0025432D01*
X0147456Y0025483D01*
X0147485Y0025535D01*
X0147512Y0025590D01*
X0147535Y0025645D01*
X0147555Y0025702D01*
X0147571Y0025761D01*
X0147584Y0025820D01*
X0147593Y0025879D01*
X0147598Y0025940D01*
X0147600Y0026000D01*
X0147600Y0032000D01*
X0147598Y0032060D01*
X0147593Y0032121D01*
X0147584Y0032180D01*
X0147571Y0032239D01*
X0147555Y0032298D01*
X0147535Y0032355D01*
X0147512Y0032410D01*
X0147485Y0032465D01*
X0147456Y0032517D01*
X0147423Y0032568D01*
X0147387Y0032617D01*
X0147349Y0032663D01*
X0147307Y0032707D01*
X0147263Y0032749D01*
X0147217Y0032787D01*
X0147168Y0032823D01*
X0147117Y0032856D01*
X0147065Y0032885D01*
X0147010Y0032912D01*
X0146955Y0032935D01*
X0146898Y0032955D01*
X0146839Y0032971D01*
X0146780Y0032984D01*
X0146721Y0032993D01*
X0146660Y0032998D01*
X0146600Y0033000D01*
X0136600Y0033000D01*
X0136540Y0032998D01*
X0136479Y0032993D01*
X0136420Y0032984D01*
X0136361Y0032971D01*
X0136302Y0032955D01*
X0136245Y0032935D01*
X0136190Y0032912D01*
X0136135Y0032885D01*
X0136083Y0032856D01*
X0136032Y0032823D01*
X0135983Y0032787D01*
X0135937Y0032749D01*
X0135893Y0032707D01*
X0135851Y0032663D01*
X0135813Y0032617D01*
X0135777Y0032568D01*
X0135744Y0032517D01*
X0135715Y0032465D01*
X0135688Y0032410D01*
X0135665Y0032355D01*
X0135645Y0032298D01*
X0135629Y0032239D01*
X0135616Y0032180D01*
X0135607Y0032121D01*
X0135602Y0032060D01*
X0135600Y0032000D01*
X0101587Y0077100D02*
X0083613Y0077100D01*
X0083613Y0096900D01*
X0101587Y0096900D01*
X0101587Y0077100D01*
X0086000Y0093400D02*
X0086002Y0093484D01*
X0086008Y0093569D01*
X0086018Y0093652D01*
X0086032Y0093736D01*
X0086049Y0093818D01*
X0086071Y0093900D01*
X0086096Y0093980D01*
X0086125Y0094059D01*
X0086158Y0094137D01*
X0086194Y0094213D01*
X0086234Y0094288D01*
X0086278Y0094360D01*
X0086324Y0094431D01*
X0086374Y0094499D01*
X0086427Y0094564D01*
X0086483Y0094627D01*
X0086542Y0094688D01*
X0086604Y0094745D01*
X0086668Y0094800D01*
X0086735Y0094851D01*
X0086804Y0094900D01*
X0086876Y0094945D01*
X0086949Y0094986D01*
X0087024Y0095024D01*
X0087101Y0095059D01*
X0087180Y0095090D01*
X0087260Y0095117D01*
X0087341Y0095140D01*
X0087423Y0095160D01*
X0087506Y0095176D01*
X0087589Y0095188D01*
X0087674Y0095196D01*
X0087758Y0095200D01*
X0087842Y0095200D01*
X0087926Y0095196D01*
X0088011Y0095188D01*
X0088094Y0095176D01*
X0088177Y0095160D01*
X0088259Y0095140D01*
X0088340Y0095117D01*
X0088420Y0095090D01*
X0088499Y0095059D01*
X0088576Y0095024D01*
X0088651Y0094986D01*
X0088724Y0094945D01*
X0088796Y0094900D01*
X0088865Y0094851D01*
X0088932Y0094800D01*
X0088996Y0094745D01*
X0089058Y0094688D01*
X0089117Y0094627D01*
X0089173Y0094564D01*
X0089226Y0094499D01*
X0089276Y0094431D01*
X0089322Y0094360D01*
X0089366Y0094288D01*
X0089406Y0094213D01*
X0089442Y0094137D01*
X0089475Y0094059D01*
X0089504Y0093980D01*
X0089529Y0093900D01*
X0089551Y0093818D01*
X0089568Y0093736D01*
X0089582Y0093652D01*
X0089592Y0093569D01*
X0089598Y0093484D01*
X0089600Y0093400D01*
X0089598Y0093316D01*
X0089592Y0093231D01*
X0089582Y0093148D01*
X0089568Y0093064D01*
X0089551Y0092982D01*
X0089529Y0092900D01*
X0089504Y0092820D01*
X0089475Y0092741D01*
X0089442Y0092663D01*
X0089406Y0092587D01*
X0089366Y0092512D01*
X0089322Y0092440D01*
X0089276Y0092369D01*
X0089226Y0092301D01*
X0089173Y0092236D01*
X0089117Y0092173D01*
X0089058Y0092112D01*
X0088996Y0092055D01*
X0088932Y0092000D01*
X0088865Y0091949D01*
X0088796Y0091900D01*
X0088724Y0091855D01*
X0088651Y0091814D01*
X0088576Y0091776D01*
X0088499Y0091741D01*
X0088420Y0091710D01*
X0088340Y0091683D01*
X0088259Y0091660D01*
X0088177Y0091640D01*
X0088094Y0091624D01*
X0088011Y0091612D01*
X0087926Y0091604D01*
X0087842Y0091600D01*
X0087758Y0091600D01*
X0087674Y0091604D01*
X0087589Y0091612D01*
X0087506Y0091624D01*
X0087423Y0091640D01*
X0087341Y0091660D01*
X0087260Y0091683D01*
X0087180Y0091710D01*
X0087101Y0091741D01*
X0087024Y0091776D01*
X0086949Y0091814D01*
X0086876Y0091855D01*
X0086804Y0091900D01*
X0086735Y0091949D01*
X0086668Y0092000D01*
X0086604Y0092055D01*
X0086542Y0092112D01*
X0086483Y0092173D01*
X0086427Y0092236D01*
X0086374Y0092301D01*
X0086324Y0092369D01*
X0086278Y0092440D01*
X0086234Y0092512D01*
X0086194Y0092587D01*
X0086158Y0092663D01*
X0086125Y0092741D01*
X0086096Y0092820D01*
X0086071Y0092900D01*
X0086049Y0092982D01*
X0086032Y0093064D01*
X0086018Y0093148D01*
X0086008Y0093231D01*
X0086002Y0093316D01*
X0086000Y0093400D01*
X0044600Y0150000D02*
X0038600Y0150000D01*
X0038540Y0150002D01*
X0038479Y0150007D01*
X0038420Y0150016D01*
X0038361Y0150029D01*
X0038302Y0150045D01*
X0038245Y0150065D01*
X0038190Y0150088D01*
X0038135Y0150115D01*
X0038083Y0150144D01*
X0038032Y0150177D01*
X0037983Y0150213D01*
X0037937Y0150251D01*
X0037893Y0150293D01*
X0037851Y0150337D01*
X0037813Y0150383D01*
X0037777Y0150432D01*
X0037744Y0150483D01*
X0037715Y0150535D01*
X0037688Y0150590D01*
X0037665Y0150645D01*
X0037645Y0150702D01*
X0037629Y0150761D01*
X0037616Y0150820D01*
X0037607Y0150879D01*
X0037602Y0150940D01*
X0037600Y0151000D01*
X0037600Y0161000D01*
X0037602Y0161060D01*
X0037607Y0161121D01*
X0037616Y0161180D01*
X0037629Y0161239D01*
X0037645Y0161298D01*
X0037665Y0161355D01*
X0037688Y0161410D01*
X0037715Y0161465D01*
X0037744Y0161517D01*
X0037777Y0161568D01*
X0037813Y0161617D01*
X0037851Y0161663D01*
X0037893Y0161707D01*
X0037937Y0161749D01*
X0037983Y0161787D01*
X0038032Y0161823D01*
X0038083Y0161856D01*
X0038135Y0161885D01*
X0038190Y0161912D01*
X0038245Y0161935D01*
X0038302Y0161955D01*
X0038361Y0161971D01*
X0038420Y0161984D01*
X0038479Y0161993D01*
X0038540Y0161998D01*
X0038600Y0162000D01*
X0044600Y0162000D01*
X0044660Y0161998D01*
X0044721Y0161993D01*
X0044780Y0161984D01*
X0044839Y0161971D01*
X0044898Y0161955D01*
X0044955Y0161935D01*
X0045010Y0161912D01*
X0045065Y0161885D01*
X0045117Y0161856D01*
X0045168Y0161823D01*
X0045217Y0161787D01*
X0045263Y0161749D01*
X0045307Y0161707D01*
X0045349Y0161663D01*
X0045387Y0161617D01*
X0045423Y0161568D01*
X0045456Y0161517D01*
X0045485Y0161465D01*
X0045512Y0161410D01*
X0045535Y0161355D01*
X0045555Y0161298D01*
X0045571Y0161239D01*
X0045584Y0161180D01*
X0045593Y0161121D01*
X0045598Y0161060D01*
X0045600Y0161000D01*
X0045600Y0151000D01*
X0045598Y0150940D01*
X0045593Y0150879D01*
X0045584Y0150820D01*
X0045571Y0150761D01*
X0045555Y0150702D01*
X0045535Y0150645D01*
X0045512Y0150590D01*
X0045485Y0150535D01*
X0045456Y0150483D01*
X0045423Y0150432D01*
X0045387Y0150383D01*
X0045349Y0150337D01*
X0045307Y0150293D01*
X0045263Y0150251D01*
X0045217Y0150213D01*
X0045168Y0150177D01*
X0045117Y0150144D01*
X0045065Y0150115D01*
X0045010Y0150088D01*
X0044955Y0150065D01*
X0044898Y0150045D01*
X0044839Y0150029D01*
X0044780Y0150016D01*
X0044721Y0150007D01*
X0044660Y0150002D01*
X0044600Y0150000D01*
X0041600Y0185000D02*
X0035600Y0185000D01*
X0035540Y0185002D01*
X0035479Y0185007D01*
X0035420Y0185016D01*
X0035361Y0185029D01*
X0035302Y0185045D01*
X0035245Y0185065D01*
X0035190Y0185088D01*
X0035135Y0185115D01*
X0035083Y0185144D01*
X0035032Y0185177D01*
X0034983Y0185213D01*
X0034937Y0185251D01*
X0034893Y0185293D01*
X0034851Y0185337D01*
X0034813Y0185383D01*
X0034777Y0185432D01*
X0034744Y0185483D01*
X0034715Y0185535D01*
X0034688Y0185590D01*
X0034665Y0185645D01*
X0034645Y0185702D01*
X0034629Y0185761D01*
X0034616Y0185820D01*
X0034607Y0185879D01*
X0034602Y0185940D01*
X0034600Y0186000D01*
X0034600Y0196000D01*
X0034602Y0196060D01*
X0034607Y0196121D01*
X0034616Y0196180D01*
X0034629Y0196239D01*
X0034645Y0196298D01*
X0034665Y0196355D01*
X0034688Y0196410D01*
X0034715Y0196465D01*
X0034744Y0196517D01*
X0034777Y0196568D01*
X0034813Y0196617D01*
X0034851Y0196663D01*
X0034893Y0196707D01*
X0034937Y0196749D01*
X0034983Y0196787D01*
X0035032Y0196823D01*
X0035083Y0196856D01*
X0035135Y0196885D01*
X0035190Y0196912D01*
X0035245Y0196935D01*
X0035302Y0196955D01*
X0035361Y0196971D01*
X0035420Y0196984D01*
X0035479Y0196993D01*
X0035540Y0196998D01*
X0035600Y0197000D01*
X0041600Y0197000D01*
X0041660Y0196998D01*
X0041721Y0196993D01*
X0041780Y0196984D01*
X0041839Y0196971D01*
X0041898Y0196955D01*
X0041955Y0196935D01*
X0042010Y0196912D01*
X0042065Y0196885D01*
X0042117Y0196856D01*
X0042168Y0196823D01*
X0042217Y0196787D01*
X0042263Y0196749D01*
X0042307Y0196707D01*
X0042349Y0196663D01*
X0042387Y0196617D01*
X0042423Y0196568D01*
X0042456Y0196517D01*
X0042485Y0196465D01*
X0042512Y0196410D01*
X0042535Y0196355D01*
X0042555Y0196298D01*
X0042571Y0196239D01*
X0042584Y0196180D01*
X0042593Y0196121D01*
X0042598Y0196060D01*
X0042600Y0196000D01*
X0042600Y0186000D01*
X0042598Y0185940D01*
X0042593Y0185879D01*
X0042584Y0185820D01*
X0042571Y0185761D01*
X0042555Y0185702D01*
X0042535Y0185645D01*
X0042512Y0185590D01*
X0042485Y0185535D01*
X0042456Y0185483D01*
X0042423Y0185432D01*
X0042387Y0185383D01*
X0042349Y0185337D01*
X0042307Y0185293D01*
X0042263Y0185251D01*
X0042217Y0185213D01*
X0042168Y0185177D01*
X0042117Y0185144D01*
X0042065Y0185115D01*
X0042010Y0185088D01*
X0041955Y0185065D01*
X0041898Y0185045D01*
X0041839Y0185029D01*
X0041780Y0185016D01*
X0041721Y0185007D01*
X0041660Y0185002D01*
X0041600Y0185000D01*
X0041600Y0205000D02*
X0035600Y0205000D01*
X0035540Y0205002D01*
X0035479Y0205007D01*
X0035420Y0205016D01*
X0035361Y0205029D01*
X0035302Y0205045D01*
X0035245Y0205065D01*
X0035190Y0205088D01*
X0035135Y0205115D01*
X0035083Y0205144D01*
X0035032Y0205177D01*
X0034983Y0205213D01*
X0034937Y0205251D01*
X0034893Y0205293D01*
X0034851Y0205337D01*
X0034813Y0205383D01*
X0034777Y0205432D01*
X0034744Y0205483D01*
X0034715Y0205535D01*
X0034688Y0205590D01*
X0034665Y0205645D01*
X0034645Y0205702D01*
X0034629Y0205761D01*
X0034616Y0205820D01*
X0034607Y0205879D01*
X0034602Y0205940D01*
X0034600Y0206000D01*
X0034600Y0216000D01*
X0034602Y0216060D01*
X0034607Y0216121D01*
X0034616Y0216180D01*
X0034629Y0216239D01*
X0034645Y0216298D01*
X0034665Y0216355D01*
X0034688Y0216410D01*
X0034715Y0216465D01*
X0034744Y0216517D01*
X0034777Y0216568D01*
X0034813Y0216617D01*
X0034851Y0216663D01*
X0034893Y0216707D01*
X0034937Y0216749D01*
X0034983Y0216787D01*
X0035032Y0216823D01*
X0035083Y0216856D01*
X0035135Y0216885D01*
X0035190Y0216912D01*
X0035245Y0216935D01*
X0035302Y0216955D01*
X0035361Y0216971D01*
X0035420Y0216984D01*
X0035479Y0216993D01*
X0035540Y0216998D01*
X0035600Y0217000D01*
X0041600Y0217000D01*
X0041660Y0216998D01*
X0041721Y0216993D01*
X0041780Y0216984D01*
X0041839Y0216971D01*
X0041898Y0216955D01*
X0041955Y0216935D01*
X0042010Y0216912D01*
X0042065Y0216885D01*
X0042117Y0216856D01*
X0042168Y0216823D01*
X0042217Y0216787D01*
X0042263Y0216749D01*
X0042307Y0216707D01*
X0042349Y0216663D01*
X0042387Y0216617D01*
X0042423Y0216568D01*
X0042456Y0216517D01*
X0042485Y0216465D01*
X0042512Y0216410D01*
X0042535Y0216355D01*
X0042555Y0216298D01*
X0042571Y0216239D01*
X0042584Y0216180D01*
X0042593Y0216121D01*
X0042598Y0216060D01*
X0042600Y0216000D01*
X0042600Y0206000D01*
X0042598Y0205940D01*
X0042593Y0205879D01*
X0042584Y0205820D01*
X0042571Y0205761D01*
X0042555Y0205702D01*
X0042535Y0205645D01*
X0042512Y0205590D01*
X0042485Y0205535D01*
X0042456Y0205483D01*
X0042423Y0205432D01*
X0042387Y0205383D01*
X0042349Y0205337D01*
X0042307Y0205293D01*
X0042263Y0205251D01*
X0042217Y0205213D01*
X0042168Y0205177D01*
X0042117Y0205144D01*
X0042065Y0205115D01*
X0042010Y0205088D01*
X0041955Y0205065D01*
X0041898Y0205045D01*
X0041839Y0205029D01*
X0041780Y0205016D01*
X0041721Y0205007D01*
X0041660Y0205002D01*
X0041600Y0205000D01*
D14*
X0108936Y0216809D02*
X0109670Y0216075D01*
X0109670Y0214974D01*
X0109670Y0216075D02*
X0110404Y0216809D01*
X0110404Y0217176D01*
X0111146Y0216442D02*
X0111880Y0217176D01*
X0111880Y0214974D01*
X0111146Y0214974D02*
X0112614Y0214974D01*
X0108936Y0216809D02*
X0108936Y0217176D01*
X0109291Y0226628D02*
X0110758Y0226628D01*
X0111500Y0226995D02*
X0111867Y0226628D01*
X0112601Y0226628D01*
X0112968Y0226995D01*
X0113710Y0226628D02*
X0115178Y0228829D01*
X0115920Y0227728D02*
X0117388Y0227728D01*
X0118130Y0226995D02*
X0118497Y0226995D01*
X0118497Y0226628D01*
X0118130Y0226628D01*
X0118130Y0226995D01*
X0119235Y0226995D02*
X0119602Y0226628D01*
X0120336Y0226628D01*
X0120703Y0226995D01*
X0120703Y0227362D01*
X0120336Y0227728D01*
X0119969Y0227728D01*
X0120336Y0227728D02*
X0120703Y0228095D01*
X0120703Y0228462D01*
X0120336Y0228829D01*
X0119602Y0228829D01*
X0119235Y0228462D01*
X0121445Y0228462D02*
X0121812Y0228829D01*
X0122546Y0228829D01*
X0122913Y0228462D01*
X0122913Y0228095D01*
X0121445Y0226628D01*
X0122913Y0226628D01*
X0123655Y0226628D02*
X0123655Y0226995D01*
X0125123Y0228462D01*
X0125123Y0228829D01*
X0123655Y0228829D01*
X0125865Y0227728D02*
X0127333Y0227728D01*
X0128075Y0227728D02*
X0129175Y0227728D01*
X0129542Y0227362D01*
X0129542Y0226995D01*
X0129175Y0226628D01*
X0128441Y0226628D01*
X0128075Y0226995D01*
X0128075Y0227728D01*
X0128808Y0228462D01*
X0129542Y0228829D01*
X0130284Y0227728D02*
X0131752Y0227728D01*
X0132494Y0226995D02*
X0132861Y0226628D01*
X0133595Y0226628D01*
X0133962Y0226995D01*
X0133962Y0227362D01*
X0133595Y0227728D01*
X0133228Y0227728D01*
X0133595Y0227728D02*
X0133962Y0228095D01*
X0133962Y0228462D01*
X0133595Y0228829D01*
X0132861Y0228829D01*
X0132494Y0228462D01*
X0134704Y0227728D02*
X0136172Y0227728D01*
X0136914Y0227362D02*
X0138015Y0227362D01*
X0138382Y0227728D01*
X0138382Y0228462D01*
X0138015Y0228829D01*
X0136914Y0228829D01*
X0136914Y0226628D01*
X0137648Y0227362D02*
X0138382Y0226628D01*
X0139124Y0226628D02*
X0139124Y0228829D01*
X0140225Y0228829D01*
X0140592Y0228462D01*
X0140592Y0227728D01*
X0140225Y0227362D01*
X0139124Y0227362D01*
X0139858Y0227362D02*
X0140592Y0226628D01*
X0135805Y0226628D02*
X0135805Y0228829D01*
X0134704Y0227728D01*
X0115178Y0226628D02*
X0113710Y0228829D01*
X0112968Y0228462D02*
X0112601Y0228829D01*
X0111867Y0228829D01*
X0111500Y0228462D01*
X0111500Y0226995D01*
X0110025Y0227728D02*
X0109291Y0227728D01*
X0109291Y0226628D02*
X0109291Y0228829D01*
X0110758Y0228829D01*
X0100687Y0096000D02*
X0084513Y0096000D01*
X0084513Y0078000D01*
X0100687Y0078000D01*
X0100687Y0096000D01*
D15*
X0093141Y0098600D02*
X0090739Y0098600D01*
X0091940Y0098600D02*
X0091940Y0102203D01*
X0090739Y0101002D01*
X0089457Y0101603D02*
X0088857Y0102203D01*
X0087656Y0102203D01*
X0087055Y0101603D01*
X0087055Y0099201D01*
X0087656Y0098600D01*
X0088857Y0098600D01*
X0089457Y0099201D01*
X0085801Y0098600D02*
X0084600Y0098600D01*
X0085201Y0098600D02*
X0085201Y0102203D01*
X0085801Y0102203D02*
X0084600Y0102203D01*
X0082900Y0060165D02*
X0082900Y0057096D01*
X0079831Y0060165D01*
X0079063Y0060165D01*
X0078296Y0059398D01*
X0078296Y0057863D01*
X0079063Y0057096D01*
X0079063Y0055561D02*
X0078296Y0054794D01*
X0078296Y0052492D01*
X0082900Y0052492D01*
X0082900Y0054794D01*
X0082133Y0055561D01*
X0079063Y0055561D01*
X0060900Y0054794D02*
X0060900Y0052492D01*
X0056296Y0052492D01*
X0056296Y0054794D01*
X0057063Y0055561D01*
X0060133Y0055561D01*
X0060900Y0054794D01*
X0060900Y0057096D02*
X0060900Y0060165D01*
X0060900Y0058631D02*
X0056296Y0058631D01*
X0057831Y0057096D01*
X0100296Y0057863D02*
X0100296Y0059398D01*
X0101063Y0060165D01*
X0101831Y0060165D01*
X0102598Y0059398D01*
X0103365Y0060165D01*
X0104133Y0060165D01*
X0104900Y0059398D01*
X0104900Y0057863D01*
X0104133Y0057096D01*
X0104133Y0055561D02*
X0101063Y0055561D01*
X0100296Y0054794D01*
X0100296Y0052492D01*
X0104900Y0052492D01*
X0104900Y0054794D01*
X0104133Y0055561D01*
X0101063Y0057096D02*
X0100296Y0057863D01*
X0102598Y0058631D02*
X0102598Y0059398D01*
X0122296Y0059398D02*
X0124598Y0057096D01*
X0124598Y0060165D01*
X0126900Y0059398D02*
X0122296Y0059398D01*
X0123063Y0055561D02*
X0122296Y0054794D01*
X0122296Y0052492D01*
X0126900Y0052492D01*
X0126900Y0054794D01*
X0126133Y0055561D01*
X0123063Y0055561D01*
X0144296Y0054794D02*
X0144296Y0052492D01*
X0148900Y0052492D01*
X0148900Y0054794D01*
X0148133Y0055561D01*
X0145063Y0055561D01*
X0144296Y0054794D01*
X0144296Y0057096D02*
X0146598Y0057096D01*
X0145831Y0058631D01*
X0145831Y0059398D01*
X0146598Y0060165D01*
X0148133Y0060165D01*
X0148900Y0059398D01*
X0148900Y0057863D01*
X0148133Y0057096D01*
X0144296Y0057096D02*
X0144296Y0060165D01*
X0169296Y0060165D02*
X0170063Y0058631D01*
X0171598Y0057096D01*
X0171598Y0059398D01*
X0172365Y0060165D01*
X0173133Y0060165D01*
X0173900Y0059398D01*
X0173900Y0057863D01*
X0173133Y0057096D01*
X0171598Y0057096D01*
X0170063Y0055561D02*
X0169296Y0054794D01*
X0169296Y0052492D01*
X0173900Y0052492D01*
X0173900Y0054794D01*
X0173133Y0055561D01*
X0170063Y0055561D01*
X0156275Y0084700D02*
X0154741Y0084700D01*
X0153973Y0085467D01*
X0153973Y0086235D01*
X0154741Y0087002D01*
X0156275Y0087002D01*
X0157042Y0086235D01*
X0157042Y0085467D01*
X0156275Y0084700D01*
X0156275Y0087002D02*
X0157042Y0087769D01*
X0157042Y0088537D01*
X0156275Y0089304D01*
X0154741Y0089304D01*
X0153973Y0088537D01*
X0153973Y0087769D01*
X0154741Y0087002D01*
X0152439Y0088537D02*
X0151671Y0089304D01*
X0150137Y0089304D01*
X0149369Y0088537D01*
X0149369Y0085467D01*
X0150137Y0084700D01*
X0151671Y0084700D01*
X0152439Y0085467D01*
X0147835Y0084700D02*
X0146300Y0084700D01*
X0147067Y0084700D02*
X0147067Y0089304D01*
X0146300Y0089304D02*
X0147835Y0089304D01*
X0154237Y0132846D02*
X0154237Y0134381D01*
X0154237Y0133613D02*
X0158841Y0133613D01*
X0158841Y0132846D02*
X0158841Y0134381D01*
X0158074Y0135915D02*
X0158841Y0136683D01*
X0158841Y0138217D01*
X0158074Y0138985D01*
X0158074Y0140519D02*
X0158841Y0141287D01*
X0158841Y0142821D01*
X0158074Y0143589D01*
X0157306Y0143589D01*
X0156539Y0142821D01*
X0156539Y0142054D01*
X0156539Y0142821D02*
X0155772Y0143589D01*
X0155004Y0143589D01*
X0154237Y0142821D01*
X0154237Y0141287D01*
X0155004Y0140519D01*
X0155004Y0138985D02*
X0154237Y0138217D01*
X0154237Y0136683D01*
X0155004Y0135915D01*
X0158074Y0135915D01*
D16*
X0105100Y0119025D03*
D17*
X0096944Y0120347D02*
X0096975Y0120625D01*
X0096944Y0120903D01*
X0096851Y0121167D01*
X0096702Y0121404D01*
X0096504Y0121602D01*
X0096267Y0121751D01*
X0096003Y0121844D01*
X0095725Y0121875D01*
X0095447Y0121844D01*
X0095183Y0121751D01*
X0094946Y0121602D01*
X0094748Y0121404D01*
X0094599Y0121167D01*
X0094506Y0120903D01*
X0094475Y0120625D01*
X0094506Y0120347D01*
X0094599Y0120083D01*
X0094748Y0119846D01*
X0094946Y0119648D01*
X0095183Y0119499D01*
X0095447Y0119406D01*
X0095725Y0119375D01*
X0096003Y0119406D01*
X0096267Y0119499D01*
X0096504Y0119648D01*
X0096702Y0119846D01*
X0096851Y0120083D01*
X0096944Y0120347D01*
X0096943Y0120345D02*
X0094507Y0120345D01*
X0094510Y0120337D02*
X0096940Y0120337D01*
X0096937Y0120328D02*
X0094513Y0120328D01*
X0094516Y0120320D02*
X0096934Y0120320D01*
X0096931Y0120311D02*
X0094519Y0120311D01*
X0094522Y0120303D02*
X0096928Y0120303D01*
X0096925Y0120294D02*
X0094525Y0120294D01*
X0094528Y0120286D02*
X0096922Y0120286D01*
X0096919Y0120277D02*
X0094531Y0120277D01*
X0094534Y0120269D02*
X0096916Y0120269D01*
X0096913Y0120260D02*
X0094537Y0120260D01*
X0094540Y0120252D02*
X0096910Y0120252D01*
X0096907Y0120243D02*
X0094543Y0120243D01*
X0094546Y0120235D02*
X0096904Y0120235D01*
X0096901Y0120226D02*
X0094549Y0120226D01*
X0094552Y0120218D02*
X0096898Y0120218D01*
X0096895Y0120209D02*
X0094555Y0120209D01*
X0094557Y0120201D02*
X0096893Y0120201D01*
X0096890Y0120192D02*
X0094560Y0120192D01*
X0094563Y0120184D02*
X0096887Y0120184D01*
X0096884Y0120175D02*
X0094566Y0120175D01*
X0094569Y0120167D02*
X0096881Y0120167D01*
X0096878Y0120158D02*
X0094572Y0120158D01*
X0094575Y0120150D02*
X0096875Y0120150D01*
X0096872Y0120141D02*
X0094578Y0120141D01*
X0094581Y0120133D02*
X0096869Y0120133D01*
X0096866Y0120124D02*
X0094584Y0120124D01*
X0094587Y0120116D02*
X0096863Y0120116D01*
X0096860Y0120107D02*
X0094590Y0120107D01*
X0094593Y0120099D02*
X0096857Y0120099D01*
X0096854Y0120090D02*
X0094596Y0120090D01*
X0094600Y0120081D02*
X0096850Y0120081D01*
X0096845Y0120073D02*
X0094605Y0120073D01*
X0094610Y0120064D02*
X0096840Y0120064D01*
X0096834Y0120056D02*
X0094616Y0120056D01*
X0094621Y0120047D02*
X0096829Y0120047D01*
X0096824Y0120039D02*
X0094626Y0120039D01*
X0094632Y0120030D02*
X0096818Y0120030D01*
X0096813Y0120022D02*
X0094637Y0120022D01*
X0094642Y0120013D02*
X0096808Y0120013D01*
X0096802Y0120005D02*
X0094648Y0120005D01*
X0094653Y0119996D02*
X0096797Y0119996D01*
X0096792Y0119988D02*
X0094658Y0119988D01*
X0094664Y0119979D02*
X0096786Y0119979D01*
X0096781Y0119971D02*
X0094669Y0119971D01*
X0094674Y0119962D02*
X0096776Y0119962D01*
X0096770Y0119954D02*
X0094680Y0119954D01*
X0094685Y0119945D02*
X0096765Y0119945D01*
X0096760Y0119937D02*
X0094690Y0119937D01*
X0094696Y0119928D02*
X0096754Y0119928D01*
X0096749Y0119920D02*
X0094701Y0119920D01*
X0094706Y0119911D02*
X0096743Y0119911D01*
X0096738Y0119903D02*
X0094712Y0119903D01*
X0094717Y0119894D02*
X0096733Y0119894D01*
X0096727Y0119886D02*
X0094723Y0119886D01*
X0094728Y0119877D02*
X0096722Y0119877D01*
X0096717Y0119869D02*
X0094733Y0119869D01*
X0094739Y0119860D02*
X0096711Y0119860D01*
X0096706Y0119852D02*
X0094744Y0119852D01*
X0094750Y0119843D02*
X0096700Y0119843D01*
X0096691Y0119835D02*
X0094759Y0119835D01*
X0094767Y0119826D02*
X0096683Y0119826D01*
X0096674Y0119818D02*
X0094776Y0119818D01*
X0094784Y0119809D02*
X0096666Y0119809D01*
X0096657Y0119801D02*
X0094793Y0119801D01*
X0094801Y0119792D02*
X0096649Y0119792D01*
X0096640Y0119784D02*
X0094810Y0119784D01*
X0094818Y0119775D02*
X0096632Y0119775D01*
X0096623Y0119766D02*
X0094827Y0119766D01*
X0094835Y0119758D02*
X0096615Y0119758D01*
X0096606Y0119749D02*
X0094844Y0119749D01*
X0094852Y0119741D02*
X0096598Y0119741D01*
X0096589Y0119732D02*
X0094861Y0119732D01*
X0094869Y0119724D02*
X0096581Y0119724D01*
X0096572Y0119715D02*
X0094878Y0119715D01*
X0094886Y0119707D02*
X0096564Y0119707D01*
X0096555Y0119698D02*
X0094895Y0119698D01*
X0094903Y0119690D02*
X0096547Y0119690D01*
X0096538Y0119681D02*
X0094912Y0119681D01*
X0094921Y0119673D02*
X0096529Y0119673D01*
X0096521Y0119664D02*
X0094929Y0119664D01*
X0094938Y0119656D02*
X0096512Y0119656D01*
X0096504Y0119647D02*
X0094946Y0119647D01*
X0094960Y0119639D02*
X0096490Y0119639D01*
X0096477Y0119630D02*
X0094973Y0119630D01*
X0094987Y0119622D02*
X0096463Y0119622D01*
X0096449Y0119613D02*
X0095000Y0119613D01*
X0095014Y0119605D02*
X0096436Y0119605D01*
X0096422Y0119596D02*
X0095028Y0119596D01*
X0095041Y0119588D02*
X0096409Y0119588D01*
X0096395Y0119579D02*
X0095055Y0119579D01*
X0095068Y0119571D02*
X0096382Y0119571D01*
X0096368Y0119562D02*
X0095082Y0119562D01*
X0095095Y0119554D02*
X0096355Y0119554D01*
X0096341Y0119545D02*
X0095109Y0119545D01*
X0095122Y0119537D02*
X0096328Y0119537D01*
X0096314Y0119528D02*
X0095136Y0119528D01*
X0095150Y0119520D02*
X0096300Y0119520D01*
X0096287Y0119511D02*
X0095163Y0119511D01*
X0095177Y0119503D02*
X0096273Y0119503D01*
X0096254Y0119494D02*
X0095196Y0119494D01*
X0095221Y0119486D02*
X0096229Y0119486D01*
X0096205Y0119477D02*
X0095245Y0119477D01*
X0095269Y0119469D02*
X0096181Y0119469D01*
X0096156Y0119460D02*
X0095294Y0119460D01*
X0095318Y0119451D02*
X0096132Y0119451D01*
X0096108Y0119443D02*
X0095342Y0119443D01*
X0095367Y0119434D02*
X0096083Y0119434D01*
X0096059Y0119426D02*
X0095391Y0119426D01*
X0095415Y0119417D02*
X0096035Y0119417D01*
X0096010Y0119409D02*
X0095439Y0119409D01*
X0095500Y0119400D02*
X0095950Y0119400D01*
X0095875Y0119392D02*
X0095575Y0119392D01*
X0095651Y0119383D02*
X0095799Y0119383D01*
X0096944Y0120354D02*
X0094506Y0120354D01*
X0094505Y0120362D02*
X0096945Y0120362D01*
X0096946Y0120371D02*
X0094504Y0120371D01*
X0094503Y0120379D02*
X0096947Y0120379D01*
X0096948Y0120388D02*
X0094502Y0120388D01*
X0094501Y0120397D02*
X0096949Y0120397D01*
X0096950Y0120405D02*
X0094500Y0120405D01*
X0094499Y0120414D02*
X0096951Y0120414D01*
X0096952Y0120422D02*
X0094498Y0120422D01*
X0094497Y0120431D02*
X0096953Y0120431D01*
X0096954Y0120439D02*
X0094496Y0120439D01*
X0094495Y0120448D02*
X0096955Y0120448D01*
X0096956Y0120456D02*
X0094494Y0120456D01*
X0094493Y0120465D02*
X0096957Y0120465D01*
X0096958Y0120473D02*
X0094492Y0120473D01*
X0094491Y0120482D02*
X0096959Y0120482D01*
X0096960Y0120490D02*
X0094490Y0120490D01*
X0094489Y0120499D02*
X0096961Y0120499D01*
X0096962Y0120507D02*
X0094488Y0120507D01*
X0094487Y0120516D02*
X0096963Y0120516D01*
X0096964Y0120524D02*
X0094486Y0120524D01*
X0094485Y0120533D02*
X0096965Y0120533D01*
X0096966Y0120541D02*
X0094484Y0120541D01*
X0094483Y0120550D02*
X0096967Y0120550D01*
X0096967Y0120558D02*
X0094483Y0120558D01*
X0094482Y0120567D02*
X0096968Y0120567D01*
X0096969Y0120575D02*
X0094481Y0120575D01*
X0094480Y0120584D02*
X0096970Y0120584D01*
X0096971Y0120592D02*
X0094479Y0120592D01*
X0094478Y0120601D02*
X0096972Y0120601D01*
X0096973Y0120609D02*
X0094477Y0120609D01*
X0094476Y0120618D02*
X0096974Y0120618D01*
X0096975Y0120626D02*
X0094475Y0120626D01*
X0094476Y0120635D02*
X0096974Y0120635D01*
X0096973Y0120643D02*
X0094477Y0120643D01*
X0094478Y0120652D02*
X0096972Y0120652D01*
X0096971Y0120660D02*
X0094479Y0120660D01*
X0094480Y0120669D02*
X0096970Y0120669D01*
X0096969Y0120677D02*
X0094481Y0120677D01*
X0094482Y0120686D02*
X0096968Y0120686D01*
X0096967Y0120694D02*
X0094483Y0120694D01*
X0094484Y0120703D02*
X0096966Y0120703D01*
X0096965Y0120712D02*
X0094485Y0120712D01*
X0094486Y0120720D02*
X0096964Y0120720D01*
X0096963Y0120729D02*
X0094487Y0120729D01*
X0094488Y0120737D02*
X0096962Y0120737D01*
X0096961Y0120746D02*
X0094489Y0120746D01*
X0094490Y0120754D02*
X0096960Y0120754D01*
X0096960Y0120763D02*
X0094491Y0120763D01*
X0094491Y0120771D02*
X0096959Y0120771D01*
X0096958Y0120780D02*
X0094492Y0120780D01*
X0094493Y0120788D02*
X0096957Y0120788D01*
X0096956Y0120797D02*
X0094494Y0120797D01*
X0094495Y0120805D02*
X0096955Y0120805D01*
X0096954Y0120814D02*
X0094496Y0120814D01*
X0094497Y0120822D02*
X0096953Y0120822D01*
X0096952Y0120831D02*
X0094498Y0120831D01*
X0094499Y0120839D02*
X0096951Y0120839D01*
X0096950Y0120848D02*
X0094500Y0120848D01*
X0094501Y0120856D02*
X0096949Y0120856D01*
X0096948Y0120865D02*
X0094502Y0120865D01*
X0094503Y0120873D02*
X0096947Y0120873D01*
X0096946Y0120882D02*
X0094504Y0120882D01*
X0094505Y0120890D02*
X0096945Y0120890D01*
X0096944Y0120899D02*
X0094506Y0120899D01*
X0094508Y0120907D02*
X0096942Y0120907D01*
X0096939Y0120916D02*
X0094511Y0120916D01*
X0094514Y0120924D02*
X0096936Y0120924D01*
X0096933Y0120933D02*
X0094517Y0120933D01*
X0094520Y0120941D02*
X0096930Y0120941D01*
X0096927Y0120950D02*
X0094523Y0120950D01*
X0094526Y0120958D02*
X0096924Y0120958D01*
X0096921Y0120967D02*
X0094529Y0120967D01*
X0094532Y0120975D02*
X0096918Y0120975D01*
X0096915Y0120984D02*
X0094535Y0120984D01*
X0094538Y0120992D02*
X0096912Y0120992D01*
X0096909Y0121001D02*
X0094541Y0121001D01*
X0094544Y0121009D02*
X0096906Y0121009D01*
X0096903Y0121018D02*
X0094547Y0121018D01*
X0094550Y0121027D02*
X0096900Y0121027D01*
X0096898Y0121035D02*
X0094552Y0121035D01*
X0094555Y0121044D02*
X0096895Y0121044D01*
X0096892Y0121052D02*
X0094558Y0121052D01*
X0094561Y0121061D02*
X0096889Y0121061D01*
X0096886Y0121069D02*
X0094564Y0121069D01*
X0094567Y0121078D02*
X0096883Y0121078D01*
X0096880Y0121086D02*
X0094570Y0121086D01*
X0094573Y0121095D02*
X0096877Y0121095D01*
X0096874Y0121103D02*
X0094576Y0121103D01*
X0094579Y0121112D02*
X0096871Y0121112D01*
X0096868Y0121120D02*
X0094582Y0121120D01*
X0094585Y0121129D02*
X0096865Y0121129D01*
X0096862Y0121137D02*
X0094588Y0121137D01*
X0094591Y0121146D02*
X0096859Y0121146D01*
X0096856Y0121154D02*
X0094594Y0121154D01*
X0094597Y0121163D02*
X0096853Y0121163D01*
X0096849Y0121171D02*
X0094601Y0121171D01*
X0094607Y0121180D02*
X0096843Y0121180D01*
X0096838Y0121188D02*
X0094612Y0121188D01*
X0094617Y0121197D02*
X0096833Y0121197D01*
X0096827Y0121205D02*
X0094623Y0121205D01*
X0094628Y0121214D02*
X0096822Y0121214D01*
X0096817Y0121222D02*
X0094633Y0121222D01*
X0094639Y0121231D02*
X0096811Y0121231D01*
X0096806Y0121239D02*
X0094644Y0121239D01*
X0094649Y0121248D02*
X0096801Y0121248D01*
X0096795Y0121256D02*
X0094655Y0121256D01*
X0094660Y0121265D02*
X0096790Y0121265D01*
X0096785Y0121273D02*
X0094665Y0121273D01*
X0094671Y0121282D02*
X0096779Y0121282D01*
X0096774Y0121290D02*
X0094676Y0121290D01*
X0094681Y0121299D02*
X0096769Y0121299D01*
X0096763Y0121307D02*
X0094687Y0121307D01*
X0094692Y0121316D02*
X0096758Y0121316D01*
X0096752Y0121325D02*
X0094698Y0121325D01*
X0094703Y0121333D02*
X0096747Y0121333D01*
X0096742Y0121342D02*
X0094708Y0121342D01*
X0094714Y0121350D02*
X0096736Y0121350D01*
X0096731Y0121359D02*
X0094719Y0121359D01*
X0094724Y0121367D02*
X0096726Y0121367D01*
X0096720Y0121376D02*
X0094730Y0121376D01*
X0094735Y0121384D02*
X0096715Y0121384D01*
X0096710Y0121393D02*
X0094740Y0121393D01*
X0094746Y0121401D02*
X0096704Y0121401D01*
X0096697Y0121410D02*
X0094753Y0121410D01*
X0094762Y0121418D02*
X0096688Y0121418D01*
X0096680Y0121427D02*
X0094770Y0121427D01*
X0094779Y0121435D02*
X0096671Y0121435D01*
X0096663Y0121444D02*
X0094787Y0121444D01*
X0094796Y0121452D02*
X0096654Y0121452D01*
X0096646Y0121461D02*
X0094804Y0121461D01*
X0094813Y0121469D02*
X0096637Y0121469D01*
X0096629Y0121478D02*
X0094821Y0121478D01*
X0094830Y0121486D02*
X0096620Y0121486D01*
X0096612Y0121495D02*
X0094838Y0121495D01*
X0094847Y0121503D02*
X0096603Y0121503D01*
X0096595Y0121512D02*
X0094855Y0121512D01*
X0094864Y0121520D02*
X0096586Y0121520D01*
X0096578Y0121529D02*
X0094872Y0121529D01*
X0094881Y0121537D02*
X0096569Y0121537D01*
X0096561Y0121546D02*
X0094889Y0121546D01*
X0094898Y0121554D02*
X0096552Y0121554D01*
X0096544Y0121563D02*
X0094906Y0121563D01*
X0094915Y0121571D02*
X0096535Y0121571D01*
X0096527Y0121580D02*
X0094923Y0121580D01*
X0094932Y0121588D02*
X0096518Y0121588D01*
X0096510Y0121597D02*
X0094940Y0121597D01*
X0094951Y0121605D02*
X0096499Y0121605D01*
X0096486Y0121614D02*
X0094964Y0121614D01*
X0094978Y0121622D02*
X0096472Y0121622D01*
X0096459Y0121631D02*
X0094991Y0121631D01*
X0095005Y0121640D02*
X0096445Y0121640D01*
X0096432Y0121648D02*
X0095018Y0121648D01*
X0095032Y0121657D02*
X0096418Y0121657D01*
X0096404Y0121665D02*
X0095046Y0121665D01*
X0095059Y0121674D02*
X0096391Y0121674D01*
X0096377Y0121682D02*
X0095073Y0121682D01*
X0095086Y0121691D02*
X0096364Y0121691D01*
X0096350Y0121699D02*
X0095100Y0121699D01*
X0095113Y0121708D02*
X0096337Y0121708D01*
X0096323Y0121716D02*
X0095127Y0121716D01*
X0095140Y0121725D02*
X0096310Y0121725D01*
X0096296Y0121733D02*
X0095154Y0121733D01*
X0095167Y0121742D02*
X0096283Y0121742D01*
X0096269Y0121750D02*
X0095181Y0121750D01*
X0095204Y0121759D02*
X0096246Y0121759D01*
X0096222Y0121767D02*
X0095228Y0121767D01*
X0095253Y0121776D02*
X0096197Y0121776D01*
X0096173Y0121784D02*
X0095277Y0121784D01*
X0095301Y0121793D02*
X0096149Y0121793D01*
X0096124Y0121801D02*
X0095326Y0121801D01*
X0095350Y0121810D02*
X0096100Y0121810D01*
X0096076Y0121818D02*
X0095374Y0121818D01*
X0095399Y0121827D02*
X0096051Y0121827D01*
X0096027Y0121835D02*
X0095423Y0121835D01*
X0095448Y0121844D02*
X0096002Y0121844D01*
X0095926Y0121852D02*
X0095524Y0121852D01*
X0095600Y0121861D02*
X0095850Y0121861D01*
X0095775Y0121869D02*
X0095675Y0121869D01*
D18*
X0119931Y0207331D03*
M02*
