G75*
%MOIN*%
%OFA0B0*%
%FSLAX25Y25*%
%IPPOS*%
%LPD*%
%AMOC8*
5,1,8,0,0,1.08239X$1,22.5*
%
%ADD10C,0.11127*%
%ADD11C,0.07700*%
%ADD12R,0.04631X0.04237*%
%ADD13R,0.06300X0.07300*%
%ADD14R,0.04237X0.04631*%
%ADD15R,0.08174X0.06599*%
%ADD16R,0.02662X0.08961*%
%ADD17C,0.16048*%
%ADD18R,0.05300X0.02800*%
%ADD19C,0.07700*%
%ADD20C,0.13300*%
%ADD21R,0.04237X0.05812*%
%ADD22OC8,0.06300*%
%ADD23C,0.03253*%
%ADD24C,0.03843*%
D10*
X0017907Y0016780D03*
X0210820Y0016780D03*
X0210820Y0245126D03*
X0017907Y0245126D03*
D11*
X0039600Y0250000D03*
X0049600Y0250000D03*
X0059600Y0250000D03*
X0080600Y0250000D03*
X0090600Y0250000D03*
X0100600Y0250000D03*
X0023813Y0226465D03*
X0013813Y0226465D03*
X0013813Y0216465D03*
X0023813Y0216465D03*
X0023813Y0206465D03*
X0013813Y0206465D03*
X0013813Y0196465D03*
X0023813Y0196465D03*
X0023813Y0186465D03*
X0013813Y0186465D03*
X0013813Y0176465D03*
X0023813Y0176465D03*
X0023813Y0166465D03*
X0013813Y0166465D03*
X0013813Y0156465D03*
X0023813Y0156465D03*
X0023813Y0146465D03*
X0013813Y0146465D03*
X0013813Y0136465D03*
X0023813Y0136465D03*
X0023813Y0126465D03*
X0013813Y0126465D03*
X0013813Y0116465D03*
X0023813Y0116465D03*
X0023813Y0106465D03*
X0013813Y0106465D03*
X0013813Y0096465D03*
X0023813Y0096465D03*
X0023813Y0086465D03*
X0013813Y0086465D03*
X0013813Y0076465D03*
X0023813Y0076465D03*
X0023813Y0066465D03*
X0013813Y0066465D03*
X0013813Y0056465D03*
X0023813Y0056465D03*
X0023813Y0046465D03*
X0013813Y0046465D03*
X0013813Y0036465D03*
X0023813Y0036465D03*
X0046600Y0011000D03*
X0056600Y0011000D03*
X0068600Y0011000D03*
X0078600Y0011000D03*
X0090600Y0011000D03*
X0100600Y0011000D03*
X0112600Y0011000D03*
X0122600Y0011000D03*
X0134600Y0011000D03*
X0144600Y0011000D03*
X0154600Y0011000D03*
X0166600Y0011000D03*
X0176600Y0011000D03*
X0186600Y0011000D03*
X0267600Y0238000D03*
X0281600Y0238000D03*
X0281600Y0248000D03*
X0267600Y0248000D03*
X0267600Y0258000D03*
X0281600Y0258000D03*
D12*
X0282946Y0224000D03*
X0276254Y0224000D03*
X0276254Y0213000D03*
X0282946Y0213000D03*
X0282946Y0207000D03*
X0276254Y0207000D03*
X0276254Y0192000D03*
X0282946Y0192000D03*
X0282946Y0186000D03*
X0276254Y0186000D03*
X0276254Y0172000D03*
X0282946Y0172000D03*
X0282946Y0166000D03*
X0276254Y0166000D03*
X0276254Y0154000D03*
X0282946Y0154000D03*
X0283946Y0126000D03*
X0277254Y0126000D03*
X0268946Y0097000D03*
X0262254Y0097000D03*
X0262254Y0090000D03*
X0268946Y0090000D03*
X0275254Y0067000D03*
X0281946Y0067000D03*
X0326254Y0078000D03*
X0332946Y0078000D03*
X0332946Y0084000D03*
X0326254Y0084000D03*
X0340254Y0084000D03*
X0346946Y0084000D03*
X0343946Y0129000D03*
X0337254Y0129000D03*
X0329946Y0129000D03*
X0323254Y0129000D03*
X0323254Y0139000D03*
X0329946Y0139000D03*
X0228946Y0097000D03*
X0222254Y0097000D03*
X0222254Y0090000D03*
X0228946Y0090000D03*
X0211946Y0075000D03*
X0205254Y0075000D03*
X0206946Y0115000D03*
X0200254Y0115000D03*
X0094946Y0093000D03*
X0088254Y0093000D03*
X0088254Y0081000D03*
X0094946Y0081000D03*
D13*
X0228850Y0155000D03*
X0228850Y0165000D03*
X0228850Y0175000D03*
X0228850Y0185000D03*
X0228850Y0195000D03*
X0228850Y0205000D03*
X0228850Y0215000D03*
X0228850Y0225000D03*
X0266350Y0225000D03*
X0266350Y0215000D03*
X0266350Y0205000D03*
X0266350Y0195000D03*
X0266350Y0185000D03*
X0266350Y0175000D03*
X0266350Y0165000D03*
X0266350Y0155000D03*
D14*
X0218600Y0156654D03*
X0218600Y0163346D03*
X0218600Y0174654D03*
X0218600Y0181346D03*
X0218600Y0196654D03*
X0218600Y0203346D03*
X0218600Y0215654D03*
X0218600Y0222346D03*
X0284600Y0085346D03*
X0291600Y0085346D03*
X0291600Y0078654D03*
X0284600Y0078654D03*
X0281600Y0047346D03*
X0274600Y0047346D03*
X0274600Y0040654D03*
X0281600Y0040654D03*
D15*
X0265380Y0047000D03*
X0265380Y0057000D03*
X0265380Y0067000D03*
X0265380Y0077000D03*
X0227820Y0077000D03*
X0227820Y0067000D03*
X0227820Y0057000D03*
X0227820Y0047000D03*
X0228820Y0106000D03*
X0228820Y0116000D03*
X0228820Y0126000D03*
X0228820Y0136000D03*
X0266380Y0136000D03*
X0266380Y0126000D03*
X0266380Y0116000D03*
X0266380Y0106000D03*
D16*
X0299100Y0100236D03*
X0304100Y0100236D03*
X0309100Y0100236D03*
X0314100Y0100236D03*
X0314100Y0079764D03*
X0309100Y0079764D03*
X0304100Y0079764D03*
X0299100Y0079764D03*
X0211100Y0084764D03*
X0206100Y0084764D03*
X0201100Y0084764D03*
X0196100Y0084764D03*
X0196100Y0105236D03*
X0201100Y0105236D03*
X0206100Y0105236D03*
X0211100Y0105236D03*
D17*
X0334506Y0162315D03*
X0348915Y0147906D03*
X0368600Y0142630D03*
X0388285Y0147906D03*
X0402694Y0162315D03*
X0407970Y0182000D03*
X0402694Y0201685D03*
X0388285Y0216094D03*
X0368600Y0221370D03*
X0348915Y0216094D03*
X0334506Y0201685D03*
X0329230Y0182000D03*
X0366510Y0109462D03*
X0379609Y0093850D03*
X0383147Y0073781D03*
X0376178Y0054630D03*
X0360566Y0041531D03*
X0340497Y0037992D03*
D18*
X0353600Y0080800D03*
X0353600Y0084000D03*
X0353600Y0087200D03*
X0354600Y0122800D03*
X0354600Y0126000D03*
X0354600Y0129200D03*
X0294600Y0156800D03*
X0294600Y0160000D03*
X0294600Y0163200D03*
X0294600Y0175800D03*
X0294600Y0179000D03*
X0294600Y0182200D03*
X0294600Y0195800D03*
X0294600Y0199000D03*
X0294600Y0202200D03*
X0294600Y0215800D03*
X0294600Y0219000D03*
X0294600Y0222200D03*
D19*
X0305200Y0148000D02*
X0312600Y0148000D01*
D20*
X0313600Y0034000D03*
X0293600Y0034000D03*
D21*
X0319860Y0093669D03*
X0327340Y0093669D03*
X0323600Y0102331D03*
X0319860Y0109669D03*
X0327340Y0109669D03*
X0323600Y0118331D03*
D22*
X0343600Y0251000D03*
X0413600Y0251000D03*
D23*
X0316600Y0249000D03*
X0311600Y0249000D03*
X0306600Y0249000D03*
X0306600Y0244000D03*
X0306600Y0239000D03*
X0311600Y0239000D03*
X0311600Y0244000D03*
X0316600Y0244000D03*
X0316600Y0239000D03*
X0316600Y0254000D03*
X0311600Y0254000D03*
X0306600Y0254000D03*
X0306600Y0259000D03*
X0311600Y0259000D03*
X0316600Y0259000D03*
X0300600Y0209000D03*
X0295600Y0209000D03*
X0290600Y0209000D03*
X0290600Y0189000D03*
X0289600Y0169000D03*
X0294600Y0169000D03*
X0299600Y0169000D03*
X0283600Y0148000D03*
X0287600Y0132000D03*
X0315600Y0131000D03*
X0315600Y0135000D03*
X0312600Y0113000D03*
X0305600Y0113000D03*
X0292600Y0114000D03*
X0292600Y0110000D03*
X0273600Y0111000D03*
X0293600Y0091000D03*
X0292600Y0072000D03*
X0297600Y0072000D03*
X0302600Y0072000D03*
X0293600Y0054000D03*
X0218600Y0052000D03*
X0190600Y0066000D03*
X0184600Y0066000D03*
X0178600Y0066000D03*
X0166600Y0062000D03*
X0162600Y0062000D03*
X0146600Y0062000D03*
X0142600Y0060000D03*
X0138600Y0062000D03*
X0129600Y0044000D03*
X0149600Y0044000D03*
X0181254Y0044346D03*
X0190600Y0072000D03*
X0164600Y0089000D03*
X0144100Y0088600D03*
X0144100Y0094600D03*
X0135600Y0111000D03*
X0129600Y0111000D03*
X0104600Y0107000D03*
X0104600Y0101000D03*
X0098600Y0101000D03*
X0087600Y0087000D03*
X0115600Y0073000D03*
X0115600Y0069000D03*
X0115600Y0065000D03*
X0081600Y0066000D03*
X0081600Y0062000D03*
X0081600Y0058000D03*
X0062600Y0067000D03*
X0058600Y0067000D03*
X0059600Y0058000D03*
X0062600Y0043000D03*
X0064600Y0029000D03*
X0085600Y0043000D03*
X0107600Y0043000D03*
X0039600Y0043000D03*
X0042600Y0023000D03*
X0182600Y0122000D03*
X0186600Y0122000D03*
X0190600Y0122000D03*
X0218600Y0130000D03*
X0193600Y0143000D03*
X0181600Y0140000D03*
X0201100Y0157600D03*
X0205100Y0157600D03*
X0211600Y0156000D03*
X0202600Y0177000D03*
X0202600Y0184000D03*
X0202600Y0191000D03*
X0202600Y0198000D03*
X0218600Y0189000D03*
X0211600Y0222000D03*
X0137600Y0192000D03*
X0137600Y0186000D03*
X0125600Y0198000D03*
X0107600Y0210000D03*
X0107600Y0214000D03*
X0106600Y0152000D03*
X0106600Y0148000D03*
X0111600Y0148000D03*
X0111600Y0152000D03*
X0082600Y0146000D03*
X0143600Y0137000D03*
X0147600Y0140000D03*
X0211600Y0097000D03*
D24*
X0284600Y0230000D03*
X0354600Y0238000D03*
M02*
