G75*
%MOIN*%
%OFA0B0*%
%FSLAX25Y25*%
%IPPOS*%
%LPD*%
%AMOC8*
5,1,8,0,0,1.08239X$1,22.5*
%
%ADD10R,0.04961X0.01417*%
%ADD11R,0.03937X0.04331*%
%ADD12R,0.02362X0.05906*%
%ADD13R,0.01575X0.05906*%
%ADD14R,0.06000X0.07000*%
%ADD15R,0.04331X0.03937*%
%ADD16R,0.08661X0.02362*%
%ADD17R,0.05512X0.03937*%
%ADD18R,0.01260X0.03543*%
%ADD19R,0.12500X0.12500*%
%ADD20C,0.07874*%
%ADD21R,0.04331X0.07480*%
%ADD22R,0.06299X0.09055*%
D10*
X0081113Y0079323D03*
X0081113Y0081882D03*
X0081113Y0084441D03*
X0081113Y0087000D03*
X0081113Y0089559D03*
X0081113Y0092118D03*
X0081113Y0094677D03*
X0104087Y0094677D03*
X0104087Y0092118D03*
X0104087Y0089559D03*
X0104087Y0087000D03*
X0104087Y0084441D03*
X0104087Y0081882D03*
X0104087Y0079323D03*
D11*
X0047655Y0036732D03*
X0053710Y0036575D03*
X0053710Y0043268D03*
X0047655Y0043425D03*
X0069600Y0043346D03*
X0075600Y0043346D03*
X0075600Y0036654D03*
X0069600Y0036654D03*
X0091600Y0036654D03*
X0097600Y0036654D03*
X0097600Y0043346D03*
X0091600Y0043346D03*
X0113600Y0043346D03*
X0119600Y0043346D03*
X0119600Y0036654D03*
X0113600Y0036654D03*
X0135600Y0037654D03*
X0141600Y0037654D03*
X0141600Y0044346D03*
X0135600Y0044346D03*
X0166600Y0044346D03*
X0173600Y0044346D03*
X0173600Y0037654D03*
X0166600Y0037654D03*
X0218600Y0058654D03*
X0218600Y0065346D03*
X0218600Y0076654D03*
X0218600Y0083346D03*
X0218600Y0098654D03*
X0218600Y0105346D03*
X0218600Y0116654D03*
X0218600Y0123346D03*
X0211600Y0141654D03*
X0211600Y0148346D03*
X0204600Y0148346D03*
X0204600Y0141654D03*
X0218600Y0156654D03*
X0218600Y0163346D03*
X0218600Y0174654D03*
X0218600Y0181346D03*
X0218600Y0196654D03*
X0218600Y0203346D03*
X0218600Y0215654D03*
X0218600Y0222346D03*
X0093600Y0146346D03*
X0087600Y0146346D03*
X0087600Y0139654D03*
X0093600Y0139654D03*
X0110600Y0101346D03*
X0116600Y0101346D03*
X0122600Y0101346D03*
X0122600Y0094654D03*
X0116600Y0094654D03*
X0110600Y0094654D03*
X0105600Y0072346D03*
X0099600Y0072346D03*
X0093600Y0072346D03*
X0093600Y0065654D03*
X0099600Y0065654D03*
X0105600Y0065654D03*
X0074600Y0072654D03*
X0068600Y0072654D03*
X0062600Y0072654D03*
X0062600Y0079346D03*
X0068600Y0079346D03*
X0074600Y0079346D03*
X0074600Y0094654D03*
X0068600Y0094654D03*
X0062600Y0094654D03*
X0062600Y0101346D03*
X0068600Y0101346D03*
X0074600Y0101346D03*
X0172600Y0078346D03*
X0178600Y0078346D03*
X0184600Y0078346D03*
X0184600Y0071654D03*
X0178600Y0071654D03*
X0172600Y0071654D03*
D12*
X0135100Y0119370D03*
X0130100Y0119370D03*
X0125100Y0119370D03*
X0120100Y0119370D03*
X0115100Y0119370D03*
X0110100Y0119370D03*
X0105100Y0119370D03*
X0100100Y0119370D03*
X0100100Y0140630D03*
X0105100Y0140630D03*
X0110100Y0140630D03*
X0115100Y0140630D03*
X0120100Y0140630D03*
X0125100Y0140630D03*
X0130100Y0140630D03*
X0135100Y0140630D03*
D13*
X0163966Y0128728D03*
X0166525Y0128728D03*
X0169084Y0128728D03*
X0171643Y0128728D03*
X0174202Y0128728D03*
X0176761Y0128728D03*
X0179320Y0128728D03*
X0181880Y0128728D03*
X0184439Y0128728D03*
X0186998Y0128728D03*
X0189557Y0128728D03*
X0192116Y0128728D03*
X0194675Y0128728D03*
X0197234Y0128728D03*
X0197234Y0157272D03*
X0194675Y0157272D03*
X0192116Y0157272D03*
X0189557Y0157272D03*
X0186998Y0157272D03*
X0184439Y0157272D03*
X0181880Y0157272D03*
X0179320Y0157272D03*
X0176761Y0157272D03*
X0174202Y0157272D03*
X0171643Y0157272D03*
X0169084Y0157272D03*
X0166525Y0157272D03*
X0163966Y0157272D03*
D14*
X0228850Y0155000D03*
X0228850Y0165000D03*
X0228850Y0175000D03*
X0228850Y0185000D03*
X0228850Y0195000D03*
X0228850Y0205000D03*
X0228850Y0215000D03*
X0228850Y0225000D03*
X0266350Y0225000D03*
X0266350Y0215000D03*
X0266350Y0205000D03*
X0266350Y0195000D03*
X0266350Y0185000D03*
X0266350Y0175000D03*
X0266350Y0165000D03*
X0266350Y0155000D03*
X0267350Y0126000D03*
X0267350Y0116000D03*
X0267350Y0106000D03*
X0267350Y0096000D03*
X0267350Y0086000D03*
X0267350Y0076000D03*
X0267350Y0066000D03*
X0267350Y0056000D03*
X0229850Y0056000D03*
X0229850Y0066000D03*
X0229850Y0076000D03*
X0229850Y0086000D03*
X0229850Y0096000D03*
X0229850Y0106000D03*
X0229850Y0116000D03*
X0229850Y0126000D03*
D15*
X0277254Y0154000D03*
X0283946Y0154000D03*
X0283946Y0166000D03*
X0283946Y0172000D03*
X0277254Y0172000D03*
X0277254Y0166000D03*
X0277254Y0186000D03*
X0277254Y0192000D03*
X0283946Y0192000D03*
X0283946Y0186000D03*
X0283946Y0206000D03*
X0277254Y0206000D03*
X0277254Y0212000D03*
X0283946Y0212000D03*
X0283946Y0224000D03*
X0277254Y0224000D03*
X0131946Y0192000D03*
X0125254Y0192000D03*
X0125254Y0186000D03*
X0131946Y0186000D03*
X0131946Y0179000D03*
X0125254Y0179000D03*
X0103946Y0238000D03*
X0097254Y0238000D03*
X0083946Y0238000D03*
X0077254Y0238000D03*
X0062946Y0238000D03*
X0056254Y0238000D03*
X0042946Y0238000D03*
X0036254Y0238000D03*
X0150254Y0095000D03*
X0156946Y0095000D03*
X0156946Y0089000D03*
X0150254Y0089000D03*
X0133946Y0076000D03*
X0133946Y0070000D03*
X0133946Y0064000D03*
X0127254Y0064000D03*
X0127254Y0070000D03*
X0127254Y0076000D03*
X0280254Y0074000D03*
X0286946Y0074000D03*
X0286946Y0068000D03*
X0280254Y0068000D03*
X0280254Y0056000D03*
X0286946Y0056000D03*
X0286946Y0088000D03*
X0280254Y0088000D03*
X0280254Y0094000D03*
X0286946Y0094000D03*
X0286946Y0108000D03*
X0280254Y0108000D03*
X0280254Y0114000D03*
X0286946Y0114000D03*
X0286946Y0126000D03*
X0280254Y0126000D03*
D16*
X0163836Y0081500D03*
X0163836Y0076500D03*
X0163836Y0071500D03*
X0163836Y0066500D03*
X0143364Y0066500D03*
X0143364Y0071500D03*
X0143364Y0076500D03*
X0143364Y0081500D03*
D17*
X0132269Y0057740D03*
X0140931Y0054000D03*
X0132269Y0050260D03*
X0118931Y0054000D03*
X0110269Y0057740D03*
X0110269Y0050260D03*
X0096931Y0054000D03*
X0088269Y0057740D03*
X0088269Y0050260D03*
X0074931Y0054000D03*
X0066269Y0057740D03*
X0066269Y0050260D03*
X0052931Y0054000D03*
X0044269Y0057740D03*
X0044269Y0050260D03*
X0157269Y0050260D03*
X0165931Y0054000D03*
X0157269Y0057740D03*
D18*
X0119537Y0194142D03*
X0117569Y0194142D03*
X0115600Y0194142D03*
X0113631Y0194142D03*
X0111663Y0194142D03*
X0111663Y0211858D03*
X0113631Y0211858D03*
X0115600Y0211858D03*
X0117569Y0211858D03*
X0119537Y0211858D03*
D19*
X0135600Y0219000D03*
X0197600Y0219000D03*
D20*
X0162663Y0219000D02*
X0162665Y0219125D01*
X0162671Y0219250D01*
X0162681Y0219374D01*
X0162695Y0219498D01*
X0162712Y0219622D01*
X0162734Y0219745D01*
X0162760Y0219867D01*
X0162789Y0219989D01*
X0162822Y0220109D01*
X0162860Y0220228D01*
X0162900Y0220347D01*
X0162945Y0220463D01*
X0162993Y0220578D01*
X0163045Y0220692D01*
X0163101Y0220804D01*
X0163160Y0220914D01*
X0163222Y0221022D01*
X0163288Y0221129D01*
X0163357Y0221233D01*
X0163430Y0221334D01*
X0163505Y0221434D01*
X0163584Y0221531D01*
X0163666Y0221625D01*
X0163751Y0221717D01*
X0163838Y0221806D01*
X0163929Y0221892D01*
X0164022Y0221975D01*
X0164118Y0222056D01*
X0164216Y0222133D01*
X0164316Y0222207D01*
X0164419Y0222278D01*
X0164524Y0222345D01*
X0164632Y0222410D01*
X0164741Y0222470D01*
X0164852Y0222528D01*
X0164965Y0222581D01*
X0165079Y0222631D01*
X0165195Y0222678D01*
X0165312Y0222720D01*
X0165431Y0222759D01*
X0165551Y0222795D01*
X0165672Y0222826D01*
X0165794Y0222854D01*
X0165916Y0222877D01*
X0166040Y0222897D01*
X0166164Y0222913D01*
X0166288Y0222925D01*
X0166413Y0222933D01*
X0166538Y0222937D01*
X0166662Y0222937D01*
X0166787Y0222933D01*
X0166912Y0222925D01*
X0167036Y0222913D01*
X0167160Y0222897D01*
X0167284Y0222877D01*
X0167406Y0222854D01*
X0167528Y0222826D01*
X0167649Y0222795D01*
X0167769Y0222759D01*
X0167888Y0222720D01*
X0168005Y0222678D01*
X0168121Y0222631D01*
X0168235Y0222581D01*
X0168348Y0222528D01*
X0168459Y0222470D01*
X0168569Y0222410D01*
X0168676Y0222345D01*
X0168781Y0222278D01*
X0168884Y0222207D01*
X0168984Y0222133D01*
X0169082Y0222056D01*
X0169178Y0221975D01*
X0169271Y0221892D01*
X0169362Y0221806D01*
X0169449Y0221717D01*
X0169534Y0221625D01*
X0169616Y0221531D01*
X0169695Y0221434D01*
X0169770Y0221334D01*
X0169843Y0221233D01*
X0169912Y0221129D01*
X0169978Y0221022D01*
X0170040Y0220914D01*
X0170099Y0220804D01*
X0170155Y0220692D01*
X0170207Y0220578D01*
X0170255Y0220463D01*
X0170300Y0220347D01*
X0170340Y0220228D01*
X0170378Y0220109D01*
X0170411Y0219989D01*
X0170440Y0219867D01*
X0170466Y0219745D01*
X0170488Y0219622D01*
X0170505Y0219498D01*
X0170519Y0219374D01*
X0170529Y0219250D01*
X0170535Y0219125D01*
X0170537Y0219000D01*
X0170535Y0218875D01*
X0170529Y0218750D01*
X0170519Y0218626D01*
X0170505Y0218502D01*
X0170488Y0218378D01*
X0170466Y0218255D01*
X0170440Y0218133D01*
X0170411Y0218011D01*
X0170378Y0217891D01*
X0170340Y0217772D01*
X0170300Y0217653D01*
X0170255Y0217537D01*
X0170207Y0217422D01*
X0170155Y0217308D01*
X0170099Y0217196D01*
X0170040Y0217086D01*
X0169978Y0216978D01*
X0169912Y0216871D01*
X0169843Y0216767D01*
X0169770Y0216666D01*
X0169695Y0216566D01*
X0169616Y0216469D01*
X0169534Y0216375D01*
X0169449Y0216283D01*
X0169362Y0216194D01*
X0169271Y0216108D01*
X0169178Y0216025D01*
X0169082Y0215944D01*
X0168984Y0215867D01*
X0168884Y0215793D01*
X0168781Y0215722D01*
X0168676Y0215655D01*
X0168568Y0215590D01*
X0168459Y0215530D01*
X0168348Y0215472D01*
X0168235Y0215419D01*
X0168121Y0215369D01*
X0168005Y0215322D01*
X0167888Y0215280D01*
X0167769Y0215241D01*
X0167649Y0215205D01*
X0167528Y0215174D01*
X0167406Y0215146D01*
X0167284Y0215123D01*
X0167160Y0215103D01*
X0167036Y0215087D01*
X0166912Y0215075D01*
X0166787Y0215067D01*
X0166662Y0215063D01*
X0166538Y0215063D01*
X0166413Y0215067D01*
X0166288Y0215075D01*
X0166164Y0215087D01*
X0166040Y0215103D01*
X0165916Y0215123D01*
X0165794Y0215146D01*
X0165672Y0215174D01*
X0165551Y0215205D01*
X0165431Y0215241D01*
X0165312Y0215280D01*
X0165195Y0215322D01*
X0165079Y0215369D01*
X0164965Y0215419D01*
X0164852Y0215472D01*
X0164741Y0215530D01*
X0164631Y0215590D01*
X0164524Y0215655D01*
X0164419Y0215722D01*
X0164316Y0215793D01*
X0164216Y0215867D01*
X0164118Y0215944D01*
X0164022Y0216025D01*
X0163929Y0216108D01*
X0163838Y0216194D01*
X0163751Y0216283D01*
X0163666Y0216375D01*
X0163584Y0216469D01*
X0163505Y0216566D01*
X0163430Y0216666D01*
X0163357Y0216767D01*
X0163288Y0216871D01*
X0163222Y0216978D01*
X0163160Y0217086D01*
X0163101Y0217196D01*
X0163045Y0217308D01*
X0162993Y0217422D01*
X0162945Y0217537D01*
X0162900Y0217653D01*
X0162860Y0217772D01*
X0162822Y0217891D01*
X0162789Y0218011D01*
X0162760Y0218133D01*
X0162734Y0218255D01*
X0162712Y0218378D01*
X0162695Y0218502D01*
X0162681Y0218626D01*
X0162671Y0218750D01*
X0162665Y0218875D01*
X0162663Y0219000D01*
D21*
X0123521Y0222000D03*
X0113679Y0222000D03*
D22*
X0097600Y0214402D03*
X0097600Y0189598D03*
M02*
