G75*
%MOIN*%
%OFA0B0*%
%FSLAX25Y25*%
%IPPOS*%
%LPD*%
%AMOC8*
5,1,8,0,0,1.08239X$1,22.5*
%
%ADD10R,0.04331X0.03937*%
%ADD11R,0.06000X0.07000*%
%ADD12R,0.03937X0.04331*%
%ADD13R,0.07874X0.06299*%
%ADD14R,0.02362X0.08661*%
%ADD15R,0.03937X0.05512*%
D10*
X0088254Y0081000D03*
X0094946Y0081000D03*
X0094946Y0093000D03*
X0088254Y0093000D03*
X0200254Y0115000D03*
X0206946Y0115000D03*
X0222254Y0097000D03*
X0228946Y0097000D03*
X0228946Y0090000D03*
X0222254Y0090000D03*
X0211946Y0075000D03*
X0205254Y0075000D03*
X0262254Y0090000D03*
X0268946Y0090000D03*
X0268946Y0097000D03*
X0262254Y0097000D03*
X0277254Y0126000D03*
X0283946Y0126000D03*
X0323254Y0129000D03*
X0329946Y0129000D03*
X0337254Y0129000D03*
X0343946Y0129000D03*
X0329946Y0139000D03*
X0323254Y0139000D03*
X0282946Y0154000D03*
X0276254Y0154000D03*
X0276254Y0166000D03*
X0282946Y0166000D03*
X0282946Y0172000D03*
X0276254Y0172000D03*
X0276254Y0186000D03*
X0282946Y0186000D03*
X0282946Y0192000D03*
X0276254Y0192000D03*
X0276254Y0207000D03*
X0282946Y0207000D03*
X0282946Y0213000D03*
X0276254Y0213000D03*
X0276254Y0224000D03*
X0282946Y0224000D03*
X0326254Y0084000D03*
X0332946Y0084000D03*
X0332946Y0078000D03*
X0326254Y0078000D03*
X0340254Y0084000D03*
X0346946Y0084000D03*
X0281946Y0067000D03*
X0275254Y0067000D03*
D11*
X0266350Y0155000D03*
X0266350Y0165000D03*
X0266350Y0175000D03*
X0266350Y0185000D03*
X0266350Y0195000D03*
X0266350Y0205000D03*
X0266350Y0215000D03*
X0266350Y0225000D03*
X0228850Y0225000D03*
X0228850Y0215000D03*
X0228850Y0205000D03*
X0228850Y0195000D03*
X0228850Y0185000D03*
X0228850Y0175000D03*
X0228850Y0165000D03*
X0228850Y0155000D03*
D12*
X0218600Y0156654D03*
X0218600Y0163346D03*
X0218600Y0174654D03*
X0218600Y0181346D03*
X0218600Y0196654D03*
X0218600Y0203346D03*
X0218600Y0215654D03*
X0218600Y0222346D03*
X0284600Y0085346D03*
X0291600Y0085346D03*
X0291600Y0078654D03*
X0284600Y0078654D03*
X0281600Y0047346D03*
X0274600Y0047346D03*
X0274600Y0040654D03*
X0281600Y0040654D03*
D13*
X0265380Y0047000D03*
X0265380Y0057000D03*
X0265380Y0067000D03*
X0265380Y0077000D03*
X0227820Y0077000D03*
X0227820Y0067000D03*
X0227820Y0057000D03*
X0227820Y0047000D03*
X0228820Y0106000D03*
X0228820Y0116000D03*
X0228820Y0126000D03*
X0228820Y0136000D03*
X0266380Y0136000D03*
X0266380Y0126000D03*
X0266380Y0116000D03*
X0266380Y0106000D03*
D14*
X0299100Y0100236D03*
X0304100Y0100236D03*
X0309100Y0100236D03*
X0314100Y0100236D03*
X0314100Y0079764D03*
X0309100Y0079764D03*
X0304100Y0079764D03*
X0299100Y0079764D03*
X0211100Y0084764D03*
X0206100Y0084764D03*
X0201100Y0084764D03*
X0196100Y0084764D03*
X0196100Y0105236D03*
X0201100Y0105236D03*
X0206100Y0105236D03*
X0211100Y0105236D03*
D15*
X0319860Y0109669D03*
X0327340Y0109669D03*
X0323600Y0102331D03*
X0319860Y0093669D03*
X0327340Y0093669D03*
X0323600Y0118331D03*
M02*
