%
M48
M72
T01C0.0197
T02C0.0236
T03C0.0400
T04C0.0440
T05C0.0787
T06C0.0840
T07C0.1083
T08C0.1575
%
T01
X4260Y2300
X6460Y2900
X6260Y4300
X3960Y4300
X5960Y5800
X5860Y6700
X6260Y6700
X8160Y6600
X8160Y6200
X8160Y5800
X8560Y4300
X10760Y4300
X12960Y4400
X14960Y4400
X14260Y6000
X13860Y6200
X14660Y6200
X16260Y6200
X16660Y6200
X17860Y6600
X18460Y6600
X19060Y6600
X19060Y7200
X16460Y8900
X14410Y8860
X14410Y9460
X13560Y11100
X12960Y11100
X10460Y10700
X10460Y10100
X9860Y10100
X8760Y8700
X11560Y7300
X11560Y6900
X11560Y6500
X18125Y4435
X21860Y5200
X21160Y9700
X19060Y12200
X18660Y12200
X18260Y12200
X18160Y14000
X19360Y14300
X21160Y15600
X20510Y15760
X20110Y15760
X20260Y17700
X20260Y18400
X20260Y19100
X20260Y19800
X21860Y18900
X21160Y22200
X13760Y19200
X13760Y18600
X12560Y19800
X10760Y21000
X10760Y21400
X10660Y15200
X10660Y14800
X11160Y14800
X11160Y15200
X8260Y14600
X14360Y13700
X14760Y14000
X21860Y13000
X27360Y11100
X29260Y11000
X29260Y11400
X30560Y11300
X31260Y11300
X31560Y13100
X31560Y13500
X28760Y13200
X28360Y14800
X28960Y16900
X29460Y16900
X29960Y16900
X29060Y18900
X29060Y20900
X29560Y20900
X30060Y20900
X30660Y23900
X30660Y24400
X31160Y24400
X31160Y23900
X31660Y23900
X31660Y24400
X31660Y24900
X31160Y24900
X30660Y24900
X30660Y25400
X31160Y25400
X31660Y25400
X31660Y25900
X31160Y25900
X30660Y25900
X29360Y9100
X29260Y7200
X29760Y7200
X30260Y7200
X29360Y5400
T02
X28460Y23000
X35460Y23800
T03
X34360Y25100
X28160Y24800
X26760Y24800
X26760Y23800
X28160Y23800
X28160Y25800
X26760Y25800
X41360Y25100
X10060Y25000
X9060Y25000
X8060Y25000
X5960Y25000
X4960Y25000
X3960Y25000
X2381Y22646
X1381Y22646
X1381Y21646
X2381Y21646
X2381Y20646
X1381Y20646
X1381Y19646
X2381Y19646
X2381Y18646
X1381Y18646
X1381Y17646
X2381Y17646
X2381Y16646
X1381Y16646
X1381Y15646
X2381Y15646
X2381Y14646
X1381Y14646
X1381Y13646
X2381Y13646
X2381Y12646
X1381Y12646
X1381Y11646
X2381Y11646
X2381Y10646
X1381Y10646
X1381Y9646
X2381Y9646
X2381Y8646
X1381Y8646
X1381Y7646
X2381Y7646
X2381Y6646
X1381Y6646
X1381Y5646
X2381Y5646
X2381Y4646
X1381Y4646
X1381Y3646
X2381Y3646
X4660Y1100
X5660Y1100
X6860Y1100
X7860Y1100
X9060Y1100
X10060Y1100
X11260Y1100
X12260Y1100
X13460Y1100
X14460Y1100
X15460Y1100
X16660Y1100
X17660Y1100
X18660Y1100
T04
X31260Y14800
T05
X38829Y21609
X31360Y3400
X29360Y3400
T06
X34050Y3799
X36057Y4153
X38315Y7378
X37961Y9385
X36651Y10946
X36860Y14263
X34891Y14791
X33451Y16231
X32923Y18200
X33451Y20169
X34891Y21609
X36860Y22137
X40269Y20169
X40797Y18200
X40269Y16231
X38829Y14791
T07
X1791Y1678
X21082Y1678
X21082Y24513
X1791Y24513
T08
X37618Y5463
M30
