G75*
%MOIN*%
%OFA0B0*%
%FSLAX25Y25*%
%IPPOS*%
%LPD*%
%AMOC8*
5,1,8,0,0,1.08239X$1,22.5*
%
%ADD10C,0.06000*%
%ADD11C,0.12400*%
%ADD12C,0.11811*%
%ADD13C,0.06600*%
%ADD14C,0.02953*%
%ADD15C,0.01200*%
%ADD16C,0.03543*%
D10*
X0046600Y0011000D03*
X0056600Y0011000D03*
X0068600Y0011000D03*
X0078600Y0011000D03*
X0090600Y0011000D03*
X0100600Y0011000D03*
X0112600Y0011000D03*
X0122600Y0011000D03*
X0134600Y0011000D03*
X0144600Y0011000D03*
X0154600Y0011000D03*
X0166600Y0011000D03*
X0176600Y0011000D03*
X0186600Y0011000D03*
X0023813Y0036465D03*
X0013813Y0036465D03*
X0013813Y0046465D03*
X0023813Y0046465D03*
X0023813Y0056465D03*
X0013813Y0056465D03*
X0013813Y0066465D03*
X0023813Y0066465D03*
X0023813Y0076465D03*
X0013813Y0076465D03*
X0013813Y0086465D03*
X0023813Y0086465D03*
X0023813Y0096465D03*
X0013813Y0096465D03*
X0013813Y0106465D03*
X0023813Y0106465D03*
X0023813Y0116465D03*
X0013813Y0116465D03*
X0013813Y0126465D03*
X0023813Y0126465D03*
X0023813Y0136465D03*
X0013813Y0136465D03*
X0013813Y0146465D03*
X0023813Y0146465D03*
X0023813Y0156465D03*
X0013813Y0156465D03*
X0013813Y0166465D03*
X0023813Y0166465D03*
X0023813Y0176465D03*
X0013813Y0176465D03*
X0013813Y0186465D03*
X0023813Y0186465D03*
X0023813Y0196465D03*
X0013813Y0196465D03*
X0013813Y0206465D03*
X0023813Y0206465D03*
X0023813Y0216465D03*
X0013813Y0216465D03*
X0013813Y0226465D03*
X0023813Y0226465D03*
X0039600Y0250000D03*
X0049600Y0250000D03*
X0059600Y0250000D03*
X0080600Y0250000D03*
X0090600Y0250000D03*
X0100600Y0250000D03*
X0267600Y0248000D03*
X0281600Y0248000D03*
X0281600Y0238000D03*
X0267600Y0238000D03*
X0267600Y0258000D03*
X0281600Y0258000D03*
X0343600Y0251000D03*
X0413600Y0251000D03*
D11*
X0368600Y0221370D03*
X0348915Y0216094D03*
X0334506Y0201685D03*
X0329230Y0182000D03*
X0334506Y0162315D03*
X0348915Y0147906D03*
X0368600Y0142630D03*
X0388285Y0147906D03*
X0402694Y0162315D03*
X0407970Y0182000D03*
X0402694Y0201685D03*
X0366510Y0109462D03*
X0379609Y0093850D03*
X0383147Y0073781D03*
X0360566Y0041531D03*
X0340497Y0037992D03*
D12*
X0313600Y0034000D03*
X0293600Y0034000D03*
X0388285Y0216094D03*
D13*
X0312600Y0148000D03*
D14*
X0315600Y0135000D03*
X0315600Y0131000D03*
X0287600Y0132000D03*
X0283600Y0148000D03*
X0289600Y0169000D03*
X0294600Y0169000D03*
X0299600Y0169000D03*
X0290600Y0189000D03*
X0290600Y0209000D03*
X0295600Y0209000D03*
X0300600Y0209000D03*
X0306600Y0239000D03*
X0306600Y0244000D03*
X0311600Y0244000D03*
X0311600Y0239000D03*
X0316600Y0239000D03*
X0316600Y0244000D03*
X0316600Y0249000D03*
X0311600Y0249000D03*
X0306600Y0249000D03*
X0306600Y0254000D03*
X0311600Y0254000D03*
X0316600Y0254000D03*
X0316600Y0259000D03*
X0311600Y0259000D03*
X0306600Y0259000D03*
X0211600Y0222000D03*
X0202600Y0198000D03*
X0202600Y0191000D03*
X0202600Y0184000D03*
X0202600Y0177000D03*
X0218600Y0189000D03*
X0205100Y0157600D03*
X0201100Y0157600D03*
X0211600Y0156000D03*
X0193600Y0143000D03*
X0181600Y0140000D03*
X0182600Y0122000D03*
X0186600Y0122000D03*
X0190600Y0122000D03*
X0218600Y0130000D03*
X0211600Y0097000D03*
X0190600Y0072000D03*
X0190600Y0066000D03*
X0184600Y0066000D03*
X0178600Y0066000D03*
X0166600Y0062000D03*
X0162600Y0062000D03*
X0146600Y0062000D03*
X0142600Y0060000D03*
X0138600Y0062000D03*
X0129600Y0044000D03*
X0149600Y0044000D03*
X0181254Y0044346D03*
X0218600Y0052000D03*
X0164600Y0089000D03*
X0144100Y0088600D03*
X0144100Y0094600D03*
X0135600Y0111000D03*
X0129600Y0111000D03*
X0104600Y0107000D03*
X0104600Y0101000D03*
X0098600Y0101000D03*
X0087600Y0087000D03*
X0115600Y0073000D03*
X0115600Y0069000D03*
X0115600Y0065000D03*
X0081600Y0066000D03*
X0081600Y0062000D03*
X0081600Y0058000D03*
X0062600Y0067000D03*
X0058600Y0067000D03*
X0059600Y0058000D03*
X0062600Y0043000D03*
X0064600Y0029000D03*
X0085600Y0043000D03*
X0107600Y0043000D03*
X0039600Y0043000D03*
X0042600Y0023000D03*
X0143600Y0137000D03*
X0147600Y0140000D03*
X0111600Y0148000D03*
X0111600Y0152000D03*
X0106600Y0152000D03*
X0106600Y0148000D03*
X0082600Y0146000D03*
X0137600Y0186000D03*
X0137600Y0192000D03*
X0125600Y0198000D03*
X0107600Y0210000D03*
X0107600Y0214000D03*
X0273600Y0111000D03*
X0292600Y0110000D03*
X0292600Y0114000D03*
X0305600Y0113000D03*
X0312600Y0113000D03*
X0293600Y0091000D03*
X0292600Y0072000D03*
X0297600Y0072000D03*
X0302600Y0072000D03*
X0293600Y0054000D03*
D15*
X0043018Y0007794D02*
X0008493Y0007794D01*
X0008545Y0007741D02*
X0006900Y0009386D01*
X0005737Y0011401D01*
X0005135Y0013648D01*
X0005059Y0014811D01*
X0005059Y0258810D01*
X0005234Y0259476D01*
X0006055Y0261005D01*
X0007308Y0262205D01*
X0008870Y0262959D01*
X0010589Y0263194D01*
X0011227Y0263130D01*
X0011393Y0263061D01*
X0011710Y0263061D01*
X0012023Y0263004D01*
X0012282Y0263061D01*
X0236600Y0263061D01*
X0236600Y0005900D01*
X0013970Y0005900D01*
X0012807Y0005976D01*
X0010560Y0006578D01*
X0008545Y0007741D01*
X0007294Y0008993D02*
X0042236Y0008993D01*
X0042531Y0008281D02*
X0043881Y0006931D01*
X0045645Y0006200D01*
X0047555Y0006200D01*
X0049319Y0006931D01*
X0050669Y0008281D01*
X0051400Y0010045D01*
X0051400Y0011955D01*
X0050669Y0013719D01*
X0049319Y0015069D01*
X0047555Y0015800D01*
X0045645Y0015800D01*
X0043881Y0015069D01*
X0042531Y0013719D01*
X0041800Y0011955D01*
X0041800Y0010045D01*
X0042531Y0008281D01*
X0041800Y0010191D02*
X0021635Y0010191D01*
X0022163Y0010410D02*
X0024277Y0012524D01*
X0025420Y0015285D01*
X0025420Y0018274D01*
X0024277Y0021036D01*
X0022163Y0023149D01*
X0019402Y0024293D01*
X0016413Y0024293D01*
X0013651Y0023149D01*
X0011538Y0021036D01*
X0010394Y0018274D01*
X0010394Y0015285D01*
X0011538Y0012524D01*
X0013651Y0010410D01*
X0016413Y0009266D01*
X0019402Y0009266D01*
X0022163Y0010410D01*
X0023143Y0011390D02*
X0041800Y0011390D01*
X0042062Y0012588D02*
X0024303Y0012588D01*
X0024800Y0013787D02*
X0042598Y0013787D01*
X0043797Y0014985D02*
X0025296Y0014985D01*
X0025420Y0016184D02*
X0203307Y0016184D01*
X0203307Y0015285D02*
X0204451Y0012524D01*
X0206564Y0010410D01*
X0209326Y0009266D01*
X0212315Y0009266D01*
X0215076Y0010410D01*
X0217190Y0012524D01*
X0218334Y0015285D01*
X0218334Y0018274D01*
X0217190Y0021036D01*
X0215076Y0023149D01*
X0212315Y0024293D01*
X0209326Y0024293D01*
X0206564Y0023149D01*
X0204451Y0021036D01*
X0203307Y0018274D01*
X0203307Y0015285D01*
X0203431Y0014985D02*
X0189403Y0014985D01*
X0189319Y0015069D02*
X0187555Y0015800D01*
X0185645Y0015800D01*
X0183881Y0015069D01*
X0182531Y0013719D01*
X0181800Y0011955D01*
X0181800Y0010045D01*
X0182531Y0008281D01*
X0183881Y0006931D01*
X0185645Y0006200D01*
X0187555Y0006200D01*
X0189319Y0006931D01*
X0190669Y0008281D01*
X0191400Y0010045D01*
X0191400Y0011955D01*
X0190669Y0013719D01*
X0189319Y0015069D01*
X0190602Y0013787D02*
X0203928Y0013787D01*
X0204424Y0012588D02*
X0191138Y0012588D01*
X0191400Y0011390D02*
X0205585Y0011390D01*
X0207093Y0010191D02*
X0191400Y0010191D01*
X0190964Y0008993D02*
X0236600Y0008993D01*
X0236600Y0010191D02*
X0214548Y0010191D01*
X0216056Y0011390D02*
X0236600Y0011390D01*
X0236600Y0012588D02*
X0217217Y0012588D01*
X0217713Y0013787D02*
X0236600Y0013787D01*
X0236600Y0014985D02*
X0218210Y0014985D01*
X0218334Y0016184D02*
X0236600Y0016184D01*
X0236600Y0017382D02*
X0218334Y0017382D01*
X0218207Y0018581D02*
X0236600Y0018581D01*
X0236600Y0019779D02*
X0217710Y0019779D01*
X0217214Y0020978D02*
X0236600Y0020978D01*
X0236600Y0022176D02*
X0216049Y0022176D01*
X0214532Y0023375D02*
X0236600Y0023375D01*
X0236600Y0024573D02*
X0045495Y0024573D01*
X0045378Y0024856D02*
X0044456Y0025778D01*
X0043252Y0026276D01*
X0041948Y0026276D01*
X0040744Y0025778D01*
X0039822Y0024856D01*
X0039324Y0023652D01*
X0039324Y0022348D01*
X0039822Y0021144D01*
X0040744Y0020222D01*
X0041948Y0019724D01*
X0043252Y0019724D01*
X0044456Y0020222D01*
X0045378Y0021144D01*
X0045876Y0022348D01*
X0045876Y0023652D01*
X0045378Y0024856D01*
X0044462Y0025772D02*
X0063832Y0025772D01*
X0063948Y0025724D02*
X0065252Y0025724D01*
X0066456Y0026222D01*
X0067378Y0027144D01*
X0067876Y0028348D01*
X0067876Y0029652D01*
X0067378Y0030856D01*
X0066456Y0031778D01*
X0065252Y0032276D01*
X0063948Y0032276D01*
X0062744Y0031778D01*
X0061822Y0030856D01*
X0061324Y0029652D01*
X0061324Y0028348D01*
X0061822Y0027144D01*
X0062744Y0026222D01*
X0063948Y0025724D01*
X0065368Y0025772D02*
X0236600Y0025772D01*
X0236600Y0026970D02*
X0067204Y0026970D01*
X0067802Y0028169D02*
X0236600Y0028169D01*
X0236600Y0029367D02*
X0067876Y0029367D01*
X0067498Y0030566D02*
X0236600Y0030566D01*
X0236600Y0031764D02*
X0066469Y0031764D01*
X0062731Y0031764D02*
X0015008Y0031764D01*
X0014767Y0031665D02*
X0016532Y0032395D01*
X0017882Y0033746D01*
X0018613Y0035510D01*
X0018613Y0037419D01*
X0017882Y0039184D01*
X0016532Y0040534D01*
X0014767Y0041265D01*
X0012858Y0041265D01*
X0011094Y0040534D01*
X0009743Y0039184D01*
X0009013Y0037419D01*
X0009013Y0035510D01*
X0009743Y0033746D01*
X0011094Y0032395D01*
X0012858Y0031665D01*
X0014767Y0031665D01*
X0012617Y0031764D02*
X0005059Y0031764D01*
X0005059Y0030566D02*
X0061702Y0030566D01*
X0061324Y0029367D02*
X0005059Y0029367D01*
X0005059Y0028169D02*
X0061398Y0028169D01*
X0061996Y0026970D02*
X0005059Y0026970D01*
X0005059Y0025772D02*
X0040738Y0025772D01*
X0039705Y0024573D02*
X0005059Y0024573D01*
X0005059Y0023375D02*
X0014196Y0023375D01*
X0012678Y0022176D02*
X0005059Y0022176D01*
X0005059Y0020978D02*
X0011514Y0020978D01*
X0011017Y0019779D02*
X0005059Y0019779D01*
X0005059Y0018581D02*
X0010521Y0018581D01*
X0010394Y0017382D02*
X0005059Y0017382D01*
X0005059Y0016184D02*
X0010394Y0016184D01*
X0010518Y0014985D02*
X0005059Y0014985D01*
X0005126Y0013787D02*
X0011014Y0013787D01*
X0011511Y0012588D02*
X0005419Y0012588D01*
X0005744Y0011390D02*
X0012672Y0011390D01*
X0014180Y0010191D02*
X0006436Y0010191D01*
X0010530Y0006596D02*
X0044690Y0006596D01*
X0048510Y0006596D02*
X0054690Y0006596D01*
X0053881Y0006931D02*
X0055645Y0006200D01*
X0057555Y0006200D01*
X0059319Y0006931D01*
X0060669Y0008281D01*
X0061400Y0010045D01*
X0061400Y0011955D01*
X0060669Y0013719D01*
X0059319Y0015069D01*
X0057555Y0015800D01*
X0055645Y0015800D01*
X0053881Y0015069D01*
X0052531Y0013719D01*
X0051800Y0011955D01*
X0051800Y0010045D01*
X0052531Y0008281D01*
X0053881Y0006931D01*
X0053018Y0007794D02*
X0050182Y0007794D01*
X0050964Y0008993D02*
X0052236Y0008993D01*
X0051800Y0010191D02*
X0051400Y0010191D01*
X0051400Y0011390D02*
X0051800Y0011390D01*
X0052062Y0012588D02*
X0051138Y0012588D01*
X0050602Y0013787D02*
X0052598Y0013787D01*
X0053797Y0014985D02*
X0049403Y0014985D01*
X0045211Y0020978D02*
X0204427Y0020978D01*
X0203931Y0019779D02*
X0043386Y0019779D01*
X0041814Y0019779D02*
X0024797Y0019779D01*
X0025293Y0018581D02*
X0203434Y0018581D01*
X0203307Y0017382D02*
X0025420Y0017382D01*
X0024301Y0020978D02*
X0039989Y0020978D01*
X0039395Y0022176D02*
X0023136Y0022176D01*
X0021618Y0023375D02*
X0039324Y0023375D01*
X0045876Y0023375D02*
X0207109Y0023375D01*
X0205592Y0022176D02*
X0045805Y0022176D01*
X0059403Y0014985D02*
X0065797Y0014985D01*
X0065881Y0015069D02*
X0064531Y0013719D01*
X0063800Y0011955D01*
X0063800Y0010045D01*
X0064531Y0008281D01*
X0065881Y0006931D01*
X0067645Y0006200D01*
X0069555Y0006200D01*
X0071319Y0006931D01*
X0072669Y0008281D01*
X0073400Y0010045D01*
X0073400Y0011955D01*
X0072669Y0013719D01*
X0071319Y0015069D01*
X0069555Y0015800D01*
X0067645Y0015800D01*
X0065881Y0015069D01*
X0064598Y0013787D02*
X0060602Y0013787D01*
X0061138Y0012588D02*
X0064062Y0012588D01*
X0063800Y0011390D02*
X0061400Y0011390D01*
X0061400Y0010191D02*
X0063800Y0010191D01*
X0064236Y0008993D02*
X0060964Y0008993D01*
X0060182Y0007794D02*
X0065018Y0007794D01*
X0066690Y0006596D02*
X0058510Y0006596D01*
X0070510Y0006596D02*
X0076690Y0006596D01*
X0075881Y0006931D02*
X0077645Y0006200D01*
X0079555Y0006200D01*
X0081319Y0006931D01*
X0082669Y0008281D01*
X0083400Y0010045D01*
X0083400Y0011955D01*
X0082669Y0013719D01*
X0081319Y0015069D01*
X0079555Y0015800D01*
X0077645Y0015800D01*
X0075881Y0015069D01*
X0074531Y0013719D01*
X0073800Y0011955D01*
X0073800Y0010045D01*
X0074531Y0008281D01*
X0075881Y0006931D01*
X0075018Y0007794D02*
X0072182Y0007794D01*
X0072964Y0008993D02*
X0074236Y0008993D01*
X0073800Y0010191D02*
X0073400Y0010191D01*
X0073400Y0011390D02*
X0073800Y0011390D01*
X0074062Y0012588D02*
X0073138Y0012588D01*
X0072602Y0013787D02*
X0074598Y0013787D01*
X0075797Y0014985D02*
X0071403Y0014985D01*
X0081403Y0014985D02*
X0087797Y0014985D01*
X0087881Y0015069D02*
X0086531Y0013719D01*
X0085800Y0011955D01*
X0085800Y0010045D01*
X0086531Y0008281D01*
X0087881Y0006931D01*
X0089645Y0006200D01*
X0091555Y0006200D01*
X0093319Y0006931D01*
X0094669Y0008281D01*
X0095400Y0010045D01*
X0095400Y0011955D01*
X0094669Y0013719D01*
X0093319Y0015069D01*
X0091555Y0015800D01*
X0089645Y0015800D01*
X0087881Y0015069D01*
X0086598Y0013787D02*
X0082602Y0013787D01*
X0083138Y0012588D02*
X0086062Y0012588D01*
X0085800Y0011390D02*
X0083400Y0011390D01*
X0083400Y0010191D02*
X0085800Y0010191D01*
X0086236Y0008993D02*
X0082964Y0008993D01*
X0082182Y0007794D02*
X0087018Y0007794D01*
X0088690Y0006596D02*
X0080510Y0006596D01*
X0092510Y0006596D02*
X0098690Y0006596D01*
X0097881Y0006931D02*
X0099645Y0006200D01*
X0101555Y0006200D01*
X0103319Y0006931D01*
X0104669Y0008281D01*
X0105400Y0010045D01*
X0105400Y0011955D01*
X0104669Y0013719D01*
X0103319Y0015069D01*
X0101555Y0015800D01*
X0099645Y0015800D01*
X0097881Y0015069D01*
X0096531Y0013719D01*
X0095800Y0011955D01*
X0095800Y0010045D01*
X0096531Y0008281D01*
X0097881Y0006931D01*
X0097018Y0007794D02*
X0094182Y0007794D01*
X0094964Y0008993D02*
X0096236Y0008993D01*
X0095800Y0010191D02*
X0095400Y0010191D01*
X0095400Y0011390D02*
X0095800Y0011390D01*
X0096062Y0012588D02*
X0095138Y0012588D01*
X0094602Y0013787D02*
X0096598Y0013787D01*
X0097797Y0014985D02*
X0093403Y0014985D01*
X0103403Y0014985D02*
X0109797Y0014985D01*
X0109881Y0015069D02*
X0108531Y0013719D01*
X0107800Y0011955D01*
X0107800Y0010045D01*
X0108531Y0008281D01*
X0109881Y0006931D01*
X0111645Y0006200D01*
X0113555Y0006200D01*
X0115319Y0006931D01*
X0116669Y0008281D01*
X0117400Y0010045D01*
X0117400Y0011955D01*
X0116669Y0013719D01*
X0115319Y0015069D01*
X0113555Y0015800D01*
X0111645Y0015800D01*
X0109881Y0015069D01*
X0108598Y0013787D02*
X0104602Y0013787D01*
X0105138Y0012588D02*
X0108062Y0012588D01*
X0107800Y0011390D02*
X0105400Y0011390D01*
X0105400Y0010191D02*
X0107800Y0010191D01*
X0108236Y0008993D02*
X0104964Y0008993D01*
X0104182Y0007794D02*
X0109018Y0007794D01*
X0110690Y0006596D02*
X0102510Y0006596D01*
X0114510Y0006596D02*
X0120690Y0006596D01*
X0119881Y0006931D02*
X0121645Y0006200D01*
X0123555Y0006200D01*
X0125319Y0006931D01*
X0126669Y0008281D01*
X0127400Y0010045D01*
X0127400Y0011955D01*
X0126669Y0013719D01*
X0125319Y0015069D01*
X0123555Y0015800D01*
X0121645Y0015800D01*
X0119881Y0015069D01*
X0118531Y0013719D01*
X0117800Y0011955D01*
X0117800Y0010045D01*
X0118531Y0008281D01*
X0119881Y0006931D01*
X0119018Y0007794D02*
X0116182Y0007794D01*
X0116964Y0008993D02*
X0118236Y0008993D01*
X0117800Y0010191D02*
X0117400Y0010191D01*
X0117400Y0011390D02*
X0117800Y0011390D01*
X0118062Y0012588D02*
X0117138Y0012588D01*
X0116602Y0013787D02*
X0118598Y0013787D01*
X0119797Y0014985D02*
X0115403Y0014985D01*
X0125403Y0014985D02*
X0131797Y0014985D01*
X0131881Y0015069D02*
X0130531Y0013719D01*
X0129800Y0011955D01*
X0129800Y0010045D01*
X0130531Y0008281D01*
X0131881Y0006931D01*
X0133645Y0006200D01*
X0135555Y0006200D01*
X0137319Y0006931D01*
X0138669Y0008281D01*
X0139400Y0010045D01*
X0139400Y0011955D01*
X0138669Y0013719D01*
X0137319Y0015069D01*
X0135555Y0015800D01*
X0133645Y0015800D01*
X0131881Y0015069D01*
X0130598Y0013787D02*
X0126602Y0013787D01*
X0127138Y0012588D02*
X0130062Y0012588D01*
X0129800Y0011390D02*
X0127400Y0011390D01*
X0127400Y0010191D02*
X0129800Y0010191D01*
X0130236Y0008993D02*
X0126964Y0008993D01*
X0126182Y0007794D02*
X0131018Y0007794D01*
X0132690Y0006596D02*
X0124510Y0006596D01*
X0136510Y0006596D02*
X0142690Y0006596D01*
X0141881Y0006931D02*
X0143645Y0006200D01*
X0145555Y0006200D01*
X0147319Y0006931D01*
X0148669Y0008281D01*
X0149400Y0010045D01*
X0149400Y0011955D01*
X0148669Y0013719D01*
X0147319Y0015069D01*
X0145555Y0015800D01*
X0143645Y0015800D01*
X0141881Y0015069D01*
X0140531Y0013719D01*
X0139800Y0011955D01*
X0139800Y0010045D01*
X0140531Y0008281D01*
X0141881Y0006931D01*
X0141018Y0007794D02*
X0138182Y0007794D01*
X0138964Y0008993D02*
X0140236Y0008993D01*
X0139800Y0010191D02*
X0139400Y0010191D01*
X0139400Y0011390D02*
X0139800Y0011390D01*
X0140062Y0012588D02*
X0139138Y0012588D01*
X0138602Y0013787D02*
X0140598Y0013787D01*
X0141797Y0014985D02*
X0137403Y0014985D01*
X0147403Y0014985D02*
X0151797Y0014985D01*
X0151881Y0015069D02*
X0150531Y0013719D01*
X0149800Y0011955D01*
X0149800Y0010045D01*
X0150531Y0008281D01*
X0151881Y0006931D01*
X0153645Y0006200D01*
X0155555Y0006200D01*
X0157319Y0006931D01*
X0158669Y0008281D01*
X0159400Y0010045D01*
X0159400Y0011955D01*
X0158669Y0013719D01*
X0157319Y0015069D01*
X0155555Y0015800D01*
X0153645Y0015800D01*
X0151881Y0015069D01*
X0150598Y0013787D02*
X0148602Y0013787D01*
X0149138Y0012588D02*
X0150062Y0012588D01*
X0149800Y0011390D02*
X0149400Y0011390D01*
X0149400Y0010191D02*
X0149800Y0010191D01*
X0150236Y0008993D02*
X0148964Y0008993D01*
X0148182Y0007794D02*
X0151018Y0007794D01*
X0152690Y0006596D02*
X0146510Y0006596D01*
X0156510Y0006596D02*
X0164690Y0006596D01*
X0163881Y0006931D02*
X0165645Y0006200D01*
X0167555Y0006200D01*
X0169319Y0006931D01*
X0170669Y0008281D01*
X0171400Y0010045D01*
X0171400Y0011955D01*
X0170669Y0013719D01*
X0169319Y0015069D01*
X0167555Y0015800D01*
X0165645Y0015800D01*
X0163881Y0015069D01*
X0162531Y0013719D01*
X0161800Y0011955D01*
X0161800Y0010045D01*
X0162531Y0008281D01*
X0163881Y0006931D01*
X0163018Y0007794D02*
X0158182Y0007794D01*
X0158964Y0008993D02*
X0162236Y0008993D01*
X0161800Y0010191D02*
X0159400Y0010191D01*
X0159400Y0011390D02*
X0161800Y0011390D01*
X0162062Y0012588D02*
X0159138Y0012588D01*
X0158602Y0013787D02*
X0162598Y0013787D01*
X0163797Y0014985D02*
X0157403Y0014985D01*
X0169403Y0014985D02*
X0173797Y0014985D01*
X0173881Y0015069D02*
X0172531Y0013719D01*
X0171800Y0011955D01*
X0171800Y0010045D01*
X0172531Y0008281D01*
X0173881Y0006931D01*
X0175645Y0006200D01*
X0177555Y0006200D01*
X0179319Y0006931D01*
X0180669Y0008281D01*
X0181400Y0010045D01*
X0181400Y0011955D01*
X0180669Y0013719D01*
X0179319Y0015069D01*
X0177555Y0015800D01*
X0175645Y0015800D01*
X0173881Y0015069D01*
X0172598Y0013787D02*
X0170602Y0013787D01*
X0171138Y0012588D02*
X0172062Y0012588D01*
X0171800Y0011390D02*
X0171400Y0011390D01*
X0171400Y0010191D02*
X0171800Y0010191D01*
X0172236Y0008993D02*
X0170964Y0008993D01*
X0170182Y0007794D02*
X0173018Y0007794D01*
X0174690Y0006596D02*
X0168510Y0006596D01*
X0178510Y0006596D02*
X0184690Y0006596D01*
X0183018Y0007794D02*
X0180182Y0007794D01*
X0180964Y0008993D02*
X0182236Y0008993D01*
X0181800Y0010191D02*
X0181400Y0010191D01*
X0181400Y0011390D02*
X0181800Y0011390D01*
X0182062Y0012588D02*
X0181138Y0012588D01*
X0180602Y0013787D02*
X0182598Y0013787D01*
X0183797Y0014985D02*
X0179403Y0014985D01*
X0188510Y0006596D02*
X0236600Y0006596D01*
X0236600Y0007794D02*
X0190182Y0007794D01*
X0236600Y0032963D02*
X0026816Y0032963D01*
X0026809Y0032956D02*
X0027321Y0033468D01*
X0027747Y0034054D01*
X0028076Y0034699D01*
X0028299Y0035387D01*
X0028407Y0036065D01*
X0024213Y0036065D01*
X0024213Y0036865D01*
X0023413Y0036865D01*
X0023413Y0041059D01*
X0022735Y0040951D01*
X0022047Y0040728D01*
X0021402Y0040399D01*
X0020816Y0039973D01*
X0020304Y0039461D01*
X0019878Y0038875D01*
X0019550Y0038230D01*
X0019326Y0037542D01*
X0019219Y0036865D01*
X0023413Y0036865D01*
X0023413Y0036065D01*
X0023413Y0036064D02*
X0024213Y0036064D01*
X0024213Y0031871D01*
X0024890Y0031978D01*
X0025578Y0032202D01*
X0026224Y0032530D01*
X0026809Y0032956D01*
X0027802Y0034161D02*
X0236600Y0034161D01*
X0236600Y0035360D02*
X0028290Y0035360D01*
X0028407Y0036865D02*
X0028299Y0037542D01*
X0028076Y0038230D01*
X0027747Y0038875D01*
X0027321Y0039461D01*
X0026809Y0039973D01*
X0026224Y0040399D01*
X0025578Y0040728D01*
X0024890Y0040951D01*
X0024213Y0041059D01*
X0024213Y0036865D01*
X0028407Y0036865D01*
X0028229Y0037757D02*
X0236600Y0037757D01*
X0236600Y0038955D02*
X0027689Y0038955D01*
X0026561Y0040154D02*
X0037910Y0040154D01*
X0037744Y0040222D02*
X0038948Y0039724D01*
X0040252Y0039724D01*
X0041456Y0040222D01*
X0042378Y0041144D01*
X0042876Y0042348D01*
X0042876Y0043652D01*
X0042378Y0044856D01*
X0041456Y0045778D01*
X0040252Y0046276D01*
X0038948Y0046276D01*
X0037744Y0045778D01*
X0036822Y0044856D01*
X0036324Y0043652D01*
X0036324Y0042348D01*
X0036822Y0041144D01*
X0037744Y0040222D01*
X0036736Y0041352D02*
X0005059Y0041352D01*
X0005059Y0040154D02*
X0010714Y0040154D01*
X0009649Y0038955D02*
X0005059Y0038955D01*
X0005059Y0037757D02*
X0009152Y0037757D01*
X0009013Y0036558D02*
X0005059Y0036558D01*
X0005059Y0035360D02*
X0009075Y0035360D01*
X0009571Y0034161D02*
X0005059Y0034161D01*
X0005059Y0032963D02*
X0010526Y0032963D01*
X0017099Y0032963D02*
X0020809Y0032963D01*
X0020816Y0032956D02*
X0021402Y0032530D01*
X0022047Y0032202D01*
X0022735Y0031978D01*
X0023413Y0031871D01*
X0023413Y0036064D01*
X0023413Y0036065D02*
X0019219Y0036065D01*
X0019326Y0035387D01*
X0019550Y0034699D01*
X0019878Y0034054D01*
X0020304Y0033468D01*
X0020816Y0032956D01*
X0019823Y0034161D02*
X0018054Y0034161D01*
X0018550Y0035360D02*
X0019335Y0035360D01*
X0018613Y0036558D02*
X0023413Y0036558D01*
X0024213Y0036558D02*
X0236600Y0036558D01*
X0236600Y0040154D02*
X0109290Y0040154D01*
X0109456Y0040222D02*
X0110378Y0041144D01*
X0110876Y0042348D01*
X0110876Y0043652D01*
X0110378Y0044856D01*
X0109456Y0045778D01*
X0108252Y0046276D01*
X0106948Y0046276D01*
X0105744Y0045778D01*
X0104822Y0044856D01*
X0104324Y0043652D01*
X0104324Y0042348D01*
X0104822Y0041144D01*
X0105744Y0040222D01*
X0106948Y0039724D01*
X0108252Y0039724D01*
X0109456Y0040222D01*
X0110464Y0041352D02*
X0127614Y0041352D01*
X0127744Y0041222D02*
X0128948Y0040724D01*
X0130252Y0040724D01*
X0131456Y0041222D01*
X0132378Y0042144D01*
X0132876Y0043348D01*
X0132876Y0044652D01*
X0132378Y0045856D01*
X0131456Y0046778D01*
X0130252Y0047276D01*
X0128948Y0047276D01*
X0127744Y0046778D01*
X0126822Y0045856D01*
X0126324Y0044652D01*
X0126324Y0043348D01*
X0126822Y0042144D01*
X0127744Y0041222D01*
X0126654Y0042551D02*
X0110876Y0042551D01*
X0110836Y0043749D02*
X0126324Y0043749D01*
X0126446Y0044948D02*
X0110286Y0044948D01*
X0108565Y0046146D02*
X0127113Y0046146D01*
X0132087Y0046146D02*
X0147113Y0046146D01*
X0146822Y0045856D02*
X0146324Y0044652D01*
X0146324Y0043348D01*
X0146822Y0042144D01*
X0147744Y0041222D01*
X0148948Y0040724D01*
X0150252Y0040724D01*
X0151456Y0041222D01*
X0152378Y0042144D01*
X0152876Y0043348D01*
X0152876Y0044652D01*
X0152378Y0045856D01*
X0151456Y0046778D01*
X0150252Y0047276D01*
X0148948Y0047276D01*
X0147744Y0046778D01*
X0146822Y0045856D01*
X0146446Y0044948D02*
X0132754Y0044948D01*
X0132876Y0043749D02*
X0146324Y0043749D01*
X0146654Y0042551D02*
X0132546Y0042551D01*
X0131586Y0041352D02*
X0147614Y0041352D01*
X0151586Y0041352D02*
X0179920Y0041352D01*
X0179398Y0041569D02*
X0180602Y0041070D01*
X0181905Y0041070D01*
X0183109Y0041569D01*
X0184031Y0042491D01*
X0184530Y0043695D01*
X0184530Y0044998D01*
X0184031Y0046202D01*
X0183109Y0047124D01*
X0181905Y0047623D01*
X0180602Y0047623D01*
X0179398Y0047124D01*
X0178476Y0046202D01*
X0177977Y0044998D01*
X0177977Y0043695D01*
X0178476Y0042491D01*
X0179398Y0041569D01*
X0178451Y0042551D02*
X0152546Y0042551D01*
X0152876Y0043749D02*
X0177977Y0043749D01*
X0177977Y0044948D02*
X0152754Y0044948D01*
X0152087Y0046146D02*
X0178453Y0046146D01*
X0179931Y0047345D02*
X0028613Y0047345D01*
X0028613Y0047419D02*
X0027882Y0049184D01*
X0026532Y0050534D01*
X0024767Y0051265D01*
X0022858Y0051265D01*
X0021094Y0050534D01*
X0019743Y0049184D01*
X0019013Y0047419D01*
X0019013Y0045510D01*
X0019743Y0043746D01*
X0021094Y0042395D01*
X0022858Y0041665D01*
X0024767Y0041665D01*
X0026532Y0042395D01*
X0027882Y0043746D01*
X0028613Y0045510D01*
X0028613Y0047419D01*
X0028147Y0048543D02*
X0236600Y0048543D01*
X0236600Y0047345D02*
X0182576Y0047345D01*
X0184054Y0046146D02*
X0236600Y0046146D01*
X0236600Y0044948D02*
X0184530Y0044948D01*
X0184530Y0043749D02*
X0236600Y0043749D01*
X0236600Y0042551D02*
X0184056Y0042551D01*
X0182587Y0041352D02*
X0236600Y0041352D01*
X0236600Y0049742D02*
X0027323Y0049742D01*
X0025550Y0050940D02*
X0236600Y0050940D01*
X0236600Y0052139D02*
X0025913Y0052139D01*
X0026532Y0052395D02*
X0027882Y0053746D01*
X0028613Y0055510D01*
X0028613Y0057419D01*
X0027882Y0059184D01*
X0026532Y0060534D01*
X0024767Y0061265D01*
X0022858Y0061265D01*
X0021094Y0060534D01*
X0019743Y0059184D01*
X0019013Y0057419D01*
X0019013Y0055510D01*
X0019743Y0053746D01*
X0021094Y0052395D01*
X0022858Y0051665D01*
X0024767Y0051665D01*
X0026532Y0052395D01*
X0027474Y0053337D02*
X0236600Y0053337D01*
X0236600Y0054536D02*
X0028209Y0054536D01*
X0028613Y0055734D02*
X0057232Y0055734D01*
X0056822Y0056144D02*
X0057744Y0055222D01*
X0058948Y0054724D01*
X0060252Y0054724D01*
X0061456Y0055222D01*
X0062378Y0056144D01*
X0062876Y0057348D01*
X0062876Y0058652D01*
X0062378Y0059856D01*
X0061456Y0060778D01*
X0060252Y0061276D01*
X0058948Y0061276D01*
X0057744Y0060778D01*
X0056822Y0059856D01*
X0056324Y0058652D01*
X0056324Y0057348D01*
X0056822Y0056144D01*
X0056496Y0056933D02*
X0028613Y0056933D01*
X0028318Y0058132D02*
X0056324Y0058132D01*
X0056605Y0059330D02*
X0027735Y0059330D01*
X0026537Y0060529D02*
X0057495Y0060529D01*
X0057948Y0063724D02*
X0059252Y0063724D01*
X0060456Y0064222D01*
X0060600Y0064366D01*
X0060744Y0064222D01*
X0061948Y0063724D01*
X0063252Y0063724D01*
X0064456Y0064222D01*
X0065378Y0065144D01*
X0065876Y0066348D01*
X0065876Y0067652D01*
X0065378Y0068856D01*
X0064456Y0069778D01*
X0063252Y0070276D01*
X0061948Y0070276D01*
X0060744Y0069778D01*
X0060600Y0069633D01*
X0060456Y0069778D01*
X0059252Y0070276D01*
X0057948Y0070276D01*
X0056744Y0069778D01*
X0055822Y0068856D01*
X0055324Y0067652D01*
X0055324Y0066348D01*
X0055822Y0065144D01*
X0056744Y0064222D01*
X0057948Y0063724D01*
X0056981Y0064124D02*
X0028039Y0064124D01*
X0027882Y0063746D02*
X0028613Y0065510D01*
X0028613Y0067419D01*
X0027882Y0069184D01*
X0026532Y0070534D01*
X0024767Y0071265D01*
X0022858Y0071265D01*
X0021094Y0070534D01*
X0019743Y0069184D01*
X0019013Y0067419D01*
X0019013Y0065510D01*
X0019743Y0063746D01*
X0021094Y0062395D01*
X0022858Y0061665D01*
X0024767Y0061665D01*
X0026532Y0062395D01*
X0027882Y0063746D01*
X0027062Y0062926D02*
X0078437Y0062926D01*
X0078324Y0062652D02*
X0078324Y0061348D01*
X0078822Y0060144D01*
X0078966Y0060000D01*
X0078822Y0059856D01*
X0078324Y0058652D01*
X0078324Y0057348D01*
X0078822Y0056144D01*
X0079744Y0055222D01*
X0080948Y0054724D01*
X0082252Y0054724D01*
X0083456Y0055222D01*
X0084378Y0056144D01*
X0084876Y0057348D01*
X0084876Y0058652D01*
X0084378Y0059856D01*
X0084233Y0060000D01*
X0084378Y0060144D01*
X0084876Y0061348D01*
X0084876Y0062652D01*
X0084378Y0063856D01*
X0084233Y0064000D01*
X0084378Y0064144D01*
X0084876Y0065348D01*
X0084876Y0066652D01*
X0084378Y0067856D01*
X0083456Y0068778D01*
X0082252Y0069276D01*
X0080948Y0069276D01*
X0079744Y0068778D01*
X0078822Y0067856D01*
X0078324Y0066652D01*
X0078324Y0065348D01*
X0078822Y0064144D01*
X0078966Y0064000D01*
X0078822Y0063856D01*
X0078324Y0062652D01*
X0078324Y0061727D02*
X0024918Y0061727D01*
X0022707Y0061727D02*
X0014918Y0061727D01*
X0014767Y0061665D02*
X0016532Y0062395D01*
X0017882Y0063746D01*
X0018613Y0065510D01*
X0018613Y0067419D01*
X0017882Y0069184D01*
X0016532Y0070534D01*
X0014767Y0071265D01*
X0012858Y0071265D01*
X0011094Y0070534D01*
X0009743Y0069184D01*
X0009013Y0067419D01*
X0009013Y0065510D01*
X0009743Y0063746D01*
X0011094Y0062395D01*
X0012858Y0061665D01*
X0014767Y0061665D01*
X0014767Y0061265D02*
X0012858Y0061265D01*
X0011094Y0060534D01*
X0009743Y0059184D01*
X0009013Y0057419D01*
X0009013Y0055510D01*
X0009743Y0053746D01*
X0011094Y0052395D01*
X0012858Y0051665D01*
X0014767Y0051665D01*
X0016532Y0052395D01*
X0017882Y0053746D01*
X0018613Y0055510D01*
X0018613Y0057419D01*
X0017882Y0059184D01*
X0016532Y0060534D01*
X0014767Y0061265D01*
X0016537Y0060529D02*
X0021088Y0060529D01*
X0019890Y0059330D02*
X0017735Y0059330D01*
X0018318Y0058132D02*
X0019308Y0058132D01*
X0019013Y0056933D02*
X0018613Y0056933D01*
X0018613Y0055734D02*
X0019013Y0055734D01*
X0019416Y0054536D02*
X0018209Y0054536D01*
X0017474Y0053337D02*
X0020151Y0053337D01*
X0021713Y0052139D02*
X0015913Y0052139D01*
X0015550Y0050940D02*
X0022075Y0050940D01*
X0020302Y0049742D02*
X0017323Y0049742D01*
X0017882Y0049184D02*
X0016532Y0050534D01*
X0014767Y0051265D01*
X0012858Y0051265D01*
X0011094Y0050534D01*
X0009743Y0049184D01*
X0009013Y0047419D01*
X0009013Y0045510D01*
X0009743Y0043746D01*
X0011094Y0042395D01*
X0012858Y0041665D01*
X0014767Y0041665D01*
X0016532Y0042395D01*
X0017882Y0043746D01*
X0018613Y0045510D01*
X0018613Y0047419D01*
X0017882Y0049184D01*
X0018147Y0048543D02*
X0019478Y0048543D01*
X0019013Y0047345D02*
X0018613Y0047345D01*
X0018613Y0046146D02*
X0019013Y0046146D01*
X0019245Y0044948D02*
X0018380Y0044948D01*
X0017883Y0043749D02*
X0019742Y0043749D01*
X0020938Y0042551D02*
X0016687Y0042551D01*
X0016912Y0040154D02*
X0021064Y0040154D01*
X0019936Y0038955D02*
X0017976Y0038955D01*
X0018473Y0037757D02*
X0019396Y0037757D01*
X0023413Y0037757D02*
X0024213Y0037757D01*
X0024213Y0038955D02*
X0023413Y0038955D01*
X0023413Y0040154D02*
X0024213Y0040154D01*
X0026687Y0042551D02*
X0036324Y0042551D01*
X0036364Y0043749D02*
X0027883Y0043749D01*
X0028380Y0044948D02*
X0036914Y0044948D01*
X0038635Y0046146D02*
X0028613Y0046146D01*
X0024213Y0035360D02*
X0023413Y0035360D01*
X0023413Y0034161D02*
X0024213Y0034161D01*
X0024213Y0032963D02*
X0023413Y0032963D01*
X0010938Y0042551D02*
X0005059Y0042551D01*
X0005059Y0043749D02*
X0009742Y0043749D01*
X0009245Y0044948D02*
X0005059Y0044948D01*
X0005059Y0046146D02*
X0009013Y0046146D01*
X0009013Y0047345D02*
X0005059Y0047345D01*
X0005059Y0048543D02*
X0009478Y0048543D01*
X0010302Y0049742D02*
X0005059Y0049742D01*
X0005059Y0050940D02*
X0012075Y0050940D01*
X0011713Y0052139D02*
X0005059Y0052139D01*
X0005059Y0053337D02*
X0010151Y0053337D01*
X0009416Y0054536D02*
X0005059Y0054536D01*
X0005059Y0055734D02*
X0009013Y0055734D01*
X0009013Y0056933D02*
X0005059Y0056933D01*
X0005059Y0058132D02*
X0009308Y0058132D01*
X0009890Y0059330D02*
X0005059Y0059330D01*
X0005059Y0060529D02*
X0011088Y0060529D01*
X0012707Y0061727D02*
X0005059Y0061727D01*
X0005059Y0062926D02*
X0010563Y0062926D01*
X0009587Y0064124D02*
X0005059Y0064124D01*
X0005059Y0065323D02*
X0009090Y0065323D01*
X0009013Y0066521D02*
X0005059Y0066521D01*
X0005059Y0067720D02*
X0009137Y0067720D01*
X0009633Y0068918D02*
X0005059Y0068918D01*
X0005059Y0070117D02*
X0010676Y0070117D01*
X0011094Y0072395D02*
X0012858Y0071665D01*
X0014767Y0071665D01*
X0016532Y0072395D01*
X0017882Y0073746D01*
X0018613Y0075510D01*
X0018613Y0077419D01*
X0017882Y0079184D01*
X0016532Y0080534D01*
X0014767Y0081265D01*
X0012858Y0081265D01*
X0011094Y0080534D01*
X0009743Y0079184D01*
X0009013Y0077419D01*
X0009013Y0075510D01*
X0009743Y0073746D01*
X0011094Y0072395D01*
X0010975Y0072514D02*
X0005059Y0072514D01*
X0005059Y0073712D02*
X0009777Y0073712D01*
X0009261Y0074911D02*
X0005059Y0074911D01*
X0005059Y0076109D02*
X0009013Y0076109D01*
X0009013Y0077308D02*
X0005059Y0077308D01*
X0005059Y0078506D02*
X0009463Y0078506D01*
X0010265Y0079705D02*
X0005059Y0079705D01*
X0005059Y0080903D02*
X0011986Y0080903D01*
X0012858Y0081665D02*
X0014767Y0081665D01*
X0016532Y0082395D01*
X0017882Y0083746D01*
X0018613Y0085510D01*
X0018613Y0087419D01*
X0017882Y0089184D01*
X0016532Y0090534D01*
X0014767Y0091265D01*
X0012858Y0091265D01*
X0011094Y0090534D01*
X0009743Y0089184D01*
X0009013Y0087419D01*
X0009013Y0085510D01*
X0009743Y0083746D01*
X0011094Y0082395D01*
X0012858Y0081665D01*
X0011802Y0082102D02*
X0005059Y0082102D01*
X0005059Y0083300D02*
X0010189Y0083300D01*
X0009431Y0084499D02*
X0005059Y0084499D01*
X0005059Y0085697D02*
X0009013Y0085697D01*
X0009013Y0086896D02*
X0005059Y0086896D01*
X0005059Y0088094D02*
X0009292Y0088094D01*
X0009853Y0089293D02*
X0005059Y0089293D01*
X0005059Y0090491D02*
X0011051Y0090491D01*
X0011094Y0092395D02*
X0012858Y0091665D01*
X0014767Y0091665D01*
X0016532Y0092395D01*
X0017882Y0093746D01*
X0018613Y0095510D01*
X0018613Y0097419D01*
X0017882Y0099184D01*
X0016532Y0100534D01*
X0014767Y0101265D01*
X0012858Y0101265D01*
X0011094Y0100534D01*
X0009743Y0099184D01*
X0009013Y0097419D01*
X0009013Y0095510D01*
X0009743Y0093746D01*
X0011094Y0092395D01*
X0010601Y0092888D02*
X0005059Y0092888D01*
X0005059Y0091690D02*
X0012797Y0091690D01*
X0014828Y0091690D02*
X0022797Y0091690D01*
X0022858Y0091665D02*
X0024767Y0091665D01*
X0026532Y0092395D01*
X0027882Y0093746D01*
X0028613Y0095510D01*
X0028613Y0097419D01*
X0027882Y0099184D01*
X0026532Y0100534D01*
X0024767Y0101265D01*
X0022858Y0101265D01*
X0021094Y0100534D01*
X0019743Y0099184D01*
X0019013Y0097419D01*
X0019013Y0095510D01*
X0019743Y0093746D01*
X0021094Y0092395D01*
X0022858Y0091665D01*
X0022858Y0091265D02*
X0021094Y0090534D01*
X0019743Y0089184D01*
X0019013Y0087419D01*
X0019013Y0085510D01*
X0019743Y0083746D01*
X0021094Y0082395D01*
X0022858Y0081665D01*
X0024767Y0081665D01*
X0026532Y0082395D01*
X0027882Y0083746D01*
X0028613Y0085510D01*
X0028613Y0087419D01*
X0027882Y0089184D01*
X0026532Y0090534D01*
X0024767Y0091265D01*
X0022858Y0091265D01*
X0021051Y0090491D02*
X0016574Y0090491D01*
X0017773Y0089293D02*
X0019853Y0089293D01*
X0019292Y0088094D02*
X0018333Y0088094D01*
X0018613Y0086896D02*
X0019013Y0086896D01*
X0019013Y0085697D02*
X0018613Y0085697D01*
X0018194Y0084499D02*
X0019431Y0084499D01*
X0020189Y0083300D02*
X0017437Y0083300D01*
X0015823Y0082102D02*
X0021802Y0082102D01*
X0021986Y0080903D02*
X0015640Y0080903D01*
X0017361Y0079705D02*
X0020265Y0079705D01*
X0019743Y0079184D02*
X0019013Y0077419D01*
X0019013Y0075510D01*
X0019743Y0073746D01*
X0021094Y0072395D01*
X0022858Y0071665D01*
X0024767Y0071665D01*
X0026532Y0072395D01*
X0027882Y0073746D01*
X0028613Y0075510D01*
X0028613Y0077419D01*
X0027882Y0079184D01*
X0026532Y0080534D01*
X0024767Y0081265D01*
X0022858Y0081265D01*
X0021094Y0080534D01*
X0019743Y0079184D01*
X0019463Y0078506D02*
X0018162Y0078506D01*
X0018613Y0077308D02*
X0019013Y0077308D01*
X0019013Y0076109D02*
X0018613Y0076109D01*
X0018364Y0074911D02*
X0019261Y0074911D01*
X0019777Y0073712D02*
X0017848Y0073712D01*
X0016650Y0072514D02*
X0020975Y0072514D01*
X0020676Y0070117D02*
X0016949Y0070117D01*
X0017992Y0068918D02*
X0019633Y0068918D01*
X0019137Y0067720D02*
X0018488Y0067720D01*
X0018613Y0066521D02*
X0019013Y0066521D01*
X0019090Y0065323D02*
X0018535Y0065323D01*
X0018039Y0064124D02*
X0019587Y0064124D01*
X0020563Y0062926D02*
X0017062Y0062926D01*
X0028535Y0065323D02*
X0055748Y0065323D01*
X0055324Y0066521D02*
X0028613Y0066521D01*
X0028488Y0067720D02*
X0055352Y0067720D01*
X0055885Y0068918D02*
X0027992Y0068918D01*
X0026949Y0070117D02*
X0057563Y0070117D01*
X0059637Y0070117D02*
X0061563Y0070117D01*
X0063637Y0070117D02*
X0112516Y0070117D01*
X0112324Y0069652D02*
X0112324Y0068348D01*
X0112822Y0067144D01*
X0112966Y0067000D01*
X0112822Y0066856D01*
X0112324Y0065652D01*
X0112324Y0064348D01*
X0112822Y0063144D01*
X0113744Y0062222D01*
X0114948Y0061724D01*
X0116252Y0061724D01*
X0117456Y0062222D01*
X0118378Y0063144D01*
X0118876Y0064348D01*
X0118876Y0065652D01*
X0118378Y0066856D01*
X0118233Y0067000D01*
X0118378Y0067144D01*
X0118876Y0068348D01*
X0118876Y0069652D01*
X0118378Y0070856D01*
X0118233Y0071000D01*
X0118378Y0071144D01*
X0118876Y0072348D01*
X0118876Y0073652D01*
X0118378Y0074856D01*
X0117456Y0075778D01*
X0116252Y0076276D01*
X0114948Y0076276D01*
X0113744Y0075778D01*
X0112822Y0074856D01*
X0112324Y0073652D01*
X0112324Y0072348D01*
X0112822Y0071144D01*
X0112966Y0071000D01*
X0112822Y0070856D01*
X0112324Y0069652D01*
X0112324Y0068918D02*
X0083117Y0068918D01*
X0084434Y0067720D02*
X0112584Y0067720D01*
X0112684Y0066521D02*
X0084876Y0066521D01*
X0084866Y0065323D02*
X0112324Y0065323D01*
X0112416Y0064124D02*
X0084358Y0064124D01*
X0084763Y0062926D02*
X0113041Y0062926D01*
X0114940Y0061727D02*
X0084876Y0061727D01*
X0084537Y0060529D02*
X0135663Y0060529D01*
X0135822Y0060144D02*
X0136744Y0059222D01*
X0137948Y0058724D01*
X0139252Y0058724D01*
X0139534Y0058841D01*
X0139822Y0058144D01*
X0140744Y0057222D01*
X0141948Y0056724D01*
X0143252Y0056724D01*
X0144456Y0057222D01*
X0145378Y0058144D01*
X0145666Y0058841D01*
X0145948Y0058724D01*
X0147252Y0058724D01*
X0148456Y0059222D01*
X0149378Y0060144D01*
X0149876Y0061348D01*
X0149876Y0062652D01*
X0149378Y0063856D01*
X0148456Y0064778D01*
X0147252Y0065276D01*
X0145948Y0065276D01*
X0144744Y0064778D01*
X0143822Y0063856D01*
X0143534Y0063159D01*
X0143252Y0063276D01*
X0141948Y0063276D01*
X0141666Y0063159D01*
X0141378Y0063856D01*
X0140456Y0064778D01*
X0139252Y0065276D01*
X0137948Y0065276D01*
X0136744Y0064778D01*
X0135822Y0063856D01*
X0135324Y0062652D01*
X0135324Y0061348D01*
X0135822Y0060144D01*
X0136636Y0059330D02*
X0084595Y0059330D01*
X0084876Y0058132D02*
X0139835Y0058132D01*
X0141443Y0056933D02*
X0084704Y0056933D01*
X0083968Y0055734D02*
X0236600Y0055734D01*
X0236600Y0056933D02*
X0143757Y0056933D01*
X0145365Y0058132D02*
X0236600Y0058132D01*
X0236600Y0059330D02*
X0168564Y0059330D01*
X0168456Y0059222D02*
X0169378Y0060144D01*
X0169876Y0061348D01*
X0169876Y0062652D01*
X0169378Y0063856D01*
X0168456Y0064778D01*
X0167252Y0065276D01*
X0165948Y0065276D01*
X0164744Y0064778D01*
X0164600Y0064633D01*
X0164456Y0064778D01*
X0163252Y0065276D01*
X0161948Y0065276D01*
X0160744Y0064778D01*
X0159822Y0063856D01*
X0159324Y0062652D01*
X0159324Y0061348D01*
X0159822Y0060144D01*
X0160744Y0059222D01*
X0161948Y0058724D01*
X0163252Y0058724D01*
X0164456Y0059222D01*
X0164600Y0059366D01*
X0164744Y0059222D01*
X0165948Y0058724D01*
X0167252Y0058724D01*
X0168456Y0059222D01*
X0169537Y0060529D02*
X0236600Y0060529D01*
X0236600Y0061727D02*
X0169876Y0061727D01*
X0169763Y0062926D02*
X0177461Y0062926D01*
X0177948Y0062724D02*
X0179252Y0062724D01*
X0180456Y0063222D01*
X0181378Y0064144D01*
X0181600Y0064681D01*
X0181822Y0064144D01*
X0182744Y0063222D01*
X0183948Y0062724D01*
X0185252Y0062724D01*
X0186456Y0063222D01*
X0187378Y0064144D01*
X0187600Y0064681D01*
X0187822Y0064144D01*
X0188744Y0063222D01*
X0189948Y0062724D01*
X0191252Y0062724D01*
X0192456Y0063222D01*
X0193378Y0064144D01*
X0193876Y0065348D01*
X0193876Y0066652D01*
X0193378Y0067856D01*
X0192456Y0068778D01*
X0191919Y0069000D01*
X0192456Y0069222D01*
X0193378Y0070144D01*
X0193876Y0071348D01*
X0193876Y0072652D01*
X0193378Y0073856D01*
X0192456Y0074778D01*
X0191252Y0075276D01*
X0189948Y0075276D01*
X0188744Y0074778D01*
X0187822Y0073856D01*
X0187324Y0072652D01*
X0187324Y0071348D01*
X0187822Y0070144D01*
X0188744Y0069222D01*
X0189281Y0069000D01*
X0188744Y0068778D01*
X0187822Y0067856D01*
X0187600Y0067319D01*
X0187378Y0067856D01*
X0186456Y0068778D01*
X0185252Y0069276D01*
X0183948Y0069276D01*
X0182744Y0068778D01*
X0181822Y0067856D01*
X0181600Y0067319D01*
X0181378Y0067856D01*
X0180456Y0068778D01*
X0179252Y0069276D01*
X0177948Y0069276D01*
X0176744Y0068778D01*
X0175822Y0067856D01*
X0175324Y0066652D01*
X0175324Y0065348D01*
X0175822Y0064144D01*
X0176744Y0063222D01*
X0177948Y0062724D01*
X0179739Y0062926D02*
X0183461Y0062926D01*
X0181842Y0064124D02*
X0181358Y0064124D01*
X0181434Y0067720D02*
X0181766Y0067720D01*
X0183083Y0068918D02*
X0180117Y0068918D01*
X0177083Y0068918D02*
X0118876Y0068918D01*
X0118684Y0070117D02*
X0187850Y0070117D01*
X0187337Y0071315D02*
X0118448Y0071315D01*
X0118876Y0072514D02*
X0187324Y0072514D01*
X0187763Y0073712D02*
X0118851Y0073712D01*
X0118323Y0074911D02*
X0189065Y0074911D01*
X0192135Y0074911D02*
X0236600Y0074911D01*
X0236600Y0076109D02*
X0116655Y0076109D01*
X0114545Y0076109D02*
X0028613Y0076109D01*
X0028613Y0077308D02*
X0236600Y0077308D01*
X0236600Y0078506D02*
X0028162Y0078506D01*
X0027361Y0079705D02*
X0236600Y0079705D01*
X0236600Y0080903D02*
X0025640Y0080903D01*
X0025823Y0082102D02*
X0236600Y0082102D01*
X0236600Y0083300D02*
X0027437Y0083300D01*
X0028194Y0084499D02*
X0085468Y0084499D01*
X0085744Y0084222D02*
X0086948Y0083724D01*
X0088252Y0083724D01*
X0089456Y0084222D01*
X0090378Y0085144D01*
X0090876Y0086348D01*
X0090876Y0087652D01*
X0090378Y0088856D01*
X0089456Y0089778D01*
X0088252Y0090276D01*
X0086948Y0090276D01*
X0085744Y0089778D01*
X0084822Y0088856D01*
X0084324Y0087652D01*
X0084324Y0086348D01*
X0084822Y0085144D01*
X0085744Y0084222D01*
X0084593Y0085697D02*
X0028613Y0085697D01*
X0028613Y0086896D02*
X0084324Y0086896D01*
X0084507Y0088094D02*
X0028333Y0088094D01*
X0027773Y0089293D02*
X0085259Y0089293D01*
X0089941Y0089293D02*
X0140841Y0089293D01*
X0140824Y0089252D02*
X0140824Y0087948D01*
X0141322Y0086744D01*
X0142244Y0085822D01*
X0143448Y0085324D01*
X0144752Y0085324D01*
X0145956Y0085822D01*
X0146878Y0086744D01*
X0147376Y0087948D01*
X0147376Y0089252D01*
X0146878Y0090456D01*
X0145956Y0091378D01*
X0145419Y0091600D01*
X0145956Y0091822D01*
X0146878Y0092744D01*
X0147376Y0093948D01*
X0147376Y0095252D01*
X0146878Y0096456D01*
X0145956Y0097378D01*
X0144752Y0097876D01*
X0143448Y0097876D01*
X0142244Y0097378D01*
X0141322Y0096456D01*
X0140824Y0095252D01*
X0140824Y0093948D01*
X0141322Y0092744D01*
X0142244Y0091822D01*
X0142781Y0091600D01*
X0142244Y0091378D01*
X0141322Y0090456D01*
X0140824Y0089252D01*
X0140824Y0088094D02*
X0090693Y0088094D01*
X0090876Y0086896D02*
X0141260Y0086896D01*
X0142546Y0085697D02*
X0090607Y0085697D01*
X0089732Y0084499D02*
X0236600Y0084499D01*
X0236600Y0085697D02*
X0145654Y0085697D01*
X0146940Y0086896D02*
X0162071Y0086896D01*
X0161822Y0087144D02*
X0162744Y0086222D01*
X0163948Y0085724D01*
X0165252Y0085724D01*
X0166456Y0086222D01*
X0167378Y0087144D01*
X0167876Y0088348D01*
X0167876Y0089652D01*
X0167378Y0090856D01*
X0166456Y0091778D01*
X0165252Y0092276D01*
X0163948Y0092276D01*
X0162744Y0091778D01*
X0161822Y0090856D01*
X0161324Y0089652D01*
X0161324Y0088348D01*
X0161822Y0087144D01*
X0161429Y0088094D02*
X0147376Y0088094D01*
X0147359Y0089293D02*
X0161324Y0089293D01*
X0161671Y0090491D02*
X0146842Y0090491D01*
X0145636Y0091690D02*
X0162656Y0091690D01*
X0166544Y0091690D02*
X0236600Y0091690D01*
X0236600Y0092888D02*
X0146937Y0092888D01*
X0147376Y0094087D02*
X0236600Y0094087D01*
X0236600Y0095285D02*
X0147362Y0095285D01*
X0146850Y0096484D02*
X0236600Y0096484D01*
X0236600Y0097682D02*
X0145220Y0097682D01*
X0142980Y0097682D02*
X0028504Y0097682D01*
X0028613Y0096484D02*
X0141350Y0096484D01*
X0140838Y0095285D02*
X0028520Y0095285D01*
X0028023Y0094087D02*
X0140824Y0094087D01*
X0141263Y0092888D02*
X0027025Y0092888D01*
X0026574Y0090491D02*
X0141358Y0090491D01*
X0142564Y0091690D02*
X0024828Y0091690D01*
X0020601Y0092888D02*
X0017025Y0092888D01*
X0018023Y0094087D02*
X0019602Y0094087D01*
X0019106Y0095285D02*
X0018520Y0095285D01*
X0018613Y0096484D02*
X0019013Y0096484D01*
X0019122Y0097682D02*
X0018504Y0097682D01*
X0018007Y0098881D02*
X0019618Y0098881D01*
X0020639Y0100079D02*
X0016986Y0100079D01*
X0016532Y0102395D02*
X0017882Y0103746D01*
X0018613Y0105510D01*
X0018613Y0107419D01*
X0017882Y0109184D01*
X0016532Y0110534D01*
X0014767Y0111265D01*
X0012858Y0111265D01*
X0011094Y0110534D01*
X0009743Y0109184D01*
X0009013Y0107419D01*
X0009013Y0105510D01*
X0009743Y0103746D01*
X0011094Y0102395D01*
X0012858Y0101665D01*
X0014767Y0101665D01*
X0016532Y0102395D01*
X0016613Y0102476D02*
X0021013Y0102476D01*
X0021094Y0102395D02*
X0022858Y0101665D01*
X0024767Y0101665D01*
X0026532Y0102395D01*
X0027882Y0103746D01*
X0028613Y0105510D01*
X0028613Y0107419D01*
X0027882Y0109184D01*
X0026532Y0110534D01*
X0024767Y0111265D01*
X0022858Y0111265D01*
X0021094Y0110534D01*
X0019743Y0109184D01*
X0019013Y0107419D01*
X0019013Y0105510D01*
X0019743Y0103746D01*
X0021094Y0102395D01*
X0019814Y0103675D02*
X0017811Y0103675D01*
X0018349Y0104873D02*
X0019276Y0104873D01*
X0019013Y0106072D02*
X0018613Y0106072D01*
X0018613Y0107270D02*
X0019013Y0107270D01*
X0019447Y0108469D02*
X0018178Y0108469D01*
X0017398Y0109668D02*
X0020227Y0109668D01*
X0021896Y0110866D02*
X0015730Y0110866D01*
X0015733Y0112065D02*
X0022469Y0112065D01*
X0022735Y0111978D02*
X0023413Y0111871D01*
X0023413Y0116064D01*
X0024213Y0116064D01*
X0024213Y0116065D02*
X0024213Y0116865D01*
X0023413Y0116865D01*
X0023413Y0121059D01*
X0022735Y0120951D01*
X0022047Y0120728D01*
X0021402Y0120399D01*
X0020816Y0119973D01*
X0020304Y0119461D01*
X0019878Y0118875D01*
X0019550Y0118230D01*
X0019326Y0117542D01*
X0019219Y0116865D01*
X0023413Y0116865D01*
X0023413Y0116065D01*
X0019219Y0116065D01*
X0019326Y0115387D01*
X0019550Y0114699D01*
X0019878Y0114054D01*
X0020304Y0113468D01*
X0020816Y0112956D01*
X0021402Y0112530D01*
X0022047Y0112202D01*
X0022735Y0111978D01*
X0023413Y0112065D02*
X0024213Y0112065D01*
X0024213Y0111871D02*
X0024890Y0111978D01*
X0025578Y0112202D01*
X0026224Y0112530D01*
X0026809Y0112956D01*
X0027321Y0113468D01*
X0027747Y0114054D01*
X0028076Y0114699D01*
X0028299Y0115387D01*
X0028407Y0116065D01*
X0024213Y0116065D01*
X0024213Y0116064D02*
X0024213Y0111871D01*
X0025157Y0112065D02*
X0126495Y0112065D01*
X0126324Y0111652D02*
X0126324Y0110348D01*
X0126822Y0109144D01*
X0127744Y0108222D01*
X0128948Y0107724D01*
X0130252Y0107724D01*
X0131456Y0108222D01*
X0132378Y0109144D01*
X0132600Y0109681D01*
X0132822Y0109144D01*
X0133744Y0108222D01*
X0134948Y0107724D01*
X0136252Y0107724D01*
X0137456Y0108222D01*
X0138378Y0109144D01*
X0138876Y0110348D01*
X0138876Y0111652D01*
X0138378Y0112856D01*
X0137456Y0113778D01*
X0136252Y0114276D01*
X0134948Y0114276D01*
X0133744Y0113778D01*
X0132822Y0112856D01*
X0132600Y0112319D01*
X0132378Y0112856D01*
X0131456Y0113778D01*
X0130252Y0114276D01*
X0128948Y0114276D01*
X0127744Y0113778D01*
X0126822Y0112856D01*
X0126324Y0111652D01*
X0126324Y0110866D02*
X0025730Y0110866D01*
X0027398Y0109668D02*
X0102634Y0109668D01*
X0102744Y0109778D02*
X0101822Y0108856D01*
X0101324Y0107652D01*
X0101324Y0106348D01*
X0101822Y0105144D01*
X0102744Y0104222D01*
X0103281Y0104000D01*
X0102744Y0103778D01*
X0101822Y0102856D01*
X0101600Y0102319D01*
X0101378Y0102856D01*
X0100456Y0103778D01*
X0099252Y0104276D01*
X0097948Y0104276D01*
X0096744Y0103778D01*
X0095822Y0102856D01*
X0095324Y0101652D01*
X0095324Y0100348D01*
X0095822Y0099144D01*
X0096744Y0098222D01*
X0097948Y0097724D01*
X0099252Y0097724D01*
X0100456Y0098222D01*
X0101378Y0099144D01*
X0101600Y0099681D01*
X0101822Y0099144D01*
X0102744Y0098222D01*
X0103948Y0097724D01*
X0105252Y0097724D01*
X0106456Y0098222D01*
X0107378Y0099144D01*
X0107876Y0100348D01*
X0107876Y0101652D01*
X0107378Y0102856D01*
X0106456Y0103778D01*
X0105919Y0104000D01*
X0106456Y0104222D01*
X0107378Y0105144D01*
X0107876Y0106348D01*
X0107876Y0107652D01*
X0107378Y0108856D01*
X0106456Y0109778D01*
X0105252Y0110276D01*
X0103948Y0110276D01*
X0102744Y0109778D01*
X0101662Y0108469D02*
X0028178Y0108469D01*
X0028613Y0107270D02*
X0101324Y0107270D01*
X0101438Y0106072D02*
X0028613Y0106072D01*
X0028349Y0104873D02*
X0102093Y0104873D01*
X0102641Y0103675D02*
X0100559Y0103675D01*
X0101535Y0102476D02*
X0101665Y0102476D01*
X0102086Y0098881D02*
X0101114Y0098881D01*
X0096086Y0098881D02*
X0028007Y0098881D01*
X0026986Y0100079D02*
X0095435Y0100079D01*
X0095324Y0101278D02*
X0005059Y0101278D01*
X0005059Y0102476D02*
X0011012Y0102476D01*
X0009814Y0103675D02*
X0005059Y0103675D01*
X0005059Y0104873D02*
X0009276Y0104873D01*
X0009013Y0106072D02*
X0005059Y0106072D01*
X0005059Y0107270D02*
X0009013Y0107270D01*
X0009447Y0108469D02*
X0005059Y0108469D01*
X0005059Y0109668D02*
X0010227Y0109668D01*
X0011896Y0110866D02*
X0005059Y0110866D01*
X0005059Y0112065D02*
X0011892Y0112065D01*
X0011094Y0112395D02*
X0012858Y0111665D01*
X0014767Y0111665D01*
X0016532Y0112395D01*
X0017882Y0113746D01*
X0018613Y0115510D01*
X0018613Y0117419D01*
X0017882Y0119184D01*
X0016532Y0120534D01*
X0014767Y0121265D01*
X0012858Y0121265D01*
X0011094Y0120534D01*
X0009743Y0119184D01*
X0009013Y0117419D01*
X0009013Y0115510D01*
X0009743Y0113746D01*
X0011094Y0112395D01*
X0010226Y0113263D02*
X0005059Y0113263D01*
X0005059Y0114462D02*
X0009447Y0114462D01*
X0009013Y0115660D02*
X0005059Y0115660D01*
X0005059Y0116859D02*
X0009013Y0116859D01*
X0009277Y0118057D02*
X0005059Y0118057D01*
X0005059Y0119256D02*
X0009815Y0119256D01*
X0011014Y0120454D02*
X0005059Y0120454D01*
X0005059Y0121653D02*
X0179324Y0121653D01*
X0179324Y0121348D02*
X0179822Y0120144D01*
X0180744Y0119222D01*
X0181948Y0118724D01*
X0183252Y0118724D01*
X0184456Y0119222D01*
X0184600Y0119366D01*
X0184744Y0119222D01*
X0185948Y0118724D01*
X0187252Y0118724D01*
X0188456Y0119222D01*
X0188600Y0119366D01*
X0188744Y0119222D01*
X0189948Y0118724D01*
X0191252Y0118724D01*
X0192456Y0119222D01*
X0193378Y0120144D01*
X0193876Y0121348D01*
X0193876Y0122652D01*
X0193378Y0123856D01*
X0192456Y0124778D01*
X0191252Y0125276D01*
X0189948Y0125276D01*
X0188744Y0124778D01*
X0188600Y0124633D01*
X0188456Y0124778D01*
X0187252Y0125276D01*
X0185948Y0125276D01*
X0184744Y0124778D01*
X0184600Y0124633D01*
X0184456Y0124778D01*
X0183252Y0125276D01*
X0181948Y0125276D01*
X0180744Y0124778D01*
X0179822Y0123856D01*
X0179324Y0122652D01*
X0179324Y0121348D01*
X0179694Y0120454D02*
X0026115Y0120454D01*
X0026224Y0120399D02*
X0025578Y0120728D01*
X0024890Y0120951D01*
X0024213Y0121059D01*
X0024213Y0116865D01*
X0028407Y0116865D01*
X0028299Y0117542D01*
X0028076Y0118230D01*
X0027747Y0118875D01*
X0027321Y0119461D01*
X0026809Y0119973D01*
X0026224Y0120399D01*
X0027471Y0119256D02*
X0180711Y0119256D01*
X0184489Y0119256D02*
X0184711Y0119256D01*
X0188489Y0119256D02*
X0188711Y0119256D01*
X0192489Y0119256D02*
X0236600Y0119256D01*
X0236600Y0120454D02*
X0193506Y0120454D01*
X0193876Y0121653D02*
X0236600Y0121653D01*
X0236600Y0122851D02*
X0193794Y0122851D01*
X0193184Y0124050D02*
X0236600Y0124050D01*
X0236600Y0125248D02*
X0191320Y0125248D01*
X0189880Y0125248D02*
X0187320Y0125248D01*
X0185880Y0125248D02*
X0183320Y0125248D01*
X0181880Y0125248D02*
X0028504Y0125248D01*
X0028613Y0125510D02*
X0027882Y0123746D01*
X0026532Y0122395D01*
X0024767Y0121665D01*
X0022858Y0121665D01*
X0021094Y0122395D01*
X0019743Y0123746D01*
X0019013Y0125510D01*
X0019013Y0127419D01*
X0019743Y0129184D01*
X0021094Y0130534D01*
X0022858Y0131265D01*
X0024767Y0131265D01*
X0026532Y0130534D01*
X0027882Y0129184D01*
X0028613Y0127419D01*
X0028613Y0125510D01*
X0028613Y0126447D02*
X0236600Y0126447D01*
X0236600Y0127645D02*
X0028519Y0127645D01*
X0028023Y0128844D02*
X0236600Y0128844D01*
X0236600Y0130042D02*
X0027023Y0130042D01*
X0026532Y0132395D02*
X0024767Y0131665D01*
X0022858Y0131665D01*
X0021094Y0132395D01*
X0019743Y0133746D01*
X0019013Y0135510D01*
X0019013Y0137419D01*
X0019743Y0139184D01*
X0021094Y0140534D01*
X0022858Y0141265D01*
X0024767Y0141265D01*
X0026532Y0140534D01*
X0027882Y0139184D01*
X0028613Y0137419D01*
X0028613Y0135510D01*
X0027882Y0133746D01*
X0026532Y0132395D01*
X0026575Y0132439D02*
X0236600Y0132439D01*
X0236600Y0131241D02*
X0024825Y0131241D01*
X0022800Y0131241D02*
X0014825Y0131241D01*
X0014767Y0131265D02*
X0012858Y0131265D01*
X0011094Y0130534D01*
X0009743Y0129184D01*
X0009013Y0127419D01*
X0009013Y0125510D01*
X0009743Y0123746D01*
X0011094Y0122395D01*
X0012858Y0121665D01*
X0014767Y0121665D01*
X0016532Y0122395D01*
X0017882Y0123746D01*
X0018613Y0125510D01*
X0018613Y0127419D01*
X0017882Y0129184D01*
X0016532Y0130534D01*
X0014767Y0131265D01*
X0014767Y0131665D02*
X0016532Y0132395D01*
X0017882Y0133746D01*
X0018613Y0135510D01*
X0018613Y0137419D01*
X0017882Y0139184D01*
X0016532Y0140534D01*
X0014767Y0141265D01*
X0012858Y0141265D01*
X0011094Y0140534D01*
X0009743Y0139184D01*
X0009013Y0137419D01*
X0009013Y0135510D01*
X0009743Y0133746D01*
X0011094Y0132395D01*
X0012858Y0131665D01*
X0014767Y0131665D01*
X0016575Y0132439D02*
X0021050Y0132439D01*
X0019851Y0133638D02*
X0017774Y0133638D01*
X0018334Y0134836D02*
X0019292Y0134836D01*
X0019013Y0136035D02*
X0018613Y0136035D01*
X0018613Y0137233D02*
X0019013Y0137233D01*
X0019432Y0138432D02*
X0018193Y0138432D01*
X0017435Y0139630D02*
X0020190Y0139630D01*
X0021806Y0140829D02*
X0015819Y0140829D01*
X0015643Y0142027D02*
X0021982Y0142027D01*
X0022858Y0141665D02*
X0024767Y0141665D01*
X0026532Y0142395D01*
X0027882Y0143746D01*
X0028613Y0145510D01*
X0028613Y0147419D01*
X0027882Y0149184D01*
X0026532Y0150534D01*
X0024767Y0151265D01*
X0022858Y0151265D01*
X0021094Y0150534D01*
X0019743Y0149184D01*
X0019013Y0147419D01*
X0019013Y0145510D01*
X0019743Y0143746D01*
X0021094Y0142395D01*
X0022858Y0141665D01*
X0025643Y0142027D02*
X0144994Y0142027D01*
X0144822Y0141856D02*
X0144324Y0140652D01*
X0144324Y0140247D01*
X0144252Y0140276D01*
X0142948Y0140276D01*
X0141744Y0139778D01*
X0140822Y0138856D01*
X0140324Y0137652D01*
X0140324Y0136348D01*
X0140822Y0135144D01*
X0141744Y0134222D01*
X0142948Y0133724D01*
X0144252Y0133724D01*
X0145456Y0134222D01*
X0146378Y0135144D01*
X0146876Y0136348D01*
X0146876Y0136753D01*
X0146948Y0136724D01*
X0148252Y0136724D01*
X0149456Y0137222D01*
X0150378Y0138144D01*
X0150876Y0139348D01*
X0150876Y0140652D01*
X0150378Y0141856D01*
X0149456Y0142778D01*
X0148252Y0143276D01*
X0146948Y0143276D01*
X0145744Y0142778D01*
X0144822Y0141856D01*
X0144397Y0140829D02*
X0025819Y0140829D01*
X0027435Y0139630D02*
X0141597Y0139630D01*
X0140647Y0138432D02*
X0028193Y0138432D01*
X0028613Y0137233D02*
X0140324Y0137233D01*
X0140453Y0136035D02*
X0028613Y0136035D01*
X0028334Y0134836D02*
X0141130Y0134836D01*
X0146070Y0134836D02*
X0236600Y0134836D01*
X0236600Y0133638D02*
X0027774Y0133638D01*
X0020602Y0130042D02*
X0017023Y0130042D01*
X0018023Y0128844D02*
X0019603Y0128844D01*
X0019106Y0127645D02*
X0018519Y0127645D01*
X0018613Y0126447D02*
X0019013Y0126447D01*
X0019121Y0125248D02*
X0018504Y0125248D01*
X0018008Y0124050D02*
X0019617Y0124050D01*
X0020638Y0122851D02*
X0016987Y0122851D01*
X0016611Y0120454D02*
X0021510Y0120454D01*
X0020155Y0119256D02*
X0017810Y0119256D01*
X0018348Y0118057D02*
X0019493Y0118057D01*
X0018613Y0116859D02*
X0023413Y0116859D01*
X0024213Y0116859D02*
X0236600Y0116859D01*
X0236600Y0118057D02*
X0028132Y0118057D01*
X0028343Y0115660D02*
X0236600Y0115660D01*
X0236600Y0114462D02*
X0027955Y0114462D01*
X0027116Y0113263D02*
X0127230Y0113263D01*
X0126606Y0109668D02*
X0106566Y0109668D01*
X0107538Y0108469D02*
X0127497Y0108469D01*
X0131702Y0108469D02*
X0133497Y0108469D01*
X0132606Y0109668D02*
X0132594Y0109668D01*
X0131970Y0113263D02*
X0133230Y0113263D01*
X0137970Y0113263D02*
X0236600Y0113263D01*
X0236600Y0112065D02*
X0138705Y0112065D01*
X0138876Y0110866D02*
X0236600Y0110866D01*
X0236600Y0109668D02*
X0138594Y0109668D01*
X0137702Y0108469D02*
X0236600Y0108469D01*
X0236600Y0107270D02*
X0107876Y0107270D01*
X0107762Y0106072D02*
X0236600Y0106072D01*
X0236600Y0104873D02*
X0107107Y0104873D01*
X0106559Y0103675D02*
X0236600Y0103675D01*
X0236600Y0102476D02*
X0107535Y0102476D01*
X0107876Y0101278D02*
X0236600Y0101278D01*
X0236600Y0100079D02*
X0107765Y0100079D01*
X0107114Y0098881D02*
X0236600Y0098881D01*
X0236600Y0090491D02*
X0167529Y0090491D01*
X0167876Y0089293D02*
X0236600Y0089293D01*
X0236600Y0088094D02*
X0167771Y0088094D01*
X0167129Y0086896D02*
X0236600Y0086896D01*
X0236600Y0073712D02*
X0193437Y0073712D01*
X0193876Y0072514D02*
X0236600Y0072514D01*
X0236600Y0071315D02*
X0193863Y0071315D01*
X0193350Y0070117D02*
X0236600Y0070117D01*
X0236600Y0068918D02*
X0192117Y0068918D01*
X0193434Y0067720D02*
X0236600Y0067720D01*
X0236600Y0066521D02*
X0193876Y0066521D01*
X0193866Y0065323D02*
X0236600Y0065323D01*
X0236600Y0064124D02*
X0193358Y0064124D01*
X0191739Y0062926D02*
X0236600Y0062926D01*
X0189461Y0062926D02*
X0185739Y0062926D01*
X0187358Y0064124D02*
X0187842Y0064124D01*
X0187766Y0067720D02*
X0187434Y0067720D01*
X0186117Y0068918D02*
X0189083Y0068918D01*
X0175766Y0067720D02*
X0118616Y0067720D01*
X0118516Y0066521D02*
X0175324Y0066521D01*
X0175334Y0065323D02*
X0118876Y0065323D01*
X0118783Y0064124D02*
X0136091Y0064124D01*
X0135437Y0062926D02*
X0118159Y0062926D01*
X0116260Y0061727D02*
X0135324Y0061727D01*
X0141109Y0064124D02*
X0144091Y0064124D01*
X0149109Y0064124D02*
X0160091Y0064124D01*
X0159437Y0062926D02*
X0149763Y0062926D01*
X0149876Y0061727D02*
X0159324Y0061727D01*
X0159663Y0060529D02*
X0149537Y0060529D01*
X0148564Y0059330D02*
X0160636Y0059330D01*
X0164564Y0059330D02*
X0164636Y0059330D01*
X0169109Y0064124D02*
X0175842Y0064124D01*
X0112752Y0071315D02*
X0005059Y0071315D01*
X0026650Y0072514D02*
X0112324Y0072514D01*
X0112349Y0073712D02*
X0027848Y0073712D01*
X0028364Y0074911D02*
X0112877Y0074911D01*
X0080083Y0068918D02*
X0065315Y0068918D01*
X0065848Y0067720D02*
X0078766Y0067720D01*
X0078324Y0066521D02*
X0065876Y0066521D01*
X0065452Y0065323D02*
X0078334Y0065323D01*
X0078842Y0064124D02*
X0064219Y0064124D01*
X0060981Y0064124D02*
X0060219Y0064124D01*
X0061705Y0060529D02*
X0078663Y0060529D01*
X0078605Y0059330D02*
X0062595Y0059330D01*
X0062876Y0058132D02*
X0078324Y0058132D01*
X0078496Y0056933D02*
X0062704Y0056933D01*
X0061968Y0055734D02*
X0079232Y0055734D01*
X0083744Y0045778D02*
X0084948Y0046276D01*
X0086252Y0046276D01*
X0087456Y0045778D01*
X0088378Y0044856D01*
X0088876Y0043652D01*
X0088876Y0042348D01*
X0088378Y0041144D01*
X0087456Y0040222D01*
X0086252Y0039724D01*
X0084948Y0039724D01*
X0083744Y0040222D01*
X0082822Y0041144D01*
X0082324Y0042348D01*
X0082324Y0043652D01*
X0082822Y0044856D01*
X0083744Y0045778D01*
X0084635Y0046146D02*
X0063565Y0046146D01*
X0063252Y0046276D02*
X0061948Y0046276D01*
X0060744Y0045778D01*
X0059822Y0044856D01*
X0059324Y0043652D01*
X0059324Y0042348D01*
X0059822Y0041144D01*
X0060744Y0040222D01*
X0061948Y0039724D01*
X0063252Y0039724D01*
X0064456Y0040222D01*
X0065378Y0041144D01*
X0065876Y0042348D01*
X0065876Y0043652D01*
X0065378Y0044856D01*
X0064456Y0045778D01*
X0063252Y0046276D01*
X0061635Y0046146D02*
X0040565Y0046146D01*
X0042286Y0044948D02*
X0059914Y0044948D01*
X0059364Y0043749D02*
X0042836Y0043749D01*
X0042876Y0042551D02*
X0059324Y0042551D01*
X0059736Y0041352D02*
X0042464Y0041352D01*
X0041290Y0040154D02*
X0060910Y0040154D01*
X0064290Y0040154D02*
X0083910Y0040154D01*
X0082736Y0041352D02*
X0065464Y0041352D01*
X0065876Y0042551D02*
X0082324Y0042551D01*
X0082364Y0043749D02*
X0065836Y0043749D01*
X0065286Y0044948D02*
X0082914Y0044948D01*
X0086565Y0046146D02*
X0106635Y0046146D01*
X0104914Y0044948D02*
X0088286Y0044948D01*
X0088836Y0043749D02*
X0104364Y0043749D01*
X0104324Y0042551D02*
X0088876Y0042551D01*
X0088464Y0041352D02*
X0104736Y0041352D01*
X0105910Y0040154D02*
X0087290Y0040154D01*
X0009602Y0094087D02*
X0005059Y0094087D01*
X0005059Y0095285D02*
X0009106Y0095285D01*
X0009013Y0096484D02*
X0005059Y0096484D01*
X0005059Y0097682D02*
X0009122Y0097682D01*
X0009618Y0098881D02*
X0005059Y0098881D01*
X0005059Y0100079D02*
X0010639Y0100079D01*
X0026613Y0102476D02*
X0095665Y0102476D01*
X0096641Y0103675D02*
X0027811Y0103675D01*
X0024213Y0113263D02*
X0023413Y0113263D01*
X0023413Y0114462D02*
X0024213Y0114462D01*
X0024213Y0115660D02*
X0023413Y0115660D01*
X0023413Y0118057D02*
X0024213Y0118057D01*
X0024213Y0119256D02*
X0023413Y0119256D01*
X0023413Y0120454D02*
X0024213Y0120454D01*
X0026987Y0122851D02*
X0179406Y0122851D01*
X0180016Y0124050D02*
X0028008Y0124050D01*
X0019283Y0115660D02*
X0018613Y0115660D01*
X0018178Y0114462D02*
X0019670Y0114462D01*
X0020509Y0113263D02*
X0017399Y0113263D01*
X0010638Y0122851D02*
X0005059Y0122851D01*
X0005059Y0124050D02*
X0009617Y0124050D01*
X0009121Y0125248D02*
X0005059Y0125248D01*
X0005059Y0126447D02*
X0009013Y0126447D01*
X0009106Y0127645D02*
X0005059Y0127645D01*
X0005059Y0128844D02*
X0009603Y0128844D01*
X0010602Y0130042D02*
X0005059Y0130042D01*
X0005059Y0131241D02*
X0012800Y0131241D01*
X0011050Y0132439D02*
X0005059Y0132439D01*
X0005059Y0133638D02*
X0009851Y0133638D01*
X0009292Y0134836D02*
X0005059Y0134836D01*
X0005059Y0136035D02*
X0009013Y0136035D01*
X0009013Y0137233D02*
X0005059Y0137233D01*
X0005059Y0138432D02*
X0009432Y0138432D01*
X0010190Y0139630D02*
X0005059Y0139630D01*
X0005059Y0140829D02*
X0011806Y0140829D01*
X0011982Y0142027D02*
X0005059Y0142027D01*
X0005059Y0143226D02*
X0010263Y0143226D01*
X0009743Y0143746D02*
X0011094Y0142395D01*
X0012858Y0141665D01*
X0014767Y0141665D01*
X0016532Y0142395D01*
X0017882Y0143746D01*
X0018613Y0145510D01*
X0018613Y0147419D01*
X0017882Y0149184D01*
X0016532Y0150534D01*
X0014767Y0151265D01*
X0012858Y0151265D01*
X0011094Y0150534D01*
X0009743Y0149184D01*
X0009013Y0147419D01*
X0009013Y0145510D01*
X0009743Y0143746D01*
X0009462Y0144424D02*
X0005059Y0144424D01*
X0005059Y0145623D02*
X0009013Y0145623D01*
X0009013Y0146821D02*
X0005059Y0146821D01*
X0005059Y0148020D02*
X0009261Y0148020D01*
X0009778Y0149218D02*
X0005059Y0149218D01*
X0005059Y0150417D02*
X0010977Y0150417D01*
X0011094Y0152395D02*
X0012858Y0151665D01*
X0014767Y0151665D01*
X0016532Y0152395D01*
X0017882Y0153746D01*
X0018613Y0155510D01*
X0018613Y0157419D01*
X0017882Y0159184D01*
X0016532Y0160534D01*
X0014767Y0161265D01*
X0012858Y0161265D01*
X0011094Y0160534D01*
X0009743Y0159184D01*
X0009013Y0157419D01*
X0009013Y0155510D01*
X0009743Y0153746D01*
X0011094Y0152395D01*
X0010675Y0152814D02*
X0005059Y0152814D01*
X0005059Y0154012D02*
X0009633Y0154012D01*
X0009136Y0155211D02*
X0005059Y0155211D01*
X0005059Y0156409D02*
X0009013Y0156409D01*
X0009091Y0157608D02*
X0005059Y0157608D01*
X0005059Y0158806D02*
X0009587Y0158806D01*
X0010565Y0160005D02*
X0005059Y0160005D01*
X0005059Y0161203D02*
X0012710Y0161203D01*
X0012858Y0161665D02*
X0014767Y0161665D01*
X0016532Y0162395D01*
X0017882Y0163746D01*
X0018613Y0165510D01*
X0018613Y0167419D01*
X0017882Y0169184D01*
X0016532Y0170534D01*
X0014767Y0171265D01*
X0012858Y0171265D01*
X0011094Y0170534D01*
X0009743Y0169184D01*
X0009013Y0167419D01*
X0009013Y0165510D01*
X0009743Y0163746D01*
X0011094Y0162395D01*
X0012858Y0161665D01*
X0011087Y0162402D02*
X0005059Y0162402D01*
X0005059Y0163601D02*
X0009888Y0163601D01*
X0009307Y0164799D02*
X0005059Y0164799D01*
X0005059Y0165998D02*
X0009013Y0165998D01*
X0009013Y0167196D02*
X0005059Y0167196D01*
X0005059Y0168395D02*
X0009417Y0168395D01*
X0010153Y0169593D02*
X0005059Y0169593D01*
X0005059Y0170792D02*
X0011716Y0170792D01*
X0012072Y0171990D02*
X0005059Y0171990D01*
X0005059Y0173189D02*
X0010300Y0173189D01*
X0009743Y0173746D02*
X0011094Y0172395D01*
X0012858Y0171665D01*
X0014767Y0171665D01*
X0016532Y0172395D01*
X0017882Y0173746D01*
X0018613Y0175510D01*
X0018613Y0177419D01*
X0017882Y0179184D01*
X0016532Y0180534D01*
X0014767Y0181265D01*
X0012858Y0181265D01*
X0011094Y0180534D01*
X0009743Y0179184D01*
X0009013Y0177419D01*
X0009013Y0175510D01*
X0009743Y0173746D01*
X0009478Y0174387D02*
X0005059Y0174387D01*
X0005059Y0175586D02*
X0009013Y0175586D01*
X0009013Y0176784D02*
X0005059Y0176784D01*
X0005059Y0177983D02*
X0009246Y0177983D01*
X0009742Y0179181D02*
X0005059Y0179181D01*
X0005059Y0180380D02*
X0010939Y0180380D01*
X0011094Y0182395D02*
X0012858Y0181665D01*
X0014767Y0181665D01*
X0016532Y0182395D01*
X0017882Y0183746D01*
X0018613Y0185510D01*
X0018613Y0187419D01*
X0017882Y0189184D01*
X0016532Y0190534D01*
X0014767Y0191265D01*
X0012858Y0191265D01*
X0011094Y0190534D01*
X0009743Y0189184D01*
X0009013Y0187419D01*
X0009013Y0185510D01*
X0009743Y0183746D01*
X0011094Y0182395D01*
X0010712Y0182777D02*
X0005059Y0182777D01*
X0005059Y0183975D02*
X0009648Y0183975D01*
X0009152Y0185174D02*
X0005059Y0185174D01*
X0005059Y0186372D02*
X0009013Y0186372D01*
X0009075Y0187571D02*
X0005059Y0187571D01*
X0005059Y0188769D02*
X0009572Y0188769D01*
X0010528Y0189968D02*
X0005059Y0189968D01*
X0005059Y0191166D02*
X0012621Y0191166D01*
X0012858Y0191665D02*
X0014767Y0191665D01*
X0016532Y0192395D01*
X0017882Y0193746D01*
X0018613Y0195510D01*
X0018613Y0197419D01*
X0017882Y0199184D01*
X0016532Y0200534D01*
X0014767Y0201265D01*
X0012858Y0201265D01*
X0011094Y0200534D01*
X0009743Y0199184D01*
X0009013Y0197419D01*
X0009013Y0195510D01*
X0009743Y0193746D01*
X0011094Y0192395D01*
X0012858Y0191665D01*
X0011167Y0192365D02*
X0005059Y0192365D01*
X0005059Y0193563D02*
X0009926Y0193563D01*
X0009322Y0194762D02*
X0005059Y0194762D01*
X0005059Y0195960D02*
X0009013Y0195960D01*
X0009013Y0197159D02*
X0005059Y0197159D01*
X0005059Y0198357D02*
X0009401Y0198357D01*
X0010116Y0199556D02*
X0005059Y0199556D01*
X0005059Y0200754D02*
X0011626Y0200754D01*
X0012162Y0201953D02*
X0005059Y0201953D01*
X0005059Y0203151D02*
X0010338Y0203151D01*
X0009743Y0203746D02*
X0011094Y0202395D01*
X0012858Y0201665D01*
X0014767Y0201665D01*
X0016532Y0202395D01*
X0017882Y0203746D01*
X0018613Y0205510D01*
X0018613Y0207419D01*
X0017882Y0209184D01*
X0016532Y0210534D01*
X0014767Y0211265D01*
X0012858Y0211265D01*
X0011094Y0210534D01*
X0009743Y0209184D01*
X0009013Y0207419D01*
X0009013Y0205510D01*
X0009743Y0203746D01*
X0009493Y0204350D02*
X0005059Y0204350D01*
X0005059Y0205548D02*
X0009013Y0205548D01*
X0009013Y0206747D02*
X0005059Y0206747D01*
X0005059Y0207945D02*
X0009231Y0207945D01*
X0009727Y0209144D02*
X0005059Y0209144D01*
X0005059Y0210342D02*
X0010902Y0210342D01*
X0011094Y0212395D02*
X0012858Y0211665D01*
X0014767Y0211665D01*
X0016532Y0212395D01*
X0017882Y0213746D01*
X0018613Y0215510D01*
X0018613Y0217419D01*
X0017882Y0219184D01*
X0016532Y0220534D01*
X0014767Y0221265D01*
X0012858Y0221265D01*
X0011094Y0220534D01*
X0009743Y0219184D01*
X0009013Y0217419D01*
X0009013Y0215510D01*
X0009743Y0213746D01*
X0011094Y0212395D01*
X0010749Y0212739D02*
X0005059Y0212739D01*
X0005059Y0211541D02*
X0104692Y0211541D01*
X0104822Y0211856D02*
X0104324Y0210652D01*
X0104324Y0209348D01*
X0104822Y0208144D01*
X0105744Y0207222D01*
X0106948Y0206724D01*
X0108252Y0206724D01*
X0109456Y0207222D01*
X0110378Y0208144D01*
X0110876Y0209348D01*
X0110876Y0210652D01*
X0110378Y0211856D01*
X0110233Y0212000D01*
X0110378Y0212144D01*
X0110876Y0213348D01*
X0110876Y0214652D01*
X0110378Y0215856D01*
X0109456Y0216778D01*
X0108252Y0217276D01*
X0106948Y0217276D01*
X0105744Y0216778D01*
X0104822Y0215856D01*
X0104324Y0214652D01*
X0104324Y0213348D01*
X0104822Y0212144D01*
X0104966Y0212000D01*
X0104822Y0211856D01*
X0104576Y0212739D02*
X0026876Y0212739D01*
X0026532Y0212395D02*
X0027882Y0213746D01*
X0028613Y0215510D01*
X0028613Y0217419D01*
X0027882Y0219184D01*
X0026532Y0220534D01*
X0024767Y0221265D01*
X0022858Y0221265D01*
X0021094Y0220534D01*
X0019743Y0219184D01*
X0019013Y0217419D01*
X0019013Y0215510D01*
X0019743Y0213746D01*
X0021094Y0212395D01*
X0022858Y0211665D01*
X0024767Y0211665D01*
X0026532Y0212395D01*
X0026532Y0210534D02*
X0024767Y0211265D01*
X0022858Y0211265D01*
X0021094Y0210534D01*
X0019743Y0209184D01*
X0019013Y0207419D01*
X0019013Y0205510D01*
X0019743Y0203746D01*
X0021094Y0202395D01*
X0022858Y0201665D01*
X0024767Y0201665D01*
X0026532Y0202395D01*
X0027882Y0203746D01*
X0028613Y0205510D01*
X0028613Y0207419D01*
X0027882Y0209184D01*
X0026532Y0210534D01*
X0026723Y0210342D02*
X0104324Y0210342D01*
X0104408Y0209144D02*
X0027898Y0209144D01*
X0028395Y0207945D02*
X0105021Y0207945D01*
X0106892Y0206747D02*
X0028613Y0206747D01*
X0028613Y0205548D02*
X0236600Y0205548D01*
X0236600Y0204350D02*
X0028132Y0204350D01*
X0027288Y0203151D02*
X0236600Y0203151D01*
X0236600Y0201953D02*
X0025463Y0201953D01*
X0024767Y0201265D02*
X0022858Y0201265D01*
X0021094Y0200534D01*
X0019743Y0199184D01*
X0019013Y0197419D01*
X0019013Y0195510D01*
X0019743Y0193746D01*
X0021094Y0192395D01*
X0022858Y0191665D01*
X0024767Y0191665D01*
X0026532Y0192395D01*
X0027882Y0193746D01*
X0028613Y0195510D01*
X0028613Y0197419D01*
X0027882Y0199184D01*
X0026532Y0200534D01*
X0024767Y0201265D01*
X0025999Y0200754D02*
X0200721Y0200754D01*
X0200744Y0200778D02*
X0199822Y0199856D01*
X0199324Y0198652D01*
X0199324Y0197348D01*
X0199822Y0196144D01*
X0200744Y0195222D01*
X0201948Y0194724D01*
X0203252Y0194724D01*
X0204456Y0195222D01*
X0205378Y0196144D01*
X0205876Y0197348D01*
X0205876Y0198652D01*
X0205378Y0199856D01*
X0204456Y0200778D01*
X0203252Y0201276D01*
X0201948Y0201276D01*
X0200744Y0200778D01*
X0199698Y0199556D02*
X0027510Y0199556D01*
X0028224Y0198357D02*
X0199324Y0198357D01*
X0199402Y0197159D02*
X0028613Y0197159D01*
X0028613Y0195960D02*
X0200006Y0195960D01*
X0201856Y0194762D02*
X0139472Y0194762D01*
X0139456Y0194778D02*
X0138252Y0195276D01*
X0136948Y0195276D01*
X0135744Y0194778D01*
X0134822Y0193856D01*
X0134324Y0192652D01*
X0134324Y0191348D01*
X0134822Y0190144D01*
X0135744Y0189222D01*
X0136281Y0189000D01*
X0135744Y0188778D01*
X0134822Y0187856D01*
X0134324Y0186652D01*
X0134324Y0185348D01*
X0134822Y0184144D01*
X0135744Y0183222D01*
X0136948Y0182724D01*
X0138252Y0182724D01*
X0139456Y0183222D01*
X0140378Y0184144D01*
X0140876Y0185348D01*
X0140876Y0186652D01*
X0140378Y0187856D01*
X0139456Y0188778D01*
X0138919Y0189000D01*
X0139456Y0189222D01*
X0140378Y0190144D01*
X0140876Y0191348D01*
X0140876Y0192652D01*
X0140378Y0193856D01*
X0139456Y0194778D01*
X0140499Y0193563D02*
X0200530Y0193563D01*
X0200744Y0193778D02*
X0199822Y0192856D01*
X0199324Y0191652D01*
X0199324Y0190348D01*
X0199822Y0189144D01*
X0200744Y0188222D01*
X0201948Y0187724D01*
X0203252Y0187724D01*
X0204456Y0188222D01*
X0205378Y0189144D01*
X0205876Y0190348D01*
X0205876Y0191652D01*
X0205378Y0192856D01*
X0204456Y0193778D01*
X0203252Y0194276D01*
X0201948Y0194276D01*
X0200744Y0193778D01*
X0199619Y0192365D02*
X0140876Y0192365D01*
X0140801Y0191166D02*
X0199324Y0191166D01*
X0199481Y0189968D02*
X0140201Y0189968D01*
X0139464Y0188769D02*
X0200197Y0188769D01*
X0200744Y0186778D02*
X0199822Y0185856D01*
X0199324Y0184652D01*
X0199324Y0183348D01*
X0199822Y0182144D01*
X0200744Y0181222D01*
X0201948Y0180724D01*
X0203252Y0180724D01*
X0204456Y0181222D01*
X0205378Y0182144D01*
X0205876Y0183348D01*
X0205876Y0184652D01*
X0205378Y0185856D01*
X0204456Y0186778D01*
X0203252Y0187276D01*
X0201948Y0187276D01*
X0200744Y0186778D01*
X0200339Y0186372D02*
X0140876Y0186372D01*
X0140804Y0185174D02*
X0199540Y0185174D01*
X0199324Y0183975D02*
X0140209Y0183975D01*
X0138380Y0182777D02*
X0199560Y0182777D01*
X0200388Y0181578D02*
X0005059Y0181578D01*
X0016686Y0180380D02*
X0020939Y0180380D01*
X0021094Y0180534D02*
X0019743Y0179184D01*
X0019013Y0177419D01*
X0019013Y0175510D01*
X0019743Y0173746D01*
X0021094Y0172395D01*
X0022858Y0171665D01*
X0024767Y0171665D01*
X0026532Y0172395D01*
X0027882Y0173746D01*
X0028613Y0175510D01*
X0028613Y0177419D01*
X0027882Y0179184D01*
X0026532Y0180534D01*
X0024767Y0181265D01*
X0022858Y0181265D01*
X0021094Y0180534D01*
X0021094Y0182395D02*
X0022858Y0181665D01*
X0024767Y0181665D01*
X0026532Y0182395D01*
X0027882Y0183746D01*
X0028613Y0185510D01*
X0028613Y0187419D01*
X0027882Y0189184D01*
X0026532Y0190534D01*
X0024767Y0191265D01*
X0022858Y0191265D01*
X0021094Y0190534D01*
X0019743Y0189184D01*
X0019013Y0187419D01*
X0019013Y0185510D01*
X0019743Y0183746D01*
X0021094Y0182395D01*
X0020712Y0182777D02*
X0016913Y0182777D01*
X0017977Y0183975D02*
X0019648Y0183975D01*
X0019152Y0185174D02*
X0018473Y0185174D01*
X0018613Y0186372D02*
X0019013Y0186372D01*
X0019075Y0187571D02*
X0018550Y0187571D01*
X0018053Y0188769D02*
X0019572Y0188769D01*
X0020528Y0189968D02*
X0017098Y0189968D01*
X0015005Y0191166D02*
X0022621Y0191166D01*
X0021167Y0192365D02*
X0016458Y0192365D01*
X0017700Y0193563D02*
X0019926Y0193563D01*
X0019322Y0194762D02*
X0018303Y0194762D01*
X0018613Y0195960D02*
X0019013Y0195960D01*
X0019013Y0197159D02*
X0018613Y0197159D01*
X0018224Y0198357D02*
X0019401Y0198357D01*
X0020116Y0199556D02*
X0017510Y0199556D01*
X0015999Y0200754D02*
X0021626Y0200754D01*
X0022162Y0201953D02*
X0015463Y0201953D01*
X0017288Y0203151D02*
X0020338Y0203151D01*
X0019493Y0204350D02*
X0018132Y0204350D01*
X0018613Y0205548D02*
X0019013Y0205548D01*
X0019013Y0206747D02*
X0018613Y0206747D01*
X0018395Y0207945D02*
X0019231Y0207945D01*
X0019727Y0209144D02*
X0017898Y0209144D01*
X0016723Y0210342D02*
X0020902Y0210342D01*
X0020749Y0212739D02*
X0016876Y0212739D01*
X0017962Y0213938D02*
X0019664Y0213938D01*
X0019167Y0215137D02*
X0018458Y0215137D01*
X0018613Y0216335D02*
X0019013Y0216335D01*
X0019060Y0217534D02*
X0018565Y0217534D01*
X0018069Y0218732D02*
X0019556Y0218732D01*
X0020490Y0219931D02*
X0017135Y0219931D01*
X0015094Y0221129D02*
X0022531Y0221129D01*
X0022858Y0221665D02*
X0024767Y0221665D01*
X0026532Y0222395D01*
X0027882Y0223746D01*
X0028613Y0225510D01*
X0028613Y0227419D01*
X0027882Y0229184D01*
X0026532Y0230534D01*
X0024767Y0231265D01*
X0022858Y0231265D01*
X0021094Y0230534D01*
X0019743Y0229184D01*
X0019013Y0227419D01*
X0019013Y0225510D01*
X0019743Y0223746D01*
X0021094Y0222395D01*
X0022858Y0221665D01*
X0021257Y0222328D02*
X0016368Y0222328D01*
X0016532Y0222395D02*
X0017882Y0223746D01*
X0018613Y0225510D01*
X0018613Y0227419D01*
X0017882Y0229184D01*
X0016532Y0230534D01*
X0014767Y0231265D01*
X0012858Y0231265D01*
X0011094Y0230534D01*
X0009743Y0229184D01*
X0009013Y0227419D01*
X0009013Y0225510D01*
X0009743Y0223746D01*
X0011094Y0222395D01*
X0012858Y0221665D01*
X0014767Y0221665D01*
X0016532Y0222395D01*
X0017662Y0223526D02*
X0019963Y0223526D01*
X0019338Y0224725D02*
X0018287Y0224725D01*
X0018613Y0225923D02*
X0019013Y0225923D01*
X0019013Y0227122D02*
X0018613Y0227122D01*
X0018239Y0228320D02*
X0019386Y0228320D01*
X0020078Y0229519D02*
X0017547Y0229519D01*
X0016089Y0230717D02*
X0021536Y0230717D01*
X0026089Y0230717D02*
X0236600Y0230717D01*
X0236600Y0229519D02*
X0027547Y0229519D01*
X0028239Y0228320D02*
X0236600Y0228320D01*
X0236600Y0227122D02*
X0028613Y0227122D01*
X0028613Y0225923D02*
X0236600Y0225923D01*
X0236600Y0224725D02*
X0028287Y0224725D01*
X0027662Y0223526D02*
X0236600Y0223526D01*
X0236600Y0222328D02*
X0026368Y0222328D01*
X0025094Y0221129D02*
X0236600Y0221129D01*
X0236600Y0219931D02*
X0027135Y0219931D01*
X0028069Y0218732D02*
X0236600Y0218732D01*
X0236600Y0217534D02*
X0028565Y0217534D01*
X0028613Y0216335D02*
X0105302Y0216335D01*
X0104524Y0215137D02*
X0028458Y0215137D01*
X0027962Y0213938D02*
X0104324Y0213938D01*
X0109898Y0216335D02*
X0236600Y0216335D01*
X0236600Y0215137D02*
X0110676Y0215137D01*
X0110876Y0213938D02*
X0236600Y0213938D01*
X0236600Y0212739D02*
X0110624Y0212739D01*
X0110508Y0211541D02*
X0236600Y0211541D01*
X0236600Y0210342D02*
X0110876Y0210342D01*
X0110792Y0209144D02*
X0236600Y0209144D01*
X0236600Y0207945D02*
X0110179Y0207945D01*
X0108308Y0206747D02*
X0236600Y0206747D01*
X0236600Y0200754D02*
X0204479Y0200754D01*
X0205502Y0199556D02*
X0236600Y0199556D01*
X0236600Y0198357D02*
X0205876Y0198357D01*
X0205798Y0197159D02*
X0236600Y0197159D01*
X0236600Y0195960D02*
X0205194Y0195960D01*
X0203344Y0194762D02*
X0236600Y0194762D01*
X0236600Y0193563D02*
X0204670Y0193563D01*
X0205581Y0192365D02*
X0236600Y0192365D01*
X0236600Y0191166D02*
X0205876Y0191166D01*
X0205719Y0189968D02*
X0236600Y0189968D01*
X0236600Y0188769D02*
X0205003Y0188769D01*
X0204861Y0186372D02*
X0236600Y0186372D01*
X0236600Y0185174D02*
X0205660Y0185174D01*
X0205876Y0183975D02*
X0236600Y0183975D01*
X0236600Y0182777D02*
X0205640Y0182777D01*
X0204812Y0181578D02*
X0236600Y0181578D01*
X0236600Y0180380D02*
X0026686Y0180380D01*
X0027883Y0179181D02*
X0200148Y0179181D01*
X0199822Y0178856D02*
X0199324Y0177652D01*
X0199324Y0176348D01*
X0199822Y0175144D01*
X0200744Y0174222D01*
X0201948Y0173724D01*
X0203252Y0173724D01*
X0204456Y0174222D01*
X0205378Y0175144D01*
X0205876Y0176348D01*
X0205876Y0177652D01*
X0205378Y0178856D01*
X0204456Y0179778D01*
X0203252Y0180276D01*
X0201948Y0180276D01*
X0200744Y0179778D01*
X0199822Y0178856D01*
X0199461Y0177983D02*
X0028379Y0177983D01*
X0028613Y0176784D02*
X0199324Y0176784D01*
X0199640Y0175586D02*
X0028613Y0175586D01*
X0028148Y0174387D02*
X0200579Y0174387D01*
X0204621Y0174387D02*
X0236600Y0174387D01*
X0236600Y0173189D02*
X0027325Y0173189D01*
X0025553Y0171990D02*
X0236600Y0171990D01*
X0236600Y0170792D02*
X0025909Y0170792D01*
X0026532Y0170534D02*
X0024767Y0171265D01*
X0022858Y0171265D01*
X0021094Y0170534D01*
X0019743Y0169184D01*
X0019013Y0167419D01*
X0019013Y0165510D01*
X0019743Y0163746D01*
X0021094Y0162395D01*
X0022858Y0161665D01*
X0024767Y0161665D01*
X0026532Y0162395D01*
X0027882Y0163746D01*
X0028613Y0165510D01*
X0028613Y0167419D01*
X0027882Y0169184D01*
X0026532Y0170534D01*
X0027472Y0169593D02*
X0236600Y0169593D01*
X0236600Y0168395D02*
X0028209Y0168395D01*
X0028613Y0167196D02*
X0236600Y0167196D01*
X0236600Y0165998D02*
X0028613Y0165998D01*
X0028318Y0164799D02*
X0236600Y0164799D01*
X0236600Y0163601D02*
X0027737Y0163601D01*
X0026538Y0162402D02*
X0236600Y0162402D01*
X0236600Y0161203D02*
X0024915Y0161203D01*
X0024767Y0161265D02*
X0022858Y0161265D01*
X0021094Y0160534D01*
X0019743Y0159184D01*
X0019013Y0157419D01*
X0019013Y0155510D01*
X0019743Y0153746D01*
X0021094Y0152395D01*
X0022858Y0151665D01*
X0024767Y0151665D01*
X0026532Y0152395D01*
X0027882Y0153746D01*
X0028613Y0155510D01*
X0028613Y0157419D01*
X0027882Y0159184D01*
X0026532Y0160534D01*
X0024767Y0161265D01*
X0022710Y0161203D02*
X0014915Y0161203D01*
X0016538Y0162402D02*
X0021087Y0162402D01*
X0019888Y0163601D02*
X0017737Y0163601D01*
X0018318Y0164799D02*
X0019307Y0164799D01*
X0019013Y0165998D02*
X0018613Y0165998D01*
X0018613Y0167196D02*
X0019013Y0167196D01*
X0019417Y0168395D02*
X0018209Y0168395D01*
X0017472Y0169593D02*
X0020153Y0169593D01*
X0021716Y0170792D02*
X0015909Y0170792D01*
X0015553Y0171990D02*
X0022072Y0171990D01*
X0020300Y0173189D02*
X0017325Y0173189D01*
X0018148Y0174387D02*
X0019478Y0174387D01*
X0019013Y0175586D02*
X0018613Y0175586D01*
X0018613Y0176784D02*
X0019013Y0176784D01*
X0019246Y0177983D02*
X0018379Y0177983D01*
X0017883Y0179181D02*
X0019742Y0179181D01*
X0026913Y0182777D02*
X0136820Y0182777D01*
X0134991Y0183975D02*
X0027977Y0183975D01*
X0028473Y0185174D02*
X0134396Y0185174D01*
X0134324Y0186372D02*
X0028613Y0186372D01*
X0028550Y0187571D02*
X0134704Y0187571D01*
X0135736Y0188769D02*
X0028053Y0188769D01*
X0027098Y0189968D02*
X0134999Y0189968D01*
X0134399Y0191166D02*
X0025005Y0191166D01*
X0026458Y0192365D02*
X0134324Y0192365D01*
X0134701Y0193563D02*
X0027700Y0193563D01*
X0028303Y0194762D02*
X0135728Y0194762D01*
X0140496Y0187571D02*
X0236600Y0187571D01*
X0236600Y0179181D02*
X0205052Y0179181D01*
X0205739Y0177983D02*
X0236600Y0177983D01*
X0236600Y0176784D02*
X0205876Y0176784D01*
X0205560Y0175586D02*
X0236600Y0175586D01*
X0236600Y0160005D02*
X0207329Y0160005D01*
X0206956Y0160378D02*
X0207878Y0159456D01*
X0208376Y0158252D01*
X0208376Y0156948D01*
X0207878Y0155744D01*
X0206956Y0154822D01*
X0205752Y0154324D01*
X0204448Y0154324D01*
X0203244Y0154822D01*
X0203100Y0154966D01*
X0202956Y0154822D01*
X0201752Y0154324D01*
X0200448Y0154324D01*
X0199244Y0154822D01*
X0198322Y0155744D01*
X0197824Y0156948D01*
X0197824Y0158252D01*
X0198322Y0159456D01*
X0199244Y0160378D01*
X0200448Y0160876D01*
X0201752Y0160876D01*
X0202956Y0160378D01*
X0203100Y0160233D01*
X0203244Y0160378D01*
X0204448Y0160876D01*
X0205752Y0160876D01*
X0206956Y0160378D01*
X0208147Y0158806D02*
X0236600Y0158806D01*
X0236600Y0157608D02*
X0208376Y0157608D01*
X0208153Y0156409D02*
X0236600Y0156409D01*
X0236600Y0155211D02*
X0207344Y0155211D01*
X0198856Y0155211D02*
X0112410Y0155211D01*
X0112252Y0155276D02*
X0110948Y0155276D01*
X0109744Y0154778D01*
X0109100Y0154133D01*
X0108456Y0154778D01*
X0107252Y0155276D01*
X0105948Y0155276D01*
X0104744Y0154778D01*
X0103822Y0153856D01*
X0103324Y0152652D01*
X0103324Y0151348D01*
X0103822Y0150144D01*
X0103966Y0150000D01*
X0103822Y0149856D01*
X0103324Y0148652D01*
X0103324Y0147348D01*
X0103822Y0146144D01*
X0104744Y0145222D01*
X0105948Y0144724D01*
X0107252Y0144724D01*
X0108456Y0145222D01*
X0109100Y0145866D01*
X0109744Y0145222D01*
X0110948Y0144724D01*
X0112252Y0144724D01*
X0113456Y0145222D01*
X0114378Y0146144D01*
X0114876Y0147348D01*
X0114876Y0148652D01*
X0114378Y0149856D01*
X0114233Y0150000D01*
X0114378Y0150144D01*
X0114876Y0151348D01*
X0114876Y0152652D01*
X0114378Y0153856D01*
X0113456Y0154778D01*
X0112252Y0155276D01*
X0110790Y0155211D02*
X0107410Y0155211D01*
X0105790Y0155211D02*
X0028489Y0155211D01*
X0028613Y0156409D02*
X0198047Y0156409D01*
X0197824Y0157608D02*
X0028534Y0157608D01*
X0028038Y0158806D02*
X0198053Y0158806D01*
X0198871Y0160005D02*
X0027060Y0160005D01*
X0027992Y0154012D02*
X0103979Y0154012D01*
X0103391Y0152814D02*
X0026950Y0152814D01*
X0026648Y0150417D02*
X0103709Y0150417D01*
X0103558Y0149218D02*
X0027847Y0149218D01*
X0028364Y0148020D02*
X0103324Y0148020D01*
X0103542Y0146821D02*
X0028613Y0146821D01*
X0028613Y0145623D02*
X0104344Y0145623D01*
X0108856Y0145623D02*
X0109344Y0145623D01*
X0113856Y0145623D02*
X0191589Y0145623D01*
X0191744Y0145778D02*
X0190822Y0144856D01*
X0190324Y0143652D01*
X0190324Y0142348D01*
X0190822Y0141144D01*
X0191744Y0140222D01*
X0192948Y0139724D01*
X0194252Y0139724D01*
X0195456Y0140222D01*
X0196378Y0141144D01*
X0196876Y0142348D01*
X0196876Y0143652D01*
X0196378Y0144856D01*
X0195456Y0145778D01*
X0194252Y0146276D01*
X0192948Y0146276D01*
X0191744Y0145778D01*
X0190644Y0144424D02*
X0028163Y0144424D01*
X0027362Y0143226D02*
X0146826Y0143226D01*
X0148374Y0143226D02*
X0180826Y0143226D01*
X0180948Y0143276D02*
X0179744Y0142778D01*
X0178822Y0141856D01*
X0178324Y0140652D01*
X0178324Y0139348D01*
X0178822Y0138144D01*
X0179744Y0137222D01*
X0180948Y0136724D01*
X0182252Y0136724D01*
X0183456Y0137222D01*
X0184378Y0138144D01*
X0184876Y0139348D01*
X0184876Y0140652D01*
X0184378Y0141856D01*
X0183456Y0142778D01*
X0182252Y0143276D01*
X0180948Y0143276D01*
X0182374Y0143226D02*
X0190324Y0143226D01*
X0190457Y0142027D02*
X0184206Y0142027D01*
X0184803Y0140829D02*
X0191138Y0140829D01*
X0196062Y0140829D02*
X0236600Y0140829D01*
X0236600Y0142027D02*
X0196743Y0142027D01*
X0196876Y0143226D02*
X0236600Y0143226D01*
X0236600Y0144424D02*
X0196556Y0144424D01*
X0195611Y0145623D02*
X0236600Y0145623D01*
X0236600Y0146821D02*
X0114658Y0146821D01*
X0114876Y0148020D02*
X0236600Y0148020D01*
X0236600Y0149218D02*
X0114642Y0149218D01*
X0114491Y0150417D02*
X0236600Y0150417D01*
X0236600Y0151615D02*
X0114876Y0151615D01*
X0114809Y0152814D02*
X0236600Y0152814D01*
X0236600Y0154012D02*
X0114221Y0154012D01*
X0103324Y0151615D02*
X0005059Y0151615D01*
X0016648Y0150417D02*
X0020977Y0150417D01*
X0019778Y0149218D02*
X0017847Y0149218D01*
X0018364Y0148020D02*
X0019261Y0148020D01*
X0019013Y0146821D02*
X0018613Y0146821D01*
X0018613Y0145623D02*
X0019013Y0145623D01*
X0019462Y0144424D02*
X0018163Y0144424D01*
X0017362Y0143226D02*
X0020263Y0143226D01*
X0020675Y0152814D02*
X0016950Y0152814D01*
X0017992Y0154012D02*
X0019633Y0154012D01*
X0019136Y0155211D02*
X0018489Y0155211D01*
X0018613Y0156409D02*
X0019013Y0156409D01*
X0019091Y0157608D02*
X0018534Y0157608D01*
X0018038Y0158806D02*
X0019587Y0158806D01*
X0020565Y0160005D02*
X0017060Y0160005D01*
X0009664Y0213938D02*
X0005059Y0213938D01*
X0005059Y0215137D02*
X0009167Y0215137D01*
X0009013Y0216335D02*
X0005059Y0216335D01*
X0005059Y0217534D02*
X0009060Y0217534D01*
X0009556Y0218732D02*
X0005059Y0218732D01*
X0005059Y0219931D02*
X0010490Y0219931D01*
X0012531Y0221129D02*
X0005059Y0221129D01*
X0005059Y0222328D02*
X0011257Y0222328D01*
X0009963Y0223526D02*
X0005059Y0223526D01*
X0005059Y0224725D02*
X0009338Y0224725D01*
X0009013Y0225923D02*
X0005059Y0225923D01*
X0005059Y0227122D02*
X0009013Y0227122D01*
X0009386Y0228320D02*
X0005059Y0228320D01*
X0005059Y0229519D02*
X0010078Y0229519D01*
X0011536Y0230717D02*
X0005059Y0230717D01*
X0005059Y0231916D02*
X0236600Y0231916D01*
X0236600Y0233114D02*
X0005059Y0233114D01*
X0005059Y0234313D02*
X0236600Y0234313D01*
X0236600Y0235511D02*
X0005059Y0235511D01*
X0005059Y0236710D02*
X0236600Y0236710D01*
X0236600Y0237908D02*
X0213029Y0237908D01*
X0212315Y0237613D02*
X0215076Y0238756D01*
X0217190Y0240870D01*
X0218334Y0243631D01*
X0218334Y0246620D01*
X0217190Y0249382D01*
X0215076Y0251496D01*
X0212315Y0252639D01*
X0209326Y0252639D01*
X0206564Y0251496D01*
X0204451Y0249382D01*
X0203307Y0246620D01*
X0203307Y0243631D01*
X0204451Y0240870D01*
X0206564Y0238756D01*
X0209326Y0237613D01*
X0212315Y0237613D01*
X0215427Y0239107D02*
X0236600Y0239107D01*
X0236600Y0240305D02*
X0216625Y0240305D01*
X0217453Y0241504D02*
X0236600Y0241504D01*
X0236600Y0242702D02*
X0217949Y0242702D01*
X0218334Y0243901D02*
X0236600Y0243901D01*
X0236600Y0245099D02*
X0218334Y0245099D01*
X0218334Y0246298D02*
X0236600Y0246298D01*
X0236600Y0247496D02*
X0217971Y0247496D01*
X0217475Y0248695D02*
X0236600Y0248695D01*
X0236600Y0249893D02*
X0216679Y0249893D01*
X0215480Y0251092D02*
X0236600Y0251092D01*
X0236600Y0252290D02*
X0213158Y0252290D01*
X0208483Y0252290D02*
X0104847Y0252290D01*
X0104669Y0252719D02*
X0105400Y0250955D01*
X0105400Y0249045D01*
X0104669Y0247281D01*
X0103319Y0245931D01*
X0101555Y0245200D01*
X0099645Y0245200D01*
X0097881Y0245931D01*
X0096531Y0247281D01*
X0095800Y0249045D01*
X0095800Y0250955D01*
X0096531Y0252719D01*
X0097881Y0254069D01*
X0099645Y0254800D01*
X0101555Y0254800D01*
X0103319Y0254069D01*
X0104669Y0252719D01*
X0103899Y0253489D02*
X0236600Y0253489D01*
X0236600Y0254687D02*
X0101827Y0254687D01*
X0099373Y0254687D02*
X0091827Y0254687D01*
X0091555Y0254800D02*
X0089645Y0254800D01*
X0087881Y0254069D01*
X0086531Y0252719D01*
X0085800Y0250955D01*
X0085800Y0249045D01*
X0086531Y0247281D01*
X0087881Y0245931D01*
X0089645Y0245200D01*
X0091555Y0245200D01*
X0093319Y0245931D01*
X0094669Y0247281D01*
X0095400Y0249045D01*
X0095400Y0250955D01*
X0094669Y0252719D01*
X0093319Y0254069D01*
X0091555Y0254800D01*
X0089373Y0254687D02*
X0060827Y0254687D01*
X0060555Y0254800D02*
X0058645Y0254800D01*
X0056881Y0254069D01*
X0055531Y0252719D01*
X0054800Y0250955D01*
X0054800Y0249045D01*
X0055531Y0247281D01*
X0056881Y0245931D01*
X0058645Y0245200D01*
X0060555Y0245200D01*
X0062319Y0245931D01*
X0063669Y0247281D01*
X0064400Y0249045D01*
X0064400Y0250955D01*
X0063669Y0252719D01*
X0062319Y0254069D01*
X0060555Y0254800D01*
X0058373Y0254687D02*
X0050827Y0254687D01*
X0050555Y0254800D02*
X0048645Y0254800D01*
X0046881Y0254069D01*
X0045531Y0252719D01*
X0044800Y0250955D01*
X0044800Y0249045D01*
X0045531Y0247281D01*
X0046881Y0245931D01*
X0048645Y0245200D01*
X0050555Y0245200D01*
X0052319Y0245931D01*
X0053669Y0247281D01*
X0054400Y0249045D01*
X0054400Y0250955D01*
X0053669Y0252719D01*
X0052319Y0254069D01*
X0050555Y0254800D01*
X0048373Y0254687D02*
X0005059Y0254687D01*
X0005059Y0253489D02*
X0036583Y0253489D01*
X0036603Y0253509D02*
X0036091Y0252997D01*
X0035666Y0252411D01*
X0035337Y0251766D01*
X0035113Y0251077D01*
X0035006Y0250400D01*
X0039200Y0250400D01*
X0039200Y0254594D01*
X0038523Y0254487D01*
X0037834Y0254263D01*
X0037189Y0253934D01*
X0036603Y0253509D01*
X0035604Y0252290D02*
X0020244Y0252290D01*
X0019402Y0252639D02*
X0016413Y0252639D01*
X0013651Y0251496D01*
X0011538Y0249382D01*
X0010394Y0246620D01*
X0010394Y0243631D01*
X0011538Y0240870D01*
X0013651Y0238756D01*
X0016413Y0237613D01*
X0019402Y0237613D01*
X0022163Y0238756D01*
X0024277Y0240870D01*
X0025420Y0243631D01*
X0025420Y0246620D01*
X0024277Y0249382D01*
X0022163Y0251496D01*
X0019402Y0252639D01*
X0022567Y0251092D02*
X0035118Y0251092D01*
X0035006Y0249600D02*
X0035113Y0248923D01*
X0035337Y0248234D01*
X0035666Y0247589D01*
X0036091Y0247003D01*
X0036603Y0246491D01*
X0037189Y0246066D01*
X0037834Y0245737D01*
X0038523Y0245513D01*
X0039200Y0245406D01*
X0039200Y0249600D01*
X0035006Y0249600D01*
X0035187Y0248695D02*
X0024561Y0248695D01*
X0025058Y0247496D02*
X0035733Y0247496D01*
X0036870Y0246298D02*
X0025420Y0246298D01*
X0025420Y0245099D02*
X0203307Y0245099D01*
X0203307Y0243901D02*
X0025420Y0243901D01*
X0025036Y0242702D02*
X0203692Y0242702D01*
X0204188Y0241504D02*
X0024539Y0241504D01*
X0023712Y0240305D02*
X0205016Y0240305D01*
X0206214Y0239107D02*
X0022513Y0239107D01*
X0020115Y0237908D02*
X0208612Y0237908D01*
X0203307Y0246298D02*
X0103686Y0246298D01*
X0104758Y0247496D02*
X0203670Y0247496D01*
X0204166Y0248695D02*
X0105255Y0248695D01*
X0105400Y0249893D02*
X0204962Y0249893D01*
X0206161Y0251092D02*
X0105343Y0251092D01*
X0097301Y0253489D02*
X0093899Y0253489D01*
X0094847Y0252290D02*
X0096353Y0252290D01*
X0095857Y0251092D02*
X0095343Y0251092D01*
X0095400Y0249893D02*
X0095800Y0249893D01*
X0095945Y0248695D02*
X0095255Y0248695D01*
X0094758Y0247496D02*
X0096442Y0247496D01*
X0097514Y0246298D02*
X0093686Y0246298D01*
X0087514Y0246298D02*
X0083330Y0246298D01*
X0083597Y0246491D02*
X0084109Y0247003D01*
X0084534Y0247589D01*
X0084863Y0248234D01*
X0085087Y0248923D01*
X0085194Y0249600D01*
X0081000Y0249600D01*
X0081000Y0250400D01*
X0080200Y0250400D01*
X0080200Y0254594D01*
X0079523Y0254487D01*
X0078834Y0254263D01*
X0078189Y0253934D01*
X0077603Y0253509D01*
X0077091Y0252997D01*
X0076666Y0252411D01*
X0076337Y0251766D01*
X0076113Y0251077D01*
X0076006Y0250400D01*
X0080200Y0250400D01*
X0080200Y0249600D01*
X0076006Y0249600D01*
X0076113Y0248923D01*
X0076337Y0248234D01*
X0076666Y0247589D01*
X0077091Y0247003D01*
X0077603Y0246491D01*
X0078189Y0246066D01*
X0078834Y0245737D01*
X0079523Y0245513D01*
X0080200Y0245406D01*
X0080200Y0249600D01*
X0081000Y0249600D01*
X0081000Y0245406D01*
X0081677Y0245513D01*
X0082366Y0245737D01*
X0083011Y0246066D01*
X0083597Y0246491D01*
X0084467Y0247496D02*
X0086442Y0247496D01*
X0085945Y0248695D02*
X0085013Y0248695D01*
X0085800Y0249893D02*
X0081000Y0249893D01*
X0081000Y0250400D02*
X0085194Y0250400D01*
X0085087Y0251077D01*
X0084863Y0251766D01*
X0084534Y0252411D01*
X0084109Y0252997D01*
X0083597Y0253509D01*
X0083011Y0253934D01*
X0082366Y0254263D01*
X0081677Y0254487D01*
X0081000Y0254594D01*
X0081000Y0250400D01*
X0081000Y0251092D02*
X0080200Y0251092D01*
X0080200Y0252290D02*
X0081000Y0252290D01*
X0081000Y0253489D02*
X0080200Y0253489D01*
X0077583Y0253489D02*
X0062899Y0253489D01*
X0063847Y0252290D02*
X0076604Y0252290D01*
X0076118Y0251092D02*
X0064343Y0251092D01*
X0064400Y0249893D02*
X0080200Y0249893D01*
X0080200Y0248695D02*
X0081000Y0248695D01*
X0081000Y0247496D02*
X0080200Y0247496D01*
X0080200Y0246298D02*
X0081000Y0246298D01*
X0077870Y0246298D02*
X0062686Y0246298D01*
X0063758Y0247496D02*
X0076733Y0247496D01*
X0076187Y0248695D02*
X0064255Y0248695D01*
X0056514Y0246298D02*
X0052686Y0246298D01*
X0053758Y0247496D02*
X0055442Y0247496D01*
X0054945Y0248695D02*
X0054255Y0248695D01*
X0054400Y0249893D02*
X0054800Y0249893D01*
X0054857Y0251092D02*
X0054343Y0251092D01*
X0053847Y0252290D02*
X0055353Y0252290D01*
X0056301Y0253489D02*
X0052899Y0253489D01*
X0046301Y0253489D02*
X0042616Y0253489D01*
X0042597Y0253509D02*
X0042011Y0253934D01*
X0041366Y0254263D01*
X0040677Y0254487D01*
X0040000Y0254594D01*
X0040000Y0250400D01*
X0039200Y0250400D01*
X0039200Y0249600D01*
X0040000Y0249600D01*
X0040000Y0250400D01*
X0044194Y0250400D01*
X0044087Y0251077D01*
X0043863Y0251766D01*
X0043534Y0252411D01*
X0043109Y0252997D01*
X0042597Y0253509D01*
X0043596Y0252290D02*
X0045353Y0252290D01*
X0044857Y0251092D02*
X0044082Y0251092D01*
X0044800Y0249893D02*
X0040000Y0249893D01*
X0040000Y0249600D02*
X0044194Y0249600D01*
X0044087Y0248923D01*
X0043863Y0248234D01*
X0043534Y0247589D01*
X0043109Y0247003D01*
X0042597Y0246491D01*
X0042011Y0246066D01*
X0041366Y0245737D01*
X0040677Y0245513D01*
X0040000Y0245406D01*
X0040000Y0249600D01*
X0039200Y0249893D02*
X0023765Y0249893D01*
X0015570Y0252290D02*
X0005059Y0252290D01*
X0005059Y0251092D02*
X0013247Y0251092D01*
X0012049Y0249893D02*
X0005059Y0249893D01*
X0005059Y0248695D02*
X0011253Y0248695D01*
X0010756Y0247496D02*
X0005059Y0247496D01*
X0005059Y0246298D02*
X0010394Y0246298D01*
X0010394Y0245099D02*
X0005059Y0245099D01*
X0005059Y0243901D02*
X0010394Y0243901D01*
X0010779Y0242702D02*
X0005059Y0242702D01*
X0005059Y0241504D02*
X0011275Y0241504D01*
X0012102Y0240305D02*
X0005059Y0240305D01*
X0005059Y0239107D02*
X0013301Y0239107D01*
X0015699Y0237908D02*
X0005059Y0237908D01*
X0005059Y0255886D02*
X0236600Y0255886D01*
X0236600Y0257084D02*
X0005059Y0257084D01*
X0005059Y0258283D02*
X0236600Y0258283D01*
X0236600Y0259481D02*
X0005237Y0259481D01*
X0005881Y0260680D02*
X0236600Y0260680D01*
X0236600Y0261878D02*
X0006967Y0261878D01*
X0009734Y0263077D02*
X0011354Y0263077D01*
X0039200Y0253489D02*
X0040000Y0253489D01*
X0040000Y0252290D02*
X0039200Y0252290D01*
X0039200Y0251092D02*
X0040000Y0251092D01*
X0040000Y0248695D02*
X0039200Y0248695D01*
X0039200Y0247496D02*
X0040000Y0247496D01*
X0040000Y0246298D02*
X0039200Y0246298D01*
X0042330Y0246298D02*
X0046514Y0246298D01*
X0045442Y0247496D02*
X0043467Y0247496D01*
X0044013Y0248695D02*
X0044945Y0248695D01*
X0083616Y0253489D02*
X0087301Y0253489D01*
X0086353Y0252290D02*
X0084596Y0252290D01*
X0085082Y0251092D02*
X0085857Y0251092D01*
X0150206Y0142027D02*
X0178994Y0142027D01*
X0178397Y0140829D02*
X0150803Y0140829D01*
X0150876Y0139630D02*
X0178324Y0139630D01*
X0178703Y0138432D02*
X0150497Y0138432D01*
X0149467Y0137233D02*
X0179733Y0137233D01*
X0183467Y0137233D02*
X0236600Y0137233D01*
X0236600Y0136035D02*
X0146746Y0136035D01*
X0184497Y0138432D02*
X0236600Y0138432D01*
X0236600Y0139630D02*
X0184876Y0139630D01*
D16*
X0284600Y0230000D03*
X0354600Y0238000D03*
M02*
