G75*
%MOIN*%
%OFA0B0*%
%FSLAX25Y25*%
%IPPOS*%
%LPD*%
%AMOC8*
5,1,8,0,0,1.08239X$1,22.5*
%
%ADD10C,0.06000*%
%ADD11C,0.12400*%
%ADD12C,0.11811*%
%ADD13C,0.06600*%
%ADD14C,0.02953*%
%ADD15C,0.01200*%
%ADD16C,0.03543*%
%ADD17C,0.02400*%
D10*
X0046600Y0011000D03*
X0056600Y0011000D03*
X0068600Y0011000D03*
X0078600Y0011000D03*
X0090600Y0011000D03*
X0100600Y0011000D03*
X0112600Y0011000D03*
X0122600Y0011000D03*
X0134600Y0011000D03*
X0144600Y0011000D03*
X0154600Y0011000D03*
X0166600Y0011000D03*
X0176600Y0011000D03*
X0186600Y0011000D03*
X0023813Y0036465D03*
X0013813Y0036465D03*
X0013813Y0046465D03*
X0023813Y0046465D03*
X0023813Y0056465D03*
X0013813Y0056465D03*
X0013813Y0066465D03*
X0023813Y0066465D03*
X0023813Y0076465D03*
X0013813Y0076465D03*
X0013813Y0086465D03*
X0023813Y0086465D03*
X0023813Y0096465D03*
X0013813Y0096465D03*
X0013813Y0106465D03*
X0023813Y0106465D03*
X0023813Y0116465D03*
X0013813Y0116465D03*
X0013813Y0126465D03*
X0023813Y0126465D03*
X0023813Y0136465D03*
X0013813Y0136465D03*
X0013813Y0146465D03*
X0023813Y0146465D03*
X0023813Y0156465D03*
X0013813Y0156465D03*
X0013813Y0166465D03*
X0023813Y0166465D03*
X0023813Y0176465D03*
X0013813Y0176465D03*
X0013813Y0186465D03*
X0023813Y0186465D03*
X0023813Y0196465D03*
X0013813Y0196465D03*
X0013813Y0206465D03*
X0023813Y0206465D03*
X0023813Y0216465D03*
X0013813Y0216465D03*
X0013813Y0226465D03*
X0023813Y0226465D03*
X0039600Y0250000D03*
X0049600Y0250000D03*
X0059600Y0250000D03*
X0080600Y0250000D03*
X0090600Y0250000D03*
X0100600Y0250000D03*
X0267600Y0248000D03*
X0281600Y0248000D03*
X0281600Y0238000D03*
X0267600Y0238000D03*
X0267600Y0258000D03*
X0281600Y0258000D03*
X0343600Y0251000D03*
X0413600Y0251000D03*
D11*
X0368600Y0221370D03*
X0348915Y0216094D03*
X0334506Y0201685D03*
X0329230Y0182000D03*
X0334506Y0162315D03*
X0348915Y0147906D03*
X0368600Y0142630D03*
X0388285Y0147906D03*
X0402694Y0162315D03*
X0407970Y0182000D03*
X0402694Y0201685D03*
X0366510Y0109462D03*
X0379609Y0093850D03*
X0383147Y0073781D03*
X0360566Y0041531D03*
X0340497Y0037992D03*
D12*
X0313600Y0034000D03*
X0293600Y0034000D03*
X0388285Y0216094D03*
D13*
X0312600Y0148000D03*
D14*
X0315600Y0135000D03*
X0315600Y0131000D03*
X0287600Y0132000D03*
X0283600Y0148000D03*
X0289600Y0169000D03*
X0294600Y0169000D03*
X0299600Y0169000D03*
X0290600Y0189000D03*
X0290600Y0209000D03*
X0295600Y0209000D03*
X0300600Y0209000D03*
X0306600Y0239000D03*
X0306600Y0244000D03*
X0311600Y0244000D03*
X0311600Y0239000D03*
X0316600Y0239000D03*
X0316600Y0244000D03*
X0316600Y0249000D03*
X0311600Y0249000D03*
X0306600Y0249000D03*
X0306600Y0254000D03*
X0311600Y0254000D03*
X0316600Y0254000D03*
X0316600Y0259000D03*
X0311600Y0259000D03*
X0306600Y0259000D03*
X0211600Y0222000D03*
X0202600Y0198000D03*
X0202600Y0191000D03*
X0202600Y0184000D03*
X0202600Y0177000D03*
X0218600Y0189000D03*
X0205100Y0157600D03*
X0201100Y0157600D03*
X0211600Y0156000D03*
X0193600Y0143000D03*
X0181600Y0140000D03*
X0182600Y0122000D03*
X0186600Y0122000D03*
X0190600Y0122000D03*
X0218600Y0130000D03*
X0211600Y0097000D03*
X0190600Y0072000D03*
X0190600Y0066000D03*
X0184600Y0066000D03*
X0178600Y0066000D03*
X0166600Y0062000D03*
X0162600Y0062000D03*
X0146600Y0062000D03*
X0142600Y0060000D03*
X0138600Y0062000D03*
X0129600Y0044000D03*
X0149600Y0044000D03*
X0181254Y0044346D03*
X0218600Y0052000D03*
X0164600Y0089000D03*
X0144100Y0088600D03*
X0144100Y0094600D03*
X0135600Y0111000D03*
X0129600Y0111000D03*
X0104600Y0107000D03*
X0104600Y0101000D03*
X0098600Y0101000D03*
X0087600Y0087000D03*
X0115600Y0073000D03*
X0115600Y0069000D03*
X0115600Y0065000D03*
X0081600Y0066000D03*
X0081600Y0062000D03*
X0081600Y0058000D03*
X0062600Y0067000D03*
X0058600Y0067000D03*
X0059600Y0058000D03*
X0062600Y0043000D03*
X0064600Y0029000D03*
X0085600Y0043000D03*
X0107600Y0043000D03*
X0039600Y0043000D03*
X0042600Y0023000D03*
X0143600Y0137000D03*
X0147600Y0140000D03*
X0111600Y0148000D03*
X0111600Y0152000D03*
X0106600Y0152000D03*
X0106600Y0148000D03*
X0082600Y0146000D03*
X0137600Y0186000D03*
X0137600Y0192000D03*
X0125600Y0198000D03*
X0107600Y0210000D03*
X0107600Y0214000D03*
X0273600Y0111000D03*
X0292600Y0110000D03*
X0292600Y0114000D03*
X0305600Y0113000D03*
X0312600Y0113000D03*
X0293600Y0091000D03*
X0292600Y0072000D03*
X0297600Y0072000D03*
X0302600Y0072000D03*
X0293600Y0054000D03*
D15*
X0043018Y0007794D02*
X0008493Y0007794D01*
X0008545Y0007741D02*
X0006900Y0009386D01*
X0005737Y0011401D01*
X0005135Y0013648D01*
X0005059Y0014811D01*
X0005059Y0107000D01*
X0009013Y0107000D01*
X0009013Y0105510D01*
X0009743Y0103746D01*
X0011094Y0102395D01*
X0012858Y0101665D01*
X0014767Y0101665D01*
X0016532Y0102395D01*
X0017882Y0103746D01*
X0018613Y0105510D01*
X0018613Y0107000D01*
X0019013Y0107000D01*
X0019013Y0105510D01*
X0019743Y0103746D01*
X0021094Y0102395D01*
X0022858Y0101665D01*
X0024767Y0101665D01*
X0026532Y0102395D01*
X0027882Y0103746D01*
X0028613Y0105510D01*
X0028613Y0107000D01*
X0101324Y0107000D01*
X0101324Y0106348D01*
X0101822Y0105144D01*
X0102744Y0104222D01*
X0103281Y0104000D01*
X0102744Y0103778D01*
X0101822Y0102856D01*
X0101600Y0102319D01*
X0101378Y0102856D01*
X0100456Y0103778D01*
X0099252Y0104276D01*
X0097948Y0104276D01*
X0096744Y0103778D01*
X0095822Y0102856D01*
X0095324Y0101652D01*
X0095324Y0100348D01*
X0095822Y0099144D01*
X0096744Y0098222D01*
X0097948Y0097724D01*
X0099252Y0097724D01*
X0100456Y0098222D01*
X0101378Y0099144D01*
X0101600Y0099681D01*
X0101822Y0099144D01*
X0102744Y0098222D01*
X0103948Y0097724D01*
X0105252Y0097724D01*
X0106456Y0098222D01*
X0107378Y0099144D01*
X0107876Y0100348D01*
X0107876Y0101652D01*
X0107378Y0102856D01*
X0106456Y0103778D01*
X0105919Y0104000D01*
X0106456Y0104222D01*
X0107378Y0105144D01*
X0107876Y0106348D01*
X0107876Y0107000D01*
X0236600Y0107000D01*
X0236600Y0005900D01*
X0013970Y0005900D01*
X0012807Y0005976D01*
X0010560Y0006578D01*
X0008545Y0007741D01*
X0007294Y0008993D02*
X0042236Y0008993D01*
X0042531Y0008281D02*
X0043881Y0006931D01*
X0045645Y0006200D01*
X0047555Y0006200D01*
X0049319Y0006931D01*
X0050669Y0008281D01*
X0051400Y0010045D01*
X0051400Y0011955D01*
X0050669Y0013719D01*
X0049319Y0015069D01*
X0047555Y0015800D01*
X0045645Y0015800D01*
X0043881Y0015069D01*
X0042531Y0013719D01*
X0041800Y0011955D01*
X0041800Y0010045D01*
X0042531Y0008281D01*
X0041800Y0010191D02*
X0021635Y0010191D01*
X0022163Y0010410D02*
X0024277Y0012524D01*
X0025420Y0015285D01*
X0025420Y0018274D01*
X0024277Y0021036D01*
X0022163Y0023149D01*
X0019402Y0024293D01*
X0016413Y0024293D01*
X0013651Y0023149D01*
X0011538Y0021036D01*
X0010394Y0018274D01*
X0010394Y0015285D01*
X0011538Y0012524D01*
X0013651Y0010410D01*
X0016413Y0009266D01*
X0019402Y0009266D01*
X0022163Y0010410D01*
X0023143Y0011390D02*
X0041800Y0011390D01*
X0042062Y0012588D02*
X0024303Y0012588D01*
X0024800Y0013787D02*
X0042598Y0013787D01*
X0043797Y0014985D02*
X0025296Y0014985D01*
X0025420Y0016184D02*
X0203307Y0016184D01*
X0203307Y0015285D02*
X0204451Y0012524D01*
X0206564Y0010410D01*
X0209326Y0009266D01*
X0212315Y0009266D01*
X0215076Y0010410D01*
X0217190Y0012524D01*
X0218334Y0015285D01*
X0218334Y0018274D01*
X0217190Y0021036D01*
X0215076Y0023149D01*
X0212315Y0024293D01*
X0209326Y0024293D01*
X0206564Y0023149D01*
X0204451Y0021036D01*
X0203307Y0018274D01*
X0203307Y0015285D01*
X0203431Y0014985D02*
X0188911Y0014985D01*
X0189011Y0014934D02*
X0188366Y0015263D01*
X0187677Y0015487D01*
X0187000Y0015594D01*
X0187000Y0011400D01*
X0186200Y0011400D01*
X0186200Y0015594D01*
X0185523Y0015487D01*
X0184834Y0015263D01*
X0184189Y0014934D01*
X0183603Y0014509D01*
X0183091Y0013997D01*
X0182666Y0013411D01*
X0182337Y0012766D01*
X0182113Y0012077D01*
X0182006Y0011400D01*
X0186200Y0011400D01*
X0186200Y0010600D01*
X0182006Y0010600D01*
X0182113Y0009923D01*
X0182337Y0009234D01*
X0182666Y0008589D01*
X0183091Y0008003D01*
X0183603Y0007491D01*
X0184189Y0007066D01*
X0184834Y0006737D01*
X0185523Y0006513D01*
X0186200Y0006406D01*
X0186200Y0010600D01*
X0187000Y0010600D01*
X0187000Y0011400D01*
X0191194Y0011400D01*
X0191087Y0012077D01*
X0190863Y0012766D01*
X0190534Y0013411D01*
X0190109Y0013997D01*
X0189597Y0014509D01*
X0189011Y0014934D01*
X0190261Y0013787D02*
X0203928Y0013787D01*
X0204424Y0012588D02*
X0190921Y0012588D01*
X0191194Y0010600D02*
X0187000Y0010600D01*
X0187000Y0006406D01*
X0187677Y0006513D01*
X0188366Y0006737D01*
X0189011Y0007066D01*
X0189597Y0007491D01*
X0190109Y0008003D01*
X0190534Y0008589D01*
X0190863Y0009234D01*
X0191087Y0009923D01*
X0191194Y0010600D01*
X0191129Y0010191D02*
X0207093Y0010191D01*
X0205585Y0011390D02*
X0187000Y0011390D01*
X0186200Y0011390D02*
X0181400Y0011390D01*
X0181400Y0011955D02*
X0180669Y0013719D01*
X0179319Y0015069D01*
X0177555Y0015800D01*
X0175645Y0015800D01*
X0173881Y0015069D01*
X0172531Y0013719D01*
X0171800Y0011955D01*
X0171800Y0010045D01*
X0172531Y0008281D01*
X0173881Y0006931D01*
X0175645Y0006200D01*
X0177555Y0006200D01*
X0179319Y0006931D01*
X0180669Y0008281D01*
X0181400Y0010045D01*
X0181400Y0011955D01*
X0181138Y0012588D02*
X0182279Y0012588D01*
X0182939Y0013787D02*
X0180602Y0013787D01*
X0179403Y0014985D02*
X0184289Y0014985D01*
X0186200Y0014985D02*
X0187000Y0014985D01*
X0187000Y0013787D02*
X0186200Y0013787D01*
X0186200Y0012588D02*
X0187000Y0012588D01*
X0187000Y0010191D02*
X0186200Y0010191D01*
X0186200Y0008993D02*
X0187000Y0008993D01*
X0187000Y0007794D02*
X0186200Y0007794D01*
X0186200Y0006596D02*
X0187000Y0006596D01*
X0187930Y0006596D02*
X0236600Y0006596D01*
X0236600Y0007794D02*
X0189899Y0007794D01*
X0190740Y0008993D02*
X0236600Y0008993D01*
X0236600Y0010191D02*
X0214548Y0010191D01*
X0216056Y0011390D02*
X0236600Y0011390D01*
X0236600Y0012588D02*
X0217217Y0012588D01*
X0217713Y0013787D02*
X0236600Y0013787D01*
X0236600Y0014985D02*
X0218210Y0014985D01*
X0218334Y0016184D02*
X0236600Y0016184D01*
X0236600Y0017382D02*
X0218334Y0017382D01*
X0218207Y0018581D02*
X0236600Y0018581D01*
X0236600Y0019779D02*
X0217710Y0019779D01*
X0217214Y0020978D02*
X0236600Y0020978D01*
X0236600Y0022176D02*
X0216049Y0022176D01*
X0214532Y0023375D02*
X0236600Y0023375D01*
X0236600Y0024573D02*
X0045495Y0024573D01*
X0045378Y0024856D02*
X0044456Y0025778D01*
X0043252Y0026276D01*
X0041948Y0026276D01*
X0040744Y0025778D01*
X0039822Y0024856D01*
X0039324Y0023652D01*
X0039324Y0022348D01*
X0039822Y0021144D01*
X0040744Y0020222D01*
X0041948Y0019724D01*
X0043252Y0019724D01*
X0044456Y0020222D01*
X0045378Y0021144D01*
X0045876Y0022348D01*
X0045876Y0023652D01*
X0045378Y0024856D01*
X0044462Y0025772D02*
X0063832Y0025772D01*
X0063948Y0025724D02*
X0065252Y0025724D01*
X0066456Y0026222D01*
X0067378Y0027144D01*
X0067876Y0028348D01*
X0067876Y0029652D01*
X0067378Y0030856D01*
X0066456Y0031778D01*
X0065252Y0032276D01*
X0063948Y0032276D01*
X0062744Y0031778D01*
X0061822Y0030856D01*
X0061324Y0029652D01*
X0061324Y0028348D01*
X0061822Y0027144D01*
X0062744Y0026222D01*
X0063948Y0025724D01*
X0065368Y0025772D02*
X0236600Y0025772D01*
X0236600Y0026970D02*
X0067204Y0026970D01*
X0067802Y0028169D02*
X0236600Y0028169D01*
X0236600Y0029367D02*
X0067876Y0029367D01*
X0067498Y0030566D02*
X0236600Y0030566D01*
X0236600Y0031764D02*
X0066469Y0031764D01*
X0062731Y0031764D02*
X0025008Y0031764D01*
X0024767Y0031665D02*
X0026532Y0032395D01*
X0027882Y0033746D01*
X0028613Y0035510D01*
X0028613Y0037419D01*
X0027882Y0039184D01*
X0026532Y0040534D01*
X0024767Y0041265D01*
X0022858Y0041265D01*
X0021094Y0040534D01*
X0019743Y0039184D01*
X0019013Y0037419D01*
X0019013Y0035510D01*
X0019743Y0033746D01*
X0021094Y0032395D01*
X0022858Y0031665D01*
X0024767Y0031665D01*
X0022617Y0031764D02*
X0005059Y0031764D01*
X0005059Y0030566D02*
X0061702Y0030566D01*
X0061324Y0029367D02*
X0005059Y0029367D01*
X0005059Y0028169D02*
X0061398Y0028169D01*
X0061996Y0026970D02*
X0005059Y0026970D01*
X0005059Y0025772D02*
X0040738Y0025772D01*
X0039705Y0024573D02*
X0005059Y0024573D01*
X0005059Y0023375D02*
X0014196Y0023375D01*
X0012678Y0022176D02*
X0005059Y0022176D01*
X0005059Y0020978D02*
X0011514Y0020978D01*
X0011017Y0019779D02*
X0005059Y0019779D01*
X0005059Y0018581D02*
X0010521Y0018581D01*
X0010394Y0017382D02*
X0005059Y0017382D01*
X0005059Y0016184D02*
X0010394Y0016184D01*
X0010518Y0014985D02*
X0005059Y0014985D01*
X0005126Y0013787D02*
X0011014Y0013787D01*
X0011511Y0012588D02*
X0005419Y0012588D01*
X0005744Y0011390D02*
X0012672Y0011390D01*
X0014180Y0010191D02*
X0006436Y0010191D01*
X0010530Y0006596D02*
X0044690Y0006596D01*
X0048510Y0006596D02*
X0054690Y0006596D01*
X0053881Y0006931D02*
X0055645Y0006200D01*
X0057555Y0006200D01*
X0059319Y0006931D01*
X0060669Y0008281D01*
X0061400Y0010045D01*
X0061400Y0011955D01*
X0060669Y0013719D01*
X0059319Y0015069D01*
X0057555Y0015800D01*
X0055645Y0015800D01*
X0053881Y0015069D01*
X0052531Y0013719D01*
X0051800Y0011955D01*
X0051800Y0010045D01*
X0052531Y0008281D01*
X0053881Y0006931D01*
X0053018Y0007794D02*
X0050182Y0007794D01*
X0050964Y0008993D02*
X0052236Y0008993D01*
X0051800Y0010191D02*
X0051400Y0010191D01*
X0051400Y0011390D02*
X0051800Y0011390D01*
X0052062Y0012588D02*
X0051138Y0012588D01*
X0050602Y0013787D02*
X0052598Y0013787D01*
X0053797Y0014985D02*
X0049403Y0014985D01*
X0045211Y0020978D02*
X0204427Y0020978D01*
X0203931Y0019779D02*
X0043386Y0019779D01*
X0041814Y0019779D02*
X0024797Y0019779D01*
X0025293Y0018581D02*
X0203434Y0018581D01*
X0203307Y0017382D02*
X0025420Y0017382D01*
X0024301Y0020978D02*
X0039989Y0020978D01*
X0039395Y0022176D02*
X0023136Y0022176D01*
X0021618Y0023375D02*
X0039324Y0023375D01*
X0045876Y0023375D02*
X0207109Y0023375D01*
X0205592Y0022176D02*
X0045805Y0022176D01*
X0059403Y0014985D02*
X0065797Y0014985D01*
X0065881Y0015069D02*
X0064531Y0013719D01*
X0063800Y0011955D01*
X0063800Y0010045D01*
X0064531Y0008281D01*
X0065881Y0006931D01*
X0067645Y0006200D01*
X0069555Y0006200D01*
X0071319Y0006931D01*
X0072669Y0008281D01*
X0073400Y0010045D01*
X0073400Y0011955D01*
X0072669Y0013719D01*
X0071319Y0015069D01*
X0069555Y0015800D01*
X0067645Y0015800D01*
X0065881Y0015069D01*
X0064598Y0013787D02*
X0060602Y0013787D01*
X0061138Y0012588D02*
X0064062Y0012588D01*
X0063800Y0011390D02*
X0061400Y0011390D01*
X0061400Y0010191D02*
X0063800Y0010191D01*
X0064236Y0008993D02*
X0060964Y0008993D01*
X0060182Y0007794D02*
X0065018Y0007794D01*
X0066690Y0006596D02*
X0058510Y0006596D01*
X0070510Y0006596D02*
X0076690Y0006596D01*
X0075881Y0006931D02*
X0077645Y0006200D01*
X0079555Y0006200D01*
X0081319Y0006931D01*
X0082669Y0008281D01*
X0083400Y0010045D01*
X0083400Y0011955D01*
X0082669Y0013719D01*
X0081319Y0015069D01*
X0079555Y0015800D01*
X0077645Y0015800D01*
X0075881Y0015069D01*
X0074531Y0013719D01*
X0073800Y0011955D01*
X0073800Y0010045D01*
X0074531Y0008281D01*
X0075881Y0006931D01*
X0075018Y0007794D02*
X0072182Y0007794D01*
X0072964Y0008993D02*
X0074236Y0008993D01*
X0073800Y0010191D02*
X0073400Y0010191D01*
X0073400Y0011390D02*
X0073800Y0011390D01*
X0074062Y0012588D02*
X0073138Y0012588D01*
X0072602Y0013787D02*
X0074598Y0013787D01*
X0075797Y0014985D02*
X0071403Y0014985D01*
X0081403Y0014985D02*
X0087797Y0014985D01*
X0087881Y0015069D02*
X0086531Y0013719D01*
X0085800Y0011955D01*
X0085800Y0010045D01*
X0086531Y0008281D01*
X0087881Y0006931D01*
X0089645Y0006200D01*
X0091555Y0006200D01*
X0093319Y0006931D01*
X0094669Y0008281D01*
X0095400Y0010045D01*
X0095400Y0011955D01*
X0094669Y0013719D01*
X0093319Y0015069D01*
X0091555Y0015800D01*
X0089645Y0015800D01*
X0087881Y0015069D01*
X0086598Y0013787D02*
X0082602Y0013787D01*
X0083138Y0012588D02*
X0086062Y0012588D01*
X0085800Y0011390D02*
X0083400Y0011390D01*
X0083400Y0010191D02*
X0085800Y0010191D01*
X0086236Y0008993D02*
X0082964Y0008993D01*
X0082182Y0007794D02*
X0087018Y0007794D01*
X0088690Y0006596D02*
X0080510Y0006596D01*
X0092510Y0006596D02*
X0098690Y0006596D01*
X0097881Y0006931D02*
X0099645Y0006200D01*
X0101555Y0006200D01*
X0103319Y0006931D01*
X0104669Y0008281D01*
X0105400Y0010045D01*
X0105400Y0011955D01*
X0104669Y0013719D01*
X0103319Y0015069D01*
X0101555Y0015800D01*
X0099645Y0015800D01*
X0097881Y0015069D01*
X0096531Y0013719D01*
X0095800Y0011955D01*
X0095800Y0010045D01*
X0096531Y0008281D01*
X0097881Y0006931D01*
X0097018Y0007794D02*
X0094182Y0007794D01*
X0094964Y0008993D02*
X0096236Y0008993D01*
X0095800Y0010191D02*
X0095400Y0010191D01*
X0095400Y0011390D02*
X0095800Y0011390D01*
X0096062Y0012588D02*
X0095138Y0012588D01*
X0094602Y0013787D02*
X0096598Y0013787D01*
X0097797Y0014985D02*
X0093403Y0014985D01*
X0103403Y0014985D02*
X0109797Y0014985D01*
X0109881Y0015069D02*
X0108531Y0013719D01*
X0107800Y0011955D01*
X0107800Y0010045D01*
X0108531Y0008281D01*
X0109881Y0006931D01*
X0111645Y0006200D01*
X0113555Y0006200D01*
X0115319Y0006931D01*
X0116669Y0008281D01*
X0117400Y0010045D01*
X0117400Y0011955D01*
X0116669Y0013719D01*
X0115319Y0015069D01*
X0113555Y0015800D01*
X0111645Y0015800D01*
X0109881Y0015069D01*
X0108598Y0013787D02*
X0104602Y0013787D01*
X0105138Y0012588D02*
X0108062Y0012588D01*
X0107800Y0011390D02*
X0105400Y0011390D01*
X0105400Y0010191D02*
X0107800Y0010191D01*
X0108236Y0008993D02*
X0104964Y0008993D01*
X0104182Y0007794D02*
X0109018Y0007794D01*
X0110690Y0006596D02*
X0102510Y0006596D01*
X0114510Y0006596D02*
X0120690Y0006596D01*
X0119881Y0006931D02*
X0121645Y0006200D01*
X0123555Y0006200D01*
X0125319Y0006931D01*
X0126669Y0008281D01*
X0127400Y0010045D01*
X0127400Y0011955D01*
X0126669Y0013719D01*
X0125319Y0015069D01*
X0123555Y0015800D01*
X0121645Y0015800D01*
X0119881Y0015069D01*
X0118531Y0013719D01*
X0117800Y0011955D01*
X0117800Y0010045D01*
X0118531Y0008281D01*
X0119881Y0006931D01*
X0119018Y0007794D02*
X0116182Y0007794D01*
X0116964Y0008993D02*
X0118236Y0008993D01*
X0117800Y0010191D02*
X0117400Y0010191D01*
X0117400Y0011390D02*
X0117800Y0011390D01*
X0118062Y0012588D02*
X0117138Y0012588D01*
X0116602Y0013787D02*
X0118598Y0013787D01*
X0119797Y0014985D02*
X0115403Y0014985D01*
X0125403Y0014985D02*
X0131797Y0014985D01*
X0131881Y0015069D02*
X0130531Y0013719D01*
X0129800Y0011955D01*
X0129800Y0010045D01*
X0130531Y0008281D01*
X0131881Y0006931D01*
X0133645Y0006200D01*
X0135555Y0006200D01*
X0137319Y0006931D01*
X0138669Y0008281D01*
X0139400Y0010045D01*
X0139400Y0011955D01*
X0138669Y0013719D01*
X0137319Y0015069D01*
X0135555Y0015800D01*
X0133645Y0015800D01*
X0131881Y0015069D01*
X0130598Y0013787D02*
X0126602Y0013787D01*
X0127138Y0012588D02*
X0130062Y0012588D01*
X0129800Y0011390D02*
X0127400Y0011390D01*
X0127400Y0010191D02*
X0129800Y0010191D01*
X0130236Y0008993D02*
X0126964Y0008993D01*
X0126182Y0007794D02*
X0131018Y0007794D01*
X0132690Y0006596D02*
X0124510Y0006596D01*
X0136510Y0006596D02*
X0142690Y0006596D01*
X0141881Y0006931D02*
X0143645Y0006200D01*
X0145555Y0006200D01*
X0147319Y0006931D01*
X0148669Y0008281D01*
X0149400Y0010045D01*
X0149400Y0011955D01*
X0148669Y0013719D01*
X0147319Y0015069D01*
X0145555Y0015800D01*
X0143645Y0015800D01*
X0141881Y0015069D01*
X0140531Y0013719D01*
X0139800Y0011955D01*
X0139800Y0010045D01*
X0140531Y0008281D01*
X0141881Y0006931D01*
X0141018Y0007794D02*
X0138182Y0007794D01*
X0138964Y0008993D02*
X0140236Y0008993D01*
X0139800Y0010191D02*
X0139400Y0010191D01*
X0139400Y0011390D02*
X0139800Y0011390D01*
X0140062Y0012588D02*
X0139138Y0012588D01*
X0138602Y0013787D02*
X0140598Y0013787D01*
X0141797Y0014985D02*
X0137403Y0014985D01*
X0147403Y0014985D02*
X0152289Y0014985D01*
X0152189Y0014934D02*
X0151603Y0014509D01*
X0151091Y0013997D01*
X0150666Y0013411D01*
X0150337Y0012766D01*
X0150113Y0012077D01*
X0150006Y0011400D01*
X0154200Y0011400D01*
X0154200Y0015594D01*
X0153523Y0015487D01*
X0152834Y0015263D01*
X0152189Y0014934D01*
X0150939Y0013787D02*
X0148602Y0013787D01*
X0149138Y0012588D02*
X0150279Y0012588D01*
X0149400Y0011390D02*
X0154200Y0011390D01*
X0154200Y0011400D02*
X0154200Y0010600D01*
X0150006Y0010600D01*
X0150113Y0009923D01*
X0150337Y0009234D01*
X0150666Y0008589D01*
X0151091Y0008003D01*
X0151603Y0007491D01*
X0152189Y0007066D01*
X0152834Y0006737D01*
X0153523Y0006513D01*
X0154200Y0006406D01*
X0154200Y0010600D01*
X0155000Y0010600D01*
X0155000Y0011400D01*
X0154200Y0011400D01*
X0155000Y0011400D02*
X0155000Y0015594D01*
X0155677Y0015487D01*
X0156366Y0015263D01*
X0157011Y0014934D01*
X0157597Y0014509D01*
X0158109Y0013997D01*
X0158534Y0013411D01*
X0158863Y0012766D01*
X0159087Y0012077D01*
X0159194Y0011400D01*
X0155000Y0011400D01*
X0155000Y0011390D02*
X0161800Y0011390D01*
X0161800Y0011955D02*
X0161800Y0010045D01*
X0162531Y0008281D01*
X0163881Y0006931D01*
X0165645Y0006200D01*
X0167555Y0006200D01*
X0169319Y0006931D01*
X0170669Y0008281D01*
X0171400Y0010045D01*
X0171400Y0011955D01*
X0170669Y0013719D01*
X0169319Y0015069D01*
X0167555Y0015800D01*
X0165645Y0015800D01*
X0163881Y0015069D01*
X0162531Y0013719D01*
X0161800Y0011955D01*
X0162062Y0012588D02*
X0158921Y0012588D01*
X0158261Y0013787D02*
X0162598Y0013787D01*
X0163797Y0014985D02*
X0156911Y0014985D01*
X0155000Y0014985D02*
X0154200Y0014985D01*
X0154200Y0013787D02*
X0155000Y0013787D01*
X0155000Y0012588D02*
X0154200Y0012588D01*
X0155000Y0010600D02*
X0159194Y0010600D01*
X0159087Y0009923D01*
X0158863Y0009234D01*
X0158534Y0008589D01*
X0158109Y0008003D01*
X0157597Y0007491D01*
X0157011Y0007066D01*
X0156366Y0006737D01*
X0155677Y0006513D01*
X0155000Y0006406D01*
X0155000Y0010600D01*
X0155000Y0010191D02*
X0154200Y0010191D01*
X0154200Y0008993D02*
X0155000Y0008993D01*
X0155000Y0007794D02*
X0154200Y0007794D01*
X0154200Y0006596D02*
X0155000Y0006596D01*
X0155930Y0006596D02*
X0164690Y0006596D01*
X0163018Y0007794D02*
X0157899Y0007794D01*
X0158740Y0008993D02*
X0162236Y0008993D01*
X0161800Y0010191D02*
X0159129Y0010191D01*
X0153270Y0006596D02*
X0146510Y0006596D01*
X0148182Y0007794D02*
X0151301Y0007794D01*
X0150460Y0008993D02*
X0148964Y0008993D01*
X0149400Y0010191D02*
X0150071Y0010191D01*
X0168510Y0006596D02*
X0174690Y0006596D01*
X0173018Y0007794D02*
X0170182Y0007794D01*
X0170964Y0008993D02*
X0172236Y0008993D01*
X0171800Y0010191D02*
X0171400Y0010191D01*
X0171400Y0011390D02*
X0171800Y0011390D01*
X0172062Y0012588D02*
X0171138Y0012588D01*
X0170602Y0013787D02*
X0172598Y0013787D01*
X0173797Y0014985D02*
X0169403Y0014985D01*
X0178510Y0006596D02*
X0185270Y0006596D01*
X0183301Y0007794D02*
X0180182Y0007794D01*
X0180964Y0008993D02*
X0182460Y0008993D01*
X0182071Y0010191D02*
X0181400Y0010191D01*
X0236600Y0032963D02*
X0027099Y0032963D01*
X0028054Y0034161D02*
X0236600Y0034161D01*
X0236600Y0035360D02*
X0028550Y0035360D01*
X0028613Y0036558D02*
X0236600Y0036558D01*
X0236600Y0037757D02*
X0028473Y0037757D01*
X0027976Y0038955D02*
X0236600Y0038955D01*
X0236600Y0040154D02*
X0026912Y0040154D01*
X0026532Y0042395D02*
X0024767Y0041665D01*
X0022858Y0041665D01*
X0021094Y0042395D01*
X0019743Y0043746D01*
X0019013Y0045510D01*
X0019013Y0047419D01*
X0019743Y0049184D01*
X0021094Y0050534D01*
X0022858Y0051265D01*
X0024767Y0051265D01*
X0026532Y0050534D01*
X0027882Y0049184D01*
X0028613Y0047419D01*
X0028613Y0045510D01*
X0027882Y0043746D01*
X0026532Y0042395D01*
X0026687Y0042551D02*
X0236600Y0042551D01*
X0236600Y0043749D02*
X0027883Y0043749D01*
X0028380Y0044948D02*
X0236600Y0044948D01*
X0236600Y0046146D02*
X0028613Y0046146D01*
X0028613Y0047345D02*
X0236600Y0047345D01*
X0236600Y0048543D02*
X0028147Y0048543D01*
X0027323Y0049742D02*
X0216225Y0049742D01*
X0215822Y0050144D02*
X0216744Y0049222D01*
X0217948Y0048724D01*
X0219252Y0048724D01*
X0220456Y0049222D01*
X0221378Y0050144D01*
X0221876Y0051348D01*
X0221876Y0052652D01*
X0221378Y0053856D01*
X0220456Y0054778D01*
X0219252Y0055276D01*
X0217948Y0055276D01*
X0216744Y0054778D01*
X0215822Y0053856D01*
X0215324Y0052652D01*
X0215324Y0051348D01*
X0215822Y0050144D01*
X0215493Y0050940D02*
X0025550Y0050940D01*
X0024767Y0051665D02*
X0026532Y0052395D01*
X0027882Y0053746D01*
X0028613Y0055510D01*
X0028613Y0057419D01*
X0027882Y0059184D01*
X0026532Y0060534D01*
X0024767Y0061265D01*
X0022858Y0061265D01*
X0021094Y0060534D01*
X0019743Y0059184D01*
X0019013Y0057419D01*
X0019013Y0055510D01*
X0019743Y0053746D01*
X0021094Y0052395D01*
X0022858Y0051665D01*
X0024767Y0051665D01*
X0025913Y0052139D02*
X0215324Y0052139D01*
X0215608Y0053337D02*
X0027474Y0053337D01*
X0028209Y0054536D02*
X0216502Y0054536D01*
X0220698Y0054536D02*
X0236600Y0054536D01*
X0236600Y0055734D02*
X0083968Y0055734D01*
X0084378Y0056144D02*
X0084876Y0057348D01*
X0084876Y0058652D01*
X0084378Y0059856D01*
X0084233Y0060000D01*
X0084378Y0060144D01*
X0084876Y0061348D01*
X0084876Y0062652D01*
X0084378Y0063856D01*
X0084233Y0064000D01*
X0084378Y0064144D01*
X0084876Y0065348D01*
X0084876Y0066652D01*
X0084378Y0067856D01*
X0083456Y0068778D01*
X0082252Y0069276D01*
X0080948Y0069276D01*
X0079744Y0068778D01*
X0078822Y0067856D01*
X0078324Y0066652D01*
X0078324Y0065348D01*
X0078822Y0064144D01*
X0078966Y0064000D01*
X0078822Y0063856D01*
X0078324Y0062652D01*
X0078324Y0061348D01*
X0078822Y0060144D01*
X0078966Y0060000D01*
X0078822Y0059856D01*
X0078324Y0058652D01*
X0078324Y0057348D01*
X0078822Y0056144D01*
X0079744Y0055222D01*
X0080948Y0054724D01*
X0082252Y0054724D01*
X0083456Y0055222D01*
X0084378Y0056144D01*
X0084704Y0056933D02*
X0141443Y0056933D01*
X0141948Y0056724D02*
X0140744Y0057222D01*
X0139822Y0058144D01*
X0139534Y0058841D01*
X0139252Y0058724D01*
X0137948Y0058724D01*
X0136744Y0059222D01*
X0135822Y0060144D01*
X0135324Y0061348D01*
X0135324Y0062652D01*
X0135822Y0063856D01*
X0136744Y0064778D01*
X0137948Y0065276D01*
X0139252Y0065276D01*
X0140456Y0064778D01*
X0141378Y0063856D01*
X0141666Y0063159D01*
X0141948Y0063276D01*
X0143252Y0063276D01*
X0143534Y0063159D01*
X0143822Y0063856D01*
X0144744Y0064778D01*
X0145948Y0065276D01*
X0147252Y0065276D01*
X0148456Y0064778D01*
X0149378Y0063856D01*
X0149876Y0062652D01*
X0149876Y0061348D01*
X0149378Y0060144D01*
X0148456Y0059222D01*
X0147252Y0058724D01*
X0145948Y0058724D01*
X0145666Y0058841D01*
X0145378Y0058144D01*
X0144456Y0057222D01*
X0143252Y0056724D01*
X0141948Y0056724D01*
X0143757Y0056933D02*
X0236600Y0056933D01*
X0236600Y0058132D02*
X0145365Y0058132D01*
X0148564Y0059330D02*
X0160636Y0059330D01*
X0160744Y0059222D02*
X0161948Y0058724D01*
X0163252Y0058724D01*
X0164456Y0059222D01*
X0164600Y0059366D01*
X0164744Y0059222D01*
X0165948Y0058724D01*
X0167252Y0058724D01*
X0168456Y0059222D01*
X0169378Y0060144D01*
X0169876Y0061348D01*
X0169876Y0062652D01*
X0169378Y0063856D01*
X0168456Y0064778D01*
X0167252Y0065276D01*
X0165948Y0065276D01*
X0164744Y0064778D01*
X0164600Y0064633D01*
X0164456Y0064778D01*
X0163252Y0065276D01*
X0161948Y0065276D01*
X0160744Y0064778D01*
X0159822Y0063856D01*
X0159324Y0062652D01*
X0159324Y0061348D01*
X0159822Y0060144D01*
X0160744Y0059222D01*
X0159663Y0060529D02*
X0149537Y0060529D01*
X0149876Y0061727D02*
X0159324Y0061727D01*
X0159437Y0062926D02*
X0149763Y0062926D01*
X0149109Y0064124D02*
X0160091Y0064124D01*
X0164564Y0059330D02*
X0164636Y0059330D01*
X0168564Y0059330D02*
X0236600Y0059330D01*
X0236600Y0060529D02*
X0169537Y0060529D01*
X0169876Y0061727D02*
X0236600Y0061727D01*
X0236600Y0062926D02*
X0191739Y0062926D01*
X0191252Y0062724D02*
X0192456Y0063222D01*
X0193378Y0064144D01*
X0193876Y0065348D01*
X0193876Y0066652D01*
X0193378Y0067856D01*
X0192456Y0068778D01*
X0191919Y0069000D01*
X0192456Y0069222D01*
X0193378Y0070144D01*
X0193876Y0071348D01*
X0193876Y0072652D01*
X0193378Y0073856D01*
X0192456Y0074778D01*
X0191252Y0075276D01*
X0189948Y0075276D01*
X0188744Y0074778D01*
X0187822Y0073856D01*
X0187324Y0072652D01*
X0187324Y0071348D01*
X0187822Y0070144D01*
X0188744Y0069222D01*
X0189281Y0069000D01*
X0188744Y0068778D01*
X0187822Y0067856D01*
X0187600Y0067319D01*
X0187378Y0067856D01*
X0186456Y0068778D01*
X0185252Y0069276D01*
X0183948Y0069276D01*
X0182744Y0068778D01*
X0181822Y0067856D01*
X0181600Y0067319D01*
X0181378Y0067856D01*
X0180456Y0068778D01*
X0179252Y0069276D01*
X0177948Y0069276D01*
X0176744Y0068778D01*
X0175822Y0067856D01*
X0175324Y0066652D01*
X0175324Y0065348D01*
X0175822Y0064144D01*
X0176744Y0063222D01*
X0177948Y0062724D01*
X0179252Y0062724D01*
X0180456Y0063222D01*
X0181378Y0064144D01*
X0181600Y0064681D01*
X0181822Y0064144D01*
X0182744Y0063222D01*
X0183948Y0062724D01*
X0185252Y0062724D01*
X0186456Y0063222D01*
X0187378Y0064144D01*
X0187600Y0064681D01*
X0187822Y0064144D01*
X0188744Y0063222D01*
X0189948Y0062724D01*
X0191252Y0062724D01*
X0189461Y0062926D02*
X0185739Y0062926D01*
X0187358Y0064124D02*
X0187842Y0064124D01*
X0187766Y0067720D02*
X0187434Y0067720D01*
X0186117Y0068918D02*
X0189083Y0068918D01*
X0187850Y0070117D02*
X0118684Y0070117D01*
X0118876Y0069652D02*
X0118378Y0070856D01*
X0118233Y0071000D01*
X0118378Y0071144D01*
X0118876Y0072348D01*
X0118876Y0073652D01*
X0118378Y0074856D01*
X0117456Y0075778D01*
X0116252Y0076276D01*
X0114948Y0076276D01*
X0113744Y0075778D01*
X0112822Y0074856D01*
X0112324Y0073652D01*
X0112324Y0072348D01*
X0112822Y0071144D01*
X0112966Y0071000D01*
X0112822Y0070856D01*
X0112324Y0069652D01*
X0112324Y0068348D01*
X0112822Y0067144D01*
X0112966Y0067000D01*
X0112822Y0066856D01*
X0112324Y0065652D01*
X0112324Y0064348D01*
X0112822Y0063144D01*
X0113744Y0062222D01*
X0114948Y0061724D01*
X0116252Y0061724D01*
X0117456Y0062222D01*
X0118378Y0063144D01*
X0118876Y0064348D01*
X0118876Y0065652D01*
X0118378Y0066856D01*
X0118233Y0067000D01*
X0118378Y0067144D01*
X0118876Y0068348D01*
X0118876Y0069652D01*
X0118876Y0068918D02*
X0177083Y0068918D01*
X0175766Y0067720D02*
X0118616Y0067720D01*
X0118516Y0066521D02*
X0175324Y0066521D01*
X0175334Y0065323D02*
X0118876Y0065323D01*
X0118783Y0064124D02*
X0136091Y0064124D01*
X0135437Y0062926D02*
X0118159Y0062926D01*
X0116260Y0061727D02*
X0135324Y0061727D01*
X0135663Y0060529D02*
X0084537Y0060529D01*
X0084595Y0059330D02*
X0136636Y0059330D01*
X0139835Y0058132D02*
X0084876Y0058132D01*
X0084876Y0061727D02*
X0114940Y0061727D01*
X0113041Y0062926D02*
X0084763Y0062926D01*
X0084358Y0064124D02*
X0112416Y0064124D01*
X0112324Y0065323D02*
X0084866Y0065323D01*
X0084876Y0066521D02*
X0112684Y0066521D01*
X0112584Y0067720D02*
X0084434Y0067720D01*
X0083117Y0068918D02*
X0112324Y0068918D01*
X0112516Y0070117D02*
X0063637Y0070117D01*
X0063252Y0070276D02*
X0061948Y0070276D01*
X0060744Y0069778D01*
X0060600Y0069633D01*
X0060456Y0069778D01*
X0059252Y0070276D01*
X0057948Y0070276D01*
X0056744Y0069778D01*
X0055822Y0068856D01*
X0055324Y0067652D01*
X0055324Y0066348D01*
X0055822Y0065144D01*
X0056744Y0064222D01*
X0057948Y0063724D01*
X0059252Y0063724D01*
X0060456Y0064222D01*
X0060600Y0064366D01*
X0060744Y0064222D01*
X0061948Y0063724D01*
X0063252Y0063724D01*
X0064456Y0064222D01*
X0065378Y0065144D01*
X0065876Y0066348D01*
X0065876Y0067652D01*
X0065378Y0068856D01*
X0064456Y0069778D01*
X0063252Y0070276D01*
X0061563Y0070117D02*
X0059637Y0070117D01*
X0057563Y0070117D02*
X0026949Y0070117D01*
X0026532Y0070534D02*
X0024767Y0071265D01*
X0022858Y0071265D01*
X0021094Y0070534D01*
X0019743Y0069184D01*
X0019013Y0067419D01*
X0019013Y0065510D01*
X0019743Y0063746D01*
X0021094Y0062395D01*
X0022858Y0061665D01*
X0024767Y0061665D01*
X0026532Y0062395D01*
X0027882Y0063746D01*
X0028613Y0065510D01*
X0028613Y0067419D01*
X0027882Y0069184D01*
X0026532Y0070534D01*
X0026532Y0072395D02*
X0024767Y0071665D01*
X0022858Y0071665D01*
X0021094Y0072395D01*
X0019743Y0073746D01*
X0019013Y0075510D01*
X0019013Y0077419D01*
X0019743Y0079184D01*
X0021094Y0080534D01*
X0022858Y0081265D01*
X0024767Y0081265D01*
X0026532Y0080534D01*
X0027882Y0079184D01*
X0028613Y0077419D01*
X0028613Y0075510D01*
X0027882Y0073746D01*
X0026532Y0072395D01*
X0026650Y0072514D02*
X0112324Y0072514D01*
X0112349Y0073712D02*
X0027848Y0073712D01*
X0028364Y0074911D02*
X0112877Y0074911D01*
X0114545Y0076109D02*
X0028613Y0076109D01*
X0028613Y0077308D02*
X0236600Y0077308D01*
X0236600Y0078506D02*
X0028162Y0078506D01*
X0027361Y0079705D02*
X0236600Y0079705D01*
X0236600Y0080903D02*
X0025640Y0080903D01*
X0024767Y0081665D02*
X0026532Y0082395D01*
X0027882Y0083746D01*
X0028613Y0085510D01*
X0028613Y0087419D01*
X0027882Y0089184D01*
X0026532Y0090534D01*
X0024767Y0091265D01*
X0022858Y0091265D01*
X0021094Y0090534D01*
X0019743Y0089184D01*
X0019013Y0087419D01*
X0019013Y0085510D01*
X0019743Y0083746D01*
X0021094Y0082395D01*
X0022858Y0081665D01*
X0024767Y0081665D01*
X0025823Y0082102D02*
X0236600Y0082102D01*
X0236600Y0083300D02*
X0027437Y0083300D01*
X0028194Y0084499D02*
X0236600Y0084499D01*
X0236600Y0085697D02*
X0145654Y0085697D01*
X0145956Y0085822D02*
X0144752Y0085324D01*
X0143448Y0085324D01*
X0142244Y0085822D01*
X0141322Y0086744D01*
X0140824Y0087948D01*
X0140824Y0089252D01*
X0141322Y0090456D01*
X0142244Y0091378D01*
X0142781Y0091600D01*
X0142244Y0091822D01*
X0141322Y0092744D01*
X0140824Y0093948D01*
X0140824Y0095252D01*
X0141322Y0096456D01*
X0142244Y0097378D01*
X0143448Y0097876D01*
X0144752Y0097876D01*
X0145956Y0097378D01*
X0146878Y0096456D01*
X0147376Y0095252D01*
X0147376Y0093948D01*
X0146878Y0092744D01*
X0145956Y0091822D01*
X0145419Y0091600D01*
X0145956Y0091378D01*
X0146878Y0090456D01*
X0147376Y0089252D01*
X0147376Y0087948D01*
X0146878Y0086744D01*
X0145956Y0085822D01*
X0146940Y0086896D02*
X0236600Y0086896D01*
X0236600Y0088094D02*
X0147376Y0088094D01*
X0147359Y0089293D02*
X0236600Y0089293D01*
X0236600Y0090491D02*
X0146842Y0090491D01*
X0145636Y0091690D02*
X0236600Y0091690D01*
X0236600Y0092888D02*
X0146937Y0092888D01*
X0147376Y0094087D02*
X0210071Y0094087D01*
X0209744Y0094222D02*
X0210948Y0093724D01*
X0212252Y0093724D01*
X0213456Y0094222D01*
X0214378Y0095144D01*
X0214876Y0096348D01*
X0214876Y0097652D01*
X0214378Y0098856D01*
X0213456Y0099778D01*
X0212252Y0100276D01*
X0210948Y0100276D01*
X0209744Y0099778D01*
X0208822Y0098856D01*
X0208324Y0097652D01*
X0208324Y0096348D01*
X0208822Y0095144D01*
X0209744Y0094222D01*
X0208764Y0095285D02*
X0147362Y0095285D01*
X0146850Y0096484D02*
X0208324Y0096484D01*
X0208336Y0097682D02*
X0145220Y0097682D01*
X0142980Y0097682D02*
X0028504Y0097682D01*
X0028613Y0097419D02*
X0027882Y0099184D01*
X0026532Y0100534D01*
X0024767Y0101265D01*
X0022858Y0101265D01*
X0021094Y0100534D01*
X0019743Y0099184D01*
X0019013Y0097419D01*
X0019013Y0095510D01*
X0019743Y0093746D01*
X0021094Y0092395D01*
X0022858Y0091665D01*
X0024767Y0091665D01*
X0026532Y0092395D01*
X0027882Y0093746D01*
X0028613Y0095510D01*
X0028613Y0097419D01*
X0028613Y0096484D02*
X0141350Y0096484D01*
X0140838Y0095285D02*
X0028520Y0095285D01*
X0028023Y0094087D02*
X0140824Y0094087D01*
X0141263Y0092888D02*
X0027025Y0092888D01*
X0026574Y0090491D02*
X0141358Y0090491D01*
X0140841Y0089293D02*
X0027773Y0089293D01*
X0028333Y0088094D02*
X0140824Y0088094D01*
X0141260Y0086896D02*
X0028613Y0086896D01*
X0028613Y0085697D02*
X0142546Y0085697D01*
X0142564Y0091690D02*
X0024828Y0091690D01*
X0022797Y0091690D02*
X0014828Y0091690D01*
X0014767Y0091665D02*
X0016532Y0092395D01*
X0017882Y0093746D01*
X0018613Y0095510D01*
X0018613Y0097419D01*
X0017882Y0099184D01*
X0016532Y0100534D01*
X0014767Y0101265D01*
X0012858Y0101265D01*
X0011094Y0100534D01*
X0009743Y0099184D01*
X0009013Y0097419D01*
X0009013Y0095510D01*
X0009743Y0093746D01*
X0011094Y0092395D01*
X0012858Y0091665D01*
X0014767Y0091665D01*
X0014767Y0091265D02*
X0012858Y0091265D01*
X0011094Y0090534D01*
X0009743Y0089184D01*
X0009013Y0087419D01*
X0009013Y0085510D01*
X0009743Y0083746D01*
X0011094Y0082395D01*
X0012858Y0081665D01*
X0014767Y0081665D01*
X0016532Y0082395D01*
X0017882Y0083746D01*
X0018613Y0085510D01*
X0018613Y0087419D01*
X0017882Y0089184D01*
X0016532Y0090534D01*
X0014767Y0091265D01*
X0016574Y0090491D02*
X0021051Y0090491D01*
X0019853Y0089293D02*
X0017773Y0089293D01*
X0018333Y0088094D02*
X0019292Y0088094D01*
X0019013Y0086896D02*
X0018613Y0086896D01*
X0018613Y0085697D02*
X0019013Y0085697D01*
X0019431Y0084499D02*
X0018194Y0084499D01*
X0017437Y0083300D02*
X0020189Y0083300D01*
X0021802Y0082102D02*
X0015823Y0082102D01*
X0015640Y0080903D02*
X0021986Y0080903D01*
X0020265Y0079705D02*
X0017361Y0079705D01*
X0017882Y0079184D02*
X0016532Y0080534D01*
X0014767Y0081265D01*
X0012858Y0081265D01*
X0011094Y0080534D01*
X0009743Y0079184D01*
X0009013Y0077419D01*
X0009013Y0075510D01*
X0009743Y0073746D01*
X0011094Y0072395D01*
X0012858Y0071665D01*
X0014767Y0071665D01*
X0016532Y0072395D01*
X0017882Y0073746D01*
X0018613Y0075510D01*
X0018613Y0077419D01*
X0017882Y0079184D01*
X0018162Y0078506D02*
X0019463Y0078506D01*
X0019013Y0077308D02*
X0018613Y0077308D01*
X0018613Y0076109D02*
X0019013Y0076109D01*
X0019261Y0074911D02*
X0018364Y0074911D01*
X0017848Y0073712D02*
X0019777Y0073712D01*
X0020975Y0072514D02*
X0016650Y0072514D01*
X0016532Y0070534D02*
X0014767Y0071265D01*
X0012858Y0071265D01*
X0011094Y0070534D01*
X0009743Y0069184D01*
X0009013Y0067419D01*
X0009013Y0065510D01*
X0009743Y0063746D01*
X0011094Y0062395D01*
X0012858Y0061665D01*
X0014767Y0061665D01*
X0016532Y0062395D01*
X0017882Y0063746D01*
X0018613Y0065510D01*
X0018613Y0067419D01*
X0017882Y0069184D01*
X0016532Y0070534D01*
X0016949Y0070117D02*
X0020676Y0070117D01*
X0019633Y0068918D02*
X0017992Y0068918D01*
X0018488Y0067720D02*
X0019137Y0067720D01*
X0019013Y0066521D02*
X0018613Y0066521D01*
X0018535Y0065323D02*
X0019090Y0065323D01*
X0019587Y0064124D02*
X0018039Y0064124D01*
X0017062Y0062926D02*
X0020563Y0062926D01*
X0021088Y0060529D02*
X0016537Y0060529D01*
X0016532Y0060534D02*
X0014767Y0061265D01*
X0012858Y0061265D01*
X0011094Y0060534D01*
X0009743Y0059184D01*
X0009013Y0057419D01*
X0009013Y0055510D01*
X0009743Y0053746D01*
X0011094Y0052395D01*
X0012858Y0051665D01*
X0014767Y0051665D01*
X0016532Y0052395D01*
X0017882Y0053746D01*
X0018613Y0055510D01*
X0018613Y0057419D01*
X0017882Y0059184D01*
X0016532Y0060534D01*
X0017735Y0059330D02*
X0019890Y0059330D01*
X0019308Y0058132D02*
X0018318Y0058132D01*
X0018613Y0056933D02*
X0019013Y0056933D01*
X0019013Y0055734D02*
X0018613Y0055734D01*
X0018209Y0054536D02*
X0019416Y0054536D01*
X0020151Y0053337D02*
X0017474Y0053337D01*
X0015913Y0052139D02*
X0021713Y0052139D01*
X0022075Y0050940D02*
X0014923Y0050940D01*
X0014890Y0050951D02*
X0014213Y0051059D01*
X0014213Y0046865D01*
X0013413Y0046865D01*
X0013413Y0051059D01*
X0012735Y0050951D01*
X0012047Y0050728D01*
X0011402Y0050399D01*
X0010816Y0049973D01*
X0010304Y0049461D01*
X0009878Y0048875D01*
X0009550Y0048230D01*
X0009326Y0047542D01*
X0009219Y0046865D01*
X0013413Y0046865D01*
X0013413Y0046065D01*
X0013413Y0046064D02*
X0014213Y0046064D01*
X0014213Y0046065D02*
X0014213Y0046865D01*
X0018407Y0046865D01*
X0018299Y0047542D01*
X0018076Y0048230D01*
X0017747Y0048875D01*
X0017321Y0049461D01*
X0016809Y0049973D01*
X0016224Y0050399D01*
X0015578Y0050728D01*
X0014890Y0050951D01*
X0014213Y0050940D02*
X0013413Y0050940D01*
X0012702Y0050940D02*
X0005059Y0050940D01*
X0005059Y0049742D02*
X0010585Y0049742D01*
X0009709Y0048543D02*
X0005059Y0048543D01*
X0005059Y0047345D02*
X0009295Y0047345D01*
X0009219Y0046065D02*
X0009326Y0045387D01*
X0009550Y0044699D01*
X0009878Y0044054D01*
X0010304Y0043468D01*
X0010816Y0042956D01*
X0011402Y0042530D01*
X0012047Y0042202D01*
X0012735Y0041978D01*
X0013413Y0041871D01*
X0013413Y0046064D01*
X0013413Y0046065D02*
X0009219Y0046065D01*
X0009469Y0044948D02*
X0005059Y0044948D01*
X0005059Y0046146D02*
X0013413Y0046146D01*
X0014213Y0046146D02*
X0019013Y0046146D01*
X0018407Y0046065D02*
X0014213Y0046065D01*
X0014213Y0046064D02*
X0014213Y0041871D01*
X0014890Y0041978D01*
X0015578Y0042202D01*
X0016224Y0042530D01*
X0016809Y0042956D01*
X0017321Y0043468D01*
X0017747Y0044054D01*
X0018076Y0044699D01*
X0018299Y0045387D01*
X0018407Y0046065D01*
X0018157Y0044948D02*
X0019245Y0044948D01*
X0019742Y0043749D02*
X0017526Y0043749D01*
X0016252Y0042551D02*
X0020938Y0042551D01*
X0020714Y0040154D02*
X0016561Y0040154D01*
X0016809Y0039973D02*
X0016224Y0040399D01*
X0015578Y0040728D01*
X0014890Y0040951D01*
X0014213Y0041059D01*
X0014213Y0036865D01*
X0013413Y0036865D01*
X0013413Y0041059D01*
X0012735Y0040951D01*
X0012047Y0040728D01*
X0011402Y0040399D01*
X0010816Y0039973D01*
X0010304Y0039461D01*
X0009878Y0038875D01*
X0009550Y0038230D01*
X0009326Y0037542D01*
X0009219Y0036865D01*
X0013413Y0036865D01*
X0013413Y0036065D01*
X0013413Y0036064D02*
X0014213Y0036064D01*
X0014213Y0036065D02*
X0014213Y0036865D01*
X0018407Y0036865D01*
X0018299Y0037542D01*
X0018076Y0038230D01*
X0017747Y0038875D01*
X0017321Y0039461D01*
X0016809Y0039973D01*
X0017689Y0038955D02*
X0019649Y0038955D01*
X0019152Y0037757D02*
X0018229Y0037757D01*
X0019013Y0036558D02*
X0014213Y0036558D01*
X0014213Y0036065D02*
X0018407Y0036065D01*
X0018299Y0035387D01*
X0018076Y0034699D01*
X0017747Y0034054D01*
X0017321Y0033468D01*
X0016809Y0032956D01*
X0016224Y0032530D01*
X0015578Y0032202D01*
X0014890Y0031978D01*
X0014213Y0031871D01*
X0014213Y0036064D01*
X0014213Y0035360D02*
X0013413Y0035360D01*
X0013413Y0036064D02*
X0013413Y0031871D01*
X0012735Y0031978D01*
X0012047Y0032202D01*
X0011402Y0032530D01*
X0010816Y0032956D01*
X0010304Y0033468D01*
X0009878Y0034054D01*
X0009550Y0034699D01*
X0009326Y0035387D01*
X0009219Y0036065D01*
X0013413Y0036065D01*
X0013413Y0036558D02*
X0005059Y0036558D01*
X0005059Y0035360D02*
X0009335Y0035360D01*
X0009823Y0034161D02*
X0005059Y0034161D01*
X0005059Y0032963D02*
X0010809Y0032963D01*
X0013413Y0032963D02*
X0014213Y0032963D01*
X0014213Y0034161D02*
X0013413Y0034161D01*
X0013413Y0037757D02*
X0014213Y0037757D01*
X0014213Y0038955D02*
X0013413Y0038955D01*
X0013413Y0040154D02*
X0014213Y0040154D01*
X0014213Y0042551D02*
X0013413Y0042551D01*
X0013413Y0043749D02*
X0014213Y0043749D01*
X0014213Y0044948D02*
X0013413Y0044948D01*
X0013413Y0047345D02*
X0014213Y0047345D01*
X0014213Y0048543D02*
X0013413Y0048543D01*
X0013413Y0049742D02*
X0014213Y0049742D01*
X0017041Y0049742D02*
X0020302Y0049742D01*
X0019478Y0048543D02*
X0017916Y0048543D01*
X0018330Y0047345D02*
X0019013Y0047345D01*
X0011713Y0052139D02*
X0005059Y0052139D01*
X0005059Y0053337D02*
X0010151Y0053337D01*
X0009416Y0054536D02*
X0005059Y0054536D01*
X0005059Y0055734D02*
X0009013Y0055734D01*
X0009013Y0056933D02*
X0005059Y0056933D01*
X0005059Y0058132D02*
X0009308Y0058132D01*
X0009890Y0059330D02*
X0005059Y0059330D01*
X0005059Y0060529D02*
X0011088Y0060529D01*
X0012707Y0061727D02*
X0005059Y0061727D01*
X0005059Y0062926D02*
X0010563Y0062926D01*
X0009587Y0064124D02*
X0005059Y0064124D01*
X0005059Y0065323D02*
X0009090Y0065323D01*
X0009013Y0066521D02*
X0005059Y0066521D01*
X0005059Y0067720D02*
X0009137Y0067720D01*
X0009633Y0068918D02*
X0005059Y0068918D01*
X0005059Y0070117D02*
X0010676Y0070117D01*
X0010975Y0072514D02*
X0005059Y0072514D01*
X0005059Y0073712D02*
X0009777Y0073712D01*
X0009261Y0074911D02*
X0005059Y0074911D01*
X0005059Y0076109D02*
X0009013Y0076109D01*
X0009013Y0077308D02*
X0005059Y0077308D01*
X0005059Y0078506D02*
X0009463Y0078506D01*
X0010265Y0079705D02*
X0005059Y0079705D01*
X0005059Y0080903D02*
X0011986Y0080903D01*
X0011802Y0082102D02*
X0005059Y0082102D01*
X0005059Y0083300D02*
X0010189Y0083300D01*
X0009431Y0084499D02*
X0005059Y0084499D01*
X0005059Y0085697D02*
X0009013Y0085697D01*
X0009013Y0086896D02*
X0005059Y0086896D01*
X0005059Y0088094D02*
X0009292Y0088094D01*
X0009853Y0089293D02*
X0005059Y0089293D01*
X0005059Y0090491D02*
X0011051Y0090491D01*
X0012797Y0091690D02*
X0005059Y0091690D01*
X0005059Y0092888D02*
X0010601Y0092888D01*
X0009602Y0094087D02*
X0005059Y0094087D01*
X0005059Y0095285D02*
X0009106Y0095285D01*
X0009013Y0096484D02*
X0005059Y0096484D01*
X0005059Y0097682D02*
X0009122Y0097682D01*
X0009618Y0098881D02*
X0005059Y0098881D01*
X0005059Y0100079D02*
X0010639Y0100079D01*
X0011012Y0102476D02*
X0005059Y0102476D01*
X0005059Y0101278D02*
X0095324Y0101278D01*
X0095435Y0100079D02*
X0026986Y0100079D01*
X0028007Y0098881D02*
X0096086Y0098881D01*
X0095665Y0102476D02*
X0026613Y0102476D01*
X0027811Y0103675D02*
X0096641Y0103675D01*
X0100559Y0103675D02*
X0102641Y0103675D01*
X0102093Y0104873D02*
X0028349Y0104873D01*
X0028613Y0106072D02*
X0101438Y0106072D01*
X0106559Y0103675D02*
X0236600Y0103675D01*
X0236600Y0104873D02*
X0107107Y0104873D01*
X0107762Y0106072D02*
X0236600Y0106072D01*
X0236600Y0102476D02*
X0107535Y0102476D01*
X0107876Y0101278D02*
X0236600Y0101278D01*
X0236600Y0100079D02*
X0212727Y0100079D01*
X0214353Y0098881D02*
X0236600Y0098881D01*
X0236600Y0097682D02*
X0214864Y0097682D01*
X0214876Y0096484D02*
X0236600Y0096484D01*
X0236600Y0095285D02*
X0214436Y0095285D01*
X0213129Y0094087D02*
X0236600Y0094087D01*
X0257375Y0094087D02*
X0332600Y0094087D01*
X0332600Y0095285D02*
X0257369Y0095285D01*
X0257364Y0096484D02*
X0332600Y0096484D01*
X0332600Y0097682D02*
X0257358Y0097682D01*
X0257353Y0098881D02*
X0332600Y0098881D01*
X0332600Y0100079D02*
X0257347Y0100079D01*
X0257342Y0101278D02*
X0332600Y0101278D01*
X0332600Y0102476D02*
X0257336Y0102476D01*
X0257331Y0103675D02*
X0332600Y0103675D01*
X0332600Y0104873D02*
X0257325Y0104873D01*
X0257320Y0106072D02*
X0332600Y0106072D01*
X0332600Y0107270D02*
X0294504Y0107270D01*
X0294456Y0107222D02*
X0295378Y0108144D01*
X0295876Y0109348D01*
X0295876Y0110652D01*
X0295378Y0111856D01*
X0295233Y0112000D01*
X0295378Y0112144D01*
X0295876Y0113348D01*
X0295876Y0114652D01*
X0295378Y0115856D01*
X0294456Y0116778D01*
X0293252Y0117276D01*
X0291948Y0117276D01*
X0290744Y0116778D01*
X0289822Y0115856D01*
X0289324Y0114652D01*
X0289324Y0113348D01*
X0289822Y0112144D01*
X0289966Y0112000D01*
X0289822Y0111856D01*
X0289324Y0110652D01*
X0289324Y0109348D01*
X0289822Y0108144D01*
X0290744Y0107222D01*
X0291948Y0106724D01*
X0293252Y0106724D01*
X0294456Y0107222D01*
X0295512Y0108469D02*
X0332600Y0108469D01*
X0332600Y0109668D02*
X0295876Y0109668D01*
X0295788Y0110866D02*
X0303100Y0110866D01*
X0302822Y0111144D02*
X0303744Y0110222D01*
X0304948Y0109724D01*
X0306252Y0109724D01*
X0307456Y0110222D01*
X0308378Y0111144D01*
X0308876Y0112348D01*
X0308876Y0113652D01*
X0308378Y0114856D01*
X0307456Y0115778D01*
X0306252Y0116276D01*
X0304948Y0116276D01*
X0303744Y0115778D01*
X0302822Y0114856D01*
X0302324Y0113652D01*
X0302324Y0112348D01*
X0302822Y0111144D01*
X0302441Y0112065D02*
X0295298Y0112065D01*
X0295841Y0113263D02*
X0302324Y0113263D01*
X0302659Y0114462D02*
X0295876Y0114462D01*
X0295459Y0115660D02*
X0303627Y0115660D01*
X0307573Y0115660D02*
X0310627Y0115660D01*
X0310744Y0115778D02*
X0309822Y0114856D01*
X0309324Y0113652D01*
X0309324Y0112348D01*
X0309822Y0111144D01*
X0310744Y0110222D01*
X0311948Y0109724D01*
X0313252Y0109724D01*
X0314456Y0110222D01*
X0315378Y0111144D01*
X0315876Y0112348D01*
X0315876Y0113652D01*
X0315378Y0114856D01*
X0314456Y0115778D01*
X0313252Y0116276D01*
X0311948Y0116276D01*
X0310744Y0115778D01*
X0309659Y0114462D02*
X0308541Y0114462D01*
X0308876Y0113263D02*
X0309324Y0113263D01*
X0309441Y0112065D02*
X0308759Y0112065D01*
X0308100Y0110866D02*
X0310100Y0110866D01*
X0315100Y0110866D02*
X0331734Y0110866D01*
X0332600Y0110000D02*
X0332600Y0083000D01*
X0286600Y0045000D01*
X0257600Y0045000D01*
X0256600Y0263000D01*
X0326600Y0263000D01*
X0326600Y0230000D01*
X0322600Y0226000D01*
X0308600Y0226000D01*
X0300600Y0218000D01*
X0300600Y0212276D01*
X0299948Y0212276D01*
X0298744Y0211778D01*
X0298100Y0211133D01*
X0297456Y0211778D01*
X0296252Y0212276D01*
X0294948Y0212276D01*
X0293744Y0211778D01*
X0293100Y0211133D01*
X0292456Y0211778D01*
X0291252Y0212276D01*
X0289948Y0212276D01*
X0288744Y0211778D01*
X0287822Y0210856D01*
X0287324Y0209652D01*
X0287324Y0208348D01*
X0287822Y0207144D01*
X0288744Y0206222D01*
X0289948Y0205724D01*
X0291252Y0205724D01*
X0292456Y0206222D01*
X0293100Y0206866D01*
X0293744Y0206222D01*
X0294948Y0205724D01*
X0296252Y0205724D01*
X0297456Y0206222D01*
X0298100Y0206866D01*
X0298744Y0206222D01*
X0299948Y0205724D01*
X0300600Y0205724D01*
X0300600Y0172132D01*
X0300252Y0172276D01*
X0298948Y0172276D01*
X0297744Y0171778D01*
X0297100Y0171133D01*
X0296456Y0171778D01*
X0295252Y0172276D01*
X0293948Y0172276D01*
X0292744Y0171778D01*
X0292100Y0171133D01*
X0291456Y0171778D01*
X0290252Y0172276D01*
X0288948Y0172276D01*
X0287744Y0171778D01*
X0286822Y0170856D01*
X0286324Y0169652D01*
X0286324Y0168348D01*
X0286822Y0167144D01*
X0287744Y0166222D01*
X0288948Y0165724D01*
X0290252Y0165724D01*
X0291456Y0166222D01*
X0292100Y0166866D01*
X0292744Y0166222D01*
X0293948Y0165724D01*
X0295252Y0165724D01*
X0296456Y0166222D01*
X0297100Y0166866D01*
X0297744Y0166222D01*
X0298948Y0165724D01*
X0300252Y0165724D01*
X0300600Y0165868D01*
X0300600Y0142000D01*
X0312374Y0130226D01*
X0312822Y0129144D01*
X0313744Y0128222D01*
X0314826Y0127774D01*
X0332600Y0110000D01*
X0330535Y0112065D02*
X0315759Y0112065D01*
X0315876Y0113263D02*
X0329337Y0113263D01*
X0328138Y0114462D02*
X0315541Y0114462D01*
X0314573Y0115660D02*
X0326940Y0115660D01*
X0325741Y0116859D02*
X0294260Y0116859D01*
X0290940Y0116859D02*
X0257270Y0116859D01*
X0257265Y0118057D02*
X0324543Y0118057D01*
X0323344Y0119256D02*
X0257259Y0119256D01*
X0257254Y0120454D02*
X0322146Y0120454D01*
X0320947Y0121653D02*
X0257248Y0121653D01*
X0257243Y0122851D02*
X0319749Y0122851D01*
X0318550Y0124050D02*
X0257237Y0124050D01*
X0257232Y0125248D02*
X0317352Y0125248D01*
X0316153Y0126447D02*
X0257226Y0126447D01*
X0257221Y0127645D02*
X0314955Y0127645D01*
X0313123Y0128844D02*
X0257215Y0128844D01*
X0257210Y0130042D02*
X0312450Y0130042D01*
X0311359Y0131241D02*
X0257204Y0131241D01*
X0257199Y0132439D02*
X0310161Y0132439D01*
X0308962Y0133638D02*
X0257193Y0133638D01*
X0257188Y0134836D02*
X0307764Y0134836D01*
X0306565Y0136035D02*
X0257182Y0136035D01*
X0257177Y0137233D02*
X0305367Y0137233D01*
X0304168Y0138432D02*
X0257171Y0138432D01*
X0257166Y0139630D02*
X0302970Y0139630D01*
X0301771Y0140829D02*
X0257160Y0140829D01*
X0257155Y0142027D02*
X0300600Y0142027D01*
X0300600Y0143226D02*
X0257149Y0143226D01*
X0257144Y0144424D02*
X0300600Y0144424D01*
X0300600Y0145623D02*
X0257138Y0145623D01*
X0257133Y0146821D02*
X0300600Y0146821D01*
X0300600Y0148020D02*
X0257127Y0148020D01*
X0257122Y0149218D02*
X0300600Y0149218D01*
X0300600Y0150417D02*
X0257116Y0150417D01*
X0257111Y0151615D02*
X0300600Y0151615D01*
X0300600Y0152814D02*
X0257105Y0152814D01*
X0257100Y0154012D02*
X0300600Y0154012D01*
X0300600Y0155211D02*
X0257094Y0155211D01*
X0257089Y0156409D02*
X0300600Y0156409D01*
X0300600Y0157608D02*
X0257083Y0157608D01*
X0257078Y0158806D02*
X0300600Y0158806D01*
X0300600Y0160005D02*
X0257072Y0160005D01*
X0257067Y0161203D02*
X0300600Y0161203D01*
X0300600Y0162402D02*
X0257061Y0162402D01*
X0257056Y0163601D02*
X0300600Y0163601D01*
X0300600Y0164799D02*
X0257050Y0164799D01*
X0257045Y0165998D02*
X0288287Y0165998D01*
X0286801Y0167196D02*
X0257039Y0167196D01*
X0257034Y0168395D02*
X0286324Y0168395D01*
X0286324Y0169593D02*
X0257028Y0169593D01*
X0257023Y0170792D02*
X0286796Y0170792D01*
X0288257Y0171990D02*
X0257017Y0171990D01*
X0257012Y0173189D02*
X0300600Y0173189D01*
X0300600Y0174387D02*
X0257006Y0174387D01*
X0257001Y0175586D02*
X0300600Y0175586D01*
X0300600Y0176784D02*
X0256995Y0176784D01*
X0256990Y0177983D02*
X0300600Y0177983D01*
X0300600Y0179181D02*
X0256984Y0179181D01*
X0256979Y0180380D02*
X0300600Y0180380D01*
X0300600Y0181578D02*
X0256973Y0181578D01*
X0256968Y0182777D02*
X0300600Y0182777D01*
X0300600Y0183975D02*
X0256962Y0183975D01*
X0256957Y0185174D02*
X0300600Y0185174D01*
X0300600Y0186372D02*
X0256952Y0186372D01*
X0256946Y0187571D02*
X0300600Y0187571D01*
X0300600Y0188769D02*
X0256941Y0188769D01*
X0256935Y0189968D02*
X0300600Y0189968D01*
X0300600Y0191166D02*
X0256930Y0191166D01*
X0256924Y0192365D02*
X0300600Y0192365D01*
X0300600Y0193563D02*
X0256919Y0193563D01*
X0256913Y0194762D02*
X0300600Y0194762D01*
X0300600Y0195960D02*
X0256908Y0195960D01*
X0256902Y0197159D02*
X0300600Y0197159D01*
X0300600Y0198357D02*
X0256897Y0198357D01*
X0256891Y0199556D02*
X0300600Y0199556D01*
X0300600Y0200754D02*
X0256886Y0200754D01*
X0256880Y0201953D02*
X0300600Y0201953D01*
X0300600Y0203151D02*
X0256875Y0203151D01*
X0256869Y0204350D02*
X0300600Y0204350D01*
X0300600Y0205548D02*
X0256864Y0205548D01*
X0256858Y0206747D02*
X0288220Y0206747D01*
X0287490Y0207945D02*
X0256853Y0207945D01*
X0256847Y0209144D02*
X0287324Y0209144D01*
X0287610Y0210342D02*
X0256842Y0210342D01*
X0256836Y0211541D02*
X0288507Y0211541D01*
X0292693Y0211541D02*
X0293507Y0211541D01*
X0297693Y0211541D02*
X0298507Y0211541D01*
X0300600Y0212739D02*
X0256831Y0212739D01*
X0256825Y0213938D02*
X0300600Y0213938D01*
X0300600Y0215137D02*
X0256820Y0215137D01*
X0256814Y0216335D02*
X0300600Y0216335D01*
X0300600Y0217534D02*
X0256809Y0217534D01*
X0256803Y0218732D02*
X0301332Y0218732D01*
X0302531Y0219931D02*
X0256798Y0219931D01*
X0256792Y0221129D02*
X0303729Y0221129D01*
X0304928Y0222328D02*
X0256787Y0222328D01*
X0256781Y0223526D02*
X0306126Y0223526D01*
X0307325Y0224725D02*
X0256776Y0224725D01*
X0256770Y0225923D02*
X0308523Y0225923D01*
X0323722Y0227122D02*
X0256765Y0227122D01*
X0256759Y0228320D02*
X0324920Y0228320D01*
X0326119Y0229519D02*
X0256754Y0229519D01*
X0256748Y0230717D02*
X0326600Y0230717D01*
X0326600Y0231916D02*
X0256743Y0231916D01*
X0256737Y0233114D02*
X0326600Y0233114D01*
X0326600Y0234313D02*
X0284701Y0234313D01*
X0284319Y0233931D02*
X0285669Y0235281D01*
X0286400Y0237045D01*
X0286400Y0238955D01*
X0285669Y0240719D01*
X0284319Y0242069D01*
X0282555Y0242800D01*
X0280645Y0242800D01*
X0278881Y0242069D01*
X0277531Y0240719D01*
X0276800Y0238955D01*
X0276800Y0237045D01*
X0277531Y0235281D01*
X0278881Y0233931D01*
X0280645Y0233200D01*
X0282555Y0233200D01*
X0284319Y0233931D01*
X0285765Y0235511D02*
X0326600Y0235511D01*
X0326600Y0236710D02*
X0286261Y0236710D01*
X0286400Y0237908D02*
X0326600Y0237908D01*
X0326600Y0239107D02*
X0286337Y0239107D01*
X0285841Y0240305D02*
X0326600Y0240305D01*
X0326600Y0241504D02*
X0284884Y0241504D01*
X0282791Y0242702D02*
X0326600Y0242702D01*
X0326600Y0243901D02*
X0284247Y0243901D01*
X0284319Y0243931D02*
X0285669Y0245281D01*
X0286400Y0247045D01*
X0286400Y0248955D01*
X0285669Y0250719D01*
X0284319Y0252069D01*
X0282555Y0252800D01*
X0280645Y0252800D01*
X0278881Y0252069D01*
X0277531Y0250719D01*
X0276800Y0248955D01*
X0276800Y0247045D01*
X0277531Y0245281D01*
X0278881Y0243931D01*
X0280645Y0243200D01*
X0282555Y0243200D01*
X0284319Y0243931D01*
X0285488Y0245099D02*
X0326600Y0245099D01*
X0326600Y0246298D02*
X0286090Y0246298D01*
X0286400Y0247496D02*
X0326600Y0247496D01*
X0326600Y0248695D02*
X0286400Y0248695D01*
X0286011Y0249893D02*
X0326600Y0249893D01*
X0326600Y0251092D02*
X0285296Y0251092D01*
X0283785Y0252290D02*
X0326600Y0252290D01*
X0326600Y0253489D02*
X0283252Y0253489D01*
X0282555Y0253200D02*
X0284319Y0253931D01*
X0285669Y0255281D01*
X0286400Y0257045D01*
X0286400Y0258955D01*
X0285669Y0260719D01*
X0284319Y0262069D01*
X0282555Y0262800D01*
X0280645Y0262800D01*
X0278881Y0262069D01*
X0277531Y0260719D01*
X0276800Y0258955D01*
X0276800Y0257045D01*
X0277531Y0255281D01*
X0278881Y0253931D01*
X0280645Y0253200D01*
X0282555Y0253200D01*
X0279948Y0253489D02*
X0269252Y0253489D01*
X0268555Y0253200D02*
X0270319Y0253931D01*
X0271669Y0255281D01*
X0272400Y0257045D01*
X0272400Y0258955D01*
X0271669Y0260719D01*
X0270319Y0262069D01*
X0268555Y0262800D01*
X0266645Y0262800D01*
X0264881Y0262069D01*
X0263531Y0260719D01*
X0262800Y0258955D01*
X0262800Y0257045D01*
X0263531Y0255281D01*
X0264881Y0253931D01*
X0266645Y0253200D01*
X0268555Y0253200D01*
X0268555Y0252800D02*
X0266645Y0252800D01*
X0264881Y0252069D01*
X0263531Y0250719D01*
X0262800Y0248955D01*
X0262800Y0247045D01*
X0263531Y0245281D01*
X0264881Y0243931D01*
X0266645Y0243200D01*
X0268555Y0243200D01*
X0270319Y0243931D01*
X0271669Y0245281D01*
X0272400Y0247045D01*
X0272400Y0248955D01*
X0271669Y0250719D01*
X0270319Y0252069D01*
X0268555Y0252800D01*
X0269785Y0252290D02*
X0279415Y0252290D01*
X0277904Y0251092D02*
X0271296Y0251092D01*
X0272011Y0249893D02*
X0277189Y0249893D01*
X0276800Y0248695D02*
X0272400Y0248695D01*
X0272400Y0247496D02*
X0276800Y0247496D01*
X0277110Y0246298D02*
X0272090Y0246298D01*
X0271488Y0245099D02*
X0277712Y0245099D01*
X0278953Y0243901D02*
X0270247Y0243901D01*
X0270319Y0242069D02*
X0268555Y0242800D01*
X0266645Y0242800D01*
X0264881Y0242069D01*
X0263531Y0240719D01*
X0262800Y0238955D01*
X0262800Y0237045D01*
X0263531Y0235281D01*
X0264881Y0233931D01*
X0266645Y0233200D01*
X0268555Y0233200D01*
X0270319Y0233931D01*
X0271669Y0235281D01*
X0272400Y0237045D01*
X0272400Y0238955D01*
X0271669Y0240719D01*
X0270319Y0242069D01*
X0270884Y0241504D02*
X0278316Y0241504D01*
X0277359Y0240305D02*
X0271841Y0240305D01*
X0272337Y0239107D02*
X0276863Y0239107D01*
X0276800Y0237908D02*
X0272400Y0237908D01*
X0272261Y0236710D02*
X0276939Y0236710D01*
X0277435Y0235511D02*
X0271765Y0235511D01*
X0270701Y0234313D02*
X0278499Y0234313D01*
X0280409Y0242702D02*
X0268791Y0242702D01*
X0266409Y0242702D02*
X0256693Y0242702D01*
X0256699Y0241504D02*
X0264316Y0241504D01*
X0263359Y0240305D02*
X0256704Y0240305D01*
X0256710Y0239107D02*
X0262863Y0239107D01*
X0262800Y0237908D02*
X0256715Y0237908D01*
X0256721Y0236710D02*
X0262939Y0236710D01*
X0263435Y0235511D02*
X0256726Y0235511D01*
X0256732Y0234313D02*
X0264499Y0234313D01*
X0264953Y0243901D02*
X0256688Y0243901D01*
X0256682Y0245099D02*
X0263712Y0245099D01*
X0263110Y0246298D02*
X0256677Y0246298D01*
X0256671Y0247496D02*
X0262800Y0247496D01*
X0262800Y0248695D02*
X0256666Y0248695D01*
X0256660Y0249893D02*
X0263189Y0249893D01*
X0263904Y0251092D02*
X0256655Y0251092D01*
X0256649Y0252290D02*
X0265415Y0252290D01*
X0265948Y0253489D02*
X0256644Y0253489D01*
X0256638Y0254687D02*
X0264124Y0254687D01*
X0263280Y0255886D02*
X0256633Y0255886D01*
X0256627Y0257084D02*
X0262800Y0257084D01*
X0262800Y0258283D02*
X0256622Y0258283D01*
X0256616Y0259481D02*
X0263018Y0259481D01*
X0263515Y0260680D02*
X0256611Y0260680D01*
X0256605Y0261878D02*
X0264690Y0261878D01*
X0270510Y0261878D02*
X0278690Y0261878D01*
X0277515Y0260680D02*
X0271685Y0260680D01*
X0272182Y0259481D02*
X0277018Y0259481D01*
X0276800Y0258283D02*
X0272400Y0258283D01*
X0272400Y0257084D02*
X0276800Y0257084D01*
X0277280Y0255886D02*
X0271920Y0255886D01*
X0271076Y0254687D02*
X0278124Y0254687D01*
X0285076Y0254687D02*
X0326600Y0254687D01*
X0326600Y0255886D02*
X0285920Y0255886D01*
X0286400Y0257084D02*
X0326600Y0257084D01*
X0326600Y0258283D02*
X0286400Y0258283D01*
X0286182Y0259481D02*
X0326600Y0259481D01*
X0326600Y0260680D02*
X0285685Y0260680D01*
X0284510Y0261878D02*
X0326600Y0261878D01*
X0298220Y0206747D02*
X0297980Y0206747D01*
X0293220Y0206747D02*
X0292980Y0206747D01*
X0293257Y0171990D02*
X0290943Y0171990D01*
X0295943Y0171990D02*
X0298257Y0171990D01*
X0298287Y0165998D02*
X0295913Y0165998D01*
X0293287Y0165998D02*
X0290913Y0165998D01*
X0289741Y0115660D02*
X0257276Y0115660D01*
X0257281Y0114462D02*
X0289324Y0114462D01*
X0289359Y0113263D02*
X0257287Y0113263D01*
X0257292Y0112065D02*
X0289902Y0112065D01*
X0289412Y0110866D02*
X0257298Y0110866D01*
X0257303Y0109668D02*
X0289324Y0109668D01*
X0289688Y0108469D02*
X0257309Y0108469D01*
X0257314Y0107270D02*
X0290696Y0107270D01*
X0257380Y0092888D02*
X0332600Y0092888D01*
X0332600Y0091690D02*
X0257386Y0091690D01*
X0257391Y0090491D02*
X0332600Y0090491D01*
X0332600Y0089293D02*
X0257397Y0089293D01*
X0257402Y0088094D02*
X0332600Y0088094D01*
X0332600Y0086896D02*
X0257408Y0086896D01*
X0257413Y0085697D02*
X0332600Y0085697D01*
X0332600Y0084499D02*
X0257419Y0084499D01*
X0257424Y0083300D02*
X0332600Y0083300D01*
X0331513Y0082102D02*
X0257430Y0082102D01*
X0257435Y0080903D02*
X0330062Y0080903D01*
X0328611Y0079705D02*
X0257441Y0079705D01*
X0257446Y0078506D02*
X0327160Y0078506D01*
X0325709Y0077308D02*
X0257452Y0077308D01*
X0257457Y0076109D02*
X0324259Y0076109D01*
X0322808Y0074911D02*
X0304135Y0074911D01*
X0304456Y0074778D02*
X0303252Y0075276D01*
X0301948Y0075276D01*
X0300744Y0074778D01*
X0300100Y0074133D01*
X0299456Y0074778D01*
X0298252Y0075276D01*
X0296948Y0075276D01*
X0295744Y0074778D01*
X0295100Y0074133D01*
X0294456Y0074778D01*
X0293252Y0075276D01*
X0291948Y0075276D01*
X0290744Y0074778D01*
X0289822Y0073856D01*
X0289324Y0072652D01*
X0289324Y0071348D01*
X0289822Y0070144D01*
X0290744Y0069222D01*
X0291948Y0068724D01*
X0293252Y0068724D01*
X0294456Y0069222D01*
X0295100Y0069866D01*
X0295744Y0069222D01*
X0296948Y0068724D01*
X0298252Y0068724D01*
X0299456Y0069222D01*
X0300100Y0069866D01*
X0300744Y0069222D01*
X0301948Y0068724D01*
X0303252Y0068724D01*
X0304456Y0069222D01*
X0305378Y0070144D01*
X0305876Y0071348D01*
X0305876Y0072652D01*
X0305378Y0073856D01*
X0304456Y0074778D01*
X0305437Y0073712D02*
X0321357Y0073712D01*
X0319906Y0072514D02*
X0305876Y0072514D01*
X0305863Y0071315D02*
X0318455Y0071315D01*
X0317004Y0070117D02*
X0305350Y0070117D01*
X0303721Y0068918D02*
X0315554Y0068918D01*
X0314103Y0067720D02*
X0257496Y0067720D01*
X0257490Y0068918D02*
X0291479Y0068918D01*
X0289850Y0070117D02*
X0257485Y0070117D01*
X0257479Y0071315D02*
X0289337Y0071315D01*
X0289324Y0072514D02*
X0257474Y0072514D01*
X0257468Y0073712D02*
X0289763Y0073712D01*
X0291065Y0074911D02*
X0257463Y0074911D01*
X0257501Y0066521D02*
X0312652Y0066521D01*
X0311201Y0065323D02*
X0257507Y0065323D01*
X0257512Y0064124D02*
X0309750Y0064124D01*
X0308299Y0062926D02*
X0257518Y0062926D01*
X0257523Y0061727D02*
X0306849Y0061727D01*
X0305398Y0060529D02*
X0257529Y0060529D01*
X0257534Y0059330D02*
X0303947Y0059330D01*
X0302496Y0058132D02*
X0257540Y0058132D01*
X0257545Y0056933D02*
X0301045Y0056933D01*
X0299594Y0055734D02*
X0257551Y0055734D01*
X0257556Y0054536D02*
X0298144Y0054536D01*
X0296693Y0053337D02*
X0257562Y0053337D01*
X0257567Y0052139D02*
X0295242Y0052139D01*
X0293791Y0050940D02*
X0257573Y0050940D01*
X0257578Y0049742D02*
X0292340Y0049742D01*
X0290889Y0048543D02*
X0257584Y0048543D01*
X0257589Y0047345D02*
X0289439Y0047345D01*
X0287988Y0046146D02*
X0257595Y0046146D01*
X0236600Y0049742D02*
X0220975Y0049742D01*
X0221707Y0050940D02*
X0236600Y0050940D01*
X0236600Y0052139D02*
X0221876Y0052139D01*
X0221592Y0053337D02*
X0236600Y0053337D01*
X0236600Y0064124D02*
X0193358Y0064124D01*
X0193866Y0065323D02*
X0236600Y0065323D01*
X0236600Y0066521D02*
X0193876Y0066521D01*
X0193434Y0067720D02*
X0236600Y0067720D01*
X0236600Y0068918D02*
X0192117Y0068918D01*
X0193350Y0070117D02*
X0236600Y0070117D01*
X0236600Y0071315D02*
X0193863Y0071315D01*
X0193876Y0072514D02*
X0236600Y0072514D01*
X0236600Y0073712D02*
X0193437Y0073712D01*
X0192135Y0074911D02*
X0236600Y0074911D01*
X0236600Y0076109D02*
X0116655Y0076109D01*
X0118323Y0074911D02*
X0189065Y0074911D01*
X0187763Y0073712D02*
X0118851Y0073712D01*
X0118876Y0072514D02*
X0187324Y0072514D01*
X0187337Y0071315D02*
X0118448Y0071315D01*
X0112752Y0071315D02*
X0005059Y0071315D01*
X0014918Y0061727D02*
X0022707Y0061727D01*
X0024918Y0061727D02*
X0078324Y0061727D01*
X0078437Y0062926D02*
X0027062Y0062926D01*
X0028039Y0064124D02*
X0056981Y0064124D01*
X0055748Y0065323D02*
X0028535Y0065323D01*
X0028613Y0066521D02*
X0055324Y0066521D01*
X0055352Y0067720D02*
X0028488Y0067720D01*
X0027992Y0068918D02*
X0055885Y0068918D01*
X0060219Y0064124D02*
X0060981Y0064124D01*
X0060252Y0061276D02*
X0058948Y0061276D01*
X0057744Y0060778D01*
X0056822Y0059856D01*
X0056324Y0058652D01*
X0056324Y0057348D01*
X0056822Y0056144D01*
X0057744Y0055222D01*
X0058948Y0054724D01*
X0060252Y0054724D01*
X0061456Y0055222D01*
X0062378Y0056144D01*
X0062876Y0057348D01*
X0062876Y0058652D01*
X0062378Y0059856D01*
X0061456Y0060778D01*
X0060252Y0061276D01*
X0061705Y0060529D02*
X0078663Y0060529D01*
X0078605Y0059330D02*
X0062595Y0059330D01*
X0062876Y0058132D02*
X0078324Y0058132D01*
X0078496Y0056933D02*
X0062704Y0056933D01*
X0061968Y0055734D02*
X0079232Y0055734D01*
X0078842Y0064124D02*
X0064219Y0064124D01*
X0065452Y0065323D02*
X0078334Y0065323D01*
X0078324Y0066521D02*
X0065876Y0066521D01*
X0065848Y0067720D02*
X0078766Y0067720D01*
X0080083Y0068918D02*
X0065315Y0068918D01*
X0057495Y0060529D02*
X0026537Y0060529D01*
X0027735Y0059330D02*
X0056605Y0059330D01*
X0056324Y0058132D02*
X0028318Y0058132D01*
X0028613Y0056933D02*
X0056496Y0056933D01*
X0057232Y0055734D02*
X0028613Y0055734D01*
X0010099Y0043749D02*
X0005059Y0043749D01*
X0005059Y0042551D02*
X0011373Y0042551D01*
X0011064Y0040154D02*
X0005059Y0040154D01*
X0005059Y0041352D02*
X0236600Y0041352D01*
X0183461Y0062926D02*
X0179739Y0062926D01*
X0181358Y0064124D02*
X0181842Y0064124D01*
X0181766Y0067720D02*
X0181434Y0067720D01*
X0180117Y0068918D02*
X0183083Y0068918D01*
X0177461Y0062926D02*
X0169763Y0062926D01*
X0169109Y0064124D02*
X0175842Y0064124D01*
X0144091Y0064124D02*
X0141109Y0064124D01*
X0107114Y0098881D02*
X0208847Y0098881D01*
X0210473Y0100079D02*
X0107765Y0100079D01*
X0102086Y0098881D02*
X0101114Y0098881D01*
X0101535Y0102476D02*
X0101665Y0102476D01*
X0021013Y0102476D02*
X0016613Y0102476D01*
X0017811Y0103675D02*
X0019814Y0103675D01*
X0019276Y0104873D02*
X0018349Y0104873D01*
X0018613Y0106072D02*
X0019013Y0106072D01*
X0009814Y0103675D02*
X0005059Y0103675D01*
X0005059Y0104873D02*
X0009276Y0104873D01*
X0009013Y0106072D02*
X0005059Y0106072D01*
X0016986Y0100079D02*
X0020639Y0100079D01*
X0019618Y0098881D02*
X0018007Y0098881D01*
X0018504Y0097682D02*
X0019122Y0097682D01*
X0019013Y0096484D02*
X0018613Y0096484D01*
X0018520Y0095285D02*
X0019106Y0095285D01*
X0019602Y0094087D02*
X0018023Y0094087D01*
X0017025Y0092888D02*
X0020601Y0092888D01*
X0009936Y0038955D02*
X0005059Y0038955D01*
X0005059Y0037757D02*
X0009396Y0037757D01*
X0016816Y0032963D02*
X0020526Y0032963D01*
X0019571Y0034161D02*
X0017802Y0034161D01*
X0018290Y0035360D02*
X0019075Y0035360D01*
X0293721Y0068918D02*
X0296479Y0068918D01*
X0298721Y0068918D02*
X0301479Y0068918D01*
X0301065Y0074911D02*
X0299135Y0074911D01*
X0296065Y0074911D02*
X0294135Y0074911D01*
D16*
X0284600Y0230000D03*
X0354600Y0238000D03*
D17*
X0348915Y0233315D01*
X0348915Y0216094D01*
M02*
