<?xml version="1.0" encoding="UTF-8" standalone="no"?>
<!DOCTYPE svg PUBLIC "-//W3C//DTD SVG 1.1//EN" "http://www.w3.org/Graphics/SVG/1.1/DTD/svg11.dtd">
<!-- Created with Inkscape (http://www.inkscape.org/) -->
<svg
   xmlns:svg="http://www.w3.org/2000/svg"
   xmlns:xlink="http://www.w3.org/1999/xlink"
   xmlns="http://www.w3.org/2000/svg"
   version="1.1"
   width="100"
   height="80"
   id="svg2550">
  <defs
     id="defs2553" />
  <g
     transform="matrix(0.9553026,0,0,0.9553026,-3.0454068,15.118622)"
     id="g3367">
    <path
       d="M 95.686578,17.800694 L 97.706032,19.779958 L 99.837187,17.511401 L 93.376268,12.516942 L 63.947472,21.639103 L 59.414096,16.925771 L 48.035604,16.853379 L 48.053663,11.971201 L 52.0625,11.984602 L 52.132353,6.0267509 L 38.047794,6.0267509 L 38.040441,11.958867 L 42.047794,12.024027 L 42.047794,17.073529 L 31.711781,17.21911 L 31.800993,12.494051 L 13.328955,6.5726769 L 10.034875,21.802523 L 27.034044,26.07758 L 26.970588,43.029412 L 67.605157,42.926471 L 92.713484,17.790587 L 95.686578,17.800694 z M 85.154065,18.930992 L 66.460645,26.082662 L 60.259367,26.073316 L 55.255716,21.115157 L 36.399834,20.970648 L 32.126515,21.982008 L 32.053725,37.091856 L 66.792487,36.985797 L 85.154065,18.930992 z M 26.899904,15.111809 L 16.400126,11.812826 L 14.875005,18.129117 L 26.700764,20.991095 L 26.899904,15.111809 z"
       id="path2563"
       style="fill:#ff0000;fill-opacity:1;fill-rule:evenodd" />
    <path
       d="M 93.462879,33.036363 C 90.964054,37.959459 102.39546,38.526129 100.52355,33.109154 C 97.627604,28.036351 97.66936,26.986052 97.102399,24.956629 C 96.364282,26.948278 96.561502,28.094886 93.462879,33.036363 z"
       id="path3365"
       style="fill:#ff0000;fill-opacity:1;fill-rule:evenodd;stroke:#ff000f;stroke-width:1px;stroke-linecap:butt;stroke-linejoin:miter;stroke-opacity:0.94117647" />
  </g>
</svg>
