<?xml version="1.0" encoding="UTF-8" standalone="no"?>
<svg
   version="1.1"
   width="6.708140cm"
   height="5.908040cm"
   viewBox="0 0 67081400 59080400"
   id="svg462"
   sodipodi:docname="touch_panel-B_Cu.svg"
   inkscape:version="1.1.2 (0a00cf5339, 2022-02-04)"
   xmlns:inkscape="http://www.inkscape.org/namespaces/inkscape"
   xmlns:sodipodi="http://sodipodi.sourceforge.net/DTD/sodipodi-0.dtd"
   xmlns="http://www.w3.org/2000/svg"
   xmlns:svg="http://www.w3.org/2000/svg"
   xmlns:rdf="http://www.w3.org/1999/02/22-rdf-syntax-ns#"
   xmlns:cc="http://creativecommons.org/ns#"
   xmlns:dc="http://purl.org/dc/elements/1.1/">
  <defs
     id="defs466" />
  <sodipodi:namedview
     id="namedview464"
     pagecolor="#ffffff"
     bordercolor="#666666"
     borderopacity="1.0"
     inkscape:pageshadow="2"
     inkscape:pageopacity="0.0"
     inkscape:pagecheckerboard="0"
     inkscape:document-units="cm"
     showgrid="false"
     inkscape:zoom="1.2381715"
     inkscape:cx="359.80475"
     inkscape:cy="182.12339"
     inkscape:window-width="1846"
     inkscape:window-height="1016"
     inkscape:window-x="0"
     inkscape:window-y="0"
     inkscape:window-maximized="1"
     inkscape:current-layer="g272" />
  <title
     id="title2">SVG Picture created as touch_panel-B_Cu.svg date 2022/12/29 13:32:42 </title>
  <desc
     id="desc4">Picture generated by PCBNEW </desc>
  <g
     style="fill:#000000; fill-opacity:1.000000;stroke:#000000; stroke-opacity:1.000000; stroke-linecap:round; stroke-linejoin:round;"
     transform="translate(0 0) scale(1 1)"
     id="g6" />
  <g
     style="fill:#000000; fill-opacity:0.0;  stroke:#000000; stroke-width:0.000000; stroke-opacity:1;  stroke-linecap:round; stroke-linejoin:round;"
     id="g272">
    <g
       id="g8" />
    <g
       id="g10" />
    <g
       id="g12" />
    <g
       id="g14" />
    <g
       id="g16" />
    <g
       id="g18" />
    <g
       id="g20" />
    <g
       id="g22" />
    <g
       id="g24" />
    <g
       id="g26" />
    <g
       id="g28" />
    <g
       id="g30" />
    <g
       id="g32" />
    <g
       id="g34" />
    <g
       id="g36" />
    <g
       id="g38" />
    <g
       id="g40" />
    <g
       style="fill:#4D7FC4; fill-opacity:0.0;  stroke:#4D7FC4; stroke-width:0.000000; stroke-opacity:1;  stroke-linecap:round; stroke-linejoin:round;"
       id="g42" />
    <g
       style="fill:#4D7FC4; fill-opacity:0.0;  stroke:#4D7FC4; stroke-width:1.000000; stroke-opacity:1;  stroke-linecap:round; stroke-linejoin:round;"
       id="g44" />
    <g
       style="fill:#4D7FC4; fill-opacity:1.0;  stroke:#4D7FC4; stroke-width:1.000000; stroke-opacity:1;  stroke-linecap:round; stroke-linejoin:round;"
       id="g48">
      <path
         style="fill:#4D7FC4; fill-opacity:1.0;  stroke:#4D7FC4; stroke-width:1.000000; stroke-opacity:1;  stroke-linecap:round; stroke-linejoin:round;fill-rule:evenodd;"
         d="M 4800000.000000,36925000.000000 4817119.000000,36598349.000000 4874075.000000,36248626.000000 4970254.000000,35907600.000000 5104421.000000,35579653.000000 5274850.000000,35269002.000000 5479350.000000,34979642.000000 5715291.000000,34715291.000000 5979642.000000,34479350.000000 6269002.000000,34274850.000000 6579653.000000,34104421.000000 6907600.000000,33970254.000000 7248626.000000,33874075.000000 7598349.000000,33817119.000000 7925000.000000,33800000.000000 14175000.000000,33800000.000000 14501651.000000,33817119.000000 14851374.000000,33874075.000000 15192400.000000,33970254.000000 15520347.000000,34104421.000000 15830998.000000,34274850.000000 16120358.000000,34479350.000000 16384709.000000,34715291.000000 16620650.000000,34979642.000000 16825150.000000,35269002.000000 16995579.000000,35579653.000000 17129746.000000,35907600.000000 17225925.000000,36248626.000000 17282881.000000,36598349.000000 17300000.000000,36925000.000000 17300000.000000,43175000.000000 17282881.000000,43501651.000000 17225925.000000,43851374.000000 17129746.000000,44192400.000000 16995579.000000,44520347.000000 16825150.000000,44830998.000000 16620650.000000,45120358.000000 16384709.000000,45384709.000000 16120358.000000,45620650.000000 15830998.000000,45825150.000000 15520347.000000,45995579.000000 15192400.000000,46129746.000000 14851374.000000,46225925.000000 14501651.000000,46282881.000000 14175000.000000,46300000.000000 7925000.000000,46300000.000000 7598349.000000,46282881.000000 7248626.000000,46225925.000000 6907600.000000,46129746.000000 6579653.000000,45995579.000000 6269002.000000,45825150.000000 5979642.000000,45620650.000000 5715291.000000,45384709.000000 5479350.000000,45120358.000000 5274850.000000,44830998.000000 5104421.000000,44520347.000000 4970254.000000,44192400.000000 4874075.000000,43851374.000000 4817119.000000,43501651.000000 4800000.000000,43175000.000000 Z"
         id="path46" />
    </g>
    <g
       id="g50" />
    <g
       style="fill:#4D7FC4; fill-opacity:1.0;  stroke:#4D7FC4; stroke-width:1.000000; stroke-opacity:1;  stroke-linecap:round; stroke-linejoin:round;"
       id="g54">
      <path
         style="fill:#4D7FC4; fill-opacity:1.0;  stroke:#4D7FC4; stroke-width:1.000000; stroke-opacity:1;  stroke-linecap:round; stroke-linejoin:round;fill-rule:evenodd;"
         d="M 35300000.000000,44925000.000000 35317119.000000,44598349.000000 35374075.000000,44248626.000000 35470254.000000,43907600.000000 35604421.000000,43579653.000000 35774850.000000,43269002.000000 35979350.000000,42979642.000000 36215291.000000,42715291.000000 36479642.000000,42479350.000000 36769002.000000,42274850.000000 37079653.000000,42104421.000000 37407600.000000,41970254.000000 37748626.000000,41874075.000000 38098349.000000,41817119.000000 38425000.000000,41800000.000000 44675000.000000,41800000.000000 45001651.000000,41817119.000000 45351374.000000,41874075.000000 45692400.000000,41970254.000000 46020347.000000,42104421.000000 46330998.000000,42274850.000000 46620358.000000,42479350.000000 46884709.000000,42715291.000000 47120650.000000,42979642.000000 47325150.000000,43269002.000000 47495579.000000,43579653.000000 47629746.000000,43907600.000000 47725925.000000,44248626.000000 47782881.000000,44598349.000000 47800000.000000,44925000.000000 47800000.000000,51175000.000000 47782881.000000,51501651.000000 47725925.000000,51851374.000000 47629746.000000,52192400.000000 47495579.000000,52520347.000000 47325150.000000,52830998.000000 47120650.000000,53120358.000000 46884709.000000,53384709.000000 46620358.000000,53620650.000000 46330998.000000,53825150.000000 46020347.000000,53995579.000000 45692400.000000,54129746.000000 45351374.000000,54225925.000000 45001651.000000,54282881.000000 44675000.000000,54300000.000000 38425000.000000,54300000.000000 38098349.000000,54282881.000000 37748626.000000,54225925.000000 37407600.000000,54129746.000000 37079653.000000,53995579.000000 36769002.000000,53825150.000000 36479642.000000,53620650.000000 36215291.000000,53384709.000000 35979350.000000,53120358.000000 35774850.000000,52830998.000000 35604421.000000,52520347.000000 35470254.000000,52192400.000000 35374075.000000,51851374.000000 35317119.000000,51501651.000000 35300000.000000,51175000.000000 Z"
         id="path52" />
    </g>
    <g
       id="g56" />
    <g
       style="fill:#4D7FC4; fill-opacity:1.0;  stroke:#4D7FC4; stroke-width:1.000000; stroke-opacity:1;  stroke-linecap:round; stroke-linejoin:round;"
       id="g60">
      <path
         style="fill:#4D7FC4; fill-opacity:1.0;  stroke:#4D7FC4; stroke-width:1.000000; stroke-opacity:1;  stroke-linecap:round; stroke-linejoin:round;fill-rule:evenodd;"
         d="M 19300000.000000,44925000.000000 19317119.000000,44598349.000000 19374075.000000,44248626.000000 19470254.000000,43907600.000000 19604421.000000,43579653.000000 19774850.000000,43269002.000000 19979350.000000,42979642.000000 20215291.000000,42715291.000000 20479642.000000,42479350.000000 20769002.000000,42274850.000000 21079653.000000,42104421.000000 21407600.000000,41970254.000000 21748626.000000,41874075.000000 22098349.000000,41817119.000000 22425000.000000,41800000.000000 28675000.000000,41800000.000000 29001651.000000,41817119.000000 29351374.000000,41874075.000000 29692400.000000,41970254.000000 30020347.000000,42104421.000000 30330998.000000,42274850.000000 30620358.000000,42479350.000000 30884709.000000,42715291.000000 31120650.000000,42979642.000000 31325150.000000,43269002.000000 31495579.000000,43579653.000000 31629746.000000,43907600.000000 31725925.000000,44248626.000000 31782881.000000,44598349.000000 31800000.000000,44925000.000000 31800000.000000,51175000.000000 31782881.000000,51501651.000000 31725925.000000,51851374.000000 31629746.000000,52192400.000000 31495579.000000,52520347.000000 31325150.000000,52830998.000000 31120650.000000,53120358.000000 30884709.000000,53384709.000000 30620358.000000,53620650.000000 30330998.000000,53825150.000000 30020347.000000,53995579.000000 29692400.000000,54129746.000000 29351374.000000,54225925.000000 29001651.000000,54282881.000000 28675000.000000,54300000.000000 22425000.000000,54300000.000000 22098349.000000,54282881.000000 21748626.000000,54225925.000000 21407600.000000,54129746.000000 21079653.000000,53995579.000000 20769002.000000,53825150.000000 20479642.000000,53620650.000000 20215291.000000,53384709.000000 19979350.000000,53120358.000000 19774850.000000,52830998.000000 19604421.000000,52520347.000000 19470254.000000,52192400.000000 19374075.000000,51851374.000000 19317119.000000,51501651.000000 19300000.000000,51175000.000000 Z"
         id="path58" />
    </g>
    <g
       id="g62" />
    <g
       style="fill:#4D7FC4; fill-opacity:1.0;  stroke:#4D7FC4; stroke-width:1.000000; stroke-opacity:1;  stroke-linecap:round; stroke-linejoin:round;"
       id="g66">
      <path
         style="fill:#4D7FC4; fill-opacity:1.0;  stroke:#4D7FC4; stroke-width:1.000000; stroke-opacity:1;  stroke-linecap:round; stroke-linejoin:round;fill-rule:evenodd;"
         d="M 49800000.000000,36925000.000000 49817119.000000,36598349.000000 49874075.000000,36248626.000000 49970254.000000,35907600.000000 50104421.000000,35579653.000000 50274850.000000,35269002.000000 50479350.000000,34979642.000000 50715291.000000,34715291.000000 50979642.000000,34479350.000000 51269002.000000,34274850.000000 51579653.000000,34104421.000000 51907600.000000,33970254.000000 52248626.000000,33874075.000000 52598349.000000,33817119.000000 52925000.000000,33800000.000000 59175000.000000,33800000.000000 59501651.000000,33817119.000000 59851374.000000,33874075.000000 60192400.000000,33970254.000000 60520347.000000,34104421.000000 60830998.000000,34274850.000000 61120358.000000,34479350.000000 61384709.000000,34715291.000000 61620650.000000,34979642.000000 61825150.000000,35269002.000000 61995579.000000,35579653.000000 62129746.000000,35907600.000000 62225925.000000,36248626.000000 62282881.000000,36598349.000000 62300000.000000,36925000.000000 62300000.000000,43175000.000000 62282881.000000,43501651.000000 62225925.000000,43851374.000000 62129746.000000,44192400.000000 61995579.000000,44520347.000000 61825150.000000,44830998.000000 61620650.000000,45120358.000000 61384709.000000,45384709.000000 61120358.000000,45620650.000000 60830998.000000,45825150.000000 60520347.000000,45995579.000000 60192400.000000,46129746.000000 59851374.000000,46225925.000000 59501651.000000,46282881.000000 59175000.000000,46300000.000000 52925000.000000,46300000.000000 52598349.000000,46282881.000000 52248626.000000,46225925.000000 51907600.000000,46129746.000000 51579653.000000,45995579.000000 51269002.000000,45825150.000000 50979642.000000,45620650.000000 50715291.000000,45384709.000000 50479350.000000,45120358.000000 50274850.000000,44830998.000000 50104421.000000,44520347.000000 49970254.000000,44192400.000000 49874075.000000,43851374.000000 49817119.000000,43501651.000000 49800000.000000,43175000.000000 Z"
         id="path64" />
    </g>
    <g
       id="g68" />
    <g
       style="fill:#ECECEC; fill-opacity:1.0;  stroke:#ECECEC; stroke-width:1.000000; stroke-opacity:1;  stroke-linecap:round; stroke-linejoin:round;"
       id="g72">
      <circle
         cx="20370000.000000"
         cy="18338000.000000"
         r="400000.000000"
         id="circle70" />
    </g>
    <g
       style="fill:#ECECEC; fill-opacity:1.0;  stroke:#ECECEC; stroke-width:21200.000000; stroke-opacity:1;  stroke-linecap:round; stroke-linejoin:round;"
       id="g74" />
    <g
       style="fill:#ECECEC; fill-opacity:1.0;  stroke:#ECECEC; stroke-width:1.000000; stroke-opacity:1;  stroke-linecap:round; stroke-linejoin:round;"
       id="g78">
      <circle
         cx="37642000.000000"
         cy="12242000.000000"
         r="400000.000000"
         id="circle76" />
    </g>
    <g
       style="fill:#ECECEC; fill-opacity:1.0;  stroke:#ECECEC; stroke-width:21200.000000; stroke-opacity:1;  stroke-linecap:round; stroke-linejoin:round;"
       id="g80" />
    <g
       style="fill:#ECECEC; fill-opacity:1.0;  stroke:#ECECEC; stroke-width:1.000000; stroke-opacity:1;  stroke-linecap:round; stroke-linejoin:round;"
       id="g84">
      <circle
         cx="18846000.000000"
         cy="20370000.000000"
         r="400000.000000"
         id="circle82" />
    </g>
    <g
       style="fill:#ECECEC; fill-opacity:1.0;  stroke:#ECECEC; stroke-width:21200.000000; stroke-opacity:1;  stroke-linecap:round; stroke-linejoin:round;"
       id="g86" />
    <g
       style="fill:#ECECEC; fill-opacity:1.0;  stroke:#ECECEC; stroke-width:1.000000; stroke-opacity:1;  stroke-linecap:round; stroke-linejoin:round;"
       id="g90">
      <circle
         cx="20370000.000000"
         cy="22656000.000000"
         r="400000.000000"
         id="circle88" />
    </g>
    <g
       style="fill:#ECECEC; fill-opacity:1.0;  stroke:#ECECEC; stroke-width:21200.000000; stroke-opacity:1;  stroke-linecap:round; stroke-linejoin:round;"
       id="g92" />
    <g
       style="fill:#ECECEC; fill-opacity:1.0;  stroke:#ECECEC; stroke-width:1.000000; stroke-opacity:1;  stroke-linecap:round; stroke-linejoin:round;"
       id="g96">
      <circle
         cx="25196000.000000"
         cy="10210000.000000"
         r="400000.000000"
         id="circle94" />
    </g>
    <g
       style="fill:#ECECEC; fill-opacity:1.0;  stroke:#ECECEC; stroke-width:21200.000000; stroke-opacity:1;  stroke-linecap:round; stroke-linejoin:round;"
       id="g98" />
    <g
       style="fill:#ECECEC; fill-opacity:1.0;  stroke:#ECECEC; stroke-width:1.000000; stroke-opacity:1;  stroke-linecap:round; stroke-linejoin:round;"
       id="g102">
      <circle
         cx="20370000.000000"
         cy="14528000.000000"
         r="400000.000000"
         id="circle100" />
    </g>
    <g
       style="fill:#ECECEC; fill-opacity:1.0;  stroke:#ECECEC; stroke-width:21200.000000; stroke-opacity:1;  stroke-linecap:round; stroke-linejoin:round;"
       id="g104" />
    <g
       style="fill:#ECECEC; fill-opacity:1.0;  stroke:#ECECEC; stroke-width:1.000000; stroke-opacity:1;  stroke-linecap:round; stroke-linejoin:round;"
       id="g108">
      <circle
         cx="39166000.000000"
         cy="19354000.000000"
         r="400000.000000"
         id="circle106" />
    </g>
    <g
       style="fill:#ECECEC; fill-opacity:1.0;  stroke:#ECECEC; stroke-width:21200.000000; stroke-opacity:1;  stroke-linecap:round; stroke-linejoin:round;"
       id="g110" />
    <g
       style="fill:#ECECEC; fill-opacity:1.0;  stroke:#ECECEC; stroke-width:1.000000; stroke-opacity:1;  stroke-linecap:round; stroke-linejoin:round;"
       id="g114">
      <circle
         cx="18592000.000000"
         cy="12750000.000000"
         r="400000.000000"
         id="circle112" />
    </g>
    <g
       style="fill:#ECECEC; fill-opacity:1.0;  stroke:#ECECEC; stroke-width:21200.000000; stroke-opacity:1;  stroke-linecap:round; stroke-linejoin:round;"
       id="g116" />
    <g
       style="fill:#ECECEC; fill-opacity:1.0;  stroke:#ECECEC; stroke-width:1.000000; stroke-opacity:1;  stroke-linecap:round; stroke-linejoin:round;"
       id="g120">
      <circle
         cx="40182000.000000"
         cy="19354000.000000"
         r="400000.000000"
         id="circle118" />
    </g>
    <g
       style="fill:#ECECEC; fill-opacity:1.0;  stroke:#ECECEC; stroke-width:21200.000000; stroke-opacity:1;  stroke-linecap:round; stroke-linejoin:round;"
       id="g122" />
    <g
       style="fill:#ECECEC; fill-opacity:1.0;  stroke:#ECECEC; stroke-width:1.000000; stroke-opacity:1;  stroke-linecap:round; stroke-linejoin:round;"
       id="g126">
      <circle
         cx="26212000.000000"
         cy="18338000.000000"
         r="400000.000000"
         id="circle124" />
    </g>
    <g
       style="fill:#ECECEC; fill-opacity:1.0;  stroke:#ECECEC; stroke-width:21200.000000; stroke-opacity:1;  stroke-linecap:round; stroke-linejoin:round;"
       id="g128" />
    <g
       style="fill:#ECECEC; fill-opacity:1.0;  stroke:#ECECEC; stroke-width:1.000000; stroke-opacity:1;  stroke-linecap:round; stroke-linejoin:round;"
       id="g132">
      <circle
         cx="18592000.000000"
         cy="11734000.000000"
         r="400000.000000"
         id="circle130" />
    </g>
    <g
       style="fill:#ECECEC; fill-opacity:1.0;  stroke:#ECECEC; stroke-width:21200.000000; stroke-opacity:1;  stroke-linecap:round; stroke-linejoin:round;"
       id="g134" />
    <g
       style="fill:#ECECEC; fill-opacity:1.0;  stroke:#ECECEC; stroke-width:1.000000; stroke-opacity:1;  stroke-linecap:round; stroke-linejoin:round;"
       id="g138">
      <circle
         cx="41706000.000000"
         cy="19354000.000000"
         r="400000.000000"
         id="circle136" />
    </g>
    <g
       style="fill:#ECECEC; fill-opacity:1.0;  stroke:#ECECEC; stroke-width:21200.000000; stroke-opacity:1;  stroke-linecap:round; stroke-linejoin:round;"
       id="g140" />
    <g
       style="fill:#ECECEC; fill-opacity:1.0;  stroke:#ECECEC; stroke-width:1.000000; stroke-opacity:1;  stroke-linecap:round; stroke-linejoin:round;"
       id="g144">
      <circle
         cx="25196000.000000"
         cy="18338000.000000"
         r="400000.000000"
         id="circle142" />
    </g>
    <g
       style="fill:#ECECEC; fill-opacity:1.0;  stroke:#ECECEC; stroke-width:21200.000000; stroke-opacity:1;  stroke-linecap:round; stroke-linejoin:round;"
       id="g146" />
    <g
       style="fill:#ECECEC; fill-opacity:1.0;  stroke:#ECECEC; stroke-width:1.000000; stroke-opacity:1;  stroke-linecap:round; stroke-linejoin:round;"
       id="g150">
      <circle
         cx="42722000.000000"
         cy="19354000.000000"
         r="400000.000000"
         id="circle148" />
    </g>
    <g
       style="fill:#ECECEC; fill-opacity:1.0;  stroke:#ECECEC; stroke-width:21200.000000; stroke-opacity:1;  stroke-linecap:round; stroke-linejoin:round;"
       id="g152" />
    <g
       style="fill:#ECECEC; fill-opacity:1.0;  stroke:#ECECEC; stroke-width:1.000000; stroke-opacity:1;  stroke-linecap:round; stroke-linejoin:round;"
       id="g156">
      <circle
         cx="27228000.000000"
         cy="18338000.000000"
         r="400000.000000"
         id="circle154" />
    </g>
    <g
       style="fill:#ECECEC; fill-opacity:1.0;  stroke:#ECECEC; stroke-width:21200.000000; stroke-opacity:1;  stroke-linecap:round; stroke-linejoin:round;"
       id="g158" />
    <g
       style="fill:#ECECEC; fill-opacity:1.0;  stroke:#ECECEC; stroke-width:1.000000; stroke-opacity:1;  stroke-linecap:round; stroke-linejoin:round;"
       id="g162">
      <circle
         cx="17576000.000000"
         cy="11734000.000000"
         r="400000.000000"
         id="circle160" />
    </g>
    <g
       style="fill:#ECECEC; fill-opacity:1.0;  stroke:#ECECEC; stroke-width:21200.000000; stroke-opacity:1;  stroke-linecap:round; stroke-linejoin:round;"
       id="g164" />
    <g
       style="fill:#ECECEC; fill-opacity:1.0;  stroke:#ECECEC; stroke-width:1.000000; stroke-opacity:1;  stroke-linecap:round; stroke-linejoin:round;"
       id="g168">
      <circle
         cx="48818000.000000"
         cy="39928000.000000"
         r="400000.000000"
         id="circle166" />
    </g>
    <g
       style="fill:#ECECEC; fill-opacity:1.0;  stroke:#ECECEC; stroke-width:21200.000000; stroke-opacity:1;  stroke-linecap:round; stroke-linejoin:round;"
       id="g170" />
    <g
       style="fill:#ECECEC; fill-opacity:1.0;  stroke:#ECECEC; stroke-width:1.000000; stroke-opacity:1;  stroke-linecap:round; stroke-linejoin:round;"
       id="g174">
      <circle
         cx="35610000.000000"
         cy="41706000.000000"
         r="400000.000000"
         id="circle172" />
    </g>
    <g
       style="fill:#ECECEC; fill-opacity:1.0;  stroke:#ECECEC; stroke-width:21200.000000; stroke-opacity:1;  stroke-linecap:round; stroke-linejoin:round;"
       id="g176" />
    <g
       style="fill:#ECECEC; fill-opacity:1.0;  stroke:#ECECEC; stroke-width:1.000000; stroke-opacity:1;  stroke-linecap:round; stroke-linejoin:round;"
       id="g180">
      <circle
         cx="31050000.000000"
         cy="41694000.000000"
         r="400000.000000"
         id="circle178" />
    </g>
    <g
       style="fill:#ECECEC; fill-opacity:1.0;  stroke:#ECECEC; stroke-width:21200.000000; stroke-opacity:1;  stroke-linecap:round; stroke-linejoin:round;"
       id="g182" />
    <g
       style="fill:#ECECEC; fill-opacity:1.0;  stroke:#ECECEC; stroke-width:1.000000; stroke-opacity:1;  stroke-linecap:round; stroke-linejoin:round;"
       id="g186">
      <circle
         cx="18592000.000000"
         cy="39928000.000000"
         r="400000.000000"
         id="circle184" />
    </g>
    <g
       style="fill:#ECECEC; fill-opacity:1.0;  stroke:#ECECEC; stroke-width:21200.000000; stroke-opacity:1;  stroke-linecap:round; stroke-linejoin:round;"
       id="g188" />
    <g
       style="fill:#ECECEC; fill-opacity:1.0;  stroke:#ECECEC; stroke-width:1.000000; stroke-opacity:1;  stroke-linecap:round; stroke-linejoin:round;"
       id="g192">
      <circle
         cx="46024000.000000"
         cy="29768000.000000"
         r="400000.000000"
         id="circle190" />
    </g>
    <g
       style="fill:#ECECEC; fill-opacity:1.0;  stroke:#ECECEC; stroke-width:21200.000000; stroke-opacity:1;  stroke-linecap:round; stroke-linejoin:round;"
       id="g194" />
    <g
       id="g196" />
    <g
       style="fill:#4D7FC4; fill-opacity:1.0;  stroke:#4D7FC4; stroke-width:21200.000000; stroke-opacity:1;  stroke-linecap:round; stroke-linejoin:round;"
       id="g198" />
    <g
       style="fill:#4D7FC4; fill-opacity:1.0;  stroke:#4D7FC4; stroke-width:600000.000000; stroke-opacity:1;  stroke-linecap:round; stroke-linejoin:round;"
       id="g200" />
    <g
       style="fill:#4D7FC4; fill-opacity:0.0;  stroke:#4D7FC4; stroke-width:600000.000000; stroke-opacity:1;  stroke-linecap:round; stroke-linejoin:round;"
       id="g226">
      <path
         d="M24688000 11226000 L25196000 10718000 "
         id="path202" />
      <path
         d="M20370000 18338000 L20370000 19608000 "
         id="path204" />
      <path
         d="M25196000 10718000 L25196000 10210000 "
         id="path206" />
      <path
         d="M22656000 12242000 L20370000 14528000 "
         id="path208" />
      <path
         d="M23672000 11226000 L24688000 11226000 "
         id="path210" />
      <path
         d="M22656000 12242000 L23672000 11226000 "
         id="path212" />
      <path
         d="M20370000 14528000 L20370000 18338000 "
         id="path214" />
      <path
         d="M20370000 21132000 L20370000 22656000 "
         id="path216" />
      <path
         d="M20370000 19608000 L19608000 20370000 "
         id="path218" />
      <path
         d="M19608000 20370000 L20370000 21132000 "
         id="path220" />
      <path
         d="M19608000 20370000 L18846000 20370000 "
         id="path222" />
      <path
         d="M37642000 12242000 L22656000 12242000 "
         id="path224" />
    </g>
    <g
       style="fill:#4D7FC4; fill-opacity:0.0;  stroke:#4D7FC4; stroke-width:250000.000000; stroke-opacity:1;  stroke-linecap:round; stroke-linejoin:round;"
       id="g254">
      <path
         d="M58050000 40050000 L48940000 40050000 "
         id="path228" />
      <path
         d="M48940000 40050000 L48818000 39928000 "
         id="path230" />
      <path
         d="M42550000 49916000 L36626000 43992000 "
         id="path232" />
      <path
         d="M42550000 50050000 L42550000 49916000 "
         id="path234" />
      <path
         d="M41550000 48050000 L41550000 47646000 "
         id="path236" />
      <path
         d="M41550000 48050000 L40176000 48050000 "
         id="path238" />
      <path
         d="M41550000 47646000 L35610000 41706000 "
         id="path240" />
      <path
         d="M24550000 50050000 L24550000 49972000 "
         id="path242" />
      <path
         d="M25550000 47194000 L31050000 41694000 "
         id="path244" />
      <path
         d="M24550000 49972000 L30530000 43992000 "
         id="path246" />
      <path
         d="M25550000 48050000 L25550000 47194000 "
         id="path248" />
      <path
         d="M9072000 40050000 L18470000 40050000 "
         id="path250" />
      <path
         d="M18470000 40050000 L18592000 39928000 "
         id="path252" />
    </g>
    <g
       id="g256" />
    <g
       style="fill:#4D7FC4; fill-opacity:1.0;  stroke:#4D7FC4; stroke-width:1.000000; stroke-opacity:1;  stroke-linecap:round; stroke-linejoin:round;"
       id="g270">
      <g
         id="g268">
        <path
           style="fill:#4D7FC4; fill-opacity:1.0;  stroke:#4D7FC4; stroke-width:1.000000; stroke-opacity:1;  stroke-linecap:round; stroke-linejoin:round;fill-rule:evenodd;"
           d="M 64991621.000000,28772002.000000 65038114.000000,28825658.000000 65049500.000000,28878000.000000 65049500.000000,56923500.000000 65029498.000000,56991621.000000 64975842.000000,57038114.000000 64923500.000000,57049500.000000 2176500.000000,57049500.000000 2108379.000000,57029498.000000 2061886.000000,56975842.000000 2050500.000000,56923500.000000 2050500.000000,29132000.000000 2070502.000000,29063879.000000 2124158.000000,29017386.000000 2176500.000000,29006000.000000 18873499.000000,29006000.000000 18882487.000000,29006321.000000 18931871.000000,29009853.000000 19153650.000000,29025715.000000 19171433.000000,29028272.000000 19432658.000000,29085098.000000 19449900.000000,29090160.000000 19700393.000000,29183589.000000 19716740.000000,29191055.000000 19951375.000000,29319176.000000 19966498.000000,29328895.000000 20180510.000000,29489103.000000 20194096.000000,29500876.000000 20383124.000000,29689904.000000 20394897.000000,29703490.000000 20555105.000000,29917502.000000 20564824.000000,29932625.000000 20692945.000000,30167260.000000 20700411.000000,30183607.000000 20793839.000000,30434097.000000 20798902.000000,30451342.000000 20855728.000000,30712567.000000 20858286.000000,30730355.000000 20877679.000000,31001513.000000 20878000.000000,31010501.000000 20878000.000000,38616474.000000 20857998.000000,38684595.000000 20804342.000000,38731088.000000 20734068.000000,38741192.000000 20669488.000000,38711698.000000 20645615.000000,38683988.000000 20602770.000000,38616474.000000 20537885.000000,38514232.000000 20345349.000000,38281496.000000 20125162.000000,38074726.000000 19880795.000000,37897184.000000 19616104.000000,37751668.000000 19612435.000000,37750215.000000 19612430.000000,37750213.000000 19380116.000000,37658234.000000 19324143.000000,37614560.000000 19300500.000000,37541082.000000 19300500.000000,36809976.000000 19285999.000000,36477846.000000 19227578.000000,36034094.000000 19130704.000000,35597123.000000 18996114.000000,35170258.000000 18824832.000000,34756748.000000 18618162.000000,34359739.000000 18377678.000000,33982253.000000 18376014.000000,33980085.000000 18376006.000000,33980073.000000 18106890.000000,33629356.000000 18105208.000000,33627164.000000 18103350.000000,33625136.000000 18103343.000000,33625128.000000 17804678.000000,33299193.000000 17802827.000000,33297173.000000 17800807.000000,33295322.000000 17474872.000000,32996657.000000 17474864.000000,32996650.000000 17472836.000000,32994792.000000 17470644.000000,32993110.000000 17119927.000000,32723994.000000 17119915.000000,32723986.000000 17117747.000000,32722322.000000 16740261.000000,32481838.000000 16343252.000000,32275168.000000 15929742.000000,32103886.000000 15927122.000000,32103060.000000 15927114.000000,32103057.000000 15505507.000000,31970125.000000 15505502.000000,31970124.000000 15502877.000000,31969296.000000 15065906.000000,31872422.000000 15063187.000000,31872064.000000 15063181.000000,31872063.000000 14896804.000000,31850159.000000 14622154.000000,31814001.000000 14619405.000000,31813881.000000 14619394.000000,31813880.000000 14291400.000000,31799560.000000 14291396.000000,31799560.000000 14290024.000000,31799500.000000 7809976.000000,31799500.000000 7808604.000000,31799560.000000 7808600.000000,31799560.000000 7480606.000000,31813880.000000 7480595.000000,31813881.000000 7477846.000000,31814001.000000 7203196.000000,31850159.000000 7036819.000000,31872063.000000 7036813.000000,31872064.000000 7034094.000000,31872422.000000 6597123.000000,31969296.000000 6594498.000000,31970124.000000 6594493.000000,31970125.000000 6172886.000000,32103057.000000 6172878.000000,32103060.000000 6170258.000000,32103886.000000 5756748.000000,32275168.000000 5359739.000000,32481838.000000 4982253.000000,32722322.000000 4980085.000000,32723986.000000 4980073.000000,32723994.000000 4629356.000000,32993110.000000 4627164.000000,32994792.000000 4625136.000000,32996650.000000 4625128.000000,32996657.000000 4299193.000000,33295322.000000 4297173.000000,33297173.000000 4295322.000000,33299193.000000 3996657.000000,33625128.000000 3996650.000000,33625136.000000 3994792.000000,33627164.000000 3993110.000000,33629356.000000 3723994.000000,33980073.000000 3723986.000000,33980085.000000 3722322.000000,33982253.000000 3481838.000000,34359739.000000 3275168.000000,34756748.000000 3103886.000000,35170258.000000 2969296.000000,35597123.000000 2872422.000000,36034094.000000 2814001.000000,36477846.000000 2799500.000000,36809976.000000 2799500.000000,43290024.000000 2814001.000000,43622154.000000 2872422.000000,44065906.000000 2969296.000000,44502877.000000 3103886.000000,44929742.000000 3275168.000000,45343252.000000 3481838.000000,45740261.000000 3722322.000000,46117747.000000 3723986.000000,46119915.000000 3723994.000000,46119927.000000 3993110.000000,46470644.000000 3994792.000000,46472836.000000 3996650.000000,46474864.000000 3996657.000000,46474872.000000 4295322.000000,46800807.000000 4297173.000000,46802827.000000 4299193.000000,46804678.000000 4625128.000000,47103343.000000 4625136.000000,47103350.000000 4627164.000000,47105208.000000 4629356.000000,47106890.000000 4980073.000000,47376006.000000 4980085.000000,47376014.000000 4982253.000000,47377678.000000 5359739.000000,47618162.000000 5756748.000000,47824832.000000 6170258.000000,47996114.000000 6172878.000000,47996940.000000 6172886.000000,47996943.000000 6594493.000000,48129875.000000 6594498.000000,48129876.000000 6597123.000000,48130704.000000 7034094.000000,48227578.000000 7036813.000000,48227936.000000 7036819.000000,48227937.000000 7203196.000000,48249841.000000 7477846.000000,48285999.000000 7480595.000000,48286119.000000 7480606.000000,48286120.000000 7808600.000000,48300440.000000 7808604.000000,48300440.000000 7809976.000000,48300500.000000 14290024.000000,48300500.000000 14291396.000000,48300440.000000 14291400.000000,48300440.000000 14619394.000000,48286120.000000 14619405.000000,48286119.000000 14622154.000000,48285999.000000 14896804.000000,48249841.000000 15063181.000000,48227937.000000 15063187.000000,48227936.000000 15065906.000000,48227578.000000 15502877.000000,48130704.000000 15505502.000000,48129876.000000 15505507.000000,48129875.000000 15927114.000000,47996943.000000 15927122.000000,47996940.000000 15929742.000000,47996114.000000 16343252.000000,47824832.000000 16740261.000000,47618162.000000 17105800.000000,47385289.000000 17174000.000000,47365557.000000 17242041.000000,47385829.000000 17288320.000000,47439669.000000 17299500.000000,47491556.000000 17299500.000000,51290024.000000 17314001.000000,51622154.000000 17372422.000000,52065906.000000 17469296.000000,52502877.000000 17603886.000000,52929742.000000 17775168.000000,53343252.000000 17981838.000000,53740261.000000 18222322.000000,54117747.000000 18223986.000000,54119915.000000 18223994.000000,54119927.000000 18493110.000000,54470644.000000 18494792.000000,54472836.000000 18496650.000000,54474864.000000 18496657.000000,54474872.000000 18795322.000000,54800807.000000 18797173.000000,54802827.000000 18799193.000000,54804678.000000 19125128.000000,55103343.000000 19125136.000000,55103350.000000 19127164.000000,55105208.000000 19129356.000000,55106890.000000 19480073.000000,55376006.000000 19480085.000000,55376014.000000 19482253.000000,55377678.000000 19859739.000000,55618162.000000 20256748.000000,55824832.000000 20670258.000000,55996114.000000 20672878.000000,55996940.000000 20672886.000000,55996943.000000 21094493.000000,56129875.000000 21094498.000000,56129876.000000 21097123.000000,56130704.000000 21534094.000000,56227578.000000 21536813.000000,56227936.000000 21536819.000000,56227937.000000 21703196.000000,56249841.000000 21977846.000000,56285999.000000 21980595.000000,56286119.000000 21980606.000000,56286120.000000 22308600.000000,56300440.000000 22308604.000000,56300440.000000 22309976.000000,56300500.000000 28790024.000000,56300500.000000 28791396.000000,56300440.000000 28791400.000000,56300440.000000 29119394.000000,56286120.000000 29119405.000000,56286119.000000 29122154.000000,56285999.000000 29396804.000000,56249841.000000 29563181.000000,56227937.000000 29563187.000000,56227936.000000 29565906.000000,56227578.000000 30002877.000000,56130704.000000 30005502.000000,56129876.000000 30005507.000000,56129875.000000 30427114.000000,55996943.000000 30427122.000000,55996940.000000 30429742.000000,55996114.000000 30843252.000000,55824832.000000 31240261.000000,55618162.000000 31617747.000000,55377678.000000 31619915.000000,55376014.000000 31619927.000000,55376006.000000 31970644.000000,55106890.000000 31972836.000000,55105208.000000 31974864.000000,55103350.000000 31974872.000000,55103343.000000 32300807.000000,54804678.000000 32302827.000000,54802827.000000 32304678.000000,54800807.000000 32603343.000000,54474872.000000 32603350.000000,54474864.000000 32605208.000000,54472836.000000 32606890.000000,54470644.000000 32876006.000000,54119927.000000 32876014.000000,54119915.000000 32877678.000000,54117747.000000 33118162.000000,53740261.000000 33324832.000000,53343252.000000 33433591.000000,53080685.000000 33478139.000000,53025404.000000 33545503.000000,53002983.000000 33614294.000000,53020541.000000 33662672.000000,53072503.000000 33666407.000000,53080681.000000 33775168.000000,53343252.000000 33981838.000000,53740261.000000 34222322.000000,54117747.000000 34223986.000000,54119915.000000 34223994.000000,54119927.000000 34493110.000000,54470644.000000 34494792.000000,54472836.000000 34496650.000000,54474864.000000 34496657.000000,54474872.000000 34795322.000000,54800807.000000 34797173.000000,54802827.000000 34799193.000000,54804678.000000 35125128.000000,55103343.000000 35125136.000000,55103350.000000 35127164.000000,55105208.000000 35129356.000000,55106890.000000 35480073.000000,55376006.000000 35480085.000000,55376014.000000 35482253.000000,55377678.000000 35859739.000000,55618162.000000 36256748.000000,55824832.000000 36670258.000000,55996114.000000 36672878.000000,55996940.000000 36672886.000000,55996943.000000 37094493.000000,56129875.000000 37094498.000000,56129876.000000 37097123.000000,56130704.000000 37534094.000000,56227578.000000 37536813.000000,56227936.000000 37536819.000000,56227937.000000 37703196.000000,56249841.000000 37977846.000000,56285999.000000 37980595.000000,56286119.000000 37980606.000000,56286120.000000 38308600.000000,56300440.000000 38308604.000000,56300440.000000 38309976.000000,56300500.000000 44790024.000000,56300500.000000 44791396.000000,56300440.000000 44791400.000000,56300440.000000 45119394.000000,56286120.000000 45119405.000000,56286119.000000 45122154.000000,56285999.000000 45396804.000000,56249841.000000 45563181.000000,56227937.000000 45563187.000000,56227936.000000 45565906.000000,56227578.000000 46002877.000000,56130704.000000 46005502.000000,56129876.000000 46005507.000000,56129875.000000 46427114.000000,55996943.000000 46427122.000000,55996940.000000 46429742.000000,55996114.000000 46843252.000000,55824832.000000 47240261.000000,55618162.000000 47617747.000000,55377678.000000 47619915.000000,55376014.000000 47619927.000000,55376006.000000 47970644.000000,55106890.000000 47972836.000000,55105208.000000 47974864.000000,55103350.000000 47974872.000000,55103343.000000 48300807.000000,54804678.000000 48302827.000000,54802827.000000 48304678.000000,54800807.000000 48603343.000000,54474872.000000 48603350.000000,54474864.000000 48605208.000000,54472836.000000 48606890.000000,54470644.000000 48876006.000000,54119927.000000 48876014.000000,54119915.000000 48877678.000000,54117747.000000 49118162.000000,53740261.000000 49324832.000000,53343252.000000 49496114.000000,52929742.000000 49630704.000000,52502877.000000 49727578.000000,52065906.000000 49785999.000000,51622154.000000 49800500.000000,51290024.000000 49800500.000000,47491556.000000 49820502.000000,47423435.000000 49874158.000000,47376942.000000 49944432.000000,47366838.000000 49994200.000000,47385289.000000 50359739.000000,47618162.000000 50756748.000000,47824832.000000 51170258.000000,47996114.000000 51172878.000000,47996940.000000 51172886.000000,47996943.000000 51594493.000000,48129875.000000 51594498.000000,48129876.000000 51597123.000000,48130704.000000 52034094.000000,48227578.000000 52036813.000000,48227936.000000 52036819.000000,48227937.000000 52203196.000000,48249841.000000 52477846.000000,48285999.000000 52480595.000000,48286119.000000 52480606.000000,48286120.000000 52808600.000000,48300440.000000 52808604.000000,48300440.000000 52809976.000000,48300500.000000 59290024.000000,48300500.000000 59291396.000000,48300440.000000 59291400.000000,48300440.000000 59619394.000000,48286120.000000 59619405.000000,48286119.000000 59622154.000000,48285999.000000 59896804.000000,48249841.000000 60063181.000000,48227937.000000 60063187.000000,48227936.000000 60065906.000000,48227578.000000 60502877.000000,48130704.000000 60505502.000000,48129876.000000 60505507.000000,48129875.000000 60927114.000000,47996943.000000 60927122.000000,47996940.000000 60929742.000000,47996114.000000 61343252.000000,47824832.000000 61740261.000000,47618162.000000 62117747.000000,47377678.000000 62119915.000000,47376014.000000 62119927.000000,47376006.000000 62470644.000000,47106890.000000 62472836.000000,47105208.000000 62474864.000000,47103350.000000 62474872.000000,47103343.000000 62800807.000000,46804678.000000 62802827.000000,46802827.000000 62804678.000000,46800807.000000 63103343.000000,46474872.000000 63103350.000000,46474864.000000 63105208.000000,46472836.000000 63106890.000000,46470644.000000 63376006.000000,46119927.000000 63376014.000000,46119915.000000 63377678.000000,46117747.000000 63618162.000000,45740261.000000 63824832.000000,45343252.000000 63996114.000000,44929742.000000 64130704.000000,44502877.000000 64227578.000000,44065906.000000 64285999.000000,43622154.000000 64300500.000000,43290024.000000 64300500.000000,36809976.000000 64285999.000000,36477846.000000 64227578.000000,36034094.000000 64130704.000000,35597123.000000 63996114.000000,35170258.000000 63824832.000000,34756748.000000 63618162.000000,34359739.000000 63377678.000000,33982253.000000 63376014.000000,33980085.000000 63376006.000000,33980073.000000 63106890.000000,33629356.000000 63105208.000000,33627164.000000 63103350.000000,33625136.000000 63103343.000000,33625128.000000 62804678.000000,33299193.000000 62802827.000000,33297173.000000 62800807.000000,33295322.000000 62474872.000000,32996657.000000 62474864.000000,32996650.000000 62472836.000000,32994792.000000 62470644.000000,32993110.000000 62119927.000000,32723994.000000 62119915.000000,32723986.000000 62117747.000000,32722322.000000 61740261.000000,32481838.000000 61343252.000000,32275168.000000 60929742.000000,32103886.000000 60927122.000000,32103060.000000 60927114.000000,32103057.000000 60505507.000000,31970125.000000 60505502.000000,31970124.000000 60502877.000000,31969296.000000 60065906.000000,31872422.000000 60063187.000000,31872064.000000 60063181.000000,31872063.000000 59896804.000000,31850159.000000 59622154.000000,31814001.000000 59619405.000000,31813881.000000 59619394.000000,31813880.000000 59291400.000000,31799560.000000 59291396.000000,31799560.000000 59290024.000000,31799500.000000 52809976.000000,31799500.000000 52808604.000000,31799560.000000 52808600.000000,31799560.000000 52480606.000000,31813880.000000 52480595.000000,31813881.000000 52477846.000000,31814001.000000 52203196.000000,31850159.000000 52036819.000000,31872063.000000 52036813.000000,31872064.000000 52034094.000000,31872422.000000 51597123.000000,31969296.000000 51594498.000000,31970124.000000 51594493.000000,31970125.000000 51172886.000000,32103057.000000 51172878.000000,32103060.000000 51170258.000000,32103886.000000 50756748.000000,32275168.000000 50359739.000000,32481838.000000 49982253.000000,32722322.000000 49980085.000000,32723986.000000 49980073.000000,32723994.000000 49629356.000000,32993110.000000 49627164.000000,32994792.000000 49625136.000000,32996650.000000 49625128.000000,32996657.000000 49299193.000000,33295322.000000 49297173.000000,33297173.000000 49295322.000000,33299193.000000 48996657.000000,33625128.000000 48996650.000000,33625136.000000 48994792.000000,33627164.000000 48993110.000000,33629356.000000 48723994.000000,33980073.000000 48723986.000000,33980085.000000 48722322.000000,33982253.000000 48481838.000000,34359739.000000 48275168.000000,34756748.000000 48103886.000000,35170258.000000 47969296.000000,35597123.000000 47872422.000000,36034094.000000 47814001.000000,36477846.000000 47799500.000000,36809976.000000 47799500.000000,37674072.000000 47779498.000000,37742193.000000 47734204.000000,37784484.000000 47529205.000000,37897184.000000 47284838.000000,38074726.000000 47064651.000000,38281496.000000 46872115.000000,38514232.000000 46710267.000000,38769264.000000 46708583.000000,38772843.000000 46708579.000000,38772850.000000 46583348.000000,39038980.000000 46581659.000000,39042570.000000 46488319.000000,39329840.000000 46431720.000000,39626543.000000 46412754.000000,39928000.000000 46412643.000000,39927993.000000 46393001.000000,39994887.000000 46339345.000000,40041380.000000 46269071.000000,40051484.000000 46249114.000000,40046934.000000 46005507.000000,39970125.000000 46005502.000000,39970124.000000 46002877.000000,39969296.000000 45565906.000000,39872422.000000 45563187.000000,39872064.000000 45563181.000000,39872063.000000 45396804.000000,39850159.000000 45122154.000000,39814001.000000 45119405.000000,39813881.000000 45119394.000000,39813880.000000 44791400.000000,39799560.000000 44791396.000000,39799560.000000 44790024.000000,39799500.000000 44754000.000000,39799500.000000 44754000.000000,30756501.000000 44754321.000000,30747513.000000 44773714.000000,30476355.000000 44776272.000000,30458567.000000 44833098.000000,30197342.000000 44838161.000000,30180097.000000 44842949.000000,30167260.000000 44931589.000000,29929607.000000 44939055.000000,29913260.000000 45067176.000000,29678625.000000 45076895.000000,29663502.000000 45237103.000000,29449490.000000 45248876.000000,29435904.000000 45437904.000000,29246876.000000 45451490.000000,29235103.000000 45665502.000000,29074895.000000 45680625.000000,29065176.000000 45915260.000000,28937055.000000 45931607.000000,28929589.000000 46182100.000000,28836160.000000 46199342.000000,28831098.000000 46460567.000000,28774272.000000 46478350.000000,28771715.000000 46700129.000000,28755853.000000 46749513.000000,28752321.000000 46758501.000000,28752000.000000 64923500.000000,28752000.000000 Z"
           id="path266" />
      </g>
    </g>
    <g
       style="fill:#e6e6e6;fill-opacity:0;stroke:#e8b2a7;stroke-width:150000;stroke-linecap:round;stroke-linejoin:round;stroke-opacity:1"
       id="g1008"
       transform="translate(-115771530,-75427508)">
      <text
         x="171824000"
         y="115938000"
         transform="matrix(-1,0,0,1,343648000,0)"
         textLength="2897619"
         font-size="1.33333e+06px"
         lengthAdjust="spacingAndGlyphs"
         text-anchor="middle"
         opacity="0"
         id="text890"
         style="fill:#e6e6e6">SW1</text>
      <g
         class="stroked-text"
         id="g902"
         style="fill:#e6e6e6">
        <desc
           id="desc892">SW1</desc>
        <path
           d="m 173157330,115842760 -142850,47620 h -238100 l -95240,-47620 -47620,-47620 -47620,-95240 v -95230 l 47620,-95240 47620,-47620 95240,-47620 190480,-47620 95240,-47620 47610,-47620 47620,-95230 v -95240 l -47620,-95240 -47610,-47620 -95240,-47620 h -238100 l -142860,47620"
           id="path894"
           style="fill:#e6e6e6" />
        <path
           d="m 172252570,114890380 -238090,1000000 -190480,-714280 -190480,714280 -238090,-1000000"
           id="path896"
           style="fill:#e6e6e6" />
        <path
           d="m 170490670,115890380 h 571430"
           id="path898"
           style="fill:#e6e6e6" />
        <path
           d="m 170776380,115890380 v -1000000 l 95240,142860 95240,95240 95240,47620"
           id="path900"
           style="fill:#e6e6e6" />
      </g>
      <text
         x="157324000"
         y="123938000"
         transform="matrix(-1,0,0,1,314648000,0)"
         textLength="2852619"
         font-size="1.33333e+06px"
         lengthAdjust="spacingAndGlyphs"
         text-anchor="middle"
         opacity="0"
         id="text904"
         style="fill:#e6e6e6">SW2</text>
      <g
         class="stroked-text"
         id="g914"
         style="fill:#e6e6e6">
        <desc
           id="desc906">SW2</desc>
        <path
           d="m 158657330,123842760 -142850,47620 h -238100 l -95240,-47620 -47620,-47620 -47620,-95240 v -95230 l 47620,-95240 47620,-47620 95240,-47620 190480,-47620 95240,-47620 47610,-47620 47620,-95230 v -95240 l -47620,-95240 -47610,-47620 -95240,-47620 h -238100 l -142860,47620"
           id="path908"
           style="fill:#e6e6e6" />
        <path
           d="m 157752570,122890380 -238090,1000000 -190480,-714280 -190480,714280 -238090,-1000000"
           id="path910"
           style="fill:#e6e6e6" />
        <path
           d="m 156562100,122985620 -47620,-47620 -95240,-47620 h -238100 l -95240,47620 -47610,47620 -47620,95240 v 95240 l 47620,142850 571420,571430 h -619040"
           id="path912"
           style="fill:#e6e6e6" />
      </g>
      <text
         x="141324000"
         y="123938000"
         transform="matrix(-1,0,0,1,282648000,0)"
         textLength="2852619"
         font-size="1.33333e+06px"
         lengthAdjust="spacingAndGlyphs"
         text-anchor="middle"
         opacity="0"
         id="text916"
         style="fill:#e6e6e6">SW3</text>
      <g
         class="stroked-text"
         id="g926"
         style="fill:#e6e6e6">
        <desc
           id="desc918">SW3</desc>
        <path
           d="m 142657330,123842760 -142850,47620 h -238100 l -95240,-47620 -47620,-47620 -47620,-95240 v -95230 l 47620,-95240 47620,-47620 95240,-47620 190480,-47620 95240,-47620 47610,-47620 47620,-95230 v -95240 l -47620,-95240 -47610,-47620 -95240,-47620 h -238100 l -142860,47620"
           id="path920"
           style="fill:#e6e6e6" />
        <path
           d="m 141752570,122890380 -238090,1000000 -190480,-714280 -190480,714280 -238090,-1000000"
           id="path922"
           style="fill:#e6e6e6" />
        <path
           d="m 140609710,122890380 h -619040 l 333330,380950 h -142860 l -95240,47620 -47610,47620 -47620,95240 v 238090 l 47620,95240 47610,47620 95240,47620 h 285720 l 95240,-47620 47610,-47620"
           id="path924"
           style="fill:#e6e6e6" />
      </g>
      <text
         x="126824000"
         y="115938000"
         transform="matrix(-1,0,0,1,253648000,0)"
         textLength="2852619"
         font-size="1.33333e+06px"
         lengthAdjust="spacingAndGlyphs"
         text-anchor="middle"
         opacity="0"
         id="text928"
         style="fill:#e6e6e6">SW4</text>
      <g
         class="stroked-text"
         id="g940"
         style="fill:#e6e6e6">
        <desc
           id="desc930">SW4</desc>
        <path
           d="m 128157330,115842760 -142850,47620 h -238100 l -95240,-47620 -47620,-47620 -47620,-95240 v -95230 l 47620,-95240 47620,-47620 95240,-47620 190480,-47620 95240,-47620 47610,-47620 47620,-95230 v -95240 l -47620,-95240 -47610,-47620 -95240,-47620 h -238100 l -142860,47620"
           id="path932"
           style="fill:#e6e6e6" />
        <path
           d="m 127252570,114890380 -238090,1000000 -190480,-714280 -190480,714280 -238090,-1000000"
           id="path934"
           style="fill:#e6e6e6" />
        <path
           d="m 125585900,115223710 v 666670"
           id="path936"
           style="fill:#e6e6e6" />
        <path
           d="m 125824000,114842760 238100,714290 h -619050"
           id="path938"
           style="fill:#e6e6e6" />
      </g>
      <g
         id="g942"
         style="fill:#e6e6e6" />
      <g
         id="g944"
         style="fill:#e6e6e6" />
      <g
         id="g946"
         style="fill:#e6e6e6" />
      <g
         id="g948"
         style="fill:#e6e6e6" />
      <g
         id="g950"
         style="fill:#e6e6e6" />
      <g
         style="fill:#e6e6e6;fill-opacity:0;stroke:#000000;stroke-width:150000;stroke-linecap:round;stroke-linejoin:round;stroke-opacity:1"
         id="g952" />
      <g
         style="fill:#e6e6e6;fill-opacity:0;stroke:#000000;stroke-width:1;stroke-linecap:round;stroke-linejoin:round;stroke-opacity:1"
         id="g954" />
      <g
         style="fill:#e6e6e6;fill-opacity:1;stroke:#000000;stroke-width:1;stroke-linecap:round;stroke-linejoin:round;stroke-opacity:1"
         id="g958">
        <path
           style="fill:#e6e6e6;fill-opacity:1;fill-rule:evenodd;stroke:#000000;stroke-width:1;stroke-linecap:round;stroke-linejoin:round;stroke-opacity:1"
           d="m 165574000,112313000 17120,-326650 56960,-349720 96170,-341030 134170,-327950 170430,-310650 204500,-289360 235940,-264350 264350,-235940 289360,-204500 310650,-170430 327950,-134170 341030,-96170 349720,-56960 326650,-17120 h 6250000 l 326650,17120 349720,56960 341030,96170 327950,134170 310650,170430 289360,204500 264350,235940 235940,264350 204500,289360 170430,310650 134170,327950 96180,341030 56950,349720 17120,326650 v 6250000 l -17120,326650 -56950,349720 -96180,341030 -134170,327950 -170430,310650 -204500,289360 -235940,264350 -264350,235940 -289360,204500 -310650,170430 -327950,134170 -341030,96180 -349720,56950 -326650,17120 h -6250000 l -326650,-17120 -349720,-56950 -341030,-96180 -327950,-134170 -310650,-170430 -289360,-204500 -264350,-235940 -235940,-264350 -204500,-289360 -170430,-310650 -134170,-327950 -96170,-341030 -56960,-349720 -17120,-326650 z"
           id="path956" />
      </g>
      <g
         id="g960"
         style="fill:#e6e6e6" />
      <g
         style="fill:#e6e6e6;fill-opacity:1;stroke:#000000;stroke-width:1;stroke-linecap:round;stroke-linejoin:round;stroke-opacity:1"
         id="g964">
        <path
           style="fill:#e6e6e6;fill-opacity:1;fill-rule:evenodd;stroke:#000000;stroke-width:1;stroke-linecap:round;stroke-linejoin:round;stroke-opacity:1"
           d="m 151074000,120313000 17120,-326650 56960,-349720 96170,-341030 134170,-327950 170430,-310650 204500,-289360 235940,-264350 264350,-235940 289360,-204500 310650,-170430 327950,-134170 341030,-96170 349720,-56960 326650,-17120 h 6250000 l 326650,17120 349720,56960 341030,96170 327950,134170 310650,170430 289360,204500 264350,235940 235940,264350 204500,289360 170430,310650 134170,327950 96180,341030 56950,349720 17120,326650 v 6250000 l -17120,326650 -56950,349720 -96180,341030 -134170,327950 -170430,310650 -204500,289360 -235940,264350 -264350,235940 -289360,204500 -310650,170430 -327950,134170 -341030,96180 -349720,56950 -326650,17120 h -6250000 l -326650,-17120 -349720,-56950 -341030,-96180 -327950,-134170 -310650,-170430 -289360,-204500 -264350,-235940 -235940,-264350 -204500,-289360 -170430,-310650 -134170,-327950 -96170,-341030 -56960,-349720 -17120,-326650 z"
           id="path962" />
      </g>
      <g
         id="g966"
         style="fill:#e6e6e6" />
      <g
         style="fill:#e6e6e6;fill-opacity:1;stroke:#000000;stroke-width:1;stroke-linecap:round;stroke-linejoin:round;stroke-opacity:1"
         id="g970">
        <path
           style="fill:#e6e6e6;fill-opacity:1;fill-rule:evenodd;stroke:#000000;stroke-width:1;stroke-linecap:round;stroke-linejoin:round;stroke-opacity:1"
           d="m 135074000,120313000 17120,-326650 56960,-349720 96170,-341030 134170,-327950 170430,-310650 204500,-289360 235940,-264350 264350,-235940 289360,-204500 310650,-170430 327950,-134170 341030,-96170 349720,-56960 326650,-17120 h 6250000 l 326650,17120 349720,56960 341030,96170 327950,134170 310650,170430 289360,204500 264350,235940 235940,264350 204500,289360 170430,310650 134170,327950 96180,341030 56950,349720 17120,326650 v 6250000 l -17120,326650 -56950,349720 -96180,341030 -134170,327950 -170430,310650 -204500,289360 -235940,264350 -264350,235940 -289360,204500 -310650,170430 -327950,134170 -341030,96180 -349720,56950 -326650,17120 h -6250000 l -326650,-17120 -349720,-56950 -341030,-96180 -327950,-134170 -310650,-170430 -289360,-204500 -264350,-235940 -235940,-264350 -204500,-289360 -170430,-310650 -134170,-327950 -96170,-341030 -56960,-349720 -17120,-326650 z"
           id="path968" />
      </g>
      <g
         id="g972"
         style="fill:#e6e6e6" />
      <g
         style="fill:#e6e6e6;fill-opacity:1;stroke:#000000;stroke-width:1;stroke-linecap:round;stroke-linejoin:round;stroke-opacity:1"
         id="g976">
        <path
           style="fill:#e6e6e6;fill-opacity:1;fill-rule:evenodd;stroke:#000000;stroke-width:1;stroke-linecap:round;stroke-linejoin:round;stroke-opacity:1"
           d="m 120574000,112313000 17120,-326650 56960,-349720 96170,-341030 134170,-327950 170430,-310650 204500,-289360 235940,-264350 264350,-235940 289360,-204500 310650,-170430 327950,-134170 341030,-96170 349720,-56960 326650,-17120 h 6250000 l 326650,17120 349720,56960 341030,96170 327950,134170 310650,170430 289360,204500 264350,235940 235940,264350 204500,289360 170430,310650 134170,327950 96180,341030 56950,349720 17120,326650 v 6250000 l -17120,326650 -56950,349720 -96180,341030 -134170,327950 -170430,310650 -204500,289360 -235940,264350 -264350,235940 -289360,204500 -310650,170430 -327950,134170 -341030,96180 -349720,56950 -326650,17120 h -6250000 l -326650,-17120 -349720,-56950 -341030,-96180 -327950,-134170 -310650,-170430 -289360,-204500 -264350,-235940 -235940,-264350 -204500,-289360 -170430,-310650 -134170,-327950 -96170,-341030 -56960,-349720 -17120,-326650 z"
           id="path974" />
      </g>
      <g
         id="g978"
         style="fill:#e6e6e6" />
      <g
         id="g980"
         style="fill:#e6e6e6" />
      <g
         id="g982"
         style="fill:#e6e6e6" />
      <g
         id="g984"
         style="fill:#e6e6e6" />
      <g
         id="g986"
         style="fill:#e6e6e6" />
      <g
         id="g988"
         style="fill:#e6e6e6" />
      <g
         id="g990"
         style="fill:#e6e6e6" />
      <g
         id="g992"
         style="fill:#e6e6e6" />
      <g
         id="g994"
         style="fill:#e6e6e6" />
      <g
         id="g996"
         style="fill:#e6e6e6" />
      <g
         id="g998"
         style="fill:#e6e6e6" />
      <g
         id="g1000"
         style="fill:#e6e6e6" />
      <g
         id="g1002"
         style="fill:#e6e6e6" />
      <g
         id="g1004"
         style="fill:#e6e6e6" />
      <g
         id="g1006"
         style="fill:#e6e6e6" />
    </g>
  </g>
  <g
     style="fill:#FFFFFF; fill-opacity:1.0;  stroke:#FFFFFF; stroke-width:1.000000; stroke-opacity:1;  stroke-linecap:round; stroke-linejoin:round;"
     id="g276">
    <circle
       cx="20370000.000000"
       cy="18338000.000000"
       r="200000.000000"
       id="circle274" />
  </g>
  <g
     style="fill:#FFFFFF; fill-opacity:1.0;  stroke:#FFFFFF; stroke-width:21200.000000; stroke-opacity:1;  stroke-linecap:round; stroke-linejoin:round;"
     id="g278" />
  <g
     style="fill:#FFFFFF; fill-opacity:1.0;  stroke:#FFFFFF; stroke-width:1.000000; stroke-opacity:1;  stroke-linecap:round; stroke-linejoin:round;"
     id="g282">
    <circle
       cx="37642000.000000"
       cy="12242000.000000"
       r="200000.000000"
       id="circle280" />
  </g>
  <g
     style="fill:#FFFFFF; fill-opacity:1.0;  stroke:#FFFFFF; stroke-width:21200.000000; stroke-opacity:1;  stroke-linecap:round; stroke-linejoin:round;"
     id="g284" />
  <g
     style="fill:#FFFFFF; fill-opacity:1.0;  stroke:#FFFFFF; stroke-width:1.000000; stroke-opacity:1;  stroke-linecap:round; stroke-linejoin:round;"
     id="g288">
    <circle
       cx="18846000.000000"
       cy="20370000.000000"
       r="200000.000000"
       id="circle286" />
  </g>
  <g
     style="fill:#FFFFFF; fill-opacity:1.0;  stroke:#FFFFFF; stroke-width:21200.000000; stroke-opacity:1;  stroke-linecap:round; stroke-linejoin:round;"
     id="g290" />
  <g
     style="fill:#FFFFFF; fill-opacity:1.0;  stroke:#FFFFFF; stroke-width:1.000000; stroke-opacity:1;  stroke-linecap:round; stroke-linejoin:round;"
     id="g294">
    <circle
       cx="20370000.000000"
       cy="22656000.000000"
       r="200000.000000"
       id="circle292" />
  </g>
  <g
     style="fill:#FFFFFF; fill-opacity:1.0;  stroke:#FFFFFF; stroke-width:21200.000000; stroke-opacity:1;  stroke-linecap:round; stroke-linejoin:round;"
     id="g296" />
  <g
     style="fill:#FFFFFF; fill-opacity:1.0;  stroke:#FFFFFF; stroke-width:1.000000; stroke-opacity:1;  stroke-linecap:round; stroke-linejoin:round;"
     id="g300">
    <circle
       cx="25196000.000000"
       cy="10210000.000000"
       r="200000.000000"
       id="circle298" />
  </g>
  <g
     style="fill:#FFFFFF; fill-opacity:1.0;  stroke:#FFFFFF; stroke-width:21200.000000; stroke-opacity:1;  stroke-linecap:round; stroke-linejoin:round;"
     id="g302" />
  <g
     style="fill:#FFFFFF; fill-opacity:1.0;  stroke:#FFFFFF; stroke-width:1.000000; stroke-opacity:1;  stroke-linecap:round; stroke-linejoin:round;"
     id="g306">
    <circle
       cx="20370000.000000"
       cy="14528000.000000"
       r="200000.000000"
       id="circle304" />
  </g>
  <g
     style="fill:#FFFFFF; fill-opacity:1.0;  stroke:#FFFFFF; stroke-width:21200.000000; stroke-opacity:1;  stroke-linecap:round; stroke-linejoin:round;"
     id="g308" />
  <g
     style="fill:#FFFFFF; fill-opacity:1.0;  stroke:#FFFFFF; stroke-width:1.000000; stroke-opacity:1;  stroke-linecap:round; stroke-linejoin:round;"
     id="g312">
    <circle
       cx="39166000.000000"
       cy="19354000.000000"
       r="200000.000000"
       id="circle310" />
  </g>
  <g
     style="fill:#FFFFFF; fill-opacity:1.0;  stroke:#FFFFFF; stroke-width:21200.000000; stroke-opacity:1;  stroke-linecap:round; stroke-linejoin:round;"
     id="g314" />
  <g
     style="fill:#FFFFFF; fill-opacity:1.0;  stroke:#FFFFFF; stroke-width:1.000000; stroke-opacity:1;  stroke-linecap:round; stroke-linejoin:round;"
     id="g318">
    <circle
       cx="18592000.000000"
       cy="12750000.000000"
       r="200000.000000"
       id="circle316" />
  </g>
  <g
     style="fill:#FFFFFF; fill-opacity:1.0;  stroke:#FFFFFF; stroke-width:21200.000000; stroke-opacity:1;  stroke-linecap:round; stroke-linejoin:round;"
     id="g320" />
  <g
     style="fill:#FFFFFF; fill-opacity:1.0;  stroke:#FFFFFF; stroke-width:1.000000; stroke-opacity:1;  stroke-linecap:round; stroke-linejoin:round;"
     id="g324">
    <circle
       cx="40182000.000000"
       cy="19354000.000000"
       r="200000.000000"
       id="circle322" />
  </g>
  <g
     style="fill:#FFFFFF; fill-opacity:1.0;  stroke:#FFFFFF; stroke-width:21200.000000; stroke-opacity:1;  stroke-linecap:round; stroke-linejoin:round;"
     id="g326" />
  <g
     style="fill:#FFFFFF; fill-opacity:1.0;  stroke:#FFFFFF; stroke-width:1.000000; stroke-opacity:1;  stroke-linecap:round; stroke-linejoin:round;"
     id="g330">
    <circle
       cx="26212000.000000"
       cy="18338000.000000"
       r="200000.000000"
       id="circle328" />
  </g>
  <g
     style="fill:#FFFFFF; fill-opacity:1.0;  stroke:#FFFFFF; stroke-width:21200.000000; stroke-opacity:1;  stroke-linecap:round; stroke-linejoin:round;"
     id="g332" />
  <g
     style="fill:#FFFFFF; fill-opacity:1.0;  stroke:#FFFFFF; stroke-width:1.000000; stroke-opacity:1;  stroke-linecap:round; stroke-linejoin:round;"
     id="g336">
    <circle
       cx="18592000.000000"
       cy="11734000.000000"
       r="200000.000000"
       id="circle334" />
  </g>
  <g
     style="fill:#FFFFFF; fill-opacity:1.0;  stroke:#FFFFFF; stroke-width:21200.000000; stroke-opacity:1;  stroke-linecap:round; stroke-linejoin:round;"
     id="g338" />
  <g
     style="fill:#FFFFFF; fill-opacity:1.0;  stroke:#FFFFFF; stroke-width:1.000000; stroke-opacity:1;  stroke-linecap:round; stroke-linejoin:round;"
     id="g342">
    <circle
       cx="41706000.000000"
       cy="19354000.000000"
       r="200000.000000"
       id="circle340" />
  </g>
  <g
     style="fill:#FFFFFF; fill-opacity:1.0;  stroke:#FFFFFF; stroke-width:21200.000000; stroke-opacity:1;  stroke-linecap:round; stroke-linejoin:round;"
     id="g344" />
  <g
     style="fill:#FFFFFF; fill-opacity:1.0;  stroke:#FFFFFF; stroke-width:1.000000; stroke-opacity:1;  stroke-linecap:round; stroke-linejoin:round;"
     id="g348">
    <circle
       cx="25196000.000000"
       cy="18338000.000000"
       r="200000.000000"
       id="circle346" />
  </g>
  <g
     style="fill:#FFFFFF; fill-opacity:1.0;  stroke:#FFFFFF; stroke-width:21200.000000; stroke-opacity:1;  stroke-linecap:round; stroke-linejoin:round;"
     id="g350" />
  <g
     style="fill:#FFFFFF; fill-opacity:1.0;  stroke:#FFFFFF; stroke-width:1.000000; stroke-opacity:1;  stroke-linecap:round; stroke-linejoin:round;"
     id="g354">
    <circle
       cx="42722000.000000"
       cy="19354000.000000"
       r="200000.000000"
       id="circle352" />
  </g>
  <g
     style="fill:#FFFFFF; fill-opacity:1.0;  stroke:#FFFFFF; stroke-width:21200.000000; stroke-opacity:1;  stroke-linecap:round; stroke-linejoin:round;"
     id="g356" />
  <g
     style="fill:#FFFFFF; fill-opacity:1.0;  stroke:#FFFFFF; stroke-width:1.000000; stroke-opacity:1;  stroke-linecap:round; stroke-linejoin:round;"
     id="g360">
    <circle
       cx="27228000.000000"
       cy="18338000.000000"
       r="200000.000000"
       id="circle358" />
  </g>
  <g
     style="fill:#FFFFFF; fill-opacity:1.0;  stroke:#FFFFFF; stroke-width:21200.000000; stroke-opacity:1;  stroke-linecap:round; stroke-linejoin:round;"
     id="g362" />
  <g
     style="fill:#FFFFFF; fill-opacity:1.0;  stroke:#FFFFFF; stroke-width:1.000000; stroke-opacity:1;  stroke-linecap:round; stroke-linejoin:round;"
     id="g366">
    <circle
       cx="17576000.000000"
       cy="11734000.000000"
       r="200000.000000"
       id="circle364" />
  </g>
  <g
     style="fill:#FFFFFF; fill-opacity:1.0;  stroke:#FFFFFF; stroke-width:21200.000000; stroke-opacity:1;  stroke-linecap:round; stroke-linejoin:round;"
     id="g368" />
  <g
     style="fill:#FFFFFF; fill-opacity:1.0;  stroke:#FFFFFF; stroke-width:1.000000; stroke-opacity:1;  stroke-linecap:round; stroke-linejoin:round;"
     id="g372">
    <circle
       cx="48818000.000000"
       cy="39928000.000000"
       r="200000.000000"
       id="circle370" />
  </g>
  <g
     style="fill:#FFFFFF; fill-opacity:1.0;  stroke:#FFFFFF; stroke-width:21200.000000; stroke-opacity:1;  stroke-linecap:round; stroke-linejoin:round;"
     id="g374" />
  <g
     style="fill:#FFFFFF; fill-opacity:1.0;  stroke:#FFFFFF; stroke-width:1.000000; stroke-opacity:1;  stroke-linecap:round; stroke-linejoin:round;"
     id="g378">
    <circle
       cx="35610000.000000"
       cy="41706000.000000"
       r="200000.000000"
       id="circle376" />
  </g>
  <g
     style="fill:#FFFFFF; fill-opacity:1.0;  stroke:#FFFFFF; stroke-width:21200.000000; stroke-opacity:1;  stroke-linecap:round; stroke-linejoin:round;"
     id="g380" />
  <g
     style="fill:#FFFFFF; fill-opacity:1.0;  stroke:#FFFFFF; stroke-width:1.000000; stroke-opacity:1;  stroke-linecap:round; stroke-linejoin:round;"
     id="g384">
    <circle
       cx="31050000.000000"
       cy="41694000.000000"
       r="200000.000000"
       id="circle382" />
  </g>
  <g
     style="fill:#FFFFFF; fill-opacity:1.0;  stroke:#FFFFFF; stroke-width:21200.000000; stroke-opacity:1;  stroke-linecap:round; stroke-linejoin:round;"
     id="g386" />
  <g
     style="fill:#FFFFFF; fill-opacity:1.0;  stroke:#FFFFFF; stroke-width:1.000000; stroke-opacity:1;  stroke-linecap:round; stroke-linejoin:round;"
     id="g390">
    <circle
       cx="18592000.000000"
       cy="39928000.000000"
       r="200000.000000"
       id="circle388" />
  </g>
  <g
     style="fill:#FFFFFF; fill-opacity:1.0;  stroke:#FFFFFF; stroke-width:21200.000000; stroke-opacity:1;  stroke-linecap:round; stroke-linejoin:round;"
     id="g392" />
  <g
     style="fill:#FFFFFF; fill-opacity:1.0;  stroke:#FFFFFF; stroke-width:1.000000; stroke-opacity:1;  stroke-linecap:round; stroke-linejoin:round;"
     id="g396">
    <circle
       cx="46024000.000000"
       cy="29768000.000000"
       r="200000.000000"
       id="circle394" />
  </g>
  <g
     style="fill:#FFFFFF; fill-opacity:1.0;  stroke:#FFFFFF; stroke-width:21200.000000; stroke-opacity:1;  stroke-linecap:round; stroke-linejoin:round;"
     id="g398" />
  <g
     style="fill:#000000; fill-opacity:1.0;  stroke:#000000; stroke-width:21200.000000; stroke-opacity:1;  stroke-linecap:round; stroke-linejoin:round;"
     id="g400" />
  <g
     style="fill:#D0D2CD; fill-opacity:1.0;  stroke:#D0D2CD; stroke-width:21200.000000; stroke-opacity:1;  stroke-linecap:round; stroke-linejoin:round;"
     id="g402" />
  <g
     style="fill:#D0D2CD; fill-opacity:1.0;  stroke:#D0D2CD; stroke-width:100000.000000; stroke-opacity:1;  stroke-linecap:round; stroke-linejoin:round;"
     id="g404" />
  <g
     style="fill:#D0D2CD; fill-opacity:0.0;  stroke:#D0D2CD; stroke-width:100000.000000; stroke-opacity:1;  stroke-linecap:round; stroke-linejoin:round;"
     id="g460">
    <path
       d="M50000 50000 L67050000 50000 "
       id="path406" />
    <path
       d="M67050000 50000 L67050000 59050000 "
       id="path408" />
    <path
       d="M67050000 59050000 L50000 59050000 "
       id="path410" />
    <path
       d="M50000 59050000 L50000 50000 "
       id="path412" />
    <g
       id="g414" />
    <g
       id="g416" />
    <g
       id="g418" />
    <g
       id="g420" />
    <g
       id="g422" />
    <g
       id="g424" />
    <g
       id="g426" />
    <g
       id="g428" />
    <g
       id="g430" />
    <g
       id="g432" />
    <g
       id="g434" />
    <g
       id="g436" />
    <g
       id="g438" />
    <g
       id="g440" />
    <g
       id="g442" />
    <g
       id="g444" />
    <g
       id="g446" />
    <g
       id="g448" />
    <g
       id="g450" />
    <g
       id="g452" />
    <g
       id="g454" />
    <g
       id="g456" />
    <g
       id="g458" />
  </g>
  <metadata
     id="metadata1022">
    <rdf:RDF>
      <cc:Work
         rdf:about="">
        <dc:title>SVG Picture created as touch_panel-B_Cu.svg date 2022/12/29 13:32:42 </dc:title>
      </cc:Work>
    </rdf:RDF>
  </metadata>
</svg>
