M48
; DRILL file {KiCad 6.0.10-86aedd382b~118~ubuntu20.04.1} date Tue 03 Jan 2023 11:24:49 AM EST
; FORMAT={-:-/ absolute / inch / decimal}
; #@! TF.CreationDate,2023-01-03T11:24:49-05:00
; #@! TF.GenerationSoftware,Kicad,Pcbnew,6.0.10-86aedd382b~118~ubuntu20.04.1
; #@! TF.FileFunction,MixedPlating,1,2
FMAT,2
INCH
; #@! TA.AperFunction,Plated,PTH,ViaDrill
T1C0.0157
%
G90
G05
T1
X4.92Y-3.47
X4.92Y-3.52
X4.92Y-3.57
X4.98Y-3.47
X5.27Y-3.43
X5.29Y-4.4868
X5.33Y-3.46
X5.39Y-3.28
X5.47Y-3.31
X5.5Y-3.39
X5.5528Y-3.5848
X5.56Y-3.31
X5.7805Y-4.5563
X5.8028Y-3.1848
X5.96Y-4.5568
X6.2928Y-3.2648
X6.3528Y-3.5448
X6.3928Y-3.5448
X6.4528Y-3.5448
X6.48Y-4.4868
X6.4928Y-3.5448
X6.51Y-4.15
T0
M30
