%TF.GenerationSoftware,KiCad,Pcbnew,6.0.10-86aedd382b~118~ubuntu20.04.1*%
%TF.CreationDate,2023-01-03T11:24:15-05:00*%
%TF.ProjectId,touch_panel,746f7563-685f-4706-916e-656c2e6b6963,rev?*%
%TF.SameCoordinates,Original*%
%TF.FileFunction,Legend,Top*%
%TF.FilePolarity,Positive*%
%FSLAX46Y46*%
G04 Gerber Fmt 4.6, Leading zero omitted, Abs format (unit mm)*
G04 Created by KiCad (PCBNEW 6.0.10-86aedd382b~118~ubuntu20.04.1) date 2023-01-03 11:24:15*
%MOMM*%
%LPD*%
G01*
G04 APERTURE LIST*
%ADD10C,0.300000*%
%ADD11C,0.187500*%
%ADD12C,0.150000*%
%ADD13C,0.120000*%
G04 APERTURE END LIST*
D10*
X180274428Y-77553857D02*
X178774428Y-78053857D01*
X180274428Y-78553857D01*
X178774428Y-79268142D02*
X178845857Y-79125285D01*
X178917285Y-79053857D01*
X179060142Y-78982428D01*
X179488714Y-78982428D01*
X179631571Y-79053857D01*
X179703000Y-79125285D01*
X179774428Y-79268142D01*
X179774428Y-79482428D01*
X179703000Y-79625285D01*
X179631571Y-79696714D01*
X179488714Y-79768142D01*
X179060142Y-79768142D01*
X178917285Y-79696714D01*
X178845857Y-79625285D01*
X178774428Y-79482428D01*
X178774428Y-79268142D01*
X178774428Y-80625285D02*
X178845857Y-80482428D01*
X178988714Y-80411000D01*
X180274428Y-80411000D01*
X179774428Y-81053857D02*
X178774428Y-81411000D01*
X179774428Y-81768142D01*
X178774428Y-82553857D02*
X178845857Y-82411000D01*
X178917285Y-82339571D01*
X179060142Y-82268142D01*
X179488714Y-82268142D01*
X179631571Y-82339571D01*
X179703000Y-82411000D01*
X179774428Y-82553857D01*
X179774428Y-82768142D01*
X179703000Y-82911000D01*
X179631571Y-82982428D01*
X179488714Y-83053857D01*
X179060142Y-83053857D01*
X178917285Y-82982428D01*
X178845857Y-82911000D01*
X178774428Y-82768142D01*
X178774428Y-82553857D01*
X178774428Y-83696714D02*
X180274428Y-83696714D01*
X180274428Y-84053857D01*
X180203000Y-84268142D01*
X180060142Y-84411000D01*
X179917285Y-84482428D01*
X179631571Y-84553857D01*
X179417285Y-84553857D01*
X179131571Y-84482428D01*
X178988714Y-84411000D01*
X178845857Y-84268142D01*
X178774428Y-84053857D01*
X178774428Y-83696714D01*
X178774428Y-85839571D02*
X179560142Y-85839571D01*
X179703000Y-85768142D01*
X179774428Y-85625285D01*
X179774428Y-85339571D01*
X179703000Y-85196714D01*
X178845857Y-85839571D02*
X178774428Y-85696714D01*
X178774428Y-85339571D01*
X178845857Y-85196714D01*
X178988714Y-85125285D01*
X179131571Y-85125285D01*
X179274428Y-85196714D01*
X179345857Y-85339571D01*
X179345857Y-85696714D01*
X179417285Y-85839571D01*
X178845857Y-86482428D02*
X178774428Y-86625285D01*
X178774428Y-86911000D01*
X178845857Y-87053857D01*
X178988714Y-87125285D01*
X179060142Y-87125285D01*
X179203000Y-87053857D01*
X179274428Y-86911000D01*
X179274428Y-86696714D01*
X179345857Y-86553857D01*
X179488714Y-86482428D01*
X179560142Y-86482428D01*
X179703000Y-86553857D01*
X179774428Y-86696714D01*
X179774428Y-86911000D01*
X179703000Y-87053857D01*
X178774428Y-87768142D02*
X180274428Y-87768142D01*
X178774428Y-88411000D02*
X179560142Y-88411000D01*
X179703000Y-88339571D01*
X179774428Y-88196714D01*
X179774428Y-87982428D01*
X179703000Y-87839571D01*
X179631571Y-87768142D01*
X178917285Y-91125285D02*
X178845857Y-91053857D01*
X178774428Y-90839571D01*
X178774428Y-90696714D01*
X178845857Y-90482428D01*
X178988714Y-90339571D01*
X179131571Y-90268142D01*
X179417285Y-90196714D01*
X179631571Y-90196714D01*
X179917285Y-90268142D01*
X180060142Y-90339571D01*
X180203000Y-90482428D01*
X180274428Y-90696714D01*
X180274428Y-90839571D01*
X180203000Y-91053857D01*
X180131571Y-91125285D01*
X178774428Y-91982428D02*
X178845857Y-91839571D01*
X178917285Y-91768142D01*
X179060142Y-91696714D01*
X179488714Y-91696714D01*
X179631571Y-91768142D01*
X179703000Y-91839571D01*
X179774428Y-91982428D01*
X179774428Y-92196714D01*
X179703000Y-92339571D01*
X179631571Y-92411000D01*
X179488714Y-92482428D01*
X179060142Y-92482428D01*
X178917285Y-92411000D01*
X178845857Y-92339571D01*
X178774428Y-92196714D01*
X178774428Y-91982428D01*
X179774428Y-93125285D02*
X178774428Y-93125285D01*
X179631571Y-93125285D02*
X179703000Y-93196714D01*
X179774428Y-93339571D01*
X179774428Y-93553857D01*
X179703000Y-93696714D01*
X179560142Y-93768142D01*
X178774428Y-93768142D01*
X179774428Y-94268142D02*
X179774428Y-94839571D01*
X180274428Y-94482428D02*
X178988714Y-94482428D01*
X178845857Y-94553857D01*
X178774428Y-94696714D01*
X178774428Y-94839571D01*
X178774428Y-95339571D02*
X179774428Y-95339571D01*
X179488714Y-95339571D02*
X179631571Y-95411000D01*
X179703000Y-95482428D01*
X179774428Y-95625285D01*
X179774428Y-95768142D01*
X178774428Y-96482428D02*
X178845857Y-96339571D01*
X178917285Y-96268142D01*
X179060142Y-96196714D01*
X179488714Y-96196714D01*
X179631571Y-96268142D01*
X179703000Y-96339571D01*
X179774428Y-96482428D01*
X179774428Y-96696714D01*
X179703000Y-96839571D01*
X179631571Y-96911000D01*
X179488714Y-96982428D01*
X179060142Y-96982428D01*
X178917285Y-96911000D01*
X178845857Y-96839571D01*
X178774428Y-96696714D01*
X178774428Y-96482428D01*
X178774428Y-97839571D02*
X178845857Y-97696714D01*
X178988714Y-97625285D01*
X180274428Y-97625285D01*
X178774428Y-99553857D02*
X180274428Y-99553857D01*
X180274428Y-100125285D01*
X180203000Y-100268142D01*
X180131571Y-100339571D01*
X179988714Y-100411000D01*
X179774428Y-100411000D01*
X179631571Y-100339571D01*
X179560142Y-100268142D01*
X179488714Y-100125285D01*
X179488714Y-99553857D01*
X178774428Y-101696714D02*
X179560142Y-101696714D01*
X179703000Y-101625285D01*
X179774428Y-101482428D01*
X179774428Y-101196714D01*
X179703000Y-101053857D01*
X178845857Y-101696714D02*
X178774428Y-101553857D01*
X178774428Y-101196714D01*
X178845857Y-101053857D01*
X178988714Y-100982428D01*
X179131571Y-100982428D01*
X179274428Y-101053857D01*
X179345857Y-101196714D01*
X179345857Y-101553857D01*
X179417285Y-101696714D01*
X179774428Y-102411000D02*
X178774428Y-102411000D01*
X179631571Y-102411000D02*
X179703000Y-102482428D01*
X179774428Y-102625285D01*
X179774428Y-102839571D01*
X179703000Y-102982428D01*
X179560142Y-103053857D01*
X178774428Y-103053857D01*
X178845857Y-104339571D02*
X178774428Y-104196714D01*
X178774428Y-103911000D01*
X178845857Y-103768142D01*
X178988714Y-103696714D01*
X179560142Y-103696714D01*
X179703000Y-103768142D01*
X179774428Y-103911000D01*
X179774428Y-104196714D01*
X179703000Y-104339571D01*
X179560142Y-104411000D01*
X179417285Y-104411000D01*
X179274428Y-103696714D01*
X178774428Y-105268142D02*
X178845857Y-105125285D01*
X178988714Y-105053857D01*
X180274428Y-105053857D01*
X176359428Y-78625285D02*
X177073714Y-78125285D01*
X176359428Y-77768142D02*
X177859428Y-77768142D01*
X177859428Y-78339571D01*
X177788000Y-78482428D01*
X177716571Y-78553857D01*
X177573714Y-78625285D01*
X177359428Y-78625285D01*
X177216571Y-78553857D01*
X177145142Y-78482428D01*
X177073714Y-78339571D01*
X177073714Y-77768142D01*
X176430857Y-79839571D02*
X176359428Y-79696714D01*
X176359428Y-79411000D01*
X176430857Y-79268142D01*
X176573714Y-79196714D01*
X177145142Y-79196714D01*
X177288000Y-79268142D01*
X177359428Y-79411000D01*
X177359428Y-79696714D01*
X177288000Y-79839571D01*
X177145142Y-79911000D01*
X177002285Y-79911000D01*
X176859428Y-79196714D01*
X177359428Y-80411000D02*
X176359428Y-80768142D01*
X177359428Y-81125285D01*
X176788000Y-82768142D02*
X176788000Y-83482428D01*
X176359428Y-82625285D02*
X177859428Y-83125285D01*
X176359428Y-83625285D01*
X176359428Y-85268142D02*
X177859428Y-85268142D01*
X177859428Y-85625285D01*
X177788000Y-85839571D01*
X177645142Y-85982428D01*
X177502285Y-86053857D01*
X177216571Y-86125285D01*
X177002285Y-86125285D01*
X176716571Y-86053857D01*
X176573714Y-85982428D01*
X176430857Y-85839571D01*
X176359428Y-85625285D01*
X176359428Y-85268142D01*
X176430857Y-87339571D02*
X176359428Y-87196714D01*
X176359428Y-86911000D01*
X176430857Y-86768142D01*
X176573714Y-86696714D01*
X177145142Y-86696714D01*
X177288000Y-86768142D01*
X177359428Y-86911000D01*
X177359428Y-87196714D01*
X177288000Y-87339571D01*
X177145142Y-87411000D01*
X177002285Y-87411000D01*
X176859428Y-86696714D01*
X176430857Y-88696714D02*
X176359428Y-88553857D01*
X176359428Y-88268142D01*
X176430857Y-88125285D01*
X176502285Y-88053857D01*
X176645142Y-87982428D01*
X177073714Y-87982428D01*
X177216571Y-88053857D01*
X177288000Y-88125285D01*
X177359428Y-88268142D01*
X177359428Y-88553857D01*
X177288000Y-88696714D01*
X177716571Y-90411000D02*
X177788000Y-90482428D01*
X177859428Y-90625285D01*
X177859428Y-90982428D01*
X177788000Y-91125285D01*
X177716571Y-91196714D01*
X177573714Y-91268142D01*
X177430857Y-91268142D01*
X177216571Y-91196714D01*
X176359428Y-90339571D01*
X176359428Y-91268142D01*
X177859428Y-92196714D02*
X177859428Y-92339571D01*
X177788000Y-92482428D01*
X177716571Y-92553857D01*
X177573714Y-92625285D01*
X177288000Y-92696714D01*
X176930857Y-92696714D01*
X176645142Y-92625285D01*
X176502285Y-92553857D01*
X176430857Y-92482428D01*
X176359428Y-92339571D01*
X176359428Y-92196714D01*
X176430857Y-92053857D01*
X176502285Y-91982428D01*
X176645142Y-91911000D01*
X176930857Y-91839571D01*
X177288000Y-91839571D01*
X177573714Y-91911000D01*
X177716571Y-91982428D01*
X177788000Y-92053857D01*
X177859428Y-92196714D01*
X177716571Y-93268142D02*
X177788000Y-93339571D01*
X177859428Y-93482428D01*
X177859428Y-93839571D01*
X177788000Y-93982428D01*
X177716571Y-94053857D01*
X177573714Y-94125285D01*
X177430857Y-94125285D01*
X177216571Y-94053857D01*
X176359428Y-93196714D01*
X176359428Y-94125285D01*
X177716571Y-94696714D02*
X177788000Y-94768142D01*
X177859428Y-94911000D01*
X177859428Y-95268142D01*
X177788000Y-95411000D01*
X177716571Y-95482428D01*
X177573714Y-95553857D01*
X177430857Y-95553857D01*
X177216571Y-95482428D01*
X176359428Y-94625285D01*
X176359428Y-95553857D01*
X174658714Y-78696714D02*
X174730142Y-78625285D01*
X174801571Y-78482428D01*
X174801571Y-78339571D01*
X174730142Y-78196714D01*
X174658714Y-78125285D01*
X174515857Y-78053857D01*
X174373000Y-78053857D01*
X174230142Y-78125285D01*
X174158714Y-78196714D01*
X174087285Y-78339571D01*
X174087285Y-78482428D01*
X174158714Y-78625285D01*
X174230142Y-78696714D01*
X174801571Y-78696714D02*
X174230142Y-78696714D01*
X174158714Y-78768142D01*
X174158714Y-78839571D01*
X174230142Y-78982428D01*
X174373000Y-79053857D01*
X174730142Y-79053857D01*
X174944428Y-78911000D01*
X175087285Y-78696714D01*
X175158714Y-78411000D01*
X175087285Y-78125285D01*
X174944428Y-77911000D01*
X174730142Y-77768142D01*
X174444428Y-77696714D01*
X174158714Y-77768142D01*
X173944428Y-77911000D01*
X173801571Y-78125285D01*
X173730142Y-78411000D01*
X173801571Y-78696714D01*
X173944428Y-78911000D01*
X174944428Y-79553857D02*
X173944428Y-79839571D01*
X174658714Y-80125285D01*
X173944428Y-80411000D01*
X174944428Y-80696714D01*
X173944428Y-81268142D02*
X175444428Y-81268142D01*
X173944428Y-81911000D02*
X174730142Y-81911000D01*
X174873000Y-81839571D01*
X174944428Y-81696714D01*
X174944428Y-81482428D01*
X174873000Y-81339571D01*
X174801571Y-81268142D01*
X173944428Y-82625285D02*
X174944428Y-82625285D01*
X175444428Y-82625285D02*
X175373000Y-82553857D01*
X175301571Y-82625285D01*
X175373000Y-82696714D01*
X175444428Y-82625285D01*
X175301571Y-82625285D01*
X174944428Y-83125285D02*
X174944428Y-83696714D01*
X175444428Y-83339571D02*
X174158714Y-83339571D01*
X174015857Y-83411000D01*
X173944428Y-83553857D01*
X173944428Y-83696714D01*
X174944428Y-83982428D02*
X174944428Y-84553857D01*
X173944428Y-84196714D02*
X175230142Y-84196714D01*
X175373000Y-84268142D01*
X175444428Y-84411000D01*
X175444428Y-84553857D01*
X173944428Y-85053857D02*
X174944428Y-85053857D01*
X175444428Y-85053857D02*
X175373000Y-84982428D01*
X175301571Y-85053857D01*
X175373000Y-85125285D01*
X175444428Y-85053857D01*
X175301571Y-85053857D01*
X174944428Y-85768142D02*
X173658714Y-85768142D01*
X173515857Y-85696714D01*
X173444428Y-85553857D01*
X173444428Y-85482428D01*
X175444428Y-85768142D02*
X175373000Y-85696714D01*
X175301571Y-85768142D01*
X175373000Y-85839571D01*
X175444428Y-85768142D01*
X175301571Y-85768142D01*
X174015857Y-86411000D02*
X173944428Y-86553857D01*
X173944428Y-86839571D01*
X174015857Y-86982428D01*
X174158714Y-87053857D01*
X174230142Y-87053857D01*
X174373000Y-86982428D01*
X174444428Y-86839571D01*
X174444428Y-86625285D01*
X174515857Y-86482428D01*
X174658714Y-86411000D01*
X174730142Y-86411000D01*
X174873000Y-86482428D01*
X174944428Y-86625285D01*
X174944428Y-86839571D01*
X174873000Y-86982428D01*
D11*
X125175500Y-101091904D02*
X125139785Y-101187142D01*
X125139785Y-101330000D01*
X125175500Y-101472857D01*
X125246928Y-101568095D01*
X125318357Y-101615714D01*
X125461214Y-101663333D01*
X125568357Y-101663333D01*
X125711214Y-101615714D01*
X125782642Y-101568095D01*
X125854071Y-101472857D01*
X125889785Y-101330000D01*
X125889785Y-101234761D01*
X125854071Y-101091904D01*
X125818357Y-101044285D01*
X125568357Y-101044285D01*
X125568357Y-101234761D01*
X125889785Y-100615714D02*
X125139785Y-100615714D01*
X125889785Y-100044285D01*
X125139785Y-100044285D01*
X125889785Y-99568095D02*
X125139785Y-99568095D01*
X125139785Y-99330000D01*
X125175500Y-99187142D01*
X125246928Y-99091904D01*
X125318357Y-99044285D01*
X125461214Y-98996666D01*
X125568357Y-98996666D01*
X125711214Y-99044285D01*
X125782642Y-99091904D01*
X125854071Y-99187142D01*
X125889785Y-99330000D01*
X125889785Y-99568095D01*
X128304785Y-101330000D02*
X127554785Y-101330000D01*
X128304785Y-100853809D02*
X127554785Y-100853809D01*
X128304785Y-100282380D01*
X127554785Y-100282380D01*
X127804785Y-99377619D02*
X128304785Y-99377619D01*
X127519071Y-99615714D02*
X128054785Y-99853809D01*
X128054785Y-99234761D01*
X130719785Y-101330000D02*
X129969785Y-101330000D01*
X130719785Y-100853809D02*
X129969785Y-100853809D01*
X130719785Y-100282380D01*
X129969785Y-100282380D01*
X129969785Y-99901428D02*
X129969785Y-99282380D01*
X130255500Y-99615714D01*
X130255500Y-99472857D01*
X130291214Y-99377619D01*
X130326928Y-99330000D01*
X130398357Y-99282380D01*
X130576928Y-99282380D01*
X130648357Y-99330000D01*
X130684071Y-99377619D01*
X130719785Y-99472857D01*
X130719785Y-99758571D01*
X130684071Y-99853809D01*
X130648357Y-99901428D01*
X133134785Y-101330000D02*
X132384785Y-101330000D01*
X133134785Y-100853809D02*
X132384785Y-100853809D01*
X133134785Y-100282380D01*
X132384785Y-100282380D01*
X132456214Y-99853809D02*
X132420500Y-99806190D01*
X132384785Y-99710952D01*
X132384785Y-99472857D01*
X132420500Y-99377619D01*
X132456214Y-99330000D01*
X132527642Y-99282380D01*
X132599071Y-99282380D01*
X132706214Y-99330000D01*
X133134785Y-99901428D01*
X133134785Y-99282380D01*
X135549785Y-101330000D02*
X134799785Y-101330000D01*
X135549785Y-100853809D02*
X134799785Y-100853809D01*
X135549785Y-100282380D01*
X134799785Y-100282380D01*
X135549785Y-99282380D02*
X135549785Y-99853809D01*
X135549785Y-99568095D02*
X134799785Y-99568095D01*
X134906928Y-99663333D01*
X134978357Y-99758571D01*
X135014071Y-99853809D01*
X137214785Y-101663333D02*
X137964785Y-101330000D01*
X137214785Y-100996666D01*
X137893357Y-100091904D02*
X137929071Y-100139523D01*
X137964785Y-100282380D01*
X137964785Y-100377619D01*
X137929071Y-100520476D01*
X137857642Y-100615714D01*
X137786214Y-100663333D01*
X137643357Y-100710952D01*
X137536214Y-100710952D01*
X137393357Y-100663333D01*
X137321928Y-100615714D01*
X137250500Y-100520476D01*
X137214785Y-100377619D01*
X137214785Y-100282380D01*
X137250500Y-100139523D01*
X137286214Y-100091904D01*
X137893357Y-99091904D02*
X137929071Y-99139523D01*
X137964785Y-99282380D01*
X137964785Y-99377619D01*
X137929071Y-99520476D01*
X137857642Y-99615714D01*
X137786214Y-99663333D01*
X137643357Y-99710952D01*
X137536214Y-99710952D01*
X137393357Y-99663333D01*
X137321928Y-99615714D01*
X137250500Y-99520476D01*
X137214785Y-99377619D01*
X137214785Y-99282380D01*
X137250500Y-99139523D01*
X137286214Y-99091904D01*
D12*
%TO.C,R5*%
X152126380Y-94901166D02*
X151650190Y-95234500D01*
X152126380Y-95472595D02*
X151126380Y-95472595D01*
X151126380Y-95091642D01*
X151174000Y-94996404D01*
X151221619Y-94948785D01*
X151316857Y-94901166D01*
X151459714Y-94901166D01*
X151554952Y-94948785D01*
X151602571Y-94996404D01*
X151650190Y-95091642D01*
X151650190Y-95472595D01*
X151126380Y-93996404D02*
X151126380Y-94472595D01*
X151602571Y-94520214D01*
X151554952Y-94472595D01*
X151507333Y-94377357D01*
X151507333Y-94139261D01*
X151554952Y-94044023D01*
X151602571Y-93996404D01*
X151697809Y-93948785D01*
X151935904Y-93948785D01*
X152031142Y-93996404D01*
X152078761Y-94044023D01*
X152126380Y-94139261D01*
X152126380Y-94377357D01*
X152078761Y-94472595D01*
X152031142Y-94520214D01*
%TO.C,U3*%
X160180380Y-88202904D02*
X160989904Y-88202904D01*
X161085142Y-88155285D01*
X161132761Y-88107666D01*
X161180380Y-88012428D01*
X161180380Y-87821952D01*
X161132761Y-87726714D01*
X161085142Y-87679095D01*
X160989904Y-87631476D01*
X160180380Y-87631476D01*
X160180380Y-87250523D02*
X160180380Y-86631476D01*
X160561333Y-86964809D01*
X160561333Y-86821952D01*
X160608952Y-86726714D01*
X160656571Y-86679095D01*
X160751809Y-86631476D01*
X160989904Y-86631476D01*
X161085142Y-86679095D01*
X161132761Y-86726714D01*
X161180380Y-86821952D01*
X161180380Y-87107666D01*
X161132761Y-87202904D01*
X161085142Y-87250523D01*
%TO.C,R10*%
X145452380Y-78997357D02*
X144976190Y-79330690D01*
X145452380Y-79568785D02*
X144452380Y-79568785D01*
X144452380Y-79187833D01*
X144500000Y-79092595D01*
X144547619Y-79044976D01*
X144642857Y-78997357D01*
X144785714Y-78997357D01*
X144880952Y-79044976D01*
X144928571Y-79092595D01*
X144976190Y-79187833D01*
X144976190Y-79568785D01*
X145452380Y-78044976D02*
X145452380Y-78616404D01*
X145452380Y-78330690D02*
X144452380Y-78330690D01*
X144595238Y-78425928D01*
X144690476Y-78521166D01*
X144738095Y-78616404D01*
X144452380Y-77425928D02*
X144452380Y-77330690D01*
X144500000Y-77235452D01*
X144547619Y-77187833D01*
X144642857Y-77140214D01*
X144833333Y-77092595D01*
X145071428Y-77092595D01*
X145261904Y-77140214D01*
X145357142Y-77187833D01*
X145404761Y-77235452D01*
X145452380Y-77330690D01*
X145452380Y-77425928D01*
X145404761Y-77521166D01*
X145357142Y-77568785D01*
X145261904Y-77616404D01*
X145071428Y-77664023D01*
X144833333Y-77664023D01*
X144642857Y-77616404D01*
X144547619Y-77568785D01*
X144500000Y-77521166D01*
X144452380Y-77425928D01*
%TO.C,R1*%
X164126380Y-94901166D02*
X163650190Y-95234500D01*
X164126380Y-95472595D02*
X163126380Y-95472595D01*
X163126380Y-95091642D01*
X163174000Y-94996404D01*
X163221619Y-94948785D01*
X163316857Y-94901166D01*
X163459714Y-94901166D01*
X163554952Y-94948785D01*
X163602571Y-94996404D01*
X163650190Y-95091642D01*
X163650190Y-95472595D01*
X164126380Y-93948785D02*
X164126380Y-94520214D01*
X164126380Y-94234500D02*
X163126380Y-94234500D01*
X163269238Y-94329738D01*
X163364476Y-94424976D01*
X163412095Y-94520214D01*
%TO.C,R6*%
X156551333Y-83178880D02*
X156218000Y-82702690D01*
X155979904Y-83178880D02*
X155979904Y-82178880D01*
X156360857Y-82178880D01*
X156456095Y-82226500D01*
X156503714Y-82274119D01*
X156551333Y-82369357D01*
X156551333Y-82512214D01*
X156503714Y-82607452D01*
X156456095Y-82655071D01*
X156360857Y-82702690D01*
X155979904Y-82702690D01*
X157408476Y-82178880D02*
X157218000Y-82178880D01*
X157122761Y-82226500D01*
X157075142Y-82274119D01*
X156979904Y-82416976D01*
X156932285Y-82607452D01*
X156932285Y-82988404D01*
X156979904Y-83083642D01*
X157027523Y-83131261D01*
X157122761Y-83178880D01*
X157313238Y-83178880D01*
X157408476Y-83131261D01*
X157456095Y-83083642D01*
X157503714Y-82988404D01*
X157503714Y-82750309D01*
X157456095Y-82655071D01*
X157408476Y-82607452D01*
X157313238Y-82559833D01*
X157122761Y-82559833D01*
X157027523Y-82607452D01*
X156979904Y-82655071D01*
X156932285Y-82750309D01*
%TO.C,R9*%
X139452380Y-79029166D02*
X138976190Y-79362500D01*
X139452380Y-79600595D02*
X138452380Y-79600595D01*
X138452380Y-79219642D01*
X138500000Y-79124404D01*
X138547619Y-79076785D01*
X138642857Y-79029166D01*
X138785714Y-79029166D01*
X138880952Y-79076785D01*
X138928571Y-79124404D01*
X138976190Y-79219642D01*
X138976190Y-79600595D01*
X139452380Y-78552976D02*
X139452380Y-78362500D01*
X139404761Y-78267261D01*
X139357142Y-78219642D01*
X139214285Y-78124404D01*
X139023809Y-78076785D01*
X138642857Y-78076785D01*
X138547619Y-78124404D01*
X138500000Y-78172023D01*
X138452380Y-78267261D01*
X138452380Y-78457738D01*
X138500000Y-78552976D01*
X138547619Y-78600595D01*
X138642857Y-78648214D01*
X138880952Y-78648214D01*
X138976190Y-78600595D01*
X139023809Y-78552976D01*
X139071428Y-78457738D01*
X139071428Y-78267261D01*
X139023809Y-78172023D01*
X138976190Y-78124404D01*
X138880952Y-78076785D01*
%TO.C,R4*%
X155126380Y-94901166D02*
X154650190Y-95234500D01*
X155126380Y-95472595D02*
X154126380Y-95472595D01*
X154126380Y-95091642D01*
X154174000Y-94996404D01*
X154221619Y-94948785D01*
X154316857Y-94901166D01*
X154459714Y-94901166D01*
X154554952Y-94948785D01*
X154602571Y-94996404D01*
X154650190Y-95091642D01*
X154650190Y-95472595D01*
X154459714Y-94044023D02*
X155126380Y-94044023D01*
X154078761Y-94282119D02*
X154793047Y-94520214D01*
X154793047Y-93901166D01*
%TO.C,R3*%
X158126380Y-94901166D02*
X157650190Y-95234500D01*
X158126380Y-95472595D02*
X157126380Y-95472595D01*
X157126380Y-95091642D01*
X157174000Y-94996404D01*
X157221619Y-94948785D01*
X157316857Y-94901166D01*
X157459714Y-94901166D01*
X157554952Y-94948785D01*
X157602571Y-94996404D01*
X157650190Y-95091642D01*
X157650190Y-95472595D01*
X157126380Y-94567833D02*
X157126380Y-93948785D01*
X157507333Y-94282119D01*
X157507333Y-94139261D01*
X157554952Y-94044023D01*
X157602571Y-93996404D01*
X157697809Y-93948785D01*
X157935904Y-93948785D01*
X158031142Y-93996404D01*
X158078761Y-94044023D01*
X158126380Y-94139261D01*
X158126380Y-94424976D01*
X158078761Y-94520214D01*
X158031142Y-94567833D01*
%TO.C,C2*%
X165019142Y-84871166D02*
X165066761Y-84918785D01*
X165114380Y-85061642D01*
X165114380Y-85156880D01*
X165066761Y-85299738D01*
X164971523Y-85394976D01*
X164876285Y-85442595D01*
X164685809Y-85490214D01*
X164542952Y-85490214D01*
X164352476Y-85442595D01*
X164257238Y-85394976D01*
X164162000Y-85299738D01*
X164114380Y-85156880D01*
X164114380Y-85061642D01*
X164162000Y-84918785D01*
X164209619Y-84871166D01*
X164209619Y-84490214D02*
X164162000Y-84442595D01*
X164114380Y-84347357D01*
X164114380Y-84109261D01*
X164162000Y-84014023D01*
X164209619Y-83966404D01*
X164304857Y-83918785D01*
X164400095Y-83918785D01*
X164542952Y-83966404D01*
X165114380Y-84537833D01*
X165114380Y-83918785D01*
%TO.C,R8*%
X143452380Y-79029166D02*
X142976190Y-79362500D01*
X143452380Y-79600595D02*
X142452380Y-79600595D01*
X142452380Y-79219642D01*
X142500000Y-79124404D01*
X142547619Y-79076785D01*
X142642857Y-79029166D01*
X142785714Y-79029166D01*
X142880952Y-79076785D01*
X142928571Y-79124404D01*
X142976190Y-79219642D01*
X142976190Y-79600595D01*
X142880952Y-78457738D02*
X142833333Y-78552976D01*
X142785714Y-78600595D01*
X142690476Y-78648214D01*
X142642857Y-78648214D01*
X142547619Y-78600595D01*
X142500000Y-78552976D01*
X142452380Y-78457738D01*
X142452380Y-78267261D01*
X142500000Y-78172023D01*
X142547619Y-78124404D01*
X142642857Y-78076785D01*
X142690476Y-78076785D01*
X142785714Y-78124404D01*
X142833333Y-78172023D01*
X142880952Y-78267261D01*
X142880952Y-78457738D01*
X142928571Y-78552976D01*
X142976190Y-78600595D01*
X143071428Y-78648214D01*
X143261904Y-78648214D01*
X143357142Y-78600595D01*
X143404761Y-78552976D01*
X143452380Y-78457738D01*
X143452380Y-78267261D01*
X143404761Y-78172023D01*
X143357142Y-78124404D01*
X143261904Y-78076785D01*
X143071428Y-78076785D01*
X142976190Y-78124404D01*
X142928571Y-78172023D01*
X142880952Y-78267261D01*
%TO.C,R2*%
X161126380Y-94901166D02*
X160650190Y-95234500D01*
X161126380Y-95472595D02*
X160126380Y-95472595D01*
X160126380Y-95091642D01*
X160174000Y-94996404D01*
X160221619Y-94948785D01*
X160316857Y-94901166D01*
X160459714Y-94901166D01*
X160554952Y-94948785D01*
X160602571Y-94996404D01*
X160650190Y-95091642D01*
X160650190Y-95472595D01*
X160221619Y-94520214D02*
X160174000Y-94472595D01*
X160126380Y-94377357D01*
X160126380Y-94139261D01*
X160174000Y-94044023D01*
X160221619Y-93996404D01*
X160316857Y-93948785D01*
X160412095Y-93948785D01*
X160554952Y-93996404D01*
X161126380Y-94567833D01*
X161126380Y-93948785D01*
%TO.C,R7*%
X141452380Y-79029166D02*
X140976190Y-79362500D01*
X141452380Y-79600595D02*
X140452380Y-79600595D01*
X140452380Y-79219642D01*
X140500000Y-79124404D01*
X140547619Y-79076785D01*
X140642857Y-79029166D01*
X140785714Y-79029166D01*
X140880952Y-79076785D01*
X140928571Y-79124404D01*
X140976190Y-79219642D01*
X140976190Y-79600595D01*
X140452380Y-78695833D02*
X140452380Y-78029166D01*
X141452380Y-78457738D01*
%TO.C,C1*%
X162479142Y-84871166D02*
X162526761Y-84918785D01*
X162574380Y-85061642D01*
X162574380Y-85156880D01*
X162526761Y-85299738D01*
X162431523Y-85394976D01*
X162336285Y-85442595D01*
X162145809Y-85490214D01*
X162002952Y-85490214D01*
X161812476Y-85442595D01*
X161717238Y-85394976D01*
X161622000Y-85299738D01*
X161574380Y-85156880D01*
X161574380Y-85061642D01*
X161622000Y-84918785D01*
X161669619Y-84871166D01*
X162574380Y-83918785D02*
X162574380Y-84490214D01*
X162574380Y-84204500D02*
X161574380Y-84204500D01*
X161717238Y-84299738D01*
X161812476Y-84394976D01*
X161860095Y-84490214D01*
%TO.C,J1*%
X131254666Y-87434380D02*
X131254666Y-88148666D01*
X131207047Y-88291523D01*
X131111809Y-88386761D01*
X130968952Y-88434380D01*
X130873714Y-88434380D01*
X132254666Y-88434380D02*
X131683238Y-88434380D01*
X131968952Y-88434380D02*
X131968952Y-87434380D01*
X131873714Y-87577238D01*
X131778476Y-87672476D01*
X131683238Y-87720095D01*
D13*
%TO.C,R5*%
X150766500Y-94479776D02*
X150766500Y-94989224D01*
X149721500Y-94479776D02*
X149721500Y-94989224D01*
%TO.C,U3*%
X159883000Y-87441000D02*
X159883000Y-83991000D01*
X151013000Y-87441000D02*
X151013000Y-85491000D01*
X159883000Y-87441000D02*
X159883000Y-89391000D01*
X151013000Y-87441000D02*
X151013000Y-89391000D01*
%TO.C,R10*%
X145522500Y-81911224D02*
X145522500Y-81401776D01*
X144477500Y-81911224D02*
X144477500Y-81401776D01*
%TO.C,R1*%
X161721500Y-94479776D02*
X161721500Y-94989224D01*
X162766500Y-94479776D02*
X162766500Y-94989224D01*
%TO.C,R6*%
X156972724Y-81819000D02*
X156463276Y-81819000D01*
X156972724Y-80774000D02*
X156463276Y-80774000D01*
%TO.C,R9*%
X139522500Y-81911224D02*
X139522500Y-81401776D01*
X138477500Y-81911224D02*
X138477500Y-81401776D01*
%TO.C,R4*%
X152721500Y-94479776D02*
X152721500Y-94989224D01*
X153766500Y-94479776D02*
X153766500Y-94989224D01*
%TO.C,R3*%
X155721500Y-94479776D02*
X155721500Y-94989224D01*
X156766500Y-94479776D02*
X156766500Y-94989224D01*
%TO.C,C2*%
X163898000Y-87294733D02*
X163898000Y-87587267D01*
X164918000Y-87294733D02*
X164918000Y-87587267D01*
%TO.C,R8*%
X143522500Y-81911224D02*
X143522500Y-81401776D01*
X142477500Y-81911224D02*
X142477500Y-81401776D01*
%TO.C,R2*%
X158721500Y-94479776D02*
X158721500Y-94989224D01*
X159766500Y-94479776D02*
X159766500Y-94989224D01*
%TO.C,R7*%
X141522500Y-81911224D02*
X141522500Y-81401776D01*
X140477500Y-81911224D02*
X140477500Y-81401776D01*
%TO.C,C1*%
X161428000Y-87294733D02*
X161428000Y-87587267D01*
X162448000Y-87294733D02*
X162448000Y-87587267D01*
%TO.C,J1*%
X123528000Y-90472000D02*
X124548000Y-90472000D01*
X138628000Y-92072000D02*
X137348000Y-92072000D01*
X124548000Y-92072000D02*
X125828000Y-92072000D01*
X138628000Y-90472000D02*
X138628000Y-92072000D01*
X139648000Y-94722000D02*
X139648000Y-90472000D01*
X123528000Y-94722000D02*
X123528000Y-90472000D01*
X125828000Y-92072000D02*
X125828000Y-89182000D01*
X139648000Y-90472000D02*
X138628000Y-90472000D01*
X124548000Y-90472000D02*
X124548000Y-92072000D01*
X125248000Y-98292000D02*
X137928000Y-98292000D01*
%TD*%
M02*
