%TF.GenerationSoftware,KiCad,Pcbnew,6.0.10-86aedd382b~118~ubuntu20.04.1*%
%TF.CreationDate,2023-01-03T11:24:15-05:00*%
%TF.ProjectId,touch_panel,746f7563-685f-4706-916e-656c2e6b6963,rev?*%
%TF.SameCoordinates,Original*%
%TF.FileFunction,Copper,L2,Bot*%
%TF.FilePolarity,Positive*%
%FSLAX46Y46*%
G04 Gerber Fmt 4.6, Leading zero omitted, Abs format (unit mm)*
G04 Created by KiCad (PCBNEW 6.0.10-86aedd382b~118~ubuntu20.04.1) date 2023-01-03 11:24:15*
%MOMM*%
%LPD*%
G01*
G04 APERTURE LIST*
G04 Aperture macros list*
%AMRoundRect*
0 Rectangle with rounded corners*
0 $1 Rounding radius*
0 $2 $3 $4 $5 $6 $7 $8 $9 X,Y pos of 4 corners*
0 Add a 4 corners polygon primitive as box body*
4,1,4,$2,$3,$4,$5,$6,$7,$8,$9,$2,$3,0*
0 Add four circle primitives for the rounded corners*
1,1,$1+$1,$2,$3*
1,1,$1+$1,$4,$5*
1,1,$1+$1,$6,$7*
1,1,$1+$1,$8,$9*
0 Add four rect primitives between the rounded corners*
20,1,$1+$1,$2,$3,$4,$5,0*
20,1,$1+$1,$4,$5,$6,$7,0*
20,1,$1+$1,$6,$7,$8,$9,0*
20,1,$1+$1,$8,$9,$2,$3,0*%
G04 Aperture macros list end*
%TA.AperFunction,SMDPad,CuDef*%
%ADD10RoundRect,3.125000X-3.125000X-3.125000X3.125000X-3.125000X3.125000X3.125000X-3.125000X3.125000X0*%
%TD*%
%TA.AperFunction,ViaPad*%
%ADD11C,0.800000*%
%TD*%
%TA.AperFunction,Conductor*%
%ADD12C,0.600000*%
%TD*%
%TA.AperFunction,Conductor*%
%ADD13C,0.250000*%
%TD*%
G04 APERTURE END LIST*
D10*
%TO.P,SW4,1*%
%TO.N,Net-(R5-Pad2)*%
X126824000Y-114086000D03*
%TD*%
%TO.P,SW2,1*%
%TO.N,Net-(R3-Pad2)*%
X157324000Y-122086000D03*
%TD*%
%TO.P,SW3,1*%
%TO.N,Net-(R4-Pad2)*%
X141324000Y-122086000D03*
%TD*%
%TO.P,SW1,1*%
%TO.N,Net-(R2-Pad2)*%
X171824000Y-114086000D03*
%TD*%
D11*
%TO.N,VCC*%
X159836000Y-82926500D03*
X141040000Y-91054500D03*
X147390000Y-80894500D03*
%TO.N,GND*%
X161360000Y-90038500D03*
X162376000Y-90038500D03*
X124968000Y-89408000D03*
X163900000Y-90038500D03*
X126492000Y-88138000D03*
X164916000Y-90038500D03*
X124968000Y-88138000D03*
X124968000Y-90678000D03*
%TO.N,/OUT3*%
X139700000Y-86106000D03*
X141224000Y-84074000D03*
%TO.N,/OUT2*%
X133858000Y-87122000D03*
X136906000Y-83312000D03*
%TO.N,/OUT1*%
X138938000Y-84074000D03*
X135382000Y-87884000D03*
%TO.N,Net-(R2-Pad2)*%
X164592000Y-113964000D03*
%TO.N,Net-(R3-Pad2)*%
X151384000Y-115742000D03*
%TO.N,Net-(R4-Pad2)*%
X146824000Y-115730000D03*
%TO.N,Net-(R5-Pad2)*%
X134366000Y-113964000D03*
%TO.N,/GUARD_LOOP*%
X165354000Y-105410000D03*
%TD*%
D12*
%TO.N,VCC*%
X146882000Y-81910500D02*
X147390000Y-81402500D01*
X142564000Y-85212500D02*
X142564000Y-90292500D01*
X147390000Y-81402500D02*
X147390000Y-80894500D01*
X144850000Y-82926500D02*
X142564000Y-85212500D01*
X145866000Y-81910500D02*
X146882000Y-81910500D01*
X144850000Y-82926500D02*
X145866000Y-81910500D01*
X142564000Y-90292500D02*
X141802000Y-91054500D01*
X141802000Y-91054500D02*
X141040000Y-91054500D01*
X159836000Y-82926500D02*
X144850000Y-82926500D01*
D13*
%TO.N,/OUT3*%
X141224000Y-84074000D02*
X139700000Y-85598000D01*
X139700000Y-85598000D02*
X139700000Y-86106000D01*
%TO.N,/OUT2*%
X133858000Y-85852000D02*
X133858000Y-87122000D01*
X136398000Y-83312000D02*
X133858000Y-85852000D01*
X136906000Y-83312000D02*
X136398000Y-83312000D01*
%TO.N,/OUT1*%
X138430000Y-84074000D02*
X135382000Y-87122000D01*
X138938000Y-84074000D02*
X138430000Y-84074000D01*
X135382000Y-87122000D02*
X135382000Y-87884000D01*
%TO.N,Net-(R2-Pad2)*%
X173824000Y-114086000D02*
X164714000Y-114086000D01*
X164714000Y-114086000D02*
X164592000Y-113964000D01*
%TO.N,Net-(R3-Pad2)*%
X157324000Y-122086000D02*
X157324000Y-121682000D01*
X157324000Y-121682000D02*
X151384000Y-115742000D01*
%TO.N,Net-(R4-Pad2)*%
X141324000Y-121230000D02*
X146824000Y-115730000D01*
X141324000Y-122086000D02*
X141324000Y-121230000D01*
%TO.N,Net-(R5-Pad2)*%
X124846000Y-114086000D02*
X134244000Y-114086000D01*
X134244000Y-114086000D02*
X134366000Y-113964000D01*
%TD*%
%TA.AperFunction,Conductor*%
%TO.N,GND*%
G36*
X182257621Y-75966502D02*
G01*
X182304114Y-76020158D01*
X182315500Y-76072500D01*
X182315500Y-96563936D01*
X182295498Y-96632057D01*
X182248900Y-96675055D01*
X182217633Y-96691768D01*
X182194820Y-96701217D01*
X182030976Y-96750921D01*
X182006759Y-96755738D01*
X181902399Y-96766019D01*
X181830178Y-96773133D01*
X181817828Y-96773740D01*
X180071001Y-96773769D01*
X176451464Y-96773830D01*
X166887283Y-96773991D01*
X166875395Y-96773429D01*
X166838771Y-96769957D01*
X166705274Y-96757302D01*
X166681911Y-96752832D01*
X166523604Y-96706696D01*
X166501498Y-96697914D01*
X166354685Y-96622849D01*
X166334628Y-96610074D01*
X166204533Y-96508748D01*
X166187234Y-96492429D01*
X166074560Y-96363967D01*
X166067140Y-96354655D01*
X163369104Y-92618913D01*
X163367368Y-92616509D01*
X163367366Y-92616506D01*
X163068000Y-92202000D01*
X148844000Y-92202000D01*
X139492084Y-102046123D01*
X139482848Y-102054907D01*
X139387813Y-102136536D01*
X139343862Y-102174286D01*
X139322935Y-102188858D01*
X139168385Y-102274678D01*
X139144957Y-102284736D01*
X139141135Y-102285936D01*
X138976291Y-102337677D01*
X138951309Y-102342813D01*
X138769050Y-102361354D01*
X138756298Y-102362001D01*
X117495444Y-102362054D01*
X116830189Y-102362056D01*
X116817839Y-102361449D01*
X116708367Y-102350667D01*
X116641262Y-102344057D01*
X116617044Y-102339241D01*
X116453191Y-102289538D01*
X116430372Y-102280085D01*
X116399104Y-102263372D01*
X116348456Y-102213620D01*
X116332500Y-102152250D01*
X116332500Y-87122000D01*
X132944496Y-87122000D01*
X132964458Y-87311928D01*
X133023473Y-87493556D01*
X133118960Y-87658944D01*
X133123378Y-87663851D01*
X133123379Y-87663852D01*
X133150589Y-87694072D01*
X133246747Y-87800866D01*
X133345843Y-87872864D01*
X133370207Y-87890565D01*
X133401248Y-87913118D01*
X133407276Y-87915802D01*
X133407278Y-87915803D01*
X133456314Y-87937635D01*
X133575712Y-87990794D01*
X133669113Y-88010647D01*
X133756056Y-88029128D01*
X133756061Y-88029128D01*
X133762513Y-88030500D01*
X133953487Y-88030500D01*
X133959939Y-88029128D01*
X133959944Y-88029128D01*
X134046887Y-88010647D01*
X134140288Y-87990794D01*
X134306116Y-87916963D01*
X134376482Y-87907529D01*
X134440779Y-87937635D01*
X134478593Y-87997724D01*
X134482674Y-88018899D01*
X134487768Y-88067365D01*
X134488458Y-88073928D01*
X134547473Y-88255556D01*
X134642960Y-88420944D01*
X134770747Y-88562866D01*
X134925248Y-88675118D01*
X134931276Y-88677802D01*
X134931278Y-88677803D01*
X135093681Y-88750109D01*
X135099712Y-88752794D01*
X135193112Y-88772647D01*
X135280056Y-88791128D01*
X135280061Y-88791128D01*
X135286513Y-88792500D01*
X135477487Y-88792500D01*
X135483939Y-88791128D01*
X135483944Y-88791128D01*
X135570888Y-88772647D01*
X135664288Y-88752794D01*
X135670319Y-88750109D01*
X135832722Y-88677803D01*
X135832724Y-88677802D01*
X135838752Y-88675118D01*
X135993253Y-88562866D01*
X136121040Y-88420944D01*
X136216527Y-88255556D01*
X136275542Y-88073928D01*
X136280107Y-88030500D01*
X136294814Y-87890565D01*
X136295504Y-87884000D01*
X136294814Y-87877435D01*
X136276232Y-87700635D01*
X136276232Y-87700633D01*
X136275542Y-87694072D01*
X136216527Y-87512444D01*
X136144421Y-87387552D01*
X136127683Y-87318559D01*
X136150903Y-87251467D01*
X136164445Y-87235459D01*
X138457060Y-84942845D01*
X138519372Y-84908819D01*
X138590188Y-84913884D01*
X138597377Y-84916822D01*
X138655712Y-84942794D01*
X138697340Y-84951642D01*
X138836056Y-84981128D01*
X138836061Y-84981128D01*
X138842513Y-84982500D01*
X139033487Y-84982500D01*
X139039939Y-84981128D01*
X139039944Y-84981128D01*
X139090462Y-84970389D01*
X139107867Y-84966690D01*
X139178657Y-84972092D01*
X139235289Y-85014909D01*
X139259783Y-85081546D01*
X139244362Y-85150848D01*
X139228576Y-85173263D01*
X139226669Y-85175426D01*
X139223865Y-85178230D01*
X139221385Y-85181427D01*
X139213682Y-85190447D01*
X139183414Y-85222679D01*
X139179595Y-85229625D01*
X139179593Y-85229628D01*
X139173652Y-85240434D01*
X139162801Y-85256953D01*
X139150386Y-85272959D01*
X139147241Y-85280228D01*
X139147238Y-85280232D01*
X139132826Y-85313537D01*
X139127609Y-85324187D01*
X139106305Y-85362940D01*
X139104334Y-85370615D01*
X139104334Y-85370616D01*
X139101267Y-85382562D01*
X139094863Y-85401267D01*
X139087165Y-85419056D01*
X139065167Y-85453322D01*
X138960960Y-85569056D01*
X138911187Y-85655266D01*
X138871856Y-85723389D01*
X138865473Y-85734444D01*
X138806458Y-85916072D01*
X138786496Y-86106000D01*
X138806458Y-86295928D01*
X138865473Y-86477556D01*
X138868776Y-86483278D01*
X138868777Y-86483279D01*
X138902686Y-86542010D01*
X138960960Y-86642944D01*
X138965378Y-86647851D01*
X138965379Y-86647852D01*
X139046952Y-86738448D01*
X139088747Y-86784866D01*
X139243248Y-86897118D01*
X139249276Y-86899802D01*
X139249278Y-86899803D01*
X139411681Y-86972109D01*
X139417712Y-86974794D01*
X139505194Y-86993389D01*
X139598056Y-87013128D01*
X139598061Y-87013128D01*
X139604513Y-87014500D01*
X139795487Y-87014500D01*
X139801939Y-87013128D01*
X139801944Y-87013128D01*
X139894806Y-86993389D01*
X139982288Y-86974794D01*
X139988319Y-86972109D01*
X140150722Y-86899803D01*
X140150724Y-86899802D01*
X140156752Y-86897118D01*
X140311253Y-86784866D01*
X140353048Y-86738448D01*
X140434621Y-86647852D01*
X140434622Y-86647851D01*
X140439040Y-86642944D01*
X140497314Y-86542010D01*
X140531223Y-86483279D01*
X140531224Y-86483278D01*
X140534527Y-86477556D01*
X140593542Y-86295928D01*
X140613504Y-86106000D01*
X140593542Y-85916072D01*
X140553301Y-85792224D01*
X140539978Y-85751219D01*
X140537950Y-85680251D01*
X140570716Y-85623188D01*
X141174499Y-85019405D01*
X141236811Y-84985379D01*
X141263594Y-84982500D01*
X141319487Y-84982500D01*
X141325939Y-84981128D01*
X141325944Y-84981128D01*
X141412888Y-84962647D01*
X141506288Y-84942794D01*
X141512315Y-84940111D01*
X141512323Y-84940108D01*
X141595316Y-84903157D01*
X141665683Y-84893723D01*
X141729980Y-84923830D01*
X141767793Y-84983919D01*
X141771571Y-85034055D01*
X141767763Y-85064200D01*
X141765526Y-85076753D01*
X141764420Y-85081546D01*
X141755776Y-85118985D01*
X141755751Y-85126031D01*
X141755751Y-85126034D01*
X141755634Y-85159556D01*
X141755605Y-85160438D01*
X141755500Y-85161269D01*
X141755500Y-85197919D01*
X141755499Y-85198359D01*
X141755239Y-85272959D01*
X141755143Y-85300370D01*
X141755411Y-85301570D01*
X141755500Y-85303207D01*
X141755500Y-89905418D01*
X141735498Y-89973539D01*
X141718595Y-89994513D01*
X141525447Y-90187661D01*
X141463135Y-90221687D01*
X141392320Y-90216622D01*
X141385103Y-90213673D01*
X141328319Y-90188391D01*
X141328318Y-90188391D01*
X141322288Y-90185706D01*
X141228888Y-90165853D01*
X141141944Y-90147372D01*
X141141939Y-90147372D01*
X141135487Y-90146000D01*
X140944513Y-90146000D01*
X140938061Y-90147372D01*
X140938056Y-90147372D01*
X140851113Y-90165853D01*
X140757712Y-90185706D01*
X140751682Y-90188391D01*
X140751681Y-90188391D01*
X140589278Y-90260697D01*
X140589276Y-90260698D01*
X140583248Y-90263382D01*
X140428747Y-90375634D01*
X140300960Y-90517556D01*
X140297659Y-90523274D01*
X140218614Y-90660184D01*
X140205473Y-90682944D01*
X140146458Y-90864572D01*
X140126496Y-91054500D01*
X140146458Y-91244428D01*
X140205473Y-91426056D01*
X140300960Y-91591444D01*
X140305378Y-91596351D01*
X140305379Y-91596352D01*
X140365861Y-91663524D01*
X140428747Y-91733366D01*
X140523904Y-91802502D01*
X140557773Y-91827109D01*
X140583248Y-91845618D01*
X140589276Y-91848302D01*
X140589278Y-91848303D01*
X140751681Y-91920609D01*
X140757712Y-91923294D01*
X140851113Y-91943147D01*
X140938056Y-91961628D01*
X140938061Y-91961628D01*
X140944513Y-91963000D01*
X141135487Y-91963000D01*
X141141939Y-91961628D01*
X141141944Y-91961628D01*
X141228887Y-91943147D01*
X141322288Y-91923294D01*
X141433245Y-91873893D01*
X141484494Y-91863000D01*
X141792786Y-91863000D01*
X141794106Y-91863007D01*
X141884221Y-91863951D01*
X141926597Y-91854789D01*
X141939163Y-91852731D01*
X141982255Y-91847897D01*
X141988906Y-91845581D01*
X141988910Y-91845580D01*
X142013930Y-91836867D01*
X142028742Y-91832704D01*
X142054619Y-91827109D01*
X142061510Y-91825619D01*
X142100813Y-91807292D01*
X142112589Y-91802510D01*
X142153552Y-91788245D01*
X142159527Y-91784511D01*
X142159530Y-91784510D01*
X142181995Y-91770473D01*
X142195512Y-91763134D01*
X142219514Y-91751941D01*
X142219515Y-91751940D01*
X142225902Y-91748962D01*
X142260153Y-91722394D01*
X142270612Y-91715098D01*
X142301404Y-91695858D01*
X142301407Y-91695856D01*
X142307376Y-91692126D01*
X142336179Y-91663524D01*
X142336804Y-91662939D01*
X142337470Y-91662422D01*
X142363460Y-91636432D01*
X142436082Y-91564315D01*
X142436740Y-91563278D01*
X142437843Y-91562049D01*
X143129158Y-90870734D01*
X143130095Y-90869806D01*
X143189475Y-90811657D01*
X143189476Y-90811656D01*
X143194507Y-90806729D01*
X143217998Y-90770279D01*
X143225417Y-90759954D01*
X143252476Y-90726057D01*
X143267073Y-90695862D01*
X143274602Y-90682445D01*
X143288948Y-90660184D01*
X143292765Y-90654262D01*
X143295173Y-90647645D01*
X143295176Y-90647640D01*
X143307592Y-90613527D01*
X143312553Y-90601784D01*
X143328353Y-90569100D01*
X143328356Y-90569091D01*
X143331421Y-90562751D01*
X143338966Y-90530072D01*
X143343334Y-90515325D01*
X143354803Y-90483815D01*
X143355685Y-90476830D01*
X143355687Y-90476823D01*
X143360237Y-90440808D01*
X143362472Y-90428257D01*
X143370640Y-90392878D01*
X143372225Y-90386015D01*
X143372262Y-90375634D01*
X143372367Y-90345426D01*
X143372396Y-90344557D01*
X143372500Y-90343731D01*
X143372500Y-90307214D01*
X143372503Y-90306461D01*
X143372846Y-90208164D01*
X143372846Y-90208158D01*
X143372858Y-90204630D01*
X143372589Y-90203427D01*
X143372500Y-90201783D01*
X143372500Y-85599582D01*
X143392502Y-85531461D01*
X143409405Y-85510487D01*
X145147987Y-83771905D01*
X145210299Y-83737879D01*
X145237082Y-83735000D01*
X159391506Y-83735000D01*
X159442755Y-83745893D01*
X159553712Y-83795294D01*
X159647113Y-83815147D01*
X159734056Y-83833628D01*
X159734061Y-83833628D01*
X159740513Y-83835000D01*
X159931487Y-83835000D01*
X159937939Y-83833628D01*
X159937944Y-83833628D01*
X160024888Y-83815147D01*
X160118288Y-83795294D01*
X160170821Y-83771905D01*
X160286722Y-83720303D01*
X160286724Y-83720302D01*
X160292752Y-83717618D01*
X160447253Y-83605366D01*
X160479585Y-83569458D01*
X160570621Y-83468352D01*
X160570622Y-83468351D01*
X160575040Y-83463444D01*
X160658686Y-83318565D01*
X160667223Y-83303779D01*
X160667224Y-83303778D01*
X160670527Y-83298056D01*
X160729542Y-83116428D01*
X160749504Y-82926500D01*
X160736568Y-82803422D01*
X160730232Y-82743135D01*
X160730232Y-82743133D01*
X160729542Y-82736572D01*
X160670527Y-82554944D01*
X160575040Y-82389556D01*
X160447253Y-82247634D01*
X160292752Y-82135382D01*
X160286724Y-82132698D01*
X160286722Y-82132697D01*
X160124319Y-82060391D01*
X160124318Y-82060391D01*
X160118288Y-82057706D01*
X160024887Y-82037853D01*
X159937944Y-82019372D01*
X159937939Y-82019372D01*
X159931487Y-82018000D01*
X159740513Y-82018000D01*
X159734061Y-82019372D01*
X159734056Y-82019372D01*
X159647113Y-82037853D01*
X159553712Y-82057706D01*
X159547682Y-82060391D01*
X159547681Y-82060391D01*
X159442755Y-82107107D01*
X159391506Y-82118000D01*
X148120696Y-82118000D01*
X148052575Y-82097998D01*
X148006082Y-82044342D01*
X147995978Y-81974068D01*
X148020998Y-81917046D01*
X148020507Y-81916729D01*
X148043998Y-81880279D01*
X148051417Y-81869954D01*
X148078476Y-81836057D01*
X148081540Y-81829718D01*
X148081543Y-81829714D01*
X148093074Y-81805862D01*
X148100601Y-81792449D01*
X148114947Y-81770187D01*
X148114948Y-81770184D01*
X148118765Y-81764262D01*
X148121176Y-81757639D01*
X148133592Y-81723527D01*
X148138553Y-81711783D01*
X148154352Y-81679101D01*
X148154353Y-81679099D01*
X148157421Y-81672752D01*
X148164966Y-81640073D01*
X148169334Y-81625325D01*
X148180803Y-81593815D01*
X148181685Y-81586829D01*
X148181687Y-81586823D01*
X148186238Y-81550799D01*
X148188474Y-81538247D01*
X148196638Y-81502886D01*
X148196638Y-81502883D01*
X148198224Y-81496015D01*
X148198366Y-81455444D01*
X148198395Y-81454562D01*
X148198500Y-81453731D01*
X148198500Y-81416928D01*
X148198754Y-81344017D01*
X148215636Y-81281455D01*
X148221223Y-81271779D01*
X148221224Y-81271778D01*
X148224527Y-81266056D01*
X148283542Y-81084428D01*
X148303504Y-80894500D01*
X148283542Y-80704572D01*
X148224527Y-80522944D01*
X148129040Y-80357556D01*
X148001253Y-80215634D01*
X147846752Y-80103382D01*
X147840724Y-80100698D01*
X147840722Y-80100697D01*
X147678319Y-80028391D01*
X147678318Y-80028391D01*
X147672288Y-80025706D01*
X147578887Y-80005853D01*
X147491944Y-79987372D01*
X147491939Y-79987372D01*
X147485487Y-79986000D01*
X147294513Y-79986000D01*
X147288061Y-79987372D01*
X147288056Y-79987372D01*
X147201113Y-80005853D01*
X147107712Y-80025706D01*
X147101682Y-80028391D01*
X147101681Y-80028391D01*
X146939278Y-80100697D01*
X146939276Y-80100698D01*
X146933248Y-80103382D01*
X146778747Y-80215634D01*
X146650960Y-80357556D01*
X146555473Y-80522944D01*
X146496458Y-80704572D01*
X146476496Y-80894500D01*
X146477186Y-80901064D01*
X146483678Y-80962829D01*
X146470906Y-81032667D01*
X146422404Y-81084514D01*
X146358368Y-81102000D01*
X145875214Y-81102000D01*
X145873894Y-81101993D01*
X145872819Y-81101982D01*
X145783779Y-81101049D01*
X145741403Y-81110211D01*
X145728837Y-81112269D01*
X145685745Y-81117103D01*
X145679094Y-81119419D01*
X145679090Y-81119420D01*
X145654070Y-81128133D01*
X145639257Y-81132296D01*
X145606490Y-81139381D01*
X145567187Y-81157708D01*
X145555411Y-81162490D01*
X145514448Y-81176755D01*
X145508473Y-81180489D01*
X145508470Y-81180490D01*
X145486005Y-81194527D01*
X145472488Y-81201866D01*
X145448486Y-81213059D01*
X145442098Y-81216038D01*
X145436533Y-81220355D01*
X145436531Y-81220356D01*
X145407847Y-81242606D01*
X145397388Y-81249902D01*
X145366596Y-81269142D01*
X145366593Y-81269144D01*
X145360624Y-81272874D01*
X145355629Y-81277834D01*
X145355628Y-81277835D01*
X145331821Y-81301476D01*
X145331196Y-81302061D01*
X145330530Y-81302578D01*
X145304540Y-81328568D01*
X145231918Y-81400685D01*
X145231260Y-81401722D01*
X145230157Y-81402951D01*
X144288540Y-82344568D01*
X144227814Y-82404872D01*
X144215918Y-82416685D01*
X144215259Y-82417723D01*
X144214153Y-82418956D01*
X142339585Y-84293523D01*
X142277273Y-84327549D01*
X142206457Y-84322484D01*
X142149622Y-84279937D01*
X142124811Y-84213417D01*
X142125180Y-84191258D01*
X142136814Y-84080565D01*
X142137504Y-84074000D01*
X142117542Y-83884072D01*
X142058527Y-83702444D01*
X141963040Y-83537056D01*
X141946882Y-83519110D01*
X141839675Y-83400045D01*
X141839674Y-83400044D01*
X141835253Y-83395134D01*
X141720829Y-83312000D01*
X141686094Y-83286763D01*
X141686093Y-83286762D01*
X141680752Y-83282882D01*
X141674724Y-83280198D01*
X141674722Y-83280197D01*
X141512319Y-83207891D01*
X141512318Y-83207891D01*
X141506288Y-83205206D01*
X141412888Y-83185353D01*
X141325944Y-83166872D01*
X141325939Y-83166872D01*
X141319487Y-83165500D01*
X141128513Y-83165500D01*
X141122061Y-83166872D01*
X141122056Y-83166872D01*
X141035112Y-83185353D01*
X140941712Y-83205206D01*
X140935682Y-83207891D01*
X140935681Y-83207891D01*
X140773278Y-83280197D01*
X140773276Y-83280198D01*
X140767248Y-83282882D01*
X140761907Y-83286762D01*
X140761906Y-83286763D01*
X140727171Y-83312000D01*
X140612747Y-83395134D01*
X140608326Y-83400044D01*
X140608325Y-83400045D01*
X140501119Y-83519110D01*
X140484960Y-83537056D01*
X140389473Y-83702444D01*
X140330458Y-83884072D01*
X140329768Y-83890633D01*
X140329768Y-83890635D01*
X140313093Y-84049292D01*
X140286080Y-84114949D01*
X140276878Y-84125217D01*
X140047127Y-84354968D01*
X139984815Y-84388994D01*
X139914000Y-84383929D01*
X139857164Y-84341382D01*
X139832353Y-84274862D01*
X139832722Y-84252703D01*
X139850814Y-84080565D01*
X139851504Y-84074000D01*
X139831542Y-83884072D01*
X139772527Y-83702444D01*
X139677040Y-83537056D01*
X139660882Y-83519110D01*
X139553675Y-83400045D01*
X139553674Y-83400044D01*
X139549253Y-83395134D01*
X139434829Y-83312000D01*
X139400094Y-83286763D01*
X139400093Y-83286762D01*
X139394752Y-83282882D01*
X139388724Y-83280198D01*
X139388722Y-83280197D01*
X139226319Y-83207891D01*
X139226318Y-83207891D01*
X139220288Y-83205206D01*
X139126888Y-83185353D01*
X139039944Y-83166872D01*
X139039939Y-83166872D01*
X139033487Y-83165500D01*
X138842513Y-83165500D01*
X138836061Y-83166872D01*
X138836056Y-83166872D01*
X138749112Y-83185353D01*
X138655712Y-83205206D01*
X138649682Y-83207891D01*
X138649681Y-83207891D01*
X138487278Y-83280197D01*
X138487276Y-83280198D01*
X138481248Y-83282882D01*
X138475907Y-83286762D01*
X138475906Y-83286763D01*
X138432135Y-83318565D01*
X138326747Y-83395134D01*
X138322329Y-83400040D01*
X138322322Y-83400047D01*
X138292791Y-83432845D01*
X138245538Y-83465687D01*
X138230093Y-83471802D01*
X138218865Y-83475646D01*
X138176407Y-83487982D01*
X138169581Y-83492019D01*
X138158972Y-83498293D01*
X138141224Y-83506988D01*
X138122383Y-83514448D01*
X138115967Y-83519110D01*
X138115966Y-83519110D01*
X138086613Y-83540436D01*
X138076693Y-83546952D01*
X138045465Y-83565420D01*
X138045462Y-83565422D01*
X138038638Y-83569458D01*
X138024317Y-83583779D01*
X138009285Y-83596619D01*
X138000378Y-83603090D01*
X137933510Y-83626948D01*
X137864359Y-83610866D01*
X137814879Y-83559952D01*
X137801008Y-83487983D01*
X137818814Y-83318565D01*
X137819504Y-83312000D01*
X137808280Y-83205206D01*
X137800232Y-83128635D01*
X137800232Y-83128633D01*
X137799542Y-83122072D01*
X137740527Y-82940444D01*
X137732477Y-82926500D01*
X137703314Y-82875990D01*
X137645040Y-82775056D01*
X137628882Y-82757110D01*
X137521675Y-82638045D01*
X137521674Y-82638044D01*
X137517253Y-82633134D01*
X137362752Y-82520882D01*
X137356724Y-82518198D01*
X137356722Y-82518197D01*
X137194319Y-82445891D01*
X137194318Y-82445891D01*
X137188288Y-82443206D01*
X137094888Y-82423353D01*
X137007944Y-82404872D01*
X137007939Y-82404872D01*
X137001487Y-82403500D01*
X136810513Y-82403500D01*
X136804061Y-82404872D01*
X136804056Y-82404872D01*
X136717112Y-82423353D01*
X136623712Y-82443206D01*
X136617682Y-82445891D01*
X136617681Y-82445891D01*
X136455278Y-82518197D01*
X136455276Y-82518198D01*
X136449248Y-82520882D01*
X136294747Y-82633134D01*
X136290329Y-82638040D01*
X136290322Y-82638047D01*
X136260790Y-82670846D01*
X136213544Y-82703685D01*
X136198086Y-82709806D01*
X136186885Y-82713641D01*
X136144406Y-82725982D01*
X136137587Y-82730015D01*
X136137582Y-82730017D01*
X136126971Y-82736293D01*
X136109221Y-82744990D01*
X136090383Y-82752448D01*
X136083967Y-82757109D01*
X136083966Y-82757110D01*
X136054625Y-82778428D01*
X136044701Y-82784947D01*
X136013460Y-82803422D01*
X136013455Y-82803426D01*
X136006637Y-82807458D01*
X135992313Y-82821782D01*
X135977281Y-82834621D01*
X135960893Y-82846528D01*
X135932712Y-82880593D01*
X135924722Y-82889373D01*
X133465747Y-85348348D01*
X133457461Y-85355888D01*
X133450982Y-85360000D01*
X133445557Y-85365777D01*
X133404357Y-85409651D01*
X133401602Y-85412493D01*
X133381865Y-85432230D01*
X133379385Y-85435427D01*
X133371682Y-85444447D01*
X133341414Y-85476679D01*
X133337595Y-85483625D01*
X133337593Y-85483628D01*
X133331652Y-85494434D01*
X133320801Y-85510953D01*
X133308386Y-85526959D01*
X133305241Y-85534228D01*
X133305238Y-85534232D01*
X133290826Y-85567537D01*
X133285609Y-85578187D01*
X133264305Y-85616940D01*
X133262334Y-85624615D01*
X133262334Y-85624616D01*
X133259267Y-85636562D01*
X133252863Y-85655266D01*
X133244819Y-85673855D01*
X133243580Y-85681678D01*
X133243577Y-85681688D01*
X133237901Y-85717524D01*
X133235495Y-85729144D01*
X133232521Y-85740729D01*
X133224500Y-85771970D01*
X133224500Y-85792224D01*
X133222949Y-85811934D01*
X133219780Y-85831943D01*
X133220526Y-85839835D01*
X133223941Y-85875961D01*
X133224500Y-85887819D01*
X133224500Y-86419476D01*
X133204498Y-86487597D01*
X133192142Y-86503779D01*
X133118960Y-86585056D01*
X133023473Y-86750444D01*
X132964458Y-86932072D01*
X132963768Y-86938633D01*
X132963768Y-86938635D01*
X132945186Y-87115435D01*
X132944496Y-87122000D01*
X116332500Y-87122000D01*
X116332500Y-76072500D01*
X116352502Y-76004379D01*
X116406158Y-75957886D01*
X116458500Y-75946500D01*
X182189500Y-75946500D01*
X182257621Y-75966502D01*
G37*
%TD.AperFunction*%
%TD*%
%TA.AperFunction,Conductor*%
%TO.N,/GUARD_LOOP*%
G36*
X180828488Y-104140321D02*
G01*
X180906490Y-104145900D01*
X180973008Y-104170709D01*
X181015555Y-104227545D01*
X181023500Y-104271578D01*
X181023500Y-132511500D01*
X181003498Y-132579621D01*
X180949842Y-132626114D01*
X180897500Y-132637500D01*
X117750500Y-132637500D01*
X117682379Y-132617498D01*
X117635886Y-132563842D01*
X117624500Y-132511500D01*
X117624500Y-104525578D01*
X117644502Y-104457457D01*
X117698158Y-104410964D01*
X117741509Y-104399900D01*
X117819512Y-104394321D01*
X117828500Y-104394000D01*
X132615499Y-104394000D01*
X132624487Y-104394321D01*
X132673871Y-104397853D01*
X132895650Y-104413715D01*
X132913433Y-104416272D01*
X133174658Y-104473098D01*
X133191900Y-104478160D01*
X133442393Y-104571589D01*
X133458740Y-104579055D01*
X133693375Y-104707176D01*
X133708498Y-104716895D01*
X133922510Y-104877103D01*
X133936096Y-104888876D01*
X134125124Y-105077904D01*
X134136897Y-105091490D01*
X134297105Y-105305502D01*
X134306824Y-105320625D01*
X134434945Y-105555260D01*
X134442411Y-105571607D01*
X134535839Y-105822097D01*
X134540902Y-105839342D01*
X134597728Y-106100567D01*
X134600285Y-106118350D01*
X134614173Y-106312528D01*
X134619679Y-106389513D01*
X134620000Y-106398501D01*
X134620000Y-108753402D01*
X134599998Y-108821523D01*
X134546342Y-108868016D01*
X134476068Y-108878120D01*
X134411488Y-108848626D01*
X134381883Y-108810899D01*
X134233036Y-108520652D01*
X134231757Y-108518158D01*
X134058048Y-108242846D01*
X133999136Y-108149476D01*
X133999130Y-108149467D01*
X133997647Y-108147117D01*
X133995956Y-108144902D01*
X133995951Y-108144894D01*
X133733183Y-107800585D01*
X133733182Y-107800583D01*
X133731481Y-107798355D01*
X133435365Y-107474635D01*
X133111645Y-107178519D01*
X133109415Y-107176817D01*
X132765106Y-106914049D01*
X132765098Y-106914044D01*
X132762883Y-106912353D01*
X132760533Y-106910870D01*
X132760524Y-106910864D01*
X132394213Y-106679739D01*
X132391842Y-106678243D01*
X132001458Y-106478043D01*
X131971515Y-106465915D01*
X131597409Y-106314386D01*
X131597400Y-106314383D01*
X131594823Y-106313339D01*
X131384990Y-106249387D01*
X131177819Y-106186246D01*
X131177813Y-106186244D01*
X131175157Y-106185435D01*
X130960469Y-106140388D01*
X130748510Y-106095914D01*
X130748501Y-106095913D01*
X130745782Y-106095342D01*
X130310098Y-106043776D01*
X130307549Y-106043683D01*
X130307542Y-106043682D01*
X130221957Y-106040544D01*
X130084402Y-106035500D01*
X123563598Y-106035500D01*
X123426043Y-106040544D01*
X123340458Y-106043682D01*
X123340451Y-106043683D01*
X123337902Y-106043776D01*
X122902218Y-106095342D01*
X122899499Y-106095913D01*
X122899490Y-106095914D01*
X122687531Y-106140388D01*
X122472843Y-106185435D01*
X122470187Y-106186244D01*
X122470181Y-106186246D01*
X122263010Y-106249387D01*
X122053177Y-106313339D01*
X122050600Y-106314383D01*
X122050591Y-106314386D01*
X121676485Y-106465915D01*
X121646542Y-106478043D01*
X121256158Y-106678243D01*
X121253787Y-106679739D01*
X120887476Y-106910864D01*
X120887467Y-106910870D01*
X120885117Y-106912353D01*
X120882902Y-106914044D01*
X120882894Y-106914049D01*
X120538585Y-107176817D01*
X120536355Y-107178519D01*
X120212635Y-107474635D01*
X119916519Y-107798355D01*
X119914818Y-107800583D01*
X119914817Y-107800585D01*
X119652049Y-108144894D01*
X119652044Y-108144902D01*
X119650353Y-108147117D01*
X119648870Y-108149467D01*
X119648864Y-108149476D01*
X119589952Y-108242846D01*
X119416243Y-108518158D01*
X119216043Y-108908542D01*
X119051339Y-109315177D01*
X118923435Y-109734843D01*
X118833342Y-110164218D01*
X118781776Y-110599902D01*
X118773500Y-110825598D01*
X118773500Y-117346402D01*
X118781776Y-117572098D01*
X118833342Y-118007782D01*
X118923435Y-118437157D01*
X119051339Y-118856823D01*
X119216043Y-119263458D01*
X119416243Y-119653842D01*
X119417739Y-119656213D01*
X119648864Y-120022524D01*
X119648870Y-120022533D01*
X119650353Y-120024883D01*
X119652044Y-120027098D01*
X119652049Y-120027106D01*
X119914817Y-120371415D01*
X119916519Y-120373645D01*
X120212635Y-120697365D01*
X120536355Y-120993481D01*
X120538583Y-120995182D01*
X120538585Y-120995183D01*
X120882894Y-121257951D01*
X120882902Y-121257956D01*
X120885117Y-121259647D01*
X120887467Y-121261130D01*
X120887476Y-121261136D01*
X121249525Y-121489572D01*
X121256158Y-121493757D01*
X121646542Y-121693957D01*
X121649128Y-121695004D01*
X121649127Y-121695004D01*
X122050591Y-121857614D01*
X122050600Y-121857617D01*
X122053177Y-121858661D01*
X122263010Y-121922613D01*
X122470181Y-121985754D01*
X122470187Y-121985756D01*
X122472843Y-121986565D01*
X122687530Y-122031611D01*
X122899490Y-122076086D01*
X122899499Y-122076087D01*
X122902218Y-122076658D01*
X123337902Y-122128224D01*
X123340451Y-122128317D01*
X123340458Y-122128318D01*
X123426043Y-122131456D01*
X123563598Y-122136500D01*
X130084402Y-122136500D01*
X130221957Y-122131456D01*
X130307542Y-122128318D01*
X130307549Y-122128317D01*
X130310098Y-122128224D01*
X130745782Y-122076658D01*
X130748501Y-122076087D01*
X130748510Y-122076086D01*
X130960470Y-122031611D01*
X131175157Y-121986565D01*
X131177813Y-121985756D01*
X131177819Y-121985754D01*
X131384990Y-121922613D01*
X131594823Y-121858661D01*
X131597400Y-121857617D01*
X131597409Y-121857614D01*
X131998873Y-121695004D01*
X131998872Y-121695004D01*
X132001458Y-121693957D01*
X132391842Y-121493757D01*
X132398475Y-121489572D01*
X132760524Y-121261136D01*
X132760533Y-121261130D01*
X132762883Y-121259647D01*
X132765098Y-121257956D01*
X132765106Y-121257951D01*
X133071058Y-121024456D01*
X133137345Y-120999029D01*
X133206856Y-121013476D01*
X133257522Y-121063210D01*
X133273500Y-121124619D01*
X133273500Y-125346402D01*
X133281776Y-125572098D01*
X133333342Y-126007782D01*
X133423435Y-126437157D01*
X133424244Y-126439813D01*
X133424246Y-126439819D01*
X133444527Y-126506362D01*
X133551339Y-126856823D01*
X133716043Y-127263458D01*
X133916243Y-127653842D01*
X133917739Y-127656213D01*
X134148864Y-128022524D01*
X134148870Y-128022533D01*
X134150353Y-128024883D01*
X134152044Y-128027098D01*
X134152049Y-128027106D01*
X134414817Y-128371415D01*
X134416519Y-128373645D01*
X134712635Y-128697365D01*
X135036355Y-128993481D01*
X135038583Y-128995182D01*
X135038585Y-128995183D01*
X135382894Y-129257951D01*
X135382902Y-129257956D01*
X135385117Y-129259647D01*
X135387467Y-129261130D01*
X135387476Y-129261136D01*
X135749525Y-129489572D01*
X135756158Y-129493757D01*
X136146542Y-129693957D01*
X136149128Y-129695004D01*
X136149127Y-129695004D01*
X136550591Y-129857614D01*
X136550600Y-129857617D01*
X136553177Y-129858661D01*
X136763010Y-129922613D01*
X136970181Y-129985754D01*
X136970187Y-129985756D01*
X136972843Y-129986565D01*
X137187530Y-130031611D01*
X137399490Y-130076086D01*
X137399499Y-130076087D01*
X137402218Y-130076658D01*
X137837902Y-130128224D01*
X137840451Y-130128317D01*
X137840458Y-130128318D01*
X137926043Y-130131456D01*
X138063598Y-130136500D01*
X144584402Y-130136500D01*
X144721957Y-130131456D01*
X144807542Y-130128318D01*
X144807549Y-130128317D01*
X144810098Y-130128224D01*
X145245782Y-130076658D01*
X145248501Y-130076087D01*
X145248510Y-130076086D01*
X145460470Y-130031611D01*
X145675157Y-129986565D01*
X145677813Y-129985756D01*
X145677819Y-129985754D01*
X145884990Y-129922613D01*
X146094823Y-129858661D01*
X146097400Y-129857617D01*
X146097409Y-129857614D01*
X146498873Y-129695004D01*
X146498872Y-129695004D01*
X146501458Y-129693957D01*
X146891842Y-129493757D01*
X146898475Y-129489572D01*
X147260524Y-129261136D01*
X147260533Y-129261130D01*
X147262883Y-129259647D01*
X147265098Y-129257956D01*
X147265106Y-129257951D01*
X147609415Y-128995183D01*
X147609417Y-128995182D01*
X147611645Y-128993481D01*
X147935365Y-128697365D01*
X148231481Y-128373645D01*
X148233183Y-128371415D01*
X148495951Y-128027106D01*
X148495956Y-128027098D01*
X148497647Y-128024883D01*
X148499130Y-128022533D01*
X148499136Y-128022524D01*
X148730261Y-127656213D01*
X148731757Y-127653842D01*
X148931957Y-127263458D01*
X149096661Y-126856823D01*
X149203473Y-126506362D01*
X149242466Y-126447032D01*
X149307345Y-126418202D01*
X149377512Y-126429024D01*
X149430689Y-126476063D01*
X149444527Y-126506362D01*
X149551339Y-126856823D01*
X149716043Y-127263458D01*
X149916243Y-127653842D01*
X149917739Y-127656213D01*
X150148864Y-128022524D01*
X150148870Y-128022533D01*
X150150353Y-128024883D01*
X150152044Y-128027098D01*
X150152049Y-128027106D01*
X150414817Y-128371415D01*
X150416519Y-128373645D01*
X150712635Y-128697365D01*
X151036355Y-128993481D01*
X151038583Y-128995182D01*
X151038585Y-128995183D01*
X151382894Y-129257951D01*
X151382902Y-129257956D01*
X151385117Y-129259647D01*
X151387467Y-129261130D01*
X151387476Y-129261136D01*
X151749525Y-129489572D01*
X151756158Y-129493757D01*
X152146542Y-129693957D01*
X152149128Y-129695004D01*
X152149127Y-129695004D01*
X152550591Y-129857614D01*
X152550600Y-129857617D01*
X152553177Y-129858661D01*
X152763010Y-129922613D01*
X152970181Y-129985754D01*
X152970187Y-129985756D01*
X152972843Y-129986565D01*
X153187530Y-130031611D01*
X153399490Y-130076086D01*
X153399499Y-130076087D01*
X153402218Y-130076658D01*
X153837902Y-130128224D01*
X153840451Y-130128317D01*
X153840458Y-130128318D01*
X153926043Y-130131456D01*
X154063598Y-130136500D01*
X160584402Y-130136500D01*
X160721957Y-130131456D01*
X160807542Y-130128318D01*
X160807549Y-130128317D01*
X160810098Y-130128224D01*
X161245782Y-130076658D01*
X161248501Y-130076087D01*
X161248510Y-130076086D01*
X161460470Y-130031611D01*
X161675157Y-129986565D01*
X161677813Y-129985756D01*
X161677819Y-129985754D01*
X161884990Y-129922613D01*
X162094823Y-129858661D01*
X162097400Y-129857617D01*
X162097409Y-129857614D01*
X162498873Y-129695004D01*
X162498872Y-129695004D01*
X162501458Y-129693957D01*
X162891842Y-129493757D01*
X162898475Y-129489572D01*
X163260524Y-129261136D01*
X163260533Y-129261130D01*
X163262883Y-129259647D01*
X163265098Y-129257956D01*
X163265106Y-129257951D01*
X163609415Y-128995183D01*
X163609417Y-128995182D01*
X163611645Y-128993481D01*
X163935365Y-128697365D01*
X164231481Y-128373645D01*
X164233183Y-128371415D01*
X164495951Y-128027106D01*
X164495956Y-128027098D01*
X164497647Y-128024883D01*
X164499130Y-128022533D01*
X164499136Y-128022524D01*
X164730261Y-127656213D01*
X164731757Y-127653842D01*
X164931957Y-127263458D01*
X165096661Y-126856823D01*
X165203473Y-126506362D01*
X165223754Y-126439819D01*
X165223756Y-126439813D01*
X165224565Y-126437157D01*
X165314658Y-126007782D01*
X165366224Y-125572098D01*
X165374500Y-125346402D01*
X165374500Y-121124619D01*
X165394502Y-121056498D01*
X165448158Y-121010005D01*
X165518432Y-120999901D01*
X165576942Y-121024456D01*
X165882894Y-121257951D01*
X165882902Y-121257956D01*
X165885117Y-121259647D01*
X165887467Y-121261130D01*
X165887476Y-121261136D01*
X166249525Y-121489572D01*
X166256158Y-121493757D01*
X166646542Y-121693957D01*
X166649128Y-121695004D01*
X166649127Y-121695004D01*
X167050591Y-121857614D01*
X167050600Y-121857617D01*
X167053177Y-121858661D01*
X167263010Y-121922613D01*
X167470181Y-121985754D01*
X167470187Y-121985756D01*
X167472843Y-121986565D01*
X167687530Y-122031611D01*
X167899490Y-122076086D01*
X167899499Y-122076087D01*
X167902218Y-122076658D01*
X168337902Y-122128224D01*
X168340451Y-122128317D01*
X168340458Y-122128318D01*
X168426043Y-122131456D01*
X168563598Y-122136500D01*
X175084402Y-122136500D01*
X175221957Y-122131456D01*
X175307542Y-122128318D01*
X175307549Y-122128317D01*
X175310098Y-122128224D01*
X175745782Y-122076658D01*
X175748501Y-122076087D01*
X175748510Y-122076086D01*
X175960470Y-122031611D01*
X176175157Y-121986565D01*
X176177813Y-121985756D01*
X176177819Y-121985754D01*
X176384990Y-121922613D01*
X176594823Y-121858661D01*
X176597400Y-121857617D01*
X176597409Y-121857614D01*
X176998873Y-121695004D01*
X176998872Y-121695004D01*
X177001458Y-121693957D01*
X177391842Y-121493757D01*
X177398475Y-121489572D01*
X177760524Y-121261136D01*
X177760533Y-121261130D01*
X177762883Y-121259647D01*
X177765098Y-121257956D01*
X177765106Y-121257951D01*
X178109415Y-120995183D01*
X178109417Y-120995182D01*
X178111645Y-120993481D01*
X178435365Y-120697365D01*
X178731481Y-120373645D01*
X178733183Y-120371415D01*
X178995951Y-120027106D01*
X178995956Y-120027098D01*
X178997647Y-120024883D01*
X178999130Y-120022533D01*
X178999136Y-120022524D01*
X179230261Y-119656213D01*
X179231757Y-119653842D01*
X179431957Y-119263458D01*
X179596661Y-118856823D01*
X179724565Y-118437157D01*
X179814658Y-118007782D01*
X179866224Y-117572098D01*
X179874500Y-117346402D01*
X179874500Y-110825598D01*
X179866224Y-110599902D01*
X179814658Y-110164218D01*
X179724565Y-109734843D01*
X179596661Y-109315177D01*
X179431957Y-108908542D01*
X179231757Y-108518158D01*
X179058048Y-108242846D01*
X178999136Y-108149476D01*
X178999130Y-108149467D01*
X178997647Y-108147117D01*
X178995956Y-108144902D01*
X178995951Y-108144894D01*
X178733183Y-107800585D01*
X178733182Y-107800583D01*
X178731481Y-107798355D01*
X178435365Y-107474635D01*
X178111645Y-107178519D01*
X178109415Y-107176817D01*
X177765106Y-106914049D01*
X177765098Y-106914044D01*
X177762883Y-106912353D01*
X177760533Y-106910870D01*
X177760524Y-106910864D01*
X177394213Y-106679739D01*
X177391842Y-106678243D01*
X177001458Y-106478043D01*
X176971515Y-106465915D01*
X176597409Y-106314386D01*
X176597400Y-106314383D01*
X176594823Y-106313339D01*
X176384990Y-106249387D01*
X176177819Y-106186246D01*
X176177813Y-106186244D01*
X176175157Y-106185435D01*
X175960469Y-106140388D01*
X175748510Y-106095914D01*
X175748501Y-106095913D01*
X175745782Y-106095342D01*
X175310098Y-106043776D01*
X175307549Y-106043683D01*
X175307542Y-106043682D01*
X175221957Y-106040544D01*
X175084402Y-106035500D01*
X168563598Y-106035500D01*
X168426043Y-106040544D01*
X168340458Y-106043682D01*
X168340451Y-106043683D01*
X168337902Y-106043776D01*
X167902218Y-106095342D01*
X167899499Y-106095913D01*
X167899490Y-106095914D01*
X167687531Y-106140388D01*
X167472843Y-106185435D01*
X167470187Y-106186244D01*
X167470181Y-106186246D01*
X167263010Y-106249387D01*
X167053177Y-106313339D01*
X167050600Y-106314383D01*
X167050591Y-106314386D01*
X166676485Y-106465915D01*
X166646542Y-106478043D01*
X166256158Y-106678243D01*
X166253787Y-106679739D01*
X165887476Y-106910864D01*
X165887467Y-106910870D01*
X165885117Y-106912353D01*
X165882902Y-106914044D01*
X165882894Y-106914049D01*
X165538585Y-107176817D01*
X165536355Y-107178519D01*
X165212635Y-107474635D01*
X164916519Y-107798355D01*
X164914818Y-107800583D01*
X164914817Y-107800585D01*
X164652049Y-108144894D01*
X164652044Y-108144902D01*
X164650353Y-108147117D01*
X164648871Y-108149466D01*
X164648857Y-108149486D01*
X164570562Y-108273577D01*
X164517295Y-108320516D01*
X164447108Y-108331205D01*
X164382284Y-108302250D01*
X164343404Y-108242846D01*
X164338000Y-108206342D01*
X164338000Y-106144501D01*
X164338321Y-106135513D01*
X164357714Y-105864355D01*
X164360272Y-105846567D01*
X164417098Y-105585342D01*
X164422161Y-105568097D01*
X164426949Y-105555260D01*
X164515589Y-105317607D01*
X164523055Y-105301260D01*
X164651176Y-105066625D01*
X164660895Y-105051502D01*
X164821103Y-104837490D01*
X164832876Y-104823904D01*
X165021904Y-104634876D01*
X165035490Y-104623103D01*
X165249502Y-104462895D01*
X165264625Y-104453176D01*
X165499260Y-104325055D01*
X165515607Y-104317589D01*
X165766100Y-104224160D01*
X165783342Y-104219098D01*
X166044567Y-104162272D01*
X166062350Y-104159715D01*
X166284129Y-104143853D01*
X166333513Y-104140321D01*
X166342501Y-104140000D01*
X180819500Y-104140000D01*
X180828488Y-104140321D01*
G37*
%TD.AperFunction*%
%TD*%
M02*
