%TF.GenerationSoftware,KiCad,Pcbnew,6.0.10-86aedd382b~118~ubuntu20.04.1*%
%TF.CreationDate,2023-01-03T11:24:15-05:00*%
%TF.ProjectId,touch_panel,746f7563-685f-4706-916e-656c2e6b6963,rev?*%
%TF.SameCoordinates,Original*%
%TF.FileFunction,Soldermask,Top*%
%TF.FilePolarity,Negative*%
%FSLAX46Y46*%
G04 Gerber Fmt 4.6, Leading zero omitted, Abs format (unit mm)*
G04 Created by KiCad (PCBNEW 6.0.10-86aedd382b~118~ubuntu20.04.1) date 2023-01-03 11:24:15*
%MOMM*%
%LPD*%
G01*
G04 APERTURE LIST*
G04 Aperture macros list*
%AMRoundRect*
0 Rectangle with rounded corners*
0 $1 Rounding radius*
0 $2 $3 $4 $5 $6 $7 $8 $9 X,Y pos of 4 corners*
0 Add a 4 corners polygon primitive as box body*
4,1,4,$2,$3,$4,$5,$6,$7,$8,$9,$2,$3,0*
0 Add four circle primitives for the rounded corners*
1,1,$1+$1,$2,$3*
1,1,$1+$1,$4,$5*
1,1,$1+$1,$6,$7*
1,1,$1+$1,$8,$9*
0 Add four rect primitives between the rounded corners*
20,1,$1+$1,$2,$3,$4,$5,0*
20,1,$1+$1,$4,$5,$6,$7,0*
20,1,$1+$1,$6,$7,$8,$9,0*
20,1,$1+$1,$8,$9,$2,$3,0*%
G04 Aperture macros list end*
%ADD10RoundRect,0.237500X-0.237500X0.250000X-0.237500X-0.250000X0.237500X-0.250000X0.237500X0.250000X0*%
%ADD11RoundRect,0.150000X-0.150000X0.825000X-0.150000X-0.825000X0.150000X-0.825000X0.150000X0.825000X0*%
%ADD12RoundRect,0.237500X0.237500X-0.250000X0.237500X0.250000X-0.237500X0.250000X-0.237500X-0.250000X0*%
%ADD13RoundRect,0.237500X0.250000X0.237500X-0.250000X0.237500X-0.250000X-0.237500X0.250000X-0.237500X0*%
%ADD14RoundRect,0.237500X-0.237500X0.300000X-0.237500X-0.300000X0.237500X-0.300000X0.237500X0.300000X0*%
%ADD15RoundRect,0.250000X-0.250000X-1.500000X0.250000X-1.500000X0.250000X1.500000X-0.250000X1.500000X0*%
%ADD16RoundRect,0.250001X-0.499999X-1.449999X0.499999X-1.449999X0.499999X1.449999X-0.499999X1.449999X0*%
%ADD17C,0.500000*%
G04 APERTURE END LIST*
D10*
%TO.C,R5*%
X150244000Y-93822000D03*
X150244000Y-95647000D03*
%TD*%
D11*
%TO.C,U3*%
X159258000Y-84966000D03*
X157988000Y-84966000D03*
X156718000Y-84966000D03*
X155448000Y-84966000D03*
X154178000Y-84966000D03*
X152908000Y-84966000D03*
X151638000Y-84966000D03*
X151638000Y-89916000D03*
X152908000Y-89916000D03*
X154178000Y-89916000D03*
X155448000Y-89916000D03*
X156718000Y-89916000D03*
X157988000Y-89916000D03*
X159258000Y-89916000D03*
%TD*%
D12*
%TO.C,R10*%
X145000000Y-82569000D03*
X145000000Y-80744000D03*
%TD*%
D10*
%TO.C,R1*%
X162244000Y-93822000D03*
X162244000Y-95647000D03*
%TD*%
D13*
%TO.C,R6*%
X157630500Y-81296500D03*
X155805500Y-81296500D03*
%TD*%
D12*
%TO.C,R9*%
X139000000Y-82569000D03*
X139000000Y-80744000D03*
%TD*%
D10*
%TO.C,R4*%
X153244000Y-93822000D03*
X153244000Y-95647000D03*
%TD*%
%TO.C,R3*%
X156244000Y-93822000D03*
X156244000Y-95647000D03*
%TD*%
D14*
%TO.C,C2*%
X164408000Y-86578500D03*
X164408000Y-88303500D03*
%TD*%
D12*
%TO.C,R8*%
X143000000Y-82569000D03*
X143000000Y-80744000D03*
%TD*%
D10*
%TO.C,R2*%
X159244000Y-93822000D03*
X159244000Y-95647000D03*
%TD*%
D12*
%TO.C,R7*%
X141000000Y-82569000D03*
X141000000Y-80744000D03*
%TD*%
D14*
%TO.C,C1*%
X161938000Y-86578500D03*
X161938000Y-88303500D03*
%TD*%
D15*
%TO.C,J1*%
X126588000Y-90932000D03*
X128588000Y-90932000D03*
X130588000Y-90932000D03*
X132588000Y-90932000D03*
X134588000Y-90932000D03*
X136588000Y-90932000D03*
D16*
X124238000Y-96682000D03*
X138938000Y-96682000D03*
%TD*%
D17*
%TO.C,SW4*%
X126824000Y-114086000D03*
%TD*%
%TO.C,SW2*%
X157324000Y-122086000D03*
%TD*%
%TO.C,SW3*%
X141324000Y-122086000D03*
%TD*%
%TO.C,SW1*%
X171824000Y-114086000D03*
%TD*%
M02*
