%TF.GenerationSoftware,KiCad,Pcbnew,6.0.10-86aedd382b~118~ubuntu22.04.1*%
%TF.CreationDate,2023-01-13T21:42:15-05:00*%
%TF.ProjectId,touch_panel,746f7563-685f-4706-916e-656c2e6b6963,rev?*%
%TF.SameCoordinates,Original*%
%TF.FileFunction,Legend,Bot*%
%TF.FilePolarity,Positive*%
%FSLAX46Y46*%
G04 Gerber Fmt 4.6, Leading zero omitted, Abs format (unit mm)*
G04 Created by KiCad (PCBNEW 6.0.10-86aedd382b~118~ubuntu22.04.1) date 2023-01-13 21:42:15*
%MOMM*%
%LPD*%
G01*
G04 APERTURE LIST*
G04 Aperture macros list*
%AMRoundRect*
0 Rectangle with rounded corners*
0 $1 Rounding radius*
0 $2 $3 $4 $5 $6 $7 $8 $9 X,Y pos of 4 corners*
0 Add a 4 corners polygon primitive as box body*
4,1,4,$2,$3,$4,$5,$6,$7,$8,$9,$2,$3,0*
0 Add four circle primitives for the rounded corners*
1,1,$1+$1,$2,$3*
1,1,$1+$1,$4,$5*
1,1,$1+$1,$6,$7*
1,1,$1+$1,$8,$9*
0 Add four rect primitives between the rounded corners*
20,1,$1+$1,$2,$3,$4,$5,0*
20,1,$1+$1,$4,$5,$6,$7,0*
20,1,$1+$1,$6,$7,$8,$9,0*
20,1,$1+$1,$8,$9,$2,$3,0*%
G04 Aperture macros list end*
%ADD10C,0.150000*%
%ADD11RoundRect,3.125000X-3.125000X-3.125000X3.125000X-3.125000X3.125000X3.125000X-3.125000X3.125000X0*%
G04 APERTURE END LIST*
D10*
%TO.C,SW4*%
X128157333Y-114490761D02*
X128014476Y-114538380D01*
X127776380Y-114538380D01*
X127681142Y-114490761D01*
X127633523Y-114443142D01*
X127585904Y-114347904D01*
X127585904Y-114252666D01*
X127633523Y-114157428D01*
X127681142Y-114109809D01*
X127776380Y-114062190D01*
X127966857Y-114014571D01*
X128062095Y-113966952D01*
X128109714Y-113919333D01*
X128157333Y-113824095D01*
X128157333Y-113728857D01*
X128109714Y-113633619D01*
X128062095Y-113586000D01*
X127966857Y-113538380D01*
X127728761Y-113538380D01*
X127585904Y-113586000D01*
X127252571Y-113538380D02*
X127014476Y-114538380D01*
X126824000Y-113824095D01*
X126633523Y-114538380D01*
X126395428Y-113538380D01*
X125585904Y-113871714D02*
X125585904Y-114538380D01*
X125824000Y-113490761D02*
X126062095Y-114205047D01*
X125443047Y-114205047D01*
%TO.C,SW2*%
X158657333Y-122490761D02*
X158514476Y-122538380D01*
X158276380Y-122538380D01*
X158181142Y-122490761D01*
X158133523Y-122443142D01*
X158085904Y-122347904D01*
X158085904Y-122252666D01*
X158133523Y-122157428D01*
X158181142Y-122109809D01*
X158276380Y-122062190D01*
X158466857Y-122014571D01*
X158562095Y-121966952D01*
X158609714Y-121919333D01*
X158657333Y-121824095D01*
X158657333Y-121728857D01*
X158609714Y-121633619D01*
X158562095Y-121586000D01*
X158466857Y-121538380D01*
X158228761Y-121538380D01*
X158085904Y-121586000D01*
X157752571Y-121538380D02*
X157514476Y-122538380D01*
X157324000Y-121824095D01*
X157133523Y-122538380D01*
X156895428Y-121538380D01*
X156562095Y-121633619D02*
X156514476Y-121586000D01*
X156419238Y-121538380D01*
X156181142Y-121538380D01*
X156085904Y-121586000D01*
X156038285Y-121633619D01*
X155990666Y-121728857D01*
X155990666Y-121824095D01*
X156038285Y-121966952D01*
X156609714Y-122538380D01*
X155990666Y-122538380D01*
%TO.C,SW3*%
X142657333Y-122490761D02*
X142514476Y-122538380D01*
X142276380Y-122538380D01*
X142181142Y-122490761D01*
X142133523Y-122443142D01*
X142085904Y-122347904D01*
X142085904Y-122252666D01*
X142133523Y-122157428D01*
X142181142Y-122109809D01*
X142276380Y-122062190D01*
X142466857Y-122014571D01*
X142562095Y-121966952D01*
X142609714Y-121919333D01*
X142657333Y-121824095D01*
X142657333Y-121728857D01*
X142609714Y-121633619D01*
X142562095Y-121586000D01*
X142466857Y-121538380D01*
X142228761Y-121538380D01*
X142085904Y-121586000D01*
X141752571Y-121538380D02*
X141514476Y-122538380D01*
X141324000Y-121824095D01*
X141133523Y-122538380D01*
X140895428Y-121538380D01*
X140609714Y-121538380D02*
X139990666Y-121538380D01*
X140324000Y-121919333D01*
X140181142Y-121919333D01*
X140085904Y-121966952D01*
X140038285Y-122014571D01*
X139990666Y-122109809D01*
X139990666Y-122347904D01*
X140038285Y-122443142D01*
X140085904Y-122490761D01*
X140181142Y-122538380D01*
X140466857Y-122538380D01*
X140562095Y-122490761D01*
X140609714Y-122443142D01*
%TO.C,SW1*%
X173157333Y-114490761D02*
X173014476Y-114538380D01*
X172776380Y-114538380D01*
X172681142Y-114490761D01*
X172633523Y-114443142D01*
X172585904Y-114347904D01*
X172585904Y-114252666D01*
X172633523Y-114157428D01*
X172681142Y-114109809D01*
X172776380Y-114062190D01*
X172966857Y-114014571D01*
X173062095Y-113966952D01*
X173109714Y-113919333D01*
X173157333Y-113824095D01*
X173157333Y-113728857D01*
X173109714Y-113633619D01*
X173062095Y-113586000D01*
X172966857Y-113538380D01*
X172728761Y-113538380D01*
X172585904Y-113586000D01*
X172252571Y-113538380D02*
X172014476Y-114538380D01*
X171824000Y-113824095D01*
X171633523Y-114538380D01*
X171395428Y-113538380D01*
X170490666Y-114538380D02*
X171062095Y-114538380D01*
X170776380Y-114538380D02*
X170776380Y-113538380D01*
X170871619Y-113681238D01*
X170966857Y-113776476D01*
X171062095Y-113824095D01*
%TD*%
D11*
%TO.C,SW4*%
X126824000Y-114086000D03*
%TD*%
%TO.C,SW2*%
X157324000Y-122086000D03*
%TD*%
%TO.C,SW3*%
X141324000Y-122086000D03*
%TD*%
%TO.C,SW1*%
X171824000Y-114086000D03*
%TD*%
M02*
