%TF.GenerationSoftware,KiCad,Pcbnew,6.0.2-378541a8eb~116~ubuntu20.04.1*%
%TF.CreationDate,2022-02-17T13:36:36-05:00*%
%TF.ProjectId,TachAdapter,54616368-4164-4617-9074-65722e6b6963,rev?*%
%TF.SameCoordinates,Original*%
%TF.FileFunction,Copper,L1,Top*%
%TF.FilePolarity,Positive*%
%FSLAX46Y46*%
G04 Gerber Fmt 4.6, Leading zero omitted, Abs format (unit mm)*
G04 Created by KiCad (PCBNEW 6.0.2-378541a8eb~116~ubuntu20.04.1) date 2022-02-17 13:36:36*
%MOMM*%
%LPD*%
G01*
G04 APERTURE LIST*
G04 Aperture macros list*
%AMRoundRect*
0 Rectangle with rounded corners*
0 $1 Rounding radius*
0 $2 $3 $4 $5 $6 $7 $8 $9 X,Y pos of 4 corners*
0 Add a 4 corners polygon primitive as box body*
4,1,4,$2,$3,$4,$5,$6,$7,$8,$9,$2,$3,0*
0 Add four circle primitives for the rounded corners*
1,1,$1+$1,$2,$3*
1,1,$1+$1,$4,$5*
1,1,$1+$1,$6,$7*
1,1,$1+$1,$8,$9*
0 Add four rect primitives between the rounded corners*
20,1,$1+$1,$2,$3,$4,$5,0*
20,1,$1+$1,$4,$5,$6,$7,0*
20,1,$1+$1,$6,$7,$8,$9,0*
20,1,$1+$1,$8,$9,$2,$3,0*%
G04 Aperture macros list end*
%TA.AperFunction,ComponentPad*%
%ADD10RoundRect,0.249999X-1.300001X1.300001X-1.300001X-1.300001X1.300001X-1.300001X1.300001X1.300001X0*%
%TD*%
%TA.AperFunction,ComponentPad*%
%ADD11C,3.100000*%
%TD*%
%TA.AperFunction,SMDPad,CuDef*%
%ADD12RoundRect,0.381250X-0.381250X-0.508750X0.381250X-0.508750X0.381250X0.508750X-0.381250X0.508750X0*%
%TD*%
%TA.AperFunction,SMDPad,CuDef*%
%ADD13R,2.500000X2.300000*%
%TD*%
%TA.AperFunction,SMDPad,CuDef*%
%ADD14RoundRect,0.225000X0.225000X0.250000X-0.225000X0.250000X-0.225000X-0.250000X0.225000X-0.250000X0*%
%TD*%
%TA.AperFunction,SMDPad,CuDef*%
%ADD15RoundRect,0.250000X-0.312500X-0.625000X0.312500X-0.625000X0.312500X0.625000X-0.312500X0.625000X0*%
%TD*%
%TA.AperFunction,SMDPad,CuDef*%
%ADD16RoundRect,0.200000X-0.200000X-0.275000X0.200000X-0.275000X0.200000X0.275000X-0.200000X0.275000X0*%
%TD*%
%TA.AperFunction,SMDPad,CuDef*%
%ADD17RoundRect,0.200000X-0.275000X0.200000X-0.275000X-0.200000X0.275000X-0.200000X0.275000X0.200000X0*%
%TD*%
%TA.AperFunction,SMDPad,CuDef*%
%ADD18R,1.800000X2.500000*%
%TD*%
%TA.AperFunction,SMDPad,CuDef*%
%ADD19RoundRect,0.250000X0.625000X-0.312500X0.625000X0.312500X-0.625000X0.312500X-0.625000X-0.312500X0*%
%TD*%
%TA.AperFunction,SMDPad,CuDef*%
%ADD20R,2.500000X1.800000*%
%TD*%
%TA.AperFunction,SMDPad,CuDef*%
%ADD21RoundRect,0.225000X-0.250000X0.225000X-0.250000X-0.225000X0.250000X-0.225000X0.250000X0.225000X0*%
%TD*%
%TA.AperFunction,ViaPad*%
%ADD22C,0.800000*%
%TD*%
%TA.AperFunction,Conductor*%
%ADD23C,0.250000*%
%TD*%
%TA.AperFunction,Conductor*%
%ADD24C,0.750000*%
%TD*%
G04 APERTURE END LIST*
D10*
%TO.P,J2,1,Pin_1*%
%TO.N,VCC*%
X168402000Y-101442000D03*
D11*
%TO.P,J2,2,Pin_2*%
%TO.N,Net-(C2-Pad1)*%
X168402000Y-107442000D03*
%TO.P,J2,3,Pin_3*%
%TO.N,GND*%
X168402000Y-113442000D03*
%TD*%
%TO.P,J1,2,Pin_2*%
%TO.N,Net-(D1-Pad2)*%
X137922000Y-110648000D03*
D10*
%TO.P,J1,1,Pin_1*%
%TO.N,GNDPWR*%
X137922000Y-104648000D03*
%TD*%
D12*
%TO.P,U1,1*%
%TO.N,Net-(R2-Pad2)*%
X150432500Y-101600000D03*
%TO.P,U1,2*%
%TO.N,Net-(R3-Pad2)*%
X150432500Y-104140000D03*
%TO.P,U1,3*%
%TO.N,unconnected-(U1-Pad3)*%
X150432500Y-106680000D03*
%TO.P,U1,4*%
%TO.N,Net-(D3-Pad2)*%
X159447500Y-106680000D03*
%TO.P,U1,5*%
%TO.N,GND*%
X159447500Y-104140000D03*
%TO.P,U1,6*%
%TO.N,VCC*%
X159447500Y-101600000D03*
%TD*%
D13*
%TO.P,D2,1,K*%
%TO.N,Net-(D1-Pad1)*%
X146676000Y-107950000D03*
%TO.P,D2,2,A*%
%TO.N,Net-(D2-Pad2)*%
X142376000Y-107950000D03*
%TD*%
D14*
%TO.P,C2,1*%
%TO.N,Net-(C2-Pad1)*%
X161557000Y-110744000D03*
%TO.P,C2,2*%
%TO.N,GND*%
X160007000Y-110744000D03*
%TD*%
D15*
%TO.P,R2,1*%
%TO.N,Net-(R1-Pad2)*%
X144395000Y-101600000D03*
%TO.P,R2,2*%
%TO.N,Net-(R2-Pad2)*%
X147320000Y-101600000D03*
%TD*%
D16*
%TO.P,R5,2*%
%TO.N,Net-(C2-Pad1)*%
X161607000Y-108966000D03*
%TO.P,R5,1*%
%TO.N,Net-(D3-Pad2)*%
X159957000Y-108966000D03*
%TD*%
D17*
%TO.P,R4,1*%
%TO.N,VCC*%
X163322000Y-101410000D03*
%TO.P,R4,2*%
%TO.N,Net-(D3-Pad2)*%
X163322000Y-103060000D03*
%TD*%
D18*
%TO.P,D3,1,K*%
%TO.N,Net-(C2-Pad1)*%
X164338000Y-109950000D03*
%TO.P,D3,2,A*%
%TO.N,Net-(D3-Pad2)*%
X164338000Y-105950000D03*
%TD*%
D19*
%TO.P,R1,1*%
%TO.N,Net-(D2-Pad2)*%
X141986000Y-104332500D03*
%TO.P,R1,2*%
%TO.N,Net-(R1-Pad2)*%
X141986000Y-101407500D03*
%TD*%
D15*
%TO.P,R3,1*%
%TO.N,GNDPWR*%
X144333500Y-104140000D03*
%TO.P,R3,2*%
%TO.N,Net-(R3-Pad2)*%
X147258500Y-104140000D03*
%TD*%
D20*
%TO.P,D1,1,K*%
%TO.N,Net-(D1-Pad1)*%
X146526000Y-112268000D03*
%TO.P,D1,2,A*%
%TO.N,Net-(D1-Pad2)*%
X142526000Y-112268000D03*
%TD*%
D21*
%TO.P,C1,2*%
%TO.N,GND*%
X161544000Y-103010000D03*
%TO.P,C1,1*%
%TO.N,VCC*%
X161544000Y-101460000D03*
%TD*%
D22*
%TO.N,GNDPWR*%
X145288000Y-105918000D03*
X144272000Y-105918000D03*
X143256000Y-105918000D03*
%TO.N,GND*%
X161544000Y-104394000D03*
X161544000Y-105664000D03*
%TD*%
D23*
%TO.N,VCC*%
X163322000Y-101410000D02*
X168370000Y-101410000D01*
X168370000Y-101410000D02*
X168402000Y-101442000D01*
X161544000Y-101460000D02*
X159587500Y-101460000D01*
X159587500Y-101460000D02*
X159447500Y-101600000D01*
X163322000Y-101410000D02*
X161594000Y-101410000D01*
X161594000Y-101410000D02*
X161544000Y-101460000D01*
D24*
%TO.N,Net-(R1-Pad2)*%
X141986000Y-101407500D02*
X144202500Y-101407500D01*
D23*
X144202500Y-101407500D02*
X144395000Y-101600000D01*
D24*
%TO.N,Net-(D2-Pad2)*%
X141986000Y-104332500D02*
X141986000Y-107560000D01*
D23*
X141986000Y-107560000D02*
X142376000Y-107950000D01*
D24*
%TO.N,Net-(D1-Pad1)*%
X146676000Y-107950000D02*
X146676000Y-112118000D01*
D23*
X146676000Y-112118000D02*
X146526000Y-112268000D01*
D24*
%TO.N,Net-(D1-Pad2)*%
X137922000Y-110648000D02*
X139542000Y-112268000D01*
X139542000Y-112268000D02*
X142526000Y-112268000D01*
D23*
%TO.N,Net-(C2-Pad1)*%
X164338000Y-109950000D02*
X167926000Y-109950000D01*
X167926000Y-109950000D02*
X168402000Y-109474000D01*
X168402000Y-109474000D02*
X168402000Y-107442000D01*
%TO.N,Net-(D3-Pad2)*%
X163068000Y-105918000D02*
X163068000Y-103314000D01*
X163068000Y-103314000D02*
X163322000Y-103060000D01*
X162306000Y-106680000D02*
X163068000Y-105918000D01*
X159447500Y-106680000D02*
X162306000Y-106680000D01*
X163068000Y-105918000D02*
X163100000Y-105950000D01*
X163100000Y-105950000D02*
X164338000Y-105950000D01*
%TO.N,Net-(C2-Pad1)*%
X161557000Y-110744000D02*
X163544000Y-110744000D01*
X163544000Y-110744000D02*
X164338000Y-109950000D01*
X161607000Y-108966000D02*
X161607000Y-110694000D01*
X161607000Y-110694000D02*
X161557000Y-110744000D01*
%TO.N,Net-(D3-Pad2)*%
X159447500Y-106680000D02*
X159447500Y-108456500D01*
X159447500Y-108456500D02*
X159957000Y-108966000D01*
D24*
%TO.N,Net-(R2-Pad2)*%
X150432500Y-101600000D02*
X147320000Y-101600000D01*
%TO.N,Net-(R3-Pad2)*%
X150432500Y-104140000D02*
X147320000Y-104140000D01*
%TD*%
%TA.AperFunction,Conductor*%
%TO.N,GNDPWR*%
G36*
X151326121Y-99130802D02*
G01*
X151372614Y-99184458D01*
X151384000Y-99236800D01*
X151384000Y-100410313D01*
X151363998Y-100478434D01*
X151310342Y-100524927D01*
X151240068Y-100535031D01*
X151192729Y-100518089D01*
X151098350Y-100460931D01*
X151091103Y-100458660D01*
X151091101Y-100458659D01*
X151026804Y-100438510D01*
X150939783Y-100411239D01*
X150868621Y-100404700D01*
X150865723Y-100404700D01*
X150431369Y-100404701D01*
X149996380Y-100404701D01*
X149993521Y-100404964D01*
X149993514Y-100404964D01*
X149967306Y-100407372D01*
X149925217Y-100411239D01*
X149844537Y-100436523D01*
X149773899Y-100458659D01*
X149773897Y-100458660D01*
X149766650Y-100460931D01*
X149624513Y-100547012D01*
X149507012Y-100664513D01*
X149420931Y-100806650D01*
X149414294Y-100827830D01*
X149413181Y-100831381D01*
X149373722Y-100890402D01*
X149308618Y-100918722D01*
X149292947Y-100919700D01*
X148293512Y-100919700D01*
X148225391Y-100899698D01*
X148176360Y-100840083D01*
X148173860Y-100833767D01*
X148120834Y-100699838D01*
X148028848Y-100578652D01*
X147981978Y-100543075D01*
X147914510Y-100491864D01*
X147907662Y-100486666D01*
X147836924Y-100458659D01*
X147773733Y-100433640D01*
X147773731Y-100433639D01*
X147766203Y-100430659D01*
X147675644Y-100419700D01*
X146964356Y-100419700D01*
X146873797Y-100430659D01*
X146866269Y-100433639D01*
X146866267Y-100433640D01*
X146803076Y-100458659D01*
X146732338Y-100486666D01*
X146725490Y-100491864D01*
X146658023Y-100543075D01*
X146611152Y-100578652D01*
X146519166Y-100699838D01*
X146516002Y-100707830D01*
X146474008Y-100813896D01*
X146463159Y-100841297D01*
X146452200Y-100931856D01*
X146452200Y-102268144D01*
X146463159Y-102358703D01*
X146466139Y-102366231D01*
X146466140Y-102366233D01*
X146479449Y-102399847D01*
X146519166Y-102500162D01*
X146611152Y-102621348D01*
X146617992Y-102626540D01*
X146666990Y-102663732D01*
X146732338Y-102713334D01*
X146801391Y-102740674D01*
X146857364Y-102784347D01*
X146880840Y-102851349D01*
X146864366Y-102920408D01*
X146813170Y-102969597D01*
X146801392Y-102974977D01*
X146670838Y-103026666D01*
X146663990Y-103031864D01*
X146596523Y-103083075D01*
X146549652Y-103118652D01*
X146457666Y-103239838D01*
X146454502Y-103247830D01*
X146412508Y-103353896D01*
X146401659Y-103381297D01*
X146390700Y-103471856D01*
X146390700Y-104808144D01*
X146401659Y-104898703D01*
X146404639Y-104906231D01*
X146404640Y-104906233D01*
X146417949Y-104939847D01*
X146457666Y-105040162D01*
X146549652Y-105161348D01*
X146556492Y-105166540D01*
X146599031Y-105198829D01*
X146670838Y-105253334D01*
X146725899Y-105275134D01*
X146804767Y-105306360D01*
X146804769Y-105306361D01*
X146812297Y-105309341D01*
X146902856Y-105320300D01*
X147614144Y-105320300D01*
X147704703Y-105309341D01*
X147712231Y-105306361D01*
X147712233Y-105306360D01*
X147791101Y-105275134D01*
X147846162Y-105253334D01*
X147917969Y-105198829D01*
X147960508Y-105166540D01*
X147967348Y-105161348D01*
X148059334Y-105040162D01*
X148114861Y-104899916D01*
X148158534Y-104843943D01*
X148232012Y-104820300D01*
X149292947Y-104820300D01*
X149361068Y-104840302D01*
X149407561Y-104893958D01*
X149413179Y-104908615D01*
X149420931Y-104933350D01*
X149507012Y-105075487D01*
X149624513Y-105192988D01*
X149766650Y-105279069D01*
X149773897Y-105281340D01*
X149773899Y-105281341D01*
X149800784Y-105289766D01*
X149859806Y-105329224D01*
X149888126Y-105394327D01*
X149876753Y-105464407D01*
X149829297Y-105517213D01*
X149800784Y-105530234D01*
X149773899Y-105538659D01*
X149773897Y-105538660D01*
X149766650Y-105540931D01*
X149624513Y-105627012D01*
X149507012Y-105744513D01*
X149420931Y-105886650D01*
X149371239Y-106045217D01*
X149364700Y-106116379D01*
X149364701Y-107243620D01*
X149371239Y-107314783D01*
X149420931Y-107473350D01*
X149507012Y-107615487D01*
X149624513Y-107732988D01*
X149766650Y-107819069D01*
X149773897Y-107821340D01*
X149773899Y-107821341D01*
X149838196Y-107841490D01*
X149925217Y-107868761D01*
X149996379Y-107875300D01*
X149999277Y-107875300D01*
X150433631Y-107875299D01*
X150868620Y-107875299D01*
X150871479Y-107875036D01*
X150871486Y-107875036D01*
X150897694Y-107872628D01*
X150939783Y-107868761D01*
X151020463Y-107843477D01*
X151091101Y-107821341D01*
X151091103Y-107821340D01*
X151098350Y-107819069D01*
X151192730Y-107761911D01*
X151261358Y-107743732D01*
X151328922Y-107765542D01*
X151373968Y-107820418D01*
X151384000Y-107869687D01*
X151384000Y-115647200D01*
X151363998Y-115715321D01*
X151310342Y-115761814D01*
X151258000Y-115773200D01*
X135558800Y-115773200D01*
X135490679Y-115753198D01*
X135444186Y-115699542D01*
X135432800Y-115647200D01*
X135432800Y-110589575D01*
X136062879Y-110589575D01*
X136073194Y-110852110D01*
X136120398Y-111110573D01*
X136203548Y-111359806D01*
X136205540Y-111363793D01*
X136205541Y-111363795D01*
X136311731Y-111576314D01*
X136320986Y-111594837D01*
X136470369Y-111810976D01*
X136648716Y-112003910D01*
X136652170Y-112006722D01*
X136849011Y-112166976D01*
X136849015Y-112166979D01*
X136852468Y-112169790D01*
X137077560Y-112305307D01*
X137184577Y-112350623D01*
X137315403Y-112406021D01*
X137315406Y-112406022D01*
X137319501Y-112407756D01*
X137323793Y-112408894D01*
X137323796Y-112408895D01*
X137425142Y-112435766D01*
X137573463Y-112475093D01*
X137577887Y-112475617D01*
X137577889Y-112475617D01*
X137729431Y-112493553D01*
X137834380Y-112505974D01*
X138097045Y-112499784D01*
X138101443Y-112499052D01*
X138351827Y-112457377D01*
X138351831Y-112457376D01*
X138356217Y-112456646D01*
X138360458Y-112455305D01*
X138360461Y-112455304D01*
X138516293Y-112406021D01*
X138596513Y-112380651D01*
X138667494Y-112379181D01*
X138723601Y-112411691D01*
X139041193Y-112729283D01*
X139047047Y-112735549D01*
X139078452Y-112771550D01*
X139078455Y-112771553D01*
X139083447Y-112777275D01*
X139089661Y-112781642D01*
X139133543Y-112812483D01*
X139138838Y-112816416D01*
X139186998Y-112854178D01*
X139193919Y-112857303D01*
X139198514Y-112860086D01*
X139207228Y-112865056D01*
X139211942Y-112867584D01*
X139218162Y-112871955D01*
X139225242Y-112874715D01*
X139225245Y-112874717D01*
X139275199Y-112894193D01*
X139281270Y-112896744D01*
X139308104Y-112908860D01*
X139330144Y-112918812D01*
X139330146Y-112918813D01*
X139337068Y-112921938D01*
X139344538Y-112923322D01*
X139349668Y-112924930D01*
X139359307Y-112927676D01*
X139364502Y-112929010D01*
X139371574Y-112931767D01*
X139432268Y-112939758D01*
X139438771Y-112940788D01*
X139498970Y-112951945D01*
X139506550Y-112951508D01*
X139506552Y-112951508D01*
X139558557Y-112948509D01*
X139565811Y-112948300D01*
X140844700Y-112948300D01*
X140912821Y-112968302D01*
X140959314Y-113021958D01*
X140970700Y-113074300D01*
X140970700Y-113213358D01*
X140971996Y-113224252D01*
X140972685Y-113230040D01*
X140973867Y-113239978D01*
X141020036Y-113343919D01*
X141060186Y-113383998D01*
X141092295Y-113416052D01*
X141092297Y-113416053D01*
X141100528Y-113424270D01*
X141204549Y-113470258D01*
X141230642Y-113473300D01*
X143821358Y-113473300D01*
X143832252Y-113472004D01*
X143838593Y-113471250D01*
X143838596Y-113471249D01*
X143847978Y-113470133D01*
X143951919Y-113423964D01*
X143991998Y-113383814D01*
X144024052Y-113351705D01*
X144024053Y-113351703D01*
X144032270Y-113343472D01*
X144078258Y-113239451D01*
X144081300Y-113213358D01*
X144970700Y-113213358D01*
X144971996Y-113224252D01*
X144972685Y-113230040D01*
X144973867Y-113239978D01*
X145020036Y-113343919D01*
X145060186Y-113383998D01*
X145092295Y-113416052D01*
X145092297Y-113416053D01*
X145100528Y-113424270D01*
X145204549Y-113470258D01*
X145230642Y-113473300D01*
X147821358Y-113473300D01*
X147832252Y-113472004D01*
X147838593Y-113471250D01*
X147838596Y-113471249D01*
X147847978Y-113470133D01*
X147951919Y-113423964D01*
X147991998Y-113383814D01*
X148024052Y-113351705D01*
X148024053Y-113351703D01*
X148032270Y-113343472D01*
X148078258Y-113239451D01*
X148081300Y-113213358D01*
X148081300Y-111322642D01*
X148080004Y-111311748D01*
X148079250Y-111305407D01*
X148079249Y-111305404D01*
X148078133Y-111296022D01*
X148031964Y-111192081D01*
X147991814Y-111152002D01*
X147959705Y-111119948D01*
X147959703Y-111119947D01*
X147951472Y-111111730D01*
X147847451Y-111065742D01*
X147821358Y-111062700D01*
X147482300Y-111062700D01*
X147414179Y-111042698D01*
X147367686Y-110989042D01*
X147356300Y-110936700D01*
X147356300Y-109531300D01*
X147376302Y-109463179D01*
X147429958Y-109416686D01*
X147482300Y-109405300D01*
X147971358Y-109405300D01*
X147982252Y-109404004D01*
X147988593Y-109403250D01*
X147988596Y-109403249D01*
X147997978Y-109402133D01*
X148101919Y-109355964D01*
X148141998Y-109315814D01*
X148174052Y-109283705D01*
X148174053Y-109283703D01*
X148182270Y-109275472D01*
X148228258Y-109171451D01*
X148231300Y-109145358D01*
X148231300Y-106754642D01*
X148230004Y-106743748D01*
X148229250Y-106737407D01*
X148229249Y-106737404D01*
X148228133Y-106728022D01*
X148181964Y-106624081D01*
X148141814Y-106584002D01*
X148109705Y-106551948D01*
X148109703Y-106551947D01*
X148101472Y-106543730D01*
X147997451Y-106497742D01*
X147971358Y-106494700D01*
X145380642Y-106494700D01*
X145369748Y-106495996D01*
X145363407Y-106496750D01*
X145363404Y-106496751D01*
X145354022Y-106497867D01*
X145250081Y-106544036D01*
X145210002Y-106584186D01*
X145177948Y-106616295D01*
X145177947Y-106616297D01*
X145169730Y-106624528D01*
X145123742Y-106728549D01*
X145120700Y-106754642D01*
X145120700Y-109145358D01*
X145121996Y-109156252D01*
X145122685Y-109162040D01*
X145123867Y-109171978D01*
X145170036Y-109275919D01*
X145210186Y-109315998D01*
X145242295Y-109348052D01*
X145242297Y-109348053D01*
X145250528Y-109356270D01*
X145354549Y-109402258D01*
X145380642Y-109405300D01*
X145869700Y-109405300D01*
X145937821Y-109425302D01*
X145984314Y-109478958D01*
X145995700Y-109531300D01*
X145995700Y-110936700D01*
X145975698Y-111004821D01*
X145922042Y-111051314D01*
X145869700Y-111062700D01*
X145230642Y-111062700D01*
X145219748Y-111063996D01*
X145213407Y-111064750D01*
X145213404Y-111064751D01*
X145204022Y-111065867D01*
X145134581Y-111096712D01*
X145113238Y-111106192D01*
X145100081Y-111112036D01*
X145060002Y-111152186D01*
X145027948Y-111184295D01*
X145027947Y-111184297D01*
X145019730Y-111192528D01*
X144973742Y-111296549D01*
X144970700Y-111322642D01*
X144970700Y-113213358D01*
X144081300Y-113213358D01*
X144081300Y-111322642D01*
X144080004Y-111311748D01*
X144079250Y-111305407D01*
X144079249Y-111305404D01*
X144078133Y-111296022D01*
X144031964Y-111192081D01*
X143991814Y-111152002D01*
X143959705Y-111119948D01*
X143959703Y-111119947D01*
X143951472Y-111111730D01*
X143847451Y-111065742D01*
X143821358Y-111062700D01*
X141230642Y-111062700D01*
X141219748Y-111063996D01*
X141213407Y-111064750D01*
X141213404Y-111064751D01*
X141204022Y-111065867D01*
X141134581Y-111096712D01*
X141113238Y-111106192D01*
X141100081Y-111112036D01*
X141060002Y-111152186D01*
X141027948Y-111184295D01*
X141027947Y-111184297D01*
X141019730Y-111192528D01*
X140973742Y-111296549D01*
X140970700Y-111322642D01*
X140970700Y-111461700D01*
X140950698Y-111529821D01*
X140897042Y-111576314D01*
X140844700Y-111587700D01*
X139875980Y-111587700D01*
X139807859Y-111567698D01*
X139786885Y-111550795D01*
X139684725Y-111448635D01*
X139650699Y-111386323D01*
X139655764Y-111315508D01*
X139658580Y-111308592D01*
X139670275Y-111282139D01*
X139670278Y-111282131D01*
X139672075Y-111278066D01*
X139743393Y-111025192D01*
X139766641Y-110852110D01*
X139777942Y-110767974D01*
X139777942Y-110767969D01*
X139778369Y-110764793D01*
X139782039Y-110648000D01*
X139763483Y-110385918D01*
X139708184Y-110129066D01*
X139617246Y-109882567D01*
X139492483Y-109651341D01*
X139336385Y-109440001D01*
X139313434Y-109416686D01*
X139174420Y-109275472D01*
X139152066Y-109252764D01*
X138943204Y-109093366D01*
X138713966Y-108964986D01*
X138468926Y-108870188D01*
X138464601Y-108869185D01*
X138464596Y-108869184D01*
X138362192Y-108845448D01*
X138212974Y-108810861D01*
X137951216Y-108788190D01*
X137946781Y-108788434D01*
X137946777Y-108788434D01*
X137839613Y-108794332D01*
X137688875Y-108802628D01*
X137431186Y-108853886D01*
X137266504Y-108911718D01*
X137187497Y-108939463D01*
X137187494Y-108939464D01*
X137183289Y-108940941D01*
X137179336Y-108942994D01*
X137179330Y-108942997D01*
X137137000Y-108964986D01*
X136950132Y-109062056D01*
X136946517Y-109064639D01*
X136946511Y-109064643D01*
X136843446Y-109138295D01*
X136736367Y-109214815D01*
X136733140Y-109217893D01*
X136733138Y-109217895D01*
X136583452Y-109360688D01*
X136546257Y-109396170D01*
X136383598Y-109602503D01*
X136355231Y-109651341D01*
X136253868Y-109825849D01*
X136253865Y-109825855D01*
X136251634Y-109829696D01*
X136152998Y-110073216D01*
X136151927Y-110077529D01*
X136151925Y-110077534D01*
X136090731Y-110323884D01*
X136089658Y-110328205D01*
X136062879Y-110589575D01*
X135432800Y-110589575D01*
X135432800Y-105987315D01*
X136067200Y-105987315D01*
X136067656Y-105994870D01*
X136077176Y-106073544D01*
X136081129Y-106089109D01*
X136130946Y-106214932D01*
X136139296Y-106229751D01*
X136220821Y-106337156D01*
X136232844Y-106349179D01*
X136340249Y-106430704D01*
X136355068Y-106439054D01*
X136480891Y-106488871D01*
X136496456Y-106492824D01*
X136575130Y-106502344D01*
X136582685Y-106502800D01*
X137649885Y-106502800D01*
X137665124Y-106498325D01*
X137666329Y-106496935D01*
X137668000Y-106489252D01*
X137668000Y-106484685D01*
X138176000Y-106484685D01*
X138180475Y-106499924D01*
X138181865Y-106501129D01*
X138189548Y-106502800D01*
X139261315Y-106502800D01*
X139268870Y-106502344D01*
X139347544Y-106492824D01*
X139363109Y-106488871D01*
X139488932Y-106439054D01*
X139503751Y-106430704D01*
X139611156Y-106349179D01*
X139623179Y-106337156D01*
X139704704Y-106229751D01*
X139713054Y-106214932D01*
X139762871Y-106089109D01*
X139766824Y-106073544D01*
X139776344Y-105994870D01*
X139776800Y-105987315D01*
X139776800Y-104920115D01*
X139772325Y-104904876D01*
X139770935Y-104903671D01*
X139763252Y-104902000D01*
X138194115Y-104902000D01*
X138178876Y-104906475D01*
X138177671Y-104907865D01*
X138176000Y-104915548D01*
X138176000Y-106484685D01*
X137668000Y-106484685D01*
X137668000Y-104920115D01*
X137663525Y-104904876D01*
X137662135Y-104903671D01*
X137654452Y-104902000D01*
X136085315Y-104902000D01*
X136070076Y-104906475D01*
X136068871Y-104907865D01*
X136067200Y-104915548D01*
X136067200Y-105987315D01*
X135432800Y-105987315D01*
X135432800Y-104688144D01*
X140805700Y-104688144D01*
X140816659Y-104778703D01*
X140819639Y-104786231D01*
X140819640Y-104786233D01*
X140842489Y-104843943D01*
X140872666Y-104920162D01*
X140964652Y-105041348D01*
X141085838Y-105133334D01*
X141226084Y-105188861D01*
X141282057Y-105232534D01*
X141305700Y-105306012D01*
X141305700Y-106368700D01*
X141285698Y-106436821D01*
X141232042Y-106483314D01*
X141179700Y-106494700D01*
X141080642Y-106494700D01*
X141069748Y-106495996D01*
X141063407Y-106496750D01*
X141063404Y-106496751D01*
X141054022Y-106497867D01*
X140950081Y-106544036D01*
X140910002Y-106584186D01*
X140877948Y-106616295D01*
X140877947Y-106616297D01*
X140869730Y-106624528D01*
X140823742Y-106728549D01*
X140820700Y-106754642D01*
X140820700Y-109145358D01*
X140821996Y-109156252D01*
X140822685Y-109162040D01*
X140823867Y-109171978D01*
X140870036Y-109275919D01*
X140910186Y-109315998D01*
X140942295Y-109348052D01*
X140942297Y-109348053D01*
X140950528Y-109356270D01*
X141054549Y-109402258D01*
X141080642Y-109405300D01*
X143671358Y-109405300D01*
X143682252Y-109404004D01*
X143688593Y-109403250D01*
X143688596Y-109403249D01*
X143697978Y-109402133D01*
X143801919Y-109355964D01*
X143841998Y-109315814D01*
X143874052Y-109283705D01*
X143874053Y-109283703D01*
X143882270Y-109275472D01*
X143928258Y-109171451D01*
X143931300Y-109145358D01*
X143931300Y-106754642D01*
X143930004Y-106743748D01*
X143929250Y-106737407D01*
X143929249Y-106737404D01*
X143928133Y-106728022D01*
X143881964Y-106624081D01*
X143841814Y-106584002D01*
X143809705Y-106551948D01*
X143809703Y-106551947D01*
X143801472Y-106543730D01*
X143697451Y-106497742D01*
X143671358Y-106494700D01*
X142792300Y-106494700D01*
X142724179Y-106474698D01*
X142677686Y-106421042D01*
X142666300Y-106368700D01*
X142666300Y-105306012D01*
X142686302Y-105237891D01*
X142745916Y-105188861D01*
X142886162Y-105133334D01*
X143007348Y-105041348D01*
X143099334Y-104920162D01*
X143129511Y-104843943D01*
X143145201Y-104804315D01*
X143466200Y-104804315D01*
X143466656Y-104811870D01*
X143476176Y-104890544D01*
X143480129Y-104906109D01*
X143529946Y-105031932D01*
X143538296Y-105046751D01*
X143619821Y-105154156D01*
X143631844Y-105166179D01*
X143739249Y-105247704D01*
X143754068Y-105256054D01*
X143879891Y-105305871D01*
X143895456Y-105309824D01*
X143974130Y-105319344D01*
X143981685Y-105319800D01*
X144061385Y-105319800D01*
X144076624Y-105315325D01*
X144077829Y-105313935D01*
X144079500Y-105306252D01*
X144079500Y-105301685D01*
X144587500Y-105301685D01*
X144591975Y-105316924D01*
X144593365Y-105318129D01*
X144601048Y-105319800D01*
X144685315Y-105319800D01*
X144692870Y-105319344D01*
X144771544Y-105309824D01*
X144787109Y-105305871D01*
X144912932Y-105256054D01*
X144927751Y-105247704D01*
X145035156Y-105166179D01*
X145047179Y-105154156D01*
X145128704Y-105046751D01*
X145137054Y-105031932D01*
X145186871Y-104906109D01*
X145190824Y-104890544D01*
X145200344Y-104811870D01*
X145200800Y-104804315D01*
X145200800Y-104412115D01*
X145196325Y-104396876D01*
X145194935Y-104395671D01*
X145187252Y-104394000D01*
X144605615Y-104394000D01*
X144590376Y-104398475D01*
X144589171Y-104399865D01*
X144587500Y-104407548D01*
X144587500Y-105301685D01*
X144079500Y-105301685D01*
X144079500Y-104412115D01*
X144075025Y-104396876D01*
X144073635Y-104395671D01*
X144065952Y-104394000D01*
X143484315Y-104394000D01*
X143469076Y-104398475D01*
X143467871Y-104399865D01*
X143466200Y-104407548D01*
X143466200Y-104804315D01*
X143145201Y-104804315D01*
X143152360Y-104786233D01*
X143152361Y-104786231D01*
X143155341Y-104778703D01*
X143166300Y-104688144D01*
X143166300Y-103976856D01*
X143155341Y-103886297D01*
X143149860Y-103872452D01*
X143102498Y-103752830D01*
X143099334Y-103744838D01*
X143007348Y-103623652D01*
X142886162Y-103531666D01*
X142819359Y-103505217D01*
X142752233Y-103478640D01*
X142752231Y-103478639D01*
X142744703Y-103475659D01*
X142654144Y-103464700D01*
X141317856Y-103464700D01*
X141227297Y-103475659D01*
X141219769Y-103478639D01*
X141219767Y-103478640D01*
X141152641Y-103505217D01*
X141085838Y-103531666D01*
X140964652Y-103623652D01*
X140872666Y-103744838D01*
X140869502Y-103752830D01*
X140822141Y-103872452D01*
X140816659Y-103886297D01*
X140805700Y-103976856D01*
X140805700Y-104688144D01*
X135432800Y-104688144D01*
X135432800Y-104375885D01*
X136067200Y-104375885D01*
X136071675Y-104391124D01*
X136073065Y-104392329D01*
X136080748Y-104394000D01*
X137649885Y-104394000D01*
X137665124Y-104389525D01*
X137666329Y-104388135D01*
X137668000Y-104380452D01*
X137668000Y-104375885D01*
X138176000Y-104375885D01*
X138180475Y-104391124D01*
X138181865Y-104392329D01*
X138189548Y-104394000D01*
X139758685Y-104394000D01*
X139773924Y-104389525D01*
X139775129Y-104388135D01*
X139776800Y-104380452D01*
X139776800Y-103308685D01*
X139776344Y-103301130D01*
X139766824Y-103222456D01*
X139762871Y-103206891D01*
X139713054Y-103081068D01*
X139704704Y-103066249D01*
X139623179Y-102958844D01*
X139611156Y-102946821D01*
X139503751Y-102865296D01*
X139488932Y-102856946D01*
X139363109Y-102807129D01*
X139347544Y-102803176D01*
X139268870Y-102793656D01*
X139261315Y-102793200D01*
X138194115Y-102793200D01*
X138178876Y-102797675D01*
X138177671Y-102799065D01*
X138176000Y-102806748D01*
X138176000Y-104375885D01*
X137668000Y-104375885D01*
X137668000Y-102811315D01*
X137663525Y-102796076D01*
X137662135Y-102794871D01*
X137654452Y-102793200D01*
X136582685Y-102793200D01*
X136575130Y-102793656D01*
X136496456Y-102803176D01*
X136480891Y-102807129D01*
X136355068Y-102856946D01*
X136340249Y-102865296D01*
X136232844Y-102946821D01*
X136220821Y-102958844D01*
X136139296Y-103066249D01*
X136130946Y-103081068D01*
X136081129Y-103206891D01*
X136077176Y-103222456D01*
X136067656Y-103301130D01*
X136067200Y-103308685D01*
X136067200Y-104375885D01*
X135432800Y-104375885D01*
X135432800Y-101763144D01*
X140805700Y-101763144D01*
X140816659Y-101853703D01*
X140872666Y-101995162D01*
X140964652Y-102116348D01*
X141085838Y-102208334D01*
X141099644Y-102213800D01*
X141219767Y-102261360D01*
X141219769Y-102261361D01*
X141227297Y-102264341D01*
X141317856Y-102275300D01*
X142654144Y-102275300D01*
X142744703Y-102264341D01*
X142752231Y-102261361D01*
X142752233Y-102261360D01*
X142872356Y-102213800D01*
X142886162Y-102208334D01*
X143007348Y-102116348D01*
X143008901Y-102118394D01*
X143059655Y-102090679D01*
X143086438Y-102087800D01*
X143401200Y-102087800D01*
X143469321Y-102107802D01*
X143515814Y-102161458D01*
X143527200Y-102213800D01*
X143527200Y-102268144D01*
X143538159Y-102358703D01*
X143541139Y-102366231D01*
X143541140Y-102366233D01*
X143554449Y-102399847D01*
X143594166Y-102500162D01*
X143686152Y-102621348D01*
X143692992Y-102626540D01*
X143741990Y-102663732D01*
X143807338Y-102713334D01*
X143877069Y-102740942D01*
X143933042Y-102784616D01*
X143956519Y-102851619D01*
X143940043Y-102920678D01*
X143888848Y-102969867D01*
X143877069Y-102975246D01*
X143754068Y-103023946D01*
X143739249Y-103032296D01*
X143631844Y-103113821D01*
X143619821Y-103125844D01*
X143538296Y-103233249D01*
X143529946Y-103248068D01*
X143480129Y-103373891D01*
X143476176Y-103389456D01*
X143466656Y-103468130D01*
X143466200Y-103475685D01*
X143466200Y-103867885D01*
X143470675Y-103883124D01*
X143472065Y-103884329D01*
X143479748Y-103886000D01*
X145182685Y-103886000D01*
X145197924Y-103881525D01*
X145199129Y-103880135D01*
X145200800Y-103872452D01*
X145200800Y-103475685D01*
X145200344Y-103468130D01*
X145190824Y-103389456D01*
X145186871Y-103373891D01*
X145137054Y-103248068D01*
X145128704Y-103233249D01*
X145047179Y-103125844D01*
X145035156Y-103113821D01*
X144927751Y-103032296D01*
X144912932Y-103023946D01*
X144851430Y-102999595D01*
X144795456Y-102955920D01*
X144771980Y-102888917D01*
X144788456Y-102819859D01*
X144839652Y-102770670D01*
X144851423Y-102765295D01*
X144982662Y-102713334D01*
X145048010Y-102663732D01*
X145097008Y-102626540D01*
X145103848Y-102621348D01*
X145195834Y-102500162D01*
X145235551Y-102399847D01*
X145248860Y-102366233D01*
X145248861Y-102366231D01*
X145251841Y-102358703D01*
X145262800Y-102268144D01*
X145262800Y-100931856D01*
X145251841Y-100841297D01*
X145240993Y-100813896D01*
X145198998Y-100707830D01*
X145195834Y-100699838D01*
X145103848Y-100578652D01*
X145056978Y-100543075D01*
X144989510Y-100491864D01*
X144982662Y-100486666D01*
X144911924Y-100458659D01*
X144848733Y-100433640D01*
X144848731Y-100433639D01*
X144841203Y-100430659D01*
X144750644Y-100419700D01*
X144039356Y-100419700D01*
X143948797Y-100430659D01*
X143941269Y-100433639D01*
X143941267Y-100433640D01*
X143878076Y-100458659D01*
X143807338Y-100486666D01*
X143800490Y-100491864D01*
X143733023Y-100543075D01*
X143686152Y-100578652D01*
X143611211Y-100677382D01*
X143554096Y-100719547D01*
X143510851Y-100727200D01*
X143086438Y-100727200D01*
X143018317Y-100707198D01*
X143007486Y-100698470D01*
X143007348Y-100698652D01*
X142893010Y-100611864D01*
X142886162Y-100606666D01*
X142815406Y-100578652D01*
X142752233Y-100553640D01*
X142752231Y-100553639D01*
X142744703Y-100550659D01*
X142654144Y-100539700D01*
X141317856Y-100539700D01*
X141227297Y-100550659D01*
X141219769Y-100553639D01*
X141219767Y-100553640D01*
X141156594Y-100578652D01*
X141085838Y-100606666D01*
X141078990Y-100611864D01*
X140992677Y-100677380D01*
X140964652Y-100698652D01*
X140872666Y-100819838D01*
X140869502Y-100827830D01*
X140841048Y-100899698D01*
X140816659Y-100961297D01*
X140805700Y-101051856D01*
X140805700Y-101763144D01*
X135432800Y-101763144D01*
X135432800Y-99236800D01*
X135452802Y-99168679D01*
X135506458Y-99122186D01*
X135558800Y-99110800D01*
X151258000Y-99110800D01*
X151326121Y-99130802D01*
G37*
%TD.AperFunction*%
%TD*%
%TA.AperFunction,Conductor*%
%TO.N,GND*%
G36*
X170833321Y-99130802D02*
G01*
X170879814Y-99184458D01*
X170891200Y-99236800D01*
X170891200Y-115647200D01*
X170871198Y-115715321D01*
X170817542Y-115761814D01*
X170765200Y-115773200D01*
X158622000Y-115773200D01*
X158553879Y-115753198D01*
X158507386Y-115699542D01*
X158496000Y-115647200D01*
X158496000Y-114921988D01*
X167287178Y-114921988D01*
X167294569Y-114932292D01*
X167329293Y-114960561D01*
X167336581Y-114965683D01*
X167553968Y-115096561D01*
X167561892Y-115100598D01*
X167795560Y-115199545D01*
X167803965Y-115202423D01*
X168049255Y-115267459D01*
X168057976Y-115269123D01*
X168309988Y-115298951D01*
X168318853Y-115299369D01*
X168572539Y-115293390D01*
X168581399Y-115292553D01*
X168831699Y-115250892D01*
X168840356Y-115248813D01*
X169082296Y-115172298D01*
X169090557Y-115169027D01*
X169319305Y-115059183D01*
X169327029Y-115054777D01*
X169508910Y-114933248D01*
X169517198Y-114923330D01*
X169509941Y-114909151D01*
X168414812Y-113814022D01*
X168400868Y-113806408D01*
X168399035Y-113806539D01*
X168392420Y-113810790D01*
X167294344Y-114908866D01*
X167287178Y-114921988D01*
X158496000Y-114921988D01*
X158496000Y-113388042D01*
X166543555Y-113388042D01*
X166553517Y-113641606D01*
X166554492Y-113650435D01*
X166600083Y-113900068D01*
X166602292Y-113908671D01*
X166682600Y-114149385D01*
X166686004Y-114157603D01*
X166799427Y-114384600D01*
X166803951Y-114392248D01*
X166911594Y-114547993D01*
X166921915Y-114556347D01*
X166935565Y-114549225D01*
X168029978Y-113454812D01*
X168036356Y-113443132D01*
X168766408Y-113443132D01*
X168766539Y-113444965D01*
X168770790Y-113451580D01*
X169869756Y-114550546D01*
X169883156Y-114557863D01*
X169893060Y-114550876D01*
X169903531Y-114538420D01*
X169908757Y-114531226D01*
X170043038Y-114315914D01*
X170047199Y-114308054D01*
X170149799Y-114075978D01*
X170152815Y-114067601D01*
X170221691Y-113823384D01*
X170223495Y-113814676D01*
X170257442Y-113561942D01*
X170257970Y-113555550D01*
X170261437Y-113445222D01*
X170261310Y-113438779D01*
X170243302Y-113184441D01*
X170242049Y-113175631D01*
X170188639Y-112927552D01*
X170186163Y-112919031D01*
X170098330Y-112680950D01*
X170094675Y-112672855D01*
X169974178Y-112449536D01*
X169969410Y-112442022D01*
X169891715Y-112336832D01*
X169880588Y-112328391D01*
X169867995Y-112335215D01*
X168774022Y-113429188D01*
X168766408Y-113443132D01*
X168036356Y-113443132D01*
X168037592Y-113440868D01*
X168037461Y-113439035D01*
X168033210Y-113432420D01*
X166935701Y-112334911D01*
X166922861Y-112327900D01*
X166912169Y-112335697D01*
X166866772Y-112393283D01*
X166861774Y-112400639D01*
X166734321Y-112620066D01*
X166730413Y-112628040D01*
X166635148Y-112863238D01*
X166632399Y-112871700D01*
X166571226Y-113117966D01*
X166569698Y-113126724D01*
X166543834Y-113379158D01*
X166543555Y-113388042D01*
X158496000Y-113388042D01*
X158496000Y-111962827D01*
X167288183Y-111962827D01*
X167295163Y-111975953D01*
X168389188Y-113069978D01*
X168403132Y-113077592D01*
X168404965Y-113077461D01*
X168411580Y-113073210D01*
X169508846Y-111975944D01*
X169515700Y-111963392D01*
X169507493Y-111952321D01*
X169426470Y-111890486D01*
X169419045Y-111885609D01*
X169197633Y-111761613D01*
X169189606Y-111757836D01*
X168952922Y-111666270D01*
X168944449Y-111663663D01*
X168697234Y-111606362D01*
X168688457Y-111604972D01*
X168435640Y-111583075D01*
X168426769Y-111582935D01*
X168173381Y-111596880D01*
X168164571Y-111597994D01*
X167915690Y-111647499D01*
X167907114Y-111649845D01*
X167667695Y-111733922D01*
X167659529Y-111737456D01*
X167434348Y-111854429D01*
X167426765Y-111859076D01*
X167296587Y-111952103D01*
X167288183Y-111962827D01*
X158496000Y-111962827D01*
X158496000Y-111031371D01*
X159252200Y-111031371D01*
X159252656Y-111038925D01*
X159261683Y-111113522D01*
X159265637Y-111129093D01*
X159312927Y-111248534D01*
X159321289Y-111263373D01*
X159398661Y-111365307D01*
X159410693Y-111377339D01*
X159512627Y-111454711D01*
X159527466Y-111463073D01*
X159646907Y-111510363D01*
X159662478Y-111514317D01*
X159736623Y-111523290D01*
X159750124Y-111519325D01*
X159751329Y-111517935D01*
X159753000Y-111510252D01*
X159753000Y-111016115D01*
X159748525Y-111000876D01*
X159747135Y-110999671D01*
X159739452Y-110998000D01*
X159270315Y-110998000D01*
X159255076Y-111002475D01*
X159253871Y-111003865D01*
X159252200Y-111011548D01*
X159252200Y-111031371D01*
X158496000Y-111031371D01*
X158496000Y-107869687D01*
X158516002Y-107801566D01*
X158569658Y-107755073D01*
X158639932Y-107744969D01*
X158687270Y-107761911D01*
X158781650Y-107819069D01*
X158788897Y-107821340D01*
X158788899Y-107821341D01*
X158928879Y-107865208D01*
X158987901Y-107904666D01*
X159016221Y-107969769D01*
X159017200Y-107985442D01*
X159017200Y-108423482D01*
X159016327Y-108438290D01*
X159012554Y-108470168D01*
X159014246Y-108479432D01*
X159014246Y-108479433D01*
X159022611Y-108525233D01*
X159023261Y-108529139D01*
X159030003Y-108573983D01*
X159031577Y-108584455D01*
X159034562Y-108590671D01*
X159035801Y-108597456D01*
X159051953Y-108628549D01*
X159061600Y-108647119D01*
X159063369Y-108650659D01*
X159087588Y-108701096D01*
X159092271Y-108706162D01*
X159095449Y-108712280D01*
X159099570Y-108717106D01*
X159135072Y-108752608D01*
X159138501Y-108756174D01*
X159175419Y-108796112D01*
X159181552Y-108799675D01*
X159187177Y-108804713D01*
X159214795Y-108832331D01*
X159248821Y-108894643D01*
X159251700Y-108921426D01*
X159251701Y-109169493D01*
X159251701Y-109288828D01*
X159252070Y-109292222D01*
X159252070Y-109292228D01*
X159257559Y-109342764D01*
X159257560Y-109342768D01*
X159258413Y-109350622D01*
X159309220Y-109486152D01*
X159314600Y-109493331D01*
X159314602Y-109493334D01*
X159367881Y-109564423D01*
X159396025Y-109601975D01*
X159403206Y-109607357D01*
X159504666Y-109683398D01*
X159504669Y-109683400D01*
X159511848Y-109688780D01*
X159610734Y-109725850D01*
X159647378Y-109739587D01*
X159646442Y-109742083D01*
X159696896Y-109770900D01*
X159729722Y-109833852D01*
X159723302Y-109904558D01*
X159679675Y-109960568D01*
X159652494Y-109975425D01*
X159527466Y-110024927D01*
X159512627Y-110033289D01*
X159410693Y-110110661D01*
X159398661Y-110122693D01*
X159321289Y-110224627D01*
X159312927Y-110239466D01*
X159265637Y-110358907D01*
X159261683Y-110374478D01*
X159252656Y-110449075D01*
X159252200Y-110456629D01*
X159252200Y-110471885D01*
X159256675Y-110487124D01*
X159258065Y-110488329D01*
X159265748Y-110490000D01*
X160135000Y-110490000D01*
X160203121Y-110510002D01*
X160249614Y-110563658D01*
X160261000Y-110616000D01*
X160261000Y-111505685D01*
X160265475Y-111520924D01*
X160266865Y-111522129D01*
X160273424Y-111523556D01*
X160276925Y-111523344D01*
X160351522Y-111514317D01*
X160367093Y-111510363D01*
X160486534Y-111463073D01*
X160501373Y-111454711D01*
X160603307Y-111377339D01*
X160615339Y-111365307D01*
X160681324Y-111278376D01*
X160738442Y-111236209D01*
X160809290Y-111231617D01*
X160871374Y-111266057D01*
X160882048Y-111278376D01*
X160947673Y-111364832D01*
X160953496Y-111372504D01*
X160960336Y-111377696D01*
X160968824Y-111384139D01*
X161069226Y-111460349D01*
X161204316Y-111513835D01*
X161212353Y-111514808D01*
X161212355Y-111514808D01*
X161244124Y-111518652D01*
X161290797Y-111524300D01*
X161556789Y-111524300D01*
X161823202Y-111524299D01*
X161864311Y-111519325D01*
X161901655Y-111514807D01*
X161901659Y-111514806D01*
X161909684Y-111513835D01*
X161917201Y-111510859D01*
X161917204Y-111510858D01*
X161986100Y-111483580D01*
X162044774Y-111460349D01*
X162145176Y-111384139D01*
X162153664Y-111377696D01*
X162160504Y-111372504D01*
X162166328Y-111364832D01*
X162243154Y-111263618D01*
X162248349Y-111256774D01*
X162251511Y-111248787D01*
X162255729Y-111241302D01*
X162258223Y-111242708D01*
X162293169Y-111197933D01*
X162366633Y-111174300D01*
X163014442Y-111174300D01*
X163082563Y-111194302D01*
X163129056Y-111247958D01*
X163134936Y-111264152D01*
X163135867Y-111271978D01*
X163182036Y-111375919D01*
X163222186Y-111415998D01*
X163254295Y-111448052D01*
X163254297Y-111448053D01*
X163262528Y-111456270D01*
X163366549Y-111502258D01*
X163392642Y-111505300D01*
X165283358Y-111505300D01*
X165294252Y-111504004D01*
X165300593Y-111503250D01*
X165300596Y-111503249D01*
X165309978Y-111502133D01*
X165396928Y-111463511D01*
X165403284Y-111460688D01*
X165413919Y-111455964D01*
X165453998Y-111415814D01*
X165486052Y-111383705D01*
X165486053Y-111383703D01*
X165494270Y-111375472D01*
X165540258Y-111271451D01*
X165543300Y-111245358D01*
X165543300Y-110506300D01*
X165563302Y-110438179D01*
X165616958Y-110391686D01*
X165669300Y-110380300D01*
X167892982Y-110380300D01*
X167907790Y-110381173D01*
X167939668Y-110384946D01*
X167948932Y-110383254D01*
X167948933Y-110383254D01*
X167994733Y-110374889D01*
X167998639Y-110374239D01*
X168044644Y-110367323D01*
X168044645Y-110367323D01*
X168053955Y-110365923D01*
X168060171Y-110362938D01*
X168066956Y-110361699D01*
X168116622Y-110335899D01*
X168120162Y-110334130D01*
X168162104Y-110313990D01*
X168162105Y-110313989D01*
X168170596Y-110309912D01*
X168175662Y-110305229D01*
X168181780Y-110302051D01*
X168186606Y-110297930D01*
X168222108Y-110262428D01*
X168225675Y-110258998D01*
X168229112Y-110255821D01*
X168265612Y-110222081D01*
X168269175Y-110215948D01*
X168274213Y-110210323D01*
X168682919Y-109801617D01*
X168694008Y-109791762D01*
X168711821Y-109777719D01*
X168719218Y-109771888D01*
X168751070Y-109725803D01*
X168753338Y-109722630D01*
X168780982Y-109685203D01*
X168786580Y-109677624D01*
X168788865Y-109671117D01*
X168792786Y-109665444D01*
X168809659Y-109612092D01*
X168810911Y-109608339D01*
X168826333Y-109564423D01*
X168826333Y-109564421D01*
X168829452Y-109555540D01*
X168829723Y-109548648D01*
X168831802Y-109542074D01*
X168832300Y-109535747D01*
X168832300Y-109485549D01*
X168832397Y-109480601D01*
X168834163Y-109435657D01*
X168834533Y-109426248D01*
X168832715Y-109419392D01*
X168832300Y-109411847D01*
X168832300Y-109344187D01*
X168852302Y-109276066D01*
X168905958Y-109229573D01*
X168920307Y-109224052D01*
X169082476Y-109172765D01*
X169082475Y-109172765D01*
X169086726Y-109171421D01*
X169323572Y-109057688D01*
X169327278Y-109055212D01*
X169538323Y-108914197D01*
X169538327Y-108914194D01*
X169542031Y-108911719D01*
X169545348Y-108908748D01*
X169545352Y-108908745D01*
X169734425Y-108739397D01*
X169734426Y-108739396D01*
X169737743Y-108736425D01*
X169906803Y-108535303D01*
X169910648Y-108529139D01*
X169992517Y-108397867D01*
X170045839Y-108312368D01*
X170077802Y-108240070D01*
X170150277Y-108076133D01*
X170152075Y-108072066D01*
X170223393Y-107819192D01*
X170246641Y-107646110D01*
X170257942Y-107561974D01*
X170257942Y-107561969D01*
X170258369Y-107558793D01*
X170260111Y-107503355D01*
X170261938Y-107445222D01*
X170261938Y-107445217D01*
X170262039Y-107442000D01*
X170243483Y-107179918D01*
X170188184Y-106923066D01*
X170097246Y-106676567D01*
X169972483Y-106445341D01*
X169816385Y-106234001D01*
X169795510Y-106212795D01*
X169635197Y-106049945D01*
X169632066Y-106046764D01*
X169423204Y-105887366D01*
X169363632Y-105854004D01*
X169197852Y-105761162D01*
X169197849Y-105761161D01*
X169193966Y-105758986D01*
X168948926Y-105664188D01*
X168944601Y-105663185D01*
X168944596Y-105663184D01*
X168842192Y-105639448D01*
X168692974Y-105604861D01*
X168431216Y-105582190D01*
X168426781Y-105582434D01*
X168426777Y-105582434D01*
X168319613Y-105588332D01*
X168168875Y-105596628D01*
X167911186Y-105647886D01*
X167798171Y-105687574D01*
X167667497Y-105733463D01*
X167667494Y-105733464D01*
X167663289Y-105734941D01*
X167659336Y-105736994D01*
X167659330Y-105736997D01*
X167617000Y-105758986D01*
X167430132Y-105856056D01*
X167426517Y-105858639D01*
X167426511Y-105858643D01*
X167377176Y-105893899D01*
X167216367Y-106008815D01*
X167213140Y-106011893D01*
X167213138Y-106011895D01*
X167095936Y-106123700D01*
X167026257Y-106190170D01*
X166863598Y-106396503D01*
X166835231Y-106445341D01*
X166733868Y-106619849D01*
X166733865Y-106619855D01*
X166731634Y-106623696D01*
X166632998Y-106867216D01*
X166631927Y-106871529D01*
X166631925Y-106871534D01*
X166573959Y-107104889D01*
X166569658Y-107122205D01*
X166569204Y-107126633D01*
X166569204Y-107126635D01*
X166550610Y-107308120D01*
X166542879Y-107383575D01*
X166543054Y-107388027D01*
X166547392Y-107498427D01*
X166553194Y-107646110D01*
X166600398Y-107904573D01*
X166683548Y-108153806D01*
X166685540Y-108157793D01*
X166685541Y-108157795D01*
X166775188Y-108337206D01*
X166800986Y-108388837D01*
X166806455Y-108396750D01*
X166945172Y-108597456D01*
X166950369Y-108604976D01*
X167128716Y-108797910D01*
X167132170Y-108800722D01*
X167329011Y-108960976D01*
X167329015Y-108960979D01*
X167332468Y-108963790D01*
X167557560Y-109099307D01*
X167799501Y-109201756D01*
X167803800Y-109202896D01*
X167806925Y-109203966D01*
X167864891Y-109244958D01*
X167891494Y-109310783D01*
X167878286Y-109380540D01*
X167855199Y-109412265D01*
X167784669Y-109482795D01*
X167722357Y-109516821D01*
X167695574Y-109519700D01*
X165669300Y-109519700D01*
X165601179Y-109499698D01*
X165554686Y-109446042D01*
X165543300Y-109393700D01*
X165543300Y-108654642D01*
X165541531Y-108639772D01*
X165541250Y-108637407D01*
X165541249Y-108637404D01*
X165540133Y-108628022D01*
X165509288Y-108558581D01*
X165498688Y-108534716D01*
X165493964Y-108524081D01*
X165449238Y-108479433D01*
X165421705Y-108451948D01*
X165421703Y-108451947D01*
X165413472Y-108443730D01*
X165309451Y-108397742D01*
X165283358Y-108394700D01*
X163392642Y-108394700D01*
X163381748Y-108395996D01*
X163375407Y-108396750D01*
X163375404Y-108396751D01*
X163366022Y-108397867D01*
X163308355Y-108423482D01*
X163274171Y-108438666D01*
X163262081Y-108444036D01*
X163235995Y-108470168D01*
X163189948Y-108516295D01*
X163189947Y-108516297D01*
X163181730Y-108524528D01*
X163135742Y-108628549D01*
X163132700Y-108654642D01*
X163132700Y-110187700D01*
X163112698Y-110255821D01*
X163059042Y-110302314D01*
X163006700Y-110313700D01*
X162366633Y-110313700D01*
X162298512Y-110293698D01*
X162258545Y-110245111D01*
X162255729Y-110246698D01*
X162251511Y-110239213D01*
X162248349Y-110231226D01*
X162160504Y-110115496D01*
X162087120Y-110059794D01*
X162044953Y-110002676D01*
X162037300Y-109959432D01*
X162037300Y-109762938D01*
X162057302Y-109694817D01*
X162087735Y-109662112D01*
X162160794Y-109607357D01*
X162167975Y-109601975D01*
X162196119Y-109564423D01*
X162249398Y-109493334D01*
X162249400Y-109493331D01*
X162254780Y-109486152D01*
X162280394Y-109417826D01*
X162302815Y-109358017D01*
X162302815Y-109358015D01*
X162305587Y-109350622D01*
X162312300Y-109288829D01*
X162312299Y-108643172D01*
X162310711Y-108628549D01*
X162306441Y-108589236D01*
X162306440Y-108589230D01*
X162305587Y-108581378D01*
X162254780Y-108445848D01*
X162249400Y-108438669D01*
X162249398Y-108438666D01*
X162173357Y-108337206D01*
X162167975Y-108330025D01*
X162149451Y-108316142D01*
X162059334Y-108248602D01*
X162059331Y-108248600D01*
X162052152Y-108243220D01*
X162008948Y-108227024D01*
X161924017Y-108195185D01*
X161924015Y-108195185D01*
X161916622Y-108192413D01*
X161908772Y-108191560D01*
X161908771Y-108191560D01*
X161858226Y-108186069D01*
X161858225Y-108186069D01*
X161854829Y-108185700D01*
X161607073Y-108185700D01*
X161359172Y-108185701D01*
X161355778Y-108186070D01*
X161355772Y-108186070D01*
X161305236Y-108191559D01*
X161305232Y-108191560D01*
X161297378Y-108192413D01*
X161161848Y-108243220D01*
X161154669Y-108248600D01*
X161154666Y-108248602D01*
X161064549Y-108316142D01*
X161046025Y-108330025D01*
X161040643Y-108337206D01*
X160964602Y-108438666D01*
X160964600Y-108438669D01*
X160959220Y-108445848D01*
X160908413Y-108581378D01*
X160907560Y-108589230D01*
X160907263Y-108591963D01*
X160906438Y-108593950D01*
X160905732Y-108596917D01*
X160905252Y-108596803D01*
X160880023Y-108657526D01*
X160821660Y-108697953D01*
X160750706Y-108700410D01*
X160689688Y-108664116D01*
X160657978Y-108600595D01*
X160656737Y-108591966D01*
X160656596Y-108590671D01*
X160655587Y-108581378D01*
X160604780Y-108445848D01*
X160599400Y-108438669D01*
X160599398Y-108438666D01*
X160523357Y-108337206D01*
X160517975Y-108330025D01*
X160499451Y-108316142D01*
X160409334Y-108248602D01*
X160409331Y-108248600D01*
X160402152Y-108243220D01*
X160358948Y-108227024D01*
X160274017Y-108195185D01*
X160274015Y-108195185D01*
X160266622Y-108192413D01*
X160258772Y-108191560D01*
X160258771Y-108191560D01*
X160208226Y-108186069D01*
X160208225Y-108186069D01*
X160204829Y-108185700D01*
X160196197Y-108185700D01*
X160003800Y-108185701D01*
X159935680Y-108165699D01*
X159889187Y-108112044D01*
X159877800Y-108059701D01*
X159877800Y-107985442D01*
X159897802Y-107917321D01*
X159951458Y-107870828D01*
X159966121Y-107865208D01*
X160106101Y-107821341D01*
X160106103Y-107821340D01*
X160113350Y-107819069D01*
X160255487Y-107732988D01*
X160372988Y-107615487D01*
X160459069Y-107473350D01*
X160462948Y-107460974D01*
X160492935Y-107365284D01*
X160508761Y-107314783D01*
X160515300Y-107243621D01*
X160515300Y-107236300D01*
X160535302Y-107168179D01*
X160588958Y-107121686D01*
X160641300Y-107110300D01*
X162272982Y-107110300D01*
X162287790Y-107111173D01*
X162319668Y-107114946D01*
X162328932Y-107113254D01*
X162328933Y-107113254D01*
X162374733Y-107104889D01*
X162378639Y-107104239D01*
X162424644Y-107097323D01*
X162424645Y-107097323D01*
X162433955Y-107095923D01*
X162440171Y-107092938D01*
X162446956Y-107091699D01*
X162496622Y-107065899D01*
X162500162Y-107064130D01*
X162542104Y-107043990D01*
X162542105Y-107043989D01*
X162550596Y-107039912D01*
X162555662Y-107035229D01*
X162561780Y-107032051D01*
X162566606Y-107027930D01*
X162602108Y-106992428D01*
X162605675Y-106988998D01*
X162645612Y-106952081D01*
X162649175Y-106945948D01*
X162654213Y-106940323D01*
X162917605Y-106676931D01*
X162979917Y-106642905D01*
X163050732Y-106647970D01*
X163107568Y-106690517D01*
X163132379Y-106757037D01*
X163132700Y-106766026D01*
X163132700Y-107245358D01*
X163133996Y-107256252D01*
X163134685Y-107262040D01*
X163135867Y-107271978D01*
X163182036Y-107375919D01*
X163222186Y-107415998D01*
X163254295Y-107448052D01*
X163254297Y-107448053D01*
X163262528Y-107456270D01*
X163366549Y-107502258D01*
X163392642Y-107505300D01*
X165283358Y-107505300D01*
X165294252Y-107504004D01*
X165300593Y-107503250D01*
X165300596Y-107503249D01*
X165309978Y-107502133D01*
X165379419Y-107471288D01*
X165403284Y-107460688D01*
X165413919Y-107455964D01*
X165481737Y-107388027D01*
X165486052Y-107383705D01*
X165486053Y-107383703D01*
X165494270Y-107375472D01*
X165540258Y-107271451D01*
X165543300Y-107245358D01*
X165543300Y-104654642D01*
X165540133Y-104628022D01*
X165493964Y-104524081D01*
X165453814Y-104484002D01*
X165421705Y-104451948D01*
X165421703Y-104451947D01*
X165413472Y-104443730D01*
X165309451Y-104397742D01*
X165283358Y-104394700D01*
X163624300Y-104394700D01*
X163556179Y-104374698D01*
X163509686Y-104321042D01*
X163498300Y-104268700D01*
X163498300Y-103891299D01*
X163518302Y-103823178D01*
X163571958Y-103776685D01*
X163624300Y-103765299D01*
X163644828Y-103765299D01*
X163648222Y-103764930D01*
X163648228Y-103764930D01*
X163698764Y-103759441D01*
X163698768Y-103759440D01*
X163706622Y-103758587D01*
X163842152Y-103707780D01*
X163849331Y-103702400D01*
X163849334Y-103702398D01*
X163950794Y-103626357D01*
X163957975Y-103620975D01*
X163993524Y-103573543D01*
X164039398Y-103512334D01*
X164039400Y-103512331D01*
X164044780Y-103505152D01*
X164095587Y-103369622D01*
X164097228Y-103354522D01*
X164101931Y-103311226D01*
X164101931Y-103311225D01*
X164102300Y-103307829D01*
X164102299Y-102812172D01*
X164100991Y-102800129D01*
X164096441Y-102758236D01*
X164096440Y-102758232D01*
X164095587Y-102750378D01*
X164044780Y-102614848D01*
X164039400Y-102607669D01*
X164039398Y-102607666D01*
X163963357Y-102506206D01*
X163957975Y-102499025D01*
X163950794Y-102493643D01*
X163849334Y-102417602D01*
X163849331Y-102417600D01*
X163842152Y-102412220D01*
X163791815Y-102393350D01*
X163714017Y-102364185D01*
X163714015Y-102364185D01*
X163706622Y-102361413D01*
X163698284Y-102360507D01*
X163696037Y-102360263D01*
X163694050Y-102359438D01*
X163691083Y-102358732D01*
X163691197Y-102358252D01*
X163630474Y-102333023D01*
X163590047Y-102274660D01*
X163587590Y-102203706D01*
X163623884Y-102142688D01*
X163687405Y-102110978D01*
X163696032Y-102109737D01*
X163706622Y-102108587D01*
X163842152Y-102057780D01*
X163849331Y-102052400D01*
X163849334Y-102052398D01*
X163950794Y-101976357D01*
X163957975Y-101970975D01*
X164018112Y-101890735D01*
X164074972Y-101848220D01*
X164118938Y-101840300D01*
X166420701Y-101840300D01*
X166488822Y-101860302D01*
X166535315Y-101913958D01*
X166546701Y-101966300D01*
X166546701Y-102785144D01*
X166547156Y-102788902D01*
X166547156Y-102788907D01*
X166555104Y-102854587D01*
X166557659Y-102875704D01*
X166560637Y-102883225D01*
X166560637Y-102883226D01*
X166577045Y-102924667D01*
X166613666Y-103017162D01*
X166618859Y-103024004D01*
X166618861Y-103024007D01*
X166700460Y-103131508D01*
X166705652Y-103138348D01*
X166712492Y-103143540D01*
X166819993Y-103225139D01*
X166819996Y-103225141D01*
X166826838Y-103230334D01*
X166968296Y-103286341D01*
X166976334Y-103287314D01*
X166976335Y-103287314D01*
X166999757Y-103290148D01*
X167058855Y-103297300D01*
X168401114Y-103297300D01*
X169745144Y-103297299D01*
X169748902Y-103296844D01*
X169748907Y-103296844D01*
X169827674Y-103287313D01*
X169827677Y-103287312D01*
X169835704Y-103286341D01*
X169977162Y-103230334D01*
X169984004Y-103225141D01*
X169984007Y-103225139D01*
X170091508Y-103143540D01*
X170098348Y-103138348D01*
X170103540Y-103131508D01*
X170185139Y-103024007D01*
X170185141Y-103024004D01*
X170190334Y-103017162D01*
X170246341Y-102875704D01*
X170248897Y-102854587D01*
X170254441Y-102808772D01*
X170257300Y-102785145D01*
X170257299Y-100098856D01*
X170256844Y-100095093D01*
X170247313Y-100016326D01*
X170247312Y-100016323D01*
X170246341Y-100008296D01*
X170190334Y-99866838D01*
X170185141Y-99859996D01*
X170185139Y-99859993D01*
X170103540Y-99752492D01*
X170098348Y-99745652D01*
X170091508Y-99740460D01*
X169984007Y-99658861D01*
X169984004Y-99658859D01*
X169977162Y-99653666D01*
X169835704Y-99597659D01*
X169827666Y-99596686D01*
X169827665Y-99596686D01*
X169804243Y-99593852D01*
X169745145Y-99586700D01*
X168402886Y-99586700D01*
X167058856Y-99586701D01*
X167055098Y-99587156D01*
X167055093Y-99587156D01*
X166976326Y-99596687D01*
X166976323Y-99596688D01*
X166968296Y-99597659D01*
X166826838Y-99653666D01*
X166819996Y-99658859D01*
X166819993Y-99658861D01*
X166712492Y-99740460D01*
X166705652Y-99745652D01*
X166700460Y-99752492D01*
X166618861Y-99859993D01*
X166618859Y-99859996D01*
X166613666Y-99866838D01*
X166557659Y-100008296D01*
X166546700Y-100098855D01*
X166546700Y-100853700D01*
X166526698Y-100921821D01*
X166473042Y-100968314D01*
X166420700Y-100979700D01*
X164118938Y-100979700D01*
X164050817Y-100959698D01*
X164018112Y-100929265D01*
X163963357Y-100856206D01*
X163957975Y-100849025D01*
X163950794Y-100843643D01*
X163849334Y-100767602D01*
X163849331Y-100767600D01*
X163842152Y-100762220D01*
X163714038Y-100714193D01*
X163714017Y-100714185D01*
X163714015Y-100714185D01*
X163706622Y-100711413D01*
X163698772Y-100710560D01*
X163698771Y-100710560D01*
X163648226Y-100705069D01*
X163648225Y-100705069D01*
X163644829Y-100704700D01*
X163322048Y-100704700D01*
X162999172Y-100704701D01*
X162995778Y-100705070D01*
X162995772Y-100705070D01*
X162945236Y-100710559D01*
X162945232Y-100710560D01*
X162937378Y-100711413D01*
X162801848Y-100762220D01*
X162794669Y-100767600D01*
X162794666Y-100767602D01*
X162693206Y-100843643D01*
X162686025Y-100849025D01*
X162680643Y-100856206D01*
X162625888Y-100929265D01*
X162569028Y-100971780D01*
X162525062Y-100979700D01*
X162328568Y-100979700D01*
X162260447Y-100959698D01*
X162228206Y-100929880D01*
X162177696Y-100863336D01*
X162172504Y-100856496D01*
X162162662Y-100849025D01*
X162063618Y-100773846D01*
X162056774Y-100768651D01*
X161921684Y-100715165D01*
X161913647Y-100714192D01*
X161913645Y-100714192D01*
X161881876Y-100710348D01*
X161835203Y-100704700D01*
X161544231Y-100704700D01*
X161252798Y-100704701D01*
X161214456Y-100709340D01*
X161174345Y-100714193D01*
X161174341Y-100714194D01*
X161166316Y-100715165D01*
X161158799Y-100718141D01*
X161158796Y-100718142D01*
X161089900Y-100745420D01*
X161031226Y-100768651D01*
X161024382Y-100773846D01*
X160925339Y-100849025D01*
X160915496Y-100856496D01*
X160910304Y-100863336D01*
X160832846Y-100965381D01*
X160832844Y-100965385D01*
X160827651Y-100972226D01*
X160826666Y-100971478D01*
X160781880Y-101015084D01*
X160722976Y-101029700D01*
X160621525Y-101029700D01*
X160553404Y-101009698D01*
X160506911Y-100956042D01*
X160501291Y-100941380D01*
X160461340Y-100813897D01*
X160459069Y-100806650D01*
X160372988Y-100664513D01*
X160255487Y-100547012D01*
X160113350Y-100460931D01*
X160106103Y-100458660D01*
X160106101Y-100458659D01*
X160041804Y-100438510D01*
X159954783Y-100411239D01*
X159883621Y-100404700D01*
X159880723Y-100404700D01*
X159446369Y-100404701D01*
X159011380Y-100404701D01*
X159008521Y-100404964D01*
X159008514Y-100404964D01*
X158982306Y-100407372D01*
X158940217Y-100411239D01*
X158859537Y-100436523D01*
X158788899Y-100458659D01*
X158788897Y-100458660D01*
X158781650Y-100460931D01*
X158687271Y-100518089D01*
X158618642Y-100536268D01*
X158551078Y-100514458D01*
X158506032Y-100459582D01*
X158496000Y-100410313D01*
X158496000Y-99236800D01*
X158516002Y-99168679D01*
X158569658Y-99122186D01*
X158622000Y-99110800D01*
X170765200Y-99110800D01*
X170833321Y-99130802D01*
G37*
%TD.AperFunction*%
%TA.AperFunction,Conductor*%
G36*
X160791097Y-101910302D02*
G01*
X160826954Y-101948303D01*
X160827651Y-101947774D01*
X160832844Y-101954615D01*
X160832846Y-101954619D01*
X160907066Y-102052398D01*
X160915496Y-102063504D01*
X160922336Y-102068696D01*
X161009624Y-102134952D01*
X161051791Y-102192070D01*
X161056383Y-102262918D01*
X161021943Y-102325002D01*
X161009624Y-102335676D01*
X160922693Y-102401661D01*
X160910661Y-102413693D01*
X160833289Y-102515627D01*
X160824927Y-102530466D01*
X160777637Y-102649907D01*
X160773683Y-102665478D01*
X160764710Y-102739623D01*
X160768675Y-102753124D01*
X160770065Y-102754329D01*
X160777748Y-102756000D01*
X161672000Y-102756000D01*
X161740121Y-102776002D01*
X161786614Y-102829658D01*
X161798000Y-102882000D01*
X161798000Y-103746685D01*
X161802475Y-103761924D01*
X161803865Y-103763129D01*
X161811548Y-103764800D01*
X161831371Y-103764800D01*
X161838925Y-103764344D01*
X161913522Y-103755317D01*
X161929093Y-103751363D01*
X162048534Y-103704073D01*
X162063373Y-103695711D01*
X162165307Y-103618339D01*
X162177339Y-103606307D01*
X162254711Y-103504373D01*
X162263073Y-103489534D01*
X162312575Y-103364506D01*
X162356249Y-103308532D01*
X162423252Y-103285055D01*
X162492311Y-103301531D01*
X162541499Y-103352726D01*
X162547869Y-103369826D01*
X162548413Y-103369622D01*
X162599220Y-103505152D01*
X162604601Y-103512332D01*
X162604604Y-103512337D01*
X162612526Y-103522907D01*
X162637374Y-103589413D01*
X162637700Y-103598472D01*
X162637700Y-105687574D01*
X162617698Y-105755695D01*
X162600795Y-105776669D01*
X162164669Y-106212795D01*
X162102357Y-106246821D01*
X162075574Y-106249700D01*
X160641299Y-106249700D01*
X160573178Y-106229698D01*
X160526685Y-106176042D01*
X160515299Y-106123700D01*
X160515299Y-106116380D01*
X160508761Y-106045217D01*
X160459069Y-105886650D01*
X160372988Y-105744513D01*
X160255487Y-105627012D01*
X160113350Y-105540931D01*
X160078380Y-105529972D01*
X160019360Y-105490516D01*
X159991040Y-105425413D01*
X160002412Y-105355333D01*
X160049868Y-105302527D01*
X160078380Y-105289505D01*
X160105897Y-105280881D01*
X160119640Y-105274676D01*
X160248676Y-105196529D01*
X160260553Y-105187216D01*
X160367216Y-105080553D01*
X160376529Y-105068676D01*
X160454676Y-104939640D01*
X160460883Y-104925894D01*
X160506266Y-104781075D01*
X160508879Y-104768028D01*
X160514534Y-104706482D01*
X160514800Y-104700693D01*
X160514800Y-104412115D01*
X160510325Y-104396876D01*
X160508935Y-104395671D01*
X160501252Y-104394000D01*
X159319500Y-104394000D01*
X159251379Y-104373998D01*
X159204886Y-104320342D01*
X159193500Y-104268000D01*
X159193500Y-104012000D01*
X159213502Y-103943879D01*
X159267158Y-103897386D01*
X159319500Y-103886000D01*
X160496684Y-103886000D01*
X160511923Y-103881525D01*
X160513128Y-103880135D01*
X160514799Y-103872452D01*
X160514799Y-103579293D01*
X160514536Y-103573543D01*
X160508878Y-103511963D01*
X160506268Y-103498930D01*
X160460883Y-103354106D01*
X160454676Y-103340360D01*
X160415955Y-103276424D01*
X160764444Y-103276424D01*
X160764656Y-103279925D01*
X160773683Y-103354522D01*
X160777637Y-103370093D01*
X160824927Y-103489534D01*
X160833289Y-103504373D01*
X160910661Y-103606307D01*
X160922693Y-103618339D01*
X161024627Y-103695711D01*
X161039466Y-103704073D01*
X161158907Y-103751363D01*
X161174478Y-103755317D01*
X161249075Y-103764344D01*
X161256629Y-103764800D01*
X161271885Y-103764800D01*
X161287124Y-103760325D01*
X161288329Y-103758935D01*
X161290000Y-103751252D01*
X161290000Y-103282115D01*
X161285525Y-103266876D01*
X161284135Y-103265671D01*
X161276452Y-103264000D01*
X160782315Y-103264000D01*
X160767076Y-103268475D01*
X160765871Y-103269865D01*
X160764444Y-103276424D01*
X160415955Y-103276424D01*
X160376529Y-103211324D01*
X160367216Y-103199447D01*
X160260553Y-103092784D01*
X160248676Y-103083471D01*
X160119640Y-103005324D01*
X160105897Y-102999119D01*
X160078380Y-102990495D01*
X160019359Y-102951036D01*
X159991039Y-102885932D01*
X160002414Y-102815853D01*
X160049870Y-102763047D01*
X160078376Y-102750029D01*
X160113350Y-102739069D01*
X160255487Y-102652988D01*
X160372988Y-102535487D01*
X160459069Y-102393350D01*
X160469078Y-102361413D01*
X160506760Y-102241167D01*
X160508761Y-102234783D01*
X160515300Y-102163621D01*
X160515300Y-102016300D01*
X160535302Y-101948179D01*
X160588958Y-101901686D01*
X160641300Y-101890300D01*
X160722976Y-101890300D01*
X160791097Y-101910302D01*
G37*
%TD.AperFunction*%
%TD*%
M02*
