G75*
%MOIN*%
%OFA0B0*%
%FSLAX25Y25*%
%IPPOS*%
%LPD*%
%AMOC8*
5,1,8,0,0,1.08239X$1,22.5*
%
%ADD10C,0.00300*%
%ADD11C,0.00600*%
%ADD12C,0.00800*%
%ADD13C,0.00500*%
%ADD14C,0.00200*%
%ADD15C,0.00400*%
%ADD16R,0.02000X0.04050*%
%ADD17C,0.00010*%
%ADD18C,0.01969*%
%ADD19C,0.00197*%
%ADD20C,0.00100*%
D10*
X0122637Y0201568D02*
X0122637Y0202536D01*
X0122637Y0202052D02*
X0125540Y0202052D01*
X0125540Y0201568D02*
X0125540Y0202536D01*
X0125056Y0203533D02*
X0125540Y0204016D01*
X0125540Y0204984D01*
X0125056Y0205468D01*
X0125056Y0206479D02*
X0125540Y0206963D01*
X0125540Y0207930D01*
X0125056Y0208414D01*
X0123121Y0208414D01*
X0122637Y0207930D01*
X0122637Y0206963D01*
X0123121Y0206479D01*
X0123605Y0206479D01*
X0124089Y0206963D01*
X0124089Y0208414D01*
X0123121Y0205468D02*
X0122637Y0204984D01*
X0122637Y0204016D01*
X0123121Y0203533D01*
X0125056Y0203533D01*
X0131839Y0236916D02*
X0132457Y0236916D01*
X0133074Y0237533D01*
X0133074Y0240619D01*
X0133074Y0241853D02*
X0133074Y0242470D01*
X0134909Y0244150D02*
X0134909Y0247853D01*
X0137378Y0247853D01*
X0139209Y0246619D02*
X0140443Y0246619D01*
X0141061Y0246002D01*
X0141061Y0245384D01*
X0138592Y0245384D01*
X0138592Y0244767D02*
X0138592Y0246002D01*
X0139209Y0246619D01*
X0138592Y0244767D02*
X0139209Y0244150D01*
X0140443Y0244150D01*
X0142275Y0244150D02*
X0144127Y0244150D01*
X0144744Y0244767D01*
X0144744Y0246002D01*
X0144127Y0246619D01*
X0142275Y0246619D01*
X0142275Y0247853D02*
X0142275Y0244150D01*
X0136143Y0246002D02*
X0134909Y0246002D01*
X0134308Y0250150D02*
X0131839Y0250150D01*
X0134308Y0252619D01*
X0134308Y0253236D01*
X0133691Y0253853D01*
X0132457Y0253853D01*
X0131839Y0253236D01*
X0135523Y0252002D02*
X0137991Y0252002D01*
X0139206Y0253236D02*
X0139823Y0253853D01*
X0141057Y0253853D01*
X0141675Y0253236D01*
X0139206Y0250767D01*
X0139823Y0250150D01*
X0141057Y0250150D01*
X0141675Y0250767D01*
X0141675Y0253236D01*
X0139206Y0253236D02*
X0139206Y0250767D01*
X0137374Y0250150D02*
X0137374Y0253853D01*
X0135523Y0252002D01*
X0126942Y0252002D02*
X0126942Y0250767D01*
X0126325Y0250150D01*
X0125090Y0250150D01*
X0124473Y0250767D01*
X0124473Y0252002D01*
X0125090Y0252619D01*
X0126325Y0252619D01*
X0126942Y0252002D01*
X0123259Y0252619D02*
X0122024Y0250150D01*
X0120790Y0252619D01*
X0118952Y0253853D02*
X0118952Y0250150D01*
X0118335Y0250150D02*
X0119569Y0250150D01*
X0117120Y0250767D02*
X0117120Y0252002D01*
X0116503Y0252619D01*
X0115269Y0252619D01*
X0114651Y0252002D01*
X0114651Y0250767D01*
X0115269Y0250150D01*
X0116503Y0250150D01*
X0117120Y0250767D01*
X0118335Y0253853D02*
X0118952Y0253853D01*
X0113437Y0253853D02*
X0113437Y0251384D01*
X0112203Y0250150D01*
X0110968Y0251384D01*
X0110968Y0253853D01*
X0110968Y0247853D02*
X0112820Y0247853D01*
X0113437Y0247236D01*
X0113437Y0246002D01*
X0112820Y0245384D01*
X0110968Y0245384D01*
X0110968Y0244150D02*
X0110968Y0247853D01*
X0112203Y0245384D02*
X0113437Y0244150D01*
X0114651Y0244767D02*
X0115269Y0244150D01*
X0116503Y0244150D01*
X0117120Y0245384D02*
X0114651Y0245384D01*
X0114651Y0244767D02*
X0114651Y0246002D01*
X0115269Y0246619D01*
X0116503Y0246619D01*
X0117120Y0246002D01*
X0117120Y0245384D01*
X0118335Y0246619D02*
X0119569Y0244150D01*
X0120803Y0246619D01*
X0122635Y0242470D02*
X0122635Y0241853D01*
X0122635Y0240619D02*
X0122635Y0238150D01*
X0122018Y0238150D02*
X0123252Y0238150D01*
X0125090Y0238767D02*
X0125090Y0241236D01*
X0124473Y0240619D02*
X0125708Y0240619D01*
X0126929Y0240002D02*
X0128163Y0240002D01*
X0129384Y0240619D02*
X0130001Y0240619D01*
X0130001Y0238150D01*
X0129384Y0238150D02*
X0130618Y0238150D01*
X0127546Y0238150D02*
X0127546Y0241236D01*
X0128163Y0241853D01*
X0130001Y0241853D02*
X0130001Y0242470D01*
X0130001Y0244150D02*
X0129384Y0244150D01*
X0129384Y0244767D01*
X0130001Y0244767D01*
X0130001Y0244150D01*
X0128170Y0244767D02*
X0127552Y0244150D01*
X0125701Y0244150D01*
X0125701Y0247853D01*
X0127552Y0247853D01*
X0128170Y0247236D01*
X0128170Y0246619D01*
X0127552Y0246002D01*
X0125701Y0246002D01*
X0127552Y0246002D02*
X0128170Y0245384D01*
X0128170Y0244767D01*
X0125090Y0238767D02*
X0125708Y0238150D01*
X0122635Y0240619D02*
X0122018Y0240619D01*
X0120803Y0240002D02*
X0120803Y0238150D01*
X0120803Y0240002D02*
X0120186Y0240619D01*
X0118952Y0240619D01*
X0118335Y0240002D01*
X0117120Y0240619D02*
X0117120Y0238767D01*
X0116503Y0238150D01*
X0115886Y0238767D01*
X0115269Y0238150D01*
X0114651Y0238767D01*
X0114651Y0240619D01*
X0113437Y0241236D02*
X0113437Y0240002D01*
X0112820Y0239384D01*
X0112820Y0240619D01*
X0111585Y0240619D01*
X0111585Y0239384D01*
X0112820Y0239384D01*
X0113437Y0238767D02*
X0112820Y0238150D01*
X0111585Y0238150D01*
X0110968Y0238767D01*
X0110968Y0241236D01*
X0111585Y0241853D01*
X0112820Y0241853D01*
X0113437Y0241236D01*
X0118335Y0241853D02*
X0118335Y0238150D01*
X0134295Y0238150D02*
X0136146Y0238150D01*
X0136764Y0238767D01*
X0136146Y0239384D01*
X0134912Y0239384D01*
X0134295Y0240002D01*
X0134912Y0240619D01*
X0136764Y0240619D01*
X0149641Y0244150D02*
X0152110Y0246619D01*
X0152110Y0247236D01*
X0151493Y0247853D01*
X0150259Y0247853D01*
X0149641Y0247236D01*
X0150255Y0250150D02*
X0151490Y0250150D01*
X0150872Y0250150D02*
X0150872Y0252619D01*
X0150255Y0252619D01*
X0149041Y0253236D02*
X0149041Y0252002D01*
X0148424Y0251384D01*
X0146572Y0251384D01*
X0146572Y0250150D02*
X0146572Y0253853D01*
X0148424Y0253853D01*
X0149041Y0253236D01*
X0150872Y0253853D02*
X0150872Y0254470D01*
X0156394Y0253853D02*
X0156394Y0250150D01*
X0158245Y0250150D01*
X0158863Y0250767D01*
X0158863Y0253236D01*
X0158245Y0253853D01*
X0156394Y0253853D01*
X0160694Y0252619D02*
X0161928Y0252619D01*
X0162546Y0252002D01*
X0162546Y0250150D01*
X0160694Y0250150D01*
X0160077Y0250767D01*
X0160694Y0251384D01*
X0162546Y0251384D01*
X0163760Y0252002D02*
X0164377Y0252619D01*
X0166229Y0252619D01*
X0167443Y0252002D02*
X0168060Y0252619D01*
X0169295Y0252619D01*
X0169912Y0252002D01*
X0169912Y0250150D01*
X0167443Y0250150D02*
X0167443Y0253853D01*
X0165612Y0251384D02*
X0164377Y0251384D01*
X0163760Y0252002D01*
X0163760Y0250150D02*
X0165612Y0250150D01*
X0166229Y0250767D01*
X0165612Y0251384D01*
X0162542Y0247853D02*
X0161308Y0247853D01*
X0160691Y0247236D01*
X0159476Y0247236D02*
X0158859Y0247853D01*
X0157625Y0247853D01*
X0157008Y0247236D01*
X0155793Y0247236D02*
X0153324Y0244767D01*
X0153942Y0244150D01*
X0155176Y0244150D01*
X0155793Y0244767D01*
X0155793Y0247236D01*
X0155176Y0247853D01*
X0153942Y0247853D01*
X0153324Y0247236D01*
X0153324Y0244767D01*
X0152110Y0244150D02*
X0149641Y0244150D01*
X0157008Y0244150D02*
X0159476Y0246619D01*
X0159476Y0247236D01*
X0159476Y0244150D02*
X0157008Y0244150D01*
X0160691Y0244150D02*
X0163160Y0246619D01*
X0163160Y0247236D01*
X0162542Y0247853D01*
X0163160Y0244150D02*
X0160691Y0244150D01*
X0174809Y0250150D02*
X0174809Y0252619D01*
X0176044Y0253853D01*
X0177278Y0252619D01*
X0177278Y0250150D01*
X0178493Y0250767D02*
X0178493Y0252002D01*
X0179110Y0252619D01*
X0180961Y0252619D01*
X0180961Y0253853D02*
X0180961Y0250150D01*
X0179110Y0250150D01*
X0178493Y0250767D01*
X0177278Y0252002D02*
X0174809Y0252002D01*
X0182176Y0250767D02*
X0182793Y0251384D01*
X0184645Y0251384D01*
X0184645Y0252002D02*
X0184645Y0250150D01*
X0182793Y0250150D01*
X0182176Y0250767D01*
X0182793Y0252619D02*
X0184027Y0252619D01*
X0184645Y0252002D01*
X0185859Y0252619D02*
X0187710Y0252619D01*
X0188328Y0252002D01*
X0188328Y0250767D01*
X0187710Y0250150D01*
X0185859Y0250150D01*
X0185859Y0248916D02*
X0185859Y0252619D01*
X0189542Y0252619D02*
X0190776Y0252619D01*
X0190159Y0253236D02*
X0190159Y0250767D01*
X0190776Y0250150D01*
X0191997Y0250767D02*
X0191997Y0252002D01*
X0192615Y0252619D01*
X0193849Y0252619D01*
X0194466Y0252002D01*
X0194466Y0251384D01*
X0191997Y0251384D01*
X0191997Y0250767D02*
X0192615Y0250150D01*
X0193849Y0250150D01*
X0195681Y0250150D02*
X0195681Y0252619D01*
X0196915Y0252619D02*
X0197532Y0252619D01*
X0196915Y0252619D02*
X0195681Y0251384D01*
X0094738Y0251434D02*
X0094255Y0250950D01*
X0092803Y0250950D01*
X0092803Y0253852D01*
X0094255Y0253852D01*
X0094738Y0253369D01*
X0094738Y0251434D01*
X0091792Y0250950D02*
X0091792Y0253852D01*
X0089857Y0253852D02*
X0089857Y0250950D01*
X0088845Y0251434D02*
X0088362Y0250950D01*
X0087394Y0250950D01*
X0086910Y0251434D01*
X0086910Y0253369D01*
X0087394Y0253852D01*
X0088362Y0253852D01*
X0088845Y0253369D01*
X0088845Y0252401D02*
X0087878Y0252401D01*
X0088845Y0252401D02*
X0088845Y0251434D01*
X0089857Y0253852D02*
X0091792Y0250950D01*
X0084238Y0250950D02*
X0084238Y0253852D01*
X0084238Y0252401D02*
X0082303Y0252401D01*
X0081292Y0251434D02*
X0080808Y0250950D01*
X0079841Y0250950D01*
X0079357Y0251434D01*
X0079357Y0253369D01*
X0079841Y0253852D01*
X0080808Y0253852D01*
X0081292Y0253369D01*
X0082303Y0253852D02*
X0082303Y0250950D01*
X0078345Y0250950D02*
X0078345Y0252885D01*
X0077378Y0253852D01*
X0076410Y0252885D01*
X0076410Y0250950D01*
X0076410Y0252401D02*
X0078345Y0252401D01*
X0075399Y0253852D02*
X0073464Y0253852D01*
X0074431Y0253852D02*
X0074431Y0250950D01*
X0071738Y0251917D02*
X0071738Y0253852D01*
X0071738Y0251917D02*
X0070771Y0250950D01*
X0069803Y0251917D01*
X0069803Y0253852D01*
X0068792Y0253369D02*
X0068792Y0252885D01*
X0068308Y0252401D01*
X0068792Y0251917D01*
X0068792Y0251434D01*
X0068308Y0250950D01*
X0067341Y0250950D01*
X0066857Y0251434D01*
X0065867Y0251434D02*
X0065867Y0250950D01*
X0065384Y0250950D01*
X0065384Y0251434D01*
X0065867Y0251434D01*
X0064372Y0251434D02*
X0063888Y0250950D01*
X0062921Y0250950D01*
X0062437Y0251434D01*
X0063405Y0252401D02*
X0063888Y0252401D01*
X0064372Y0251917D01*
X0064372Y0251434D01*
X0063888Y0252401D02*
X0064372Y0252885D01*
X0064372Y0253369D01*
X0063888Y0253852D01*
X0062921Y0253852D01*
X0062437Y0253369D01*
X0061426Y0252401D02*
X0059491Y0252401D01*
X0060458Y0251434D02*
X0060458Y0253369D01*
X0066857Y0253369D02*
X0067341Y0253852D01*
X0068308Y0253852D01*
X0068792Y0253369D01*
X0068308Y0252401D02*
X0067824Y0252401D01*
X0352521Y0245463D02*
X0353755Y0245463D01*
X0353138Y0245463D02*
X0353138Y0241760D01*
X0352521Y0241760D02*
X0353755Y0241760D01*
X0354976Y0242377D02*
X0355593Y0241760D01*
X0356828Y0241760D01*
X0357445Y0242377D01*
X0358659Y0241760D02*
X0361128Y0241760D01*
X0359894Y0241760D02*
X0359894Y0245463D01*
X0358659Y0244229D01*
X0357445Y0244846D02*
X0356828Y0245463D01*
X0355593Y0245463D01*
X0354976Y0244846D01*
X0354976Y0242377D01*
X0362342Y0242377D02*
X0364811Y0244846D01*
X0364811Y0242377D01*
X0364194Y0241760D01*
X0362960Y0241760D01*
X0362342Y0242377D01*
X0362342Y0244846D01*
X0362960Y0245463D01*
X0364194Y0245463D01*
X0364811Y0244846D01*
D11*
X0364600Y0261500D02*
X0354600Y0261500D01*
X0354540Y0261502D01*
X0354479Y0261507D01*
X0354420Y0261516D01*
X0354361Y0261529D01*
X0354302Y0261545D01*
X0354245Y0261565D01*
X0354190Y0261588D01*
X0354135Y0261615D01*
X0354083Y0261644D01*
X0354032Y0261677D01*
X0353983Y0261713D01*
X0353937Y0261751D01*
X0353893Y0261793D01*
X0353851Y0261837D01*
X0353813Y0261883D01*
X0353777Y0261932D01*
X0353744Y0261983D01*
X0353715Y0262035D01*
X0353688Y0262090D01*
X0353665Y0262145D01*
X0353645Y0262202D01*
X0353629Y0262261D01*
X0353616Y0262320D01*
X0353607Y0262379D01*
X0353602Y0262440D01*
X0353600Y0262500D01*
X0353600Y0268500D01*
X0353602Y0268560D01*
X0353607Y0268621D01*
X0353616Y0268680D01*
X0353629Y0268739D01*
X0353645Y0268798D01*
X0353665Y0268855D01*
X0353688Y0268910D01*
X0353715Y0268965D01*
X0353744Y0269017D01*
X0353777Y0269068D01*
X0353813Y0269117D01*
X0353851Y0269163D01*
X0353893Y0269207D01*
X0353937Y0269249D01*
X0353983Y0269287D01*
X0354032Y0269323D01*
X0354083Y0269356D01*
X0354135Y0269385D01*
X0354190Y0269412D01*
X0354245Y0269435D01*
X0354302Y0269455D01*
X0354361Y0269471D01*
X0354420Y0269484D01*
X0354479Y0269493D01*
X0354540Y0269498D01*
X0354600Y0269500D01*
X0364600Y0269500D01*
X0364660Y0269498D01*
X0364721Y0269493D01*
X0364780Y0269484D01*
X0364839Y0269471D01*
X0364898Y0269455D01*
X0364955Y0269435D01*
X0365010Y0269412D01*
X0365065Y0269385D01*
X0365117Y0269356D01*
X0365168Y0269323D01*
X0365217Y0269287D01*
X0365263Y0269249D01*
X0365307Y0269207D01*
X0365349Y0269163D01*
X0365387Y0269117D01*
X0365423Y0269068D01*
X0365456Y0269017D01*
X0365485Y0268965D01*
X0365512Y0268910D01*
X0365535Y0268855D01*
X0365555Y0268798D01*
X0365571Y0268739D01*
X0365584Y0268680D01*
X0365593Y0268621D01*
X0365598Y0268560D01*
X0365600Y0268500D01*
X0365600Y0262500D01*
X0365598Y0262440D01*
X0365593Y0262379D01*
X0365584Y0262320D01*
X0365571Y0262261D01*
X0365555Y0262202D01*
X0365535Y0262145D01*
X0365512Y0262090D01*
X0365485Y0262035D01*
X0365456Y0261983D01*
X0365423Y0261932D01*
X0365387Y0261883D01*
X0365349Y0261837D01*
X0365307Y0261793D01*
X0365263Y0261751D01*
X0365217Y0261713D01*
X0365168Y0261677D01*
X0365117Y0261644D01*
X0365065Y0261615D01*
X0365010Y0261588D01*
X0364955Y0261565D01*
X0364898Y0261545D01*
X0364839Y0261529D01*
X0364780Y0261516D01*
X0364721Y0261507D01*
X0364660Y0261502D01*
X0364600Y0261500D01*
X0381502Y0271902D02*
X0384698Y0271902D01*
X0384698Y0274098D01*
X0384698Y0280902D02*
X0384698Y0283098D01*
X0381502Y0283098D01*
X0331725Y0274205D02*
X0331725Y0267800D01*
X0328522Y0267800D01*
X0327454Y0268868D01*
X0327454Y0271003D01*
X0328522Y0272070D01*
X0331725Y0272070D01*
X0325279Y0271003D02*
X0325279Y0269935D01*
X0321009Y0269935D01*
X0321009Y0268868D02*
X0321009Y0271003D01*
X0322076Y0272070D01*
X0324212Y0272070D01*
X0325279Y0271003D01*
X0324212Y0267800D02*
X0322076Y0267800D01*
X0321009Y0268868D01*
X0318834Y0267800D02*
X0318834Y0271003D01*
X0317766Y0272070D01*
X0315631Y0272070D01*
X0314563Y0271003D01*
X0312388Y0272070D02*
X0309185Y0272070D01*
X0308118Y0271003D01*
X0308118Y0268868D01*
X0309185Y0267800D01*
X0312388Y0267800D01*
X0314563Y0267800D02*
X0314563Y0274205D01*
X0305956Y0272070D02*
X0303821Y0272070D01*
X0304888Y0273138D02*
X0304888Y0268868D01*
X0305956Y0267800D01*
X0301659Y0267800D02*
X0299524Y0267800D01*
X0300591Y0267800D02*
X0300591Y0272070D01*
X0299524Y0272070D01*
X0297349Y0272070D02*
X0297349Y0268868D01*
X0296281Y0267800D01*
X0295214Y0268868D01*
X0294146Y0267800D01*
X0293078Y0268868D01*
X0293078Y0272070D01*
X0290903Y0273138D02*
X0289836Y0274205D01*
X0287700Y0274205D01*
X0286633Y0273138D01*
X0286633Y0272070D01*
X0287700Y0271003D01*
X0289836Y0271003D01*
X0290903Y0269935D01*
X0290903Y0268868D01*
X0289836Y0267800D01*
X0287700Y0267800D01*
X0286633Y0268868D01*
X0278012Y0269935D02*
X0275877Y0267800D01*
X0273742Y0269935D01*
X0273742Y0274205D01*
X0271567Y0273138D02*
X0270499Y0274205D01*
X0268364Y0274205D01*
X0267296Y0273138D01*
X0271567Y0273138D02*
X0271567Y0272070D01*
X0267296Y0267800D01*
X0271567Y0267800D01*
X0265121Y0267800D02*
X0260851Y0267800D01*
X0262986Y0267800D02*
X0262986Y0274205D01*
X0260851Y0272070D01*
X0278012Y0269935D02*
X0278012Y0274205D01*
X0300591Y0274205D02*
X0300591Y0275273D01*
X0260120Y0229114D02*
X0235080Y0229114D01*
X0290600Y0224000D02*
X0290600Y0214000D01*
X0290602Y0213940D01*
X0290607Y0213879D01*
X0290616Y0213820D01*
X0290629Y0213761D01*
X0290645Y0213702D01*
X0290665Y0213645D01*
X0290688Y0213590D01*
X0290715Y0213535D01*
X0290744Y0213483D01*
X0290777Y0213432D01*
X0290813Y0213383D01*
X0290851Y0213337D01*
X0290893Y0213293D01*
X0290937Y0213251D01*
X0290983Y0213213D01*
X0291032Y0213177D01*
X0291083Y0213144D01*
X0291135Y0213115D01*
X0291190Y0213088D01*
X0291245Y0213065D01*
X0291302Y0213045D01*
X0291361Y0213029D01*
X0291420Y0213016D01*
X0291479Y0213007D01*
X0291540Y0213002D01*
X0291600Y0213000D01*
X0297600Y0213000D01*
X0297660Y0213002D01*
X0297721Y0213007D01*
X0297780Y0213016D01*
X0297839Y0213029D01*
X0297898Y0213045D01*
X0297955Y0213065D01*
X0298010Y0213088D01*
X0298065Y0213115D01*
X0298117Y0213144D01*
X0298168Y0213177D01*
X0298217Y0213213D01*
X0298263Y0213251D01*
X0298307Y0213293D01*
X0298349Y0213337D01*
X0298387Y0213383D01*
X0298423Y0213432D01*
X0298456Y0213483D01*
X0298485Y0213535D01*
X0298512Y0213590D01*
X0298535Y0213645D01*
X0298555Y0213702D01*
X0298571Y0213761D01*
X0298584Y0213820D01*
X0298593Y0213879D01*
X0298598Y0213940D01*
X0298600Y0214000D01*
X0298600Y0224000D01*
X0298598Y0224060D01*
X0298593Y0224121D01*
X0298584Y0224180D01*
X0298571Y0224239D01*
X0298555Y0224298D01*
X0298535Y0224355D01*
X0298512Y0224410D01*
X0298485Y0224465D01*
X0298456Y0224517D01*
X0298423Y0224568D01*
X0298387Y0224617D01*
X0298349Y0224663D01*
X0298307Y0224707D01*
X0298263Y0224749D01*
X0298217Y0224787D01*
X0298168Y0224823D01*
X0298117Y0224856D01*
X0298065Y0224885D01*
X0298010Y0224912D01*
X0297955Y0224935D01*
X0297898Y0224955D01*
X0297839Y0224971D01*
X0297780Y0224984D01*
X0297721Y0224993D01*
X0297660Y0224998D01*
X0297600Y0225000D01*
X0291600Y0225000D01*
X0291540Y0224998D01*
X0291479Y0224993D01*
X0291420Y0224984D01*
X0291361Y0224971D01*
X0291302Y0224955D01*
X0291245Y0224935D01*
X0291190Y0224912D01*
X0291135Y0224885D01*
X0291083Y0224856D01*
X0291032Y0224823D01*
X0290983Y0224787D01*
X0290937Y0224749D01*
X0290893Y0224707D01*
X0290851Y0224663D01*
X0290813Y0224617D01*
X0290777Y0224568D01*
X0290744Y0224517D01*
X0290715Y0224465D01*
X0290688Y0224410D01*
X0290665Y0224355D01*
X0290645Y0224298D01*
X0290629Y0224239D01*
X0290616Y0224180D01*
X0290607Y0224121D01*
X0290602Y0224060D01*
X0290600Y0224000D01*
X0291600Y0205000D02*
X0297600Y0205000D01*
X0297660Y0204998D01*
X0297721Y0204993D01*
X0297780Y0204984D01*
X0297839Y0204971D01*
X0297898Y0204955D01*
X0297955Y0204935D01*
X0298010Y0204912D01*
X0298065Y0204885D01*
X0298117Y0204856D01*
X0298168Y0204823D01*
X0298217Y0204787D01*
X0298263Y0204749D01*
X0298307Y0204707D01*
X0298349Y0204663D01*
X0298387Y0204617D01*
X0298423Y0204568D01*
X0298456Y0204517D01*
X0298485Y0204465D01*
X0298512Y0204410D01*
X0298535Y0204355D01*
X0298555Y0204298D01*
X0298571Y0204239D01*
X0298584Y0204180D01*
X0298593Y0204121D01*
X0298598Y0204060D01*
X0298600Y0204000D01*
X0298600Y0194000D01*
X0298598Y0193940D01*
X0298593Y0193879D01*
X0298584Y0193820D01*
X0298571Y0193761D01*
X0298555Y0193702D01*
X0298535Y0193645D01*
X0298512Y0193590D01*
X0298485Y0193535D01*
X0298456Y0193483D01*
X0298423Y0193432D01*
X0298387Y0193383D01*
X0298349Y0193337D01*
X0298307Y0193293D01*
X0298263Y0193251D01*
X0298217Y0193213D01*
X0298168Y0193177D01*
X0298117Y0193144D01*
X0298065Y0193115D01*
X0298010Y0193088D01*
X0297955Y0193065D01*
X0297898Y0193045D01*
X0297839Y0193029D01*
X0297780Y0193016D01*
X0297721Y0193007D01*
X0297660Y0193002D01*
X0297600Y0193000D01*
X0291600Y0193000D01*
X0291540Y0193002D01*
X0291479Y0193007D01*
X0291420Y0193016D01*
X0291361Y0193029D01*
X0291302Y0193045D01*
X0291245Y0193065D01*
X0291190Y0193088D01*
X0291135Y0193115D01*
X0291083Y0193144D01*
X0291032Y0193177D01*
X0290983Y0193213D01*
X0290937Y0193251D01*
X0290893Y0193293D01*
X0290851Y0193337D01*
X0290813Y0193383D01*
X0290777Y0193432D01*
X0290744Y0193483D01*
X0290715Y0193535D01*
X0290688Y0193590D01*
X0290665Y0193645D01*
X0290645Y0193702D01*
X0290629Y0193761D01*
X0290616Y0193820D01*
X0290607Y0193879D01*
X0290602Y0193940D01*
X0290600Y0194000D01*
X0290600Y0204000D01*
X0290602Y0204060D01*
X0290607Y0204121D01*
X0290616Y0204180D01*
X0290629Y0204239D01*
X0290645Y0204298D01*
X0290665Y0204355D01*
X0290688Y0204410D01*
X0290715Y0204465D01*
X0290744Y0204517D01*
X0290777Y0204568D01*
X0290813Y0204617D01*
X0290851Y0204663D01*
X0290893Y0204707D01*
X0290937Y0204749D01*
X0290983Y0204787D01*
X0291032Y0204823D01*
X0291083Y0204856D01*
X0291135Y0204885D01*
X0291190Y0204912D01*
X0291245Y0204935D01*
X0291302Y0204955D01*
X0291361Y0204971D01*
X0291420Y0204984D01*
X0291479Y0204993D01*
X0291540Y0204998D01*
X0291600Y0205000D01*
X0291600Y0185000D02*
X0297600Y0185000D01*
X0297660Y0184998D01*
X0297721Y0184993D01*
X0297780Y0184984D01*
X0297839Y0184971D01*
X0297898Y0184955D01*
X0297955Y0184935D01*
X0298010Y0184912D01*
X0298065Y0184885D01*
X0298117Y0184856D01*
X0298168Y0184823D01*
X0298217Y0184787D01*
X0298263Y0184749D01*
X0298307Y0184707D01*
X0298349Y0184663D01*
X0298387Y0184617D01*
X0298423Y0184568D01*
X0298456Y0184517D01*
X0298485Y0184465D01*
X0298512Y0184410D01*
X0298535Y0184355D01*
X0298555Y0184298D01*
X0298571Y0184239D01*
X0298584Y0184180D01*
X0298593Y0184121D01*
X0298598Y0184060D01*
X0298600Y0184000D01*
X0298600Y0174000D01*
X0298598Y0173940D01*
X0298593Y0173879D01*
X0298584Y0173820D01*
X0298571Y0173761D01*
X0298555Y0173702D01*
X0298535Y0173645D01*
X0298512Y0173590D01*
X0298485Y0173535D01*
X0298456Y0173483D01*
X0298423Y0173432D01*
X0298387Y0173383D01*
X0298349Y0173337D01*
X0298307Y0173293D01*
X0298263Y0173251D01*
X0298217Y0173213D01*
X0298168Y0173177D01*
X0298117Y0173144D01*
X0298065Y0173115D01*
X0298010Y0173088D01*
X0297955Y0173065D01*
X0297898Y0173045D01*
X0297839Y0173029D01*
X0297780Y0173016D01*
X0297721Y0173007D01*
X0297660Y0173002D01*
X0297600Y0173000D01*
X0291600Y0173000D01*
X0291540Y0173002D01*
X0291479Y0173007D01*
X0291420Y0173016D01*
X0291361Y0173029D01*
X0291302Y0173045D01*
X0291245Y0173065D01*
X0291190Y0173088D01*
X0291135Y0173115D01*
X0291083Y0173144D01*
X0291032Y0173177D01*
X0290983Y0173213D01*
X0290937Y0173251D01*
X0290893Y0173293D01*
X0290851Y0173337D01*
X0290813Y0173383D01*
X0290777Y0173432D01*
X0290744Y0173483D01*
X0290715Y0173535D01*
X0290688Y0173590D01*
X0290665Y0173645D01*
X0290645Y0173702D01*
X0290629Y0173761D01*
X0290616Y0173820D01*
X0290607Y0173879D01*
X0290602Y0173940D01*
X0290600Y0174000D01*
X0290600Y0184000D01*
X0290602Y0184060D01*
X0290607Y0184121D01*
X0290616Y0184180D01*
X0290629Y0184239D01*
X0290645Y0184298D01*
X0290665Y0184355D01*
X0290688Y0184410D01*
X0290715Y0184465D01*
X0290744Y0184517D01*
X0290777Y0184568D01*
X0290813Y0184617D01*
X0290851Y0184663D01*
X0290893Y0184707D01*
X0290937Y0184749D01*
X0290983Y0184787D01*
X0291032Y0184823D01*
X0291083Y0184856D01*
X0291135Y0184885D01*
X0291190Y0184912D01*
X0291245Y0184935D01*
X0291302Y0184955D01*
X0291361Y0184971D01*
X0291420Y0184984D01*
X0291479Y0184993D01*
X0291540Y0184998D01*
X0291600Y0185000D01*
X0291600Y0166000D02*
X0297600Y0166000D01*
X0297660Y0165998D01*
X0297721Y0165993D01*
X0297780Y0165984D01*
X0297839Y0165971D01*
X0297898Y0165955D01*
X0297955Y0165935D01*
X0298010Y0165912D01*
X0298065Y0165885D01*
X0298117Y0165856D01*
X0298168Y0165823D01*
X0298217Y0165787D01*
X0298263Y0165749D01*
X0298307Y0165707D01*
X0298349Y0165663D01*
X0298387Y0165617D01*
X0298423Y0165568D01*
X0298456Y0165517D01*
X0298485Y0165465D01*
X0298512Y0165410D01*
X0298535Y0165355D01*
X0298555Y0165298D01*
X0298571Y0165239D01*
X0298584Y0165180D01*
X0298593Y0165121D01*
X0298598Y0165060D01*
X0298600Y0165000D01*
X0298600Y0155000D01*
X0298598Y0154940D01*
X0298593Y0154879D01*
X0298584Y0154820D01*
X0298571Y0154761D01*
X0298555Y0154702D01*
X0298535Y0154645D01*
X0298512Y0154590D01*
X0298485Y0154535D01*
X0298456Y0154483D01*
X0298423Y0154432D01*
X0298387Y0154383D01*
X0298349Y0154337D01*
X0298307Y0154293D01*
X0298263Y0154251D01*
X0298217Y0154213D01*
X0298168Y0154177D01*
X0298117Y0154144D01*
X0298065Y0154115D01*
X0298010Y0154088D01*
X0297955Y0154065D01*
X0297898Y0154045D01*
X0297839Y0154029D01*
X0297780Y0154016D01*
X0297721Y0154007D01*
X0297660Y0154002D01*
X0297600Y0154000D01*
X0291600Y0154000D01*
X0291540Y0154002D01*
X0291479Y0154007D01*
X0291420Y0154016D01*
X0291361Y0154029D01*
X0291302Y0154045D01*
X0291245Y0154065D01*
X0291190Y0154088D01*
X0291135Y0154115D01*
X0291083Y0154144D01*
X0291032Y0154177D01*
X0290983Y0154213D01*
X0290937Y0154251D01*
X0290893Y0154293D01*
X0290851Y0154337D01*
X0290813Y0154383D01*
X0290777Y0154432D01*
X0290744Y0154483D01*
X0290715Y0154535D01*
X0290688Y0154590D01*
X0290665Y0154645D01*
X0290645Y0154702D01*
X0290629Y0154761D01*
X0290616Y0154820D01*
X0290607Y0154879D01*
X0290602Y0154940D01*
X0290600Y0155000D01*
X0290600Y0165000D01*
X0290602Y0165060D01*
X0290607Y0165121D01*
X0290616Y0165180D01*
X0290629Y0165239D01*
X0290645Y0165298D01*
X0290665Y0165355D01*
X0290688Y0165410D01*
X0290715Y0165465D01*
X0290744Y0165517D01*
X0290777Y0165568D01*
X0290813Y0165617D01*
X0290851Y0165663D01*
X0290893Y0165707D01*
X0290937Y0165749D01*
X0290983Y0165787D01*
X0291032Y0165823D01*
X0291083Y0165856D01*
X0291135Y0165885D01*
X0291190Y0165912D01*
X0291245Y0165935D01*
X0291302Y0165955D01*
X0291361Y0165971D01*
X0291420Y0165984D01*
X0291479Y0165993D01*
X0291540Y0165998D01*
X0291600Y0166000D01*
X0260120Y0130114D02*
X0235080Y0130114D01*
X0294600Y0125000D02*
X0294600Y0115000D01*
X0294602Y0114940D01*
X0294607Y0114879D01*
X0294616Y0114820D01*
X0294629Y0114761D01*
X0294645Y0114702D01*
X0294665Y0114645D01*
X0294688Y0114590D01*
X0294715Y0114535D01*
X0294744Y0114483D01*
X0294777Y0114432D01*
X0294813Y0114383D01*
X0294851Y0114337D01*
X0294893Y0114293D01*
X0294937Y0114251D01*
X0294983Y0114213D01*
X0295032Y0114177D01*
X0295083Y0114144D01*
X0295135Y0114115D01*
X0295190Y0114088D01*
X0295245Y0114065D01*
X0295302Y0114045D01*
X0295361Y0114029D01*
X0295420Y0114016D01*
X0295479Y0114007D01*
X0295540Y0114002D01*
X0295600Y0114000D01*
X0301600Y0114000D01*
X0301660Y0114002D01*
X0301721Y0114007D01*
X0301780Y0114016D01*
X0301839Y0114029D01*
X0301898Y0114045D01*
X0301955Y0114065D01*
X0302010Y0114088D01*
X0302065Y0114115D01*
X0302117Y0114144D01*
X0302168Y0114177D01*
X0302217Y0114213D01*
X0302263Y0114251D01*
X0302307Y0114293D01*
X0302349Y0114337D01*
X0302387Y0114383D01*
X0302423Y0114432D01*
X0302456Y0114483D01*
X0302485Y0114535D01*
X0302512Y0114590D01*
X0302535Y0114645D01*
X0302555Y0114702D01*
X0302571Y0114761D01*
X0302584Y0114820D01*
X0302593Y0114879D01*
X0302598Y0114940D01*
X0302600Y0115000D01*
X0302600Y0125000D01*
X0302598Y0125060D01*
X0302593Y0125121D01*
X0302584Y0125180D01*
X0302571Y0125239D01*
X0302555Y0125298D01*
X0302535Y0125355D01*
X0302512Y0125410D01*
X0302485Y0125465D01*
X0302456Y0125517D01*
X0302423Y0125568D01*
X0302387Y0125617D01*
X0302349Y0125663D01*
X0302307Y0125707D01*
X0302263Y0125749D01*
X0302217Y0125787D01*
X0302168Y0125823D01*
X0302117Y0125856D01*
X0302065Y0125885D01*
X0302010Y0125912D01*
X0301955Y0125935D01*
X0301898Y0125955D01*
X0301839Y0125971D01*
X0301780Y0125984D01*
X0301721Y0125993D01*
X0301660Y0125998D01*
X0301600Y0126000D01*
X0295600Y0126000D01*
X0295540Y0125998D01*
X0295479Y0125993D01*
X0295420Y0125984D01*
X0295361Y0125971D01*
X0295302Y0125955D01*
X0295245Y0125935D01*
X0295190Y0125912D01*
X0295135Y0125885D01*
X0295083Y0125856D01*
X0295032Y0125823D01*
X0294983Y0125787D01*
X0294937Y0125749D01*
X0294893Y0125707D01*
X0294851Y0125663D01*
X0294813Y0125617D01*
X0294777Y0125568D01*
X0294744Y0125517D01*
X0294715Y0125465D01*
X0294688Y0125410D01*
X0294665Y0125355D01*
X0294645Y0125298D01*
X0294629Y0125239D01*
X0294616Y0125180D01*
X0294607Y0125121D01*
X0294602Y0125060D01*
X0294600Y0125000D01*
X0295600Y0107000D02*
X0301600Y0107000D01*
X0301660Y0106998D01*
X0301721Y0106993D01*
X0301780Y0106984D01*
X0301839Y0106971D01*
X0301898Y0106955D01*
X0301955Y0106935D01*
X0302010Y0106912D01*
X0302065Y0106885D01*
X0302117Y0106856D01*
X0302168Y0106823D01*
X0302217Y0106787D01*
X0302263Y0106749D01*
X0302307Y0106707D01*
X0302349Y0106663D01*
X0302387Y0106617D01*
X0302423Y0106568D01*
X0302456Y0106517D01*
X0302485Y0106465D01*
X0302512Y0106410D01*
X0302535Y0106355D01*
X0302555Y0106298D01*
X0302571Y0106239D01*
X0302584Y0106180D01*
X0302593Y0106121D01*
X0302598Y0106060D01*
X0302600Y0106000D01*
X0302600Y0096000D01*
X0302598Y0095940D01*
X0302593Y0095879D01*
X0302584Y0095820D01*
X0302571Y0095761D01*
X0302555Y0095702D01*
X0302535Y0095645D01*
X0302512Y0095590D01*
X0302485Y0095535D01*
X0302456Y0095483D01*
X0302423Y0095432D01*
X0302387Y0095383D01*
X0302349Y0095337D01*
X0302307Y0095293D01*
X0302263Y0095251D01*
X0302217Y0095213D01*
X0302168Y0095177D01*
X0302117Y0095144D01*
X0302065Y0095115D01*
X0302010Y0095088D01*
X0301955Y0095065D01*
X0301898Y0095045D01*
X0301839Y0095029D01*
X0301780Y0095016D01*
X0301721Y0095007D01*
X0301660Y0095002D01*
X0301600Y0095000D01*
X0295600Y0095000D01*
X0295540Y0095002D01*
X0295479Y0095007D01*
X0295420Y0095016D01*
X0295361Y0095029D01*
X0295302Y0095045D01*
X0295245Y0095065D01*
X0295190Y0095088D01*
X0295135Y0095115D01*
X0295083Y0095144D01*
X0295032Y0095177D01*
X0294983Y0095213D01*
X0294937Y0095251D01*
X0294893Y0095293D01*
X0294851Y0095337D01*
X0294813Y0095383D01*
X0294777Y0095432D01*
X0294744Y0095483D01*
X0294715Y0095535D01*
X0294688Y0095590D01*
X0294665Y0095645D01*
X0294645Y0095702D01*
X0294629Y0095761D01*
X0294616Y0095820D01*
X0294607Y0095879D01*
X0294602Y0095940D01*
X0294600Y0096000D01*
X0294600Y0106000D01*
X0294602Y0106060D01*
X0294607Y0106121D01*
X0294616Y0106180D01*
X0294629Y0106239D01*
X0294645Y0106298D01*
X0294665Y0106355D01*
X0294688Y0106410D01*
X0294715Y0106465D01*
X0294744Y0106517D01*
X0294777Y0106568D01*
X0294813Y0106617D01*
X0294851Y0106663D01*
X0294893Y0106707D01*
X0294937Y0106749D01*
X0294983Y0106787D01*
X0295032Y0106823D01*
X0295083Y0106856D01*
X0295135Y0106885D01*
X0295190Y0106912D01*
X0295245Y0106935D01*
X0295302Y0106955D01*
X0295361Y0106971D01*
X0295420Y0106984D01*
X0295479Y0106993D01*
X0295540Y0106998D01*
X0295600Y0107000D01*
X0295600Y0087000D02*
X0301600Y0087000D01*
X0301660Y0086998D01*
X0301721Y0086993D01*
X0301780Y0086984D01*
X0301839Y0086971D01*
X0301898Y0086955D01*
X0301955Y0086935D01*
X0302010Y0086912D01*
X0302065Y0086885D01*
X0302117Y0086856D01*
X0302168Y0086823D01*
X0302217Y0086787D01*
X0302263Y0086749D01*
X0302307Y0086707D01*
X0302349Y0086663D01*
X0302387Y0086617D01*
X0302423Y0086568D01*
X0302456Y0086517D01*
X0302485Y0086465D01*
X0302512Y0086410D01*
X0302535Y0086355D01*
X0302555Y0086298D01*
X0302571Y0086239D01*
X0302584Y0086180D01*
X0302593Y0086121D01*
X0302598Y0086060D01*
X0302600Y0086000D01*
X0302600Y0076000D01*
X0302598Y0075940D01*
X0302593Y0075879D01*
X0302584Y0075820D01*
X0302571Y0075761D01*
X0302555Y0075702D01*
X0302535Y0075645D01*
X0302512Y0075590D01*
X0302485Y0075535D01*
X0302456Y0075483D01*
X0302423Y0075432D01*
X0302387Y0075383D01*
X0302349Y0075337D01*
X0302307Y0075293D01*
X0302263Y0075251D01*
X0302217Y0075213D01*
X0302168Y0075177D01*
X0302117Y0075144D01*
X0302065Y0075115D01*
X0302010Y0075088D01*
X0301955Y0075065D01*
X0301898Y0075045D01*
X0301839Y0075029D01*
X0301780Y0075016D01*
X0301721Y0075007D01*
X0301660Y0075002D01*
X0301600Y0075000D01*
X0295600Y0075000D01*
X0295540Y0075002D01*
X0295479Y0075007D01*
X0295420Y0075016D01*
X0295361Y0075029D01*
X0295302Y0075045D01*
X0295245Y0075065D01*
X0295190Y0075088D01*
X0295135Y0075115D01*
X0295083Y0075144D01*
X0295032Y0075177D01*
X0294983Y0075213D01*
X0294937Y0075251D01*
X0294893Y0075293D01*
X0294851Y0075337D01*
X0294813Y0075383D01*
X0294777Y0075432D01*
X0294744Y0075483D01*
X0294715Y0075535D01*
X0294688Y0075590D01*
X0294665Y0075645D01*
X0294645Y0075702D01*
X0294629Y0075761D01*
X0294616Y0075820D01*
X0294607Y0075879D01*
X0294602Y0075940D01*
X0294600Y0076000D01*
X0294600Y0086000D01*
X0294602Y0086060D01*
X0294607Y0086121D01*
X0294616Y0086180D01*
X0294629Y0086239D01*
X0294645Y0086298D01*
X0294665Y0086355D01*
X0294688Y0086410D01*
X0294715Y0086465D01*
X0294744Y0086517D01*
X0294777Y0086568D01*
X0294813Y0086617D01*
X0294851Y0086663D01*
X0294893Y0086707D01*
X0294937Y0086749D01*
X0294983Y0086787D01*
X0295032Y0086823D01*
X0295083Y0086856D01*
X0295135Y0086885D01*
X0295190Y0086912D01*
X0295245Y0086935D01*
X0295302Y0086955D01*
X0295361Y0086971D01*
X0295420Y0086984D01*
X0295479Y0086993D01*
X0295540Y0086998D01*
X0295600Y0087000D01*
X0295600Y0068000D02*
X0301600Y0068000D01*
X0301660Y0067998D01*
X0301721Y0067993D01*
X0301780Y0067984D01*
X0301839Y0067971D01*
X0301898Y0067955D01*
X0301955Y0067935D01*
X0302010Y0067912D01*
X0302065Y0067885D01*
X0302117Y0067856D01*
X0302168Y0067823D01*
X0302217Y0067787D01*
X0302263Y0067749D01*
X0302307Y0067707D01*
X0302349Y0067663D01*
X0302387Y0067617D01*
X0302423Y0067568D01*
X0302456Y0067517D01*
X0302485Y0067465D01*
X0302512Y0067410D01*
X0302535Y0067355D01*
X0302555Y0067298D01*
X0302571Y0067239D01*
X0302584Y0067180D01*
X0302593Y0067121D01*
X0302598Y0067060D01*
X0302600Y0067000D01*
X0302600Y0057000D01*
X0302598Y0056940D01*
X0302593Y0056879D01*
X0302584Y0056820D01*
X0302571Y0056761D01*
X0302555Y0056702D01*
X0302535Y0056645D01*
X0302512Y0056590D01*
X0302485Y0056535D01*
X0302456Y0056483D01*
X0302423Y0056432D01*
X0302387Y0056383D01*
X0302349Y0056337D01*
X0302307Y0056293D01*
X0302263Y0056251D01*
X0302217Y0056213D01*
X0302168Y0056177D01*
X0302117Y0056144D01*
X0302065Y0056115D01*
X0302010Y0056088D01*
X0301955Y0056065D01*
X0301898Y0056045D01*
X0301839Y0056029D01*
X0301780Y0056016D01*
X0301721Y0056007D01*
X0301660Y0056002D01*
X0301600Y0056000D01*
X0295600Y0056000D01*
X0295540Y0056002D01*
X0295479Y0056007D01*
X0295420Y0056016D01*
X0295361Y0056029D01*
X0295302Y0056045D01*
X0295245Y0056065D01*
X0295190Y0056088D01*
X0295135Y0056115D01*
X0295083Y0056144D01*
X0295032Y0056177D01*
X0294983Y0056213D01*
X0294937Y0056251D01*
X0294893Y0056293D01*
X0294851Y0056337D01*
X0294813Y0056383D01*
X0294777Y0056432D01*
X0294744Y0056483D01*
X0294715Y0056535D01*
X0294688Y0056590D01*
X0294665Y0056645D01*
X0294645Y0056702D01*
X0294629Y0056761D01*
X0294616Y0056820D01*
X0294607Y0056879D01*
X0294602Y0056940D01*
X0294600Y0057000D01*
X0294600Y0067000D01*
X0294602Y0067060D01*
X0294607Y0067121D01*
X0294616Y0067180D01*
X0294629Y0067239D01*
X0294645Y0067298D01*
X0294665Y0067355D01*
X0294688Y0067410D01*
X0294715Y0067465D01*
X0294744Y0067517D01*
X0294777Y0067568D01*
X0294813Y0067617D01*
X0294851Y0067663D01*
X0294893Y0067707D01*
X0294937Y0067749D01*
X0294983Y0067787D01*
X0295032Y0067823D01*
X0295083Y0067856D01*
X0295135Y0067885D01*
X0295190Y0067912D01*
X0295245Y0067935D01*
X0295302Y0067955D01*
X0295361Y0067971D01*
X0295420Y0067984D01*
X0295479Y0067993D01*
X0295540Y0067998D01*
X0295600Y0068000D01*
X0179600Y0032000D02*
X0179600Y0026000D01*
X0179598Y0025940D01*
X0179593Y0025879D01*
X0179584Y0025820D01*
X0179571Y0025761D01*
X0179555Y0025702D01*
X0179535Y0025645D01*
X0179512Y0025590D01*
X0179485Y0025535D01*
X0179456Y0025483D01*
X0179423Y0025432D01*
X0179387Y0025383D01*
X0179349Y0025337D01*
X0179307Y0025293D01*
X0179263Y0025251D01*
X0179217Y0025213D01*
X0179168Y0025177D01*
X0179117Y0025144D01*
X0179065Y0025115D01*
X0179010Y0025088D01*
X0178955Y0025065D01*
X0178898Y0025045D01*
X0178839Y0025029D01*
X0178780Y0025016D01*
X0178721Y0025007D01*
X0178660Y0025002D01*
X0178600Y0025000D01*
X0168600Y0025000D01*
X0168540Y0025002D01*
X0168479Y0025007D01*
X0168420Y0025016D01*
X0168361Y0025029D01*
X0168302Y0025045D01*
X0168245Y0025065D01*
X0168190Y0025088D01*
X0168135Y0025115D01*
X0168083Y0025144D01*
X0168032Y0025177D01*
X0167983Y0025213D01*
X0167937Y0025251D01*
X0167893Y0025293D01*
X0167851Y0025337D01*
X0167813Y0025383D01*
X0167777Y0025432D01*
X0167744Y0025483D01*
X0167715Y0025535D01*
X0167688Y0025590D01*
X0167665Y0025645D01*
X0167645Y0025702D01*
X0167629Y0025761D01*
X0167616Y0025820D01*
X0167607Y0025879D01*
X0167602Y0025940D01*
X0167600Y0026000D01*
X0167600Y0032000D01*
X0167602Y0032060D01*
X0167607Y0032121D01*
X0167616Y0032180D01*
X0167629Y0032239D01*
X0167645Y0032298D01*
X0167665Y0032355D01*
X0167688Y0032410D01*
X0167715Y0032465D01*
X0167744Y0032517D01*
X0167777Y0032568D01*
X0167813Y0032617D01*
X0167851Y0032663D01*
X0167893Y0032707D01*
X0167937Y0032749D01*
X0167983Y0032787D01*
X0168032Y0032823D01*
X0168083Y0032856D01*
X0168135Y0032885D01*
X0168190Y0032912D01*
X0168245Y0032935D01*
X0168302Y0032955D01*
X0168361Y0032971D01*
X0168420Y0032984D01*
X0168479Y0032993D01*
X0168540Y0032998D01*
X0168600Y0033000D01*
X0178600Y0033000D01*
X0178660Y0032998D01*
X0178721Y0032993D01*
X0178780Y0032984D01*
X0178839Y0032971D01*
X0178898Y0032955D01*
X0178955Y0032935D01*
X0179010Y0032912D01*
X0179065Y0032885D01*
X0179117Y0032856D01*
X0179168Y0032823D01*
X0179217Y0032787D01*
X0179263Y0032749D01*
X0179307Y0032707D01*
X0179349Y0032663D01*
X0179387Y0032617D01*
X0179423Y0032568D01*
X0179456Y0032517D01*
X0179485Y0032465D01*
X0179512Y0032410D01*
X0179535Y0032355D01*
X0179555Y0032298D01*
X0179571Y0032239D01*
X0179584Y0032180D01*
X0179593Y0032121D01*
X0179598Y0032060D01*
X0179600Y0032000D01*
X0171200Y0048400D02*
X0168000Y0048400D01*
X0171200Y0048400D02*
X0171200Y0050600D01*
X0171200Y0057400D02*
X0171200Y0059600D01*
X0168000Y0059600D01*
X0139200Y0059600D02*
X0139200Y0057400D01*
X0139200Y0059600D02*
X0136000Y0059600D01*
X0139200Y0050600D02*
X0139200Y0048400D01*
X0136000Y0048400D01*
X0117200Y0048400D02*
X0117200Y0050600D01*
X0117200Y0048400D02*
X0114000Y0048400D01*
X0117200Y0057400D02*
X0117200Y0059600D01*
X0114000Y0059600D01*
X0103087Y0065100D02*
X0103087Y0084900D01*
X0085113Y0084900D01*
X0085113Y0065100D01*
X0103087Y0065100D01*
X0095200Y0059600D02*
X0095200Y0057400D01*
X0095200Y0059600D02*
X0092000Y0059600D01*
X0095200Y0050600D02*
X0095200Y0048400D01*
X0092000Y0048400D01*
X0073200Y0048400D02*
X0073200Y0050600D01*
X0073200Y0048400D02*
X0070000Y0048400D01*
X0073200Y0057400D02*
X0073200Y0059600D01*
X0070000Y0059600D01*
X0051200Y0059600D02*
X0051200Y0057400D01*
X0051200Y0059600D02*
X0048000Y0059600D01*
X0051200Y0050600D02*
X0051200Y0048400D01*
X0048000Y0048400D01*
X0048600Y0032000D02*
X0058600Y0032000D01*
X0058660Y0031998D01*
X0058721Y0031993D01*
X0058780Y0031984D01*
X0058839Y0031971D01*
X0058898Y0031955D01*
X0058955Y0031935D01*
X0059010Y0031912D01*
X0059065Y0031885D01*
X0059117Y0031856D01*
X0059168Y0031823D01*
X0059217Y0031787D01*
X0059263Y0031749D01*
X0059307Y0031707D01*
X0059349Y0031663D01*
X0059387Y0031617D01*
X0059423Y0031568D01*
X0059456Y0031517D01*
X0059485Y0031465D01*
X0059512Y0031410D01*
X0059535Y0031355D01*
X0059555Y0031298D01*
X0059571Y0031239D01*
X0059584Y0031180D01*
X0059593Y0031121D01*
X0059598Y0031060D01*
X0059600Y0031000D01*
X0059600Y0025000D01*
X0059598Y0024940D01*
X0059593Y0024879D01*
X0059584Y0024820D01*
X0059571Y0024761D01*
X0059555Y0024702D01*
X0059535Y0024645D01*
X0059512Y0024590D01*
X0059485Y0024535D01*
X0059456Y0024483D01*
X0059423Y0024432D01*
X0059387Y0024383D01*
X0059349Y0024337D01*
X0059307Y0024293D01*
X0059263Y0024251D01*
X0059217Y0024213D01*
X0059168Y0024177D01*
X0059117Y0024144D01*
X0059065Y0024115D01*
X0059010Y0024088D01*
X0058955Y0024065D01*
X0058898Y0024045D01*
X0058839Y0024029D01*
X0058780Y0024016D01*
X0058721Y0024007D01*
X0058660Y0024002D01*
X0058600Y0024000D01*
X0048600Y0024000D01*
X0048540Y0024002D01*
X0048479Y0024007D01*
X0048420Y0024016D01*
X0048361Y0024029D01*
X0048302Y0024045D01*
X0048245Y0024065D01*
X0048190Y0024088D01*
X0048135Y0024115D01*
X0048083Y0024144D01*
X0048032Y0024177D01*
X0047983Y0024213D01*
X0047937Y0024251D01*
X0047893Y0024293D01*
X0047851Y0024337D01*
X0047813Y0024383D01*
X0047777Y0024432D01*
X0047744Y0024483D01*
X0047715Y0024535D01*
X0047688Y0024590D01*
X0047665Y0024645D01*
X0047645Y0024702D01*
X0047629Y0024761D01*
X0047616Y0024820D01*
X0047607Y0024879D01*
X0047602Y0024940D01*
X0047600Y0025000D01*
X0047600Y0031000D01*
X0047602Y0031060D01*
X0047607Y0031121D01*
X0047616Y0031180D01*
X0047629Y0031239D01*
X0047645Y0031298D01*
X0047665Y0031355D01*
X0047688Y0031410D01*
X0047715Y0031465D01*
X0047744Y0031517D01*
X0047777Y0031568D01*
X0047813Y0031617D01*
X0047851Y0031663D01*
X0047893Y0031707D01*
X0047937Y0031749D01*
X0047983Y0031787D01*
X0048032Y0031823D01*
X0048083Y0031856D01*
X0048135Y0031885D01*
X0048190Y0031912D01*
X0048245Y0031935D01*
X0048302Y0031955D01*
X0048361Y0031971D01*
X0048420Y0031984D01*
X0048479Y0031993D01*
X0048540Y0031998D01*
X0048600Y0032000D01*
X0069600Y0032000D02*
X0069600Y0026000D01*
X0069602Y0025940D01*
X0069607Y0025879D01*
X0069616Y0025820D01*
X0069629Y0025761D01*
X0069645Y0025702D01*
X0069665Y0025645D01*
X0069688Y0025590D01*
X0069715Y0025535D01*
X0069744Y0025483D01*
X0069777Y0025432D01*
X0069813Y0025383D01*
X0069851Y0025337D01*
X0069893Y0025293D01*
X0069937Y0025251D01*
X0069983Y0025213D01*
X0070032Y0025177D01*
X0070083Y0025144D01*
X0070135Y0025115D01*
X0070190Y0025088D01*
X0070245Y0025065D01*
X0070302Y0025045D01*
X0070361Y0025029D01*
X0070420Y0025016D01*
X0070479Y0025007D01*
X0070540Y0025002D01*
X0070600Y0025000D01*
X0080600Y0025000D01*
X0080660Y0025002D01*
X0080721Y0025007D01*
X0080780Y0025016D01*
X0080839Y0025029D01*
X0080898Y0025045D01*
X0080955Y0025065D01*
X0081010Y0025088D01*
X0081065Y0025115D01*
X0081117Y0025144D01*
X0081168Y0025177D01*
X0081217Y0025213D01*
X0081263Y0025251D01*
X0081307Y0025293D01*
X0081349Y0025337D01*
X0081387Y0025383D01*
X0081423Y0025432D01*
X0081456Y0025483D01*
X0081485Y0025535D01*
X0081512Y0025590D01*
X0081535Y0025645D01*
X0081555Y0025702D01*
X0081571Y0025761D01*
X0081584Y0025820D01*
X0081593Y0025879D01*
X0081598Y0025940D01*
X0081600Y0026000D01*
X0081600Y0032000D01*
X0081598Y0032060D01*
X0081593Y0032121D01*
X0081584Y0032180D01*
X0081571Y0032239D01*
X0081555Y0032298D01*
X0081535Y0032355D01*
X0081512Y0032410D01*
X0081485Y0032465D01*
X0081456Y0032517D01*
X0081423Y0032568D01*
X0081387Y0032617D01*
X0081349Y0032663D01*
X0081307Y0032707D01*
X0081263Y0032749D01*
X0081217Y0032787D01*
X0081168Y0032823D01*
X0081117Y0032856D01*
X0081065Y0032885D01*
X0081010Y0032912D01*
X0080955Y0032935D01*
X0080898Y0032955D01*
X0080839Y0032971D01*
X0080780Y0032984D01*
X0080721Y0032993D01*
X0080660Y0032998D01*
X0080600Y0033000D01*
X0070600Y0033000D01*
X0070540Y0032998D01*
X0070479Y0032993D01*
X0070420Y0032984D01*
X0070361Y0032971D01*
X0070302Y0032955D01*
X0070245Y0032935D01*
X0070190Y0032912D01*
X0070135Y0032885D01*
X0070083Y0032856D01*
X0070032Y0032823D01*
X0069983Y0032787D01*
X0069937Y0032749D01*
X0069893Y0032707D01*
X0069851Y0032663D01*
X0069813Y0032617D01*
X0069777Y0032568D01*
X0069744Y0032517D01*
X0069715Y0032465D01*
X0069688Y0032410D01*
X0069665Y0032355D01*
X0069645Y0032298D01*
X0069629Y0032239D01*
X0069616Y0032180D01*
X0069607Y0032121D01*
X0069602Y0032060D01*
X0069600Y0032000D01*
X0091600Y0032000D02*
X0091600Y0026000D01*
X0091602Y0025940D01*
X0091607Y0025879D01*
X0091616Y0025820D01*
X0091629Y0025761D01*
X0091645Y0025702D01*
X0091665Y0025645D01*
X0091688Y0025590D01*
X0091715Y0025535D01*
X0091744Y0025483D01*
X0091777Y0025432D01*
X0091813Y0025383D01*
X0091851Y0025337D01*
X0091893Y0025293D01*
X0091937Y0025251D01*
X0091983Y0025213D01*
X0092032Y0025177D01*
X0092083Y0025144D01*
X0092135Y0025115D01*
X0092190Y0025088D01*
X0092245Y0025065D01*
X0092302Y0025045D01*
X0092361Y0025029D01*
X0092420Y0025016D01*
X0092479Y0025007D01*
X0092540Y0025002D01*
X0092600Y0025000D01*
X0102600Y0025000D01*
X0102660Y0025002D01*
X0102721Y0025007D01*
X0102780Y0025016D01*
X0102839Y0025029D01*
X0102898Y0025045D01*
X0102955Y0025065D01*
X0103010Y0025088D01*
X0103065Y0025115D01*
X0103117Y0025144D01*
X0103168Y0025177D01*
X0103217Y0025213D01*
X0103263Y0025251D01*
X0103307Y0025293D01*
X0103349Y0025337D01*
X0103387Y0025383D01*
X0103423Y0025432D01*
X0103456Y0025483D01*
X0103485Y0025535D01*
X0103512Y0025590D01*
X0103535Y0025645D01*
X0103555Y0025702D01*
X0103571Y0025761D01*
X0103584Y0025820D01*
X0103593Y0025879D01*
X0103598Y0025940D01*
X0103600Y0026000D01*
X0103600Y0032000D01*
X0103598Y0032060D01*
X0103593Y0032121D01*
X0103584Y0032180D01*
X0103571Y0032239D01*
X0103555Y0032298D01*
X0103535Y0032355D01*
X0103512Y0032410D01*
X0103485Y0032465D01*
X0103456Y0032517D01*
X0103423Y0032568D01*
X0103387Y0032617D01*
X0103349Y0032663D01*
X0103307Y0032707D01*
X0103263Y0032749D01*
X0103217Y0032787D01*
X0103168Y0032823D01*
X0103117Y0032856D01*
X0103065Y0032885D01*
X0103010Y0032912D01*
X0102955Y0032935D01*
X0102898Y0032955D01*
X0102839Y0032971D01*
X0102780Y0032984D01*
X0102721Y0032993D01*
X0102660Y0032998D01*
X0102600Y0033000D01*
X0092600Y0033000D01*
X0092540Y0032998D01*
X0092479Y0032993D01*
X0092420Y0032984D01*
X0092361Y0032971D01*
X0092302Y0032955D01*
X0092245Y0032935D01*
X0092190Y0032912D01*
X0092135Y0032885D01*
X0092083Y0032856D01*
X0092032Y0032823D01*
X0091983Y0032787D01*
X0091937Y0032749D01*
X0091893Y0032707D01*
X0091851Y0032663D01*
X0091813Y0032617D01*
X0091777Y0032568D01*
X0091744Y0032517D01*
X0091715Y0032465D01*
X0091688Y0032410D01*
X0091665Y0032355D01*
X0091645Y0032298D01*
X0091629Y0032239D01*
X0091616Y0032180D01*
X0091607Y0032121D01*
X0091602Y0032060D01*
X0091600Y0032000D01*
X0113600Y0032000D02*
X0113600Y0026000D01*
X0113602Y0025940D01*
X0113607Y0025879D01*
X0113616Y0025820D01*
X0113629Y0025761D01*
X0113645Y0025702D01*
X0113665Y0025645D01*
X0113688Y0025590D01*
X0113715Y0025535D01*
X0113744Y0025483D01*
X0113777Y0025432D01*
X0113813Y0025383D01*
X0113851Y0025337D01*
X0113893Y0025293D01*
X0113937Y0025251D01*
X0113983Y0025213D01*
X0114032Y0025177D01*
X0114083Y0025144D01*
X0114135Y0025115D01*
X0114190Y0025088D01*
X0114245Y0025065D01*
X0114302Y0025045D01*
X0114361Y0025029D01*
X0114420Y0025016D01*
X0114479Y0025007D01*
X0114540Y0025002D01*
X0114600Y0025000D01*
X0124600Y0025000D01*
X0124660Y0025002D01*
X0124721Y0025007D01*
X0124780Y0025016D01*
X0124839Y0025029D01*
X0124898Y0025045D01*
X0124955Y0025065D01*
X0125010Y0025088D01*
X0125065Y0025115D01*
X0125117Y0025144D01*
X0125168Y0025177D01*
X0125217Y0025213D01*
X0125263Y0025251D01*
X0125307Y0025293D01*
X0125349Y0025337D01*
X0125387Y0025383D01*
X0125423Y0025432D01*
X0125456Y0025483D01*
X0125485Y0025535D01*
X0125512Y0025590D01*
X0125535Y0025645D01*
X0125555Y0025702D01*
X0125571Y0025761D01*
X0125584Y0025820D01*
X0125593Y0025879D01*
X0125598Y0025940D01*
X0125600Y0026000D01*
X0125600Y0032000D01*
X0125598Y0032060D01*
X0125593Y0032121D01*
X0125584Y0032180D01*
X0125571Y0032239D01*
X0125555Y0032298D01*
X0125535Y0032355D01*
X0125512Y0032410D01*
X0125485Y0032465D01*
X0125456Y0032517D01*
X0125423Y0032568D01*
X0125387Y0032617D01*
X0125349Y0032663D01*
X0125307Y0032707D01*
X0125263Y0032749D01*
X0125217Y0032787D01*
X0125168Y0032823D01*
X0125117Y0032856D01*
X0125065Y0032885D01*
X0125010Y0032912D01*
X0124955Y0032935D01*
X0124898Y0032955D01*
X0124839Y0032971D01*
X0124780Y0032984D01*
X0124721Y0032993D01*
X0124660Y0032998D01*
X0124600Y0033000D01*
X0114600Y0033000D01*
X0114540Y0032998D01*
X0114479Y0032993D01*
X0114420Y0032984D01*
X0114361Y0032971D01*
X0114302Y0032955D01*
X0114245Y0032935D01*
X0114190Y0032912D01*
X0114135Y0032885D01*
X0114083Y0032856D01*
X0114032Y0032823D01*
X0113983Y0032787D01*
X0113937Y0032749D01*
X0113893Y0032707D01*
X0113851Y0032663D01*
X0113813Y0032617D01*
X0113777Y0032568D01*
X0113744Y0032517D01*
X0113715Y0032465D01*
X0113688Y0032410D01*
X0113665Y0032355D01*
X0113645Y0032298D01*
X0113629Y0032239D01*
X0113616Y0032180D01*
X0113607Y0032121D01*
X0113602Y0032060D01*
X0113600Y0032000D01*
X0135600Y0032000D02*
X0135600Y0026000D01*
X0135602Y0025940D01*
X0135607Y0025879D01*
X0135616Y0025820D01*
X0135629Y0025761D01*
X0135645Y0025702D01*
X0135665Y0025645D01*
X0135688Y0025590D01*
X0135715Y0025535D01*
X0135744Y0025483D01*
X0135777Y0025432D01*
X0135813Y0025383D01*
X0135851Y0025337D01*
X0135893Y0025293D01*
X0135937Y0025251D01*
X0135983Y0025213D01*
X0136032Y0025177D01*
X0136083Y0025144D01*
X0136135Y0025115D01*
X0136190Y0025088D01*
X0136245Y0025065D01*
X0136302Y0025045D01*
X0136361Y0025029D01*
X0136420Y0025016D01*
X0136479Y0025007D01*
X0136540Y0025002D01*
X0136600Y0025000D01*
X0146600Y0025000D01*
X0146660Y0025002D01*
X0146721Y0025007D01*
X0146780Y0025016D01*
X0146839Y0025029D01*
X0146898Y0025045D01*
X0146955Y0025065D01*
X0147010Y0025088D01*
X0147065Y0025115D01*
X0147117Y0025144D01*
X0147168Y0025177D01*
X0147217Y0025213D01*
X0147263Y0025251D01*
X0147307Y0025293D01*
X0147349Y0025337D01*
X0147387Y0025383D01*
X0147423Y0025432D01*
X0147456Y0025483D01*
X0147485Y0025535D01*
X0147512Y0025590D01*
X0147535Y0025645D01*
X0147555Y0025702D01*
X0147571Y0025761D01*
X0147584Y0025820D01*
X0147593Y0025879D01*
X0147598Y0025940D01*
X0147600Y0026000D01*
X0147600Y0032000D01*
X0147598Y0032060D01*
X0147593Y0032121D01*
X0147584Y0032180D01*
X0147571Y0032239D01*
X0147555Y0032298D01*
X0147535Y0032355D01*
X0147512Y0032410D01*
X0147485Y0032465D01*
X0147456Y0032517D01*
X0147423Y0032568D01*
X0147387Y0032617D01*
X0147349Y0032663D01*
X0147307Y0032707D01*
X0147263Y0032749D01*
X0147217Y0032787D01*
X0147168Y0032823D01*
X0147117Y0032856D01*
X0147065Y0032885D01*
X0147010Y0032912D01*
X0146955Y0032935D01*
X0146898Y0032955D01*
X0146839Y0032971D01*
X0146780Y0032984D01*
X0146721Y0032993D01*
X0146660Y0032998D01*
X0146600Y0033000D01*
X0136600Y0033000D01*
X0136540Y0032998D01*
X0136479Y0032993D01*
X0136420Y0032984D01*
X0136361Y0032971D01*
X0136302Y0032955D01*
X0136245Y0032935D01*
X0136190Y0032912D01*
X0136135Y0032885D01*
X0136083Y0032856D01*
X0136032Y0032823D01*
X0135983Y0032787D01*
X0135937Y0032749D01*
X0135893Y0032707D01*
X0135851Y0032663D01*
X0135813Y0032617D01*
X0135777Y0032568D01*
X0135744Y0032517D01*
X0135715Y0032465D01*
X0135688Y0032410D01*
X0135665Y0032355D01*
X0135645Y0032298D01*
X0135629Y0032239D01*
X0135616Y0032180D01*
X0135607Y0032121D01*
X0135602Y0032060D01*
X0135600Y0032000D01*
X0087500Y0081400D02*
X0087502Y0081484D01*
X0087508Y0081569D01*
X0087518Y0081652D01*
X0087532Y0081736D01*
X0087549Y0081818D01*
X0087571Y0081900D01*
X0087596Y0081980D01*
X0087625Y0082059D01*
X0087658Y0082137D01*
X0087694Y0082213D01*
X0087734Y0082288D01*
X0087778Y0082360D01*
X0087824Y0082431D01*
X0087874Y0082499D01*
X0087927Y0082564D01*
X0087983Y0082627D01*
X0088042Y0082688D01*
X0088104Y0082745D01*
X0088168Y0082800D01*
X0088235Y0082851D01*
X0088304Y0082900D01*
X0088376Y0082945D01*
X0088449Y0082986D01*
X0088524Y0083024D01*
X0088601Y0083059D01*
X0088680Y0083090D01*
X0088760Y0083117D01*
X0088841Y0083140D01*
X0088923Y0083160D01*
X0089006Y0083176D01*
X0089089Y0083188D01*
X0089174Y0083196D01*
X0089258Y0083200D01*
X0089342Y0083200D01*
X0089426Y0083196D01*
X0089511Y0083188D01*
X0089594Y0083176D01*
X0089677Y0083160D01*
X0089759Y0083140D01*
X0089840Y0083117D01*
X0089920Y0083090D01*
X0089999Y0083059D01*
X0090076Y0083024D01*
X0090151Y0082986D01*
X0090224Y0082945D01*
X0090296Y0082900D01*
X0090365Y0082851D01*
X0090432Y0082800D01*
X0090496Y0082745D01*
X0090558Y0082688D01*
X0090617Y0082627D01*
X0090673Y0082564D01*
X0090726Y0082499D01*
X0090776Y0082431D01*
X0090822Y0082360D01*
X0090866Y0082288D01*
X0090906Y0082213D01*
X0090942Y0082137D01*
X0090975Y0082059D01*
X0091004Y0081980D01*
X0091029Y0081900D01*
X0091051Y0081818D01*
X0091068Y0081736D01*
X0091082Y0081652D01*
X0091092Y0081569D01*
X0091098Y0081484D01*
X0091100Y0081400D01*
X0091098Y0081316D01*
X0091092Y0081231D01*
X0091082Y0081148D01*
X0091068Y0081064D01*
X0091051Y0080982D01*
X0091029Y0080900D01*
X0091004Y0080820D01*
X0090975Y0080741D01*
X0090942Y0080663D01*
X0090906Y0080587D01*
X0090866Y0080512D01*
X0090822Y0080440D01*
X0090776Y0080369D01*
X0090726Y0080301D01*
X0090673Y0080236D01*
X0090617Y0080173D01*
X0090558Y0080112D01*
X0090496Y0080055D01*
X0090432Y0080000D01*
X0090365Y0079949D01*
X0090296Y0079900D01*
X0090224Y0079855D01*
X0090151Y0079814D01*
X0090076Y0079776D01*
X0089999Y0079741D01*
X0089920Y0079710D01*
X0089840Y0079683D01*
X0089759Y0079660D01*
X0089677Y0079640D01*
X0089594Y0079624D01*
X0089511Y0079612D01*
X0089426Y0079604D01*
X0089342Y0079600D01*
X0089258Y0079600D01*
X0089174Y0079604D01*
X0089089Y0079612D01*
X0089006Y0079624D01*
X0088923Y0079640D01*
X0088841Y0079660D01*
X0088760Y0079683D01*
X0088680Y0079710D01*
X0088601Y0079741D01*
X0088524Y0079776D01*
X0088449Y0079814D01*
X0088376Y0079855D01*
X0088304Y0079900D01*
X0088235Y0079949D01*
X0088168Y0080000D01*
X0088104Y0080055D01*
X0088042Y0080112D01*
X0087983Y0080173D01*
X0087927Y0080236D01*
X0087874Y0080301D01*
X0087824Y0080369D01*
X0087778Y0080440D01*
X0087734Y0080512D01*
X0087694Y0080587D01*
X0087658Y0080663D01*
X0087625Y0080741D01*
X0087596Y0080820D01*
X0087571Y0080900D01*
X0087549Y0080982D01*
X0087532Y0081064D01*
X0087518Y0081148D01*
X0087508Y0081231D01*
X0087502Y0081316D01*
X0087500Y0081400D01*
X0044600Y0150000D02*
X0038600Y0150000D01*
X0038540Y0150002D01*
X0038479Y0150007D01*
X0038420Y0150016D01*
X0038361Y0150029D01*
X0038302Y0150045D01*
X0038245Y0150065D01*
X0038190Y0150088D01*
X0038135Y0150115D01*
X0038083Y0150144D01*
X0038032Y0150177D01*
X0037983Y0150213D01*
X0037937Y0150251D01*
X0037893Y0150293D01*
X0037851Y0150337D01*
X0037813Y0150383D01*
X0037777Y0150432D01*
X0037744Y0150483D01*
X0037715Y0150535D01*
X0037688Y0150590D01*
X0037665Y0150645D01*
X0037645Y0150702D01*
X0037629Y0150761D01*
X0037616Y0150820D01*
X0037607Y0150879D01*
X0037602Y0150940D01*
X0037600Y0151000D01*
X0037600Y0161000D01*
X0037602Y0161060D01*
X0037607Y0161121D01*
X0037616Y0161180D01*
X0037629Y0161239D01*
X0037645Y0161298D01*
X0037665Y0161355D01*
X0037688Y0161410D01*
X0037715Y0161465D01*
X0037744Y0161517D01*
X0037777Y0161568D01*
X0037813Y0161617D01*
X0037851Y0161663D01*
X0037893Y0161707D01*
X0037937Y0161749D01*
X0037983Y0161787D01*
X0038032Y0161823D01*
X0038083Y0161856D01*
X0038135Y0161885D01*
X0038190Y0161912D01*
X0038245Y0161935D01*
X0038302Y0161955D01*
X0038361Y0161971D01*
X0038420Y0161984D01*
X0038479Y0161993D01*
X0038540Y0161998D01*
X0038600Y0162000D01*
X0044600Y0162000D01*
X0044660Y0161998D01*
X0044721Y0161993D01*
X0044780Y0161984D01*
X0044839Y0161971D01*
X0044898Y0161955D01*
X0044955Y0161935D01*
X0045010Y0161912D01*
X0045065Y0161885D01*
X0045117Y0161856D01*
X0045168Y0161823D01*
X0045217Y0161787D01*
X0045263Y0161749D01*
X0045307Y0161707D01*
X0045349Y0161663D01*
X0045387Y0161617D01*
X0045423Y0161568D01*
X0045456Y0161517D01*
X0045485Y0161465D01*
X0045512Y0161410D01*
X0045535Y0161355D01*
X0045555Y0161298D01*
X0045571Y0161239D01*
X0045584Y0161180D01*
X0045593Y0161121D01*
X0045598Y0161060D01*
X0045600Y0161000D01*
X0045600Y0151000D01*
X0045598Y0150940D01*
X0045593Y0150879D01*
X0045584Y0150820D01*
X0045571Y0150761D01*
X0045555Y0150702D01*
X0045535Y0150645D01*
X0045512Y0150590D01*
X0045485Y0150535D01*
X0045456Y0150483D01*
X0045423Y0150432D01*
X0045387Y0150383D01*
X0045349Y0150337D01*
X0045307Y0150293D01*
X0045263Y0150251D01*
X0045217Y0150213D01*
X0045168Y0150177D01*
X0045117Y0150144D01*
X0045065Y0150115D01*
X0045010Y0150088D01*
X0044955Y0150065D01*
X0044898Y0150045D01*
X0044839Y0150029D01*
X0044780Y0150016D01*
X0044721Y0150007D01*
X0044660Y0150002D01*
X0044600Y0150000D01*
X0420600Y0160500D02*
X0420600Y0164000D01*
X0421600Y0165000D01*
X0421600Y0218000D01*
X0420600Y0219000D01*
X0420600Y0222500D01*
X0420602Y0222576D01*
X0420608Y0222652D01*
X0420617Y0222727D01*
X0420631Y0222802D01*
X0420648Y0222876D01*
X0420669Y0222949D01*
X0420693Y0223021D01*
X0420722Y0223092D01*
X0420753Y0223161D01*
X0420788Y0223228D01*
X0420827Y0223293D01*
X0420869Y0223357D01*
X0420914Y0223418D01*
X0420962Y0223477D01*
X0421013Y0223533D01*
X0421067Y0223587D01*
X0421123Y0223638D01*
X0421182Y0223686D01*
X0421243Y0223731D01*
X0421307Y0223773D01*
X0421372Y0223812D01*
X0421439Y0223847D01*
X0421508Y0223878D01*
X0421579Y0223907D01*
X0421651Y0223931D01*
X0421724Y0223952D01*
X0421798Y0223969D01*
X0421873Y0223983D01*
X0421948Y0223992D01*
X0422024Y0223998D01*
X0422100Y0224000D01*
X0428600Y0224000D01*
X0436600Y0224000D02*
X0443100Y0224000D01*
X0443176Y0223998D01*
X0443252Y0223992D01*
X0443327Y0223983D01*
X0443402Y0223969D01*
X0443476Y0223952D01*
X0443549Y0223931D01*
X0443621Y0223907D01*
X0443692Y0223878D01*
X0443761Y0223847D01*
X0443828Y0223812D01*
X0443893Y0223773D01*
X0443957Y0223731D01*
X0444018Y0223686D01*
X0444077Y0223638D01*
X0444133Y0223587D01*
X0444187Y0223533D01*
X0444238Y0223477D01*
X0444286Y0223418D01*
X0444331Y0223357D01*
X0444373Y0223293D01*
X0444412Y0223228D01*
X0444447Y0223161D01*
X0444478Y0223092D01*
X0444507Y0223021D01*
X0444531Y0222949D01*
X0444552Y0222876D01*
X0444569Y0222802D01*
X0444583Y0222727D01*
X0444592Y0222652D01*
X0444598Y0222576D01*
X0444600Y0222500D01*
X0444600Y0219000D01*
X0443600Y0218000D01*
X0443600Y0165000D01*
X0444600Y0164000D01*
X0444600Y0160500D01*
X0444598Y0160424D01*
X0444592Y0160348D01*
X0444583Y0160273D01*
X0444569Y0160198D01*
X0444552Y0160124D01*
X0444531Y0160051D01*
X0444507Y0159979D01*
X0444478Y0159908D01*
X0444447Y0159839D01*
X0444412Y0159772D01*
X0444373Y0159707D01*
X0444331Y0159643D01*
X0444286Y0159582D01*
X0444238Y0159523D01*
X0444187Y0159467D01*
X0444133Y0159413D01*
X0444077Y0159362D01*
X0444018Y0159314D01*
X0443957Y0159269D01*
X0443893Y0159227D01*
X0443828Y0159188D01*
X0443761Y0159153D01*
X0443692Y0159122D01*
X0443621Y0159093D01*
X0443549Y0159069D01*
X0443476Y0159048D01*
X0443402Y0159031D01*
X0443327Y0159017D01*
X0443252Y0159008D01*
X0443176Y0159002D01*
X0443100Y0159000D01*
X0436600Y0159000D01*
X0428600Y0159000D02*
X0422100Y0159000D01*
X0422024Y0159002D01*
X0421948Y0159008D01*
X0421873Y0159017D01*
X0421798Y0159031D01*
X0421724Y0159048D01*
X0421651Y0159069D01*
X0421579Y0159093D01*
X0421508Y0159122D01*
X0421439Y0159153D01*
X0421372Y0159188D01*
X0421307Y0159227D01*
X0421243Y0159269D01*
X0421182Y0159314D01*
X0421123Y0159362D01*
X0421067Y0159413D01*
X0421013Y0159467D01*
X0420962Y0159523D01*
X0420914Y0159582D01*
X0420869Y0159643D01*
X0420827Y0159707D01*
X0420788Y0159772D01*
X0420753Y0159839D01*
X0420722Y0159908D01*
X0420693Y0159979D01*
X0420669Y0160051D01*
X0420648Y0160124D01*
X0420631Y0160198D01*
X0420617Y0160273D01*
X0420608Y0160348D01*
X0420602Y0160424D01*
X0420600Y0160500D01*
X0444895Y0163800D02*
X0444895Y0168070D01*
X0444895Y0170245D02*
X0450232Y0170245D01*
X0451300Y0171313D01*
X0451300Y0173448D01*
X0450232Y0174516D01*
X0444895Y0174516D01*
X0445962Y0176691D02*
X0447030Y0176691D01*
X0448097Y0177759D01*
X0448097Y0179894D01*
X0449165Y0180961D01*
X0450232Y0180961D01*
X0451300Y0179894D01*
X0451300Y0177759D01*
X0450232Y0176691D01*
X0445962Y0176691D02*
X0444895Y0177759D01*
X0444895Y0179894D01*
X0445962Y0180961D01*
X0444895Y0183136D02*
X0451300Y0183136D01*
X0451300Y0187407D01*
X0448097Y0185272D02*
X0448097Y0183136D01*
X0444895Y0183136D02*
X0444895Y0187407D01*
X0445962Y0196027D02*
X0447030Y0196027D01*
X0448097Y0197095D01*
X0448097Y0199230D01*
X0449165Y0200298D01*
X0450232Y0200298D01*
X0451300Y0199230D01*
X0451300Y0197095D01*
X0450232Y0196027D01*
X0449165Y0196027D01*
X0448097Y0197095D01*
X0448097Y0199230D02*
X0447030Y0200298D01*
X0445962Y0200298D01*
X0444895Y0199230D01*
X0444895Y0197095D01*
X0445962Y0196027D01*
X0448097Y0165935D02*
X0448097Y0163800D01*
X0444895Y0163800D02*
X0451300Y0163800D01*
X0449732Y0153243D02*
X0448665Y0153243D01*
X0447597Y0152176D01*
X0447597Y0148973D01*
X0449732Y0148973D01*
X0450800Y0150041D01*
X0450800Y0152176D01*
X0449732Y0153243D01*
X0445462Y0151108D02*
X0447597Y0148973D01*
X0445462Y0151108D02*
X0444395Y0153243D01*
X0444395Y0144663D02*
X0450800Y0144663D01*
X0450800Y0146798D02*
X0450800Y0142527D01*
X0446530Y0142527D02*
X0444395Y0144663D01*
X0444395Y0133907D02*
X0444395Y0129636D01*
X0450800Y0129636D01*
X0450800Y0133907D01*
X0447597Y0131772D02*
X0447597Y0129636D01*
X0448665Y0127461D02*
X0449732Y0127461D01*
X0450800Y0126394D01*
X0450800Y0124259D01*
X0449732Y0123191D01*
X0449732Y0121016D02*
X0444395Y0121016D01*
X0445462Y0123191D02*
X0446530Y0123191D01*
X0447597Y0124259D01*
X0447597Y0126394D01*
X0448665Y0127461D01*
X0445462Y0127461D02*
X0444395Y0126394D01*
X0444395Y0124259D01*
X0445462Y0123191D01*
X0449732Y0121016D02*
X0450800Y0119948D01*
X0450800Y0117813D01*
X0449732Y0116745D01*
X0444395Y0116745D01*
X0444395Y0114570D02*
X0444395Y0110300D01*
X0450800Y0110300D01*
X0447597Y0110300D02*
X0447597Y0112435D01*
X0448232Y0080461D02*
X0443962Y0080461D01*
X0442895Y0079394D01*
X0442895Y0076191D01*
X0449300Y0076191D01*
X0449300Y0079394D01*
X0448232Y0080461D01*
X0449300Y0074016D02*
X0442895Y0074016D01*
X0442895Y0069745D02*
X0449300Y0074016D01*
X0449300Y0069745D02*
X0442895Y0069745D01*
X0443962Y0067570D02*
X0442895Y0066503D01*
X0442895Y0064368D01*
X0443962Y0063300D01*
X0448232Y0063300D01*
X0449300Y0064368D01*
X0449300Y0066503D01*
X0448232Y0067570D01*
X0446097Y0067570D01*
X0446097Y0065435D01*
X0443962Y0036961D02*
X0442895Y0035894D01*
X0442895Y0032691D01*
X0449300Y0032691D01*
X0449300Y0035894D01*
X0448232Y0036961D01*
X0443962Y0036961D01*
X0442895Y0030516D02*
X0449300Y0030516D01*
X0442895Y0026245D01*
X0449300Y0026245D01*
X0448232Y0024070D02*
X0446097Y0024070D01*
X0446097Y0021935D01*
X0443962Y0019800D02*
X0442895Y0020868D01*
X0442895Y0023003D01*
X0443962Y0024070D01*
X0448232Y0024070D02*
X0449300Y0023003D01*
X0449300Y0020868D01*
X0448232Y0019800D01*
X0443962Y0019800D01*
D12*
X0044100Y0006000D02*
X0041600Y0008500D01*
X0041600Y0013500D01*
X0044100Y0016000D01*
X0049100Y0016000D01*
X0051600Y0013500D01*
X0054100Y0016000D01*
X0059100Y0016000D01*
X0061600Y0013500D01*
X0061600Y0008500D01*
X0059100Y0006000D01*
X0054100Y0006000D01*
X0051600Y0008500D01*
X0049100Y0006000D01*
X0044100Y0006000D01*
X0063600Y0008500D02*
X0066100Y0006000D01*
X0071100Y0006000D01*
X0073600Y0008500D01*
X0076100Y0006000D01*
X0081100Y0006000D01*
X0083600Y0008500D01*
X0083600Y0013500D01*
X0081100Y0016000D01*
X0076100Y0016000D01*
X0073600Y0013500D01*
X0071100Y0016000D01*
X0066100Y0016000D01*
X0063600Y0013500D01*
X0063600Y0008500D01*
X0085600Y0008500D02*
X0088100Y0006000D01*
X0093100Y0006000D01*
X0095600Y0008500D01*
X0098100Y0006000D01*
X0103100Y0006000D01*
X0105600Y0008500D01*
X0105600Y0013500D01*
X0103100Y0016000D01*
X0098100Y0016000D01*
X0095600Y0013500D01*
X0093100Y0016000D01*
X0088100Y0016000D01*
X0085600Y0013500D01*
X0085600Y0008500D01*
X0107600Y0008500D02*
X0110100Y0006000D01*
X0115100Y0006000D01*
X0117600Y0008500D01*
X0120100Y0006000D01*
X0125100Y0006000D01*
X0127600Y0008500D01*
X0127600Y0013500D01*
X0125100Y0016000D01*
X0120100Y0016000D01*
X0117600Y0013500D01*
X0115100Y0016000D01*
X0110100Y0016000D01*
X0107600Y0013500D01*
X0107600Y0008500D01*
X0129600Y0008500D02*
X0132100Y0006000D01*
X0137100Y0006000D01*
X0139600Y0008500D01*
X0142100Y0006000D01*
X0147100Y0006000D01*
X0149600Y0008500D01*
X0152100Y0006000D01*
X0157100Y0006000D01*
X0159600Y0008500D01*
X0159600Y0013500D01*
X0157100Y0016000D01*
X0152100Y0016000D01*
X0149600Y0013500D01*
X0147100Y0016000D01*
X0142100Y0016000D01*
X0139600Y0013500D01*
X0137100Y0016000D01*
X0132100Y0016000D01*
X0129600Y0013500D01*
X0129600Y0008500D01*
X0161600Y0008500D02*
X0164100Y0006000D01*
X0169100Y0006000D01*
X0171600Y0008500D01*
X0174100Y0006000D01*
X0179100Y0006000D01*
X0181600Y0008500D01*
X0184100Y0006000D01*
X0189100Y0006000D01*
X0191600Y0008500D01*
X0191600Y0013500D01*
X0189100Y0016000D01*
X0184100Y0016000D01*
X0181600Y0013500D01*
X0179100Y0016000D01*
X0174100Y0016000D01*
X0171600Y0013500D01*
X0169100Y0016000D01*
X0164100Y0016000D01*
X0161600Y0013500D01*
X0161600Y0008500D01*
X0030313Y0032965D02*
X0030313Y0039465D01*
X0028813Y0038965D02*
X0028813Y0033965D01*
X0026313Y0031465D01*
X0021313Y0031465D01*
X0018813Y0033965D01*
X0016313Y0031465D01*
X0011313Y0031465D01*
X0008813Y0033965D01*
X0008813Y0038965D01*
X0011313Y0041465D01*
X0026313Y0041465D01*
X0028813Y0043965D01*
X0028813Y0048965D01*
X0026313Y0051465D01*
X0011313Y0051465D01*
X0008813Y0048965D01*
X0008813Y0043965D01*
X0011313Y0041465D01*
X0011313Y0051465D02*
X0008813Y0053965D01*
X0008813Y0058965D01*
X0011313Y0061465D01*
X0026313Y0061465D01*
X0028813Y0063965D01*
X0028813Y0068965D01*
X0026313Y0071465D01*
X0011313Y0071465D01*
X0008813Y0073965D01*
X0008813Y0078965D01*
X0011313Y0081465D01*
X0026313Y0081465D01*
X0028813Y0078965D01*
X0028813Y0073965D01*
X0026313Y0071465D01*
X0026313Y0081465D02*
X0028813Y0083965D01*
X0028813Y0088965D01*
X0026313Y0091465D01*
X0011313Y0091465D01*
X0008813Y0093965D01*
X0008813Y0098965D01*
X0011313Y0101465D01*
X0026313Y0101465D01*
X0028813Y0103965D01*
X0028813Y0108965D01*
X0026313Y0111465D01*
X0011313Y0111465D01*
X0008813Y0113965D01*
X0008813Y0118965D01*
X0011313Y0121465D01*
X0026313Y0121465D01*
X0028813Y0118965D01*
X0028813Y0113965D01*
X0026313Y0111465D01*
X0026313Y0121465D02*
X0028813Y0123965D01*
X0028813Y0128965D01*
X0026313Y0131465D01*
X0011313Y0131465D01*
X0008813Y0133965D01*
X0008813Y0138965D01*
X0011313Y0141465D01*
X0026313Y0141465D01*
X0028813Y0143965D01*
X0028813Y0148965D01*
X0026313Y0151465D01*
X0011313Y0151465D01*
X0008813Y0148965D01*
X0008813Y0143965D01*
X0011313Y0141465D01*
X0011313Y0151465D02*
X0008813Y0153965D01*
X0008813Y0158965D01*
X0011313Y0161465D01*
X0026313Y0161465D01*
X0028813Y0163965D01*
X0028813Y0168965D01*
X0026313Y0171465D01*
X0028813Y0173965D01*
X0028813Y0178965D01*
X0026313Y0181465D01*
X0028813Y0183965D01*
X0028813Y0188965D01*
X0026313Y0191465D01*
X0028813Y0193965D01*
X0028813Y0198965D01*
X0026313Y0201465D01*
X0028813Y0203965D01*
X0028813Y0208965D01*
X0026313Y0211465D01*
X0028813Y0213965D01*
X0028813Y0218965D01*
X0026313Y0221465D01*
X0028813Y0223965D01*
X0028813Y0228965D01*
X0026313Y0231465D01*
X0021313Y0231465D01*
X0018813Y0228965D01*
X0016313Y0231465D01*
X0011313Y0231465D01*
X0008813Y0228965D01*
X0008813Y0223965D01*
X0011313Y0221465D01*
X0026313Y0221465D01*
X0026313Y0211465D02*
X0011313Y0211465D01*
X0008813Y0213965D01*
X0008813Y0218965D01*
X0011313Y0221465D01*
X0011313Y0211465D02*
X0008813Y0208965D01*
X0008813Y0203965D01*
X0011313Y0201465D01*
X0026313Y0201465D01*
X0026313Y0191465D02*
X0011313Y0191465D01*
X0008813Y0188965D01*
X0008813Y0183965D01*
X0011313Y0181465D01*
X0026313Y0181465D01*
X0026313Y0171465D02*
X0011313Y0171465D01*
X0008813Y0173965D01*
X0008813Y0178965D01*
X0011313Y0181465D01*
X0011313Y0191465D02*
X0008813Y0193965D01*
X0008813Y0198965D01*
X0011313Y0201465D01*
X0047269Y0204744D02*
X0047269Y0208894D01*
X0047269Y0204744D02*
X0048950Y0204744D01*
X0054250Y0204744D02*
X0055931Y0204744D01*
X0055931Y0208894D01*
X0055931Y0216244D02*
X0055931Y0220394D01*
X0055931Y0216244D02*
X0054250Y0216244D01*
X0048950Y0216244D02*
X0047269Y0216244D01*
X0047269Y0220394D01*
X0066600Y0240000D02*
X0064100Y0242500D01*
X0064100Y0247500D01*
X0066600Y0250000D01*
X0071600Y0250000D01*
X0074100Y0247500D01*
X0076600Y0250000D01*
X0081600Y0250000D01*
X0084100Y0247500D01*
X0086600Y0250000D01*
X0091600Y0250000D01*
X0094100Y0247500D01*
X0094100Y0242500D01*
X0091600Y0240000D01*
X0086600Y0240000D01*
X0084100Y0242500D01*
X0081600Y0240000D01*
X0076600Y0240000D01*
X0074100Y0242500D01*
X0071600Y0240000D01*
X0066600Y0240000D01*
X0091694Y0213811D02*
X0093269Y0213811D01*
X0091694Y0213811D02*
X0091632Y0213809D01*
X0091571Y0213803D01*
X0091510Y0213794D01*
X0091449Y0213780D01*
X0091390Y0213763D01*
X0091332Y0213742D01*
X0091275Y0213717D01*
X0091220Y0213689D01*
X0091167Y0213658D01*
X0091116Y0213623D01*
X0091067Y0213585D01*
X0091020Y0213544D01*
X0090977Y0213501D01*
X0090936Y0213454D01*
X0090898Y0213405D01*
X0090863Y0213354D01*
X0090832Y0213301D01*
X0090804Y0213246D01*
X0090779Y0213189D01*
X0090758Y0213131D01*
X0090741Y0213072D01*
X0090727Y0213011D01*
X0090718Y0212950D01*
X0090712Y0212889D01*
X0090710Y0212827D01*
X0090710Y0191173D01*
X0090712Y0191111D01*
X0090718Y0191050D01*
X0090727Y0190989D01*
X0090741Y0190928D01*
X0090758Y0190869D01*
X0090779Y0190811D01*
X0090804Y0190754D01*
X0090832Y0190699D01*
X0090863Y0190646D01*
X0090898Y0190595D01*
X0090936Y0190546D01*
X0090977Y0190499D01*
X0091020Y0190456D01*
X0091067Y0190415D01*
X0091116Y0190377D01*
X0091167Y0190342D01*
X0091220Y0190311D01*
X0091275Y0190283D01*
X0091332Y0190258D01*
X0091390Y0190237D01*
X0091449Y0190220D01*
X0091510Y0190206D01*
X0091571Y0190197D01*
X0091632Y0190191D01*
X0091694Y0190189D01*
X0093269Y0190189D01*
X0094647Y0196094D02*
X0100553Y0196094D01*
X0100553Y0207906D01*
X0094647Y0207906D01*
X0094647Y0196094D01*
X0101931Y0190189D02*
X0103506Y0190189D01*
X0103568Y0190191D01*
X0103629Y0190197D01*
X0103690Y0190206D01*
X0103751Y0190220D01*
X0103810Y0190237D01*
X0103868Y0190258D01*
X0103925Y0190283D01*
X0103980Y0190311D01*
X0104033Y0190342D01*
X0104084Y0190377D01*
X0104133Y0190415D01*
X0104180Y0190456D01*
X0104223Y0190499D01*
X0104264Y0190546D01*
X0104302Y0190595D01*
X0104337Y0190646D01*
X0104368Y0190699D01*
X0104396Y0190754D01*
X0104421Y0190811D01*
X0104442Y0190869D01*
X0104459Y0190928D01*
X0104473Y0190989D01*
X0104482Y0191050D01*
X0104488Y0191111D01*
X0104490Y0191173D01*
X0104490Y0212827D01*
X0104488Y0212889D01*
X0104482Y0212950D01*
X0104473Y0213011D01*
X0104459Y0213072D01*
X0104442Y0213131D01*
X0104421Y0213189D01*
X0104396Y0213246D01*
X0104368Y0213301D01*
X0104337Y0213354D01*
X0104302Y0213405D01*
X0104264Y0213454D01*
X0104223Y0213501D01*
X0104180Y0213544D01*
X0104133Y0213585D01*
X0104084Y0213623D01*
X0104033Y0213658D01*
X0103980Y0213689D01*
X0103925Y0213717D01*
X0103868Y0213742D01*
X0103810Y0213763D01*
X0103751Y0213780D01*
X0103690Y0213794D01*
X0103629Y0213803D01*
X0103568Y0213809D01*
X0103506Y0213811D01*
X0101931Y0213811D01*
X0109498Y0208512D02*
X0109498Y0197488D01*
X0109497Y0197488D02*
X0109499Y0197442D01*
X0109504Y0197396D01*
X0109513Y0197350D01*
X0109526Y0197305D01*
X0109542Y0197262D01*
X0109561Y0197220D01*
X0109584Y0197179D01*
X0109610Y0197141D01*
X0109639Y0197104D01*
X0109670Y0197070D01*
X0109704Y0197039D01*
X0109741Y0197010D01*
X0109779Y0196984D01*
X0109820Y0196961D01*
X0109862Y0196942D01*
X0109905Y0196926D01*
X0109950Y0196913D01*
X0109996Y0196904D01*
X0110042Y0196899D01*
X0110088Y0196897D01*
X0110088Y0196898D02*
X0121112Y0196898D01*
X0121112Y0196897D02*
X0121158Y0196899D01*
X0121204Y0196904D01*
X0121250Y0196913D01*
X0121295Y0196926D01*
X0121338Y0196942D01*
X0121380Y0196961D01*
X0121421Y0196984D01*
X0121459Y0197010D01*
X0121496Y0197039D01*
X0121530Y0197070D01*
X0121561Y0197104D01*
X0121590Y0197141D01*
X0121616Y0197179D01*
X0121639Y0197220D01*
X0121658Y0197262D01*
X0121674Y0197305D01*
X0121687Y0197350D01*
X0121696Y0197396D01*
X0121701Y0197442D01*
X0121703Y0197488D01*
X0121702Y0197488D02*
X0121702Y0208512D01*
X0121703Y0208512D02*
X0121701Y0208558D01*
X0121696Y0208604D01*
X0121687Y0208650D01*
X0121674Y0208695D01*
X0121658Y0208738D01*
X0121639Y0208780D01*
X0121616Y0208821D01*
X0121590Y0208859D01*
X0121561Y0208896D01*
X0121530Y0208930D01*
X0121496Y0208961D01*
X0121459Y0208990D01*
X0121421Y0209016D01*
X0121380Y0209039D01*
X0121338Y0209058D01*
X0121295Y0209074D01*
X0121250Y0209087D01*
X0121204Y0209096D01*
X0121158Y0209101D01*
X0121112Y0209103D01*
X0121112Y0209102D02*
X0110088Y0209102D01*
X0110088Y0209103D02*
X0110042Y0209101D01*
X0109996Y0209096D01*
X0109950Y0209087D01*
X0109905Y0209074D01*
X0109862Y0209058D01*
X0109820Y0209039D01*
X0109779Y0209016D01*
X0109741Y0208990D01*
X0109704Y0208961D01*
X0109670Y0208930D01*
X0109639Y0208896D01*
X0109610Y0208859D01*
X0109584Y0208821D01*
X0109561Y0208780D01*
X0109542Y0208738D01*
X0109526Y0208695D01*
X0109513Y0208650D01*
X0109504Y0208604D01*
X0109499Y0208558D01*
X0109497Y0208512D01*
X0142600Y0206000D02*
X0142600Y0236000D01*
X0142662Y0236156D01*
X0142729Y0236311D01*
X0142798Y0236464D01*
X0142872Y0236616D01*
X0142949Y0236765D01*
X0143030Y0236913D01*
X0143114Y0237059D01*
X0143202Y0237202D01*
X0143293Y0237344D01*
X0143387Y0237483D01*
X0143485Y0237620D01*
X0143586Y0237754D01*
X0143691Y0237886D01*
X0143798Y0238016D01*
X0143909Y0238142D01*
X0144023Y0238266D01*
X0144139Y0238388D01*
X0144259Y0238506D01*
X0144381Y0238622D01*
X0144506Y0238734D01*
X0144634Y0238844D01*
X0144765Y0238950D01*
X0144898Y0239053D01*
X0145033Y0239153D01*
X0145171Y0239250D01*
X0145311Y0239343D01*
X0145453Y0239433D01*
X0145598Y0239519D01*
X0145744Y0239602D01*
X0145893Y0239681D01*
X0146043Y0239757D01*
X0146195Y0239829D01*
X0146349Y0239897D01*
X0146504Y0239962D01*
X0146661Y0240023D01*
X0146819Y0240080D01*
X0146979Y0240133D01*
X0147140Y0240182D01*
X0147302Y0240228D01*
X0147465Y0240269D01*
X0147629Y0240307D01*
X0147794Y0240340D01*
X0147960Y0240370D01*
X0148126Y0240396D01*
X0148293Y0240417D01*
X0148460Y0240435D01*
X0148628Y0240448D01*
X0148796Y0240457D01*
X0148964Y0240463D01*
X0149133Y0240464D01*
X0149301Y0240461D01*
X0149469Y0240454D01*
X0149637Y0240443D01*
X0149805Y0240428D01*
X0149972Y0240409D01*
X0150138Y0240386D01*
X0150305Y0240359D01*
X0150470Y0240328D01*
X0150635Y0240293D01*
X0150798Y0240254D01*
X0150961Y0240211D01*
X0151123Y0240164D01*
X0151283Y0240113D01*
X0151442Y0240058D01*
X0151600Y0240000D01*
X0151967Y0239642D01*
X0152342Y0239293D01*
X0152726Y0238953D01*
X0153118Y0238622D01*
X0153518Y0238301D01*
X0153925Y0237990D01*
X0154340Y0237689D01*
X0154761Y0237398D01*
X0155190Y0237117D01*
X0155626Y0236846D01*
X0156068Y0236586D01*
X0156516Y0236337D01*
X0156969Y0236099D01*
X0157429Y0235872D01*
X0157894Y0235656D01*
X0158364Y0235451D01*
X0158839Y0235258D01*
X0159318Y0235076D01*
X0159802Y0234906D01*
X0160289Y0234748D01*
X0160780Y0234601D01*
X0161275Y0234466D01*
X0161773Y0234344D01*
X0162273Y0234233D01*
X0162776Y0234134D01*
X0163282Y0234048D01*
X0163789Y0233974D01*
X0164298Y0233912D01*
X0164808Y0233863D01*
X0165319Y0233826D01*
X0165831Y0233801D01*
X0166344Y0233789D01*
X0166856Y0233789D01*
X0167369Y0233801D01*
X0167881Y0233826D01*
X0168392Y0233863D01*
X0168902Y0233912D01*
X0169411Y0233974D01*
X0169918Y0234048D01*
X0170424Y0234134D01*
X0170927Y0234233D01*
X0171427Y0234344D01*
X0171925Y0234466D01*
X0172420Y0234601D01*
X0172911Y0234748D01*
X0173398Y0234906D01*
X0173882Y0235076D01*
X0174361Y0235258D01*
X0174836Y0235451D01*
X0175306Y0235656D01*
X0175771Y0235872D01*
X0176231Y0236099D01*
X0176684Y0236337D01*
X0177132Y0236586D01*
X0177574Y0236846D01*
X0178010Y0237117D01*
X0178439Y0237398D01*
X0178860Y0237689D01*
X0179275Y0237990D01*
X0179682Y0238301D01*
X0180082Y0238622D01*
X0180474Y0238953D01*
X0180858Y0239293D01*
X0181233Y0239642D01*
X0181600Y0240000D01*
X0181758Y0240058D01*
X0181917Y0240113D01*
X0182077Y0240164D01*
X0182239Y0240211D01*
X0182402Y0240254D01*
X0182565Y0240293D01*
X0182730Y0240328D01*
X0182895Y0240359D01*
X0183062Y0240386D01*
X0183228Y0240409D01*
X0183395Y0240428D01*
X0183563Y0240443D01*
X0183731Y0240454D01*
X0183899Y0240461D01*
X0184067Y0240464D01*
X0184236Y0240463D01*
X0184404Y0240457D01*
X0184572Y0240448D01*
X0184740Y0240435D01*
X0184907Y0240417D01*
X0185074Y0240396D01*
X0185240Y0240370D01*
X0185406Y0240340D01*
X0185571Y0240307D01*
X0185735Y0240269D01*
X0185898Y0240228D01*
X0186060Y0240182D01*
X0186221Y0240133D01*
X0186381Y0240080D01*
X0186539Y0240023D01*
X0186696Y0239962D01*
X0186851Y0239897D01*
X0187005Y0239829D01*
X0187157Y0239757D01*
X0187307Y0239681D01*
X0187456Y0239602D01*
X0187602Y0239519D01*
X0187747Y0239433D01*
X0187889Y0239343D01*
X0188029Y0239250D01*
X0188167Y0239153D01*
X0188302Y0239053D01*
X0188435Y0238950D01*
X0188566Y0238844D01*
X0188694Y0238734D01*
X0188819Y0238622D01*
X0188941Y0238506D01*
X0189061Y0238388D01*
X0189177Y0238266D01*
X0189291Y0238142D01*
X0189402Y0238016D01*
X0189509Y0237886D01*
X0189614Y0237754D01*
X0189715Y0237620D01*
X0189813Y0237483D01*
X0189907Y0237344D01*
X0189998Y0237202D01*
X0190086Y0237059D01*
X0190170Y0236913D01*
X0190251Y0236765D01*
X0190328Y0236616D01*
X0190402Y0236464D01*
X0190471Y0236311D01*
X0190538Y0236156D01*
X0190600Y0236000D01*
X0190600Y0206000D01*
X0178600Y0194000D01*
X0154600Y0194000D01*
X0142600Y0206000D01*
X0160521Y0153236D02*
X0200679Y0153236D01*
X0200679Y0132764D01*
X0160521Y0132764D01*
X0138300Y0136163D02*
X0138300Y0123837D01*
X0138300Y0123838D02*
X0138309Y0123767D01*
X0138314Y0123696D01*
X0138315Y0123624D01*
X0138312Y0123553D01*
X0138305Y0123482D01*
X0138295Y0123411D01*
X0138281Y0123342D01*
X0138262Y0123272D01*
X0138241Y0123204D01*
X0138215Y0123138D01*
X0138186Y0123073D01*
X0138154Y0123009D01*
X0138118Y0122947D01*
X0138079Y0122888D01*
X0138036Y0122830D01*
X0137991Y0122775D01*
X0137942Y0122723D01*
X0137891Y0122673D01*
X0137838Y0122626D01*
X0137781Y0122582D01*
X0137723Y0122541D01*
X0137662Y0122503D01*
X0137600Y0122469D01*
X0137535Y0122438D01*
X0137469Y0122411D01*
X0137402Y0122387D01*
X0137334Y0122367D01*
X0137264Y0122350D01*
X0137194Y0122338D01*
X0137194Y0122337D02*
X0098400Y0122337D01*
X0098400Y0122338D02*
X0098330Y0122329D01*
X0098258Y0122324D01*
X0098187Y0122323D01*
X0098116Y0122326D01*
X0098045Y0122333D01*
X0097974Y0122343D01*
X0097904Y0122357D01*
X0097835Y0122375D01*
X0097767Y0122397D01*
X0097700Y0122423D01*
X0097635Y0122452D01*
X0097572Y0122484D01*
X0097510Y0122520D01*
X0097450Y0122559D01*
X0097393Y0122602D01*
X0097338Y0122647D01*
X0097285Y0122695D01*
X0097235Y0122747D01*
X0097188Y0122800D01*
X0097144Y0122856D01*
X0097104Y0122915D01*
X0097066Y0122976D01*
X0097032Y0123038D01*
X0097001Y0123102D01*
X0096973Y0123168D01*
X0096950Y0123236D01*
X0096930Y0123304D01*
X0096913Y0123374D01*
X0096901Y0123444D01*
X0096900Y0123444D02*
X0096900Y0127400D01*
X0097100Y0127400D02*
X0097198Y0127402D01*
X0097296Y0127408D01*
X0097394Y0127417D01*
X0097491Y0127431D01*
X0097588Y0127448D01*
X0097684Y0127469D01*
X0097779Y0127494D01*
X0097873Y0127522D01*
X0097965Y0127555D01*
X0098057Y0127590D01*
X0098147Y0127630D01*
X0098235Y0127672D01*
X0098322Y0127719D01*
X0098406Y0127768D01*
X0098489Y0127821D01*
X0098569Y0127877D01*
X0098648Y0127937D01*
X0098724Y0127999D01*
X0098797Y0128064D01*
X0098868Y0128132D01*
X0098936Y0128203D01*
X0099001Y0128276D01*
X0099063Y0128352D01*
X0099123Y0128431D01*
X0099179Y0128511D01*
X0099232Y0128594D01*
X0099281Y0128678D01*
X0099328Y0128765D01*
X0099370Y0128853D01*
X0099410Y0128943D01*
X0099445Y0129035D01*
X0099478Y0129127D01*
X0099506Y0129221D01*
X0099531Y0129316D01*
X0099552Y0129412D01*
X0099569Y0129509D01*
X0099583Y0129606D01*
X0099592Y0129704D01*
X0099598Y0129802D01*
X0099600Y0129900D01*
X0099598Y0129998D01*
X0099592Y0130096D01*
X0099583Y0130194D01*
X0099569Y0130291D01*
X0099552Y0130388D01*
X0099531Y0130484D01*
X0099506Y0130579D01*
X0099478Y0130673D01*
X0099445Y0130765D01*
X0099410Y0130857D01*
X0099370Y0130947D01*
X0099328Y0131035D01*
X0099281Y0131122D01*
X0099232Y0131206D01*
X0099179Y0131289D01*
X0099123Y0131369D01*
X0099063Y0131448D01*
X0099001Y0131524D01*
X0098936Y0131597D01*
X0098868Y0131668D01*
X0098797Y0131736D01*
X0098724Y0131801D01*
X0098648Y0131863D01*
X0098569Y0131923D01*
X0098489Y0131979D01*
X0098406Y0132032D01*
X0098322Y0132081D01*
X0098235Y0132128D01*
X0098147Y0132170D01*
X0098057Y0132210D01*
X0097965Y0132245D01*
X0097873Y0132278D01*
X0097779Y0132306D01*
X0097684Y0132331D01*
X0097588Y0132352D01*
X0097491Y0132369D01*
X0097394Y0132383D01*
X0097296Y0132392D01*
X0097198Y0132398D01*
X0097100Y0132400D01*
X0096900Y0132400D02*
X0096900Y0135719D01*
X0096899Y0135769D02*
X0096892Y0135850D01*
X0096888Y0135931D01*
X0096889Y0136012D01*
X0096893Y0136094D01*
X0096901Y0136174D01*
X0096913Y0136255D01*
X0096928Y0136335D01*
X0096948Y0136414D01*
X0096971Y0136492D01*
X0096998Y0136568D01*
X0097028Y0136644D01*
X0097062Y0136718D01*
X0097100Y0136790D01*
X0097141Y0136860D01*
X0097185Y0136928D01*
X0097232Y0136994D01*
X0097283Y0137058D01*
X0097336Y0137119D01*
X0097393Y0137178D01*
X0097452Y0137234D01*
X0097513Y0137287D01*
X0097577Y0137337D01*
X0097644Y0137384D01*
X0097712Y0137428D01*
X0097783Y0137468D01*
X0097855Y0137505D01*
X0097929Y0137539D01*
X0098005Y0137568D01*
X0098082Y0137595D01*
X0098160Y0137617D01*
X0098239Y0137636D01*
X0098319Y0137651D01*
X0098400Y0137663D01*
X0136800Y0137663D01*
X0136876Y0137661D01*
X0136951Y0137655D01*
X0137027Y0137646D01*
X0137102Y0137632D01*
X0137176Y0137615D01*
X0137249Y0137594D01*
X0137321Y0137570D01*
X0137391Y0137542D01*
X0137460Y0137510D01*
X0137528Y0137475D01*
X0137593Y0137436D01*
X0137657Y0137394D01*
X0137718Y0137349D01*
X0137777Y0137301D01*
X0137833Y0137250D01*
X0137887Y0137196D01*
X0137938Y0137140D01*
X0137986Y0137081D01*
X0138031Y0137020D01*
X0138073Y0136956D01*
X0138112Y0136891D01*
X0138147Y0136823D01*
X0138179Y0136754D01*
X0138207Y0136684D01*
X0138231Y0136612D01*
X0138252Y0136539D01*
X0138269Y0136465D01*
X0138283Y0136390D01*
X0138292Y0136314D01*
X0138298Y0136239D01*
X0138300Y0136163D01*
X0028813Y0133965D02*
X0028813Y0138965D01*
X0026313Y0141465D01*
X0028813Y0133965D02*
X0026313Y0131465D01*
X0011313Y0131465D02*
X0008813Y0128965D01*
X0008813Y0123965D01*
X0011313Y0121465D01*
X0011313Y0111465D02*
X0008813Y0108965D01*
X0008813Y0103965D01*
X0011313Y0101465D01*
X0011313Y0091465D02*
X0008813Y0088965D01*
X0008813Y0083965D01*
X0011313Y0081465D01*
X0011313Y0071465D02*
X0008813Y0068965D01*
X0008813Y0063965D01*
X0011313Y0061465D01*
X0026313Y0061465D02*
X0028813Y0058965D01*
X0028813Y0053965D01*
X0026313Y0051465D01*
X0026313Y0041465D02*
X0028813Y0038965D01*
X0026313Y0091465D02*
X0028813Y0093965D01*
X0028813Y0098965D01*
X0026313Y0101465D01*
X0026313Y0151465D02*
X0028813Y0153965D01*
X0028813Y0158965D01*
X0026313Y0161465D01*
X0011313Y0161465D02*
X0008813Y0163965D01*
X0008813Y0168965D01*
X0011313Y0171465D01*
X0353498Y0246988D02*
X0353498Y0258012D01*
X0353497Y0258012D02*
X0353499Y0258058D01*
X0353504Y0258104D01*
X0353513Y0258150D01*
X0353526Y0258195D01*
X0353542Y0258238D01*
X0353561Y0258280D01*
X0353584Y0258321D01*
X0353610Y0258359D01*
X0353639Y0258396D01*
X0353670Y0258430D01*
X0353704Y0258461D01*
X0353741Y0258490D01*
X0353779Y0258516D01*
X0353820Y0258539D01*
X0353862Y0258558D01*
X0353905Y0258574D01*
X0353950Y0258587D01*
X0353996Y0258596D01*
X0354042Y0258601D01*
X0354088Y0258603D01*
X0354088Y0258602D02*
X0365112Y0258602D01*
X0365112Y0258603D02*
X0365158Y0258601D01*
X0365204Y0258596D01*
X0365250Y0258587D01*
X0365295Y0258574D01*
X0365338Y0258558D01*
X0365380Y0258539D01*
X0365421Y0258516D01*
X0365459Y0258490D01*
X0365496Y0258461D01*
X0365530Y0258430D01*
X0365561Y0258396D01*
X0365590Y0258359D01*
X0365616Y0258321D01*
X0365639Y0258280D01*
X0365658Y0258238D01*
X0365674Y0258195D01*
X0365687Y0258150D01*
X0365696Y0258104D01*
X0365701Y0258058D01*
X0365703Y0258012D01*
X0365702Y0258012D02*
X0365702Y0246988D01*
X0365703Y0246988D02*
X0365701Y0246942D01*
X0365696Y0246896D01*
X0365687Y0246850D01*
X0365674Y0246805D01*
X0365658Y0246762D01*
X0365639Y0246720D01*
X0365616Y0246679D01*
X0365590Y0246641D01*
X0365561Y0246604D01*
X0365530Y0246570D01*
X0365496Y0246539D01*
X0365459Y0246510D01*
X0365421Y0246484D01*
X0365380Y0246461D01*
X0365338Y0246442D01*
X0365295Y0246426D01*
X0365250Y0246413D01*
X0365204Y0246404D01*
X0365158Y0246399D01*
X0365112Y0246397D01*
X0365112Y0246398D02*
X0354088Y0246398D01*
X0354088Y0246397D02*
X0354042Y0246399D01*
X0353996Y0246404D01*
X0353950Y0246413D01*
X0353905Y0246426D01*
X0353862Y0246442D01*
X0353820Y0246461D01*
X0353779Y0246484D01*
X0353741Y0246510D01*
X0353704Y0246539D01*
X0353670Y0246570D01*
X0353639Y0246604D01*
X0353610Y0246641D01*
X0353584Y0246679D01*
X0353561Y0246720D01*
X0353542Y0246762D01*
X0353526Y0246805D01*
X0353513Y0246850D01*
X0353504Y0246896D01*
X0353499Y0246942D01*
X0353497Y0246988D01*
D13*
X0343223Y0241752D02*
X0341955Y0241752D01*
X0341955Y0240801D01*
X0342589Y0241118D01*
X0342906Y0241118D01*
X0343223Y0240801D01*
X0343223Y0240167D01*
X0342906Y0239850D01*
X0342272Y0239850D01*
X0341955Y0240167D01*
X0341013Y0239850D02*
X0339745Y0239850D01*
X0341013Y0241118D01*
X0341013Y0241435D01*
X0340696Y0241752D01*
X0340062Y0241752D01*
X0339745Y0241435D01*
X0338803Y0241435D02*
X0338486Y0241752D01*
X0337852Y0241752D01*
X0337535Y0241435D01*
X0337535Y0240167D01*
X0337852Y0239850D01*
X0338486Y0239850D01*
X0338803Y0240167D01*
X0338350Y0259435D02*
X0336448Y0259435D01*
X0336448Y0260386D01*
X0336765Y0260703D01*
X0337399Y0260703D01*
X0337716Y0260386D01*
X0337716Y0259435D01*
X0337716Y0260069D02*
X0338350Y0260703D01*
X0338350Y0261645D02*
X0338350Y0262913D01*
X0338350Y0262279D02*
X0336448Y0262279D01*
X0337082Y0261645D01*
X0337399Y0263855D02*
X0337082Y0264489D01*
X0337082Y0264806D01*
X0337399Y0265123D01*
X0338033Y0265123D01*
X0338350Y0264806D01*
X0338350Y0264172D01*
X0338033Y0263855D01*
X0337399Y0263855D02*
X0336448Y0263855D01*
X0336448Y0265123D01*
X0347100Y0275500D02*
X0347100Y0295500D01*
X0307100Y0295500D01*
X0307100Y0275500D01*
X0347100Y0275500D01*
X0356064Y0272152D02*
X0356698Y0272152D01*
X0356381Y0272152D02*
X0356381Y0270567D01*
X0356064Y0270250D01*
X0355747Y0270250D01*
X0355430Y0270567D01*
X0357640Y0270884D02*
X0358591Y0270884D01*
X0358908Y0271201D01*
X0358908Y0271835D01*
X0358591Y0272152D01*
X0357640Y0272152D01*
X0357640Y0270250D01*
X0359850Y0270250D02*
X0361118Y0271518D01*
X0361118Y0271835D01*
X0360801Y0272152D01*
X0360167Y0272152D01*
X0359850Y0271835D01*
X0359850Y0270250D02*
X0361118Y0270250D01*
X0362060Y0270250D02*
X0363328Y0270250D01*
X0362694Y0270250D02*
X0362694Y0272152D01*
X0362060Y0271518D01*
X0364948Y0273252D02*
X0365265Y0272935D01*
X0366533Y0272935D01*
X0366850Y0273252D01*
X0366850Y0273886D01*
X0366533Y0274203D01*
X0366850Y0275145D02*
X0365582Y0276413D01*
X0365265Y0276413D01*
X0364948Y0276096D01*
X0364948Y0275462D01*
X0365265Y0275145D01*
X0365265Y0274203D02*
X0364948Y0273886D01*
X0364948Y0273252D01*
X0366850Y0275145D02*
X0366850Y0276413D01*
X0366533Y0277355D02*
X0366850Y0277672D01*
X0366850Y0278306D01*
X0366533Y0278623D01*
X0366216Y0278623D01*
X0365899Y0278306D01*
X0365899Y0277989D01*
X0365899Y0278306D02*
X0365582Y0278623D01*
X0365265Y0278623D01*
X0364948Y0278306D01*
X0364948Y0277672D01*
X0365265Y0277355D01*
X0372265Y0265123D02*
X0372582Y0265123D01*
X0372899Y0264806D01*
X0373216Y0265123D01*
X0373533Y0265123D01*
X0373850Y0264806D01*
X0373850Y0264172D01*
X0373533Y0263855D01*
X0372899Y0264489D02*
X0372899Y0264806D01*
X0372265Y0265123D02*
X0371948Y0264806D01*
X0371948Y0264172D01*
X0372265Y0263855D01*
X0371948Y0262279D02*
X0373850Y0262279D01*
X0373850Y0261645D02*
X0373850Y0262913D01*
X0372582Y0261645D02*
X0371948Y0262279D01*
X0372265Y0260703D02*
X0372899Y0260703D01*
X0373216Y0260386D01*
X0373216Y0259435D01*
X0373850Y0259435D02*
X0371948Y0259435D01*
X0371948Y0260386D01*
X0372265Y0260703D01*
X0373216Y0260069D02*
X0373850Y0260703D01*
X0373533Y0251623D02*
X0373216Y0251623D01*
X0372899Y0251306D01*
X0372899Y0250355D01*
X0373533Y0250355D01*
X0373850Y0250672D01*
X0373850Y0251306D01*
X0373533Y0251623D01*
X0372265Y0250989D02*
X0371948Y0251623D01*
X0372265Y0250989D02*
X0372899Y0250355D01*
X0372582Y0249413D02*
X0372265Y0249413D01*
X0371948Y0249096D01*
X0371948Y0248462D01*
X0372265Y0248145D01*
X0372265Y0247203D02*
X0371948Y0246886D01*
X0371948Y0246252D01*
X0372265Y0245935D01*
X0373533Y0245935D01*
X0373850Y0246252D01*
X0373850Y0246886D01*
X0373533Y0247203D01*
X0373850Y0248145D02*
X0372582Y0249413D01*
X0373850Y0249413D02*
X0373850Y0248145D01*
X0394348Y0247018D02*
X0394348Y0245750D01*
X0395299Y0245750D01*
X0394982Y0246384D01*
X0394982Y0246701D01*
X0395299Y0247018D01*
X0395933Y0247018D01*
X0396250Y0246701D01*
X0396250Y0246067D01*
X0395933Y0245750D01*
X0396250Y0244808D02*
X0395616Y0244174D01*
X0395616Y0244491D02*
X0395616Y0243540D01*
X0396250Y0243540D02*
X0394348Y0243540D01*
X0394348Y0244491D01*
X0394665Y0244808D01*
X0395299Y0244808D01*
X0395616Y0244491D01*
X0395616Y0250540D02*
X0395616Y0251491D01*
X0395299Y0251808D01*
X0394665Y0251808D01*
X0394348Y0251491D01*
X0394348Y0250540D01*
X0396250Y0250540D01*
X0395616Y0251174D02*
X0396250Y0251808D01*
X0396250Y0252750D02*
X0395933Y0252750D01*
X0394665Y0254018D01*
X0394348Y0254018D01*
X0394348Y0252750D01*
X0399848Y0259435D02*
X0399848Y0260386D01*
X0400165Y0260703D01*
X0400799Y0260703D01*
X0401116Y0260386D01*
X0401116Y0259435D01*
X0401750Y0259435D02*
X0399848Y0259435D01*
X0401116Y0260069D02*
X0401750Y0260703D01*
X0401750Y0261645D02*
X0401750Y0262913D01*
X0401750Y0262279D02*
X0399848Y0262279D01*
X0400482Y0261645D01*
X0400799Y0263855D02*
X0400799Y0265123D01*
X0399848Y0264806D02*
X0400799Y0263855D01*
X0401750Y0264806D02*
X0399848Y0264806D01*
X0393223Y0270835D02*
X0391955Y0269567D01*
X0391955Y0269250D01*
X0391013Y0269250D02*
X0389745Y0269250D01*
X0391013Y0270518D01*
X0391013Y0270835D01*
X0390696Y0271152D01*
X0390062Y0271152D01*
X0389745Y0270835D01*
X0388803Y0270835D02*
X0388486Y0271152D01*
X0387852Y0271152D01*
X0387535Y0270835D01*
X0387535Y0269567D01*
X0387852Y0269250D01*
X0388486Y0269250D01*
X0388803Y0269567D01*
X0386223Y0269567D02*
X0385906Y0269250D01*
X0385272Y0269250D01*
X0384955Y0269567D01*
X0384955Y0269884D01*
X0385272Y0270201D01*
X0385906Y0270201D01*
X0386223Y0269884D01*
X0386223Y0269567D01*
X0385906Y0270201D02*
X0386223Y0270518D01*
X0386223Y0270835D01*
X0385906Y0271152D01*
X0385272Y0271152D01*
X0384955Y0270835D01*
X0384955Y0270518D01*
X0385272Y0270201D01*
X0384013Y0270518D02*
X0384013Y0270835D01*
X0383696Y0271152D01*
X0383062Y0271152D01*
X0382745Y0270835D01*
X0381803Y0270835D02*
X0381486Y0271152D01*
X0380852Y0271152D01*
X0380535Y0270835D01*
X0380535Y0269567D01*
X0380852Y0269250D01*
X0381486Y0269250D01*
X0381803Y0269567D01*
X0382745Y0269250D02*
X0384013Y0270518D01*
X0384013Y0269250D02*
X0382745Y0269250D01*
X0391955Y0271152D02*
X0393223Y0271152D01*
X0393223Y0270835D01*
X0393033Y0272935D02*
X0393350Y0273252D01*
X0393350Y0273886D01*
X0393033Y0274203D01*
X0393350Y0275145D02*
X0392082Y0276413D01*
X0391765Y0276413D01*
X0391448Y0276096D01*
X0391448Y0275462D01*
X0391765Y0275145D01*
X0391765Y0274203D02*
X0391448Y0273886D01*
X0391448Y0273252D01*
X0391765Y0272935D01*
X0393033Y0272935D01*
X0393350Y0275145D02*
X0393350Y0276413D01*
X0392399Y0277355D02*
X0392399Y0278623D01*
X0391448Y0278306D02*
X0392399Y0277355D01*
X0393350Y0278306D02*
X0391448Y0278306D01*
X0310828Y0296567D02*
X0310828Y0297835D01*
X0310511Y0298152D01*
X0309877Y0298152D01*
X0309560Y0297835D01*
X0309560Y0297518D01*
X0309877Y0297201D01*
X0310828Y0297201D01*
X0310828Y0296567D02*
X0310511Y0296250D01*
X0309877Y0296250D01*
X0309560Y0296567D01*
X0308301Y0296567D02*
X0308301Y0298152D01*
X0307984Y0298152D02*
X0308618Y0298152D01*
X0308301Y0296567D02*
X0307984Y0296250D01*
X0307667Y0296250D01*
X0307350Y0296567D01*
X0305100Y0295500D02*
X0265100Y0295500D01*
X0265100Y0275500D01*
X0305100Y0275500D01*
X0305100Y0295500D01*
X0271038Y0296567D02*
X0270721Y0296250D01*
X0270087Y0296250D01*
X0269770Y0296567D01*
X0269770Y0296884D01*
X0270087Y0297201D01*
X0270721Y0297201D01*
X0271038Y0296884D01*
X0271038Y0296567D01*
X0270721Y0297201D02*
X0271038Y0297518D01*
X0271038Y0297835D01*
X0270721Y0298152D01*
X0270087Y0298152D01*
X0269770Y0297835D01*
X0269770Y0297518D01*
X0270087Y0297201D01*
X0268828Y0296250D02*
X0267560Y0296250D01*
X0268194Y0296250D02*
X0268194Y0298152D01*
X0267560Y0297518D01*
X0266618Y0298152D02*
X0265984Y0298152D01*
X0266301Y0298152D02*
X0266301Y0296567D01*
X0265984Y0296250D01*
X0265667Y0296250D01*
X0265350Y0296567D01*
X0260681Y0229370D02*
X0234519Y0229370D01*
X0234519Y0150630D01*
X0260681Y0150630D01*
X0260681Y0229370D01*
X0274535Y0229152D02*
X0274535Y0227250D01*
X0274535Y0227884D02*
X0275486Y0227884D01*
X0275803Y0228201D01*
X0275803Y0228835D01*
X0275486Y0229152D01*
X0274535Y0229152D01*
X0275169Y0227884D02*
X0275803Y0227250D01*
X0276745Y0227250D02*
X0278013Y0228518D01*
X0278013Y0228835D01*
X0277696Y0229152D01*
X0277062Y0229152D01*
X0276745Y0228835D01*
X0276745Y0227250D02*
X0278013Y0227250D01*
X0278955Y0227567D02*
X0279272Y0227250D01*
X0279906Y0227250D01*
X0280223Y0227567D01*
X0280223Y0228201D01*
X0279906Y0228518D01*
X0279589Y0228518D01*
X0278955Y0228201D01*
X0278955Y0229152D01*
X0280223Y0229152D01*
X0280062Y0216752D02*
X0279745Y0216435D01*
X0280062Y0216752D02*
X0280696Y0216752D01*
X0281013Y0216435D01*
X0281013Y0216118D01*
X0279745Y0214850D01*
X0281013Y0214850D01*
X0281955Y0215167D02*
X0282272Y0214850D01*
X0282906Y0214850D01*
X0283223Y0215167D01*
X0283223Y0215484D01*
X0282906Y0215801D01*
X0281955Y0215801D01*
X0281955Y0215167D01*
X0281955Y0215801D02*
X0282589Y0216435D01*
X0283223Y0216752D01*
X0278803Y0216435D02*
X0278803Y0215801D01*
X0278486Y0215484D01*
X0277535Y0215484D01*
X0277535Y0214850D02*
X0277535Y0216752D01*
X0278486Y0216752D01*
X0278803Y0216435D01*
X0278169Y0215484D02*
X0278803Y0214850D01*
X0278486Y0202752D02*
X0278803Y0202435D01*
X0278803Y0201801D01*
X0278486Y0201484D01*
X0277535Y0201484D01*
X0277535Y0200850D02*
X0277535Y0202752D01*
X0278486Y0202752D01*
X0279745Y0202435D02*
X0280062Y0202752D01*
X0280696Y0202752D01*
X0281013Y0202435D01*
X0281013Y0202118D01*
X0279745Y0200850D01*
X0281013Y0200850D01*
X0281955Y0201801D02*
X0283223Y0201801D01*
X0282906Y0202752D02*
X0281955Y0201801D01*
X0282906Y0200850D02*
X0282906Y0202752D01*
X0278803Y0200850D02*
X0278169Y0201484D01*
X0278486Y0197152D02*
X0278803Y0196835D01*
X0278803Y0196201D01*
X0278486Y0195884D01*
X0277535Y0195884D01*
X0277535Y0195250D02*
X0277535Y0197152D01*
X0278486Y0197152D01*
X0279745Y0196835D02*
X0280062Y0197152D01*
X0280696Y0197152D01*
X0281013Y0196835D01*
X0281013Y0196518D01*
X0279745Y0195250D01*
X0281013Y0195250D01*
X0281955Y0195567D02*
X0282272Y0195250D01*
X0282906Y0195250D01*
X0283223Y0195567D01*
X0283223Y0195884D01*
X0282906Y0196201D01*
X0282589Y0196201D01*
X0282906Y0196201D02*
X0283223Y0196518D01*
X0283223Y0196835D01*
X0282906Y0197152D01*
X0282272Y0197152D01*
X0281955Y0196835D01*
X0278803Y0195250D02*
X0278169Y0195884D01*
X0278486Y0182152D02*
X0278803Y0181835D01*
X0278803Y0181201D01*
X0278486Y0180884D01*
X0277535Y0180884D01*
X0277535Y0180250D02*
X0277535Y0182152D01*
X0278486Y0182152D01*
X0279745Y0181835D02*
X0280062Y0182152D01*
X0280696Y0182152D01*
X0281013Y0181835D01*
X0281013Y0181518D01*
X0279745Y0180250D01*
X0281013Y0180250D01*
X0281955Y0180567D02*
X0283223Y0181835D01*
X0283223Y0180567D01*
X0282906Y0180250D01*
X0282272Y0180250D01*
X0281955Y0180567D01*
X0281955Y0181835D01*
X0282272Y0182152D01*
X0282906Y0182152D01*
X0283223Y0181835D01*
X0278803Y0180250D02*
X0278169Y0180884D01*
X0278486Y0176752D02*
X0278803Y0176435D01*
X0278803Y0175801D01*
X0278486Y0175484D01*
X0277535Y0175484D01*
X0277535Y0174850D02*
X0277535Y0176752D01*
X0278486Y0176752D01*
X0279745Y0176435D02*
X0280062Y0176752D01*
X0280696Y0176752D01*
X0281013Y0176435D01*
X0281013Y0176118D01*
X0279745Y0174850D01*
X0281013Y0174850D01*
X0281955Y0174850D02*
X0283223Y0174850D01*
X0282589Y0174850D02*
X0282589Y0176752D01*
X0281955Y0176118D01*
X0278803Y0174850D02*
X0278169Y0175484D01*
X0278486Y0162752D02*
X0278803Y0162435D01*
X0278803Y0161801D01*
X0278486Y0161484D01*
X0277535Y0161484D01*
X0277535Y0160850D02*
X0277535Y0162752D01*
X0278486Y0162752D01*
X0278169Y0161484D02*
X0278803Y0160850D01*
X0279745Y0160850D02*
X0281013Y0160850D01*
X0280379Y0160850D02*
X0280379Y0162752D01*
X0279745Y0162118D01*
X0281955Y0162118D02*
X0281955Y0162435D01*
X0282272Y0162752D01*
X0282906Y0162752D01*
X0283223Y0162435D01*
X0283223Y0162118D01*
X0282906Y0161801D01*
X0282272Y0161801D01*
X0281955Y0162118D01*
X0282272Y0161801D02*
X0281955Y0161484D01*
X0281955Y0161167D01*
X0282272Y0160850D01*
X0282906Y0160850D01*
X0283223Y0161167D01*
X0283223Y0161484D01*
X0282906Y0161801D01*
X0283223Y0159152D02*
X0283223Y0158835D01*
X0281955Y0157567D01*
X0281955Y0157250D01*
X0281013Y0157250D02*
X0279745Y0157250D01*
X0280379Y0157250D02*
X0280379Y0159152D01*
X0279745Y0158518D01*
X0278803Y0158835D02*
X0278803Y0158201D01*
X0278486Y0157884D01*
X0277535Y0157884D01*
X0277535Y0157250D02*
X0277535Y0159152D01*
X0278486Y0159152D01*
X0278803Y0158835D01*
X0278169Y0157884D02*
X0278803Y0157250D01*
X0281955Y0159152D02*
X0283223Y0159152D01*
X0299948Y0159145D02*
X0299948Y0160096D01*
X0300265Y0160413D01*
X0300899Y0160413D01*
X0301216Y0160096D01*
X0301216Y0159145D01*
X0301850Y0159145D02*
X0299948Y0159145D01*
X0299948Y0158203D02*
X0299948Y0157569D01*
X0299948Y0157886D02*
X0301533Y0157886D01*
X0301850Y0157569D01*
X0301850Y0157252D01*
X0301533Y0156935D01*
X0301850Y0161355D02*
X0301850Y0162623D01*
X0301850Y0161989D02*
X0299948Y0161989D01*
X0300582Y0161355D01*
X0300933Y0175935D02*
X0301250Y0176252D01*
X0301250Y0176569D01*
X0300933Y0176886D01*
X0299348Y0176886D01*
X0299348Y0176569D02*
X0299348Y0177203D01*
X0299348Y0178145D02*
X0299348Y0179096D01*
X0299665Y0179413D01*
X0300299Y0179413D01*
X0300616Y0179096D01*
X0300616Y0178145D01*
X0301250Y0178145D02*
X0299348Y0178145D01*
X0299665Y0180355D02*
X0299348Y0180672D01*
X0299348Y0181306D01*
X0299665Y0181623D01*
X0299982Y0181623D01*
X0301250Y0180355D01*
X0301250Y0181623D01*
X0301533Y0195935D02*
X0301850Y0196252D01*
X0301850Y0196569D01*
X0301533Y0196886D01*
X0299948Y0196886D01*
X0299948Y0196569D02*
X0299948Y0197203D01*
X0299948Y0198145D02*
X0299948Y0199096D01*
X0300265Y0199413D01*
X0300899Y0199413D01*
X0301216Y0199096D01*
X0301216Y0198145D01*
X0301850Y0198145D02*
X0299948Y0198145D01*
X0300265Y0200355D02*
X0299948Y0200672D01*
X0299948Y0201306D01*
X0300265Y0201623D01*
X0300582Y0201623D01*
X0300899Y0201306D01*
X0301216Y0201623D01*
X0301533Y0201623D01*
X0301850Y0201306D01*
X0301850Y0200672D01*
X0301533Y0200355D01*
X0300899Y0200989D02*
X0300899Y0201306D01*
X0300933Y0215935D02*
X0301250Y0216252D01*
X0301250Y0216569D01*
X0300933Y0216886D01*
X0299348Y0216886D01*
X0299348Y0216569D02*
X0299348Y0217203D01*
X0299348Y0218145D02*
X0299348Y0219096D01*
X0299665Y0219413D01*
X0300299Y0219413D01*
X0300616Y0219096D01*
X0300616Y0218145D01*
X0301250Y0218145D02*
X0299348Y0218145D01*
X0300299Y0220355D02*
X0300299Y0221623D01*
X0299348Y0221306D02*
X0300299Y0220355D01*
X0301250Y0221306D02*
X0299348Y0221306D01*
X0215350Y0221306D02*
X0215350Y0220672D01*
X0215033Y0220355D01*
X0214716Y0220355D01*
X0214399Y0220672D01*
X0214399Y0221306D01*
X0214716Y0221623D01*
X0215033Y0221623D01*
X0215350Y0221306D01*
X0214399Y0221306D02*
X0214082Y0221623D01*
X0213765Y0221623D01*
X0213448Y0221306D01*
X0213448Y0220672D01*
X0213765Y0220355D01*
X0214082Y0220355D01*
X0214399Y0220672D01*
X0214082Y0219413D02*
X0213765Y0219413D01*
X0213448Y0219096D01*
X0213448Y0218462D01*
X0213765Y0218145D01*
X0213765Y0217203D02*
X0214399Y0217203D01*
X0214716Y0216886D01*
X0214716Y0215935D01*
X0215350Y0215935D02*
X0213448Y0215935D01*
X0213448Y0216886D01*
X0213765Y0217203D01*
X0214716Y0216569D02*
X0215350Y0217203D01*
X0215350Y0218145D02*
X0214082Y0219413D01*
X0215350Y0219413D02*
X0215350Y0218145D01*
X0213765Y0202623D02*
X0215033Y0201355D01*
X0215350Y0201355D01*
X0215350Y0200413D02*
X0215350Y0199145D01*
X0214082Y0200413D01*
X0213765Y0200413D01*
X0213448Y0200096D01*
X0213448Y0199462D01*
X0213765Y0199145D01*
X0213765Y0198203D02*
X0214399Y0198203D01*
X0214716Y0197886D01*
X0214716Y0196935D01*
X0215350Y0196935D02*
X0213448Y0196935D01*
X0213448Y0197886D01*
X0213765Y0198203D01*
X0214716Y0197569D02*
X0215350Y0198203D01*
X0213448Y0201355D02*
X0213448Y0202623D01*
X0213765Y0202623D01*
X0213765Y0180623D02*
X0213448Y0180306D01*
X0213448Y0179672D01*
X0213765Y0179355D01*
X0213765Y0178413D02*
X0213448Y0178096D01*
X0213448Y0177462D01*
X0213765Y0177145D01*
X0213765Y0176203D02*
X0214399Y0176203D01*
X0214716Y0175886D01*
X0214716Y0174935D01*
X0215350Y0174935D02*
X0213448Y0174935D01*
X0213448Y0175886D01*
X0213765Y0176203D01*
X0214716Y0175569D02*
X0215350Y0176203D01*
X0215350Y0177145D02*
X0214082Y0178413D01*
X0213765Y0178413D01*
X0215350Y0178413D02*
X0215350Y0177145D01*
X0215350Y0179355D02*
X0214082Y0180623D01*
X0213765Y0180623D01*
X0215350Y0180623D02*
X0215350Y0179355D01*
X0215033Y0163623D02*
X0213765Y0163623D01*
X0213448Y0163306D01*
X0213448Y0162672D01*
X0213765Y0162355D01*
X0214082Y0162355D01*
X0214399Y0162672D01*
X0214399Y0163623D01*
X0215033Y0163623D02*
X0215350Y0163306D01*
X0215350Y0162672D01*
X0215033Y0162355D01*
X0215350Y0161413D02*
X0215350Y0160145D01*
X0215350Y0160779D02*
X0213448Y0160779D01*
X0214082Y0160145D01*
X0213765Y0159203D02*
X0214399Y0159203D01*
X0214716Y0158886D01*
X0214716Y0157935D01*
X0215350Y0157935D02*
X0213448Y0157935D01*
X0213448Y0158886D01*
X0213765Y0159203D01*
X0214716Y0158569D02*
X0215350Y0159203D01*
X0212433Y0137623D02*
X0211165Y0137623D01*
X0212433Y0136355D01*
X0212750Y0136672D01*
X0212750Y0137306D01*
X0212433Y0137623D01*
X0211165Y0137623D02*
X0210848Y0137306D01*
X0210848Y0136672D01*
X0211165Y0136355D01*
X0212433Y0136355D01*
X0212750Y0135413D02*
X0212750Y0134145D01*
X0212750Y0134779D02*
X0210848Y0134779D01*
X0211482Y0134145D01*
X0211165Y0133203D02*
X0210848Y0132886D01*
X0210848Y0132252D01*
X0211165Y0131935D01*
X0212433Y0131935D01*
X0212750Y0132252D01*
X0212750Y0132886D01*
X0212433Y0133203D01*
X0205750Y0134357D02*
X0205750Y0134991D01*
X0205433Y0135308D01*
X0205433Y0136250D02*
X0205750Y0136567D01*
X0205750Y0137201D01*
X0205433Y0137518D01*
X0204165Y0137518D01*
X0203848Y0137201D01*
X0203848Y0136567D01*
X0204165Y0136250D01*
X0204482Y0136250D01*
X0204799Y0136567D01*
X0204799Y0137518D01*
X0204165Y0135308D02*
X0203848Y0134991D01*
X0203848Y0134357D01*
X0204165Y0134040D01*
X0205433Y0134040D01*
X0205750Y0134357D01*
X0213765Y0122623D02*
X0213448Y0122306D01*
X0213448Y0121672D01*
X0213765Y0121355D01*
X0213448Y0120413D02*
X0213448Y0119145D01*
X0214399Y0119145D01*
X0214082Y0119779D01*
X0214082Y0120096D01*
X0214399Y0120413D01*
X0215033Y0120413D01*
X0215350Y0120096D01*
X0215350Y0119462D01*
X0215033Y0119145D01*
X0215350Y0118203D02*
X0214716Y0117569D01*
X0214716Y0117886D02*
X0214716Y0116935D01*
X0215350Y0116935D02*
X0213448Y0116935D01*
X0213448Y0117886D01*
X0213765Y0118203D01*
X0214399Y0118203D01*
X0214716Y0117886D01*
X0215350Y0121355D02*
X0214082Y0122623D01*
X0213765Y0122623D01*
X0215350Y0122623D02*
X0215350Y0121355D01*
X0234519Y0130370D02*
X0260681Y0130370D01*
X0260681Y0051630D01*
X0234519Y0051630D01*
X0234519Y0130370D01*
X0247289Y0145250D02*
X0248790Y0145250D01*
X0249541Y0146001D01*
X0249541Y0149003D01*
X0248790Y0149754D01*
X0247289Y0149754D01*
X0246538Y0149003D01*
X0246538Y0146001D01*
X0247289Y0145250D01*
X0251142Y0145250D02*
X0251142Y0149754D01*
X0251893Y0147502D02*
X0254145Y0145250D01*
X0255746Y0145250D02*
X0258749Y0145250D01*
X0257247Y0145250D02*
X0257247Y0149754D01*
X0255746Y0148253D01*
X0254145Y0149754D02*
X0251142Y0146751D01*
X0253600Y0151000D02*
X0253602Y0151082D01*
X0253608Y0151164D01*
X0253617Y0151245D01*
X0253631Y0151326D01*
X0253648Y0151407D01*
X0253669Y0151486D01*
X0253693Y0151564D01*
X0253722Y0151641D01*
X0253754Y0151717D01*
X0253789Y0151791D01*
X0253828Y0151863D01*
X0253870Y0151934D01*
X0253915Y0152002D01*
X0253964Y0152068D01*
X0254015Y0152132D01*
X0254070Y0152193D01*
X0254127Y0152252D01*
X0254187Y0152308D01*
X0254250Y0152361D01*
X0254315Y0152411D01*
X0254382Y0152458D01*
X0254451Y0152502D01*
X0254523Y0152542D01*
X0254596Y0152579D01*
X0254671Y0152613D01*
X0254747Y0152643D01*
X0254825Y0152669D01*
X0254904Y0152692D01*
X0254983Y0152711D01*
X0255064Y0152726D01*
X0255145Y0152738D01*
X0255227Y0152746D01*
X0255309Y0152750D01*
X0255391Y0152750D01*
X0255473Y0152746D01*
X0255555Y0152738D01*
X0255636Y0152726D01*
X0255717Y0152711D01*
X0255796Y0152692D01*
X0255875Y0152669D01*
X0255953Y0152643D01*
X0256029Y0152613D01*
X0256104Y0152579D01*
X0256177Y0152542D01*
X0256249Y0152502D01*
X0256318Y0152458D01*
X0256385Y0152411D01*
X0256450Y0152361D01*
X0256513Y0152308D01*
X0256573Y0152252D01*
X0256630Y0152193D01*
X0256685Y0152132D01*
X0256736Y0152068D01*
X0256785Y0152002D01*
X0256830Y0151934D01*
X0256872Y0151863D01*
X0256911Y0151791D01*
X0256946Y0151717D01*
X0256978Y0151641D01*
X0257007Y0151564D01*
X0257031Y0151486D01*
X0257052Y0151407D01*
X0257069Y0151326D01*
X0257083Y0151245D01*
X0257092Y0151164D01*
X0257098Y0151082D01*
X0257100Y0151000D01*
X0277535Y0131152D02*
X0278486Y0131152D01*
X0278803Y0130835D01*
X0278803Y0130201D01*
X0278486Y0129884D01*
X0277535Y0129884D01*
X0277535Y0129250D02*
X0277535Y0131152D01*
X0278169Y0129884D02*
X0278803Y0129250D01*
X0279745Y0130201D02*
X0280696Y0131152D01*
X0280696Y0129250D01*
X0281013Y0130201D02*
X0279745Y0130201D01*
X0281955Y0130518D02*
X0282272Y0130201D01*
X0283223Y0130201D01*
X0283223Y0129567D02*
X0283223Y0130835D01*
X0282906Y0131152D01*
X0282272Y0131152D01*
X0281955Y0130835D01*
X0281955Y0130518D01*
X0281955Y0129567D02*
X0282272Y0129250D01*
X0282906Y0129250D01*
X0283223Y0129567D01*
X0282745Y0118752D02*
X0282745Y0117801D01*
X0283379Y0118118D01*
X0283696Y0118118D01*
X0284013Y0117801D01*
X0284013Y0117167D01*
X0283696Y0116850D01*
X0283062Y0116850D01*
X0282745Y0117167D01*
X0281803Y0116850D02*
X0281169Y0117484D01*
X0281486Y0117484D02*
X0280535Y0117484D01*
X0280535Y0116850D02*
X0280535Y0118752D01*
X0281486Y0118752D01*
X0281803Y0118435D01*
X0281803Y0117801D01*
X0281486Y0117484D01*
X0282745Y0118752D02*
X0284013Y0118752D01*
X0284955Y0118435D02*
X0285272Y0118752D01*
X0285906Y0118752D01*
X0286223Y0118435D01*
X0284955Y0117167D01*
X0285272Y0116850D01*
X0285906Y0116850D01*
X0286223Y0117167D01*
X0286223Y0118435D01*
X0284955Y0118435D02*
X0284955Y0117167D01*
X0285272Y0104752D02*
X0285906Y0104752D01*
X0286223Y0104435D01*
X0286223Y0104118D01*
X0285906Y0103801D01*
X0285272Y0103801D01*
X0284955Y0104118D01*
X0284955Y0104435D01*
X0285272Y0104752D01*
X0285272Y0103801D02*
X0284955Y0103484D01*
X0284955Y0103167D01*
X0285272Y0102850D01*
X0285906Y0102850D01*
X0286223Y0103167D01*
X0286223Y0103484D01*
X0285906Y0103801D01*
X0284013Y0103801D02*
X0282745Y0103801D01*
X0283696Y0104752D01*
X0283696Y0102850D01*
X0281803Y0102850D02*
X0281169Y0103484D01*
X0281486Y0103484D02*
X0280535Y0103484D01*
X0280535Y0102850D02*
X0280535Y0104752D01*
X0281486Y0104752D01*
X0281803Y0104435D01*
X0281803Y0103801D01*
X0281486Y0103484D01*
X0281486Y0099152D02*
X0281803Y0098835D01*
X0281803Y0098201D01*
X0281486Y0097884D01*
X0280535Y0097884D01*
X0280535Y0097250D02*
X0280535Y0099152D01*
X0281486Y0099152D01*
X0281169Y0097884D02*
X0281803Y0097250D01*
X0282745Y0098201D02*
X0284013Y0098201D01*
X0283696Y0099152D02*
X0282745Y0098201D01*
X0283696Y0097250D02*
X0283696Y0099152D01*
X0284955Y0099152D02*
X0286223Y0099152D01*
X0286223Y0098835D01*
X0284955Y0097567D01*
X0284955Y0097250D01*
X0285906Y0085152D02*
X0284955Y0084201D01*
X0286223Y0084201D01*
X0285906Y0083250D02*
X0285906Y0085152D01*
X0284013Y0084201D02*
X0282745Y0084201D01*
X0283696Y0085152D01*
X0283696Y0083250D01*
X0281803Y0083250D02*
X0281169Y0083884D01*
X0281486Y0083884D02*
X0280535Y0083884D01*
X0280535Y0083250D02*
X0280535Y0085152D01*
X0281486Y0085152D01*
X0281803Y0084835D01*
X0281803Y0084201D01*
X0281486Y0083884D01*
X0281486Y0078752D02*
X0281803Y0078435D01*
X0281803Y0077801D01*
X0281486Y0077484D01*
X0280535Y0077484D01*
X0280535Y0076850D02*
X0280535Y0078752D01*
X0281486Y0078752D01*
X0281169Y0077484D02*
X0281803Y0076850D01*
X0282745Y0077801D02*
X0284013Y0077801D01*
X0284955Y0077801D02*
X0285589Y0078118D01*
X0285906Y0078118D01*
X0286223Y0077801D01*
X0286223Y0077167D01*
X0285906Y0076850D01*
X0285272Y0076850D01*
X0284955Y0077167D01*
X0284955Y0077801D02*
X0284955Y0078752D01*
X0286223Y0078752D01*
X0283696Y0078752D02*
X0282745Y0077801D01*
X0283696Y0076850D02*
X0283696Y0078752D01*
X0283696Y0064752D02*
X0282745Y0063801D01*
X0284013Y0063801D01*
X0283696Y0062850D02*
X0283696Y0064752D01*
X0284955Y0064435D02*
X0285272Y0064752D01*
X0285906Y0064752D01*
X0286223Y0064435D01*
X0286223Y0064118D01*
X0284955Y0062850D01*
X0286223Y0062850D01*
X0285589Y0061152D02*
X0285589Y0059250D01*
X0284955Y0059250D02*
X0286223Y0059250D01*
X0284955Y0060518D02*
X0285589Y0061152D01*
X0284013Y0060201D02*
X0282745Y0060201D01*
X0283696Y0061152D01*
X0283696Y0059250D01*
X0281803Y0059250D02*
X0281169Y0059884D01*
X0281486Y0059884D02*
X0280535Y0059884D01*
X0280535Y0059250D02*
X0280535Y0061152D01*
X0281486Y0061152D01*
X0281803Y0060835D01*
X0281803Y0060201D01*
X0281486Y0059884D01*
X0281803Y0062850D02*
X0281169Y0063484D01*
X0281486Y0063484D02*
X0280535Y0063484D01*
X0280535Y0062850D02*
X0280535Y0064752D01*
X0281486Y0064752D01*
X0281803Y0064435D01*
X0281803Y0063801D01*
X0281486Y0063484D01*
X0303948Y0063672D02*
X0304265Y0063355D01*
X0304582Y0063355D01*
X0304899Y0063672D01*
X0304899Y0064623D01*
X0304265Y0064623D02*
X0303948Y0064306D01*
X0303948Y0063672D01*
X0304265Y0064623D02*
X0305533Y0064623D01*
X0305850Y0064306D01*
X0305850Y0063672D01*
X0305533Y0063355D01*
X0304899Y0062413D02*
X0305216Y0062096D01*
X0305216Y0061145D01*
X0305850Y0061145D02*
X0303948Y0061145D01*
X0303948Y0062096D01*
X0304265Y0062413D01*
X0304899Y0062413D01*
X0303948Y0060203D02*
X0303948Y0059569D01*
X0303948Y0059886D02*
X0305533Y0059886D01*
X0305850Y0059569D01*
X0305850Y0059252D01*
X0305533Y0058935D01*
X0307984Y0043152D02*
X0308618Y0043152D01*
X0308301Y0043152D02*
X0308301Y0041567D01*
X0307984Y0041250D01*
X0307667Y0041250D01*
X0307350Y0041567D01*
X0309560Y0041250D02*
X0310828Y0041250D01*
X0310194Y0041250D02*
X0310194Y0043152D01*
X0309560Y0042518D01*
X0311770Y0042201D02*
X0313038Y0042201D01*
X0312721Y0043152D02*
X0311770Y0042201D01*
X0312721Y0041250D02*
X0312721Y0043152D01*
X0293038Y0042835D02*
X0293038Y0042518D01*
X0292721Y0042201D01*
X0293038Y0041884D01*
X0293038Y0041567D01*
X0292721Y0041250D01*
X0292087Y0041250D01*
X0291770Y0041567D01*
X0292404Y0042201D02*
X0292721Y0042201D01*
X0293038Y0042835D02*
X0292721Y0043152D01*
X0292087Y0043152D01*
X0291770Y0042835D01*
X0290194Y0043152D02*
X0290194Y0041250D01*
X0289560Y0041250D02*
X0290828Y0041250D01*
X0289560Y0042518D02*
X0290194Y0043152D01*
X0288618Y0043152D02*
X0287984Y0043152D01*
X0288301Y0043152D02*
X0288301Y0041567D01*
X0287984Y0041250D01*
X0287667Y0041250D01*
X0287350Y0041567D01*
X0258749Y0047001D02*
X0257998Y0046250D01*
X0256497Y0046250D01*
X0255746Y0047001D01*
X0254145Y0046250D02*
X0251893Y0048502D01*
X0251142Y0047751D02*
X0254145Y0050754D01*
X0253600Y0052000D02*
X0253602Y0052082D01*
X0253608Y0052164D01*
X0253617Y0052245D01*
X0253631Y0052326D01*
X0253648Y0052407D01*
X0253669Y0052486D01*
X0253693Y0052564D01*
X0253722Y0052641D01*
X0253754Y0052717D01*
X0253789Y0052791D01*
X0253828Y0052863D01*
X0253870Y0052934D01*
X0253915Y0053002D01*
X0253964Y0053068D01*
X0254015Y0053132D01*
X0254070Y0053193D01*
X0254127Y0053252D01*
X0254187Y0053308D01*
X0254250Y0053361D01*
X0254315Y0053411D01*
X0254382Y0053458D01*
X0254451Y0053502D01*
X0254523Y0053542D01*
X0254596Y0053579D01*
X0254671Y0053613D01*
X0254747Y0053643D01*
X0254825Y0053669D01*
X0254904Y0053692D01*
X0254983Y0053711D01*
X0255064Y0053726D01*
X0255145Y0053738D01*
X0255227Y0053746D01*
X0255309Y0053750D01*
X0255391Y0053750D01*
X0255473Y0053746D01*
X0255555Y0053738D01*
X0255636Y0053726D01*
X0255717Y0053711D01*
X0255796Y0053692D01*
X0255875Y0053669D01*
X0255953Y0053643D01*
X0256029Y0053613D01*
X0256104Y0053579D01*
X0256177Y0053542D01*
X0256249Y0053502D01*
X0256318Y0053458D01*
X0256385Y0053411D01*
X0256450Y0053361D01*
X0256513Y0053308D01*
X0256573Y0053252D01*
X0256630Y0053193D01*
X0256685Y0053132D01*
X0256736Y0053068D01*
X0256785Y0053002D01*
X0256830Y0052934D01*
X0256872Y0052863D01*
X0256911Y0052791D01*
X0256946Y0052717D01*
X0256978Y0052641D01*
X0257007Y0052564D01*
X0257031Y0052486D01*
X0257052Y0052407D01*
X0257069Y0052326D01*
X0257083Y0052245D01*
X0257092Y0052164D01*
X0257098Y0052082D01*
X0257100Y0052000D01*
X0256497Y0050754D02*
X0257998Y0050754D01*
X0258749Y0050003D01*
X0258749Y0049253D01*
X0257998Y0048502D01*
X0258749Y0047751D01*
X0258749Y0047001D01*
X0257998Y0048502D02*
X0257247Y0048502D01*
X0255746Y0050003D02*
X0256497Y0050754D01*
X0251142Y0050754D02*
X0251142Y0046250D01*
X0249541Y0047001D02*
X0249541Y0050003D01*
X0248790Y0050754D01*
X0247289Y0050754D01*
X0246538Y0050003D01*
X0246538Y0047001D01*
X0247289Y0046250D01*
X0248790Y0046250D01*
X0249541Y0047001D01*
X0215350Y0058935D02*
X0213448Y0058935D01*
X0213448Y0059886D01*
X0213765Y0060203D01*
X0214399Y0060203D01*
X0214716Y0059886D01*
X0214716Y0058935D01*
X0214716Y0059569D02*
X0215350Y0060203D01*
X0214399Y0061145D02*
X0214399Y0062413D01*
X0213448Y0062096D02*
X0214399Y0061145D01*
X0215350Y0062096D02*
X0213448Y0062096D01*
X0213765Y0063355D02*
X0213448Y0063672D01*
X0213448Y0064306D01*
X0213765Y0064623D01*
X0214082Y0064623D01*
X0214399Y0064306D01*
X0214716Y0064623D01*
X0215033Y0064623D01*
X0215350Y0064306D01*
X0215350Y0063672D01*
X0215033Y0063355D01*
X0214399Y0063989D02*
X0214399Y0064306D01*
X0214716Y0080435D02*
X0214716Y0081386D01*
X0214399Y0081703D01*
X0213765Y0081703D01*
X0213448Y0081386D01*
X0213448Y0080435D01*
X0215350Y0080435D01*
X0214716Y0081069D02*
X0215350Y0081703D01*
X0214399Y0082645D02*
X0214399Y0083913D01*
X0214399Y0084855D02*
X0214399Y0085806D01*
X0214716Y0086123D01*
X0215033Y0086123D01*
X0215350Y0085806D01*
X0215350Y0085172D01*
X0215033Y0084855D01*
X0214399Y0084855D01*
X0213765Y0085489D01*
X0213448Y0086123D01*
X0213448Y0083596D02*
X0214399Y0082645D01*
X0215350Y0083596D02*
X0213448Y0083596D01*
X0213448Y0101435D02*
X0213448Y0102386D01*
X0213765Y0102703D01*
X0214399Y0102703D01*
X0214716Y0102386D01*
X0214716Y0101435D01*
X0215350Y0101435D02*
X0213448Y0101435D01*
X0214716Y0102069D02*
X0215350Y0102703D01*
X0215033Y0103645D02*
X0215350Y0103962D01*
X0215350Y0104596D01*
X0215033Y0104913D01*
X0214399Y0104913D01*
X0214082Y0104596D01*
X0214082Y0104279D01*
X0214399Y0103645D01*
X0213448Y0103645D01*
X0213448Y0104913D01*
X0214082Y0105855D02*
X0213448Y0106489D01*
X0215350Y0106489D01*
X0215350Y0105855D02*
X0215350Y0107123D01*
X0182750Y0088806D02*
X0182433Y0089123D01*
X0182116Y0089123D01*
X0181799Y0088806D01*
X0181799Y0087855D01*
X0182433Y0087855D01*
X0182750Y0088172D01*
X0182750Y0088806D01*
X0181799Y0087855D02*
X0181165Y0088489D01*
X0180848Y0089123D01*
X0180848Y0086279D02*
X0182750Y0086279D01*
X0182750Y0085645D02*
X0182750Y0086913D01*
X0181482Y0085645D02*
X0180848Y0086279D01*
X0181165Y0084703D02*
X0180848Y0084386D01*
X0180848Y0083752D01*
X0181165Y0083435D01*
X0182433Y0083435D01*
X0182750Y0083752D01*
X0182750Y0084386D01*
X0182433Y0084703D01*
X0172750Y0084386D02*
X0172750Y0083752D01*
X0172433Y0083435D01*
X0171165Y0083435D01*
X0170848Y0083752D01*
X0170848Y0084386D01*
X0171165Y0084703D01*
X0171482Y0085645D02*
X0170848Y0086279D01*
X0172750Y0086279D01*
X0172750Y0085645D02*
X0172750Y0086913D01*
X0172433Y0087855D02*
X0172750Y0088172D01*
X0172750Y0088806D01*
X0172433Y0089123D01*
X0171799Y0089123D01*
X0171482Y0088806D01*
X0171482Y0088489D01*
X0171799Y0087855D01*
X0170848Y0087855D01*
X0170848Y0089123D01*
X0172433Y0084703D02*
X0172750Y0084386D01*
X0177265Y0040623D02*
X0176948Y0040306D01*
X0176948Y0039672D01*
X0177265Y0039355D01*
X0177582Y0039355D01*
X0177899Y0039672D01*
X0177899Y0040623D01*
X0178533Y0040623D02*
X0177265Y0040623D01*
X0178533Y0040623D02*
X0178850Y0040306D01*
X0178850Y0039672D01*
X0178533Y0039355D01*
X0178533Y0038413D02*
X0178216Y0038413D01*
X0177899Y0038096D01*
X0177899Y0037145D01*
X0178533Y0037145D01*
X0178850Y0037462D01*
X0178850Y0038096D01*
X0178533Y0038413D01*
X0177265Y0037779D02*
X0177899Y0037145D01*
X0177265Y0037779D02*
X0176948Y0038413D01*
X0177265Y0036203D02*
X0177899Y0036203D01*
X0178216Y0035886D01*
X0178216Y0034935D01*
X0178850Y0034935D02*
X0176948Y0034935D01*
X0176948Y0035886D01*
X0177265Y0036203D01*
X0178216Y0035569D02*
X0178850Y0036203D01*
X0177011Y0024252D02*
X0177328Y0023935D01*
X0176060Y0022667D01*
X0176377Y0022350D01*
X0177011Y0022350D01*
X0177328Y0022667D01*
X0177328Y0023935D01*
X0177011Y0024252D02*
X0176377Y0024252D01*
X0176060Y0023935D01*
X0176060Y0022667D01*
X0175118Y0022350D02*
X0173850Y0022350D01*
X0175118Y0023618D01*
X0175118Y0023935D01*
X0174801Y0024252D01*
X0174167Y0024252D01*
X0173850Y0023935D01*
X0172908Y0023935D02*
X0172908Y0023301D01*
X0172591Y0022984D01*
X0171640Y0022984D01*
X0171640Y0022350D02*
X0171640Y0024252D01*
X0172591Y0024252D01*
X0172908Y0023935D01*
X0170698Y0024252D02*
X0170064Y0024252D01*
X0170381Y0024252D02*
X0170381Y0022667D01*
X0170064Y0022350D01*
X0169747Y0022350D01*
X0169430Y0022667D01*
X0165328Y0018335D02*
X0165328Y0018018D01*
X0165011Y0017701D01*
X0164377Y0017701D01*
X0164060Y0018018D01*
X0164060Y0018335D01*
X0164377Y0018652D01*
X0165011Y0018652D01*
X0165328Y0018335D01*
X0165011Y0017701D02*
X0165328Y0017384D01*
X0165328Y0017067D01*
X0165011Y0016750D01*
X0164377Y0016750D01*
X0164060Y0017067D01*
X0164060Y0017384D01*
X0164377Y0017701D01*
X0163118Y0018652D02*
X0162484Y0018652D01*
X0162801Y0018652D02*
X0162801Y0017067D01*
X0162484Y0016750D01*
X0162167Y0016750D01*
X0161850Y0017067D01*
X0145328Y0022667D02*
X0145328Y0023935D01*
X0145011Y0024252D01*
X0144377Y0024252D01*
X0144060Y0023935D01*
X0144060Y0023618D01*
X0144377Y0023301D01*
X0145328Y0023301D01*
X0145328Y0022667D02*
X0145011Y0022350D01*
X0144377Y0022350D01*
X0144060Y0022667D01*
X0143118Y0022350D02*
X0141850Y0022350D01*
X0142484Y0022350D02*
X0142484Y0024252D01*
X0141850Y0023618D01*
X0140908Y0023935D02*
X0140908Y0023301D01*
X0140591Y0022984D01*
X0139640Y0022984D01*
X0139640Y0022350D02*
X0139640Y0024252D01*
X0140591Y0024252D01*
X0140908Y0023935D01*
X0138698Y0024252D02*
X0138064Y0024252D01*
X0138381Y0024252D02*
X0138381Y0022667D01*
X0138064Y0022350D01*
X0137747Y0022350D01*
X0137430Y0022667D01*
X0135221Y0018652D02*
X0134587Y0018652D01*
X0134270Y0018335D01*
X0134270Y0017067D01*
X0135538Y0018335D01*
X0135538Y0017067D01*
X0135221Y0016750D01*
X0134587Y0016750D01*
X0134270Y0017067D01*
X0133328Y0016750D02*
X0132060Y0016750D01*
X0132694Y0016750D02*
X0132694Y0018652D01*
X0132060Y0018018D01*
X0131118Y0018652D02*
X0130484Y0018652D01*
X0130801Y0018652D02*
X0130801Y0017067D01*
X0130484Y0016750D01*
X0130167Y0016750D01*
X0129850Y0017067D01*
X0135221Y0018652D02*
X0135538Y0018335D01*
X0123328Y0022667D02*
X0123328Y0022984D01*
X0123011Y0023301D01*
X0122060Y0023301D01*
X0122060Y0022667D01*
X0122377Y0022350D01*
X0123011Y0022350D01*
X0123328Y0022667D01*
X0122694Y0023935D02*
X0122060Y0023301D01*
X0122694Y0023935D02*
X0123328Y0024252D01*
X0120484Y0024252D02*
X0120484Y0022350D01*
X0119850Y0022350D02*
X0121118Y0022350D01*
X0119850Y0023618D02*
X0120484Y0024252D01*
X0118908Y0023935D02*
X0118908Y0023301D01*
X0118591Y0022984D01*
X0117640Y0022984D01*
X0117640Y0022350D02*
X0117640Y0024252D01*
X0118591Y0024252D01*
X0118908Y0023935D01*
X0116698Y0024252D02*
X0116064Y0024252D01*
X0116381Y0024252D02*
X0116381Y0022667D01*
X0116064Y0022350D01*
X0115747Y0022350D01*
X0115430Y0022667D01*
X0111328Y0018652D02*
X0110060Y0018652D01*
X0110060Y0017701D01*
X0110694Y0018018D01*
X0111011Y0018018D01*
X0111328Y0017701D01*
X0111328Y0017067D01*
X0111011Y0016750D01*
X0110377Y0016750D01*
X0110060Y0017067D01*
X0108801Y0017067D02*
X0108801Y0018652D01*
X0108484Y0018652D02*
X0109118Y0018652D01*
X0108801Y0017067D02*
X0108484Y0016750D01*
X0108167Y0016750D01*
X0107850Y0017067D01*
X0101328Y0022667D02*
X0101011Y0022350D01*
X0100377Y0022350D01*
X0100060Y0022667D01*
X0100060Y0023301D02*
X0100694Y0023618D01*
X0101011Y0023618D01*
X0101328Y0023301D01*
X0101328Y0022667D01*
X0100060Y0023301D02*
X0100060Y0024252D01*
X0101328Y0024252D01*
X0098484Y0024252D02*
X0098484Y0022350D01*
X0097850Y0022350D02*
X0099118Y0022350D01*
X0097850Y0023618D02*
X0098484Y0024252D01*
X0096908Y0023935D02*
X0096908Y0023301D01*
X0096591Y0022984D01*
X0095640Y0022984D01*
X0095640Y0022350D02*
X0095640Y0024252D01*
X0096591Y0024252D01*
X0096908Y0023935D01*
X0094698Y0024252D02*
X0094064Y0024252D01*
X0094381Y0024252D02*
X0094381Y0022667D01*
X0094064Y0022350D01*
X0093747Y0022350D01*
X0093430Y0022667D01*
X0089011Y0018652D02*
X0088060Y0017701D01*
X0089328Y0017701D01*
X0089011Y0016750D02*
X0089011Y0018652D01*
X0087118Y0018652D02*
X0086484Y0018652D01*
X0086801Y0018652D02*
X0086801Y0017067D01*
X0086484Y0016750D01*
X0086167Y0016750D01*
X0085850Y0017067D01*
X0079011Y0022350D02*
X0079011Y0024252D01*
X0078060Y0023301D01*
X0079328Y0023301D01*
X0077118Y0022350D02*
X0075850Y0022350D01*
X0076484Y0022350D02*
X0076484Y0024252D01*
X0075850Y0023618D01*
X0074908Y0023935D02*
X0074908Y0023301D01*
X0074591Y0022984D01*
X0073640Y0022984D01*
X0073640Y0022350D02*
X0073640Y0024252D01*
X0074591Y0024252D01*
X0074908Y0023935D01*
X0072698Y0024252D02*
X0072064Y0024252D01*
X0072381Y0024252D02*
X0072381Y0022667D01*
X0072064Y0022350D01*
X0071747Y0022350D01*
X0071430Y0022667D01*
X0067328Y0018335D02*
X0067011Y0018652D01*
X0066377Y0018652D01*
X0066060Y0018335D01*
X0066694Y0017701D02*
X0067011Y0017701D01*
X0067328Y0017384D01*
X0067328Y0017067D01*
X0067011Y0016750D01*
X0066377Y0016750D01*
X0066060Y0017067D01*
X0067011Y0017701D02*
X0067328Y0018018D01*
X0067328Y0018335D01*
X0065118Y0018652D02*
X0064484Y0018652D01*
X0064801Y0018652D02*
X0064801Y0017067D01*
X0064484Y0016750D01*
X0064167Y0016750D01*
X0063850Y0017067D01*
X0057328Y0021667D02*
X0057011Y0021350D01*
X0056377Y0021350D01*
X0056060Y0021667D01*
X0056694Y0022301D02*
X0057011Y0022301D01*
X0057328Y0021984D01*
X0057328Y0021667D01*
X0057011Y0022301D02*
X0057328Y0022618D01*
X0057328Y0022935D01*
X0057011Y0023252D01*
X0056377Y0023252D01*
X0056060Y0022935D01*
X0054484Y0023252D02*
X0054484Y0021350D01*
X0053850Y0021350D02*
X0055118Y0021350D01*
X0053850Y0022618D02*
X0054484Y0023252D01*
X0052908Y0022935D02*
X0052908Y0022301D01*
X0052591Y0021984D01*
X0051640Y0021984D01*
X0051640Y0021350D02*
X0051640Y0023252D01*
X0052591Y0023252D01*
X0052908Y0022935D01*
X0050698Y0023252D02*
X0050064Y0023252D01*
X0050381Y0023252D02*
X0050381Y0021667D01*
X0050064Y0021350D01*
X0049747Y0021350D01*
X0049430Y0021667D01*
X0045328Y0018335D02*
X0045011Y0018652D01*
X0044377Y0018652D01*
X0044060Y0018335D01*
X0043118Y0018652D02*
X0042484Y0018652D01*
X0042801Y0018652D02*
X0042801Y0017067D01*
X0042484Y0016750D01*
X0042167Y0016750D01*
X0041850Y0017067D01*
X0044060Y0016750D02*
X0045328Y0018018D01*
X0045328Y0018335D01*
X0045328Y0016750D02*
X0044060Y0016750D01*
X0043771Y0034119D02*
X0043771Y0035070D01*
X0043454Y0035387D01*
X0042820Y0035387D01*
X0042503Y0035070D01*
X0042503Y0034119D01*
X0044405Y0034119D01*
X0043771Y0034753D02*
X0044405Y0035387D01*
X0044088Y0036329D02*
X0044405Y0036646D01*
X0044405Y0037280D01*
X0044088Y0037596D01*
X0042820Y0037596D01*
X0042503Y0037280D01*
X0042503Y0036646D01*
X0042820Y0036329D01*
X0043137Y0036329D01*
X0043454Y0036646D01*
X0043454Y0037596D01*
X0057059Y0036805D02*
X0058960Y0036805D01*
X0058960Y0036171D02*
X0058960Y0037439D01*
X0057692Y0036171D02*
X0057059Y0036805D01*
X0057376Y0035229D02*
X0058009Y0035229D01*
X0058326Y0034912D01*
X0058326Y0033961D01*
X0058960Y0033961D02*
X0057059Y0033961D01*
X0057059Y0034912D01*
X0057376Y0035229D01*
X0058326Y0034595D02*
X0058960Y0035229D01*
X0064448Y0034886D02*
X0064765Y0035203D01*
X0065399Y0035203D01*
X0065716Y0034886D01*
X0065716Y0033935D01*
X0066350Y0033935D02*
X0064448Y0033935D01*
X0064448Y0034886D01*
X0065716Y0034569D02*
X0066350Y0035203D01*
X0066350Y0036145D02*
X0066350Y0037413D01*
X0066350Y0036779D02*
X0064448Y0036779D01*
X0065082Y0036145D01*
X0064765Y0038355D02*
X0064448Y0038672D01*
X0064448Y0039306D01*
X0064765Y0039623D01*
X0066033Y0038355D01*
X0066350Y0038672D01*
X0066350Y0039306D01*
X0066033Y0039623D01*
X0064765Y0039623D01*
X0064765Y0038355D02*
X0066033Y0038355D01*
X0078948Y0037201D02*
X0079899Y0036250D01*
X0079899Y0037518D01*
X0080850Y0037201D02*
X0078948Y0037201D01*
X0079265Y0035308D02*
X0079899Y0035308D01*
X0080216Y0034991D01*
X0080216Y0034040D01*
X0080216Y0034674D02*
X0080850Y0035308D01*
X0080850Y0034040D02*
X0078948Y0034040D01*
X0078948Y0034991D01*
X0079265Y0035308D01*
X0086448Y0034886D02*
X0086765Y0035203D01*
X0087399Y0035203D01*
X0087716Y0034886D01*
X0087716Y0033935D01*
X0088350Y0033935D02*
X0086448Y0033935D01*
X0086448Y0034886D01*
X0087716Y0034569D02*
X0088350Y0035203D01*
X0088350Y0036145D02*
X0088350Y0037413D01*
X0088350Y0036779D02*
X0086448Y0036779D01*
X0087082Y0036145D01*
X0087082Y0038355D02*
X0086448Y0038989D01*
X0088350Y0038989D01*
X0088350Y0038355D02*
X0088350Y0039623D01*
X0100948Y0037518D02*
X0101265Y0036884D01*
X0101899Y0036250D01*
X0101899Y0037201D01*
X0102216Y0037518D01*
X0102533Y0037518D01*
X0102850Y0037201D01*
X0102850Y0036567D01*
X0102533Y0036250D01*
X0101899Y0036250D01*
X0101899Y0035308D02*
X0102216Y0034991D01*
X0102216Y0034040D01*
X0102216Y0034674D02*
X0102850Y0035308D01*
X0101899Y0035308D02*
X0101265Y0035308D01*
X0100948Y0034991D01*
X0100948Y0034040D01*
X0102850Y0034040D01*
X0108448Y0033935D02*
X0108448Y0034886D01*
X0108765Y0035203D01*
X0109399Y0035203D01*
X0109716Y0034886D01*
X0109716Y0033935D01*
X0110350Y0033935D02*
X0108448Y0033935D01*
X0109716Y0034569D02*
X0110350Y0035203D01*
X0110350Y0036145D02*
X0110350Y0037413D01*
X0110350Y0036779D02*
X0108448Y0036779D01*
X0109082Y0036145D01*
X0108765Y0038355D02*
X0108448Y0038672D01*
X0108448Y0039306D01*
X0108765Y0039623D01*
X0109082Y0039623D01*
X0110350Y0038355D01*
X0110350Y0039623D01*
X0122948Y0037201D02*
X0122948Y0036567D01*
X0123265Y0036250D01*
X0123582Y0036250D01*
X0123899Y0036567D01*
X0123899Y0037201D01*
X0124216Y0037518D01*
X0124533Y0037518D01*
X0124850Y0037201D01*
X0124850Y0036567D01*
X0124533Y0036250D01*
X0124216Y0036250D01*
X0123899Y0036567D01*
X0123899Y0037201D02*
X0123582Y0037518D01*
X0123265Y0037518D01*
X0122948Y0037201D01*
X0123265Y0035308D02*
X0123899Y0035308D01*
X0124216Y0034991D01*
X0124216Y0034040D01*
X0124216Y0034674D02*
X0124850Y0035308D01*
X0124850Y0034040D02*
X0122948Y0034040D01*
X0122948Y0034991D01*
X0123265Y0035308D01*
X0130448Y0034935D02*
X0130448Y0035886D01*
X0130765Y0036203D01*
X0131399Y0036203D01*
X0131716Y0035886D01*
X0131716Y0034935D01*
X0132350Y0034935D02*
X0130448Y0034935D01*
X0131716Y0035569D02*
X0132350Y0036203D01*
X0132033Y0037145D02*
X0132350Y0037462D01*
X0132350Y0038096D01*
X0132033Y0038413D01*
X0131716Y0038413D01*
X0131399Y0038096D01*
X0131399Y0037145D01*
X0132033Y0037145D01*
X0131399Y0037145D02*
X0130765Y0037779D01*
X0130448Y0038413D01*
X0130765Y0039355D02*
X0130448Y0039672D01*
X0130448Y0040306D01*
X0130765Y0040623D01*
X0131082Y0040623D01*
X0131399Y0040306D01*
X0131716Y0040623D01*
X0132033Y0040623D01*
X0132350Y0040306D01*
X0132350Y0039672D01*
X0132033Y0039355D01*
X0131399Y0039989D02*
X0131399Y0040306D01*
X0144948Y0040623D02*
X0144948Y0039355D01*
X0145899Y0039355D01*
X0145582Y0039989D01*
X0145582Y0040306D01*
X0145899Y0040623D01*
X0146533Y0040623D01*
X0146850Y0040306D01*
X0146850Y0039672D01*
X0146533Y0039355D01*
X0146533Y0038413D02*
X0146216Y0038413D01*
X0145899Y0038096D01*
X0145899Y0037145D01*
X0146533Y0037145D01*
X0146850Y0037462D01*
X0146850Y0038096D01*
X0146533Y0038413D01*
X0145265Y0037779D02*
X0145899Y0037145D01*
X0145265Y0037779D02*
X0144948Y0038413D01*
X0145265Y0036203D02*
X0145899Y0036203D01*
X0146216Y0035886D01*
X0146216Y0034935D01*
X0146850Y0034935D02*
X0144948Y0034935D01*
X0144948Y0035886D01*
X0145265Y0036203D01*
X0146216Y0035569D02*
X0146850Y0036203D01*
X0161948Y0035886D02*
X0162265Y0036203D01*
X0162899Y0036203D01*
X0163216Y0035886D01*
X0163216Y0034935D01*
X0163850Y0034935D02*
X0161948Y0034935D01*
X0161948Y0035886D01*
X0163216Y0035569D02*
X0163850Y0036203D01*
X0163533Y0037145D02*
X0162899Y0037145D01*
X0162899Y0038096D01*
X0163216Y0038413D01*
X0163533Y0038413D01*
X0163850Y0038096D01*
X0163850Y0037462D01*
X0163533Y0037145D01*
X0162899Y0037145D02*
X0162265Y0037779D01*
X0161948Y0038413D01*
X0161948Y0039355D02*
X0161948Y0040623D01*
X0162265Y0040623D01*
X0163533Y0039355D01*
X0163850Y0039355D01*
X0049600Y0072500D02*
X0049600Y0112500D01*
X0029600Y0112500D01*
X0029600Y0072500D01*
X0049600Y0072500D01*
X0051933Y0106120D02*
X0052250Y0106437D01*
X0052250Y0106754D01*
X0051933Y0107071D01*
X0050348Y0107071D01*
X0050348Y0106754D02*
X0050348Y0107388D01*
X0050982Y0108330D02*
X0050348Y0108964D01*
X0052250Y0108964D01*
X0052250Y0108330D02*
X0052250Y0109598D01*
X0051933Y0110540D02*
X0052250Y0110857D01*
X0052250Y0111491D01*
X0051933Y0111808D01*
X0050665Y0111808D01*
X0050348Y0111491D01*
X0050348Y0110857D01*
X0050665Y0110540D01*
X0050982Y0110540D01*
X0051299Y0110857D01*
X0051299Y0111808D01*
X0092948Y0127303D02*
X0092948Y0127937D01*
X0092948Y0127620D02*
X0094850Y0127620D01*
X0094850Y0127303D02*
X0094850Y0127937D01*
X0094533Y0128777D02*
X0094850Y0129094D01*
X0094850Y0129728D01*
X0094533Y0130044D01*
X0094850Y0130987D02*
X0093582Y0132254D01*
X0093265Y0132254D01*
X0092948Y0131937D01*
X0092948Y0131304D01*
X0093265Y0130987D01*
X0093265Y0130044D02*
X0092948Y0129728D01*
X0092948Y0129094D01*
X0093265Y0128777D01*
X0094533Y0128777D01*
X0094850Y0130987D02*
X0094850Y0132254D01*
X0094433Y0150040D02*
X0094750Y0150357D01*
X0094750Y0150991D01*
X0094433Y0151308D01*
X0094433Y0152250D02*
X0094750Y0152250D01*
X0094433Y0152250D02*
X0093165Y0153518D01*
X0092848Y0153518D01*
X0092848Y0152250D01*
X0093165Y0151308D02*
X0092848Y0150991D01*
X0092848Y0150357D01*
X0093165Y0150040D01*
X0094433Y0150040D01*
X0088750Y0150357D02*
X0088750Y0150991D01*
X0088433Y0151308D01*
X0088433Y0152250D02*
X0088116Y0152250D01*
X0087799Y0152567D01*
X0087799Y0153201D01*
X0088116Y0153518D01*
X0088433Y0153518D01*
X0088750Y0153201D01*
X0088750Y0152567D01*
X0088433Y0152250D01*
X0087799Y0152567D02*
X0087482Y0152250D01*
X0087165Y0152250D01*
X0086848Y0152567D01*
X0086848Y0153201D01*
X0087165Y0153518D01*
X0087482Y0153518D01*
X0087799Y0153201D01*
X0087165Y0151308D02*
X0086848Y0150991D01*
X0086848Y0150357D01*
X0087165Y0150040D01*
X0088433Y0150040D01*
X0088750Y0150357D01*
X0048250Y0152147D02*
X0048250Y0152464D01*
X0047933Y0152781D01*
X0046348Y0152781D01*
X0046348Y0152464D02*
X0046348Y0153098D01*
X0046348Y0154040D02*
X0046348Y0154991D01*
X0046665Y0155308D01*
X0047299Y0155308D01*
X0047616Y0154991D01*
X0047616Y0154040D01*
X0048250Y0154040D02*
X0046348Y0154040D01*
X0046665Y0156250D02*
X0046348Y0156567D01*
X0046348Y0157201D01*
X0046665Y0157518D01*
X0046982Y0157518D01*
X0048250Y0156250D01*
X0048250Y0157518D01*
X0048250Y0158460D02*
X0046982Y0159728D01*
X0046665Y0159728D01*
X0046348Y0159411D01*
X0046348Y0158777D01*
X0046665Y0158460D01*
X0048250Y0158460D02*
X0048250Y0159728D01*
X0048250Y0152147D02*
X0047933Y0151830D01*
X0105348Y0200357D02*
X0105665Y0200040D01*
X0105982Y0200040D01*
X0106299Y0200357D01*
X0106299Y0200991D01*
X0106616Y0201308D01*
X0106933Y0201308D01*
X0107250Y0200991D01*
X0107250Y0200357D01*
X0106933Y0200040D01*
X0105348Y0200357D02*
X0105348Y0200991D01*
X0105665Y0201308D01*
X0105982Y0202250D02*
X0105348Y0202884D01*
X0107250Y0202884D01*
X0107250Y0202250D02*
X0107250Y0203518D01*
X0128535Y0196835D02*
X0128535Y0195567D01*
X0128852Y0195250D01*
X0129486Y0195250D01*
X0129803Y0195567D01*
X0130745Y0195250D02*
X0132013Y0195250D01*
X0131379Y0195250D02*
X0131379Y0197152D01*
X0130745Y0196518D01*
X0129803Y0196835D02*
X0129486Y0197152D01*
X0128852Y0197152D01*
X0128535Y0196835D01*
X0132955Y0196835D02*
X0132955Y0196518D01*
X0133272Y0196201D01*
X0134223Y0196201D01*
X0134223Y0196835D02*
X0133906Y0197152D01*
X0133272Y0197152D01*
X0132955Y0196835D01*
X0134223Y0196835D02*
X0134223Y0195567D01*
X0133906Y0195250D01*
X0133272Y0195250D01*
X0132955Y0195567D01*
X0121223Y0186835D02*
X0119955Y0185567D01*
X0120272Y0185250D01*
X0120906Y0185250D01*
X0121223Y0185567D01*
X0121223Y0186835D01*
X0120906Y0187152D01*
X0120272Y0187152D01*
X0119955Y0186835D01*
X0119955Y0185567D01*
X0119013Y0185250D02*
X0117745Y0185250D01*
X0119013Y0186518D01*
X0119013Y0186835D01*
X0118696Y0187152D01*
X0118062Y0187152D01*
X0117745Y0186835D01*
X0116803Y0186835D02*
X0116486Y0187152D01*
X0115852Y0187152D01*
X0115535Y0186835D01*
X0115535Y0185567D01*
X0115852Y0185250D01*
X0116486Y0185250D01*
X0116803Y0185567D01*
X0125535Y0175752D02*
X0126486Y0175752D01*
X0126803Y0175435D01*
X0126803Y0174801D01*
X0126486Y0174484D01*
X0125535Y0174484D01*
X0125535Y0173850D02*
X0125535Y0175752D01*
X0126169Y0174484D02*
X0126803Y0173850D01*
X0127745Y0173850D02*
X0127745Y0174167D01*
X0129013Y0175435D01*
X0129013Y0175752D01*
X0127745Y0175752D01*
X0129955Y0175752D02*
X0129955Y0174801D01*
X0130589Y0175118D01*
X0130906Y0175118D01*
X0131223Y0174801D01*
X0131223Y0174167D01*
X0130906Y0173850D01*
X0130272Y0173850D01*
X0129955Y0174167D01*
X0129955Y0175752D02*
X0131223Y0175752D01*
X0163535Y0191350D02*
X0164486Y0191350D01*
X0164803Y0191667D01*
X0164803Y0191984D01*
X0164486Y0192301D01*
X0163535Y0192301D01*
X0163535Y0193252D02*
X0164486Y0193252D01*
X0164803Y0192935D01*
X0164803Y0192618D01*
X0164486Y0192301D01*
X0163535Y0191350D02*
X0163535Y0193252D01*
X0165745Y0193252D02*
X0167013Y0193252D01*
X0166379Y0193252D02*
X0166379Y0191350D01*
X0167955Y0191350D02*
X0169223Y0191350D01*
X0168589Y0191350D02*
X0168589Y0193252D01*
X0167955Y0192618D01*
X0120569Y0219047D02*
X0116631Y0219047D01*
X0116631Y0224953D02*
X0120569Y0224953D01*
X0093408Y0237667D02*
X0093408Y0237984D01*
X0093091Y0238301D01*
X0092140Y0238301D01*
X0092140Y0237667D01*
X0092457Y0237350D01*
X0093091Y0237350D01*
X0093408Y0237667D01*
X0092774Y0238935D02*
X0092140Y0238301D01*
X0092774Y0238935D02*
X0093408Y0239252D01*
X0090564Y0239252D02*
X0090564Y0237350D01*
X0089930Y0237350D02*
X0091198Y0237350D01*
X0089930Y0238618D02*
X0090564Y0239252D01*
X0088988Y0239252D02*
X0088354Y0239252D01*
X0088671Y0239252D02*
X0088671Y0237667D01*
X0088354Y0237350D01*
X0088037Y0237350D01*
X0087720Y0237667D01*
X0065850Y0234306D02*
X0065533Y0234623D01*
X0065216Y0234623D01*
X0064899Y0234306D01*
X0064899Y0233355D01*
X0065533Y0233355D01*
X0065850Y0233672D01*
X0065850Y0234306D01*
X0064899Y0233355D02*
X0064265Y0233989D01*
X0063948Y0234623D01*
X0063948Y0232413D02*
X0064265Y0232413D01*
X0065533Y0231145D01*
X0065850Y0231145D01*
X0065850Y0230203D02*
X0065216Y0229569D01*
X0065216Y0229886D02*
X0065216Y0228935D01*
X0065850Y0228935D02*
X0063948Y0228935D01*
X0063948Y0229886D01*
X0064265Y0230203D01*
X0064899Y0230203D01*
X0065216Y0229886D01*
X0063948Y0231145D02*
X0063948Y0232413D01*
X0058750Y0220518D02*
X0058750Y0219250D01*
X0058750Y0219884D02*
X0056848Y0219884D01*
X0057482Y0219250D01*
X0057165Y0218308D02*
X0058433Y0218308D01*
X0058750Y0217991D01*
X0058750Y0217357D01*
X0058433Y0217040D01*
X0057165Y0217040D01*
X0056848Y0217357D01*
X0056848Y0217991D01*
X0057165Y0218308D01*
X0058116Y0217674D02*
X0058750Y0218308D01*
X0058750Y0209018D02*
X0058750Y0207750D01*
X0057482Y0209018D01*
X0057165Y0209018D01*
X0056848Y0208701D01*
X0056848Y0208067D01*
X0057165Y0207750D01*
X0057165Y0206808D02*
X0058433Y0206808D01*
X0058750Y0206491D01*
X0058750Y0205857D01*
X0058433Y0205540D01*
X0057165Y0205540D01*
X0056848Y0205857D01*
X0056848Y0206491D01*
X0057165Y0206808D01*
X0058116Y0206174D02*
X0058750Y0206808D01*
X0044850Y0225935D02*
X0042948Y0225935D01*
X0042948Y0226886D01*
X0043265Y0227203D01*
X0043899Y0227203D01*
X0044216Y0226886D01*
X0044216Y0225935D01*
X0044216Y0226569D02*
X0044850Y0227203D01*
X0044850Y0228145D02*
X0044850Y0229413D01*
X0044850Y0228779D02*
X0042948Y0228779D01*
X0043582Y0228145D01*
X0043899Y0230355D02*
X0043899Y0231306D01*
X0044216Y0231623D01*
X0044533Y0231623D01*
X0044850Y0231306D01*
X0044850Y0230672D01*
X0044533Y0230355D01*
X0043899Y0230355D01*
X0043265Y0230989D01*
X0042948Y0231623D01*
X0032350Y0221806D02*
X0030448Y0221806D01*
X0031399Y0220855D01*
X0031399Y0222123D01*
X0031399Y0219913D02*
X0032033Y0219913D01*
X0032350Y0219596D01*
X0032350Y0218962D01*
X0032033Y0218645D01*
X0031399Y0218645D02*
X0031082Y0219279D01*
X0031082Y0219596D01*
X0031399Y0219913D01*
X0030448Y0219913D02*
X0030448Y0218645D01*
X0031399Y0218645D01*
X0031399Y0217703D02*
X0031716Y0217386D01*
X0031716Y0216435D01*
X0032350Y0216435D02*
X0030448Y0216435D01*
X0030448Y0217386D01*
X0030765Y0217703D01*
X0031399Y0217703D01*
X0031716Y0217069D02*
X0032350Y0217703D01*
X0007563Y0035192D02*
X0007563Y0033924D01*
X0007563Y0034558D02*
X0005661Y0034558D01*
X0006295Y0033924D01*
X0005661Y0032982D02*
X0005661Y0032348D01*
X0005661Y0032665D02*
X0007246Y0032665D01*
X0007563Y0032348D01*
X0007563Y0032031D01*
X0007246Y0031715D01*
X0303348Y0077464D02*
X0303348Y0078098D01*
X0303348Y0077781D02*
X0304933Y0077781D01*
X0305250Y0077464D01*
X0305250Y0077147D01*
X0304933Y0076830D01*
X0304616Y0079040D02*
X0304616Y0079991D01*
X0304299Y0080308D01*
X0303665Y0080308D01*
X0303348Y0079991D01*
X0303348Y0079040D01*
X0305250Y0079040D01*
X0305250Y0081250D02*
X0305250Y0082518D01*
X0305250Y0081884D02*
X0303348Y0081884D01*
X0303982Y0081250D01*
X0303665Y0083460D02*
X0303348Y0083777D01*
X0303348Y0084411D01*
X0303665Y0084728D01*
X0304933Y0083460D01*
X0305250Y0083777D01*
X0305250Y0084411D01*
X0304933Y0084728D01*
X0303665Y0084728D01*
X0303665Y0083460D02*
X0304933Y0083460D01*
X0305533Y0096830D02*
X0305850Y0097147D01*
X0305850Y0097464D01*
X0305533Y0097781D01*
X0303948Y0097781D01*
X0303948Y0097464D02*
X0303948Y0098098D01*
X0303948Y0099040D02*
X0303948Y0099991D01*
X0304265Y0100308D01*
X0304899Y0100308D01*
X0305216Y0099991D01*
X0305216Y0099040D01*
X0305850Y0099040D02*
X0303948Y0099040D01*
X0304582Y0101250D02*
X0303948Y0101884D01*
X0305850Y0101884D01*
X0305850Y0101250D02*
X0305850Y0102518D01*
X0305850Y0103460D02*
X0305850Y0104728D01*
X0305850Y0104094D02*
X0303948Y0104094D01*
X0304582Y0103460D01*
X0304933Y0115830D02*
X0305250Y0116147D01*
X0305250Y0116464D01*
X0304933Y0116781D01*
X0303348Y0116781D01*
X0303348Y0116464D02*
X0303348Y0117098D01*
X0303348Y0118040D02*
X0303348Y0118991D01*
X0303665Y0119308D01*
X0304299Y0119308D01*
X0304616Y0118991D01*
X0304616Y0118040D01*
X0305250Y0118040D02*
X0303348Y0118040D01*
X0303982Y0120250D02*
X0303348Y0120884D01*
X0305250Y0120884D01*
X0305250Y0120250D02*
X0305250Y0121518D01*
X0305250Y0122460D02*
X0303982Y0123728D01*
X0303665Y0123728D01*
X0303348Y0123411D01*
X0303348Y0122777D01*
X0303665Y0122460D01*
X0305250Y0122460D02*
X0305250Y0123728D01*
X0425038Y0171650D02*
X0425038Y0176154D01*
X0427290Y0176154D01*
X0428041Y0175403D01*
X0428041Y0173902D01*
X0427290Y0173151D01*
X0425038Y0173151D01*
X0426539Y0173151D02*
X0428041Y0171650D01*
X0429642Y0172401D02*
X0429642Y0173151D01*
X0430393Y0173902D01*
X0431894Y0173902D01*
X0432645Y0173151D01*
X0432645Y0172401D01*
X0431894Y0171650D01*
X0430393Y0171650D01*
X0429642Y0172401D01*
X0430393Y0173902D02*
X0429642Y0174653D01*
X0429642Y0175403D01*
X0430393Y0176154D01*
X0431894Y0176154D01*
X0432645Y0175403D01*
X0432645Y0174653D01*
X0431894Y0173902D01*
X0434246Y0175403D02*
X0434997Y0176154D01*
X0436498Y0176154D01*
X0437249Y0175403D01*
X0437249Y0174653D01*
X0434246Y0171650D01*
X0437249Y0171650D01*
X0452600Y0161000D02*
X0472600Y0161000D01*
X0472600Y0201000D01*
X0452600Y0201000D01*
X0452600Y0161000D01*
X0452600Y0150000D02*
X0452600Y0110000D01*
X0472600Y0110000D01*
X0472600Y0150000D01*
X0452600Y0150000D01*
X0473348Y0149308D02*
X0473665Y0149308D01*
X0474933Y0148040D01*
X0475250Y0148040D01*
X0475250Y0147098D02*
X0475250Y0145830D01*
X0475250Y0146464D02*
X0473348Y0146464D01*
X0473982Y0145830D01*
X0473348Y0144888D02*
X0473348Y0144254D01*
X0473348Y0144571D02*
X0474933Y0144571D01*
X0475250Y0144254D01*
X0475250Y0143937D01*
X0474933Y0143620D01*
X0473348Y0148040D02*
X0473348Y0149308D01*
X0474933Y0194620D02*
X0475250Y0194937D01*
X0475250Y0195254D01*
X0474933Y0195571D01*
X0473348Y0195571D01*
X0473348Y0195254D02*
X0473348Y0195888D01*
X0473665Y0196830D02*
X0473348Y0197147D01*
X0473348Y0197781D01*
X0473665Y0198098D01*
X0473982Y0198098D01*
X0475250Y0196830D01*
X0475250Y0198098D01*
X0475250Y0199040D02*
X0473982Y0200308D01*
X0473665Y0200308D01*
X0473348Y0199991D01*
X0473348Y0199357D01*
X0473665Y0199040D01*
X0475250Y0199040D02*
X0475250Y0200308D01*
X0471100Y0094500D02*
X0451100Y0094500D01*
X0451100Y0054500D01*
X0471100Y0054500D01*
X0471100Y0094500D01*
X0471848Y0093174D02*
X0473750Y0093174D01*
X0473750Y0092540D02*
X0473750Y0093808D01*
X0472482Y0092540D02*
X0471848Y0093174D01*
X0472165Y0091598D02*
X0471848Y0091281D01*
X0471848Y0090647D01*
X0472165Y0090330D01*
X0471848Y0089388D02*
X0471848Y0088754D01*
X0471848Y0089071D02*
X0473433Y0089071D01*
X0473750Y0088754D01*
X0473750Y0088437D01*
X0473433Y0088120D01*
X0473750Y0090330D02*
X0472482Y0091598D01*
X0472165Y0091598D01*
X0473750Y0091598D02*
X0473750Y0090330D01*
X0471100Y0050500D02*
X0451100Y0050500D01*
X0451100Y0010500D01*
X0471100Y0010500D01*
X0471100Y0050500D01*
X0471848Y0049491D02*
X0472165Y0049808D01*
X0473433Y0048540D01*
X0473750Y0048857D01*
X0473750Y0049491D01*
X0473433Y0049808D01*
X0472165Y0049808D01*
X0471848Y0049491D02*
X0471848Y0048857D01*
X0472165Y0048540D01*
X0473433Y0048540D01*
X0473750Y0047598D02*
X0473750Y0046330D01*
X0472482Y0047598D01*
X0472165Y0047598D01*
X0471848Y0047281D01*
X0471848Y0046647D01*
X0472165Y0046330D01*
X0471848Y0045388D02*
X0471848Y0044754D01*
X0471848Y0045071D02*
X0473433Y0045071D01*
X0473750Y0044754D01*
X0473750Y0044437D01*
X0473433Y0044120D01*
D14*
X0174500Y0057100D02*
X0174500Y0058201D01*
X0174133Y0058568D01*
X0172665Y0058568D01*
X0172298Y0058201D01*
X0172298Y0057100D01*
X0174500Y0057100D01*
X0174133Y0059310D02*
X0174500Y0059677D01*
X0174500Y0060411D01*
X0174133Y0060778D01*
X0173766Y0060778D01*
X0173399Y0060411D01*
X0173399Y0059310D01*
X0174133Y0059310D01*
X0173399Y0059310D02*
X0172665Y0060044D01*
X0172298Y0060778D01*
X0143878Y0059302D02*
X0142410Y0059302D01*
X0142410Y0058201D01*
X0143144Y0058568D01*
X0143511Y0058568D01*
X0143878Y0058201D01*
X0143878Y0057467D01*
X0143511Y0057100D01*
X0142777Y0057100D01*
X0142410Y0057467D01*
X0141668Y0057467D02*
X0141668Y0058935D01*
X0141301Y0059302D01*
X0140200Y0059302D01*
X0140200Y0057100D01*
X0141301Y0057100D01*
X0141668Y0057467D01*
X0120500Y0057100D02*
X0120500Y0058201D01*
X0120133Y0058568D01*
X0118665Y0058568D01*
X0118298Y0058201D01*
X0118298Y0057100D01*
X0120500Y0057100D01*
X0119399Y0059310D02*
X0119399Y0060778D01*
X0118298Y0060411D02*
X0119399Y0059310D01*
X0120500Y0060411D02*
X0118298Y0060411D01*
X0102187Y0066000D02*
X0102187Y0084000D01*
X0086013Y0084000D01*
X0086013Y0066000D01*
X0102187Y0066000D01*
X0098133Y0060778D02*
X0098500Y0060411D01*
X0098500Y0059677D01*
X0098133Y0059310D01*
X0098133Y0058568D02*
X0096665Y0058568D01*
X0096298Y0058201D01*
X0096298Y0057100D01*
X0098500Y0057100D01*
X0098500Y0058201D01*
X0098133Y0058568D01*
X0096665Y0059310D02*
X0096298Y0059677D01*
X0096298Y0060411D01*
X0096665Y0060778D01*
X0097032Y0060778D01*
X0097399Y0060411D01*
X0097766Y0060778D01*
X0098133Y0060778D01*
X0097399Y0060411D02*
X0097399Y0060044D01*
X0076500Y0060778D02*
X0076500Y0059310D01*
X0075032Y0060778D01*
X0074665Y0060778D01*
X0074298Y0060411D01*
X0074298Y0059677D01*
X0074665Y0059310D01*
X0074665Y0058568D02*
X0074298Y0058201D01*
X0074298Y0057100D01*
X0076500Y0057100D01*
X0076500Y0058201D01*
X0076133Y0058568D01*
X0074665Y0058568D01*
X0054500Y0058201D02*
X0054133Y0058568D01*
X0052665Y0058568D01*
X0052298Y0058201D01*
X0052298Y0057100D01*
X0054500Y0057100D01*
X0054500Y0058201D01*
X0054500Y0059310D02*
X0054500Y0060778D01*
X0054500Y0060044D02*
X0052298Y0060044D01*
X0053032Y0059310D01*
X0108424Y0219836D02*
X0108791Y0219836D01*
X0109525Y0220570D01*
X0110626Y0220570D01*
X0109525Y0220570D02*
X0108791Y0221304D01*
X0108424Y0221304D01*
X0109158Y0222046D02*
X0108424Y0222780D01*
X0110626Y0222780D01*
X0110626Y0222046D02*
X0110626Y0223514D01*
X0109678Y0226628D02*
X0108210Y0228829D01*
X0107468Y0228462D02*
X0107101Y0228829D01*
X0106367Y0228829D01*
X0106000Y0228462D01*
X0106000Y0226995D01*
X0106367Y0226628D01*
X0107101Y0226628D01*
X0107468Y0226995D01*
X0108210Y0226628D02*
X0109678Y0228829D01*
X0110420Y0227728D02*
X0111888Y0227728D01*
X0112630Y0226995D02*
X0112997Y0226995D01*
X0112997Y0226628D01*
X0112630Y0226628D01*
X0112630Y0226995D01*
X0113735Y0226995D02*
X0114102Y0226628D01*
X0114836Y0226628D01*
X0115203Y0226995D01*
X0115203Y0227362D01*
X0114836Y0227728D01*
X0114469Y0227728D01*
X0114836Y0227728D02*
X0115203Y0228095D01*
X0115203Y0228462D01*
X0114836Y0228829D01*
X0114102Y0228829D01*
X0113735Y0228462D01*
X0115945Y0228462D02*
X0116312Y0228829D01*
X0117046Y0228829D01*
X0117413Y0228462D01*
X0117413Y0228095D01*
X0115945Y0226628D01*
X0117413Y0226628D01*
X0118155Y0226628D02*
X0118155Y0226995D01*
X0119623Y0228462D01*
X0119623Y0228829D01*
X0118155Y0228829D01*
X0120365Y0227728D02*
X0121833Y0227728D01*
X0122575Y0227728D02*
X0123675Y0227728D01*
X0124042Y0227362D01*
X0124042Y0226995D01*
X0123675Y0226628D01*
X0122941Y0226628D01*
X0122575Y0226995D01*
X0122575Y0227728D01*
X0123308Y0228462D01*
X0124042Y0228829D01*
X0124784Y0227728D02*
X0126252Y0227728D01*
X0126994Y0226995D02*
X0127361Y0226628D01*
X0128095Y0226628D01*
X0128462Y0226995D01*
X0128462Y0227362D01*
X0128095Y0227728D01*
X0127728Y0227728D01*
X0128095Y0227728D02*
X0128462Y0228095D01*
X0128462Y0228462D01*
X0128095Y0228829D01*
X0127361Y0228829D01*
X0126994Y0228462D01*
X0129204Y0227728D02*
X0130672Y0227728D01*
X0131414Y0227362D02*
X0132515Y0227362D01*
X0132882Y0227728D01*
X0132882Y0228462D01*
X0132515Y0228829D01*
X0131414Y0228829D01*
X0131414Y0226628D01*
X0132148Y0227362D02*
X0132882Y0226628D01*
X0133624Y0226628D02*
X0133624Y0228829D01*
X0134725Y0228829D01*
X0135092Y0228462D01*
X0135092Y0227728D01*
X0134725Y0227362D01*
X0133624Y0227362D01*
X0134358Y0227362D02*
X0135092Y0226628D01*
X0130305Y0226628D02*
X0130305Y0228829D01*
X0129204Y0227728D01*
X0105258Y0226628D02*
X0103791Y0226628D01*
X0103791Y0228829D01*
X0105258Y0228829D01*
X0104525Y0227728D02*
X0103791Y0227728D01*
X0375700Y0285600D02*
X0376434Y0285600D01*
X0376067Y0285600D02*
X0376067Y0287802D01*
X0375700Y0287802D02*
X0376434Y0287802D01*
X0377173Y0287435D02*
X0377173Y0285967D01*
X0377540Y0285600D01*
X0378274Y0285600D01*
X0378641Y0285967D01*
X0379383Y0285600D02*
X0380851Y0285600D01*
X0380117Y0285600D02*
X0380117Y0287802D01*
X0379383Y0287068D01*
X0378641Y0287435D02*
X0378274Y0287802D01*
X0377540Y0287802D01*
X0377173Y0287435D01*
X0381593Y0287068D02*
X0382327Y0287802D01*
X0382327Y0285600D01*
X0381593Y0285600D02*
X0383061Y0285600D01*
D15*
X0158841Y0142821D02*
X0158841Y0141287D01*
X0158074Y0140519D01*
X0158074Y0138985D02*
X0158841Y0138217D01*
X0158841Y0136683D01*
X0158074Y0135915D01*
X0155004Y0135915D01*
X0154237Y0136683D01*
X0154237Y0138217D01*
X0155004Y0138985D01*
X0155004Y0140519D02*
X0154237Y0141287D01*
X0154237Y0142821D01*
X0155004Y0143589D01*
X0155772Y0143589D01*
X0156539Y0142821D01*
X0157306Y0143589D01*
X0158074Y0143589D01*
X0158841Y0142821D01*
X0156539Y0142821D02*
X0156539Y0142054D01*
X0158841Y0134381D02*
X0158841Y0132846D01*
X0158841Y0133613D02*
X0154237Y0133613D01*
X0154237Y0132846D02*
X0154237Y0134381D01*
X0154741Y0089304D02*
X0156275Y0089304D01*
X0157042Y0088537D01*
X0157042Y0087769D01*
X0156275Y0087002D01*
X0154741Y0087002D01*
X0153973Y0087769D01*
X0153973Y0088537D01*
X0154741Y0089304D01*
X0154741Y0087002D02*
X0153973Y0086235D01*
X0153973Y0085467D01*
X0154741Y0084700D01*
X0156275Y0084700D01*
X0157042Y0085467D01*
X0157042Y0086235D01*
X0156275Y0087002D01*
X0152439Y0088537D02*
X0151671Y0089304D01*
X0150137Y0089304D01*
X0149369Y0088537D01*
X0149369Y0085467D01*
X0150137Y0084700D01*
X0151671Y0084700D01*
X0152439Y0085467D01*
X0147835Y0084700D02*
X0146300Y0084700D01*
X0147067Y0084700D02*
X0147067Y0089304D01*
X0146300Y0089304D02*
X0147835Y0089304D01*
X0094641Y0086600D02*
X0092239Y0086600D01*
X0093440Y0086600D02*
X0093440Y0090203D01*
X0092239Y0089002D01*
X0090957Y0089603D02*
X0090357Y0090203D01*
X0089156Y0090203D01*
X0088555Y0089603D01*
X0088555Y0087201D01*
X0089156Y0086600D01*
X0090357Y0086600D01*
X0090957Y0087201D01*
X0087301Y0086600D02*
X0086100Y0086600D01*
X0086701Y0086600D02*
X0086701Y0090203D01*
X0087301Y0090203D02*
X0086100Y0090203D01*
D16*
X0105100Y0119025D03*
D17*
X0096944Y0120347D02*
X0096975Y0120625D01*
X0096944Y0120903D01*
X0096851Y0121167D01*
X0096702Y0121404D01*
X0096504Y0121602D01*
X0096267Y0121751D01*
X0096003Y0121844D01*
X0095725Y0121875D01*
X0095447Y0121844D01*
X0095183Y0121751D01*
X0094946Y0121602D01*
X0094748Y0121404D01*
X0094599Y0121167D01*
X0094506Y0120903D01*
X0094475Y0120625D01*
X0094506Y0120347D01*
X0094599Y0120083D01*
X0094748Y0119846D01*
X0094946Y0119648D01*
X0095183Y0119499D01*
X0095447Y0119406D01*
X0095725Y0119375D01*
X0096003Y0119406D01*
X0096267Y0119499D01*
X0096504Y0119648D01*
X0096702Y0119846D01*
X0096851Y0120083D01*
X0096944Y0120347D01*
X0096943Y0120345D02*
X0094507Y0120345D01*
X0094510Y0120337D02*
X0096940Y0120337D01*
X0096937Y0120328D02*
X0094513Y0120328D01*
X0094516Y0120320D02*
X0096934Y0120320D01*
X0096931Y0120311D02*
X0094519Y0120311D01*
X0094522Y0120303D02*
X0096928Y0120303D01*
X0096925Y0120294D02*
X0094525Y0120294D01*
X0094528Y0120286D02*
X0096922Y0120286D01*
X0096919Y0120277D02*
X0094531Y0120277D01*
X0094534Y0120269D02*
X0096916Y0120269D01*
X0096913Y0120260D02*
X0094537Y0120260D01*
X0094540Y0120252D02*
X0096910Y0120252D01*
X0096907Y0120243D02*
X0094543Y0120243D01*
X0094546Y0120235D02*
X0096904Y0120235D01*
X0096901Y0120226D02*
X0094549Y0120226D01*
X0094552Y0120218D02*
X0096898Y0120218D01*
X0096895Y0120209D02*
X0094555Y0120209D01*
X0094557Y0120201D02*
X0096893Y0120201D01*
X0096890Y0120192D02*
X0094560Y0120192D01*
X0094563Y0120184D02*
X0096887Y0120184D01*
X0096884Y0120175D02*
X0094566Y0120175D01*
X0094569Y0120167D02*
X0096881Y0120167D01*
X0096878Y0120158D02*
X0094572Y0120158D01*
X0094575Y0120150D02*
X0096875Y0120150D01*
X0096872Y0120141D02*
X0094578Y0120141D01*
X0094581Y0120133D02*
X0096869Y0120133D01*
X0096866Y0120124D02*
X0094584Y0120124D01*
X0094587Y0120116D02*
X0096863Y0120116D01*
X0096860Y0120107D02*
X0094590Y0120107D01*
X0094593Y0120099D02*
X0096857Y0120099D01*
X0096854Y0120090D02*
X0094596Y0120090D01*
X0094600Y0120081D02*
X0096850Y0120081D01*
X0096845Y0120073D02*
X0094605Y0120073D01*
X0094610Y0120064D02*
X0096840Y0120064D01*
X0096834Y0120056D02*
X0094616Y0120056D01*
X0094621Y0120047D02*
X0096829Y0120047D01*
X0096824Y0120039D02*
X0094626Y0120039D01*
X0094632Y0120030D02*
X0096818Y0120030D01*
X0096813Y0120022D02*
X0094637Y0120022D01*
X0094642Y0120013D02*
X0096808Y0120013D01*
X0096802Y0120005D02*
X0094648Y0120005D01*
X0094653Y0119996D02*
X0096797Y0119996D01*
X0096792Y0119988D02*
X0094658Y0119988D01*
X0094664Y0119979D02*
X0096786Y0119979D01*
X0096781Y0119971D02*
X0094669Y0119971D01*
X0094674Y0119962D02*
X0096776Y0119962D01*
X0096770Y0119954D02*
X0094680Y0119954D01*
X0094685Y0119945D02*
X0096765Y0119945D01*
X0096760Y0119937D02*
X0094690Y0119937D01*
X0094696Y0119928D02*
X0096754Y0119928D01*
X0096749Y0119920D02*
X0094701Y0119920D01*
X0094706Y0119911D02*
X0096743Y0119911D01*
X0096738Y0119903D02*
X0094712Y0119903D01*
X0094717Y0119894D02*
X0096733Y0119894D01*
X0096727Y0119886D02*
X0094723Y0119886D01*
X0094728Y0119877D02*
X0096722Y0119877D01*
X0096717Y0119869D02*
X0094733Y0119869D01*
X0094739Y0119860D02*
X0096711Y0119860D01*
X0096706Y0119852D02*
X0094744Y0119852D01*
X0094750Y0119843D02*
X0096700Y0119843D01*
X0096691Y0119835D02*
X0094759Y0119835D01*
X0094767Y0119826D02*
X0096683Y0119826D01*
X0096674Y0119818D02*
X0094776Y0119818D01*
X0094784Y0119809D02*
X0096666Y0119809D01*
X0096657Y0119801D02*
X0094793Y0119801D01*
X0094801Y0119792D02*
X0096649Y0119792D01*
X0096640Y0119784D02*
X0094810Y0119784D01*
X0094818Y0119775D02*
X0096632Y0119775D01*
X0096623Y0119766D02*
X0094827Y0119766D01*
X0094835Y0119758D02*
X0096615Y0119758D01*
X0096606Y0119749D02*
X0094844Y0119749D01*
X0094852Y0119741D02*
X0096598Y0119741D01*
X0096589Y0119732D02*
X0094861Y0119732D01*
X0094869Y0119724D02*
X0096581Y0119724D01*
X0096572Y0119715D02*
X0094878Y0119715D01*
X0094886Y0119707D02*
X0096564Y0119707D01*
X0096555Y0119698D02*
X0094895Y0119698D01*
X0094903Y0119690D02*
X0096547Y0119690D01*
X0096538Y0119681D02*
X0094912Y0119681D01*
X0094921Y0119673D02*
X0096529Y0119673D01*
X0096521Y0119664D02*
X0094929Y0119664D01*
X0094938Y0119656D02*
X0096512Y0119656D01*
X0096504Y0119647D02*
X0094946Y0119647D01*
X0094960Y0119639D02*
X0096490Y0119639D01*
X0096477Y0119630D02*
X0094973Y0119630D01*
X0094987Y0119622D02*
X0096463Y0119622D01*
X0096449Y0119613D02*
X0095000Y0119613D01*
X0095014Y0119605D02*
X0096436Y0119605D01*
X0096422Y0119596D02*
X0095028Y0119596D01*
X0095041Y0119588D02*
X0096409Y0119588D01*
X0096395Y0119579D02*
X0095055Y0119579D01*
X0095068Y0119571D02*
X0096382Y0119571D01*
X0096368Y0119562D02*
X0095082Y0119562D01*
X0095095Y0119554D02*
X0096355Y0119554D01*
X0096341Y0119545D02*
X0095109Y0119545D01*
X0095122Y0119537D02*
X0096328Y0119537D01*
X0096314Y0119528D02*
X0095136Y0119528D01*
X0095150Y0119520D02*
X0096300Y0119520D01*
X0096287Y0119511D02*
X0095163Y0119511D01*
X0095177Y0119503D02*
X0096273Y0119503D01*
X0096254Y0119494D02*
X0095196Y0119494D01*
X0095221Y0119486D02*
X0096229Y0119486D01*
X0096205Y0119477D02*
X0095245Y0119477D01*
X0095269Y0119469D02*
X0096181Y0119469D01*
X0096156Y0119460D02*
X0095294Y0119460D01*
X0095318Y0119451D02*
X0096132Y0119451D01*
X0096108Y0119443D02*
X0095342Y0119443D01*
X0095367Y0119434D02*
X0096083Y0119434D01*
X0096059Y0119426D02*
X0095391Y0119426D01*
X0095415Y0119417D02*
X0096035Y0119417D01*
X0096010Y0119409D02*
X0095439Y0119409D01*
X0095500Y0119400D02*
X0095950Y0119400D01*
X0095875Y0119392D02*
X0095575Y0119392D01*
X0095651Y0119383D02*
X0095799Y0119383D01*
X0096944Y0120354D02*
X0094506Y0120354D01*
X0094505Y0120362D02*
X0096945Y0120362D01*
X0096946Y0120371D02*
X0094504Y0120371D01*
X0094503Y0120379D02*
X0096947Y0120379D01*
X0096948Y0120388D02*
X0094502Y0120388D01*
X0094501Y0120397D02*
X0096949Y0120397D01*
X0096950Y0120405D02*
X0094500Y0120405D01*
X0094499Y0120414D02*
X0096951Y0120414D01*
X0096952Y0120422D02*
X0094498Y0120422D01*
X0094497Y0120431D02*
X0096953Y0120431D01*
X0096954Y0120439D02*
X0094496Y0120439D01*
X0094495Y0120448D02*
X0096955Y0120448D01*
X0096956Y0120456D02*
X0094494Y0120456D01*
X0094493Y0120465D02*
X0096957Y0120465D01*
X0096958Y0120473D02*
X0094492Y0120473D01*
X0094491Y0120482D02*
X0096959Y0120482D01*
X0096960Y0120490D02*
X0094490Y0120490D01*
X0094489Y0120499D02*
X0096961Y0120499D01*
X0096962Y0120507D02*
X0094488Y0120507D01*
X0094487Y0120516D02*
X0096963Y0120516D01*
X0096964Y0120524D02*
X0094486Y0120524D01*
X0094485Y0120533D02*
X0096965Y0120533D01*
X0096966Y0120541D02*
X0094484Y0120541D01*
X0094483Y0120550D02*
X0096967Y0120550D01*
X0096967Y0120558D02*
X0094483Y0120558D01*
X0094482Y0120567D02*
X0096968Y0120567D01*
X0096969Y0120575D02*
X0094481Y0120575D01*
X0094480Y0120584D02*
X0096970Y0120584D01*
X0096971Y0120592D02*
X0094479Y0120592D01*
X0094478Y0120601D02*
X0096972Y0120601D01*
X0096973Y0120609D02*
X0094477Y0120609D01*
X0094476Y0120618D02*
X0096974Y0120618D01*
X0096975Y0120626D02*
X0094475Y0120626D01*
X0094476Y0120635D02*
X0096974Y0120635D01*
X0096973Y0120643D02*
X0094477Y0120643D01*
X0094478Y0120652D02*
X0096972Y0120652D01*
X0096971Y0120660D02*
X0094479Y0120660D01*
X0094480Y0120669D02*
X0096970Y0120669D01*
X0096969Y0120677D02*
X0094481Y0120677D01*
X0094482Y0120686D02*
X0096968Y0120686D01*
X0096967Y0120694D02*
X0094483Y0120694D01*
X0094484Y0120703D02*
X0096966Y0120703D01*
X0096965Y0120712D02*
X0094485Y0120712D01*
X0094486Y0120720D02*
X0096964Y0120720D01*
X0096963Y0120729D02*
X0094487Y0120729D01*
X0094488Y0120737D02*
X0096962Y0120737D01*
X0096961Y0120746D02*
X0094489Y0120746D01*
X0094490Y0120754D02*
X0096960Y0120754D01*
X0096960Y0120763D02*
X0094491Y0120763D01*
X0094491Y0120771D02*
X0096959Y0120771D01*
X0096958Y0120780D02*
X0094492Y0120780D01*
X0094493Y0120788D02*
X0096957Y0120788D01*
X0096956Y0120797D02*
X0094494Y0120797D01*
X0094495Y0120805D02*
X0096955Y0120805D01*
X0096954Y0120814D02*
X0094496Y0120814D01*
X0094497Y0120822D02*
X0096953Y0120822D01*
X0096952Y0120831D02*
X0094498Y0120831D01*
X0094499Y0120839D02*
X0096951Y0120839D01*
X0096950Y0120848D02*
X0094500Y0120848D01*
X0094501Y0120856D02*
X0096949Y0120856D01*
X0096948Y0120865D02*
X0094502Y0120865D01*
X0094503Y0120873D02*
X0096947Y0120873D01*
X0096946Y0120882D02*
X0094504Y0120882D01*
X0094505Y0120890D02*
X0096945Y0120890D01*
X0096944Y0120899D02*
X0094506Y0120899D01*
X0094508Y0120907D02*
X0096942Y0120907D01*
X0096939Y0120916D02*
X0094511Y0120916D01*
X0094514Y0120924D02*
X0096936Y0120924D01*
X0096933Y0120933D02*
X0094517Y0120933D01*
X0094520Y0120941D02*
X0096930Y0120941D01*
X0096927Y0120950D02*
X0094523Y0120950D01*
X0094526Y0120958D02*
X0096924Y0120958D01*
X0096921Y0120967D02*
X0094529Y0120967D01*
X0094532Y0120975D02*
X0096918Y0120975D01*
X0096915Y0120984D02*
X0094535Y0120984D01*
X0094538Y0120992D02*
X0096912Y0120992D01*
X0096909Y0121001D02*
X0094541Y0121001D01*
X0094544Y0121009D02*
X0096906Y0121009D01*
X0096903Y0121018D02*
X0094547Y0121018D01*
X0094550Y0121027D02*
X0096900Y0121027D01*
X0096898Y0121035D02*
X0094552Y0121035D01*
X0094555Y0121044D02*
X0096895Y0121044D01*
X0096892Y0121052D02*
X0094558Y0121052D01*
X0094561Y0121061D02*
X0096889Y0121061D01*
X0096886Y0121069D02*
X0094564Y0121069D01*
X0094567Y0121078D02*
X0096883Y0121078D01*
X0096880Y0121086D02*
X0094570Y0121086D01*
X0094573Y0121095D02*
X0096877Y0121095D01*
X0096874Y0121103D02*
X0094576Y0121103D01*
X0094579Y0121112D02*
X0096871Y0121112D01*
X0096868Y0121120D02*
X0094582Y0121120D01*
X0094585Y0121129D02*
X0096865Y0121129D01*
X0096862Y0121137D02*
X0094588Y0121137D01*
X0094591Y0121146D02*
X0096859Y0121146D01*
X0096856Y0121154D02*
X0094594Y0121154D01*
X0094597Y0121163D02*
X0096853Y0121163D01*
X0096849Y0121171D02*
X0094601Y0121171D01*
X0094607Y0121180D02*
X0096843Y0121180D01*
X0096838Y0121188D02*
X0094612Y0121188D01*
X0094617Y0121197D02*
X0096833Y0121197D01*
X0096827Y0121205D02*
X0094623Y0121205D01*
X0094628Y0121214D02*
X0096822Y0121214D01*
X0096817Y0121222D02*
X0094633Y0121222D01*
X0094639Y0121231D02*
X0096811Y0121231D01*
X0096806Y0121239D02*
X0094644Y0121239D01*
X0094649Y0121248D02*
X0096801Y0121248D01*
X0096795Y0121256D02*
X0094655Y0121256D01*
X0094660Y0121265D02*
X0096790Y0121265D01*
X0096785Y0121273D02*
X0094665Y0121273D01*
X0094671Y0121282D02*
X0096779Y0121282D01*
X0096774Y0121290D02*
X0094676Y0121290D01*
X0094681Y0121299D02*
X0096769Y0121299D01*
X0096763Y0121307D02*
X0094687Y0121307D01*
X0094692Y0121316D02*
X0096758Y0121316D01*
X0096752Y0121325D02*
X0094698Y0121325D01*
X0094703Y0121333D02*
X0096747Y0121333D01*
X0096742Y0121342D02*
X0094708Y0121342D01*
X0094714Y0121350D02*
X0096736Y0121350D01*
X0096731Y0121359D02*
X0094719Y0121359D01*
X0094724Y0121367D02*
X0096726Y0121367D01*
X0096720Y0121376D02*
X0094730Y0121376D01*
X0094735Y0121384D02*
X0096715Y0121384D01*
X0096710Y0121393D02*
X0094740Y0121393D01*
X0094746Y0121401D02*
X0096704Y0121401D01*
X0096697Y0121410D02*
X0094753Y0121410D01*
X0094762Y0121418D02*
X0096688Y0121418D01*
X0096680Y0121427D02*
X0094770Y0121427D01*
X0094779Y0121435D02*
X0096671Y0121435D01*
X0096663Y0121444D02*
X0094787Y0121444D01*
X0094796Y0121452D02*
X0096654Y0121452D01*
X0096646Y0121461D02*
X0094804Y0121461D01*
X0094813Y0121469D02*
X0096637Y0121469D01*
X0096629Y0121478D02*
X0094821Y0121478D01*
X0094830Y0121486D02*
X0096620Y0121486D01*
X0096612Y0121495D02*
X0094838Y0121495D01*
X0094847Y0121503D02*
X0096603Y0121503D01*
X0096595Y0121512D02*
X0094855Y0121512D01*
X0094864Y0121520D02*
X0096586Y0121520D01*
X0096578Y0121529D02*
X0094872Y0121529D01*
X0094881Y0121537D02*
X0096569Y0121537D01*
X0096561Y0121546D02*
X0094889Y0121546D01*
X0094898Y0121554D02*
X0096552Y0121554D01*
X0096544Y0121563D02*
X0094906Y0121563D01*
X0094915Y0121571D02*
X0096535Y0121571D01*
X0096527Y0121580D02*
X0094923Y0121580D01*
X0094932Y0121588D02*
X0096518Y0121588D01*
X0096510Y0121597D02*
X0094940Y0121597D01*
X0094951Y0121605D02*
X0096499Y0121605D01*
X0096486Y0121614D02*
X0094964Y0121614D01*
X0094978Y0121622D02*
X0096472Y0121622D01*
X0096459Y0121631D02*
X0094991Y0121631D01*
X0095005Y0121640D02*
X0096445Y0121640D01*
X0096432Y0121648D02*
X0095018Y0121648D01*
X0095032Y0121657D02*
X0096418Y0121657D01*
X0096404Y0121665D02*
X0095046Y0121665D01*
X0095059Y0121674D02*
X0096391Y0121674D01*
X0096377Y0121682D02*
X0095073Y0121682D01*
X0095086Y0121691D02*
X0096364Y0121691D01*
X0096350Y0121699D02*
X0095100Y0121699D01*
X0095113Y0121708D02*
X0096337Y0121708D01*
X0096323Y0121716D02*
X0095127Y0121716D01*
X0095140Y0121725D02*
X0096310Y0121725D01*
X0096296Y0121733D02*
X0095154Y0121733D01*
X0095167Y0121742D02*
X0096283Y0121742D01*
X0096269Y0121750D02*
X0095181Y0121750D01*
X0095204Y0121759D02*
X0096246Y0121759D01*
X0096222Y0121767D02*
X0095228Y0121767D01*
X0095253Y0121776D02*
X0096197Y0121776D01*
X0096173Y0121784D02*
X0095277Y0121784D01*
X0095301Y0121793D02*
X0096149Y0121793D01*
X0096124Y0121801D02*
X0095326Y0121801D01*
X0095350Y0121810D02*
X0096100Y0121810D01*
X0096076Y0121818D02*
X0095374Y0121818D01*
X0095399Y0121827D02*
X0096051Y0121827D01*
X0096027Y0121835D02*
X0095423Y0121835D01*
X0095448Y0121844D02*
X0096002Y0121844D01*
X0095926Y0121852D02*
X0095524Y0121852D01*
X0095600Y0121861D02*
X0095850Y0121861D01*
X0095775Y0121869D02*
X0095675Y0121869D01*
D18*
X0119931Y0207331D03*
X0363931Y0248169D03*
D19*
X0115974Y0098650D02*
X0115974Y0092350D01*
X0100226Y0092350D02*
X0100226Y0098650D01*
X0077750Y0099626D02*
X0071450Y0099626D01*
X0071450Y0115374D02*
X0077750Y0115374D01*
D20*
X0073339Y0116001D02*
X0073156Y0115818D01*
X0072789Y0115818D01*
X0072605Y0116001D01*
X0072234Y0115818D02*
X0071867Y0116185D01*
X0072051Y0116185D02*
X0071500Y0116185D01*
X0071500Y0115818D02*
X0071500Y0116919D01*
X0072051Y0116919D01*
X0072234Y0116735D01*
X0072234Y0116368D01*
X0072051Y0116185D01*
X0072605Y0116735D02*
X0072789Y0116919D01*
X0073156Y0116919D01*
X0073339Y0116735D01*
X0073339Y0116552D01*
X0073156Y0116368D01*
X0073339Y0116185D01*
X0073339Y0116001D01*
X0073156Y0116368D02*
X0072972Y0116368D01*
X0098681Y0094056D02*
X0098681Y0093689D01*
X0098865Y0093505D01*
X0098865Y0093134D02*
X0099232Y0093134D01*
X0099415Y0092951D01*
X0099415Y0092400D01*
X0099782Y0092400D02*
X0098681Y0092400D01*
X0098681Y0092951D01*
X0098865Y0093134D01*
X0099415Y0092767D02*
X0099782Y0093134D01*
X0099782Y0093505D02*
X0099048Y0094239D01*
X0098865Y0094239D01*
X0098681Y0094056D01*
X0099782Y0094239D02*
X0099782Y0093505D01*
M02*
