G75*
%MOIN*%
%OFA0B0*%
%FSLAX25Y25*%
%IPPOS*%
%LPD*%
%AMOC8*
5,1,8,0,0,1.08239X$1,22.5*
%
%ADD10C,0.06000*%
%ADD11C,0.12400*%
%ADD12C,0.11811*%
%ADD13C,0.12100*%
%ADD14C,0.02953*%
%ADD15C,0.01200*%
%ADD16C,0.03543*%
D10*
X0046600Y0011000D03*
X0056600Y0011000D03*
X0068600Y0011000D03*
X0078600Y0011000D03*
X0090600Y0011000D03*
X0100600Y0011000D03*
X0112600Y0011000D03*
X0122600Y0011000D03*
X0134600Y0011000D03*
X0144600Y0011000D03*
X0154600Y0011000D03*
X0166600Y0011000D03*
X0176600Y0011000D03*
X0186600Y0011000D03*
X0023813Y0036465D03*
X0013813Y0036465D03*
X0013813Y0046465D03*
X0023813Y0046465D03*
X0023813Y0056465D03*
X0013813Y0056465D03*
X0013813Y0066465D03*
X0023813Y0066465D03*
X0023813Y0076465D03*
X0013813Y0076465D03*
X0013813Y0086465D03*
X0023813Y0086465D03*
X0023813Y0096465D03*
X0013813Y0096465D03*
X0013813Y0106465D03*
X0023813Y0106465D03*
X0023813Y0116465D03*
X0013813Y0116465D03*
X0013813Y0126465D03*
X0023813Y0126465D03*
X0023813Y0136465D03*
X0013813Y0136465D03*
X0013813Y0146465D03*
X0023813Y0146465D03*
X0023813Y0156465D03*
X0013813Y0156465D03*
X0013813Y0166465D03*
X0023813Y0166465D03*
X0023813Y0176465D03*
X0013813Y0176465D03*
X0013813Y0186465D03*
X0023813Y0186465D03*
X0023813Y0196465D03*
X0013813Y0196465D03*
X0013813Y0206465D03*
X0023813Y0206465D03*
X0023813Y0216465D03*
X0013813Y0216465D03*
X0013813Y0226465D03*
X0023813Y0226465D03*
X0069100Y0245000D03*
X0079100Y0245000D03*
X0089100Y0245000D03*
X0432600Y0229000D03*
X0432600Y0154000D03*
D11*
X0402694Y0162315D03*
X0388285Y0147906D03*
X0368600Y0142630D03*
X0348915Y0147906D03*
X0334506Y0162315D03*
X0329230Y0182000D03*
X0334506Y0201685D03*
X0348915Y0216094D03*
X0368600Y0221370D03*
X0388285Y0216094D03*
X0402694Y0201685D03*
X0407970Y0182000D03*
X0366510Y0109462D03*
X0379609Y0093850D03*
X0383147Y0073781D03*
X0360566Y0041531D03*
X0340497Y0037992D03*
D12*
X0313600Y0034000D03*
X0293600Y0034000D03*
D13*
X0461100Y0040500D03*
X0461100Y0020500D03*
X0461100Y0064500D03*
X0461100Y0084500D03*
X0462600Y0120000D03*
X0462600Y0140000D03*
X0462600Y0171000D03*
X0462600Y0191000D03*
X0337100Y0285500D03*
X0317100Y0285500D03*
X0295100Y0285500D03*
X0275100Y0285500D03*
X0039600Y0102500D03*
X0039600Y0082500D03*
D14*
X0049100Y0063000D03*
X0059600Y0058000D03*
X0059600Y0054000D03*
X0059600Y0050000D03*
X0063600Y0043000D03*
X0081600Y0050500D03*
X0081600Y0054500D03*
X0081600Y0059000D03*
X0099600Y0072500D03*
X0099600Y0077000D03*
X0115100Y0072500D03*
X0115100Y0068000D03*
X0115100Y0063500D03*
X0103600Y0058500D03*
X0103600Y0054500D03*
X0103600Y0050500D03*
X0107600Y0043000D03*
X0125600Y0050500D03*
X0125600Y0054500D03*
X0125600Y0058500D03*
X0138600Y0062000D03*
X0142600Y0062000D03*
X0146600Y0062000D03*
X0157100Y0062000D03*
X0157100Y0058000D03*
X0157100Y0054000D03*
X0161600Y0044000D03*
X0174600Y0067500D03*
X0180100Y0067500D03*
X0185600Y0067500D03*
X0185600Y0073000D03*
X0176600Y0085500D03*
X0211600Y0097000D03*
X0194600Y0122000D03*
X0190600Y0122000D03*
X0186600Y0122000D03*
X0181600Y0140000D03*
X0193600Y0143000D03*
X0211600Y0156000D03*
X0205100Y0157600D03*
X0201100Y0157600D03*
X0202600Y0177000D03*
X0202600Y0184000D03*
X0202600Y0191000D03*
X0202600Y0198000D03*
X0218600Y0189000D03*
X0211600Y0222000D03*
X0264100Y0235000D03*
X0264100Y0239500D03*
X0264100Y0244000D03*
X0268600Y0244000D03*
X0268600Y0239500D03*
X0268600Y0235000D03*
X0273100Y0235000D03*
X0273100Y0239500D03*
X0273100Y0244000D03*
X0277600Y0244000D03*
X0277600Y0239500D03*
X0277600Y0235000D03*
X0290600Y0209000D03*
X0295600Y0209000D03*
X0300600Y0209000D03*
X0290600Y0189000D03*
X0289600Y0169000D03*
X0294600Y0169000D03*
X0299600Y0169000D03*
X0283600Y0148000D03*
X0287600Y0132000D03*
X0292600Y0114000D03*
X0292600Y0110000D03*
X0305600Y0113000D03*
X0312600Y0113000D03*
X0333600Y0115000D03*
X0333600Y0109500D03*
X0339600Y0109500D03*
X0315600Y0131000D03*
X0315600Y0135000D03*
X0273600Y0111000D03*
X0293600Y0091000D03*
X0292600Y0072000D03*
X0297600Y0072000D03*
X0302600Y0072000D03*
X0293600Y0054000D03*
X0218600Y0052000D03*
X0129600Y0044000D03*
X0085600Y0043000D03*
X0064600Y0029000D03*
X0042600Y0023000D03*
X0041100Y0043000D03*
X0037600Y0050000D03*
X0037600Y0054000D03*
X0075600Y0074500D03*
X0082600Y0103500D03*
X0085600Y0105500D03*
X0089100Y0107500D03*
X0092100Y0109500D03*
X0095600Y0111500D03*
X0100100Y0114000D03*
X0105100Y0114000D03*
X0110100Y0114000D03*
X0115100Y0114000D03*
X0120100Y0114000D03*
X0125100Y0114000D03*
X0129600Y0114000D03*
X0135600Y0114000D03*
X0135100Y0130000D03*
X0135100Y0134000D03*
X0143600Y0137000D03*
X0147600Y0140000D03*
X0119100Y0147500D03*
X0114600Y0147500D03*
X0110100Y0147500D03*
X0105600Y0147500D03*
X0101100Y0147500D03*
X0082600Y0146000D03*
X0137600Y0186000D03*
X0137600Y0192000D03*
X0125600Y0198000D03*
X0107600Y0210000D03*
X0107600Y0214000D03*
X0054100Y0227000D03*
X0039100Y0229500D03*
X0039600Y0209000D03*
X0044100Y0209000D03*
X0218600Y0130000D03*
X0343600Y0254000D03*
X0341600Y0271500D03*
X0402100Y0272500D03*
X0434600Y0248500D03*
X0455600Y0248500D03*
D15*
X0043018Y0007794D02*
X0008493Y0007794D01*
X0008545Y0007741D02*
X0006900Y0009386D01*
X0005737Y0011401D01*
X0005135Y0013648D01*
X0005059Y0014811D01*
X0005059Y0258810D01*
X0005234Y0259476D01*
X0006055Y0261005D01*
X0007308Y0262205D01*
X0008870Y0262959D01*
X0010589Y0263194D01*
X0011227Y0263130D01*
X0011394Y0263060D01*
X0011711Y0263061D01*
X0012023Y0263004D01*
X0012282Y0263061D01*
X0138700Y0263099D01*
X0138700Y0256423D01*
X0139141Y0255357D01*
X0139957Y0254541D01*
X0141023Y0254100D01*
X0227177Y0254100D01*
X0228243Y0254541D01*
X0229058Y0255357D01*
X0229500Y0256423D01*
X0229500Y0263099D01*
X0230005Y0263099D01*
X0230006Y0263099D01*
X0236600Y0263100D01*
X0236600Y0005900D01*
X0013970Y0005900D01*
X0012807Y0005976D01*
X0010560Y0006578D01*
X0008545Y0007741D01*
X0007294Y0008993D02*
X0042236Y0008993D01*
X0042531Y0008281D02*
X0043881Y0006931D01*
X0045645Y0006200D01*
X0047555Y0006200D01*
X0049319Y0006931D01*
X0050669Y0008281D01*
X0051400Y0010045D01*
X0051400Y0011955D01*
X0050669Y0013719D01*
X0049319Y0015069D01*
X0047555Y0015800D01*
X0045645Y0015800D01*
X0043881Y0015069D01*
X0042531Y0013719D01*
X0041800Y0011955D01*
X0041800Y0010045D01*
X0042531Y0008281D01*
X0041800Y0010191D02*
X0021635Y0010191D01*
X0022163Y0010410D02*
X0024277Y0012524D01*
X0025420Y0015285D01*
X0025420Y0018274D01*
X0024277Y0021036D01*
X0022163Y0023149D01*
X0019402Y0024293D01*
X0016413Y0024293D01*
X0013651Y0023149D01*
X0011538Y0021036D01*
X0010394Y0018274D01*
X0010394Y0015285D01*
X0011538Y0012524D01*
X0013651Y0010410D01*
X0016413Y0009266D01*
X0019402Y0009266D01*
X0022163Y0010410D01*
X0023143Y0011390D02*
X0041800Y0011390D01*
X0042062Y0012588D02*
X0024303Y0012588D01*
X0024800Y0013787D02*
X0042598Y0013787D01*
X0043797Y0014985D02*
X0025296Y0014985D01*
X0025420Y0016184D02*
X0203307Y0016184D01*
X0203307Y0015285D02*
X0204451Y0012524D01*
X0206564Y0010410D01*
X0209326Y0009266D01*
X0212315Y0009266D01*
X0215076Y0010410D01*
X0217190Y0012524D01*
X0218334Y0015285D01*
X0218334Y0018274D01*
X0217190Y0021036D01*
X0215076Y0023149D01*
X0212315Y0024293D01*
X0209326Y0024293D01*
X0206564Y0023149D01*
X0204451Y0021036D01*
X0203307Y0018274D01*
X0203307Y0015285D01*
X0203431Y0014985D02*
X0189403Y0014985D01*
X0189319Y0015069D02*
X0187555Y0015800D01*
X0185645Y0015800D01*
X0183881Y0015069D01*
X0182531Y0013719D01*
X0181800Y0011955D01*
X0181800Y0010045D01*
X0182531Y0008281D01*
X0183881Y0006931D01*
X0185645Y0006200D01*
X0187555Y0006200D01*
X0189319Y0006931D01*
X0190669Y0008281D01*
X0191400Y0010045D01*
X0191400Y0011955D01*
X0190669Y0013719D01*
X0189319Y0015069D01*
X0190602Y0013787D02*
X0203928Y0013787D01*
X0204424Y0012588D02*
X0191138Y0012588D01*
X0191400Y0011390D02*
X0205585Y0011390D01*
X0207093Y0010191D02*
X0191400Y0010191D01*
X0190964Y0008993D02*
X0236600Y0008993D01*
X0236600Y0010191D02*
X0214548Y0010191D01*
X0216056Y0011390D02*
X0236600Y0011390D01*
X0236600Y0012588D02*
X0217217Y0012588D01*
X0217713Y0013787D02*
X0236600Y0013787D01*
X0236600Y0014985D02*
X0218210Y0014985D01*
X0218334Y0016184D02*
X0236600Y0016184D01*
X0236600Y0017382D02*
X0218334Y0017382D01*
X0218207Y0018581D02*
X0236600Y0018581D01*
X0236600Y0019779D02*
X0217710Y0019779D01*
X0217214Y0020978D02*
X0236600Y0020978D01*
X0236600Y0022176D02*
X0216049Y0022176D01*
X0214532Y0023375D02*
X0236600Y0023375D01*
X0236600Y0024573D02*
X0045495Y0024573D01*
X0045378Y0024856D02*
X0044456Y0025778D01*
X0043252Y0026276D01*
X0041948Y0026276D01*
X0040744Y0025778D01*
X0039822Y0024856D01*
X0039324Y0023652D01*
X0039324Y0022348D01*
X0039822Y0021144D01*
X0040744Y0020222D01*
X0041948Y0019724D01*
X0043252Y0019724D01*
X0044456Y0020222D01*
X0045378Y0021144D01*
X0045876Y0022348D01*
X0045876Y0023652D01*
X0045378Y0024856D01*
X0044462Y0025772D02*
X0063832Y0025772D01*
X0063948Y0025724D02*
X0065252Y0025724D01*
X0066456Y0026222D01*
X0067378Y0027144D01*
X0067876Y0028348D01*
X0067876Y0029652D01*
X0067378Y0030856D01*
X0066456Y0031778D01*
X0065252Y0032276D01*
X0063948Y0032276D01*
X0062744Y0031778D01*
X0061822Y0030856D01*
X0061324Y0029652D01*
X0061324Y0028348D01*
X0061822Y0027144D01*
X0062744Y0026222D01*
X0063948Y0025724D01*
X0065368Y0025772D02*
X0236600Y0025772D01*
X0236600Y0026970D02*
X0067204Y0026970D01*
X0067802Y0028169D02*
X0236600Y0028169D01*
X0236600Y0029367D02*
X0067876Y0029367D01*
X0067498Y0030566D02*
X0236600Y0030566D01*
X0236600Y0031764D02*
X0066469Y0031764D01*
X0062731Y0031764D02*
X0015008Y0031764D01*
X0014767Y0031665D02*
X0016532Y0032395D01*
X0017882Y0033746D01*
X0018613Y0035510D01*
X0018613Y0037419D01*
X0017882Y0039184D01*
X0016532Y0040534D01*
X0014767Y0041265D01*
X0012858Y0041265D01*
X0011094Y0040534D01*
X0009743Y0039184D01*
X0009013Y0037419D01*
X0009013Y0035510D01*
X0009743Y0033746D01*
X0011094Y0032395D01*
X0012858Y0031665D01*
X0014767Y0031665D01*
X0012617Y0031764D02*
X0005059Y0031764D01*
X0005059Y0030566D02*
X0061702Y0030566D01*
X0061324Y0029367D02*
X0005059Y0029367D01*
X0005059Y0028169D02*
X0061398Y0028169D01*
X0061996Y0026970D02*
X0005059Y0026970D01*
X0005059Y0025772D02*
X0040738Y0025772D01*
X0039705Y0024573D02*
X0005059Y0024573D01*
X0005059Y0023375D02*
X0014196Y0023375D01*
X0012678Y0022176D02*
X0005059Y0022176D01*
X0005059Y0020978D02*
X0011514Y0020978D01*
X0011017Y0019779D02*
X0005059Y0019779D01*
X0005059Y0018581D02*
X0010521Y0018581D01*
X0010394Y0017382D02*
X0005059Y0017382D01*
X0005059Y0016184D02*
X0010394Y0016184D01*
X0010518Y0014985D02*
X0005059Y0014985D01*
X0005126Y0013787D02*
X0011014Y0013787D01*
X0011511Y0012588D02*
X0005419Y0012588D01*
X0005744Y0011390D02*
X0012672Y0011390D01*
X0014180Y0010191D02*
X0006436Y0010191D01*
X0010530Y0006596D02*
X0044690Y0006596D01*
X0048510Y0006596D02*
X0054690Y0006596D01*
X0053881Y0006931D02*
X0055645Y0006200D01*
X0057555Y0006200D01*
X0059319Y0006931D01*
X0060669Y0008281D01*
X0061400Y0010045D01*
X0061400Y0011955D01*
X0060669Y0013719D01*
X0059319Y0015069D01*
X0057555Y0015800D01*
X0055645Y0015800D01*
X0053881Y0015069D01*
X0052531Y0013719D01*
X0051800Y0011955D01*
X0051800Y0010045D01*
X0052531Y0008281D01*
X0053881Y0006931D01*
X0053018Y0007794D02*
X0050182Y0007794D01*
X0050964Y0008993D02*
X0052236Y0008993D01*
X0051800Y0010191D02*
X0051400Y0010191D01*
X0051400Y0011390D02*
X0051800Y0011390D01*
X0052062Y0012588D02*
X0051138Y0012588D01*
X0050602Y0013787D02*
X0052598Y0013787D01*
X0053797Y0014985D02*
X0049403Y0014985D01*
X0043386Y0019779D02*
X0203931Y0019779D01*
X0204427Y0020978D02*
X0045211Y0020978D01*
X0045805Y0022176D02*
X0205592Y0022176D01*
X0207109Y0023375D02*
X0045876Y0023375D01*
X0041814Y0019779D02*
X0024797Y0019779D01*
X0025293Y0018581D02*
X0203434Y0018581D01*
X0203307Y0017382D02*
X0025420Y0017382D01*
X0024301Y0020978D02*
X0039989Y0020978D01*
X0039395Y0022176D02*
X0023136Y0022176D01*
X0021618Y0023375D02*
X0039324Y0023375D01*
X0027321Y0033468D02*
X0027747Y0034054D01*
X0028076Y0034699D01*
X0028299Y0035387D01*
X0028407Y0036065D01*
X0024213Y0036065D01*
X0024213Y0036865D01*
X0023413Y0036865D01*
X0023413Y0041059D01*
X0022735Y0040951D01*
X0022047Y0040728D01*
X0021402Y0040399D01*
X0020816Y0039973D01*
X0020304Y0039461D01*
X0019878Y0038875D01*
X0019550Y0038230D01*
X0019326Y0037542D01*
X0019219Y0036865D01*
X0023413Y0036865D01*
X0023413Y0036065D01*
X0023413Y0036064D02*
X0024213Y0036064D01*
X0024213Y0031871D01*
X0024890Y0031978D01*
X0025578Y0032202D01*
X0026224Y0032530D01*
X0026809Y0032956D01*
X0027321Y0033468D01*
X0026816Y0032963D02*
X0236600Y0032963D01*
X0236600Y0034161D02*
X0027802Y0034161D01*
X0028290Y0035360D02*
X0236600Y0035360D01*
X0236600Y0036558D02*
X0024213Y0036558D01*
X0024213Y0036865D02*
X0028407Y0036865D01*
X0028299Y0037542D01*
X0028076Y0038230D01*
X0027747Y0038875D01*
X0027321Y0039461D01*
X0026809Y0039973D01*
X0026224Y0040399D01*
X0025578Y0040728D01*
X0024890Y0040951D01*
X0024213Y0041059D01*
X0024213Y0036865D01*
X0023413Y0036558D02*
X0018613Y0036558D01*
X0019219Y0036065D02*
X0019326Y0035387D01*
X0019550Y0034699D01*
X0019878Y0034054D01*
X0020304Y0033468D01*
X0020816Y0032956D01*
X0021402Y0032530D01*
X0022047Y0032202D01*
X0022735Y0031978D01*
X0023413Y0031871D01*
X0023413Y0036064D01*
X0023413Y0036065D02*
X0019219Y0036065D01*
X0019335Y0035360D02*
X0018550Y0035360D01*
X0018054Y0034161D02*
X0019823Y0034161D01*
X0020809Y0032963D02*
X0017099Y0032963D01*
X0023413Y0032963D02*
X0024213Y0032963D01*
X0024213Y0034161D02*
X0023413Y0034161D01*
X0023413Y0035360D02*
X0024213Y0035360D01*
X0024213Y0037757D02*
X0023413Y0037757D01*
X0023413Y0038955D02*
X0024213Y0038955D01*
X0024213Y0040154D02*
X0023413Y0040154D01*
X0022858Y0041665D02*
X0024767Y0041665D01*
X0026532Y0042395D01*
X0027882Y0043746D01*
X0028613Y0045510D01*
X0028613Y0047419D01*
X0027882Y0049184D01*
X0026532Y0050534D01*
X0024767Y0051265D01*
X0022858Y0051265D01*
X0021094Y0050534D01*
X0019743Y0049184D01*
X0019013Y0047419D01*
X0019013Y0045510D01*
X0019743Y0043746D01*
X0021094Y0042395D01*
X0022858Y0041665D01*
X0020938Y0042551D02*
X0016687Y0042551D01*
X0016532Y0042395D02*
X0017882Y0043746D01*
X0018613Y0045510D01*
X0018613Y0047419D01*
X0017882Y0049184D01*
X0016532Y0050534D01*
X0014767Y0051265D01*
X0012858Y0051265D01*
X0011094Y0050534D01*
X0009743Y0049184D01*
X0009013Y0047419D01*
X0009013Y0045510D01*
X0009743Y0043746D01*
X0011094Y0042395D01*
X0012858Y0041665D01*
X0014767Y0041665D01*
X0016532Y0042395D01*
X0017883Y0043749D02*
X0019742Y0043749D01*
X0019245Y0044948D02*
X0018380Y0044948D01*
X0018613Y0046146D02*
X0019013Y0046146D01*
X0019013Y0047345D02*
X0018613Y0047345D01*
X0018147Y0048543D02*
X0019478Y0048543D01*
X0020302Y0049742D02*
X0017323Y0049742D01*
X0015550Y0050940D02*
X0022075Y0050940D01*
X0022858Y0051665D02*
X0024767Y0051665D01*
X0026532Y0052395D01*
X0027882Y0053746D01*
X0028613Y0055510D01*
X0028613Y0057419D01*
X0027882Y0059184D01*
X0026532Y0060534D01*
X0024767Y0061265D01*
X0022858Y0061265D01*
X0021094Y0060534D01*
X0019743Y0059184D01*
X0019013Y0057419D01*
X0019013Y0055510D01*
X0019743Y0053746D01*
X0021094Y0052395D01*
X0022858Y0051665D01*
X0021713Y0052139D02*
X0015913Y0052139D01*
X0016532Y0052395D02*
X0017882Y0053746D01*
X0018613Y0055510D01*
X0018613Y0057419D01*
X0017882Y0059184D01*
X0016532Y0060534D01*
X0014767Y0061265D01*
X0012858Y0061265D01*
X0011094Y0060534D01*
X0009743Y0059184D01*
X0009013Y0057419D01*
X0009013Y0055510D01*
X0009743Y0053746D01*
X0011094Y0052395D01*
X0012858Y0051665D01*
X0014767Y0051665D01*
X0016532Y0052395D01*
X0017474Y0053337D02*
X0020151Y0053337D01*
X0019416Y0054536D02*
X0018209Y0054536D01*
X0018613Y0055734D02*
X0019013Y0055734D01*
X0019013Y0056933D02*
X0018613Y0056933D01*
X0018318Y0058132D02*
X0019308Y0058132D01*
X0019890Y0059330D02*
X0017735Y0059330D01*
X0016537Y0060529D02*
X0021088Y0060529D01*
X0021094Y0062395D02*
X0022858Y0061665D01*
X0024767Y0061665D01*
X0026532Y0062395D01*
X0027882Y0063746D01*
X0028613Y0065510D01*
X0028613Y0067419D01*
X0027882Y0069184D01*
X0026532Y0070534D01*
X0024767Y0071265D01*
X0022858Y0071265D01*
X0021094Y0070534D01*
X0019743Y0069184D01*
X0019013Y0067419D01*
X0019013Y0065510D01*
X0019743Y0063746D01*
X0021094Y0062395D01*
X0020563Y0062926D02*
X0017062Y0062926D01*
X0016532Y0062395D02*
X0017882Y0063746D01*
X0018613Y0065510D01*
X0018613Y0067419D01*
X0017882Y0069184D01*
X0016532Y0070534D01*
X0014767Y0071265D01*
X0012858Y0071265D01*
X0011094Y0070534D01*
X0009743Y0069184D01*
X0009013Y0067419D01*
X0009013Y0065510D01*
X0009743Y0063746D01*
X0011094Y0062395D01*
X0012858Y0061665D01*
X0014767Y0061665D01*
X0016532Y0062395D01*
X0014918Y0061727D02*
X0022707Y0061727D01*
X0024918Y0061727D02*
X0046081Y0061727D01*
X0046322Y0061144D02*
X0047244Y0060222D01*
X0048448Y0059724D01*
X0049752Y0059724D01*
X0050956Y0060222D01*
X0051878Y0061144D01*
X0052376Y0062348D01*
X0052376Y0063652D01*
X0051878Y0064856D01*
X0050956Y0065778D01*
X0049752Y0066276D01*
X0048448Y0066276D01*
X0047244Y0065778D01*
X0046322Y0064856D01*
X0045824Y0063652D01*
X0045824Y0062348D01*
X0046322Y0061144D01*
X0046938Y0060529D02*
X0026537Y0060529D01*
X0027735Y0059330D02*
X0056605Y0059330D01*
X0056822Y0059856D02*
X0056324Y0058652D01*
X0056324Y0057348D01*
X0056822Y0056144D01*
X0056966Y0056000D01*
X0056822Y0055856D01*
X0056324Y0054652D01*
X0056324Y0053348D01*
X0056822Y0052144D01*
X0056966Y0052000D01*
X0056822Y0051856D01*
X0056324Y0050652D01*
X0056324Y0049348D01*
X0056822Y0048144D01*
X0057744Y0047222D01*
X0058948Y0046724D01*
X0060252Y0046724D01*
X0061456Y0047222D01*
X0062378Y0048144D01*
X0062876Y0049348D01*
X0062876Y0050652D01*
X0062378Y0051856D01*
X0062233Y0052000D01*
X0062378Y0052144D01*
X0062876Y0053348D01*
X0062876Y0054652D01*
X0062378Y0055856D01*
X0062233Y0056000D01*
X0062378Y0056144D01*
X0062876Y0057348D01*
X0062876Y0058652D01*
X0062378Y0059856D01*
X0061456Y0060778D01*
X0060252Y0061276D01*
X0058948Y0061276D01*
X0057744Y0060778D01*
X0056822Y0059856D01*
X0057495Y0060529D02*
X0051262Y0060529D01*
X0052119Y0061727D02*
X0079694Y0061727D01*
X0079744Y0061778D02*
X0078822Y0060856D01*
X0078324Y0059652D01*
X0078324Y0058348D01*
X0078822Y0057144D01*
X0079216Y0056750D01*
X0078822Y0056356D01*
X0078324Y0055152D01*
X0078324Y0053848D01*
X0078822Y0052644D01*
X0078966Y0052500D01*
X0078822Y0052356D01*
X0078324Y0051152D01*
X0078324Y0049848D01*
X0078822Y0048644D01*
X0079744Y0047722D01*
X0080948Y0047224D01*
X0082252Y0047224D01*
X0083456Y0047722D01*
X0084378Y0048644D01*
X0084876Y0049848D01*
X0084876Y0051152D01*
X0084378Y0052356D01*
X0084233Y0052500D01*
X0084378Y0052644D01*
X0084876Y0053848D01*
X0084876Y0055152D01*
X0084378Y0056356D01*
X0083983Y0056750D01*
X0084378Y0057144D01*
X0084876Y0058348D01*
X0084876Y0059652D01*
X0084378Y0060856D01*
X0083456Y0061778D01*
X0082252Y0062276D01*
X0080948Y0062276D01*
X0079744Y0061778D01*
X0078687Y0060529D02*
X0061705Y0060529D01*
X0062595Y0059330D02*
X0078324Y0059330D01*
X0078413Y0058132D02*
X0062876Y0058132D01*
X0062704Y0056933D02*
X0079033Y0056933D01*
X0078565Y0055734D02*
X0062428Y0055734D01*
X0062876Y0054536D02*
X0078324Y0054536D01*
X0078535Y0053337D02*
X0062872Y0053337D01*
X0062372Y0052139D02*
X0078733Y0052139D01*
X0078324Y0050940D02*
X0062757Y0050940D01*
X0062876Y0049742D02*
X0078368Y0049742D01*
X0078923Y0048543D02*
X0062543Y0048543D01*
X0061578Y0047345D02*
X0080655Y0047345D01*
X0082545Y0047345D02*
X0102655Y0047345D01*
X0102948Y0047224D02*
X0104252Y0047224D01*
X0105456Y0047722D01*
X0106378Y0048644D01*
X0106876Y0049848D01*
X0106876Y0051152D01*
X0106378Y0052356D01*
X0106233Y0052500D01*
X0106378Y0052644D01*
X0106876Y0053848D01*
X0106876Y0055152D01*
X0106378Y0056356D01*
X0106233Y0056500D01*
X0106378Y0056644D01*
X0106876Y0057848D01*
X0106876Y0059152D01*
X0106378Y0060356D01*
X0105456Y0061278D01*
X0104252Y0061776D01*
X0102948Y0061776D01*
X0101744Y0061278D01*
X0100822Y0060356D01*
X0100324Y0059152D01*
X0100324Y0057848D01*
X0100822Y0056644D01*
X0100966Y0056500D01*
X0100822Y0056356D01*
X0100324Y0055152D01*
X0100324Y0053848D01*
X0100822Y0052644D01*
X0100966Y0052500D01*
X0100822Y0052356D01*
X0100324Y0051152D01*
X0100324Y0049848D01*
X0100822Y0048644D01*
X0101744Y0047722D01*
X0102948Y0047224D01*
X0104545Y0047345D02*
X0124655Y0047345D01*
X0124948Y0047224D02*
X0126252Y0047224D01*
X0127456Y0047722D01*
X0128378Y0048644D01*
X0128876Y0049848D01*
X0128876Y0051152D01*
X0128378Y0052356D01*
X0128233Y0052500D01*
X0128378Y0052644D01*
X0128876Y0053848D01*
X0128876Y0055152D01*
X0128378Y0056356D01*
X0128233Y0056500D01*
X0128378Y0056644D01*
X0128876Y0057848D01*
X0128876Y0059152D01*
X0128378Y0060356D01*
X0127456Y0061278D01*
X0126252Y0061776D01*
X0124948Y0061776D01*
X0123744Y0061278D01*
X0122822Y0060356D01*
X0122324Y0059152D01*
X0122324Y0057848D01*
X0122822Y0056644D01*
X0122966Y0056500D01*
X0122822Y0056356D01*
X0122324Y0055152D01*
X0122324Y0053848D01*
X0122822Y0052644D01*
X0122966Y0052500D01*
X0122822Y0052356D01*
X0122324Y0051152D01*
X0122324Y0049848D01*
X0122822Y0048644D01*
X0123744Y0047722D01*
X0124948Y0047224D01*
X0126545Y0047345D02*
X0236600Y0047345D01*
X0236600Y0048543D02*
X0128277Y0048543D01*
X0128832Y0049742D02*
X0236600Y0049742D01*
X0236600Y0050940D02*
X0158275Y0050940D01*
X0157752Y0050724D02*
X0158956Y0051222D01*
X0159878Y0052144D01*
X0160376Y0053348D01*
X0160376Y0054652D01*
X0159878Y0055856D01*
X0159733Y0056000D01*
X0159878Y0056144D01*
X0160376Y0057348D01*
X0160376Y0058652D01*
X0159878Y0059856D01*
X0159733Y0060000D01*
X0159878Y0060144D01*
X0160376Y0061348D01*
X0160376Y0062652D01*
X0159878Y0063856D01*
X0158956Y0064778D01*
X0157752Y0065276D01*
X0156448Y0065276D01*
X0155244Y0064778D01*
X0154322Y0063856D01*
X0153824Y0062652D01*
X0153824Y0061348D01*
X0154322Y0060144D01*
X0154466Y0060000D01*
X0154322Y0059856D01*
X0153824Y0058652D01*
X0153824Y0057348D01*
X0154322Y0056144D01*
X0154466Y0056000D01*
X0154322Y0055856D01*
X0153824Y0054652D01*
X0153824Y0053348D01*
X0154322Y0052144D01*
X0155244Y0051222D01*
X0156448Y0050724D01*
X0157752Y0050724D01*
X0155925Y0050940D02*
X0128876Y0050940D01*
X0128467Y0052139D02*
X0154328Y0052139D01*
X0153828Y0053337D02*
X0128665Y0053337D01*
X0128876Y0054536D02*
X0153824Y0054536D01*
X0154272Y0055734D02*
X0128635Y0055734D01*
X0128497Y0056933D02*
X0153996Y0056933D01*
X0153824Y0058132D02*
X0128876Y0058132D01*
X0128803Y0059330D02*
X0136636Y0059330D01*
X0136744Y0059222D02*
X0137948Y0058724D01*
X0139252Y0058724D01*
X0140456Y0059222D01*
X0140600Y0059366D01*
X0140744Y0059222D01*
X0141948Y0058724D01*
X0143252Y0058724D01*
X0144456Y0059222D01*
X0144600Y0059366D01*
X0144744Y0059222D01*
X0145948Y0058724D01*
X0147252Y0058724D01*
X0148456Y0059222D01*
X0149378Y0060144D01*
X0149876Y0061348D01*
X0149876Y0062652D01*
X0149378Y0063856D01*
X0148456Y0064778D01*
X0147252Y0065276D01*
X0145948Y0065276D01*
X0144744Y0064778D01*
X0144600Y0064633D01*
X0144456Y0064778D01*
X0143252Y0065276D01*
X0141948Y0065276D01*
X0140744Y0064778D01*
X0140600Y0064633D01*
X0140456Y0064778D01*
X0139252Y0065276D01*
X0137948Y0065276D01*
X0136744Y0064778D01*
X0135822Y0063856D01*
X0135324Y0062652D01*
X0135324Y0061348D01*
X0135822Y0060144D01*
X0136744Y0059222D01*
X0135663Y0060529D02*
X0128205Y0060529D01*
X0126371Y0061727D02*
X0135324Y0061727D01*
X0135437Y0062926D02*
X0118376Y0062926D01*
X0118376Y0062848D02*
X0118376Y0064152D01*
X0117878Y0065356D01*
X0117483Y0065750D01*
X0117878Y0066144D01*
X0118376Y0067348D01*
X0118376Y0068652D01*
X0117878Y0069856D01*
X0117483Y0070250D01*
X0117878Y0070644D01*
X0118376Y0071848D01*
X0118376Y0073152D01*
X0117878Y0074356D01*
X0116956Y0075278D01*
X0115752Y0075776D01*
X0114448Y0075776D01*
X0113244Y0075278D01*
X0112322Y0074356D01*
X0111824Y0073152D01*
X0111824Y0071848D01*
X0112322Y0070644D01*
X0112716Y0070250D01*
X0112322Y0069856D01*
X0111824Y0068652D01*
X0111824Y0067348D01*
X0112322Y0066144D01*
X0112716Y0065750D01*
X0112322Y0065356D01*
X0111824Y0064152D01*
X0111824Y0062848D01*
X0112322Y0061644D01*
X0113244Y0060722D01*
X0114448Y0060224D01*
X0115752Y0060224D01*
X0116956Y0060722D01*
X0117878Y0061644D01*
X0118376Y0062848D01*
X0117912Y0061727D02*
X0124829Y0061727D01*
X0122995Y0060529D02*
X0116488Y0060529D01*
X0113712Y0060529D02*
X0106205Y0060529D01*
X0106803Y0059330D02*
X0122397Y0059330D01*
X0122324Y0058132D02*
X0106876Y0058132D01*
X0106497Y0056933D02*
X0122703Y0056933D01*
X0122565Y0055734D02*
X0106635Y0055734D01*
X0106876Y0054536D02*
X0122324Y0054536D01*
X0122535Y0053337D02*
X0106665Y0053337D01*
X0106467Y0052139D02*
X0122733Y0052139D01*
X0122324Y0050940D02*
X0106876Y0050940D01*
X0106832Y0049742D02*
X0122368Y0049742D01*
X0122923Y0048543D02*
X0106277Y0048543D01*
X0106948Y0046276D02*
X0105744Y0045778D01*
X0104822Y0044856D01*
X0104324Y0043652D01*
X0104324Y0042348D01*
X0104822Y0041144D01*
X0105744Y0040222D01*
X0106948Y0039724D01*
X0108252Y0039724D01*
X0109456Y0040222D01*
X0110378Y0041144D01*
X0110876Y0042348D01*
X0110876Y0043652D01*
X0110378Y0044856D01*
X0109456Y0045778D01*
X0108252Y0046276D01*
X0106948Y0046276D01*
X0106635Y0046146D02*
X0086565Y0046146D01*
X0086252Y0046276D02*
X0087456Y0045778D01*
X0088378Y0044856D01*
X0088876Y0043652D01*
X0088876Y0042348D01*
X0088378Y0041144D01*
X0087456Y0040222D01*
X0086252Y0039724D01*
X0084948Y0039724D01*
X0083744Y0040222D01*
X0082822Y0041144D01*
X0082324Y0042348D01*
X0082324Y0043652D01*
X0082822Y0044856D01*
X0083744Y0045778D01*
X0084948Y0046276D01*
X0086252Y0046276D01*
X0084635Y0046146D02*
X0064565Y0046146D01*
X0064252Y0046276D02*
X0062948Y0046276D01*
X0061744Y0045778D01*
X0060822Y0044856D01*
X0060324Y0043652D01*
X0060324Y0042348D01*
X0060822Y0041144D01*
X0061744Y0040222D01*
X0062948Y0039724D01*
X0064252Y0039724D01*
X0065456Y0040222D01*
X0066378Y0041144D01*
X0066876Y0042348D01*
X0066876Y0043652D01*
X0066378Y0044856D01*
X0065456Y0045778D01*
X0064252Y0046276D01*
X0062635Y0046146D02*
X0042065Y0046146D01*
X0041752Y0046276D02*
X0040448Y0046276D01*
X0039244Y0045778D01*
X0038322Y0044856D01*
X0037824Y0043652D01*
X0037824Y0042348D01*
X0038322Y0041144D01*
X0039244Y0040222D01*
X0040448Y0039724D01*
X0041752Y0039724D01*
X0042956Y0040222D01*
X0043878Y0041144D01*
X0044376Y0042348D01*
X0044376Y0043652D01*
X0043878Y0044856D01*
X0042956Y0045778D01*
X0041752Y0046276D01*
X0040135Y0046146D02*
X0028613Y0046146D01*
X0028613Y0047345D02*
X0035622Y0047345D01*
X0035744Y0047222D02*
X0036948Y0046724D01*
X0038252Y0046724D01*
X0039456Y0047222D01*
X0040378Y0048144D01*
X0040876Y0049348D01*
X0040876Y0050652D01*
X0040378Y0051856D01*
X0040233Y0052000D01*
X0040378Y0052144D01*
X0040876Y0053348D01*
X0040876Y0054652D01*
X0040378Y0055856D01*
X0039456Y0056778D01*
X0038252Y0057276D01*
X0036948Y0057276D01*
X0035744Y0056778D01*
X0034822Y0055856D01*
X0034324Y0054652D01*
X0034324Y0053348D01*
X0034822Y0052144D01*
X0034966Y0052000D01*
X0034822Y0051856D01*
X0034324Y0050652D01*
X0034324Y0049348D01*
X0034822Y0048144D01*
X0035744Y0047222D01*
X0034657Y0048543D02*
X0028147Y0048543D01*
X0027323Y0049742D02*
X0034324Y0049742D01*
X0034443Y0050940D02*
X0025550Y0050940D01*
X0025913Y0052139D02*
X0034828Y0052139D01*
X0034328Y0053337D02*
X0027474Y0053337D01*
X0028209Y0054536D02*
X0034324Y0054536D01*
X0034772Y0055734D02*
X0028613Y0055734D01*
X0028613Y0056933D02*
X0036119Y0056933D01*
X0039081Y0056933D02*
X0056496Y0056933D01*
X0056324Y0058132D02*
X0028318Y0058132D01*
X0027062Y0062926D02*
X0045824Y0062926D01*
X0046019Y0064124D02*
X0028039Y0064124D01*
X0028535Y0065323D02*
X0046789Y0065323D01*
X0051411Y0065323D02*
X0112309Y0065323D01*
X0112166Y0066521D02*
X0028613Y0066521D01*
X0028488Y0067720D02*
X0111824Y0067720D01*
X0111934Y0068918D02*
X0027992Y0068918D01*
X0026949Y0070117D02*
X0097350Y0070117D01*
X0097744Y0069722D02*
X0098948Y0069224D01*
X0100252Y0069224D01*
X0101456Y0069722D01*
X0102378Y0070644D01*
X0102876Y0071848D01*
X0102876Y0073152D01*
X0102378Y0074356D01*
X0101983Y0074750D01*
X0102378Y0075144D01*
X0102876Y0076348D01*
X0102876Y0077652D01*
X0102378Y0078856D01*
X0101456Y0079778D01*
X0100252Y0080276D01*
X0098948Y0080276D01*
X0097744Y0079778D01*
X0096822Y0078856D01*
X0096324Y0077652D01*
X0096324Y0076348D01*
X0096822Y0075144D01*
X0097216Y0074750D01*
X0096822Y0074356D01*
X0096324Y0073152D01*
X0096324Y0071848D01*
X0096822Y0070644D01*
X0097744Y0069722D01*
X0096544Y0071315D02*
X0076473Y0071315D01*
X0076252Y0071224D02*
X0077456Y0071722D01*
X0078378Y0072644D01*
X0078876Y0073848D01*
X0078876Y0075152D01*
X0078378Y0076356D01*
X0077456Y0077278D01*
X0076252Y0077776D01*
X0074948Y0077776D01*
X0073744Y0077278D01*
X0072822Y0076356D01*
X0072324Y0075152D01*
X0072324Y0073848D01*
X0072822Y0072644D01*
X0073744Y0071722D01*
X0074948Y0071224D01*
X0076252Y0071224D01*
X0074727Y0071315D02*
X0005059Y0071315D01*
X0005059Y0070117D02*
X0010676Y0070117D01*
X0009633Y0068918D02*
X0005059Y0068918D01*
X0005059Y0067720D02*
X0009137Y0067720D01*
X0009013Y0066521D02*
X0005059Y0066521D01*
X0005059Y0065323D02*
X0009090Y0065323D01*
X0009587Y0064124D02*
X0005059Y0064124D01*
X0005059Y0062926D02*
X0010563Y0062926D01*
X0011088Y0060529D02*
X0005059Y0060529D01*
X0005059Y0061727D02*
X0012707Y0061727D01*
X0009890Y0059330D02*
X0005059Y0059330D01*
X0005059Y0058132D02*
X0009308Y0058132D01*
X0009013Y0056933D02*
X0005059Y0056933D01*
X0005059Y0055734D02*
X0009013Y0055734D01*
X0009416Y0054536D02*
X0005059Y0054536D01*
X0005059Y0053337D02*
X0010151Y0053337D01*
X0011713Y0052139D02*
X0005059Y0052139D01*
X0005059Y0050940D02*
X0012075Y0050940D01*
X0010302Y0049742D02*
X0005059Y0049742D01*
X0005059Y0048543D02*
X0009478Y0048543D01*
X0009013Y0047345D02*
X0005059Y0047345D01*
X0005059Y0046146D02*
X0009013Y0046146D01*
X0009245Y0044948D02*
X0005059Y0044948D01*
X0005059Y0043749D02*
X0009742Y0043749D01*
X0010938Y0042551D02*
X0005059Y0042551D01*
X0005059Y0041352D02*
X0038236Y0041352D01*
X0037824Y0042551D02*
X0026687Y0042551D01*
X0027883Y0043749D02*
X0037864Y0043749D01*
X0038414Y0044948D02*
X0028380Y0044948D01*
X0026561Y0040154D02*
X0039410Y0040154D01*
X0042790Y0040154D02*
X0061910Y0040154D01*
X0060736Y0041352D02*
X0043964Y0041352D01*
X0044376Y0042551D02*
X0060324Y0042551D01*
X0060364Y0043749D02*
X0044336Y0043749D01*
X0043786Y0044948D02*
X0060914Y0044948D01*
X0057622Y0047345D02*
X0039578Y0047345D01*
X0040543Y0048543D02*
X0056657Y0048543D01*
X0056324Y0049742D02*
X0040876Y0049742D01*
X0040757Y0050940D02*
X0056443Y0050940D01*
X0056828Y0052139D02*
X0040372Y0052139D01*
X0040872Y0053337D02*
X0056328Y0053337D01*
X0056324Y0054536D02*
X0040876Y0054536D01*
X0040428Y0055734D02*
X0056772Y0055734D01*
X0052376Y0062926D02*
X0111824Y0062926D01*
X0111824Y0064124D02*
X0052181Y0064124D01*
X0044047Y0075845D02*
X0041161Y0074650D01*
X0038039Y0074650D01*
X0035153Y0075845D01*
X0032945Y0078053D01*
X0031750Y0080939D01*
X0031750Y0084061D01*
X0032945Y0086947D01*
X0035153Y0089155D01*
X0038039Y0090350D01*
X0041161Y0090350D01*
X0044047Y0089155D01*
X0046255Y0086947D01*
X0047450Y0084061D01*
X0047450Y0080939D01*
X0046255Y0078053D01*
X0044047Y0075845D01*
X0044311Y0076109D02*
X0072720Y0076109D01*
X0072324Y0074911D02*
X0041791Y0074911D01*
X0037409Y0074911D02*
X0028364Y0074911D01*
X0028613Y0075510D02*
X0027882Y0073746D01*
X0026532Y0072395D01*
X0024767Y0071665D01*
X0022858Y0071665D01*
X0021094Y0072395D01*
X0019743Y0073746D01*
X0019013Y0075510D01*
X0019013Y0077419D01*
X0019743Y0079184D01*
X0021094Y0080534D01*
X0022858Y0081265D01*
X0024767Y0081265D01*
X0026532Y0080534D01*
X0027882Y0079184D01*
X0028613Y0077419D01*
X0028613Y0075510D01*
X0028613Y0076109D02*
X0034889Y0076109D01*
X0033691Y0077308D02*
X0028613Y0077308D01*
X0028162Y0078506D02*
X0032757Y0078506D01*
X0032261Y0079705D02*
X0027361Y0079705D01*
X0025640Y0080903D02*
X0031765Y0080903D01*
X0031750Y0082102D02*
X0025823Y0082102D01*
X0026532Y0082395D02*
X0027882Y0083746D01*
X0028613Y0085510D01*
X0028613Y0087419D01*
X0027882Y0089184D01*
X0026532Y0090534D01*
X0024767Y0091265D01*
X0022858Y0091265D01*
X0021094Y0090534D01*
X0019743Y0089184D01*
X0019013Y0087419D01*
X0019013Y0085510D01*
X0019743Y0083746D01*
X0021094Y0082395D01*
X0022858Y0081665D01*
X0024767Y0081665D01*
X0026532Y0082395D01*
X0027437Y0083300D02*
X0031750Y0083300D01*
X0031931Y0084499D02*
X0028194Y0084499D01*
X0028613Y0085697D02*
X0032428Y0085697D01*
X0032924Y0086896D02*
X0028613Y0086896D01*
X0028333Y0088094D02*
X0034093Y0088094D01*
X0035486Y0089293D02*
X0027773Y0089293D01*
X0026574Y0090491D02*
X0236600Y0090491D01*
X0236600Y0089293D02*
X0043714Y0089293D01*
X0045107Y0088094D02*
X0174561Y0088094D01*
X0174744Y0088278D02*
X0173822Y0087356D01*
X0173324Y0086152D01*
X0173324Y0084848D01*
X0173822Y0083644D01*
X0174744Y0082722D01*
X0175948Y0082224D01*
X0177252Y0082224D01*
X0178456Y0082722D01*
X0179378Y0083644D01*
X0179876Y0084848D01*
X0179876Y0086152D01*
X0179378Y0087356D01*
X0178456Y0088278D01*
X0177252Y0088776D01*
X0175948Y0088776D01*
X0174744Y0088278D01*
X0173632Y0086896D02*
X0046276Y0086896D01*
X0046772Y0085697D02*
X0173324Y0085697D01*
X0173468Y0084499D02*
X0047269Y0084499D01*
X0047450Y0083300D02*
X0174166Y0083300D01*
X0179034Y0083300D02*
X0236600Y0083300D01*
X0236600Y0082102D02*
X0047450Y0082102D01*
X0047435Y0080903D02*
X0236600Y0080903D01*
X0236600Y0079705D02*
X0101529Y0079705D01*
X0102522Y0078506D02*
X0236600Y0078506D01*
X0236600Y0077308D02*
X0102876Y0077308D01*
X0102777Y0076109D02*
X0184545Y0076109D01*
X0184948Y0076276D02*
X0183744Y0075778D01*
X0182822Y0074856D01*
X0182324Y0073652D01*
X0182324Y0072348D01*
X0182822Y0071144D01*
X0183716Y0070250D01*
X0182850Y0069383D01*
X0181956Y0070278D01*
X0180752Y0070776D01*
X0179448Y0070776D01*
X0178244Y0070278D01*
X0177350Y0069383D01*
X0176456Y0070278D01*
X0175252Y0070776D01*
X0173948Y0070776D01*
X0172744Y0070278D01*
X0171822Y0069356D01*
X0171324Y0068152D01*
X0171324Y0066848D01*
X0171822Y0065644D01*
X0172744Y0064722D01*
X0173948Y0064224D01*
X0175252Y0064224D01*
X0176456Y0064722D01*
X0177350Y0065616D01*
X0178244Y0064722D01*
X0179448Y0064224D01*
X0180752Y0064224D01*
X0181956Y0064722D01*
X0182850Y0065616D01*
X0183744Y0064722D01*
X0184948Y0064224D01*
X0186252Y0064224D01*
X0187456Y0064722D01*
X0188378Y0065644D01*
X0188876Y0066848D01*
X0188876Y0068152D01*
X0188378Y0069356D01*
X0187483Y0070250D01*
X0188378Y0071144D01*
X0188876Y0072348D01*
X0188876Y0073652D01*
X0188378Y0074856D01*
X0187456Y0075778D01*
X0186252Y0076276D01*
X0184948Y0076276D01*
X0186655Y0076109D02*
X0236600Y0076109D01*
X0236600Y0074911D02*
X0188323Y0074911D01*
X0188851Y0073712D02*
X0236600Y0073712D01*
X0236600Y0072514D02*
X0188876Y0072514D01*
X0188448Y0071315D02*
X0236600Y0071315D01*
X0236600Y0070117D02*
X0187617Y0070117D01*
X0188559Y0068918D02*
X0236600Y0068918D01*
X0236600Y0067720D02*
X0188876Y0067720D01*
X0188741Y0066521D02*
X0236600Y0066521D01*
X0236600Y0065323D02*
X0188056Y0065323D01*
X0183144Y0065323D02*
X0182556Y0065323D01*
X0182117Y0070117D02*
X0183583Y0070117D01*
X0182752Y0071315D02*
X0118156Y0071315D01*
X0118376Y0072514D02*
X0182324Y0072514D01*
X0182349Y0073712D02*
X0118144Y0073712D01*
X0117323Y0074911D02*
X0182877Y0074911D01*
X0178083Y0070117D02*
X0176617Y0070117D01*
X0172583Y0070117D02*
X0117617Y0070117D01*
X0118266Y0068918D02*
X0171641Y0068918D01*
X0171324Y0067720D02*
X0118376Y0067720D01*
X0118034Y0066521D02*
X0171459Y0066521D01*
X0172144Y0065323D02*
X0117891Y0065323D01*
X0118376Y0064124D02*
X0136091Y0064124D01*
X0140564Y0059330D02*
X0140636Y0059330D01*
X0144564Y0059330D02*
X0144636Y0059330D01*
X0148564Y0059330D02*
X0154105Y0059330D01*
X0154163Y0060529D02*
X0149537Y0060529D01*
X0149876Y0061727D02*
X0153824Y0061727D01*
X0153937Y0062926D02*
X0149763Y0062926D01*
X0149109Y0064124D02*
X0154591Y0064124D01*
X0159609Y0064124D02*
X0236600Y0064124D01*
X0236600Y0062926D02*
X0160263Y0062926D01*
X0160376Y0061727D02*
X0236600Y0061727D01*
X0236600Y0060529D02*
X0160037Y0060529D01*
X0160095Y0059330D02*
X0236600Y0059330D01*
X0236600Y0058132D02*
X0160376Y0058132D01*
X0160204Y0056933D02*
X0236600Y0056933D01*
X0236600Y0055734D02*
X0159928Y0055734D01*
X0160376Y0054536D02*
X0236600Y0054536D01*
X0236600Y0053337D02*
X0160372Y0053337D01*
X0159872Y0052139D02*
X0236600Y0052139D01*
X0236600Y0046146D02*
X0164087Y0046146D01*
X0164378Y0045856D02*
X0163456Y0046778D01*
X0162252Y0047276D01*
X0160948Y0047276D01*
X0159744Y0046778D01*
X0158822Y0045856D01*
X0158324Y0044652D01*
X0158324Y0043348D01*
X0158822Y0042144D01*
X0159744Y0041222D01*
X0160948Y0040724D01*
X0162252Y0040724D01*
X0163456Y0041222D01*
X0164378Y0042144D01*
X0164876Y0043348D01*
X0164876Y0044652D01*
X0164378Y0045856D01*
X0164754Y0044948D02*
X0236600Y0044948D01*
X0236600Y0043749D02*
X0164876Y0043749D01*
X0164546Y0042551D02*
X0236600Y0042551D01*
X0236600Y0041352D02*
X0163586Y0041352D01*
X0159614Y0041352D02*
X0131586Y0041352D01*
X0131456Y0041222D02*
X0132378Y0042144D01*
X0132876Y0043348D01*
X0132876Y0044652D01*
X0132378Y0045856D01*
X0131456Y0046778D01*
X0130252Y0047276D01*
X0128948Y0047276D01*
X0127744Y0046778D01*
X0126822Y0045856D01*
X0126324Y0044652D01*
X0126324Y0043348D01*
X0126822Y0042144D01*
X0127744Y0041222D01*
X0128948Y0040724D01*
X0130252Y0040724D01*
X0131456Y0041222D01*
X0132546Y0042551D02*
X0158654Y0042551D01*
X0158324Y0043749D02*
X0132876Y0043749D01*
X0132754Y0044948D02*
X0158446Y0044948D01*
X0159113Y0046146D02*
X0132087Y0046146D01*
X0127113Y0046146D02*
X0108565Y0046146D01*
X0110286Y0044948D02*
X0126446Y0044948D01*
X0126324Y0043749D02*
X0110836Y0043749D01*
X0110876Y0042551D02*
X0126654Y0042551D01*
X0127614Y0041352D02*
X0110464Y0041352D01*
X0109290Y0040154D02*
X0236600Y0040154D01*
X0236600Y0038955D02*
X0027689Y0038955D01*
X0028229Y0037757D02*
X0236600Y0037757D01*
X0261659Y0037757D02*
X0286816Y0037757D01*
X0287068Y0038365D02*
X0285894Y0035533D01*
X0285894Y0032467D01*
X0287068Y0029635D01*
X0289235Y0027468D01*
X0292067Y0026294D01*
X0295133Y0026294D01*
X0297965Y0027468D01*
X0300132Y0029635D01*
X0301305Y0032467D01*
X0301305Y0035533D01*
X0300132Y0038365D01*
X0297965Y0040532D01*
X0295133Y0041705D01*
X0292067Y0041705D01*
X0289235Y0040532D01*
X0287068Y0038365D01*
X0287658Y0038955D02*
X0261661Y0038955D01*
X0261663Y0040154D02*
X0288857Y0040154D01*
X0291215Y0041352D02*
X0261665Y0041352D01*
X0261667Y0042551D02*
X0333742Y0042551D01*
X0333715Y0042524D02*
X0332497Y0039584D01*
X0332497Y0036401D01*
X0333715Y0033461D01*
X0335966Y0031210D01*
X0338906Y0029992D01*
X0342089Y0029992D01*
X0345029Y0031210D01*
X0347279Y0033461D01*
X0348497Y0036401D01*
X0348497Y0039584D01*
X0347279Y0042524D01*
X0345029Y0044774D01*
X0342089Y0045992D01*
X0338906Y0045992D01*
X0335966Y0044774D01*
X0333715Y0042524D01*
X0333230Y0041352D02*
X0315985Y0041352D01*
X0315133Y0041705D02*
X0312067Y0041705D01*
X0309235Y0040532D01*
X0307068Y0038365D01*
X0305894Y0035533D01*
X0305894Y0032467D01*
X0307068Y0029635D01*
X0309235Y0027468D01*
X0312067Y0026294D01*
X0315133Y0026294D01*
X0317965Y0027468D01*
X0320132Y0029635D01*
X0321305Y0032467D01*
X0321305Y0035533D01*
X0320132Y0038365D01*
X0317965Y0040532D01*
X0315133Y0041705D01*
X0318343Y0040154D02*
X0332733Y0040154D01*
X0332497Y0038955D02*
X0319542Y0038955D01*
X0320384Y0037757D02*
X0332497Y0037757D01*
X0332497Y0036558D02*
X0320881Y0036558D01*
X0321305Y0035360D02*
X0332929Y0035360D01*
X0333425Y0034161D02*
X0321305Y0034161D01*
X0321305Y0032963D02*
X0334213Y0032963D01*
X0335412Y0031764D02*
X0321014Y0031764D01*
X0320518Y0030566D02*
X0337522Y0030566D01*
X0343473Y0030566D02*
X0475200Y0030566D01*
X0475200Y0031764D02*
X0345583Y0031764D01*
X0346781Y0032963D02*
X0475200Y0032963D01*
X0475200Y0034161D02*
X0363679Y0034161D01*
X0365097Y0034749D02*
X0367348Y0036999D01*
X0368566Y0039940D01*
X0368566Y0043122D01*
X0367348Y0046063D01*
X0365097Y0048313D01*
X0362157Y0049531D01*
X0358974Y0049531D01*
X0356034Y0048313D01*
X0353784Y0046063D01*
X0352566Y0043122D01*
X0352566Y0039940D01*
X0353784Y0036999D01*
X0356034Y0034749D01*
X0358974Y0033531D01*
X0362157Y0033531D01*
X0365097Y0034749D01*
X0365708Y0035360D02*
X0475200Y0035360D01*
X0475200Y0036558D02*
X0366907Y0036558D01*
X0367661Y0037757D02*
X0475200Y0037757D01*
X0475200Y0038955D02*
X0368158Y0038955D01*
X0368566Y0040154D02*
X0475200Y0040154D01*
X0475200Y0041352D02*
X0368566Y0041352D01*
X0368566Y0042551D02*
X0475200Y0042551D01*
X0475200Y0043749D02*
X0368306Y0043749D01*
X0367809Y0044948D02*
X0372255Y0044948D01*
X0372176Y0044969D02*
X0374813Y0044262D01*
X0377543Y0044262D01*
X0380180Y0044969D01*
X0382544Y0046334D01*
X0384474Y0048264D01*
X0385839Y0050628D01*
X0386546Y0053265D01*
X0386546Y0055995D01*
X0385839Y0058632D01*
X0384474Y0060996D01*
X0382544Y0062926D01*
X0380180Y0064291D01*
X0377543Y0064998D01*
X0374813Y0064998D01*
X0372176Y0064291D01*
X0369812Y0062926D01*
X0367882Y0060996D01*
X0366517Y0058632D01*
X0365810Y0055995D01*
X0365810Y0053265D01*
X0366517Y0050628D01*
X0367882Y0048264D01*
X0369812Y0046334D01*
X0372176Y0044969D01*
X0370137Y0046146D02*
X0367264Y0046146D01*
X0366065Y0047345D02*
X0368801Y0047345D01*
X0367721Y0048543D02*
X0364541Y0048543D01*
X0367029Y0049742D02*
X0261679Y0049742D01*
X0261681Y0050940D02*
X0292425Y0050940D01*
X0292948Y0050724D02*
X0294252Y0050724D01*
X0295456Y0051222D01*
X0296378Y0052144D01*
X0296876Y0053348D01*
X0296876Y0054652D01*
X0296378Y0055856D01*
X0295456Y0056778D01*
X0294252Y0057276D01*
X0292948Y0057276D01*
X0291744Y0056778D01*
X0290822Y0055856D01*
X0290324Y0054652D01*
X0290324Y0053348D01*
X0290822Y0052144D01*
X0291744Y0051222D01*
X0292948Y0050724D01*
X0294775Y0050940D02*
X0366433Y0050940D01*
X0366112Y0052139D02*
X0296372Y0052139D01*
X0296872Y0053337D02*
X0365810Y0053337D01*
X0365810Y0054536D02*
X0296876Y0054536D01*
X0296428Y0055734D02*
X0365810Y0055734D01*
X0366062Y0056933D02*
X0295081Y0056933D01*
X0292119Y0056933D02*
X0261691Y0056933D01*
X0261689Y0055734D02*
X0290772Y0055734D01*
X0290324Y0054536D02*
X0261687Y0054536D01*
X0261685Y0053337D02*
X0290328Y0053337D01*
X0290828Y0052139D02*
X0261683Y0052139D01*
X0261677Y0048543D02*
X0356590Y0048543D01*
X0355066Y0047345D02*
X0261675Y0047345D01*
X0261673Y0046146D02*
X0353867Y0046146D01*
X0353322Y0044948D02*
X0344610Y0044948D01*
X0346054Y0043749D02*
X0352825Y0043749D01*
X0352566Y0042551D02*
X0347252Y0042551D01*
X0347765Y0041352D02*
X0352566Y0041352D01*
X0352566Y0040154D02*
X0348261Y0040154D01*
X0348497Y0038955D02*
X0352973Y0038955D01*
X0353470Y0037757D02*
X0348497Y0037757D01*
X0348497Y0036558D02*
X0354225Y0036558D01*
X0355423Y0035360D02*
X0348066Y0035360D01*
X0347569Y0034161D02*
X0357453Y0034161D01*
X0336384Y0044948D02*
X0261671Y0044948D01*
X0261669Y0043749D02*
X0334940Y0043749D01*
X0319864Y0029367D02*
X0475200Y0029367D01*
X0475200Y0028169D02*
X0318666Y0028169D01*
X0316764Y0026970D02*
X0475200Y0026970D01*
X0475200Y0025772D02*
X0261639Y0025772D01*
X0261641Y0026970D02*
X0290436Y0026970D01*
X0288534Y0028169D02*
X0261643Y0028169D01*
X0261645Y0029367D02*
X0287336Y0029367D01*
X0286682Y0030566D02*
X0261647Y0030566D01*
X0261649Y0031764D02*
X0286186Y0031764D01*
X0285894Y0032963D02*
X0261651Y0032963D01*
X0261653Y0034161D02*
X0285894Y0034161D01*
X0285894Y0035360D02*
X0261655Y0035360D01*
X0261657Y0036558D02*
X0286319Y0036558D01*
X0295985Y0041352D02*
X0311215Y0041352D01*
X0308857Y0040154D02*
X0298343Y0040154D01*
X0299542Y0038955D02*
X0307658Y0038955D01*
X0306816Y0037757D02*
X0300384Y0037757D01*
X0300881Y0036558D02*
X0306319Y0036558D01*
X0305894Y0035360D02*
X0301305Y0035360D01*
X0301305Y0034161D02*
X0305894Y0034161D01*
X0305894Y0032963D02*
X0301305Y0032963D01*
X0301014Y0031764D02*
X0306186Y0031764D01*
X0306682Y0030566D02*
X0300518Y0030566D01*
X0299864Y0029367D02*
X0307336Y0029367D01*
X0308534Y0028169D02*
X0298666Y0028169D01*
X0296764Y0026970D02*
X0310436Y0026970D01*
X0261637Y0024573D02*
X0475200Y0024573D01*
X0475200Y0023375D02*
X0429532Y0023375D01*
X0430076Y0023149D02*
X0427315Y0024293D01*
X0424326Y0024293D01*
X0421564Y0023149D01*
X0419451Y0021036D01*
X0418307Y0018274D01*
X0418307Y0015285D01*
X0419451Y0012524D01*
X0421564Y0010410D01*
X0424326Y0009266D01*
X0427315Y0009266D01*
X0430076Y0010410D01*
X0432190Y0012524D01*
X0433334Y0015285D01*
X0433334Y0018274D01*
X0432190Y0021036D01*
X0430076Y0023149D01*
X0431049Y0022176D02*
X0475200Y0022176D01*
X0475200Y0020978D02*
X0432214Y0020978D01*
X0432710Y0019779D02*
X0475200Y0019779D01*
X0475200Y0018581D02*
X0433207Y0018581D01*
X0433334Y0017382D02*
X0475200Y0017382D01*
X0475200Y0016184D02*
X0433334Y0016184D01*
X0433210Y0014985D02*
X0475200Y0014985D01*
X0475200Y0013916D02*
X0475041Y0012627D01*
X0474117Y0010160D01*
X0472475Y0008099D01*
X0470277Y0006645D01*
X0467738Y0005943D01*
X0466499Y0005900D01*
X0466353Y0005900D01*
X0465841Y0005923D01*
X0465778Y0005900D01*
X0261605Y0005900D01*
X0261989Y0232478D01*
X0262244Y0232222D01*
X0263448Y0231724D01*
X0264752Y0231724D01*
X0265956Y0232222D01*
X0266350Y0232616D01*
X0266744Y0232222D01*
X0267948Y0231724D01*
X0269252Y0231724D01*
X0270456Y0232222D01*
X0270850Y0232616D01*
X0271244Y0232222D01*
X0272448Y0231724D01*
X0273752Y0231724D01*
X0274956Y0232222D01*
X0275350Y0232616D01*
X0275744Y0232222D01*
X0276948Y0231724D01*
X0278252Y0231724D01*
X0279456Y0232222D01*
X0280378Y0233144D01*
X0280876Y0234348D01*
X0280876Y0235652D01*
X0280378Y0236856D01*
X0279983Y0237250D01*
X0280378Y0237644D01*
X0280876Y0238848D01*
X0280876Y0240152D01*
X0280378Y0241356D01*
X0279983Y0241750D01*
X0280378Y0242144D01*
X0280876Y0243348D01*
X0280876Y0244652D01*
X0280378Y0245856D01*
X0279456Y0246778D01*
X0278252Y0247276D01*
X0276948Y0247276D01*
X0275744Y0246778D01*
X0275350Y0246383D01*
X0274956Y0246778D01*
X0273752Y0247276D01*
X0272448Y0247276D01*
X0271244Y0246778D01*
X0270850Y0246383D01*
X0270456Y0246778D01*
X0269252Y0247276D01*
X0267948Y0247276D01*
X0266744Y0246778D01*
X0266350Y0246383D01*
X0265956Y0246778D01*
X0264752Y0247276D01*
X0263448Y0247276D01*
X0262244Y0246778D01*
X0262013Y0246546D01*
X0262041Y0263100D01*
X0262677Y0263100D01*
X0263163Y0263301D01*
X0263743Y0263541D01*
X0263743Y0263542D02*
X0264144Y0263943D01*
X0264558Y0264357D01*
X0264558Y0264357D01*
X0264559Y0264357D01*
X0264852Y0265067D01*
X0265000Y0265423D01*
X0265000Y0265423D01*
X0265000Y0265423D01*
X0265000Y0265994D01*
X0265000Y0295100D01*
X0402700Y0295100D01*
X0402700Y0287923D01*
X0403141Y0286857D01*
X0403957Y0286041D01*
X0405023Y0285600D01*
X0466177Y0285600D01*
X0467243Y0286041D01*
X0468058Y0286857D01*
X0468500Y0287923D01*
X0468500Y0294684D01*
X0469371Y0294469D01*
X0471470Y0293310D01*
X0473197Y0291647D01*
X0474435Y0289595D01*
X0475099Y0287291D01*
X0475200Y0286101D01*
X0475200Y0205300D01*
X0427543Y0205300D01*
X0426514Y0204874D01*
X0411031Y0189391D01*
X0409561Y0190000D01*
X0406379Y0190000D01*
X0403438Y0188782D01*
X0401188Y0186532D01*
X0399970Y0183591D01*
X0399970Y0180409D01*
X0400579Y0178939D01*
X0391226Y0169586D01*
X0390800Y0168557D01*
X0390800Y0167443D01*
X0390800Y0155523D01*
X0389876Y0155905D01*
X0386694Y0155905D01*
X0383753Y0154688D01*
X0381503Y0152437D01*
X0380285Y0149497D01*
X0380285Y0146314D01*
X0381503Y0143374D01*
X0383753Y0141123D01*
X0386694Y0139906D01*
X0389876Y0139906D01*
X0392817Y0141123D01*
X0395067Y0143374D01*
X0396285Y0146314D01*
X0396285Y0149497D01*
X0395580Y0151200D01*
X0428612Y0151200D01*
X0429881Y0149931D01*
X0431645Y0149200D01*
X0433555Y0149200D01*
X0435319Y0149931D01*
X0436588Y0151200D01*
X0475200Y0151200D01*
X0475200Y0013916D01*
X0475184Y0013787D02*
X0432713Y0013787D01*
X0432217Y0012588D02*
X0475026Y0012588D01*
X0474577Y0011390D02*
X0431056Y0011390D01*
X0429548Y0010191D02*
X0474129Y0010191D01*
X0473187Y0008993D02*
X0261610Y0008993D01*
X0261612Y0010191D02*
X0422093Y0010191D01*
X0420585Y0011390D02*
X0261614Y0011390D01*
X0261616Y0012588D02*
X0419424Y0012588D01*
X0418928Y0013787D02*
X0261618Y0013787D01*
X0261620Y0014985D02*
X0418431Y0014985D01*
X0418307Y0016184D02*
X0261622Y0016184D01*
X0261624Y0017382D02*
X0418307Y0017382D01*
X0418434Y0018581D02*
X0261626Y0018581D01*
X0261628Y0019779D02*
X0418931Y0019779D01*
X0419427Y0020978D02*
X0261630Y0020978D01*
X0261632Y0022176D02*
X0420592Y0022176D01*
X0422109Y0023375D02*
X0261635Y0023375D01*
X0261608Y0007794D02*
X0472015Y0007794D01*
X0470097Y0006596D02*
X0261606Y0006596D01*
X0236600Y0006596D02*
X0188510Y0006596D01*
X0190182Y0007794D02*
X0236600Y0007794D01*
X0184690Y0006596D02*
X0178510Y0006596D01*
X0179319Y0006931D02*
X0180669Y0008281D01*
X0181400Y0010045D01*
X0181400Y0011955D01*
X0180669Y0013719D01*
X0179319Y0015069D01*
X0177555Y0015800D01*
X0175645Y0015800D01*
X0173881Y0015069D01*
X0172531Y0013719D01*
X0171800Y0011955D01*
X0171800Y0010045D01*
X0172531Y0008281D01*
X0173881Y0006931D01*
X0175645Y0006200D01*
X0177555Y0006200D01*
X0179319Y0006931D01*
X0180182Y0007794D02*
X0183018Y0007794D01*
X0182236Y0008993D02*
X0180964Y0008993D01*
X0181400Y0010191D02*
X0181800Y0010191D01*
X0181800Y0011390D02*
X0181400Y0011390D01*
X0181138Y0012588D02*
X0182062Y0012588D01*
X0182598Y0013787D02*
X0180602Y0013787D01*
X0179403Y0014985D02*
X0183797Y0014985D01*
X0173797Y0014985D02*
X0169403Y0014985D01*
X0169319Y0015069D02*
X0167555Y0015800D01*
X0165645Y0015800D01*
X0163881Y0015069D01*
X0162531Y0013719D01*
X0161800Y0011955D01*
X0161800Y0010045D01*
X0162531Y0008281D01*
X0163881Y0006931D01*
X0165645Y0006200D01*
X0167555Y0006200D01*
X0169319Y0006931D01*
X0170669Y0008281D01*
X0171400Y0010045D01*
X0171400Y0011955D01*
X0170669Y0013719D01*
X0169319Y0015069D01*
X0170602Y0013787D02*
X0172598Y0013787D01*
X0172062Y0012588D02*
X0171138Y0012588D01*
X0171400Y0011390D02*
X0171800Y0011390D01*
X0171800Y0010191D02*
X0171400Y0010191D01*
X0170964Y0008993D02*
X0172236Y0008993D01*
X0173018Y0007794D02*
X0170182Y0007794D01*
X0168510Y0006596D02*
X0174690Y0006596D01*
X0164690Y0006596D02*
X0156510Y0006596D01*
X0157319Y0006931D02*
X0155555Y0006200D01*
X0153645Y0006200D01*
X0151881Y0006931D01*
X0150531Y0008281D01*
X0149800Y0010045D01*
X0149800Y0011955D01*
X0150531Y0013719D01*
X0151881Y0015069D01*
X0153645Y0015800D01*
X0155555Y0015800D01*
X0157319Y0015069D01*
X0158669Y0013719D01*
X0159400Y0011955D01*
X0159400Y0010045D01*
X0158669Y0008281D01*
X0157319Y0006931D01*
X0158182Y0007794D02*
X0163018Y0007794D01*
X0162236Y0008993D02*
X0158964Y0008993D01*
X0159400Y0010191D02*
X0161800Y0010191D01*
X0161800Y0011390D02*
X0159400Y0011390D01*
X0159138Y0012588D02*
X0162062Y0012588D01*
X0162598Y0013787D02*
X0158602Y0013787D01*
X0157403Y0014985D02*
X0163797Y0014985D01*
X0151797Y0014985D02*
X0147403Y0014985D01*
X0147319Y0015069D02*
X0145555Y0015800D01*
X0143645Y0015800D01*
X0141881Y0015069D01*
X0140531Y0013719D01*
X0139800Y0011955D01*
X0139800Y0010045D01*
X0140531Y0008281D01*
X0141881Y0006931D01*
X0143645Y0006200D01*
X0145555Y0006200D01*
X0147319Y0006931D01*
X0148669Y0008281D01*
X0149400Y0010045D01*
X0149400Y0011955D01*
X0148669Y0013719D01*
X0147319Y0015069D01*
X0148602Y0013787D02*
X0150598Y0013787D01*
X0150062Y0012588D02*
X0149138Y0012588D01*
X0149400Y0011390D02*
X0149800Y0011390D01*
X0149800Y0010191D02*
X0149400Y0010191D01*
X0148964Y0008993D02*
X0150236Y0008993D01*
X0151018Y0007794D02*
X0148182Y0007794D01*
X0146510Y0006596D02*
X0152690Y0006596D01*
X0142690Y0006596D02*
X0136510Y0006596D01*
X0137319Y0006931D02*
X0135555Y0006200D01*
X0133645Y0006200D01*
X0131881Y0006931D01*
X0130531Y0008281D01*
X0129800Y0010045D01*
X0129800Y0011955D01*
X0130531Y0013719D01*
X0131881Y0015069D01*
X0133645Y0015800D01*
X0135555Y0015800D01*
X0137319Y0015069D01*
X0138669Y0013719D01*
X0139400Y0011955D01*
X0139400Y0010045D01*
X0138669Y0008281D01*
X0137319Y0006931D01*
X0138182Y0007794D02*
X0141018Y0007794D01*
X0140236Y0008993D02*
X0138964Y0008993D01*
X0139400Y0010191D02*
X0139800Y0010191D01*
X0139800Y0011390D02*
X0139400Y0011390D01*
X0139138Y0012588D02*
X0140062Y0012588D01*
X0140598Y0013787D02*
X0138602Y0013787D01*
X0137403Y0014985D02*
X0141797Y0014985D01*
X0131797Y0014985D02*
X0125403Y0014985D01*
X0125319Y0015069D02*
X0123555Y0015800D01*
X0121645Y0015800D01*
X0119881Y0015069D01*
X0118531Y0013719D01*
X0117800Y0011955D01*
X0117800Y0010045D01*
X0118531Y0008281D01*
X0119881Y0006931D01*
X0121645Y0006200D01*
X0123555Y0006200D01*
X0125319Y0006931D01*
X0126669Y0008281D01*
X0127400Y0010045D01*
X0127400Y0011955D01*
X0126669Y0013719D01*
X0125319Y0015069D01*
X0126602Y0013787D02*
X0130598Y0013787D01*
X0130062Y0012588D02*
X0127138Y0012588D01*
X0127400Y0011390D02*
X0129800Y0011390D01*
X0129800Y0010191D02*
X0127400Y0010191D01*
X0126964Y0008993D02*
X0130236Y0008993D01*
X0131018Y0007794D02*
X0126182Y0007794D01*
X0124510Y0006596D02*
X0132690Y0006596D01*
X0120690Y0006596D02*
X0114510Y0006596D01*
X0115319Y0006931D02*
X0113555Y0006200D01*
X0111645Y0006200D01*
X0109881Y0006931D01*
X0108531Y0008281D01*
X0107800Y0010045D01*
X0107800Y0011955D01*
X0108531Y0013719D01*
X0109881Y0015069D01*
X0111645Y0015800D01*
X0113555Y0015800D01*
X0115319Y0015069D01*
X0116669Y0013719D01*
X0117400Y0011955D01*
X0117400Y0010045D01*
X0116669Y0008281D01*
X0115319Y0006931D01*
X0116182Y0007794D02*
X0119018Y0007794D01*
X0118236Y0008993D02*
X0116964Y0008993D01*
X0117400Y0010191D02*
X0117800Y0010191D01*
X0117800Y0011390D02*
X0117400Y0011390D01*
X0117138Y0012588D02*
X0118062Y0012588D01*
X0118598Y0013787D02*
X0116602Y0013787D01*
X0115403Y0014985D02*
X0119797Y0014985D01*
X0109797Y0014985D02*
X0103403Y0014985D01*
X0103319Y0015069D02*
X0101555Y0015800D01*
X0099645Y0015800D01*
X0097881Y0015069D01*
X0096531Y0013719D01*
X0095800Y0011955D01*
X0095800Y0010045D01*
X0096531Y0008281D01*
X0097881Y0006931D01*
X0099645Y0006200D01*
X0101555Y0006200D01*
X0103319Y0006931D01*
X0104669Y0008281D01*
X0105400Y0010045D01*
X0105400Y0011955D01*
X0104669Y0013719D01*
X0103319Y0015069D01*
X0104602Y0013787D02*
X0108598Y0013787D01*
X0108062Y0012588D02*
X0105138Y0012588D01*
X0105400Y0011390D02*
X0107800Y0011390D01*
X0107800Y0010191D02*
X0105400Y0010191D01*
X0104964Y0008993D02*
X0108236Y0008993D01*
X0109018Y0007794D02*
X0104182Y0007794D01*
X0102510Y0006596D02*
X0110690Y0006596D01*
X0098690Y0006596D02*
X0092510Y0006596D01*
X0093319Y0006931D02*
X0091555Y0006200D01*
X0089645Y0006200D01*
X0087881Y0006931D01*
X0086531Y0008281D01*
X0085800Y0010045D01*
X0085800Y0011955D01*
X0086531Y0013719D01*
X0087881Y0015069D01*
X0089645Y0015800D01*
X0091555Y0015800D01*
X0093319Y0015069D01*
X0094669Y0013719D01*
X0095400Y0011955D01*
X0095400Y0010045D01*
X0094669Y0008281D01*
X0093319Y0006931D01*
X0094182Y0007794D02*
X0097018Y0007794D01*
X0096236Y0008993D02*
X0094964Y0008993D01*
X0095400Y0010191D02*
X0095800Y0010191D01*
X0095800Y0011390D02*
X0095400Y0011390D01*
X0095138Y0012588D02*
X0096062Y0012588D01*
X0096598Y0013787D02*
X0094602Y0013787D01*
X0093403Y0014985D02*
X0097797Y0014985D01*
X0087797Y0014985D02*
X0081403Y0014985D01*
X0081319Y0015069D02*
X0079555Y0015800D01*
X0077645Y0015800D01*
X0075881Y0015069D01*
X0074531Y0013719D01*
X0073800Y0011955D01*
X0073800Y0010045D01*
X0074531Y0008281D01*
X0075881Y0006931D01*
X0077645Y0006200D01*
X0079555Y0006200D01*
X0081319Y0006931D01*
X0082669Y0008281D01*
X0083400Y0010045D01*
X0083400Y0011955D01*
X0082669Y0013719D01*
X0081319Y0015069D01*
X0082602Y0013787D02*
X0086598Y0013787D01*
X0086062Y0012588D02*
X0083138Y0012588D01*
X0083400Y0011390D02*
X0085800Y0011390D01*
X0085800Y0010191D02*
X0083400Y0010191D01*
X0082964Y0008993D02*
X0086236Y0008993D01*
X0087018Y0007794D02*
X0082182Y0007794D01*
X0080510Y0006596D02*
X0088690Y0006596D01*
X0076690Y0006596D02*
X0070510Y0006596D01*
X0071319Y0006931D02*
X0069555Y0006200D01*
X0067645Y0006200D01*
X0065881Y0006931D01*
X0064531Y0008281D01*
X0063800Y0010045D01*
X0063800Y0011955D01*
X0064531Y0013719D01*
X0065881Y0015069D01*
X0067645Y0015800D01*
X0069555Y0015800D01*
X0071319Y0015069D01*
X0072669Y0013719D01*
X0073400Y0011955D01*
X0073400Y0010045D01*
X0072669Y0008281D01*
X0071319Y0006931D01*
X0072182Y0007794D02*
X0075018Y0007794D01*
X0074236Y0008993D02*
X0072964Y0008993D01*
X0073400Y0010191D02*
X0073800Y0010191D01*
X0073800Y0011390D02*
X0073400Y0011390D01*
X0073138Y0012588D02*
X0074062Y0012588D01*
X0074598Y0013787D02*
X0072602Y0013787D01*
X0071403Y0014985D02*
X0075797Y0014985D01*
X0065797Y0014985D02*
X0059403Y0014985D01*
X0060602Y0013787D02*
X0064598Y0013787D01*
X0064062Y0012588D02*
X0061138Y0012588D01*
X0061400Y0011390D02*
X0063800Y0011390D01*
X0063800Y0010191D02*
X0061400Y0010191D01*
X0060964Y0008993D02*
X0064236Y0008993D01*
X0065018Y0007794D02*
X0060182Y0007794D01*
X0058510Y0006596D02*
X0066690Y0006596D01*
X0065290Y0040154D02*
X0083910Y0040154D01*
X0082736Y0041352D02*
X0066464Y0041352D01*
X0066876Y0042551D02*
X0082324Y0042551D01*
X0082364Y0043749D02*
X0066836Y0043749D01*
X0066286Y0044948D02*
X0082914Y0044948D01*
X0084277Y0048543D02*
X0100923Y0048543D01*
X0100368Y0049742D02*
X0084832Y0049742D01*
X0084876Y0050940D02*
X0100324Y0050940D01*
X0100733Y0052139D02*
X0084467Y0052139D01*
X0084665Y0053337D02*
X0100535Y0053337D01*
X0100324Y0054536D02*
X0084876Y0054536D01*
X0084635Y0055734D02*
X0100565Y0055734D01*
X0100703Y0056933D02*
X0084167Y0056933D01*
X0084787Y0058132D02*
X0100324Y0058132D01*
X0100397Y0059330D02*
X0084876Y0059330D01*
X0084513Y0060529D02*
X0100995Y0060529D01*
X0102829Y0061727D02*
X0083506Y0061727D01*
X0078247Y0072514D02*
X0096324Y0072514D01*
X0096556Y0073712D02*
X0078820Y0073712D01*
X0078876Y0074911D02*
X0097056Y0074911D01*
X0096423Y0076109D02*
X0078480Y0076109D01*
X0077383Y0077308D02*
X0096324Y0077308D01*
X0096678Y0078506D02*
X0046442Y0078506D01*
X0046939Y0079705D02*
X0097671Y0079705D01*
X0102144Y0074911D02*
X0112877Y0074911D01*
X0112056Y0073712D02*
X0102644Y0073712D01*
X0102876Y0072514D02*
X0111824Y0072514D01*
X0112044Y0071315D02*
X0102656Y0071315D01*
X0101850Y0070117D02*
X0112583Y0070117D01*
X0112288Y0061727D02*
X0104371Y0061727D01*
X0104914Y0044948D02*
X0088286Y0044948D01*
X0088836Y0043749D02*
X0104364Y0043749D01*
X0104324Y0042551D02*
X0088876Y0042551D01*
X0088464Y0041352D02*
X0104736Y0041352D01*
X0105910Y0040154D02*
X0087290Y0040154D01*
X0072953Y0072514D02*
X0026650Y0072514D01*
X0027848Y0073712D02*
X0072380Y0073712D01*
X0073817Y0077308D02*
X0045509Y0077308D01*
X0027882Y0093746D02*
X0028613Y0095510D01*
X0028613Y0097419D01*
X0027882Y0099184D01*
X0026532Y0100534D01*
X0024767Y0101265D01*
X0022858Y0101265D01*
X0021094Y0100534D01*
X0019743Y0099184D01*
X0019013Y0097419D01*
X0019013Y0095510D01*
X0019743Y0093746D01*
X0021094Y0092395D01*
X0022858Y0091665D01*
X0024767Y0091665D01*
X0026532Y0092395D01*
X0027882Y0093746D01*
X0028023Y0094087D02*
X0236600Y0094087D01*
X0236600Y0095285D02*
X0042695Y0095285D01*
X0044047Y0095845D02*
X0041161Y0094650D01*
X0038039Y0094650D01*
X0035153Y0095845D01*
X0032945Y0098053D01*
X0031750Y0100939D01*
X0031750Y0104061D01*
X0032945Y0106947D01*
X0035153Y0109155D01*
X0038039Y0110350D01*
X0041161Y0110350D01*
X0044047Y0109155D01*
X0046255Y0106947D01*
X0047450Y0104061D01*
X0047450Y0100939D01*
X0046255Y0098053D01*
X0044047Y0095845D01*
X0044685Y0096484D02*
X0236600Y0096484D01*
X0236600Y0097682D02*
X0045884Y0097682D01*
X0046598Y0098881D02*
X0236600Y0098881D01*
X0236600Y0100079D02*
X0047094Y0100079D01*
X0047450Y0101278D02*
X0080189Y0101278D01*
X0079822Y0101644D02*
X0080744Y0100722D01*
X0081948Y0100224D01*
X0083252Y0100224D01*
X0084456Y0100722D01*
X0085378Y0101644D01*
X0085618Y0102224D01*
X0086252Y0102224D01*
X0087456Y0102722D01*
X0088378Y0103644D01*
X0088618Y0104224D01*
X0089752Y0104224D01*
X0090956Y0104722D01*
X0091878Y0105644D01*
X0092118Y0106224D01*
X0092752Y0106224D01*
X0093956Y0106722D01*
X0094878Y0107644D01*
X0095118Y0108224D01*
X0096252Y0108224D01*
X0097456Y0108722D01*
X0098378Y0109644D01*
X0098876Y0110848D01*
X0098876Y0110961D01*
X0099448Y0110724D01*
X0100752Y0110724D01*
X0101956Y0111222D01*
X0102600Y0111866D01*
X0103244Y0111222D01*
X0104448Y0110724D01*
X0105752Y0110724D01*
X0106956Y0111222D01*
X0107600Y0111866D01*
X0108244Y0111222D01*
X0109448Y0110724D01*
X0110752Y0110724D01*
X0111956Y0111222D01*
X0112600Y0111866D01*
X0113244Y0111222D01*
X0114448Y0110724D01*
X0115752Y0110724D01*
X0116956Y0111222D01*
X0117600Y0111866D01*
X0118244Y0111222D01*
X0119448Y0110724D01*
X0120752Y0110724D01*
X0121956Y0111222D01*
X0122600Y0111866D01*
X0123244Y0111222D01*
X0124448Y0110724D01*
X0125752Y0110724D01*
X0126956Y0111222D01*
X0127350Y0111616D01*
X0127744Y0111222D01*
X0128948Y0110724D01*
X0130252Y0110724D01*
X0131456Y0111222D01*
X0132378Y0112144D01*
X0132600Y0112681D01*
X0132822Y0112144D01*
X0133744Y0111222D01*
X0134948Y0110724D01*
X0136252Y0110724D01*
X0137456Y0111222D01*
X0138378Y0112144D01*
X0138876Y0113348D01*
X0138876Y0114652D01*
X0138378Y0115856D01*
X0137456Y0116778D01*
X0136252Y0117276D01*
X0134948Y0117276D01*
X0133744Y0116778D01*
X0132822Y0115856D01*
X0132600Y0115319D01*
X0132378Y0115856D01*
X0131456Y0116778D01*
X0130252Y0117276D01*
X0128948Y0117276D01*
X0127744Y0116778D01*
X0127350Y0116383D01*
X0126956Y0116778D01*
X0125752Y0117276D01*
X0124448Y0117276D01*
X0123244Y0116778D01*
X0122600Y0116133D01*
X0121956Y0116778D01*
X0120752Y0117276D01*
X0119448Y0117276D01*
X0118244Y0116778D01*
X0117600Y0116133D01*
X0116956Y0116778D01*
X0115752Y0117276D01*
X0114448Y0117276D01*
X0113244Y0116778D01*
X0112600Y0116133D01*
X0111956Y0116778D01*
X0110752Y0117276D01*
X0109448Y0117276D01*
X0108244Y0116778D01*
X0107600Y0116133D01*
X0106956Y0116778D01*
X0105752Y0117276D01*
X0104448Y0117276D01*
X0103244Y0116778D01*
X0102600Y0116133D01*
X0101956Y0116778D01*
X0100752Y0117276D01*
X0099448Y0117276D01*
X0098244Y0116778D01*
X0097322Y0115856D01*
X0096824Y0114652D01*
X0096824Y0114539D01*
X0096252Y0114776D01*
X0094948Y0114776D01*
X0093744Y0114278D01*
X0092822Y0113356D01*
X0092582Y0112776D01*
X0091448Y0112776D01*
X0090244Y0112278D01*
X0089322Y0111356D01*
X0089082Y0110776D01*
X0088448Y0110776D01*
X0087244Y0110278D01*
X0086322Y0109356D01*
X0086082Y0108776D01*
X0084948Y0108776D01*
X0083744Y0108278D01*
X0082822Y0107356D01*
X0082582Y0106776D01*
X0081948Y0106776D01*
X0080744Y0106278D01*
X0079822Y0105356D01*
X0079324Y0104152D01*
X0079324Y0102848D01*
X0079822Y0101644D01*
X0079478Y0102476D02*
X0047450Y0102476D01*
X0047450Y0103675D02*
X0079324Y0103675D01*
X0079623Y0104873D02*
X0047114Y0104873D01*
X0046617Y0106072D02*
X0080538Y0106072D01*
X0082787Y0107270D02*
X0045931Y0107270D01*
X0044733Y0108469D02*
X0084206Y0108469D01*
X0086634Y0109668D02*
X0042809Y0109668D01*
X0036391Y0109668D02*
X0027398Y0109668D01*
X0027882Y0109184D02*
X0026532Y0110534D01*
X0024767Y0111265D01*
X0022858Y0111265D01*
X0021094Y0110534D01*
X0019743Y0109184D01*
X0019013Y0107419D01*
X0019013Y0105510D01*
X0019743Y0103746D01*
X0021094Y0102395D01*
X0022858Y0101665D01*
X0024767Y0101665D01*
X0026532Y0102395D01*
X0027882Y0103746D01*
X0028613Y0105510D01*
X0028613Y0107419D01*
X0027882Y0109184D01*
X0028178Y0108469D02*
X0034467Y0108469D01*
X0033269Y0107270D02*
X0028613Y0107270D01*
X0028613Y0106072D02*
X0032583Y0106072D01*
X0032086Y0104873D02*
X0028349Y0104873D01*
X0027811Y0103675D02*
X0031750Y0103675D01*
X0031750Y0102476D02*
X0026613Y0102476D01*
X0026986Y0100079D02*
X0032106Y0100079D01*
X0031750Y0101278D02*
X0005059Y0101278D01*
X0005059Y0102476D02*
X0011012Y0102476D01*
X0011094Y0102395D02*
X0012858Y0101665D01*
X0014767Y0101665D01*
X0016532Y0102395D01*
X0017882Y0103746D01*
X0018613Y0105510D01*
X0018613Y0107419D01*
X0017882Y0109184D01*
X0016532Y0110534D01*
X0014767Y0111265D01*
X0012858Y0111265D01*
X0011094Y0110534D01*
X0009743Y0109184D01*
X0009013Y0107419D01*
X0009013Y0105510D01*
X0009743Y0103746D01*
X0011094Y0102395D01*
X0009814Y0103675D02*
X0005059Y0103675D01*
X0005059Y0104873D02*
X0009276Y0104873D01*
X0009013Y0106072D02*
X0005059Y0106072D01*
X0005059Y0107270D02*
X0009013Y0107270D01*
X0009447Y0108469D02*
X0005059Y0108469D01*
X0005059Y0109668D02*
X0010227Y0109668D01*
X0011896Y0110866D02*
X0005059Y0110866D01*
X0005059Y0112065D02*
X0011892Y0112065D01*
X0011094Y0112395D02*
X0012858Y0111665D01*
X0014767Y0111665D01*
X0016532Y0112395D01*
X0017882Y0113746D01*
X0018613Y0115510D01*
X0018613Y0117419D01*
X0017882Y0119184D01*
X0016532Y0120534D01*
X0014767Y0121265D01*
X0012858Y0121265D01*
X0011094Y0120534D01*
X0009743Y0119184D01*
X0009013Y0117419D01*
X0009013Y0115510D01*
X0009743Y0113746D01*
X0011094Y0112395D01*
X0010226Y0113263D02*
X0005059Y0113263D01*
X0005059Y0114462D02*
X0009447Y0114462D01*
X0009013Y0115660D02*
X0005059Y0115660D01*
X0005059Y0116859D02*
X0009013Y0116859D01*
X0009277Y0118057D02*
X0005059Y0118057D01*
X0005059Y0119256D02*
X0009815Y0119256D01*
X0011014Y0120454D02*
X0005059Y0120454D01*
X0005059Y0121653D02*
X0183324Y0121653D01*
X0183324Y0121348D02*
X0183822Y0120144D01*
X0184744Y0119222D01*
X0185948Y0118724D01*
X0187252Y0118724D01*
X0188456Y0119222D01*
X0188600Y0119366D01*
X0188744Y0119222D01*
X0189948Y0118724D01*
X0191252Y0118724D01*
X0192456Y0119222D01*
X0192600Y0119366D01*
X0192744Y0119222D01*
X0193948Y0118724D01*
X0195252Y0118724D01*
X0196456Y0119222D01*
X0197378Y0120144D01*
X0197876Y0121348D01*
X0197876Y0122652D01*
X0197378Y0123856D01*
X0196456Y0124778D01*
X0195252Y0125276D01*
X0193948Y0125276D01*
X0192744Y0124778D01*
X0192600Y0124633D01*
X0192456Y0124778D01*
X0191252Y0125276D01*
X0189948Y0125276D01*
X0188744Y0124778D01*
X0188600Y0124633D01*
X0188456Y0124778D01*
X0187252Y0125276D01*
X0185948Y0125276D01*
X0184744Y0124778D01*
X0183822Y0123856D01*
X0183324Y0122652D01*
X0183324Y0121348D01*
X0183694Y0120454D02*
X0026115Y0120454D01*
X0026224Y0120399D02*
X0025578Y0120728D01*
X0024890Y0120951D01*
X0024213Y0121059D01*
X0024213Y0116865D01*
X0023413Y0116865D01*
X0023413Y0121059D01*
X0022735Y0120951D01*
X0022047Y0120728D01*
X0021402Y0120399D01*
X0020816Y0119973D01*
X0020304Y0119461D01*
X0019878Y0118875D01*
X0019550Y0118230D01*
X0019326Y0117542D01*
X0019219Y0116865D01*
X0023413Y0116865D01*
X0023413Y0116065D01*
X0023413Y0116064D02*
X0024213Y0116064D01*
X0024213Y0116065D02*
X0024213Y0116865D01*
X0028407Y0116865D01*
X0028299Y0117542D01*
X0028076Y0118230D01*
X0027747Y0118875D01*
X0027321Y0119461D01*
X0026809Y0119973D01*
X0026224Y0120399D01*
X0027471Y0119256D02*
X0184711Y0119256D01*
X0188489Y0119256D02*
X0188711Y0119256D01*
X0192489Y0119256D02*
X0192711Y0119256D01*
X0196489Y0119256D02*
X0236600Y0119256D01*
X0236600Y0120454D02*
X0197506Y0120454D01*
X0197876Y0121653D02*
X0236600Y0121653D01*
X0236600Y0122851D02*
X0197794Y0122851D01*
X0197184Y0124050D02*
X0236600Y0124050D01*
X0236600Y0125248D02*
X0195320Y0125248D01*
X0193880Y0125248D02*
X0191320Y0125248D01*
X0189880Y0125248D02*
X0187320Y0125248D01*
X0185880Y0125248D02*
X0028504Y0125248D01*
X0028613Y0125510D02*
X0027882Y0123746D01*
X0026532Y0122395D01*
X0024767Y0121665D01*
X0022858Y0121665D01*
X0021094Y0122395D01*
X0019743Y0123746D01*
X0019013Y0125510D01*
X0019013Y0127419D01*
X0019743Y0129184D01*
X0021094Y0130534D01*
X0022858Y0131265D01*
X0024767Y0131265D01*
X0026532Y0130534D01*
X0027882Y0129184D01*
X0028613Y0127419D01*
X0028613Y0125510D01*
X0028613Y0126447D02*
X0236600Y0126447D01*
X0236600Y0127645D02*
X0137379Y0127645D01*
X0136956Y0127222D02*
X0137878Y0128144D01*
X0138376Y0129348D01*
X0138376Y0130652D01*
X0137878Y0131856D01*
X0137733Y0132000D01*
X0137878Y0132144D01*
X0138376Y0133348D01*
X0138376Y0134652D01*
X0137878Y0135856D01*
X0136956Y0136778D01*
X0135752Y0137276D01*
X0134448Y0137276D01*
X0133244Y0136778D01*
X0132322Y0135856D01*
X0131824Y0134652D01*
X0131824Y0133348D01*
X0132322Y0132144D01*
X0132466Y0132000D01*
X0132322Y0131856D01*
X0131824Y0130652D01*
X0131824Y0129348D01*
X0132322Y0128144D01*
X0133244Y0127222D01*
X0134448Y0126724D01*
X0135752Y0126724D01*
X0136956Y0127222D01*
X0138167Y0128844D02*
X0236600Y0128844D01*
X0236600Y0130042D02*
X0138376Y0130042D01*
X0138132Y0131241D02*
X0236600Y0131241D01*
X0236600Y0132439D02*
X0138000Y0132439D01*
X0138376Y0133638D02*
X0236600Y0133638D01*
X0236600Y0134836D02*
X0146070Y0134836D01*
X0146378Y0135144D02*
X0146876Y0136348D01*
X0146876Y0136753D01*
X0146948Y0136724D01*
X0148252Y0136724D01*
X0149456Y0137222D01*
X0150378Y0138144D01*
X0150876Y0139348D01*
X0150876Y0140652D01*
X0150378Y0141856D01*
X0149456Y0142778D01*
X0148252Y0143276D01*
X0146948Y0143276D01*
X0145744Y0142778D01*
X0144822Y0141856D01*
X0144324Y0140652D01*
X0144324Y0140247D01*
X0144252Y0140276D01*
X0142948Y0140276D01*
X0141744Y0139778D01*
X0140822Y0138856D01*
X0140324Y0137652D01*
X0140324Y0136348D01*
X0140822Y0135144D01*
X0141744Y0134222D01*
X0142948Y0133724D01*
X0144252Y0133724D01*
X0145456Y0134222D01*
X0146378Y0135144D01*
X0146746Y0136035D02*
X0236600Y0136035D01*
X0236600Y0137233D02*
X0183467Y0137233D01*
X0183456Y0137222D02*
X0184378Y0138144D01*
X0184876Y0139348D01*
X0184876Y0140652D01*
X0184378Y0141856D01*
X0183456Y0142778D01*
X0182252Y0143276D01*
X0180948Y0143276D01*
X0179744Y0142778D01*
X0178822Y0141856D01*
X0178324Y0140652D01*
X0178324Y0139348D01*
X0178822Y0138144D01*
X0179744Y0137222D01*
X0180948Y0136724D01*
X0182252Y0136724D01*
X0183456Y0137222D01*
X0184497Y0138432D02*
X0236600Y0138432D01*
X0236600Y0139630D02*
X0184876Y0139630D01*
X0184803Y0140829D02*
X0191138Y0140829D01*
X0190822Y0141144D02*
X0191744Y0140222D01*
X0192948Y0139724D01*
X0194252Y0139724D01*
X0195456Y0140222D01*
X0196378Y0141144D01*
X0196876Y0142348D01*
X0196876Y0143652D01*
X0196378Y0144856D01*
X0195456Y0145778D01*
X0194252Y0146276D01*
X0192948Y0146276D01*
X0191744Y0145778D01*
X0190822Y0144856D01*
X0190324Y0143652D01*
X0190324Y0142348D01*
X0190822Y0141144D01*
X0190457Y0142027D02*
X0184206Y0142027D01*
X0182374Y0143226D02*
X0190324Y0143226D01*
X0190644Y0144424D02*
X0120236Y0144424D01*
X0119752Y0144224D02*
X0120956Y0144722D01*
X0121878Y0145644D01*
X0122376Y0146848D01*
X0122376Y0148152D01*
X0121878Y0149356D01*
X0120956Y0150278D01*
X0119752Y0150776D01*
X0118448Y0150776D01*
X0117244Y0150278D01*
X0116850Y0149883D01*
X0116456Y0150278D01*
X0115252Y0150776D01*
X0113948Y0150776D01*
X0112744Y0150278D01*
X0112350Y0149883D01*
X0111956Y0150278D01*
X0110752Y0150776D01*
X0109448Y0150776D01*
X0108244Y0150278D01*
X0107850Y0149883D01*
X0107456Y0150278D01*
X0106252Y0150776D01*
X0104948Y0150776D01*
X0103744Y0150278D01*
X0103350Y0149883D01*
X0102956Y0150278D01*
X0101752Y0150776D01*
X0100448Y0150776D01*
X0099244Y0150278D01*
X0098322Y0149356D01*
X0097824Y0148152D01*
X0097824Y0146848D01*
X0098322Y0145644D01*
X0099244Y0144722D01*
X0100448Y0144224D01*
X0101752Y0144224D01*
X0102956Y0144722D01*
X0103350Y0145116D01*
X0103744Y0144722D01*
X0104948Y0144224D01*
X0106252Y0144224D01*
X0107456Y0144722D01*
X0107850Y0145116D01*
X0108244Y0144722D01*
X0109448Y0144224D01*
X0110752Y0144224D01*
X0111956Y0144722D01*
X0112350Y0145116D01*
X0112744Y0144722D01*
X0113948Y0144224D01*
X0115252Y0144224D01*
X0116456Y0144722D01*
X0116850Y0145116D01*
X0117244Y0144722D01*
X0118448Y0144224D01*
X0119752Y0144224D01*
X0117964Y0144424D02*
X0115736Y0144424D01*
X0113464Y0144424D02*
X0111236Y0144424D01*
X0108964Y0144424D02*
X0106736Y0144424D01*
X0104464Y0144424D02*
X0102236Y0144424D01*
X0099964Y0144424D02*
X0028163Y0144424D01*
X0027882Y0143746D02*
X0028613Y0145510D01*
X0028613Y0147419D01*
X0027882Y0149184D01*
X0026532Y0150534D01*
X0024767Y0151265D01*
X0022858Y0151265D01*
X0021094Y0150534D01*
X0019743Y0149184D01*
X0019013Y0147419D01*
X0019013Y0145510D01*
X0019743Y0143746D01*
X0021094Y0142395D01*
X0022858Y0141665D01*
X0024767Y0141665D01*
X0026532Y0142395D01*
X0027882Y0143746D01*
X0027362Y0143226D02*
X0146826Y0143226D01*
X0148374Y0143226D02*
X0180826Y0143226D01*
X0178994Y0142027D02*
X0150206Y0142027D01*
X0150803Y0140829D02*
X0178397Y0140829D01*
X0178324Y0139630D02*
X0150876Y0139630D01*
X0150497Y0138432D02*
X0178703Y0138432D01*
X0179733Y0137233D02*
X0149467Y0137233D01*
X0144397Y0140829D02*
X0025819Y0140829D01*
X0026532Y0140534D02*
X0024767Y0141265D01*
X0022858Y0141265D01*
X0021094Y0140534D01*
X0019743Y0139184D01*
X0019013Y0137419D01*
X0019013Y0135510D01*
X0019743Y0133746D01*
X0021094Y0132395D01*
X0022858Y0131665D01*
X0024767Y0131665D01*
X0026532Y0132395D01*
X0027882Y0133746D01*
X0028613Y0135510D01*
X0028613Y0137419D01*
X0027882Y0139184D01*
X0026532Y0140534D01*
X0027435Y0139630D02*
X0141597Y0139630D01*
X0140647Y0138432D02*
X0028193Y0138432D01*
X0028613Y0137233D02*
X0134344Y0137233D01*
X0135856Y0137233D02*
X0140324Y0137233D01*
X0140453Y0136035D02*
X0137699Y0136035D01*
X0138300Y0134836D02*
X0141130Y0134836D01*
X0144994Y0142027D02*
X0025643Y0142027D01*
X0021982Y0142027D02*
X0015643Y0142027D01*
X0014767Y0141665D02*
X0016532Y0142395D01*
X0017882Y0143746D01*
X0018613Y0145510D01*
X0018613Y0147419D01*
X0017882Y0149184D01*
X0016532Y0150534D01*
X0014767Y0151265D01*
X0012858Y0151265D01*
X0011094Y0150534D01*
X0009743Y0149184D01*
X0009013Y0147419D01*
X0009013Y0145510D01*
X0009743Y0143746D01*
X0011094Y0142395D01*
X0012858Y0141665D01*
X0014767Y0141665D01*
X0014767Y0141265D02*
X0012858Y0141265D01*
X0011094Y0140534D01*
X0009743Y0139184D01*
X0009013Y0137419D01*
X0009013Y0135510D01*
X0009743Y0133746D01*
X0011094Y0132395D01*
X0012858Y0131665D01*
X0014767Y0131665D01*
X0016532Y0132395D01*
X0017882Y0133746D01*
X0018613Y0135510D01*
X0018613Y0137419D01*
X0017882Y0139184D01*
X0016532Y0140534D01*
X0014767Y0141265D01*
X0015819Y0140829D02*
X0021806Y0140829D01*
X0020190Y0139630D02*
X0017435Y0139630D01*
X0018193Y0138432D02*
X0019432Y0138432D01*
X0019013Y0137233D02*
X0018613Y0137233D01*
X0018613Y0136035D02*
X0019013Y0136035D01*
X0019292Y0134836D02*
X0018334Y0134836D01*
X0017774Y0133638D02*
X0019851Y0133638D01*
X0021050Y0132439D02*
X0016575Y0132439D01*
X0016532Y0130534D02*
X0014767Y0131265D01*
X0012858Y0131265D01*
X0011094Y0130534D01*
X0009743Y0129184D01*
X0009013Y0127419D01*
X0009013Y0125510D01*
X0009743Y0123746D01*
X0011094Y0122395D01*
X0012858Y0121665D01*
X0014767Y0121665D01*
X0016532Y0122395D01*
X0017882Y0123746D01*
X0018613Y0125510D01*
X0018613Y0127419D01*
X0017882Y0129184D01*
X0016532Y0130534D01*
X0017023Y0130042D02*
X0020602Y0130042D01*
X0019603Y0128844D02*
X0018023Y0128844D01*
X0018519Y0127645D02*
X0019106Y0127645D01*
X0019013Y0126447D02*
X0018613Y0126447D01*
X0018504Y0125248D02*
X0019121Y0125248D01*
X0019617Y0124050D02*
X0018008Y0124050D01*
X0016987Y0122851D02*
X0020638Y0122851D01*
X0021510Y0120454D02*
X0016611Y0120454D01*
X0017810Y0119256D02*
X0020155Y0119256D01*
X0019493Y0118057D02*
X0018348Y0118057D01*
X0018613Y0116859D02*
X0023413Y0116859D01*
X0023413Y0116065D02*
X0019219Y0116065D01*
X0019326Y0115387D01*
X0019550Y0114699D01*
X0019878Y0114054D01*
X0020304Y0113468D01*
X0020816Y0112956D01*
X0021402Y0112530D01*
X0022047Y0112202D01*
X0022735Y0111978D01*
X0023413Y0111871D01*
X0023413Y0116064D01*
X0023413Y0115660D02*
X0024213Y0115660D01*
X0024213Y0116064D02*
X0024213Y0111871D01*
X0024890Y0111978D01*
X0025578Y0112202D01*
X0026224Y0112530D01*
X0026809Y0112956D01*
X0027321Y0113468D01*
X0027747Y0114054D01*
X0028076Y0114699D01*
X0028299Y0115387D01*
X0028407Y0116065D01*
X0024213Y0116065D01*
X0024213Y0116859D02*
X0098440Y0116859D01*
X0097241Y0115660D02*
X0028343Y0115660D01*
X0027955Y0114462D02*
X0094188Y0114462D01*
X0092784Y0113263D02*
X0027116Y0113263D01*
X0025157Y0112065D02*
X0090031Y0112065D01*
X0089120Y0110866D02*
X0025730Y0110866D01*
X0024213Y0112065D02*
X0023413Y0112065D01*
X0022469Y0112065D02*
X0015733Y0112065D01*
X0015730Y0110866D02*
X0021896Y0110866D01*
X0020227Y0109668D02*
X0017398Y0109668D01*
X0018178Y0108469D02*
X0019447Y0108469D01*
X0019013Y0107270D02*
X0018613Y0107270D01*
X0018613Y0106072D02*
X0019013Y0106072D01*
X0019276Y0104873D02*
X0018349Y0104873D01*
X0017811Y0103675D02*
X0019814Y0103675D01*
X0021013Y0102476D02*
X0016613Y0102476D01*
X0016532Y0100534D02*
X0014767Y0101265D01*
X0012858Y0101265D01*
X0011094Y0100534D01*
X0009743Y0099184D01*
X0009013Y0097419D01*
X0009013Y0095510D01*
X0009743Y0093746D01*
X0011094Y0092395D01*
X0012858Y0091665D01*
X0014767Y0091665D01*
X0016532Y0092395D01*
X0017882Y0093746D01*
X0018613Y0095510D01*
X0018613Y0097419D01*
X0017882Y0099184D01*
X0016532Y0100534D01*
X0016986Y0100079D02*
X0020639Y0100079D01*
X0019618Y0098881D02*
X0018007Y0098881D01*
X0018504Y0097682D02*
X0019122Y0097682D01*
X0019013Y0096484D02*
X0018613Y0096484D01*
X0018520Y0095285D02*
X0019106Y0095285D01*
X0019602Y0094087D02*
X0018023Y0094087D01*
X0017025Y0092888D02*
X0020601Y0092888D01*
X0021051Y0090491D02*
X0016574Y0090491D01*
X0016532Y0090534D02*
X0014767Y0091265D01*
X0012858Y0091265D01*
X0011094Y0090534D01*
X0009743Y0089184D01*
X0009013Y0087419D01*
X0009013Y0085510D01*
X0009743Y0083746D01*
X0011094Y0082395D01*
X0012858Y0081665D01*
X0014767Y0081665D01*
X0016532Y0082395D01*
X0017882Y0083746D01*
X0018613Y0085510D01*
X0018613Y0087419D01*
X0017882Y0089184D01*
X0016532Y0090534D01*
X0017773Y0089293D02*
X0019853Y0089293D01*
X0019292Y0088094D02*
X0018333Y0088094D01*
X0018613Y0086896D02*
X0019013Y0086896D01*
X0019013Y0085697D02*
X0018613Y0085697D01*
X0018194Y0084499D02*
X0019431Y0084499D01*
X0020189Y0083300D02*
X0017437Y0083300D01*
X0015823Y0082102D02*
X0021802Y0082102D01*
X0021986Y0080903D02*
X0015640Y0080903D01*
X0014767Y0081265D02*
X0012858Y0081265D01*
X0011094Y0080534D01*
X0009743Y0079184D01*
X0009013Y0077419D01*
X0009013Y0075510D01*
X0009743Y0073746D01*
X0011094Y0072395D01*
X0012858Y0071665D01*
X0014767Y0071665D01*
X0016532Y0072395D01*
X0017882Y0073746D01*
X0018613Y0075510D01*
X0018613Y0077419D01*
X0017882Y0079184D01*
X0016532Y0080534D01*
X0014767Y0081265D01*
X0011986Y0080903D02*
X0005059Y0080903D01*
X0005059Y0079705D02*
X0010265Y0079705D01*
X0009463Y0078506D02*
X0005059Y0078506D01*
X0005059Y0077308D02*
X0009013Y0077308D01*
X0009013Y0076109D02*
X0005059Y0076109D01*
X0005059Y0074911D02*
X0009261Y0074911D01*
X0009777Y0073712D02*
X0005059Y0073712D01*
X0005059Y0072514D02*
X0010975Y0072514D01*
X0016650Y0072514D02*
X0020975Y0072514D01*
X0019777Y0073712D02*
X0017848Y0073712D01*
X0018364Y0074911D02*
X0019261Y0074911D01*
X0019013Y0076109D02*
X0018613Y0076109D01*
X0018613Y0077308D02*
X0019013Y0077308D01*
X0019463Y0078506D02*
X0018162Y0078506D01*
X0017361Y0079705D02*
X0020265Y0079705D01*
X0011802Y0082102D02*
X0005059Y0082102D01*
X0005059Y0083300D02*
X0010189Y0083300D01*
X0009431Y0084499D02*
X0005059Y0084499D01*
X0005059Y0085697D02*
X0009013Y0085697D01*
X0009013Y0086896D02*
X0005059Y0086896D01*
X0005059Y0088094D02*
X0009292Y0088094D01*
X0009853Y0089293D02*
X0005059Y0089293D01*
X0005059Y0090491D02*
X0011051Y0090491D01*
X0012797Y0091690D02*
X0005059Y0091690D01*
X0005059Y0092888D02*
X0010601Y0092888D01*
X0009602Y0094087D02*
X0005059Y0094087D01*
X0005059Y0095285D02*
X0009106Y0095285D01*
X0009013Y0096484D02*
X0005059Y0096484D01*
X0005059Y0097682D02*
X0009122Y0097682D01*
X0009618Y0098881D02*
X0005059Y0098881D01*
X0005059Y0100079D02*
X0010639Y0100079D01*
X0014828Y0091690D02*
X0022797Y0091690D01*
X0024828Y0091690D02*
X0236600Y0091690D01*
X0236600Y0092888D02*
X0027025Y0092888D01*
X0028520Y0095285D02*
X0036505Y0095285D01*
X0034515Y0096484D02*
X0028613Y0096484D01*
X0028504Y0097682D02*
X0033316Y0097682D01*
X0032602Y0098881D02*
X0028007Y0098881D01*
X0024213Y0113263D02*
X0023413Y0113263D01*
X0023413Y0114462D02*
X0024213Y0114462D01*
X0024213Y0118057D02*
X0023413Y0118057D01*
X0023413Y0119256D02*
X0024213Y0119256D01*
X0024213Y0120454D02*
X0023413Y0120454D01*
X0026987Y0122851D02*
X0183406Y0122851D01*
X0184016Y0124050D02*
X0028008Y0124050D01*
X0028519Y0127645D02*
X0132821Y0127645D01*
X0132033Y0128844D02*
X0028023Y0128844D01*
X0027023Y0130042D02*
X0131824Y0130042D01*
X0132068Y0131241D02*
X0024825Y0131241D01*
X0022800Y0131241D02*
X0014825Y0131241D01*
X0012800Y0131241D02*
X0005059Y0131241D01*
X0005059Y0132439D02*
X0011050Y0132439D01*
X0009851Y0133638D02*
X0005059Y0133638D01*
X0005059Y0134836D02*
X0009292Y0134836D01*
X0009013Y0136035D02*
X0005059Y0136035D01*
X0005059Y0137233D02*
X0009013Y0137233D01*
X0009432Y0138432D02*
X0005059Y0138432D01*
X0005059Y0139630D02*
X0010190Y0139630D01*
X0011806Y0140829D02*
X0005059Y0140829D01*
X0005059Y0142027D02*
X0011982Y0142027D01*
X0010263Y0143226D02*
X0005059Y0143226D01*
X0005059Y0144424D02*
X0009462Y0144424D01*
X0009013Y0145623D02*
X0005059Y0145623D01*
X0005059Y0146821D02*
X0009013Y0146821D01*
X0009261Y0148020D02*
X0005059Y0148020D01*
X0005059Y0149218D02*
X0009778Y0149218D01*
X0010977Y0150417D02*
X0005059Y0150417D01*
X0005059Y0151615D02*
X0236600Y0151615D01*
X0236600Y0150417D02*
X0120620Y0150417D01*
X0121935Y0149218D02*
X0236600Y0149218D01*
X0236600Y0148020D02*
X0122376Y0148020D01*
X0122365Y0146821D02*
X0236600Y0146821D01*
X0236600Y0145623D02*
X0195611Y0145623D01*
X0196556Y0144424D02*
X0236600Y0144424D01*
X0236600Y0143226D02*
X0196876Y0143226D01*
X0196743Y0142027D02*
X0236600Y0142027D01*
X0236600Y0140829D02*
X0196062Y0140829D01*
X0191589Y0145623D02*
X0121856Y0145623D01*
X0117580Y0150417D02*
X0116120Y0150417D01*
X0113080Y0150417D02*
X0111620Y0150417D01*
X0108580Y0150417D02*
X0107120Y0150417D01*
X0104080Y0150417D02*
X0102620Y0150417D01*
X0099580Y0150417D02*
X0026648Y0150417D01*
X0027847Y0149218D02*
X0098265Y0149218D01*
X0097824Y0148020D02*
X0028364Y0148020D01*
X0028613Y0146821D02*
X0097835Y0146821D01*
X0098344Y0145623D02*
X0028613Y0145623D01*
X0020263Y0143226D02*
X0017362Y0143226D01*
X0018163Y0144424D02*
X0019462Y0144424D01*
X0019013Y0145623D02*
X0018613Y0145623D01*
X0018613Y0146821D02*
X0019013Y0146821D01*
X0019261Y0148020D02*
X0018364Y0148020D01*
X0017847Y0149218D02*
X0019778Y0149218D01*
X0020977Y0150417D02*
X0016648Y0150417D01*
X0016532Y0152395D02*
X0017882Y0153746D01*
X0018613Y0155510D01*
X0018613Y0157419D01*
X0017882Y0159184D01*
X0016532Y0160534D01*
X0014767Y0161265D01*
X0012858Y0161265D01*
X0011094Y0160534D01*
X0009743Y0159184D01*
X0009013Y0157419D01*
X0009013Y0155510D01*
X0009743Y0153746D01*
X0011094Y0152395D01*
X0012858Y0151665D01*
X0014767Y0151665D01*
X0016532Y0152395D01*
X0016950Y0152814D02*
X0020675Y0152814D01*
X0021094Y0152395D02*
X0022858Y0151665D01*
X0024767Y0151665D01*
X0026532Y0152395D01*
X0027882Y0153746D01*
X0028613Y0155510D01*
X0028613Y0157419D01*
X0027882Y0159184D01*
X0026532Y0160534D01*
X0024767Y0161265D01*
X0022858Y0161265D01*
X0021094Y0160534D01*
X0019743Y0159184D01*
X0019013Y0157419D01*
X0019013Y0155510D01*
X0019743Y0153746D01*
X0021094Y0152395D01*
X0019633Y0154012D02*
X0017992Y0154012D01*
X0018489Y0155211D02*
X0019136Y0155211D01*
X0019013Y0156409D02*
X0018613Y0156409D01*
X0018534Y0157608D02*
X0019091Y0157608D01*
X0019587Y0158806D02*
X0018038Y0158806D01*
X0017060Y0160005D02*
X0020565Y0160005D01*
X0021094Y0162395D02*
X0022858Y0161665D01*
X0024767Y0161665D01*
X0026532Y0162395D01*
X0027882Y0163746D01*
X0028613Y0165510D01*
X0028613Y0167419D01*
X0027882Y0169184D01*
X0026532Y0170534D01*
X0024767Y0171265D01*
X0022858Y0171265D01*
X0021094Y0170534D01*
X0019743Y0169184D01*
X0019013Y0167419D01*
X0019013Y0165510D01*
X0019743Y0163746D01*
X0021094Y0162395D01*
X0021087Y0162402D02*
X0016538Y0162402D01*
X0016532Y0162395D02*
X0017882Y0163746D01*
X0018613Y0165510D01*
X0018613Y0167419D01*
X0017882Y0169184D01*
X0016532Y0170534D01*
X0014767Y0171265D01*
X0012858Y0171265D01*
X0011094Y0170534D01*
X0009743Y0169184D01*
X0009013Y0167419D01*
X0009013Y0165510D01*
X0009743Y0163746D01*
X0011094Y0162395D01*
X0012858Y0161665D01*
X0014767Y0161665D01*
X0016532Y0162395D01*
X0017737Y0163601D02*
X0019888Y0163601D01*
X0019307Y0164799D02*
X0018318Y0164799D01*
X0018613Y0165998D02*
X0019013Y0165998D01*
X0019013Y0167196D02*
X0018613Y0167196D01*
X0018209Y0168395D02*
X0019417Y0168395D01*
X0020153Y0169593D02*
X0017472Y0169593D01*
X0015909Y0170792D02*
X0021716Y0170792D01*
X0022072Y0171990D02*
X0015553Y0171990D01*
X0014767Y0171665D02*
X0016532Y0172395D01*
X0017882Y0173746D01*
X0018613Y0175510D01*
X0018613Y0177419D01*
X0017882Y0179184D01*
X0016532Y0180534D01*
X0014767Y0181265D01*
X0012858Y0181265D01*
X0011094Y0180534D01*
X0009743Y0179184D01*
X0009013Y0177419D01*
X0009013Y0175510D01*
X0009743Y0173746D01*
X0011094Y0172395D01*
X0012858Y0171665D01*
X0014767Y0171665D01*
X0012072Y0171990D02*
X0005059Y0171990D01*
X0005059Y0170792D02*
X0011716Y0170792D01*
X0010153Y0169593D02*
X0005059Y0169593D01*
X0005059Y0168395D02*
X0009417Y0168395D01*
X0009013Y0167196D02*
X0005059Y0167196D01*
X0005059Y0165998D02*
X0009013Y0165998D01*
X0009307Y0164799D02*
X0005059Y0164799D01*
X0005059Y0163601D02*
X0009888Y0163601D01*
X0011087Y0162402D02*
X0005059Y0162402D01*
X0005059Y0161203D02*
X0012710Y0161203D01*
X0014915Y0161203D02*
X0022710Y0161203D01*
X0024915Y0161203D02*
X0236600Y0161203D01*
X0236600Y0160005D02*
X0207329Y0160005D01*
X0206956Y0160378D02*
X0205752Y0160876D01*
X0204448Y0160876D01*
X0203244Y0160378D01*
X0203100Y0160233D01*
X0202956Y0160378D01*
X0201752Y0160876D01*
X0200448Y0160876D01*
X0199244Y0160378D01*
X0198322Y0159456D01*
X0197824Y0158252D01*
X0197824Y0156948D01*
X0198322Y0155744D01*
X0199244Y0154822D01*
X0200448Y0154324D01*
X0201752Y0154324D01*
X0202956Y0154822D01*
X0203100Y0154966D01*
X0203244Y0154822D01*
X0204448Y0154324D01*
X0205752Y0154324D01*
X0206956Y0154822D01*
X0207878Y0155744D01*
X0208376Y0156948D01*
X0208376Y0158252D01*
X0207878Y0159456D01*
X0206956Y0160378D01*
X0208147Y0158806D02*
X0236600Y0158806D01*
X0236600Y0157608D02*
X0208376Y0157608D01*
X0208153Y0156409D02*
X0236600Y0156409D01*
X0236600Y0155211D02*
X0207344Y0155211D01*
X0198856Y0155211D02*
X0028489Y0155211D01*
X0028613Y0156409D02*
X0198047Y0156409D01*
X0197824Y0157608D02*
X0028534Y0157608D01*
X0028038Y0158806D02*
X0198053Y0158806D01*
X0198871Y0160005D02*
X0027060Y0160005D01*
X0026538Y0162402D02*
X0236600Y0162402D01*
X0236600Y0163601D02*
X0027737Y0163601D01*
X0028318Y0164799D02*
X0236600Y0164799D01*
X0236600Y0165998D02*
X0028613Y0165998D01*
X0028613Y0167196D02*
X0236600Y0167196D01*
X0236600Y0168395D02*
X0028209Y0168395D01*
X0027472Y0169593D02*
X0236600Y0169593D01*
X0236600Y0170792D02*
X0025909Y0170792D01*
X0025553Y0171990D02*
X0236600Y0171990D01*
X0236600Y0173189D02*
X0027325Y0173189D01*
X0027882Y0173746D02*
X0028613Y0175510D01*
X0028613Y0177419D01*
X0027882Y0179184D01*
X0026532Y0180534D01*
X0024767Y0181265D01*
X0022858Y0181265D01*
X0021094Y0180534D01*
X0019743Y0179184D01*
X0019013Y0177419D01*
X0019013Y0175510D01*
X0019743Y0173746D01*
X0021094Y0172395D01*
X0022858Y0171665D01*
X0024767Y0171665D01*
X0026532Y0172395D01*
X0027882Y0173746D01*
X0028148Y0174387D02*
X0200579Y0174387D01*
X0200744Y0174222D02*
X0201948Y0173724D01*
X0203252Y0173724D01*
X0204456Y0174222D01*
X0205378Y0175144D01*
X0205876Y0176348D01*
X0205876Y0177652D01*
X0205378Y0178856D01*
X0204456Y0179778D01*
X0203252Y0180276D01*
X0201948Y0180276D01*
X0200744Y0179778D01*
X0199822Y0178856D01*
X0199324Y0177652D01*
X0199324Y0176348D01*
X0199822Y0175144D01*
X0200744Y0174222D01*
X0199640Y0175586D02*
X0028613Y0175586D01*
X0028613Y0176784D02*
X0199324Y0176784D01*
X0199461Y0177983D02*
X0028379Y0177983D01*
X0027883Y0179181D02*
X0200148Y0179181D01*
X0200744Y0181222D02*
X0201948Y0180724D01*
X0203252Y0180724D01*
X0204456Y0181222D01*
X0205378Y0182144D01*
X0205876Y0183348D01*
X0205876Y0184652D01*
X0205378Y0185856D01*
X0204456Y0186778D01*
X0203252Y0187276D01*
X0201948Y0187276D01*
X0200744Y0186778D01*
X0199822Y0185856D01*
X0199324Y0184652D01*
X0199324Y0183348D01*
X0199822Y0182144D01*
X0200744Y0181222D01*
X0200388Y0181578D02*
X0005059Y0181578D01*
X0005059Y0180380D02*
X0010939Y0180380D01*
X0009742Y0179181D02*
X0005059Y0179181D01*
X0005059Y0177983D02*
X0009246Y0177983D01*
X0009013Y0176784D02*
X0005059Y0176784D01*
X0005059Y0175586D02*
X0009013Y0175586D01*
X0009478Y0174387D02*
X0005059Y0174387D01*
X0005059Y0173189D02*
X0010300Y0173189D01*
X0017325Y0173189D02*
X0020300Y0173189D01*
X0019478Y0174387D02*
X0018148Y0174387D01*
X0018613Y0175586D02*
X0019013Y0175586D01*
X0019013Y0176784D02*
X0018613Y0176784D01*
X0018379Y0177983D02*
X0019246Y0177983D01*
X0019742Y0179181D02*
X0017883Y0179181D01*
X0016686Y0180380D02*
X0020939Y0180380D01*
X0021094Y0182395D02*
X0022858Y0181665D01*
X0024767Y0181665D01*
X0026532Y0182395D01*
X0027882Y0183746D01*
X0028613Y0185510D01*
X0028613Y0187419D01*
X0027882Y0189184D01*
X0026532Y0190534D01*
X0024767Y0191265D01*
X0022858Y0191265D01*
X0021094Y0190534D01*
X0019743Y0189184D01*
X0019013Y0187419D01*
X0019013Y0185510D01*
X0019743Y0183746D01*
X0021094Y0182395D01*
X0020712Y0182777D02*
X0016913Y0182777D01*
X0016532Y0182395D02*
X0017882Y0183746D01*
X0018613Y0185510D01*
X0018613Y0187419D01*
X0017882Y0189184D01*
X0016532Y0190534D01*
X0014767Y0191265D01*
X0012858Y0191265D01*
X0011094Y0190534D01*
X0009743Y0189184D01*
X0009013Y0187419D01*
X0009013Y0185510D01*
X0009743Y0183746D01*
X0011094Y0182395D01*
X0012858Y0181665D01*
X0014767Y0181665D01*
X0016532Y0182395D01*
X0017977Y0183975D02*
X0019648Y0183975D01*
X0019152Y0185174D02*
X0018473Y0185174D01*
X0018613Y0186372D02*
X0019013Y0186372D01*
X0019075Y0187571D02*
X0018550Y0187571D01*
X0018053Y0188769D02*
X0019572Y0188769D01*
X0020528Y0189968D02*
X0017098Y0189968D01*
X0015005Y0191166D02*
X0022621Y0191166D01*
X0022858Y0191665D02*
X0024767Y0191665D01*
X0026532Y0192395D01*
X0027882Y0193746D01*
X0028613Y0195510D01*
X0028613Y0197419D01*
X0027882Y0199184D01*
X0026532Y0200534D01*
X0024767Y0201265D01*
X0022858Y0201265D01*
X0021094Y0200534D01*
X0019743Y0199184D01*
X0019013Y0197419D01*
X0019013Y0195510D01*
X0019743Y0193746D01*
X0021094Y0192395D01*
X0022858Y0191665D01*
X0021167Y0192365D02*
X0016458Y0192365D01*
X0016532Y0192395D02*
X0017882Y0193746D01*
X0018613Y0195510D01*
X0018613Y0197419D01*
X0017882Y0199184D01*
X0016532Y0200534D01*
X0014767Y0201265D01*
X0012858Y0201265D01*
X0011094Y0200534D01*
X0009743Y0199184D01*
X0009013Y0197419D01*
X0009013Y0195510D01*
X0009743Y0193746D01*
X0011094Y0192395D01*
X0012858Y0191665D01*
X0014767Y0191665D01*
X0016532Y0192395D01*
X0017700Y0193563D02*
X0019926Y0193563D01*
X0019322Y0194762D02*
X0018303Y0194762D01*
X0018613Y0195960D02*
X0019013Y0195960D01*
X0019013Y0197159D02*
X0018613Y0197159D01*
X0018224Y0198357D02*
X0019401Y0198357D01*
X0020116Y0199556D02*
X0017510Y0199556D01*
X0015999Y0200754D02*
X0021626Y0200754D01*
X0022162Y0201953D02*
X0015463Y0201953D01*
X0014767Y0201665D02*
X0016532Y0202395D01*
X0017882Y0203746D01*
X0018613Y0205510D01*
X0018613Y0207419D01*
X0017882Y0209184D01*
X0016532Y0210534D01*
X0014767Y0211265D01*
X0012858Y0211265D01*
X0011094Y0210534D01*
X0009743Y0209184D01*
X0009013Y0207419D01*
X0009013Y0205510D01*
X0009743Y0203746D01*
X0011094Y0202395D01*
X0012858Y0201665D01*
X0014767Y0201665D01*
X0012162Y0201953D02*
X0005059Y0201953D01*
X0005059Y0203151D02*
X0010338Y0203151D01*
X0009493Y0204350D02*
X0005059Y0204350D01*
X0005059Y0205548D02*
X0009013Y0205548D01*
X0009013Y0206747D02*
X0005059Y0206747D01*
X0005059Y0207945D02*
X0009231Y0207945D01*
X0009727Y0209144D02*
X0005059Y0209144D01*
X0005059Y0210342D02*
X0010902Y0210342D01*
X0011094Y0212395D02*
X0012858Y0211665D01*
X0014767Y0211665D01*
X0016532Y0212395D01*
X0017882Y0213746D01*
X0018613Y0215510D01*
X0018613Y0217419D01*
X0017882Y0219184D01*
X0016532Y0220534D01*
X0014767Y0221265D01*
X0012858Y0221265D01*
X0011094Y0220534D01*
X0009743Y0219184D01*
X0009013Y0217419D01*
X0009013Y0215510D01*
X0009743Y0213746D01*
X0011094Y0212395D01*
X0010749Y0212739D02*
X0005059Y0212739D01*
X0005059Y0211541D02*
X0037507Y0211541D01*
X0037744Y0211778D02*
X0036822Y0210856D01*
X0036324Y0209652D01*
X0036324Y0208348D01*
X0036822Y0207144D01*
X0037744Y0206222D01*
X0038948Y0205724D01*
X0040252Y0205724D01*
X0041456Y0206222D01*
X0041850Y0206616D01*
X0042244Y0206222D01*
X0043448Y0205724D01*
X0044752Y0205724D01*
X0045956Y0206222D01*
X0046878Y0207144D01*
X0047376Y0208348D01*
X0047376Y0209652D01*
X0046878Y0210856D01*
X0045956Y0211778D01*
X0044752Y0212276D01*
X0043448Y0212276D01*
X0042244Y0211778D01*
X0041850Y0211383D01*
X0041456Y0211778D01*
X0040252Y0212276D01*
X0038948Y0212276D01*
X0037744Y0211778D01*
X0036610Y0210342D02*
X0026723Y0210342D01*
X0026532Y0210534D02*
X0024767Y0211265D01*
X0022858Y0211265D01*
X0021094Y0210534D01*
X0019743Y0209184D01*
X0019013Y0207419D01*
X0019013Y0205510D01*
X0019743Y0203746D01*
X0021094Y0202395D01*
X0022858Y0201665D01*
X0024767Y0201665D01*
X0026532Y0202395D01*
X0027882Y0203746D01*
X0028613Y0205510D01*
X0028613Y0207419D01*
X0027882Y0209184D01*
X0026532Y0210534D01*
X0026532Y0212395D02*
X0027882Y0213746D01*
X0028613Y0215510D01*
X0028613Y0217419D01*
X0027882Y0219184D01*
X0026532Y0220534D01*
X0024767Y0221265D01*
X0022858Y0221265D01*
X0021094Y0220534D01*
X0019743Y0219184D01*
X0019013Y0217419D01*
X0019013Y0215510D01*
X0019743Y0213746D01*
X0021094Y0212395D01*
X0022858Y0211665D01*
X0024767Y0211665D01*
X0026532Y0212395D01*
X0026876Y0212739D02*
X0104576Y0212739D01*
X0104822Y0212144D02*
X0104966Y0212000D01*
X0104822Y0211856D01*
X0104324Y0210652D01*
X0104324Y0209348D01*
X0104822Y0208144D01*
X0105744Y0207222D01*
X0106948Y0206724D01*
X0108252Y0206724D01*
X0109456Y0207222D01*
X0110378Y0208144D01*
X0110876Y0209348D01*
X0110876Y0210652D01*
X0110378Y0211856D01*
X0110233Y0212000D01*
X0110378Y0212144D01*
X0110876Y0213348D01*
X0110876Y0214652D01*
X0110378Y0215856D01*
X0109456Y0216778D01*
X0108252Y0217276D01*
X0106948Y0217276D01*
X0105744Y0216778D01*
X0104822Y0215856D01*
X0104324Y0214652D01*
X0104324Y0213348D01*
X0104822Y0212144D01*
X0104692Y0211541D02*
X0046193Y0211541D01*
X0047090Y0210342D02*
X0104324Y0210342D01*
X0104408Y0209144D02*
X0047376Y0209144D01*
X0047209Y0207945D02*
X0105021Y0207945D01*
X0106892Y0206747D02*
X0046480Y0206747D01*
X0042007Y0211541D02*
X0041693Y0211541D01*
X0036324Y0209144D02*
X0027898Y0209144D01*
X0028395Y0207945D02*
X0036490Y0207945D01*
X0037220Y0206747D02*
X0028613Y0206747D01*
X0028613Y0205548D02*
X0236600Y0205548D01*
X0236600Y0204350D02*
X0028132Y0204350D01*
X0027288Y0203151D02*
X0236600Y0203151D01*
X0236600Y0201953D02*
X0025463Y0201953D01*
X0025999Y0200754D02*
X0200721Y0200754D01*
X0200744Y0200778D02*
X0199822Y0199856D01*
X0199324Y0198652D01*
X0199324Y0197348D01*
X0199822Y0196144D01*
X0200744Y0195222D01*
X0201948Y0194724D01*
X0203252Y0194724D01*
X0204456Y0195222D01*
X0205378Y0196144D01*
X0205876Y0197348D01*
X0205876Y0198652D01*
X0205378Y0199856D01*
X0204456Y0200778D01*
X0203252Y0201276D01*
X0201948Y0201276D01*
X0200744Y0200778D01*
X0199698Y0199556D02*
X0027510Y0199556D01*
X0028224Y0198357D02*
X0199324Y0198357D01*
X0199402Y0197159D02*
X0028613Y0197159D01*
X0028613Y0195960D02*
X0200006Y0195960D01*
X0201856Y0194762D02*
X0139472Y0194762D01*
X0139456Y0194778D02*
X0138252Y0195276D01*
X0136948Y0195276D01*
X0135744Y0194778D01*
X0134822Y0193856D01*
X0134324Y0192652D01*
X0134324Y0191348D01*
X0134822Y0190144D01*
X0135744Y0189222D01*
X0136281Y0189000D01*
X0135744Y0188778D01*
X0134822Y0187856D01*
X0134324Y0186652D01*
X0134324Y0185348D01*
X0134822Y0184144D01*
X0135744Y0183222D01*
X0136948Y0182724D01*
X0138252Y0182724D01*
X0139456Y0183222D01*
X0140378Y0184144D01*
X0140876Y0185348D01*
X0140876Y0186652D01*
X0140378Y0187856D01*
X0139456Y0188778D01*
X0138919Y0189000D01*
X0139456Y0189222D01*
X0140378Y0190144D01*
X0140876Y0191348D01*
X0140876Y0192652D01*
X0140378Y0193856D01*
X0139456Y0194778D01*
X0140499Y0193563D02*
X0200530Y0193563D01*
X0200744Y0193778D02*
X0199822Y0192856D01*
X0199324Y0191652D01*
X0199324Y0190348D01*
X0199822Y0189144D01*
X0200744Y0188222D01*
X0201948Y0187724D01*
X0203252Y0187724D01*
X0204456Y0188222D01*
X0205378Y0189144D01*
X0205876Y0190348D01*
X0205876Y0191652D01*
X0205378Y0192856D01*
X0204456Y0193778D01*
X0203252Y0194276D01*
X0201948Y0194276D01*
X0200744Y0193778D01*
X0199619Y0192365D02*
X0140876Y0192365D01*
X0140801Y0191166D02*
X0199324Y0191166D01*
X0199481Y0189968D02*
X0140201Y0189968D01*
X0139464Y0188769D02*
X0200197Y0188769D01*
X0200339Y0186372D02*
X0140876Y0186372D01*
X0140804Y0185174D02*
X0199540Y0185174D01*
X0199324Y0183975D02*
X0140209Y0183975D01*
X0138380Y0182777D02*
X0199560Y0182777D01*
X0204812Y0181578D02*
X0236600Y0181578D01*
X0236600Y0180380D02*
X0026686Y0180380D01*
X0026913Y0182777D02*
X0136820Y0182777D01*
X0134991Y0183975D02*
X0027977Y0183975D01*
X0028473Y0185174D02*
X0134396Y0185174D01*
X0134324Y0186372D02*
X0028613Y0186372D01*
X0028550Y0187571D02*
X0134704Y0187571D01*
X0135736Y0188769D02*
X0028053Y0188769D01*
X0027098Y0189968D02*
X0134999Y0189968D01*
X0134399Y0191166D02*
X0025005Y0191166D01*
X0026458Y0192365D02*
X0134324Y0192365D01*
X0134701Y0193563D02*
X0027700Y0193563D01*
X0028303Y0194762D02*
X0135728Y0194762D01*
X0140496Y0187571D02*
X0236600Y0187571D01*
X0236600Y0188769D02*
X0205003Y0188769D01*
X0205719Y0189968D02*
X0236600Y0189968D01*
X0236600Y0191166D02*
X0205876Y0191166D01*
X0205581Y0192365D02*
X0236600Y0192365D01*
X0236600Y0193563D02*
X0204670Y0193563D01*
X0203344Y0194762D02*
X0236600Y0194762D01*
X0236600Y0195960D02*
X0205194Y0195960D01*
X0205798Y0197159D02*
X0236600Y0197159D01*
X0236600Y0198357D02*
X0205876Y0198357D01*
X0205502Y0199556D02*
X0236600Y0199556D01*
X0236600Y0200754D02*
X0204479Y0200754D01*
X0204861Y0186372D02*
X0236600Y0186372D01*
X0236600Y0185174D02*
X0205660Y0185174D01*
X0205876Y0183975D02*
X0236600Y0183975D01*
X0236600Y0182777D02*
X0205640Y0182777D01*
X0205052Y0179181D02*
X0236600Y0179181D01*
X0236600Y0177983D02*
X0205739Y0177983D01*
X0205876Y0176784D02*
X0236600Y0176784D01*
X0236600Y0175586D02*
X0205560Y0175586D01*
X0204621Y0174387D02*
X0236600Y0174387D01*
X0261890Y0174387D02*
X0326704Y0174387D01*
X0327639Y0174000D02*
X0324698Y0175218D01*
X0322448Y0177468D01*
X0321230Y0180409D01*
X0321230Y0183591D01*
X0322448Y0186532D01*
X0324698Y0188782D01*
X0327639Y0190000D01*
X0330821Y0190000D01*
X0333762Y0188782D01*
X0336012Y0186532D01*
X0337230Y0183591D01*
X0337230Y0180409D01*
X0336012Y0177468D01*
X0333762Y0175218D01*
X0330821Y0174000D01*
X0327639Y0174000D01*
X0324331Y0175586D02*
X0261893Y0175586D01*
X0261895Y0176784D02*
X0323132Y0176784D01*
X0322235Y0177983D02*
X0261897Y0177983D01*
X0261899Y0179181D02*
X0321738Y0179181D01*
X0321242Y0180380D02*
X0261901Y0180380D01*
X0261903Y0181578D02*
X0321230Y0181578D01*
X0321230Y0182777D02*
X0261905Y0182777D01*
X0261907Y0183975D02*
X0321389Y0183975D01*
X0321885Y0185174D02*
X0261909Y0185174D01*
X0261911Y0186372D02*
X0288594Y0186372D01*
X0288744Y0186222D02*
X0289948Y0185724D01*
X0291252Y0185724D01*
X0292456Y0186222D01*
X0293378Y0187144D01*
X0293876Y0188348D01*
X0293876Y0189652D01*
X0293378Y0190856D01*
X0292456Y0191778D01*
X0291252Y0192276D01*
X0289948Y0192276D01*
X0288744Y0191778D01*
X0287822Y0190856D01*
X0287324Y0189652D01*
X0287324Y0188348D01*
X0287822Y0187144D01*
X0288744Y0186222D01*
X0287646Y0187571D02*
X0261913Y0187571D01*
X0261915Y0188769D02*
X0287324Y0188769D01*
X0287455Y0189968D02*
X0261917Y0189968D01*
X0261919Y0191166D02*
X0288133Y0191166D01*
X0293067Y0191166D02*
X0348823Y0191166D01*
X0348313Y0189968D02*
X0330899Y0189968D01*
X0333774Y0188769D02*
X0347802Y0188769D01*
X0347519Y0188106D02*
X0347519Y0188106D01*
X0346671Y0182884D01*
X0346671Y0182884D01*
X0347096Y0177610D01*
X0348772Y0172591D01*
X0351600Y0168120D01*
X0351600Y0168120D01*
X0355415Y0164455D01*
X0355416Y0164455D01*
X0357706Y0163132D01*
X0358461Y0162697D01*
X0360142Y0163147D01*
X0360542Y0163839D01*
X0379828Y0197243D01*
X0380698Y0198751D01*
X0380248Y0200433D01*
X0379493Y0200868D01*
X0377202Y0202191D01*
X0372121Y0203663D01*
X0372121Y0203663D01*
X0366834Y0203876D01*
X0361650Y0202818D01*
X0356870Y0200549D01*
X0352772Y0197203D01*
X0349593Y0192974D01*
X0349593Y0192973D01*
X0347519Y0188106D01*
X0347432Y0187571D02*
X0334973Y0187571D01*
X0336078Y0186372D02*
X0347238Y0186372D01*
X0347043Y0185174D02*
X0336574Y0185174D01*
X0337071Y0183975D02*
X0346848Y0183975D01*
X0346679Y0182777D02*
X0337230Y0182777D01*
X0337230Y0181578D02*
X0346776Y0181578D01*
X0346873Y0180380D02*
X0337218Y0180380D01*
X0336721Y0179181D02*
X0346970Y0179181D01*
X0347066Y0177983D02*
X0336225Y0177983D01*
X0335328Y0176784D02*
X0347372Y0176784D01*
X0347096Y0177610D02*
X0347096Y0177610D01*
X0347772Y0175586D02*
X0334129Y0175586D01*
X0331756Y0174387D02*
X0348172Y0174387D01*
X0348573Y0173189D02*
X0261888Y0173189D01*
X0261886Y0171990D02*
X0349152Y0171990D01*
X0348772Y0172591D02*
X0348772Y0172591D01*
X0349910Y0170792D02*
X0261884Y0170792D01*
X0261882Y0169593D02*
X0331171Y0169593D01*
X0329974Y0169097D02*
X0327723Y0166847D01*
X0326506Y0163906D01*
X0326506Y0160724D01*
X0327723Y0157783D01*
X0329974Y0155533D01*
X0332914Y0154315D01*
X0336097Y0154315D01*
X0339037Y0155533D01*
X0341288Y0157783D01*
X0342505Y0160724D01*
X0342505Y0163906D01*
X0341288Y0166847D01*
X0339037Y0169097D01*
X0336097Y0170315D01*
X0332914Y0170315D01*
X0329974Y0169097D01*
X0329271Y0168395D02*
X0261880Y0168395D01*
X0261878Y0167196D02*
X0328073Y0167196D01*
X0327372Y0165998D02*
X0261876Y0165998D01*
X0261874Y0164799D02*
X0326875Y0164799D01*
X0326506Y0163601D02*
X0261872Y0163601D01*
X0261870Y0162402D02*
X0326506Y0162402D01*
X0326506Y0161203D02*
X0261868Y0161203D01*
X0261866Y0160005D02*
X0326803Y0160005D01*
X0327300Y0158806D02*
X0261864Y0158806D01*
X0261862Y0157608D02*
X0327899Y0157608D01*
X0329097Y0156409D02*
X0261860Y0156409D01*
X0261858Y0155211D02*
X0330751Y0155211D01*
X0338260Y0155211D02*
X0345647Y0155211D01*
X0344383Y0154688D02*
X0342133Y0152437D01*
X0340915Y0149497D01*
X0340915Y0146314D01*
X0342133Y0143374D01*
X0344383Y0141123D01*
X0347324Y0139906D01*
X0350506Y0139906D01*
X0353447Y0141123D01*
X0355697Y0143374D01*
X0356915Y0146314D01*
X0356915Y0149497D01*
X0355697Y0152437D01*
X0353447Y0154688D01*
X0350506Y0155905D01*
X0347324Y0155905D01*
X0344383Y0154688D01*
X0343708Y0154012D02*
X0261856Y0154012D01*
X0261854Y0152814D02*
X0342510Y0152814D01*
X0341793Y0151615D02*
X0261852Y0151615D01*
X0261850Y0150417D02*
X0281383Y0150417D01*
X0281744Y0150778D02*
X0280822Y0149856D01*
X0280324Y0148652D01*
X0280324Y0147348D01*
X0280822Y0146144D01*
X0281744Y0145222D01*
X0282948Y0144724D01*
X0284252Y0144724D01*
X0285456Y0145222D01*
X0286378Y0146144D01*
X0286876Y0147348D01*
X0286876Y0148652D01*
X0286378Y0149856D01*
X0285456Y0150778D01*
X0284252Y0151276D01*
X0282948Y0151276D01*
X0281744Y0150778D01*
X0280558Y0149218D02*
X0261848Y0149218D01*
X0261846Y0148020D02*
X0280324Y0148020D01*
X0280542Y0146821D02*
X0261844Y0146821D01*
X0261842Y0145623D02*
X0281344Y0145623D01*
X0285856Y0145623D02*
X0341201Y0145623D01*
X0340915Y0146821D02*
X0286658Y0146821D01*
X0286876Y0148020D02*
X0340915Y0148020D01*
X0340915Y0149218D02*
X0286642Y0149218D01*
X0285817Y0150417D02*
X0341296Y0150417D01*
X0341698Y0144424D02*
X0261840Y0144424D01*
X0261838Y0143226D02*
X0342281Y0143226D01*
X0343479Y0142027D02*
X0261836Y0142027D01*
X0261834Y0140829D02*
X0345095Y0140829D01*
X0352735Y0140829D02*
X0360687Y0140829D01*
X0360600Y0141039D02*
X0361818Y0138098D01*
X0364068Y0135848D01*
X0367009Y0134630D01*
X0370191Y0134630D01*
X0373132Y0135848D01*
X0375382Y0138098D01*
X0376600Y0141039D01*
X0376600Y0144221D01*
X0375382Y0147162D01*
X0373132Y0149412D01*
X0370191Y0150630D01*
X0367009Y0150630D01*
X0364068Y0149412D01*
X0361818Y0147162D01*
X0360600Y0144221D01*
X0360600Y0141039D01*
X0360600Y0142027D02*
X0354350Y0142027D01*
X0355549Y0143226D02*
X0360600Y0143226D01*
X0360684Y0144424D02*
X0356132Y0144424D01*
X0356629Y0145623D02*
X0361181Y0145623D01*
X0361677Y0146821D02*
X0356915Y0146821D01*
X0356915Y0148020D02*
X0362676Y0148020D01*
X0363875Y0149218D02*
X0356915Y0149218D01*
X0356534Y0150417D02*
X0366494Y0150417D01*
X0370706Y0150417D02*
X0380666Y0150417D01*
X0380285Y0149218D02*
X0373325Y0149218D01*
X0374524Y0148020D02*
X0380285Y0148020D01*
X0380285Y0146821D02*
X0375523Y0146821D01*
X0376019Y0145623D02*
X0380571Y0145623D01*
X0381068Y0144424D02*
X0376516Y0144424D01*
X0376600Y0143226D02*
X0381651Y0143226D01*
X0382850Y0142027D02*
X0376600Y0142027D01*
X0376513Y0140829D02*
X0384465Y0140829D01*
X0376017Y0139630D02*
X0454750Y0139630D01*
X0454750Y0138439D02*
X0455945Y0135553D01*
X0458153Y0133345D01*
X0461039Y0132150D01*
X0464161Y0132150D01*
X0467047Y0133345D01*
X0469255Y0135553D01*
X0470450Y0138439D01*
X0470450Y0141561D01*
X0469255Y0144447D01*
X0467047Y0146655D01*
X0464161Y0147850D01*
X0461039Y0147850D01*
X0458153Y0146655D01*
X0455945Y0144447D01*
X0454750Y0141561D01*
X0454750Y0138439D01*
X0454753Y0138432D02*
X0375520Y0138432D01*
X0374517Y0137233D02*
X0455249Y0137233D01*
X0455746Y0136035D02*
X0373319Y0136035D01*
X0370689Y0134836D02*
X0456662Y0134836D01*
X0457861Y0133638D02*
X0290468Y0133638D01*
X0290378Y0133856D02*
X0289456Y0134778D01*
X0288252Y0135276D01*
X0286948Y0135276D01*
X0285744Y0134778D01*
X0284822Y0133856D01*
X0284324Y0132652D01*
X0284324Y0131348D01*
X0284822Y0130144D01*
X0285744Y0129222D01*
X0286948Y0128724D01*
X0288252Y0128724D01*
X0289456Y0129222D01*
X0290378Y0130144D01*
X0290876Y0131348D01*
X0290876Y0132652D01*
X0290378Y0133856D01*
X0289314Y0134836D02*
X0366511Y0134836D01*
X0363881Y0136035D02*
X0261825Y0136035D01*
X0261827Y0137233D02*
X0362683Y0137233D01*
X0361680Y0138432D02*
X0261830Y0138432D01*
X0261832Y0139630D02*
X0361183Y0139630D01*
X0356037Y0151615D02*
X0381163Y0151615D01*
X0381880Y0152814D02*
X0355320Y0152814D01*
X0354122Y0154012D02*
X0383078Y0154012D01*
X0385017Y0155211D02*
X0352183Y0155211D01*
X0356895Y0163601D02*
X0342505Y0163601D01*
X0342505Y0162402D02*
X0390800Y0162402D01*
X0390800Y0163601D02*
X0360404Y0163601D01*
X0361096Y0164799D02*
X0390800Y0164799D01*
X0390800Y0165998D02*
X0361788Y0165998D01*
X0362480Y0167196D02*
X0390800Y0167196D01*
X0390800Y0168395D02*
X0363172Y0168395D01*
X0363864Y0169593D02*
X0391233Y0169593D01*
X0392432Y0170792D02*
X0364556Y0170792D01*
X0365248Y0171990D02*
X0393630Y0171990D01*
X0394829Y0173189D02*
X0365940Y0173189D01*
X0366632Y0174387D02*
X0396027Y0174387D01*
X0397226Y0175586D02*
X0367324Y0175586D01*
X0368016Y0176784D02*
X0398424Y0176784D01*
X0399623Y0177983D02*
X0368708Y0177983D01*
X0369400Y0179181D02*
X0400479Y0179181D01*
X0399982Y0180380D02*
X0370092Y0180380D01*
X0370784Y0181578D02*
X0399970Y0181578D01*
X0399970Y0182777D02*
X0371476Y0182777D01*
X0372168Y0183975D02*
X0400129Y0183975D01*
X0400626Y0185174D02*
X0372859Y0185174D01*
X0373551Y0186372D02*
X0401122Y0186372D01*
X0402227Y0187571D02*
X0374243Y0187571D01*
X0374935Y0188769D02*
X0403426Y0188769D01*
X0406301Y0189968D02*
X0375627Y0189968D01*
X0376319Y0191166D02*
X0412806Y0191166D01*
X0411608Y0189968D02*
X0409639Y0189968D01*
X0413725Y0188125D02*
X0415091Y0186758D01*
X0416370Y0183671D01*
X0416370Y0180329D01*
X0415091Y0177242D01*
X0412728Y0174879D01*
X0409641Y0173600D01*
X0406299Y0173600D01*
X0403212Y0174879D01*
X0401845Y0176245D01*
X0393600Y0168000D01*
X0393600Y0154470D01*
X0394070Y0154000D01*
X0400818Y0154000D01*
X0397936Y0155194D01*
X0395573Y0157557D01*
X0394294Y0160644D01*
X0394294Y0163986D01*
X0395573Y0167073D01*
X0397936Y0169436D01*
X0401024Y0170715D01*
X0404365Y0170715D01*
X0407453Y0169436D01*
X0409816Y0167073D01*
X0411094Y0163986D01*
X0411094Y0160644D01*
X0409816Y0157557D01*
X0407453Y0155194D01*
X0404571Y0154000D01*
X0427400Y0154000D01*
X0427400Y0155034D01*
X0428192Y0156946D01*
X0429654Y0158408D01*
X0431566Y0159200D01*
X0433634Y0159200D01*
X0435546Y0158408D01*
X0437008Y0156946D01*
X0437800Y0155034D01*
X0437800Y0154000D01*
X0475100Y0154000D01*
X0475100Y0202500D01*
X0428100Y0202500D01*
X0413725Y0188125D01*
X0414279Y0187571D02*
X0455091Y0187571D01*
X0454594Y0188769D02*
X0414369Y0188769D01*
X0415568Y0189968D02*
X0454350Y0189968D01*
X0454350Y0189359D02*
X0455606Y0186327D01*
X0457927Y0184006D01*
X0460959Y0182750D01*
X0464241Y0182750D01*
X0467273Y0184006D01*
X0469594Y0186327D01*
X0470850Y0189359D01*
X0470850Y0192641D01*
X0469594Y0195673D01*
X0467273Y0197994D01*
X0464241Y0199250D01*
X0460959Y0199250D01*
X0457927Y0197994D01*
X0455606Y0195673D01*
X0454350Y0192641D01*
X0454350Y0189359D01*
X0454350Y0191166D02*
X0416766Y0191166D01*
X0417965Y0192365D02*
X0454350Y0192365D01*
X0454732Y0193563D02*
X0419163Y0193563D01*
X0420362Y0194762D02*
X0455228Y0194762D01*
X0455893Y0195960D02*
X0421560Y0195960D01*
X0422759Y0197159D02*
X0457092Y0197159D01*
X0458804Y0198357D02*
X0423957Y0198357D01*
X0425156Y0199556D02*
X0475100Y0199556D01*
X0475100Y0200754D02*
X0426354Y0200754D01*
X0427553Y0201953D02*
X0475100Y0201953D01*
X0475100Y0198357D02*
X0466396Y0198357D01*
X0468108Y0197159D02*
X0475100Y0197159D01*
X0475100Y0195960D02*
X0469307Y0195960D01*
X0469972Y0194762D02*
X0475100Y0194762D01*
X0475100Y0193563D02*
X0470468Y0193563D01*
X0470850Y0192365D02*
X0475100Y0192365D01*
X0475100Y0191166D02*
X0470850Y0191166D01*
X0470850Y0189968D02*
X0475100Y0189968D01*
X0475100Y0188769D02*
X0470606Y0188769D01*
X0470109Y0187571D02*
X0475100Y0187571D01*
X0475100Y0186372D02*
X0469613Y0186372D01*
X0468441Y0185174D02*
X0475100Y0185174D01*
X0475100Y0183975D02*
X0467199Y0183975D01*
X0464305Y0182777D02*
X0475100Y0182777D01*
X0475100Y0181578D02*
X0416370Y0181578D01*
X0416370Y0180380D02*
X0475100Y0180380D01*
X0475100Y0179181D02*
X0464407Y0179181D01*
X0464241Y0179250D02*
X0460959Y0179250D01*
X0457927Y0177994D01*
X0455606Y0175673D01*
X0454350Y0172641D01*
X0454350Y0169359D01*
X0455606Y0166327D01*
X0457927Y0164006D01*
X0460959Y0162750D01*
X0464241Y0162750D01*
X0467273Y0164006D01*
X0469594Y0166327D01*
X0470850Y0169359D01*
X0470850Y0172641D01*
X0469594Y0175673D01*
X0467273Y0177994D01*
X0464241Y0179250D01*
X0467285Y0177983D02*
X0475100Y0177983D01*
X0475100Y0176784D02*
X0468483Y0176784D01*
X0469630Y0175586D02*
X0475100Y0175586D01*
X0475100Y0174387D02*
X0470127Y0174387D01*
X0470623Y0173189D02*
X0475100Y0173189D01*
X0475100Y0171990D02*
X0470850Y0171990D01*
X0470850Y0170792D02*
X0475100Y0170792D01*
X0475100Y0169593D02*
X0470850Y0169593D01*
X0470451Y0168395D02*
X0475100Y0168395D01*
X0475100Y0167196D02*
X0469954Y0167196D01*
X0469265Y0165998D02*
X0475100Y0165998D01*
X0475100Y0164799D02*
X0468066Y0164799D01*
X0466294Y0163601D02*
X0475100Y0163601D01*
X0475100Y0162402D02*
X0411094Y0162402D01*
X0411094Y0163601D02*
X0458906Y0163601D01*
X0457134Y0164799D02*
X0410758Y0164799D01*
X0410261Y0165998D02*
X0455935Y0165998D01*
X0455246Y0167196D02*
X0409693Y0167196D01*
X0408494Y0168395D02*
X0454749Y0168395D01*
X0454350Y0169593D02*
X0407074Y0169593D01*
X0404399Y0174387D02*
X0399987Y0174387D01*
X0398789Y0173189D02*
X0454577Y0173189D01*
X0454350Y0171990D02*
X0397590Y0171990D01*
X0396392Y0170792D02*
X0454350Y0170792D01*
X0455073Y0174387D02*
X0411541Y0174387D01*
X0413435Y0175586D02*
X0455570Y0175586D01*
X0456717Y0176784D02*
X0414634Y0176784D01*
X0415398Y0177983D02*
X0457915Y0177983D01*
X0460793Y0179181D02*
X0415895Y0179181D01*
X0416370Y0182777D02*
X0460895Y0182777D01*
X0458001Y0183975D02*
X0416244Y0183975D01*
X0415748Y0185174D02*
X0456759Y0185174D01*
X0455587Y0186372D02*
X0415251Y0186372D01*
X0414005Y0192365D02*
X0377011Y0192365D01*
X0377703Y0193563D02*
X0415204Y0193563D01*
X0416402Y0194762D02*
X0406885Y0194762D01*
X0407226Y0194903D02*
X0409477Y0197153D01*
X0410694Y0200094D01*
X0410694Y0203276D01*
X0409477Y0206217D01*
X0407226Y0208467D01*
X0404286Y0209685D01*
X0401103Y0209685D01*
X0398163Y0208467D01*
X0395912Y0206217D01*
X0394694Y0203276D01*
X0394694Y0200094D01*
X0395912Y0197153D01*
X0398163Y0194903D01*
X0401103Y0193685D01*
X0404286Y0193685D01*
X0407226Y0194903D01*
X0408283Y0195960D02*
X0417601Y0195960D01*
X0418799Y0197159D02*
X0409479Y0197159D01*
X0409975Y0198357D02*
X0419998Y0198357D01*
X0421196Y0199556D02*
X0410472Y0199556D01*
X0410694Y0200754D02*
X0422395Y0200754D01*
X0423593Y0201953D02*
X0410694Y0201953D01*
X0410694Y0203151D02*
X0424792Y0203151D01*
X0425990Y0204350D02*
X0410250Y0204350D01*
X0409753Y0205548D02*
X0475200Y0205548D01*
X0475200Y0206747D02*
X0408946Y0206747D01*
X0407748Y0207945D02*
X0475200Y0207945D01*
X0475200Y0209144D02*
X0405592Y0209144D01*
X0399797Y0209144D02*
X0392410Y0209144D01*
X0392817Y0209312D02*
X0395067Y0211563D01*
X0396285Y0214503D01*
X0396285Y0217686D01*
X0395067Y0220626D01*
X0392817Y0222877D01*
X0389876Y0224094D01*
X0386694Y0224094D01*
X0383753Y0222877D01*
X0381503Y0220626D01*
X0380285Y0217686D01*
X0380285Y0214503D01*
X0381503Y0211563D01*
X0383753Y0209312D01*
X0386694Y0208094D01*
X0389876Y0208094D01*
X0392817Y0209312D01*
X0393847Y0210342D02*
X0475200Y0210342D01*
X0475200Y0211541D02*
X0395045Y0211541D01*
X0395554Y0212739D02*
X0475200Y0212739D01*
X0475200Y0213938D02*
X0396051Y0213938D01*
X0396285Y0215137D02*
X0475200Y0215137D01*
X0475200Y0216335D02*
X0396285Y0216335D01*
X0396285Y0217534D02*
X0475200Y0217534D01*
X0475200Y0218732D02*
X0395852Y0218732D01*
X0395355Y0219931D02*
X0475200Y0219931D01*
X0475200Y0221129D02*
X0394564Y0221129D01*
X0393366Y0222328D02*
X0475200Y0222328D01*
X0475200Y0223526D02*
X0391249Y0223526D01*
X0385322Y0223526D02*
X0376366Y0223526D01*
X0376600Y0222961D02*
X0375382Y0225902D01*
X0373132Y0228152D01*
X0370191Y0229370D01*
X0367009Y0229370D01*
X0364068Y0228152D01*
X0361818Y0225902D01*
X0360600Y0222961D01*
X0360600Y0219779D01*
X0361818Y0216838D01*
X0364068Y0214588D01*
X0367009Y0213370D01*
X0370191Y0213370D01*
X0373132Y0214588D01*
X0375382Y0216838D01*
X0376600Y0219779D01*
X0376600Y0222961D01*
X0376600Y0222328D02*
X0383204Y0222328D01*
X0382006Y0221129D02*
X0376600Y0221129D01*
X0376600Y0219931D02*
X0381215Y0219931D01*
X0380718Y0218732D02*
X0376166Y0218732D01*
X0375670Y0217534D02*
X0380285Y0217534D01*
X0380285Y0216335D02*
X0374879Y0216335D01*
X0373680Y0215137D02*
X0380285Y0215137D01*
X0380519Y0213938D02*
X0371562Y0213938D01*
X0365638Y0213938D02*
X0356681Y0213938D01*
X0356915Y0214503D02*
X0355697Y0211563D01*
X0353447Y0209312D01*
X0350506Y0208094D01*
X0347324Y0208094D01*
X0344383Y0209312D01*
X0342133Y0211563D01*
X0340915Y0214503D01*
X0340915Y0217686D01*
X0342133Y0220626D01*
X0344383Y0222877D01*
X0347324Y0224094D01*
X0350506Y0224094D01*
X0353447Y0222877D01*
X0355697Y0220626D01*
X0356915Y0217686D01*
X0356915Y0214503D01*
X0356915Y0215137D02*
X0363520Y0215137D01*
X0362321Y0216335D02*
X0356915Y0216335D01*
X0356915Y0217534D02*
X0361530Y0217534D01*
X0361034Y0218732D02*
X0356482Y0218732D01*
X0355985Y0219931D02*
X0360600Y0219931D01*
X0360600Y0221129D02*
X0355194Y0221129D01*
X0353996Y0222328D02*
X0360600Y0222328D01*
X0360834Y0223526D02*
X0351878Y0223526D01*
X0345951Y0223526D02*
X0261974Y0223526D01*
X0261972Y0222328D02*
X0343834Y0222328D01*
X0342636Y0221129D02*
X0261970Y0221129D01*
X0261968Y0219931D02*
X0341845Y0219931D01*
X0341348Y0218732D02*
X0261966Y0218732D01*
X0261964Y0217534D02*
X0340915Y0217534D01*
X0340915Y0216335D02*
X0261962Y0216335D01*
X0261960Y0215137D02*
X0340915Y0215137D01*
X0341149Y0213938D02*
X0261958Y0213938D01*
X0261955Y0212739D02*
X0341645Y0212739D01*
X0342155Y0211541D02*
X0261953Y0211541D01*
X0261951Y0210342D02*
X0343353Y0210342D01*
X0344790Y0209144D02*
X0337403Y0209144D01*
X0336097Y0209685D02*
X0339037Y0208467D01*
X0341288Y0206217D01*
X0342505Y0203276D01*
X0342505Y0200094D01*
X0341288Y0197153D01*
X0339037Y0194903D01*
X0336097Y0193685D01*
X0332914Y0193685D01*
X0329974Y0194903D01*
X0327723Y0197153D01*
X0326506Y0200094D01*
X0326506Y0203276D01*
X0327723Y0206217D01*
X0329974Y0208467D01*
X0332914Y0209685D01*
X0336097Y0209685D01*
X0339559Y0207945D02*
X0397641Y0207945D01*
X0396443Y0206747D02*
X0340757Y0206747D01*
X0341564Y0205548D02*
X0395636Y0205548D01*
X0395139Y0204350D02*
X0342061Y0204350D01*
X0342505Y0203151D02*
X0363285Y0203151D01*
X0361650Y0202818D02*
X0361650Y0202818D01*
X0359828Y0201953D02*
X0342505Y0201953D01*
X0342505Y0200754D02*
X0357302Y0200754D01*
X0356870Y0200549D02*
X0356870Y0200549D01*
X0355653Y0199556D02*
X0342283Y0199556D01*
X0341786Y0198357D02*
X0354185Y0198357D01*
X0352772Y0197203D02*
X0352772Y0197203D01*
X0352772Y0197203D01*
X0352738Y0197159D02*
X0341290Y0197159D01*
X0340095Y0195960D02*
X0351838Y0195960D01*
X0350937Y0194762D02*
X0338696Y0194762D01*
X0330315Y0194762D02*
X0261925Y0194762D01*
X0261927Y0195960D02*
X0328917Y0195960D01*
X0327721Y0197159D02*
X0261929Y0197159D01*
X0261931Y0198357D02*
X0327225Y0198357D01*
X0326728Y0199556D02*
X0261933Y0199556D01*
X0261935Y0200754D02*
X0326506Y0200754D01*
X0326506Y0201953D02*
X0261937Y0201953D01*
X0261939Y0203151D02*
X0326506Y0203151D01*
X0326950Y0204350D02*
X0261941Y0204350D01*
X0261943Y0205548D02*
X0327447Y0205548D01*
X0328254Y0206747D02*
X0261945Y0206747D01*
X0261947Y0207945D02*
X0329452Y0207945D01*
X0331608Y0209144D02*
X0261949Y0209144D01*
X0261976Y0224725D02*
X0361330Y0224725D01*
X0361839Y0225923D02*
X0261978Y0225923D01*
X0261980Y0227122D02*
X0282427Y0227122D01*
X0282577Y0226972D02*
X0283890Y0226428D01*
X0285310Y0226428D01*
X0286623Y0226972D01*
X0287628Y0227977D01*
X0288172Y0229290D01*
X0288172Y0230710D01*
X0287628Y0232023D01*
X0286623Y0233028D01*
X0285310Y0233572D01*
X0283890Y0233572D01*
X0282577Y0233028D01*
X0281572Y0232023D01*
X0281028Y0230710D01*
X0281028Y0229290D01*
X0281572Y0227977D01*
X0282577Y0226972D01*
X0281430Y0228320D02*
X0261982Y0228320D01*
X0261984Y0229519D02*
X0281028Y0229519D01*
X0281031Y0230717D02*
X0261986Y0230717D01*
X0261988Y0231916D02*
X0262985Y0231916D01*
X0265215Y0231916D02*
X0267485Y0231916D01*
X0269715Y0231916D02*
X0271985Y0231916D01*
X0274215Y0231916D02*
X0276485Y0231916D01*
X0278715Y0231916D02*
X0281528Y0231916D01*
X0280348Y0233114D02*
X0282785Y0233114D01*
X0280862Y0234313D02*
X0458887Y0234313D01*
X0458807Y0234120D02*
X0458807Y0231131D01*
X0459951Y0228370D01*
X0462064Y0226256D01*
X0464826Y0225113D01*
X0467815Y0225113D01*
X0470576Y0226256D01*
X0472690Y0228370D01*
X0473834Y0231131D01*
X0473834Y0234120D01*
X0472690Y0236882D01*
X0470576Y0238996D01*
X0467815Y0240139D01*
X0464826Y0240139D01*
X0462064Y0238996D01*
X0459951Y0236882D01*
X0458807Y0234120D01*
X0458807Y0233114D02*
X0435210Y0233114D01*
X0435319Y0233069D02*
X0433555Y0233800D01*
X0431645Y0233800D01*
X0429881Y0233069D01*
X0428531Y0231719D01*
X0427800Y0229955D01*
X0427800Y0228045D01*
X0428531Y0226281D01*
X0429881Y0224931D01*
X0431645Y0224200D01*
X0433555Y0224200D01*
X0435319Y0224931D01*
X0436669Y0226281D01*
X0437400Y0228045D01*
X0437400Y0229955D01*
X0436669Y0231719D01*
X0435319Y0233069D01*
X0436473Y0231916D02*
X0458807Y0231916D01*
X0458979Y0230717D02*
X0437084Y0230717D01*
X0437400Y0229519D02*
X0459475Y0229519D01*
X0460001Y0228320D02*
X0437400Y0228320D01*
X0437017Y0227122D02*
X0461199Y0227122D01*
X0462869Y0225923D02*
X0436311Y0225923D01*
X0434821Y0224725D02*
X0475200Y0224725D01*
X0475200Y0225923D02*
X0469772Y0225923D01*
X0471442Y0227122D02*
X0475200Y0227122D01*
X0475200Y0228320D02*
X0472640Y0228320D01*
X0473166Y0229519D02*
X0475200Y0229519D01*
X0475200Y0230717D02*
X0473662Y0230717D01*
X0473834Y0231916D02*
X0475200Y0231916D01*
X0475200Y0233114D02*
X0473834Y0233114D01*
X0473754Y0234313D02*
X0475200Y0234313D01*
X0475200Y0235511D02*
X0473258Y0235511D01*
X0472761Y0236710D02*
X0475200Y0236710D01*
X0475200Y0237908D02*
X0471664Y0237908D01*
X0470308Y0239107D02*
X0475200Y0239107D01*
X0475200Y0240305D02*
X0357346Y0240305D01*
X0357628Y0240023D02*
X0356623Y0241028D01*
X0355310Y0241572D01*
X0353890Y0241572D01*
X0352577Y0241028D01*
X0351572Y0240023D01*
X0351028Y0238710D01*
X0351028Y0237290D01*
X0351572Y0235977D01*
X0352577Y0234972D01*
X0353890Y0234428D01*
X0355310Y0234428D01*
X0356623Y0234972D01*
X0357628Y0235977D01*
X0358172Y0237290D01*
X0358172Y0238710D01*
X0357628Y0240023D01*
X0358008Y0239107D02*
X0462333Y0239107D01*
X0460977Y0237908D02*
X0358172Y0237908D01*
X0357931Y0236710D02*
X0459880Y0236710D01*
X0459383Y0235511D02*
X0357162Y0235511D01*
X0352038Y0235511D02*
X0280876Y0235511D01*
X0280438Y0236710D02*
X0351269Y0236710D01*
X0351028Y0237908D02*
X0280487Y0237908D01*
X0280876Y0239107D02*
X0351192Y0239107D01*
X0351854Y0240305D02*
X0280813Y0240305D01*
X0280230Y0241504D02*
X0353726Y0241504D01*
X0355474Y0241504D02*
X0475200Y0241504D01*
X0475200Y0242702D02*
X0280609Y0242702D01*
X0280876Y0243901D02*
X0475200Y0243901D01*
X0475200Y0245099D02*
X0280691Y0245099D01*
X0279936Y0246298D02*
X0432169Y0246298D01*
X0431822Y0246644D02*
X0432744Y0245722D01*
X0433948Y0245224D01*
X0435252Y0245224D01*
X0436456Y0245722D01*
X0437378Y0246644D01*
X0437876Y0247848D01*
X0437876Y0249152D01*
X0437378Y0250356D01*
X0436456Y0251278D01*
X0435252Y0251776D01*
X0433948Y0251776D01*
X0432744Y0251278D01*
X0431822Y0250356D01*
X0431324Y0249152D01*
X0431324Y0247848D01*
X0431822Y0246644D01*
X0431469Y0247496D02*
X0262014Y0247496D01*
X0262016Y0248695D02*
X0431324Y0248695D01*
X0431631Y0249893D02*
X0262018Y0249893D01*
X0262020Y0251092D02*
X0342059Y0251092D01*
X0341744Y0251222D02*
X0342948Y0250724D01*
X0344252Y0250724D01*
X0345456Y0251222D01*
X0346378Y0252144D01*
X0346876Y0253348D01*
X0346876Y0254652D01*
X0346378Y0255856D01*
X0345456Y0256778D01*
X0344252Y0257276D01*
X0342948Y0257276D01*
X0341744Y0256778D01*
X0340822Y0255856D01*
X0340324Y0254652D01*
X0340324Y0253348D01*
X0340822Y0252144D01*
X0341744Y0251222D01*
X0340762Y0252290D02*
X0262023Y0252290D01*
X0262025Y0253489D02*
X0340324Y0253489D01*
X0340338Y0254687D02*
X0262027Y0254687D01*
X0262029Y0255886D02*
X0340852Y0255886D01*
X0342485Y0257084D02*
X0262031Y0257084D01*
X0262033Y0258283D02*
X0475200Y0258283D01*
X0475200Y0259481D02*
X0262035Y0259481D01*
X0262037Y0260680D02*
X0475200Y0260680D01*
X0475200Y0261878D02*
X0262039Y0261878D01*
X0262041Y0263077D02*
X0475200Y0263077D01*
X0475200Y0264275D02*
X0264477Y0264275D01*
X0263743Y0263542D02*
X0263743Y0263542D01*
X0263743Y0263541D01*
X0262677Y0263100D02*
X0262677Y0263100D01*
X0262677Y0263100D01*
X0265000Y0265474D02*
X0475200Y0265474D01*
X0475200Y0266672D02*
X0265000Y0266672D01*
X0265000Y0267871D02*
X0475200Y0267871D01*
X0475200Y0269070D02*
X0343803Y0269070D01*
X0343456Y0268722D02*
X0344378Y0269644D01*
X0344876Y0270848D01*
X0344876Y0272152D01*
X0344378Y0273356D01*
X0343456Y0274278D01*
X0342252Y0274776D01*
X0340948Y0274776D01*
X0339744Y0274278D01*
X0338822Y0273356D01*
X0338324Y0272152D01*
X0338324Y0270848D01*
X0338822Y0269644D01*
X0339744Y0268722D01*
X0340948Y0268224D01*
X0342252Y0268224D01*
X0343456Y0268722D01*
X0344636Y0270268D02*
X0399698Y0270268D01*
X0399322Y0270644D02*
X0400244Y0269722D01*
X0401448Y0269224D01*
X0402752Y0269224D01*
X0403956Y0269722D01*
X0404878Y0270644D01*
X0405376Y0271848D01*
X0405376Y0273152D01*
X0404878Y0274356D01*
X0403956Y0275278D01*
X0402752Y0275776D01*
X0401448Y0275776D01*
X0400244Y0275278D01*
X0399322Y0274356D01*
X0398824Y0273152D01*
X0398824Y0271848D01*
X0399322Y0270644D01*
X0398982Y0271467D02*
X0344876Y0271467D01*
X0344664Y0272665D02*
X0398824Y0272665D01*
X0399118Y0273864D02*
X0343870Y0273864D01*
X0339330Y0273864D02*
X0265000Y0273864D01*
X0265000Y0275062D02*
X0400029Y0275062D01*
X0404171Y0275062D02*
X0475200Y0275062D01*
X0475200Y0273864D02*
X0405082Y0273864D01*
X0405376Y0272665D02*
X0475200Y0272665D01*
X0475200Y0271467D02*
X0405218Y0271467D01*
X0404502Y0270268D02*
X0475200Y0270268D01*
X0475200Y0276261D02*
X0265000Y0276261D01*
X0265000Y0277459D02*
X0475200Y0277459D01*
X0475200Y0278658D02*
X0341094Y0278658D01*
X0341547Y0278845D02*
X0338661Y0277650D01*
X0335539Y0277650D01*
X0332653Y0278845D01*
X0330445Y0281053D01*
X0329250Y0283939D01*
X0329250Y0287061D01*
X0330445Y0289947D01*
X0332653Y0292155D01*
X0335539Y0293350D01*
X0338661Y0293350D01*
X0341547Y0292155D01*
X0343755Y0289947D01*
X0344950Y0287061D01*
X0344950Y0283939D01*
X0343755Y0281053D01*
X0341547Y0278845D01*
X0342558Y0279856D02*
X0475200Y0279856D01*
X0475200Y0281055D02*
X0343755Y0281055D01*
X0344252Y0282253D02*
X0475200Y0282253D01*
X0475200Y0283452D02*
X0344748Y0283452D01*
X0344950Y0284650D02*
X0475200Y0284650D01*
X0475200Y0285849D02*
X0466777Y0285849D01*
X0468137Y0287047D02*
X0475120Y0287047D01*
X0474824Y0288246D02*
X0468500Y0288246D01*
X0468500Y0289444D02*
X0474478Y0289444D01*
X0473803Y0290643D02*
X0468500Y0290643D01*
X0468500Y0291841D02*
X0472995Y0291841D01*
X0471750Y0293040D02*
X0468500Y0293040D01*
X0468500Y0294238D02*
X0469788Y0294238D01*
X0475200Y0257084D02*
X0344715Y0257084D01*
X0346348Y0255886D02*
X0475200Y0255886D01*
X0475200Y0254687D02*
X0346862Y0254687D01*
X0346876Y0253489D02*
X0475200Y0253489D01*
X0475200Y0252290D02*
X0346438Y0252290D01*
X0345141Y0251092D02*
X0432558Y0251092D01*
X0436642Y0251092D02*
X0453558Y0251092D01*
X0453744Y0251278D02*
X0452822Y0250356D01*
X0452324Y0249152D01*
X0452324Y0247848D01*
X0452822Y0246644D01*
X0453744Y0245722D01*
X0454948Y0245224D01*
X0456252Y0245224D01*
X0457456Y0245722D01*
X0458378Y0246644D01*
X0458876Y0247848D01*
X0458876Y0249152D01*
X0458378Y0250356D01*
X0457456Y0251278D01*
X0456252Y0251776D01*
X0454948Y0251776D01*
X0453744Y0251278D01*
X0452631Y0249893D02*
X0437569Y0249893D01*
X0437876Y0248695D02*
X0452324Y0248695D01*
X0452469Y0247496D02*
X0437731Y0247496D01*
X0437031Y0246298D02*
X0453169Y0246298D01*
X0458031Y0246298D02*
X0475200Y0246298D01*
X0475200Y0247496D02*
X0458731Y0247496D01*
X0458876Y0248695D02*
X0475200Y0248695D01*
X0475200Y0249893D02*
X0458569Y0249893D01*
X0457642Y0251092D02*
X0475200Y0251092D01*
X0429990Y0233114D02*
X0286415Y0233114D01*
X0287672Y0231916D02*
X0428727Y0231916D01*
X0428116Y0230717D02*
X0288169Y0230717D01*
X0288172Y0229519D02*
X0427800Y0229519D01*
X0427800Y0228320D02*
X0372726Y0228320D01*
X0374162Y0227122D02*
X0428183Y0227122D01*
X0428889Y0225923D02*
X0375361Y0225923D01*
X0375870Y0224725D02*
X0430379Y0224725D01*
X0394694Y0203151D02*
X0373886Y0203151D01*
X0377202Y0202191D02*
X0377202Y0202191D01*
X0377615Y0201953D02*
X0394694Y0201953D01*
X0394694Y0200754D02*
X0379691Y0200754D01*
X0380482Y0199556D02*
X0394917Y0199556D01*
X0395414Y0198357D02*
X0380471Y0198357D01*
X0379828Y0197243D02*
X0379828Y0197243D01*
X0379779Y0197159D02*
X0395910Y0197159D01*
X0397105Y0195960D02*
X0379087Y0195960D01*
X0378395Y0194762D02*
X0398504Y0194762D01*
X0384160Y0209144D02*
X0353040Y0209144D01*
X0354477Y0210342D02*
X0382723Y0210342D01*
X0381525Y0211541D02*
X0355675Y0211541D01*
X0356184Y0212739D02*
X0381016Y0212739D01*
X0366834Y0203876D02*
X0366834Y0203876D01*
X0350037Y0193563D02*
X0261923Y0193563D01*
X0261921Y0192365D02*
X0349334Y0192365D01*
X0327561Y0189968D02*
X0293745Y0189968D01*
X0293876Y0188769D02*
X0324685Y0188769D01*
X0323487Y0187571D02*
X0293554Y0187571D01*
X0292606Y0186372D02*
X0322382Y0186372D01*
X0337840Y0169593D02*
X0350668Y0169593D01*
X0351426Y0168395D02*
X0339740Y0168395D01*
X0340938Y0167196D02*
X0352561Y0167196D01*
X0353809Y0165998D02*
X0341639Y0165998D01*
X0342136Y0164799D02*
X0355057Y0164799D01*
X0342505Y0161203D02*
X0390800Y0161203D01*
X0390800Y0160005D02*
X0342208Y0160005D01*
X0341711Y0158806D02*
X0390800Y0158806D01*
X0390800Y0157608D02*
X0341112Y0157608D01*
X0339914Y0156409D02*
X0390800Y0156409D01*
X0393600Y0156409D02*
X0396721Y0156409D01*
X0395552Y0157608D02*
X0393600Y0157608D01*
X0393600Y0158806D02*
X0395056Y0158806D01*
X0394559Y0160005D02*
X0393600Y0160005D01*
X0393600Y0161203D02*
X0394294Y0161203D01*
X0394294Y0162402D02*
X0393600Y0162402D01*
X0393600Y0163601D02*
X0394294Y0163601D01*
X0394631Y0164799D02*
X0393600Y0164799D01*
X0393600Y0165998D02*
X0395128Y0165998D01*
X0395696Y0167196D02*
X0393600Y0167196D01*
X0393995Y0168395D02*
X0396895Y0168395D01*
X0398315Y0169593D02*
X0395193Y0169593D01*
X0401186Y0175586D02*
X0402505Y0175586D01*
X0411094Y0161203D02*
X0475100Y0161203D01*
X0475100Y0160005D02*
X0410830Y0160005D01*
X0410333Y0158806D02*
X0430616Y0158806D01*
X0428854Y0157608D02*
X0409837Y0157608D01*
X0408668Y0156409D02*
X0427970Y0156409D01*
X0427473Y0155211D02*
X0407470Y0155211D01*
X0404601Y0154012D02*
X0427400Y0154012D01*
X0429395Y0150417D02*
X0395904Y0150417D01*
X0396285Y0149218D02*
X0431601Y0149218D01*
X0433599Y0149218D02*
X0475200Y0149218D01*
X0475200Y0148020D02*
X0396285Y0148020D01*
X0396285Y0146821D02*
X0458555Y0146821D01*
X0457121Y0145623D02*
X0395999Y0145623D01*
X0395502Y0144424D02*
X0455936Y0144424D01*
X0455439Y0143226D02*
X0394919Y0143226D01*
X0393721Y0142027D02*
X0454943Y0142027D01*
X0454750Y0140829D02*
X0392105Y0140829D01*
X0394057Y0154012D02*
X0400788Y0154012D01*
X0397919Y0155211D02*
X0393600Y0155211D01*
X0434584Y0158806D02*
X0475100Y0158806D01*
X0475100Y0157608D02*
X0436346Y0157608D01*
X0437230Y0156409D02*
X0475100Y0156409D01*
X0475100Y0155211D02*
X0437727Y0155211D01*
X0437800Y0154012D02*
X0475100Y0154012D01*
X0475200Y0150417D02*
X0435805Y0150417D01*
X0460340Y0132439D02*
X0290876Y0132439D01*
X0290832Y0131241D02*
X0475200Y0131241D01*
X0475200Y0132439D02*
X0464860Y0132439D01*
X0467339Y0133638D02*
X0475200Y0133638D01*
X0475200Y0134836D02*
X0468538Y0134836D01*
X0469454Y0136035D02*
X0475200Y0136035D01*
X0475200Y0137233D02*
X0469951Y0137233D01*
X0470447Y0138432D02*
X0475200Y0138432D01*
X0475200Y0139630D02*
X0470450Y0139630D01*
X0470450Y0140829D02*
X0475200Y0140829D01*
X0475200Y0142027D02*
X0470257Y0142027D01*
X0469761Y0143226D02*
X0475200Y0143226D01*
X0475200Y0144424D02*
X0469264Y0144424D01*
X0468079Y0145623D02*
X0475200Y0145623D01*
X0475200Y0146821D02*
X0466645Y0146821D01*
X0475200Y0130042D02*
X0290276Y0130042D01*
X0288542Y0128844D02*
X0475200Y0128844D01*
X0475200Y0127645D02*
X0464656Y0127645D01*
X0464161Y0127850D02*
X0461039Y0127850D01*
X0458153Y0126655D01*
X0455945Y0124447D01*
X0454750Y0121561D01*
X0454750Y0118439D01*
X0455945Y0115553D01*
X0458153Y0113345D01*
X0461039Y0112150D01*
X0464161Y0112150D01*
X0467047Y0113345D01*
X0469255Y0115553D01*
X0470450Y0118439D01*
X0470450Y0121561D01*
X0469255Y0124447D01*
X0467047Y0126655D01*
X0464161Y0127850D01*
X0467255Y0126447D02*
X0475200Y0126447D01*
X0475200Y0125248D02*
X0468453Y0125248D01*
X0469419Y0124050D02*
X0475200Y0124050D01*
X0475200Y0122851D02*
X0469916Y0122851D01*
X0470412Y0121653D02*
X0475200Y0121653D01*
X0475200Y0120454D02*
X0470450Y0120454D01*
X0470450Y0119256D02*
X0475200Y0119256D01*
X0475200Y0118057D02*
X0470292Y0118057D01*
X0469796Y0116859D02*
X0475200Y0116859D01*
X0475200Y0115660D02*
X0469299Y0115660D01*
X0468163Y0114462D02*
X0475200Y0114462D01*
X0475200Y0113263D02*
X0466849Y0113263D01*
X0475200Y0112065D02*
X0315759Y0112065D01*
X0315876Y0112348D02*
X0315378Y0111144D01*
X0314456Y0110222D01*
X0313252Y0109724D01*
X0311948Y0109724D01*
X0310744Y0110222D01*
X0309822Y0111144D01*
X0309324Y0112348D01*
X0309324Y0113652D01*
X0309822Y0114856D01*
X0310744Y0115778D01*
X0311948Y0116276D01*
X0313252Y0116276D01*
X0314456Y0115778D01*
X0315378Y0114856D01*
X0315876Y0113652D01*
X0315876Y0112348D01*
X0315876Y0113263D02*
X0458351Y0113263D01*
X0457037Y0114462D02*
X0315541Y0114462D01*
X0314573Y0115660D02*
X0455901Y0115660D01*
X0455404Y0116859D02*
X0261793Y0116859D01*
X0261795Y0118057D02*
X0454908Y0118057D01*
X0454750Y0119256D02*
X0261797Y0119256D01*
X0261799Y0120454D02*
X0454750Y0120454D01*
X0454788Y0121653D02*
X0261801Y0121653D01*
X0261803Y0122851D02*
X0455284Y0122851D01*
X0455781Y0124050D02*
X0261805Y0124050D01*
X0261807Y0125248D02*
X0456747Y0125248D01*
X0457945Y0126447D02*
X0261809Y0126447D01*
X0261811Y0127645D02*
X0460544Y0127645D01*
X0475200Y0110866D02*
X0315100Y0110866D01*
X0310100Y0110866D02*
X0308100Y0110866D01*
X0308378Y0111144D02*
X0308876Y0112348D01*
X0308876Y0113652D01*
X0308378Y0114856D01*
X0307456Y0115778D01*
X0306252Y0116276D01*
X0304948Y0116276D01*
X0303744Y0115778D01*
X0302822Y0114856D01*
X0302324Y0113652D01*
X0302324Y0112348D01*
X0302822Y0111144D01*
X0303744Y0110222D01*
X0304948Y0109724D01*
X0306252Y0109724D01*
X0307456Y0110222D01*
X0308378Y0111144D01*
X0308759Y0112065D02*
X0309441Y0112065D01*
X0309324Y0113263D02*
X0308876Y0113263D01*
X0308541Y0114462D02*
X0309659Y0114462D01*
X0310627Y0115660D02*
X0307573Y0115660D01*
X0303627Y0115660D02*
X0261791Y0115660D01*
X0261789Y0114462D02*
X0302659Y0114462D01*
X0302324Y0113263D02*
X0275970Y0113263D01*
X0276378Y0112856D02*
X0275456Y0113778D01*
X0274252Y0114276D01*
X0272948Y0114276D01*
X0271744Y0113778D01*
X0270822Y0112856D01*
X0270324Y0111652D01*
X0270324Y0110348D01*
X0270822Y0109144D01*
X0271744Y0108222D01*
X0272948Y0107724D01*
X0274252Y0107724D01*
X0275456Y0108222D01*
X0276378Y0109144D01*
X0276876Y0110348D01*
X0276876Y0111652D01*
X0276378Y0112856D01*
X0276705Y0112065D02*
X0302441Y0112065D01*
X0303100Y0110866D02*
X0276876Y0110866D01*
X0276594Y0109668D02*
X0475200Y0109668D01*
X0475200Y0108469D02*
X0275702Y0108469D01*
X0271497Y0108469D02*
X0261779Y0108469D01*
X0261781Y0109668D02*
X0270606Y0109668D01*
X0270324Y0110866D02*
X0261783Y0110866D01*
X0261785Y0112065D02*
X0270495Y0112065D01*
X0271230Y0113263D02*
X0261787Y0113263D01*
X0261777Y0107270D02*
X0475200Y0107270D01*
X0475200Y0106072D02*
X0261775Y0106072D01*
X0261773Y0104873D02*
X0475200Y0104873D01*
X0475200Y0103675D02*
X0261771Y0103675D01*
X0261769Y0102476D02*
X0475200Y0102476D01*
X0475200Y0101278D02*
X0382580Y0101278D01*
X0381200Y0101850D02*
X0378018Y0101850D01*
X0375077Y0100632D01*
X0372827Y0098381D01*
X0371609Y0095441D01*
X0371609Y0092258D01*
X0372827Y0089318D01*
X0375077Y0087067D01*
X0378018Y0085850D01*
X0381200Y0085850D01*
X0384140Y0087067D01*
X0386391Y0089318D01*
X0387609Y0092258D01*
X0387609Y0095441D01*
X0386391Y0098381D01*
X0384140Y0100632D01*
X0381200Y0101850D01*
X0384693Y0100079D02*
X0475200Y0100079D01*
X0475200Y0098881D02*
X0385891Y0098881D01*
X0386680Y0097682D02*
X0475200Y0097682D01*
X0475200Y0096484D02*
X0387177Y0096484D01*
X0387609Y0095285D02*
X0475200Y0095285D01*
X0475200Y0094087D02*
X0387609Y0094087D01*
X0387609Y0092888D02*
X0475200Y0092888D01*
X0475200Y0091690D02*
X0387373Y0091690D01*
X0386877Y0090491D02*
X0475200Y0090491D01*
X0475200Y0089293D02*
X0386366Y0089293D01*
X0385167Y0088094D02*
X0475200Y0088094D01*
X0475200Y0086896D02*
X0383726Y0086896D01*
X0384739Y0081781D02*
X0381556Y0081781D01*
X0378616Y0080563D01*
X0376365Y0078313D01*
X0375147Y0075372D01*
X0375147Y0072190D01*
X0376365Y0069249D01*
X0378616Y0066999D01*
X0381556Y0065781D01*
X0384739Y0065781D01*
X0387679Y0066999D01*
X0389929Y0069249D01*
X0391147Y0072190D01*
X0391147Y0075372D01*
X0389929Y0078313D01*
X0387679Y0080563D01*
X0384739Y0081781D01*
X0386858Y0080903D02*
X0475200Y0080903D01*
X0475200Y0079705D02*
X0388538Y0079705D01*
X0389736Y0078506D02*
X0475200Y0078506D01*
X0475200Y0077308D02*
X0390346Y0077308D01*
X0390842Y0076109D02*
X0475200Y0076109D01*
X0475200Y0074911D02*
X0391147Y0074911D01*
X0391147Y0073712D02*
X0475200Y0073712D01*
X0475200Y0072514D02*
X0391147Y0072514D01*
X0390785Y0071315D02*
X0475200Y0071315D01*
X0475200Y0070117D02*
X0390289Y0070117D01*
X0389598Y0068918D02*
X0475200Y0068918D01*
X0475200Y0067720D02*
X0388400Y0067720D01*
X0386525Y0066521D02*
X0475200Y0066521D01*
X0475200Y0065323D02*
X0261706Y0065323D01*
X0261708Y0066521D02*
X0379770Y0066521D01*
X0377895Y0067720D02*
X0261710Y0067720D01*
X0261712Y0068918D02*
X0376697Y0068918D01*
X0376006Y0070117D02*
X0261714Y0070117D01*
X0261716Y0071315D02*
X0375510Y0071315D01*
X0375147Y0072514D02*
X0261718Y0072514D01*
X0261720Y0073712D02*
X0375147Y0073712D01*
X0375147Y0074911D02*
X0261722Y0074911D01*
X0261724Y0076109D02*
X0375453Y0076109D01*
X0375949Y0077308D02*
X0261726Y0077308D01*
X0261728Y0078506D02*
X0376559Y0078506D01*
X0377757Y0079705D02*
X0261730Y0079705D01*
X0261732Y0080903D02*
X0379437Y0080903D01*
X0375492Y0086896D02*
X0261742Y0086896D01*
X0261744Y0088094D02*
X0292053Y0088094D01*
X0291744Y0088222D02*
X0292948Y0087724D01*
X0294252Y0087724D01*
X0295456Y0088222D01*
X0296378Y0089144D01*
X0296876Y0090348D01*
X0296876Y0091652D01*
X0296378Y0092856D01*
X0295456Y0093778D01*
X0294252Y0094276D01*
X0292948Y0094276D01*
X0291744Y0093778D01*
X0290822Y0092856D01*
X0290324Y0091652D01*
X0290324Y0090348D01*
X0290822Y0089144D01*
X0291744Y0088222D01*
X0290761Y0089293D02*
X0261746Y0089293D01*
X0261748Y0090491D02*
X0290324Y0090491D01*
X0290339Y0091690D02*
X0261750Y0091690D01*
X0261752Y0092888D02*
X0290855Y0092888D01*
X0292491Y0094087D02*
X0261754Y0094087D01*
X0261756Y0095285D02*
X0371609Y0095285D01*
X0371609Y0094087D02*
X0294709Y0094087D01*
X0296345Y0092888D02*
X0371609Y0092888D01*
X0371844Y0091690D02*
X0296861Y0091690D01*
X0296876Y0090491D02*
X0372341Y0090491D01*
X0372852Y0089293D02*
X0296439Y0089293D01*
X0295147Y0088094D02*
X0374050Y0088094D01*
X0372041Y0096484D02*
X0261758Y0096484D01*
X0261760Y0097682D02*
X0372537Y0097682D01*
X0373326Y0098881D02*
X0261762Y0098881D01*
X0261765Y0100079D02*
X0374525Y0100079D01*
X0376638Y0101278D02*
X0261767Y0101278D01*
X0261740Y0085697D02*
X0475200Y0085697D01*
X0475200Y0084499D02*
X0261738Y0084499D01*
X0261736Y0083300D02*
X0475200Y0083300D01*
X0475200Y0082102D02*
X0261734Y0082102D01*
X0261704Y0064124D02*
X0371887Y0064124D01*
X0369811Y0062926D02*
X0261702Y0062926D01*
X0261700Y0061727D02*
X0368613Y0061727D01*
X0367612Y0060529D02*
X0261697Y0060529D01*
X0261695Y0059330D02*
X0366920Y0059330D01*
X0366383Y0058132D02*
X0261693Y0058132D01*
X0236600Y0084499D02*
X0179732Y0084499D01*
X0179876Y0085697D02*
X0236600Y0085697D01*
X0236600Y0086896D02*
X0179568Y0086896D01*
X0178639Y0088094D02*
X0236600Y0088094D01*
X0236600Y0101278D02*
X0085011Y0101278D01*
X0086862Y0102476D02*
X0236600Y0102476D01*
X0236600Y0103675D02*
X0088390Y0103675D01*
X0091107Y0104873D02*
X0236600Y0104873D01*
X0236600Y0106072D02*
X0092055Y0106072D01*
X0094504Y0107270D02*
X0236600Y0107270D01*
X0236600Y0108469D02*
X0096844Y0108469D01*
X0098387Y0109668D02*
X0236600Y0109668D01*
X0236600Y0110866D02*
X0136595Y0110866D01*
X0134604Y0110866D02*
X0130595Y0110866D01*
X0128604Y0110866D02*
X0126095Y0110866D01*
X0124104Y0110866D02*
X0121095Y0110866D01*
X0119104Y0110866D02*
X0116095Y0110866D01*
X0114104Y0110866D02*
X0111095Y0110866D01*
X0109104Y0110866D02*
X0106095Y0110866D01*
X0104104Y0110866D02*
X0101095Y0110866D01*
X0099105Y0110866D02*
X0098876Y0110866D01*
X0101760Y0116859D02*
X0103440Y0116859D01*
X0106760Y0116859D02*
X0108440Y0116859D01*
X0111760Y0116859D02*
X0113440Y0116859D01*
X0116760Y0116859D02*
X0118440Y0116859D01*
X0121760Y0116859D02*
X0123440Y0116859D01*
X0126760Y0116859D02*
X0127940Y0116859D01*
X0131260Y0116859D02*
X0133940Y0116859D01*
X0132741Y0115660D02*
X0132459Y0115660D01*
X0132298Y0112065D02*
X0132902Y0112065D01*
X0138298Y0112065D02*
X0236600Y0112065D01*
X0236600Y0113263D02*
X0138841Y0113263D01*
X0138876Y0114462D02*
X0236600Y0114462D01*
X0236600Y0115660D02*
X0138459Y0115660D01*
X0137260Y0116859D02*
X0236600Y0116859D01*
X0236600Y0118057D02*
X0028132Y0118057D01*
X0019283Y0115660D02*
X0018613Y0115660D01*
X0018178Y0114462D02*
X0019670Y0114462D01*
X0020509Y0113263D02*
X0017399Y0113263D01*
X0010638Y0122851D02*
X0005059Y0122851D01*
X0005059Y0124050D02*
X0009617Y0124050D01*
X0009121Y0125248D02*
X0005059Y0125248D01*
X0005059Y0126447D02*
X0009013Y0126447D01*
X0009106Y0127645D02*
X0005059Y0127645D01*
X0005059Y0128844D02*
X0009603Y0128844D01*
X0010602Y0130042D02*
X0005059Y0130042D01*
X0026575Y0132439D02*
X0132200Y0132439D01*
X0131824Y0133638D02*
X0027774Y0133638D01*
X0028334Y0134836D02*
X0131900Y0134836D01*
X0132501Y0136035D02*
X0028613Y0136035D01*
X0026950Y0152814D02*
X0236600Y0152814D01*
X0236600Y0154012D02*
X0027992Y0154012D01*
X0010675Y0152814D02*
X0005059Y0152814D01*
X0005059Y0154012D02*
X0009633Y0154012D01*
X0009136Y0155211D02*
X0005059Y0155211D01*
X0005059Y0156409D02*
X0009013Y0156409D01*
X0009091Y0157608D02*
X0005059Y0157608D01*
X0005059Y0158806D02*
X0009587Y0158806D01*
X0010565Y0160005D02*
X0005059Y0160005D01*
X0005059Y0182777D02*
X0010712Y0182777D01*
X0009648Y0183975D02*
X0005059Y0183975D01*
X0005059Y0185174D02*
X0009152Y0185174D01*
X0009013Y0186372D02*
X0005059Y0186372D01*
X0005059Y0187571D02*
X0009075Y0187571D01*
X0009572Y0188769D02*
X0005059Y0188769D01*
X0005059Y0189968D02*
X0010528Y0189968D01*
X0012621Y0191166D02*
X0005059Y0191166D01*
X0005059Y0192365D02*
X0011167Y0192365D01*
X0009926Y0193563D02*
X0005059Y0193563D01*
X0005059Y0194762D02*
X0009322Y0194762D01*
X0009013Y0195960D02*
X0005059Y0195960D01*
X0005059Y0197159D02*
X0009013Y0197159D01*
X0009401Y0198357D02*
X0005059Y0198357D01*
X0005059Y0199556D02*
X0010116Y0199556D01*
X0011626Y0200754D02*
X0005059Y0200754D01*
X0017288Y0203151D02*
X0020338Y0203151D01*
X0019493Y0204350D02*
X0018132Y0204350D01*
X0018613Y0205548D02*
X0019013Y0205548D01*
X0019013Y0206747D02*
X0018613Y0206747D01*
X0018395Y0207945D02*
X0019231Y0207945D01*
X0019727Y0209144D02*
X0017898Y0209144D01*
X0016723Y0210342D02*
X0020902Y0210342D01*
X0020749Y0212739D02*
X0016876Y0212739D01*
X0017962Y0213938D02*
X0019664Y0213938D01*
X0019167Y0215137D02*
X0018458Y0215137D01*
X0018613Y0216335D02*
X0019013Y0216335D01*
X0019060Y0217534D02*
X0018565Y0217534D01*
X0018069Y0218732D02*
X0019556Y0218732D01*
X0020490Y0219931D02*
X0017135Y0219931D01*
X0015094Y0221129D02*
X0022531Y0221129D01*
X0022858Y0221665D02*
X0024767Y0221665D01*
X0026532Y0222395D01*
X0027882Y0223746D01*
X0028613Y0225510D01*
X0028613Y0227419D01*
X0027882Y0229184D01*
X0026532Y0230534D01*
X0024767Y0231265D01*
X0022858Y0231265D01*
X0021094Y0230534D01*
X0019743Y0229184D01*
X0019013Y0227419D01*
X0019013Y0225510D01*
X0019743Y0223746D01*
X0021094Y0222395D01*
X0022858Y0221665D01*
X0021257Y0222328D02*
X0016368Y0222328D01*
X0016532Y0222395D02*
X0017882Y0223746D01*
X0018613Y0225510D01*
X0018613Y0227419D01*
X0017882Y0229184D01*
X0016532Y0230534D01*
X0014767Y0231265D01*
X0012858Y0231265D01*
X0011094Y0230534D01*
X0009743Y0229184D01*
X0009013Y0227419D01*
X0009013Y0225510D01*
X0009743Y0223746D01*
X0011094Y0222395D01*
X0012858Y0221665D01*
X0014767Y0221665D01*
X0016532Y0222395D01*
X0017662Y0223526D02*
X0019963Y0223526D01*
X0019338Y0224725D02*
X0018287Y0224725D01*
X0018613Y0225923D02*
X0019013Y0225923D01*
X0019013Y0227122D02*
X0018613Y0227122D01*
X0018239Y0228320D02*
X0019386Y0228320D01*
X0020078Y0229519D02*
X0017547Y0229519D01*
X0016089Y0230717D02*
X0021536Y0230717D01*
X0026089Y0230717D02*
X0236600Y0230717D01*
X0236600Y0229519D02*
X0056215Y0229519D01*
X0055956Y0229778D02*
X0054752Y0230276D01*
X0053448Y0230276D01*
X0052244Y0229778D01*
X0051322Y0228856D01*
X0050824Y0227652D01*
X0050824Y0226348D01*
X0051322Y0225144D01*
X0052244Y0224222D01*
X0053448Y0223724D01*
X0054752Y0223724D01*
X0055956Y0224222D01*
X0056878Y0225144D01*
X0057376Y0226348D01*
X0057376Y0227652D01*
X0056878Y0228856D01*
X0055956Y0229778D01*
X0057100Y0228320D02*
X0236600Y0228320D01*
X0236600Y0227122D02*
X0057376Y0227122D01*
X0057200Y0225923D02*
X0236600Y0225923D01*
X0236600Y0224725D02*
X0056458Y0224725D01*
X0051742Y0224725D02*
X0028287Y0224725D01*
X0028613Y0225923D02*
X0051000Y0225923D01*
X0050824Y0227122D02*
X0028613Y0227122D01*
X0028239Y0228320D02*
X0051100Y0228320D01*
X0051985Y0229519D02*
X0027547Y0229519D01*
X0027662Y0223526D02*
X0236600Y0223526D01*
X0236600Y0222328D02*
X0026368Y0222328D01*
X0025094Y0221129D02*
X0236600Y0221129D01*
X0236600Y0219931D02*
X0027135Y0219931D01*
X0028069Y0218732D02*
X0236600Y0218732D01*
X0236600Y0217534D02*
X0028565Y0217534D01*
X0028613Y0216335D02*
X0105302Y0216335D01*
X0104524Y0215137D02*
X0028458Y0215137D01*
X0027962Y0213938D02*
X0104324Y0213938D01*
X0109898Y0216335D02*
X0236600Y0216335D01*
X0236600Y0215137D02*
X0110676Y0215137D01*
X0110876Y0213938D02*
X0236600Y0213938D01*
X0236600Y0212739D02*
X0110624Y0212739D01*
X0110508Y0211541D02*
X0236600Y0211541D01*
X0236600Y0210342D02*
X0110876Y0210342D01*
X0110792Y0209144D02*
X0236600Y0209144D01*
X0236600Y0207945D02*
X0110179Y0207945D01*
X0108308Y0206747D02*
X0236600Y0206747D01*
X0236600Y0231916D02*
X0005059Y0231916D01*
X0005059Y0233114D02*
X0236600Y0233114D01*
X0236600Y0234313D02*
X0005059Y0234313D01*
X0005059Y0235511D02*
X0236600Y0235511D01*
X0236600Y0236710D02*
X0005059Y0236710D01*
X0005059Y0237908D02*
X0015699Y0237908D01*
X0016413Y0237613D02*
X0019402Y0237613D01*
X0022163Y0238756D01*
X0024277Y0240870D01*
X0025420Y0243631D01*
X0025420Y0246620D01*
X0024277Y0249382D01*
X0022163Y0251496D01*
X0019402Y0252639D01*
X0016413Y0252639D01*
X0013651Y0251496D01*
X0011538Y0249382D01*
X0010394Y0246620D01*
X0010394Y0243631D01*
X0011538Y0240870D01*
X0013651Y0238756D01*
X0016413Y0237613D01*
X0013301Y0239107D02*
X0005059Y0239107D01*
X0005059Y0240305D02*
X0012102Y0240305D01*
X0011275Y0241504D02*
X0005059Y0241504D01*
X0005059Y0242702D02*
X0010779Y0242702D01*
X0010394Y0243901D02*
X0005059Y0243901D01*
X0005059Y0245099D02*
X0010394Y0245099D01*
X0010394Y0246298D02*
X0005059Y0246298D01*
X0005059Y0247496D02*
X0010756Y0247496D01*
X0011253Y0248695D02*
X0005059Y0248695D01*
X0005059Y0249893D02*
X0012049Y0249893D01*
X0013247Y0251092D02*
X0005059Y0251092D01*
X0005059Y0252290D02*
X0015570Y0252290D01*
X0020244Y0252290D02*
X0208483Y0252290D01*
X0209326Y0252639D02*
X0206564Y0251496D01*
X0204451Y0249382D01*
X0203307Y0246620D01*
X0203307Y0243631D01*
X0204451Y0240870D01*
X0206564Y0238756D01*
X0209326Y0237613D01*
X0212315Y0237613D01*
X0215076Y0238756D01*
X0217190Y0240870D01*
X0218334Y0243631D01*
X0218334Y0246620D01*
X0217190Y0249382D01*
X0215076Y0251496D01*
X0212315Y0252639D01*
X0209326Y0252639D01*
X0206161Y0251092D02*
X0022567Y0251092D01*
X0023765Y0249893D02*
X0204962Y0249893D01*
X0204166Y0248695D02*
X0092193Y0248695D01*
X0091819Y0249069D02*
X0090055Y0249800D01*
X0088145Y0249800D01*
X0086381Y0249069D01*
X0085031Y0247719D01*
X0084300Y0245955D01*
X0084300Y0244045D01*
X0085031Y0242281D01*
X0086381Y0240931D01*
X0088145Y0240200D01*
X0090055Y0240200D01*
X0091819Y0240931D01*
X0093169Y0242281D01*
X0093900Y0244045D01*
X0093900Y0245955D01*
X0093169Y0247719D01*
X0091819Y0249069D01*
X0093261Y0247496D02*
X0203670Y0247496D01*
X0203307Y0246298D02*
X0093758Y0246298D01*
X0093900Y0245099D02*
X0203307Y0245099D01*
X0203307Y0243901D02*
X0093840Y0243901D01*
X0093344Y0242702D02*
X0203692Y0242702D01*
X0204188Y0241504D02*
X0092392Y0241504D01*
X0090309Y0240305D02*
X0205016Y0240305D01*
X0206214Y0239107D02*
X0022513Y0239107D01*
X0023712Y0240305D02*
X0077891Y0240305D01*
X0078145Y0240200D02*
X0080055Y0240200D01*
X0081819Y0240931D01*
X0083169Y0242281D01*
X0083900Y0244045D01*
X0083900Y0245955D01*
X0083169Y0247719D01*
X0081819Y0249069D01*
X0080055Y0249800D01*
X0078145Y0249800D01*
X0076381Y0249069D01*
X0075031Y0247719D01*
X0074300Y0245955D01*
X0074300Y0244045D01*
X0075031Y0242281D01*
X0076381Y0240931D01*
X0078145Y0240200D01*
X0080309Y0240305D02*
X0087891Y0240305D01*
X0085808Y0241504D02*
X0082392Y0241504D01*
X0083344Y0242702D02*
X0084856Y0242702D01*
X0084360Y0243901D02*
X0083840Y0243901D01*
X0083900Y0245099D02*
X0084300Y0245099D01*
X0084442Y0246298D02*
X0083758Y0246298D01*
X0083261Y0247496D02*
X0084939Y0247496D01*
X0086007Y0248695D02*
X0082193Y0248695D01*
X0076007Y0248695D02*
X0071840Y0248695D01*
X0072097Y0248509D02*
X0071511Y0248934D01*
X0070866Y0249263D01*
X0070177Y0249487D01*
X0069500Y0249594D01*
X0069500Y0245400D01*
X0068700Y0245400D01*
X0068700Y0249594D01*
X0068023Y0249487D01*
X0067334Y0249263D01*
X0066689Y0248934D01*
X0066103Y0248509D01*
X0065591Y0247997D01*
X0065166Y0247411D01*
X0064837Y0246766D01*
X0064613Y0246077D01*
X0064506Y0245400D01*
X0068700Y0245400D01*
X0068700Y0244600D01*
X0064506Y0244600D01*
X0064613Y0243923D01*
X0064837Y0243234D01*
X0065166Y0242589D01*
X0065591Y0242003D01*
X0066103Y0241491D01*
X0066689Y0241066D01*
X0067334Y0240737D01*
X0068023Y0240513D01*
X0068700Y0240406D01*
X0068700Y0244600D01*
X0069500Y0244600D01*
X0069500Y0245400D01*
X0073694Y0245400D01*
X0073587Y0246077D01*
X0073363Y0246766D01*
X0073034Y0247411D01*
X0072609Y0247997D01*
X0072097Y0248509D01*
X0072972Y0247496D02*
X0074939Y0247496D01*
X0074442Y0246298D02*
X0073515Y0246298D01*
X0074300Y0245099D02*
X0069500Y0245099D01*
X0069500Y0244600D02*
X0073694Y0244600D01*
X0073587Y0243923D01*
X0073363Y0243234D01*
X0073034Y0242589D01*
X0072609Y0242003D01*
X0072097Y0241491D01*
X0071511Y0241066D01*
X0070866Y0240737D01*
X0070177Y0240513D01*
X0069500Y0240406D01*
X0069500Y0244600D01*
X0069500Y0243901D02*
X0068700Y0243901D01*
X0068700Y0245099D02*
X0025420Y0245099D01*
X0025420Y0243901D02*
X0064620Y0243901D01*
X0065108Y0242702D02*
X0025036Y0242702D01*
X0024539Y0241504D02*
X0066091Y0241504D01*
X0068700Y0241504D02*
X0069500Y0241504D01*
X0069500Y0242702D02*
X0068700Y0242702D01*
X0068700Y0246298D02*
X0069500Y0246298D01*
X0069500Y0247496D02*
X0068700Y0247496D01*
X0068700Y0248695D02*
X0069500Y0248695D01*
X0066360Y0248695D02*
X0024561Y0248695D01*
X0025058Y0247496D02*
X0065228Y0247496D01*
X0064685Y0246298D02*
X0025420Y0246298D01*
X0020115Y0237908D02*
X0208612Y0237908D01*
X0213029Y0237908D02*
X0236600Y0237908D01*
X0236600Y0239107D02*
X0215427Y0239107D01*
X0216625Y0240305D02*
X0236600Y0240305D01*
X0236600Y0241504D02*
X0217453Y0241504D01*
X0217949Y0242702D02*
X0236600Y0242702D01*
X0236600Y0243901D02*
X0218334Y0243901D01*
X0218334Y0245099D02*
X0236600Y0245099D01*
X0236600Y0246298D02*
X0218334Y0246298D01*
X0217971Y0247496D02*
X0236600Y0247496D01*
X0236600Y0248695D02*
X0217475Y0248695D01*
X0216679Y0249893D02*
X0236600Y0249893D01*
X0236600Y0251092D02*
X0215480Y0251092D01*
X0213158Y0252290D02*
X0236600Y0252290D01*
X0236600Y0253489D02*
X0005059Y0253489D01*
X0005059Y0254687D02*
X0139811Y0254687D01*
X0138923Y0255886D02*
X0005059Y0255886D01*
X0005059Y0257084D02*
X0138700Y0257084D01*
X0138700Y0258283D02*
X0005059Y0258283D01*
X0005237Y0259481D02*
X0138700Y0259481D01*
X0138700Y0260680D02*
X0005881Y0260680D01*
X0006967Y0261878D02*
X0138700Y0261878D01*
X0138700Y0263077D02*
X0065726Y0263077D01*
X0073580Y0243901D02*
X0074360Y0243901D01*
X0074856Y0242702D02*
X0073092Y0242702D01*
X0072109Y0241504D02*
X0075808Y0241504D01*
X0011536Y0230717D02*
X0005059Y0230717D01*
X0005059Y0229519D02*
X0010078Y0229519D01*
X0009386Y0228320D02*
X0005059Y0228320D01*
X0005059Y0227122D02*
X0009013Y0227122D01*
X0009013Y0225923D02*
X0005059Y0225923D01*
X0005059Y0224725D02*
X0009338Y0224725D01*
X0009963Y0223526D02*
X0005059Y0223526D01*
X0005059Y0222328D02*
X0011257Y0222328D01*
X0012531Y0221129D02*
X0005059Y0221129D01*
X0005059Y0219931D02*
X0010490Y0219931D01*
X0009556Y0218732D02*
X0005059Y0218732D01*
X0005059Y0217534D02*
X0009060Y0217534D01*
X0009013Y0216335D02*
X0005059Y0216335D01*
X0005059Y0215137D02*
X0009167Y0215137D01*
X0009664Y0213938D02*
X0005059Y0213938D01*
X0009734Y0263077D02*
X0011354Y0263077D01*
X0228389Y0254687D02*
X0236600Y0254687D01*
X0236600Y0255886D02*
X0229277Y0255886D01*
X0229500Y0257084D02*
X0236600Y0257084D01*
X0236600Y0258283D02*
X0229500Y0258283D01*
X0229500Y0259481D02*
X0236600Y0259481D01*
X0236600Y0260680D02*
X0229500Y0260680D01*
X0229500Y0261878D02*
X0236600Y0261878D01*
X0236600Y0263077D02*
X0229500Y0263077D01*
X0265000Y0269070D02*
X0339397Y0269070D01*
X0338564Y0270268D02*
X0265000Y0270268D01*
X0265000Y0271467D02*
X0338324Y0271467D01*
X0338536Y0272665D02*
X0265000Y0272665D01*
X0270653Y0278845D02*
X0273539Y0277650D01*
X0276661Y0277650D01*
X0279547Y0278845D01*
X0281755Y0281053D01*
X0282950Y0283939D01*
X0282950Y0287061D01*
X0281755Y0289947D01*
X0279547Y0292155D01*
X0276661Y0293350D01*
X0273539Y0293350D01*
X0270653Y0292155D01*
X0268445Y0289947D01*
X0267250Y0287061D01*
X0267250Y0283939D01*
X0268445Y0281053D01*
X0270653Y0278845D01*
X0271106Y0278658D02*
X0265000Y0278658D01*
X0265000Y0279856D02*
X0269642Y0279856D01*
X0268445Y0281055D02*
X0265000Y0281055D01*
X0265000Y0282253D02*
X0267948Y0282253D01*
X0267452Y0283452D02*
X0265000Y0283452D01*
X0265000Y0284650D02*
X0267250Y0284650D01*
X0267250Y0285849D02*
X0265000Y0285849D01*
X0265000Y0287047D02*
X0267250Y0287047D01*
X0267741Y0288246D02*
X0265000Y0288246D01*
X0265000Y0289444D02*
X0268237Y0289444D01*
X0269141Y0290643D02*
X0265000Y0290643D01*
X0265000Y0291841D02*
X0270340Y0291841D01*
X0272790Y0293040D02*
X0265000Y0293040D01*
X0265000Y0294238D02*
X0402700Y0294238D01*
X0402700Y0293040D02*
X0339410Y0293040D01*
X0341860Y0291841D02*
X0402700Y0291841D01*
X0402700Y0290643D02*
X0343059Y0290643D01*
X0343963Y0289444D02*
X0402700Y0289444D01*
X0402700Y0288246D02*
X0344459Y0288246D01*
X0344950Y0287047D02*
X0403063Y0287047D01*
X0404423Y0285849D02*
X0344950Y0285849D01*
X0334790Y0293040D02*
X0319410Y0293040D01*
X0318661Y0293350D02*
X0315539Y0293350D01*
X0312653Y0292155D01*
X0310445Y0289947D01*
X0309250Y0287061D01*
X0309250Y0283939D01*
X0310445Y0281053D01*
X0312653Y0278845D01*
X0315539Y0277650D01*
X0318661Y0277650D01*
X0321547Y0278845D01*
X0323755Y0281053D01*
X0324950Y0283939D01*
X0324950Y0287061D01*
X0323755Y0289947D01*
X0321547Y0292155D01*
X0318661Y0293350D01*
X0321860Y0291841D02*
X0332340Y0291841D01*
X0331141Y0290643D02*
X0323059Y0290643D01*
X0323963Y0289444D02*
X0330237Y0289444D01*
X0329741Y0288246D02*
X0324459Y0288246D01*
X0324950Y0287047D02*
X0329250Y0287047D01*
X0329250Y0285849D02*
X0324950Y0285849D01*
X0324950Y0284650D02*
X0329250Y0284650D01*
X0329452Y0283452D02*
X0324748Y0283452D01*
X0324252Y0282253D02*
X0329948Y0282253D01*
X0330445Y0281055D02*
X0323755Y0281055D01*
X0322558Y0279856D02*
X0331642Y0279856D01*
X0333106Y0278658D02*
X0321094Y0278658D01*
X0313106Y0278658D02*
X0299094Y0278658D01*
X0299547Y0278845D02*
X0301755Y0281053D01*
X0302950Y0283939D01*
X0302950Y0287061D01*
X0301755Y0289947D01*
X0299547Y0292155D01*
X0296661Y0293350D01*
X0293539Y0293350D01*
X0290653Y0292155D01*
X0288445Y0289947D01*
X0287250Y0287061D01*
X0287250Y0283939D01*
X0288445Y0281053D01*
X0290653Y0278845D01*
X0293539Y0277650D01*
X0296661Y0277650D01*
X0299547Y0278845D01*
X0300558Y0279856D02*
X0311642Y0279856D01*
X0310445Y0281055D02*
X0301755Y0281055D01*
X0302252Y0282253D02*
X0309948Y0282253D01*
X0309452Y0283452D02*
X0302748Y0283452D01*
X0302950Y0284650D02*
X0309250Y0284650D01*
X0309250Y0285849D02*
X0302950Y0285849D01*
X0302950Y0287047D02*
X0309250Y0287047D01*
X0309741Y0288246D02*
X0302459Y0288246D01*
X0301963Y0289444D02*
X0310237Y0289444D01*
X0311141Y0290643D02*
X0301059Y0290643D01*
X0299860Y0291841D02*
X0312340Y0291841D01*
X0314790Y0293040D02*
X0297410Y0293040D01*
X0292790Y0293040D02*
X0277410Y0293040D01*
X0279860Y0291841D02*
X0290340Y0291841D01*
X0289141Y0290643D02*
X0281059Y0290643D01*
X0281963Y0289444D02*
X0288237Y0289444D01*
X0287741Y0288246D02*
X0282459Y0288246D01*
X0282950Y0287047D02*
X0287250Y0287047D01*
X0287250Y0285849D02*
X0282950Y0285849D01*
X0282950Y0284650D02*
X0287250Y0284650D01*
X0287452Y0283452D02*
X0282748Y0283452D01*
X0282252Y0282253D02*
X0287948Y0282253D01*
X0288445Y0281055D02*
X0281755Y0281055D01*
X0280558Y0279856D02*
X0289642Y0279856D01*
X0291106Y0278658D02*
X0279094Y0278658D01*
X0287770Y0228320D02*
X0364474Y0228320D01*
X0363038Y0227122D02*
X0286773Y0227122D01*
X0285886Y0134836D02*
X0261823Y0134836D01*
X0261821Y0133638D02*
X0284732Y0133638D01*
X0284324Y0132439D02*
X0261819Y0132439D01*
X0261817Y0131241D02*
X0284368Y0131241D01*
X0284924Y0130042D02*
X0261815Y0130042D01*
X0261813Y0128844D02*
X0286658Y0128844D01*
X0380469Y0064124D02*
X0475200Y0064124D01*
X0475200Y0062926D02*
X0382545Y0062926D01*
X0383743Y0061727D02*
X0475200Y0061727D01*
X0475200Y0060529D02*
X0384744Y0060529D01*
X0385436Y0059330D02*
X0475200Y0059330D01*
X0475200Y0058132D02*
X0385973Y0058132D01*
X0386294Y0056933D02*
X0475200Y0056933D01*
X0475200Y0055734D02*
X0386546Y0055734D01*
X0386546Y0054536D02*
X0475200Y0054536D01*
X0475200Y0053337D02*
X0386546Y0053337D01*
X0386244Y0052139D02*
X0475200Y0052139D01*
X0475200Y0050940D02*
X0385923Y0050940D01*
X0385327Y0049742D02*
X0475200Y0049742D01*
X0475200Y0048543D02*
X0384636Y0048543D01*
X0383555Y0047345D02*
X0475200Y0047345D01*
X0475200Y0046146D02*
X0382219Y0046146D01*
X0380101Y0044948D02*
X0475200Y0044948D01*
X0177644Y0065323D02*
X0177056Y0065323D01*
X0020676Y0070117D02*
X0016949Y0070117D01*
X0017992Y0068918D02*
X0019633Y0068918D01*
X0019137Y0067720D02*
X0018488Y0067720D01*
X0018613Y0066521D02*
X0019013Y0066521D01*
X0019090Y0065323D02*
X0018535Y0065323D01*
X0018039Y0064124D02*
X0019587Y0064124D01*
X0021064Y0040154D02*
X0016912Y0040154D01*
X0017976Y0038955D02*
X0019936Y0038955D01*
X0019396Y0037757D02*
X0018473Y0037757D01*
X0010714Y0040154D02*
X0005059Y0040154D01*
X0005059Y0038955D02*
X0009649Y0038955D01*
X0009152Y0037757D02*
X0005059Y0037757D01*
X0005059Y0036558D02*
X0009013Y0036558D01*
X0009075Y0035360D02*
X0005059Y0035360D01*
X0005059Y0034161D02*
X0009571Y0034161D01*
X0010526Y0032963D02*
X0005059Y0032963D01*
D16*
X0284600Y0230000D03*
X0354600Y0238000D03*
M02*
