G75*
%MOIN*%
%OFA0B0*%
%FSLAX25Y25*%
%IPPOS*%
%LPD*%
%AMOC8*
5,1,8,0,0,1.08239X$1,22.5*
%
%ADD10C,0.00000*%
%ADD11C,0.01600*%
%ADD12C,0.00004*%
%ADD13C,0.00500*%
D10*
X0012494Y0016780D02*
X0012496Y0016927D01*
X0012502Y0017073D01*
X0012512Y0017219D01*
X0012526Y0017365D01*
X0012544Y0017511D01*
X0012565Y0017656D01*
X0012591Y0017800D01*
X0012621Y0017944D01*
X0012654Y0018086D01*
X0012691Y0018228D01*
X0012732Y0018369D01*
X0012777Y0018508D01*
X0012826Y0018647D01*
X0012878Y0018784D01*
X0012935Y0018919D01*
X0012994Y0019053D01*
X0013058Y0019185D01*
X0013125Y0019315D01*
X0013195Y0019444D01*
X0013269Y0019571D01*
X0013346Y0019695D01*
X0013427Y0019818D01*
X0013511Y0019938D01*
X0013598Y0020056D01*
X0013688Y0020171D01*
X0013781Y0020284D01*
X0013878Y0020395D01*
X0013977Y0020503D01*
X0014079Y0020608D01*
X0014184Y0020710D01*
X0014292Y0020809D01*
X0014403Y0020906D01*
X0014516Y0020999D01*
X0014631Y0021089D01*
X0014749Y0021176D01*
X0014869Y0021260D01*
X0014992Y0021341D01*
X0015116Y0021418D01*
X0015243Y0021492D01*
X0015372Y0021562D01*
X0015502Y0021629D01*
X0015634Y0021693D01*
X0015768Y0021752D01*
X0015903Y0021809D01*
X0016040Y0021861D01*
X0016179Y0021910D01*
X0016318Y0021955D01*
X0016459Y0021996D01*
X0016601Y0022033D01*
X0016743Y0022066D01*
X0016887Y0022096D01*
X0017031Y0022122D01*
X0017176Y0022143D01*
X0017322Y0022161D01*
X0017468Y0022175D01*
X0017614Y0022185D01*
X0017760Y0022191D01*
X0017907Y0022193D01*
X0018054Y0022191D01*
X0018200Y0022185D01*
X0018346Y0022175D01*
X0018492Y0022161D01*
X0018638Y0022143D01*
X0018783Y0022122D01*
X0018927Y0022096D01*
X0019071Y0022066D01*
X0019213Y0022033D01*
X0019355Y0021996D01*
X0019496Y0021955D01*
X0019635Y0021910D01*
X0019774Y0021861D01*
X0019911Y0021809D01*
X0020046Y0021752D01*
X0020180Y0021693D01*
X0020312Y0021629D01*
X0020442Y0021562D01*
X0020571Y0021492D01*
X0020698Y0021418D01*
X0020822Y0021341D01*
X0020945Y0021260D01*
X0021065Y0021176D01*
X0021183Y0021089D01*
X0021298Y0020999D01*
X0021411Y0020906D01*
X0021522Y0020809D01*
X0021630Y0020710D01*
X0021735Y0020608D01*
X0021837Y0020503D01*
X0021936Y0020395D01*
X0022033Y0020284D01*
X0022126Y0020171D01*
X0022216Y0020056D01*
X0022303Y0019938D01*
X0022387Y0019818D01*
X0022468Y0019695D01*
X0022545Y0019571D01*
X0022619Y0019444D01*
X0022689Y0019315D01*
X0022756Y0019185D01*
X0022820Y0019053D01*
X0022879Y0018919D01*
X0022936Y0018784D01*
X0022988Y0018647D01*
X0023037Y0018508D01*
X0023082Y0018369D01*
X0023123Y0018228D01*
X0023160Y0018086D01*
X0023193Y0017944D01*
X0023223Y0017800D01*
X0023249Y0017656D01*
X0023270Y0017511D01*
X0023288Y0017365D01*
X0023302Y0017219D01*
X0023312Y0017073D01*
X0023318Y0016927D01*
X0023320Y0016780D01*
X0023318Y0016633D01*
X0023312Y0016487D01*
X0023302Y0016341D01*
X0023288Y0016195D01*
X0023270Y0016049D01*
X0023249Y0015904D01*
X0023223Y0015760D01*
X0023193Y0015616D01*
X0023160Y0015474D01*
X0023123Y0015332D01*
X0023082Y0015191D01*
X0023037Y0015052D01*
X0022988Y0014913D01*
X0022936Y0014776D01*
X0022879Y0014641D01*
X0022820Y0014507D01*
X0022756Y0014375D01*
X0022689Y0014245D01*
X0022619Y0014116D01*
X0022545Y0013989D01*
X0022468Y0013865D01*
X0022387Y0013742D01*
X0022303Y0013622D01*
X0022216Y0013504D01*
X0022126Y0013389D01*
X0022033Y0013276D01*
X0021936Y0013165D01*
X0021837Y0013057D01*
X0021735Y0012952D01*
X0021630Y0012850D01*
X0021522Y0012751D01*
X0021411Y0012654D01*
X0021298Y0012561D01*
X0021183Y0012471D01*
X0021065Y0012384D01*
X0020945Y0012300D01*
X0020822Y0012219D01*
X0020698Y0012142D01*
X0020571Y0012068D01*
X0020442Y0011998D01*
X0020312Y0011931D01*
X0020180Y0011867D01*
X0020046Y0011808D01*
X0019911Y0011751D01*
X0019774Y0011699D01*
X0019635Y0011650D01*
X0019496Y0011605D01*
X0019355Y0011564D01*
X0019213Y0011527D01*
X0019071Y0011494D01*
X0018927Y0011464D01*
X0018783Y0011438D01*
X0018638Y0011417D01*
X0018492Y0011399D01*
X0018346Y0011385D01*
X0018200Y0011375D01*
X0018054Y0011369D01*
X0017907Y0011367D01*
X0017760Y0011369D01*
X0017614Y0011375D01*
X0017468Y0011385D01*
X0017322Y0011399D01*
X0017176Y0011417D01*
X0017031Y0011438D01*
X0016887Y0011464D01*
X0016743Y0011494D01*
X0016601Y0011527D01*
X0016459Y0011564D01*
X0016318Y0011605D01*
X0016179Y0011650D01*
X0016040Y0011699D01*
X0015903Y0011751D01*
X0015768Y0011808D01*
X0015634Y0011867D01*
X0015502Y0011931D01*
X0015372Y0011998D01*
X0015243Y0012068D01*
X0015116Y0012142D01*
X0014992Y0012219D01*
X0014869Y0012300D01*
X0014749Y0012384D01*
X0014631Y0012471D01*
X0014516Y0012561D01*
X0014403Y0012654D01*
X0014292Y0012751D01*
X0014184Y0012850D01*
X0014079Y0012952D01*
X0013977Y0013057D01*
X0013878Y0013165D01*
X0013781Y0013276D01*
X0013688Y0013389D01*
X0013598Y0013504D01*
X0013511Y0013622D01*
X0013427Y0013742D01*
X0013346Y0013865D01*
X0013269Y0013989D01*
X0013195Y0014116D01*
X0013125Y0014245D01*
X0013058Y0014375D01*
X0012994Y0014507D01*
X0012935Y0014641D01*
X0012878Y0014776D01*
X0012826Y0014913D01*
X0012777Y0015052D01*
X0012732Y0015191D01*
X0012691Y0015332D01*
X0012654Y0015474D01*
X0012621Y0015616D01*
X0012591Y0015760D01*
X0012565Y0015904D01*
X0012544Y0016049D01*
X0012526Y0016195D01*
X0012512Y0016341D01*
X0012502Y0016487D01*
X0012496Y0016633D01*
X0012494Y0016780D01*
X0205407Y0016780D02*
X0205409Y0016927D01*
X0205415Y0017073D01*
X0205425Y0017219D01*
X0205439Y0017365D01*
X0205457Y0017511D01*
X0205478Y0017656D01*
X0205504Y0017800D01*
X0205534Y0017944D01*
X0205567Y0018086D01*
X0205604Y0018228D01*
X0205645Y0018369D01*
X0205690Y0018508D01*
X0205739Y0018647D01*
X0205791Y0018784D01*
X0205848Y0018919D01*
X0205907Y0019053D01*
X0205971Y0019185D01*
X0206038Y0019315D01*
X0206108Y0019444D01*
X0206182Y0019571D01*
X0206259Y0019695D01*
X0206340Y0019818D01*
X0206424Y0019938D01*
X0206511Y0020056D01*
X0206601Y0020171D01*
X0206694Y0020284D01*
X0206791Y0020395D01*
X0206890Y0020503D01*
X0206992Y0020608D01*
X0207097Y0020710D01*
X0207205Y0020809D01*
X0207316Y0020906D01*
X0207429Y0020999D01*
X0207544Y0021089D01*
X0207662Y0021176D01*
X0207782Y0021260D01*
X0207905Y0021341D01*
X0208029Y0021418D01*
X0208156Y0021492D01*
X0208285Y0021562D01*
X0208415Y0021629D01*
X0208547Y0021693D01*
X0208681Y0021752D01*
X0208816Y0021809D01*
X0208953Y0021861D01*
X0209092Y0021910D01*
X0209231Y0021955D01*
X0209372Y0021996D01*
X0209514Y0022033D01*
X0209656Y0022066D01*
X0209800Y0022096D01*
X0209944Y0022122D01*
X0210089Y0022143D01*
X0210235Y0022161D01*
X0210381Y0022175D01*
X0210527Y0022185D01*
X0210673Y0022191D01*
X0210820Y0022193D01*
X0210967Y0022191D01*
X0211113Y0022185D01*
X0211259Y0022175D01*
X0211405Y0022161D01*
X0211551Y0022143D01*
X0211696Y0022122D01*
X0211840Y0022096D01*
X0211984Y0022066D01*
X0212126Y0022033D01*
X0212268Y0021996D01*
X0212409Y0021955D01*
X0212548Y0021910D01*
X0212687Y0021861D01*
X0212824Y0021809D01*
X0212959Y0021752D01*
X0213093Y0021693D01*
X0213225Y0021629D01*
X0213355Y0021562D01*
X0213484Y0021492D01*
X0213611Y0021418D01*
X0213735Y0021341D01*
X0213858Y0021260D01*
X0213978Y0021176D01*
X0214096Y0021089D01*
X0214211Y0020999D01*
X0214324Y0020906D01*
X0214435Y0020809D01*
X0214543Y0020710D01*
X0214648Y0020608D01*
X0214750Y0020503D01*
X0214849Y0020395D01*
X0214946Y0020284D01*
X0215039Y0020171D01*
X0215129Y0020056D01*
X0215216Y0019938D01*
X0215300Y0019818D01*
X0215381Y0019695D01*
X0215458Y0019571D01*
X0215532Y0019444D01*
X0215602Y0019315D01*
X0215669Y0019185D01*
X0215733Y0019053D01*
X0215792Y0018919D01*
X0215849Y0018784D01*
X0215901Y0018647D01*
X0215950Y0018508D01*
X0215995Y0018369D01*
X0216036Y0018228D01*
X0216073Y0018086D01*
X0216106Y0017944D01*
X0216136Y0017800D01*
X0216162Y0017656D01*
X0216183Y0017511D01*
X0216201Y0017365D01*
X0216215Y0017219D01*
X0216225Y0017073D01*
X0216231Y0016927D01*
X0216233Y0016780D01*
X0216231Y0016633D01*
X0216225Y0016487D01*
X0216215Y0016341D01*
X0216201Y0016195D01*
X0216183Y0016049D01*
X0216162Y0015904D01*
X0216136Y0015760D01*
X0216106Y0015616D01*
X0216073Y0015474D01*
X0216036Y0015332D01*
X0215995Y0015191D01*
X0215950Y0015052D01*
X0215901Y0014913D01*
X0215849Y0014776D01*
X0215792Y0014641D01*
X0215733Y0014507D01*
X0215669Y0014375D01*
X0215602Y0014245D01*
X0215532Y0014116D01*
X0215458Y0013989D01*
X0215381Y0013865D01*
X0215300Y0013742D01*
X0215216Y0013622D01*
X0215129Y0013504D01*
X0215039Y0013389D01*
X0214946Y0013276D01*
X0214849Y0013165D01*
X0214750Y0013057D01*
X0214648Y0012952D01*
X0214543Y0012850D01*
X0214435Y0012751D01*
X0214324Y0012654D01*
X0214211Y0012561D01*
X0214096Y0012471D01*
X0213978Y0012384D01*
X0213858Y0012300D01*
X0213735Y0012219D01*
X0213611Y0012142D01*
X0213484Y0012068D01*
X0213355Y0011998D01*
X0213225Y0011931D01*
X0213093Y0011867D01*
X0212959Y0011808D01*
X0212824Y0011751D01*
X0212687Y0011699D01*
X0212548Y0011650D01*
X0212409Y0011605D01*
X0212268Y0011564D01*
X0212126Y0011527D01*
X0211984Y0011494D01*
X0211840Y0011464D01*
X0211696Y0011438D01*
X0211551Y0011417D01*
X0211405Y0011399D01*
X0211259Y0011385D01*
X0211113Y0011375D01*
X0210967Y0011369D01*
X0210820Y0011367D01*
X0210673Y0011369D01*
X0210527Y0011375D01*
X0210381Y0011385D01*
X0210235Y0011399D01*
X0210089Y0011417D01*
X0209944Y0011438D01*
X0209800Y0011464D01*
X0209656Y0011494D01*
X0209514Y0011527D01*
X0209372Y0011564D01*
X0209231Y0011605D01*
X0209092Y0011650D01*
X0208953Y0011699D01*
X0208816Y0011751D01*
X0208681Y0011808D01*
X0208547Y0011867D01*
X0208415Y0011931D01*
X0208285Y0011998D01*
X0208156Y0012068D01*
X0208029Y0012142D01*
X0207905Y0012219D01*
X0207782Y0012300D01*
X0207662Y0012384D01*
X0207544Y0012471D01*
X0207429Y0012561D01*
X0207316Y0012654D01*
X0207205Y0012751D01*
X0207097Y0012850D01*
X0206992Y0012952D01*
X0206890Y0013057D01*
X0206791Y0013165D01*
X0206694Y0013276D01*
X0206601Y0013389D01*
X0206511Y0013504D01*
X0206424Y0013622D01*
X0206340Y0013742D01*
X0206259Y0013865D01*
X0206182Y0013989D01*
X0206108Y0014116D01*
X0206038Y0014245D01*
X0205971Y0014375D01*
X0205907Y0014507D01*
X0205848Y0014641D01*
X0205791Y0014776D01*
X0205739Y0014913D01*
X0205690Y0015052D01*
X0205645Y0015191D01*
X0205604Y0015332D01*
X0205567Y0015474D01*
X0205534Y0015616D01*
X0205504Y0015760D01*
X0205478Y0015904D01*
X0205457Y0016049D01*
X0205439Y0016195D01*
X0205425Y0016341D01*
X0205415Y0016487D01*
X0205409Y0016633D01*
X0205407Y0016780D01*
X0367910Y0054630D02*
X0367912Y0054833D01*
X0367920Y0055036D01*
X0367932Y0055238D01*
X0367950Y0055440D01*
X0367972Y0055642D01*
X0367999Y0055843D01*
X0368032Y0056044D01*
X0368069Y0056243D01*
X0368111Y0056442D01*
X0368158Y0056639D01*
X0368209Y0056835D01*
X0368266Y0057030D01*
X0368327Y0057224D01*
X0368393Y0057415D01*
X0368464Y0057606D01*
X0368539Y0057794D01*
X0368619Y0057981D01*
X0368704Y0058165D01*
X0368793Y0058347D01*
X0368886Y0058528D01*
X0368984Y0058705D01*
X0369086Y0058881D01*
X0369193Y0059053D01*
X0369303Y0059223D01*
X0369418Y0059391D01*
X0369537Y0059555D01*
X0369660Y0059717D01*
X0369787Y0059875D01*
X0369917Y0060030D01*
X0370052Y0060182D01*
X0370190Y0060331D01*
X0370332Y0060476D01*
X0370477Y0060618D01*
X0370626Y0060756D01*
X0370778Y0060891D01*
X0370933Y0061021D01*
X0371091Y0061148D01*
X0371253Y0061271D01*
X0371417Y0061390D01*
X0371585Y0061505D01*
X0371755Y0061615D01*
X0371927Y0061722D01*
X0372103Y0061824D01*
X0372280Y0061922D01*
X0372461Y0062015D01*
X0372643Y0062104D01*
X0372827Y0062189D01*
X0373014Y0062269D01*
X0373202Y0062344D01*
X0373393Y0062415D01*
X0373584Y0062481D01*
X0373778Y0062542D01*
X0373973Y0062599D01*
X0374169Y0062650D01*
X0374366Y0062697D01*
X0374565Y0062739D01*
X0374764Y0062776D01*
X0374965Y0062809D01*
X0375166Y0062836D01*
X0375368Y0062858D01*
X0375570Y0062876D01*
X0375772Y0062888D01*
X0375975Y0062896D01*
X0376178Y0062898D01*
X0376381Y0062896D01*
X0376584Y0062888D01*
X0376786Y0062876D01*
X0376988Y0062858D01*
X0377190Y0062836D01*
X0377391Y0062809D01*
X0377592Y0062776D01*
X0377791Y0062739D01*
X0377990Y0062697D01*
X0378187Y0062650D01*
X0378383Y0062599D01*
X0378578Y0062542D01*
X0378772Y0062481D01*
X0378963Y0062415D01*
X0379154Y0062344D01*
X0379342Y0062269D01*
X0379529Y0062189D01*
X0379713Y0062104D01*
X0379895Y0062015D01*
X0380076Y0061922D01*
X0380253Y0061824D01*
X0380429Y0061722D01*
X0380601Y0061615D01*
X0380771Y0061505D01*
X0380939Y0061390D01*
X0381103Y0061271D01*
X0381265Y0061148D01*
X0381423Y0061021D01*
X0381578Y0060891D01*
X0381730Y0060756D01*
X0381879Y0060618D01*
X0382024Y0060476D01*
X0382166Y0060331D01*
X0382304Y0060182D01*
X0382439Y0060030D01*
X0382569Y0059875D01*
X0382696Y0059717D01*
X0382819Y0059555D01*
X0382938Y0059391D01*
X0383053Y0059223D01*
X0383163Y0059053D01*
X0383270Y0058881D01*
X0383372Y0058705D01*
X0383470Y0058528D01*
X0383563Y0058347D01*
X0383652Y0058165D01*
X0383737Y0057981D01*
X0383817Y0057794D01*
X0383892Y0057606D01*
X0383963Y0057415D01*
X0384029Y0057224D01*
X0384090Y0057030D01*
X0384147Y0056835D01*
X0384198Y0056639D01*
X0384245Y0056442D01*
X0384287Y0056243D01*
X0384324Y0056044D01*
X0384357Y0055843D01*
X0384384Y0055642D01*
X0384406Y0055440D01*
X0384424Y0055238D01*
X0384436Y0055036D01*
X0384444Y0054833D01*
X0384446Y0054630D01*
X0384444Y0054427D01*
X0384436Y0054224D01*
X0384424Y0054022D01*
X0384406Y0053820D01*
X0384384Y0053618D01*
X0384357Y0053417D01*
X0384324Y0053216D01*
X0384287Y0053017D01*
X0384245Y0052818D01*
X0384198Y0052621D01*
X0384147Y0052425D01*
X0384090Y0052230D01*
X0384029Y0052036D01*
X0383963Y0051845D01*
X0383892Y0051654D01*
X0383817Y0051466D01*
X0383737Y0051279D01*
X0383652Y0051095D01*
X0383563Y0050913D01*
X0383470Y0050732D01*
X0383372Y0050555D01*
X0383270Y0050379D01*
X0383163Y0050207D01*
X0383053Y0050037D01*
X0382938Y0049869D01*
X0382819Y0049705D01*
X0382696Y0049543D01*
X0382569Y0049385D01*
X0382439Y0049230D01*
X0382304Y0049078D01*
X0382166Y0048929D01*
X0382024Y0048784D01*
X0381879Y0048642D01*
X0381730Y0048504D01*
X0381578Y0048369D01*
X0381423Y0048239D01*
X0381265Y0048112D01*
X0381103Y0047989D01*
X0380939Y0047870D01*
X0380771Y0047755D01*
X0380601Y0047645D01*
X0380429Y0047538D01*
X0380253Y0047436D01*
X0380076Y0047338D01*
X0379895Y0047245D01*
X0379713Y0047156D01*
X0379529Y0047071D01*
X0379342Y0046991D01*
X0379154Y0046916D01*
X0378963Y0046845D01*
X0378772Y0046779D01*
X0378578Y0046718D01*
X0378383Y0046661D01*
X0378187Y0046610D01*
X0377990Y0046563D01*
X0377791Y0046521D01*
X0377592Y0046484D01*
X0377391Y0046451D01*
X0377190Y0046424D01*
X0376988Y0046402D01*
X0376786Y0046384D01*
X0376584Y0046372D01*
X0376381Y0046364D01*
X0376178Y0046362D01*
X0375975Y0046364D01*
X0375772Y0046372D01*
X0375570Y0046384D01*
X0375368Y0046402D01*
X0375166Y0046424D01*
X0374965Y0046451D01*
X0374764Y0046484D01*
X0374565Y0046521D01*
X0374366Y0046563D01*
X0374169Y0046610D01*
X0373973Y0046661D01*
X0373778Y0046718D01*
X0373584Y0046779D01*
X0373393Y0046845D01*
X0373202Y0046916D01*
X0373014Y0046991D01*
X0372827Y0047071D01*
X0372643Y0047156D01*
X0372461Y0047245D01*
X0372280Y0047338D01*
X0372103Y0047436D01*
X0371927Y0047538D01*
X0371755Y0047645D01*
X0371585Y0047755D01*
X0371417Y0047870D01*
X0371253Y0047989D01*
X0371091Y0048112D01*
X0370933Y0048239D01*
X0370778Y0048369D01*
X0370626Y0048504D01*
X0370477Y0048642D01*
X0370332Y0048784D01*
X0370190Y0048929D01*
X0370052Y0049078D01*
X0369917Y0049230D01*
X0369787Y0049385D01*
X0369660Y0049543D01*
X0369537Y0049705D01*
X0369418Y0049869D01*
X0369303Y0050037D01*
X0369193Y0050207D01*
X0369086Y0050379D01*
X0368984Y0050555D01*
X0368886Y0050732D01*
X0368793Y0050913D01*
X0368704Y0051095D01*
X0368619Y0051279D01*
X0368539Y0051466D01*
X0368464Y0051654D01*
X0368393Y0051845D01*
X0368327Y0052036D01*
X0368266Y0052230D01*
X0368209Y0052425D01*
X0368158Y0052621D01*
X0368111Y0052818D01*
X0368069Y0053017D01*
X0368032Y0053216D01*
X0367999Y0053417D01*
X0367972Y0053618D01*
X0367950Y0053820D01*
X0367932Y0054022D01*
X0367920Y0054224D01*
X0367912Y0054427D01*
X0367910Y0054630D01*
X0420407Y0016780D02*
X0420409Y0016927D01*
X0420415Y0017073D01*
X0420425Y0017219D01*
X0420439Y0017365D01*
X0420457Y0017511D01*
X0420478Y0017656D01*
X0420504Y0017800D01*
X0420534Y0017944D01*
X0420567Y0018086D01*
X0420604Y0018228D01*
X0420645Y0018369D01*
X0420690Y0018508D01*
X0420739Y0018647D01*
X0420791Y0018784D01*
X0420848Y0018919D01*
X0420907Y0019053D01*
X0420971Y0019185D01*
X0421038Y0019315D01*
X0421108Y0019444D01*
X0421182Y0019571D01*
X0421259Y0019695D01*
X0421340Y0019818D01*
X0421424Y0019938D01*
X0421511Y0020056D01*
X0421601Y0020171D01*
X0421694Y0020284D01*
X0421791Y0020395D01*
X0421890Y0020503D01*
X0421992Y0020608D01*
X0422097Y0020710D01*
X0422205Y0020809D01*
X0422316Y0020906D01*
X0422429Y0020999D01*
X0422544Y0021089D01*
X0422662Y0021176D01*
X0422782Y0021260D01*
X0422905Y0021341D01*
X0423029Y0021418D01*
X0423156Y0021492D01*
X0423285Y0021562D01*
X0423415Y0021629D01*
X0423547Y0021693D01*
X0423681Y0021752D01*
X0423816Y0021809D01*
X0423953Y0021861D01*
X0424092Y0021910D01*
X0424231Y0021955D01*
X0424372Y0021996D01*
X0424514Y0022033D01*
X0424656Y0022066D01*
X0424800Y0022096D01*
X0424944Y0022122D01*
X0425089Y0022143D01*
X0425235Y0022161D01*
X0425381Y0022175D01*
X0425527Y0022185D01*
X0425673Y0022191D01*
X0425820Y0022193D01*
X0425967Y0022191D01*
X0426113Y0022185D01*
X0426259Y0022175D01*
X0426405Y0022161D01*
X0426551Y0022143D01*
X0426696Y0022122D01*
X0426840Y0022096D01*
X0426984Y0022066D01*
X0427126Y0022033D01*
X0427268Y0021996D01*
X0427409Y0021955D01*
X0427548Y0021910D01*
X0427687Y0021861D01*
X0427824Y0021809D01*
X0427959Y0021752D01*
X0428093Y0021693D01*
X0428225Y0021629D01*
X0428355Y0021562D01*
X0428484Y0021492D01*
X0428611Y0021418D01*
X0428735Y0021341D01*
X0428858Y0021260D01*
X0428978Y0021176D01*
X0429096Y0021089D01*
X0429211Y0020999D01*
X0429324Y0020906D01*
X0429435Y0020809D01*
X0429543Y0020710D01*
X0429648Y0020608D01*
X0429750Y0020503D01*
X0429849Y0020395D01*
X0429946Y0020284D01*
X0430039Y0020171D01*
X0430129Y0020056D01*
X0430216Y0019938D01*
X0430300Y0019818D01*
X0430381Y0019695D01*
X0430458Y0019571D01*
X0430532Y0019444D01*
X0430602Y0019315D01*
X0430669Y0019185D01*
X0430733Y0019053D01*
X0430792Y0018919D01*
X0430849Y0018784D01*
X0430901Y0018647D01*
X0430950Y0018508D01*
X0430995Y0018369D01*
X0431036Y0018228D01*
X0431073Y0018086D01*
X0431106Y0017944D01*
X0431136Y0017800D01*
X0431162Y0017656D01*
X0431183Y0017511D01*
X0431201Y0017365D01*
X0431215Y0017219D01*
X0431225Y0017073D01*
X0431231Y0016927D01*
X0431233Y0016780D01*
X0431231Y0016633D01*
X0431225Y0016487D01*
X0431215Y0016341D01*
X0431201Y0016195D01*
X0431183Y0016049D01*
X0431162Y0015904D01*
X0431136Y0015760D01*
X0431106Y0015616D01*
X0431073Y0015474D01*
X0431036Y0015332D01*
X0430995Y0015191D01*
X0430950Y0015052D01*
X0430901Y0014913D01*
X0430849Y0014776D01*
X0430792Y0014641D01*
X0430733Y0014507D01*
X0430669Y0014375D01*
X0430602Y0014245D01*
X0430532Y0014116D01*
X0430458Y0013989D01*
X0430381Y0013865D01*
X0430300Y0013742D01*
X0430216Y0013622D01*
X0430129Y0013504D01*
X0430039Y0013389D01*
X0429946Y0013276D01*
X0429849Y0013165D01*
X0429750Y0013057D01*
X0429648Y0012952D01*
X0429543Y0012850D01*
X0429435Y0012751D01*
X0429324Y0012654D01*
X0429211Y0012561D01*
X0429096Y0012471D01*
X0428978Y0012384D01*
X0428858Y0012300D01*
X0428735Y0012219D01*
X0428611Y0012142D01*
X0428484Y0012068D01*
X0428355Y0011998D01*
X0428225Y0011931D01*
X0428093Y0011867D01*
X0427959Y0011808D01*
X0427824Y0011751D01*
X0427687Y0011699D01*
X0427548Y0011650D01*
X0427409Y0011605D01*
X0427268Y0011564D01*
X0427126Y0011527D01*
X0426984Y0011494D01*
X0426840Y0011464D01*
X0426696Y0011438D01*
X0426551Y0011417D01*
X0426405Y0011399D01*
X0426259Y0011385D01*
X0426113Y0011375D01*
X0425967Y0011369D01*
X0425820Y0011367D01*
X0425673Y0011369D01*
X0425527Y0011375D01*
X0425381Y0011385D01*
X0425235Y0011399D01*
X0425089Y0011417D01*
X0424944Y0011438D01*
X0424800Y0011464D01*
X0424656Y0011494D01*
X0424514Y0011527D01*
X0424372Y0011564D01*
X0424231Y0011605D01*
X0424092Y0011650D01*
X0423953Y0011699D01*
X0423816Y0011751D01*
X0423681Y0011808D01*
X0423547Y0011867D01*
X0423415Y0011931D01*
X0423285Y0011998D01*
X0423156Y0012068D01*
X0423029Y0012142D01*
X0422905Y0012219D01*
X0422782Y0012300D01*
X0422662Y0012384D01*
X0422544Y0012471D01*
X0422429Y0012561D01*
X0422316Y0012654D01*
X0422205Y0012751D01*
X0422097Y0012850D01*
X0421992Y0012952D01*
X0421890Y0013057D01*
X0421791Y0013165D01*
X0421694Y0013276D01*
X0421601Y0013389D01*
X0421511Y0013504D01*
X0421424Y0013622D01*
X0421340Y0013742D01*
X0421259Y0013865D01*
X0421182Y0013989D01*
X0421108Y0014116D01*
X0421038Y0014245D01*
X0420971Y0014375D01*
X0420907Y0014507D01*
X0420848Y0014641D01*
X0420791Y0014776D01*
X0420739Y0014913D01*
X0420690Y0015052D01*
X0420645Y0015191D01*
X0420604Y0015332D01*
X0420567Y0015474D01*
X0420534Y0015616D01*
X0420504Y0015760D01*
X0420478Y0015904D01*
X0420457Y0016049D01*
X0420439Y0016195D01*
X0420425Y0016341D01*
X0420415Y0016487D01*
X0420409Y0016633D01*
X0420407Y0016780D01*
X0460907Y0232626D02*
X0460909Y0232773D01*
X0460915Y0232919D01*
X0460925Y0233065D01*
X0460939Y0233211D01*
X0460957Y0233357D01*
X0460978Y0233502D01*
X0461004Y0233646D01*
X0461034Y0233790D01*
X0461067Y0233932D01*
X0461104Y0234074D01*
X0461145Y0234215D01*
X0461190Y0234354D01*
X0461239Y0234493D01*
X0461291Y0234630D01*
X0461348Y0234765D01*
X0461407Y0234899D01*
X0461471Y0235031D01*
X0461538Y0235161D01*
X0461608Y0235290D01*
X0461682Y0235417D01*
X0461759Y0235541D01*
X0461840Y0235664D01*
X0461924Y0235784D01*
X0462011Y0235902D01*
X0462101Y0236017D01*
X0462194Y0236130D01*
X0462291Y0236241D01*
X0462390Y0236349D01*
X0462492Y0236454D01*
X0462597Y0236556D01*
X0462705Y0236655D01*
X0462816Y0236752D01*
X0462929Y0236845D01*
X0463044Y0236935D01*
X0463162Y0237022D01*
X0463282Y0237106D01*
X0463405Y0237187D01*
X0463529Y0237264D01*
X0463656Y0237338D01*
X0463785Y0237408D01*
X0463915Y0237475D01*
X0464047Y0237539D01*
X0464181Y0237598D01*
X0464316Y0237655D01*
X0464453Y0237707D01*
X0464592Y0237756D01*
X0464731Y0237801D01*
X0464872Y0237842D01*
X0465014Y0237879D01*
X0465156Y0237912D01*
X0465300Y0237942D01*
X0465444Y0237968D01*
X0465589Y0237989D01*
X0465735Y0238007D01*
X0465881Y0238021D01*
X0466027Y0238031D01*
X0466173Y0238037D01*
X0466320Y0238039D01*
X0466467Y0238037D01*
X0466613Y0238031D01*
X0466759Y0238021D01*
X0466905Y0238007D01*
X0467051Y0237989D01*
X0467196Y0237968D01*
X0467340Y0237942D01*
X0467484Y0237912D01*
X0467626Y0237879D01*
X0467768Y0237842D01*
X0467909Y0237801D01*
X0468048Y0237756D01*
X0468187Y0237707D01*
X0468324Y0237655D01*
X0468459Y0237598D01*
X0468593Y0237539D01*
X0468725Y0237475D01*
X0468855Y0237408D01*
X0468984Y0237338D01*
X0469111Y0237264D01*
X0469235Y0237187D01*
X0469358Y0237106D01*
X0469478Y0237022D01*
X0469596Y0236935D01*
X0469711Y0236845D01*
X0469824Y0236752D01*
X0469935Y0236655D01*
X0470043Y0236556D01*
X0470148Y0236454D01*
X0470250Y0236349D01*
X0470349Y0236241D01*
X0470446Y0236130D01*
X0470539Y0236017D01*
X0470629Y0235902D01*
X0470716Y0235784D01*
X0470800Y0235664D01*
X0470881Y0235541D01*
X0470958Y0235417D01*
X0471032Y0235290D01*
X0471102Y0235161D01*
X0471169Y0235031D01*
X0471233Y0234899D01*
X0471292Y0234765D01*
X0471349Y0234630D01*
X0471401Y0234493D01*
X0471450Y0234354D01*
X0471495Y0234215D01*
X0471536Y0234074D01*
X0471573Y0233932D01*
X0471606Y0233790D01*
X0471636Y0233646D01*
X0471662Y0233502D01*
X0471683Y0233357D01*
X0471701Y0233211D01*
X0471715Y0233065D01*
X0471725Y0232919D01*
X0471731Y0232773D01*
X0471733Y0232626D01*
X0471731Y0232479D01*
X0471725Y0232333D01*
X0471715Y0232187D01*
X0471701Y0232041D01*
X0471683Y0231895D01*
X0471662Y0231750D01*
X0471636Y0231606D01*
X0471606Y0231462D01*
X0471573Y0231320D01*
X0471536Y0231178D01*
X0471495Y0231037D01*
X0471450Y0230898D01*
X0471401Y0230759D01*
X0471349Y0230622D01*
X0471292Y0230487D01*
X0471233Y0230353D01*
X0471169Y0230221D01*
X0471102Y0230091D01*
X0471032Y0229962D01*
X0470958Y0229835D01*
X0470881Y0229711D01*
X0470800Y0229588D01*
X0470716Y0229468D01*
X0470629Y0229350D01*
X0470539Y0229235D01*
X0470446Y0229122D01*
X0470349Y0229011D01*
X0470250Y0228903D01*
X0470148Y0228798D01*
X0470043Y0228696D01*
X0469935Y0228597D01*
X0469824Y0228500D01*
X0469711Y0228407D01*
X0469596Y0228317D01*
X0469478Y0228230D01*
X0469358Y0228146D01*
X0469235Y0228065D01*
X0469111Y0227988D01*
X0468984Y0227914D01*
X0468855Y0227844D01*
X0468725Y0227777D01*
X0468593Y0227713D01*
X0468459Y0227654D01*
X0468324Y0227597D01*
X0468187Y0227545D01*
X0468048Y0227496D01*
X0467909Y0227451D01*
X0467768Y0227410D01*
X0467626Y0227373D01*
X0467484Y0227340D01*
X0467340Y0227310D01*
X0467196Y0227284D01*
X0467051Y0227263D01*
X0466905Y0227245D01*
X0466759Y0227231D01*
X0466613Y0227221D01*
X0466467Y0227215D01*
X0466320Y0227213D01*
X0466173Y0227215D01*
X0466027Y0227221D01*
X0465881Y0227231D01*
X0465735Y0227245D01*
X0465589Y0227263D01*
X0465444Y0227284D01*
X0465300Y0227310D01*
X0465156Y0227340D01*
X0465014Y0227373D01*
X0464872Y0227410D01*
X0464731Y0227451D01*
X0464592Y0227496D01*
X0464453Y0227545D01*
X0464316Y0227597D01*
X0464181Y0227654D01*
X0464047Y0227713D01*
X0463915Y0227777D01*
X0463785Y0227844D01*
X0463656Y0227914D01*
X0463529Y0227988D01*
X0463405Y0228065D01*
X0463282Y0228146D01*
X0463162Y0228230D01*
X0463044Y0228317D01*
X0462929Y0228407D01*
X0462816Y0228500D01*
X0462705Y0228597D01*
X0462597Y0228696D01*
X0462492Y0228798D01*
X0462390Y0228903D01*
X0462291Y0229011D01*
X0462194Y0229122D01*
X0462101Y0229235D01*
X0462011Y0229350D01*
X0461924Y0229468D01*
X0461840Y0229588D01*
X0461759Y0229711D01*
X0461682Y0229835D01*
X0461608Y0229962D01*
X0461538Y0230091D01*
X0461471Y0230221D01*
X0461407Y0230353D01*
X0461348Y0230487D01*
X0461291Y0230622D01*
X0461239Y0230759D01*
X0461190Y0230898D01*
X0461145Y0231037D01*
X0461104Y0231178D01*
X0461067Y0231320D01*
X0461034Y0231462D01*
X0461004Y0231606D01*
X0460978Y0231750D01*
X0460957Y0231895D01*
X0460939Y0232041D01*
X0460925Y0232187D01*
X0460915Y0232333D01*
X0460909Y0232479D01*
X0460907Y0232626D01*
X0205407Y0245126D02*
X0205409Y0245273D01*
X0205415Y0245419D01*
X0205425Y0245565D01*
X0205439Y0245711D01*
X0205457Y0245857D01*
X0205478Y0246002D01*
X0205504Y0246146D01*
X0205534Y0246290D01*
X0205567Y0246432D01*
X0205604Y0246574D01*
X0205645Y0246715D01*
X0205690Y0246854D01*
X0205739Y0246993D01*
X0205791Y0247130D01*
X0205848Y0247265D01*
X0205907Y0247399D01*
X0205971Y0247531D01*
X0206038Y0247661D01*
X0206108Y0247790D01*
X0206182Y0247917D01*
X0206259Y0248041D01*
X0206340Y0248164D01*
X0206424Y0248284D01*
X0206511Y0248402D01*
X0206601Y0248517D01*
X0206694Y0248630D01*
X0206791Y0248741D01*
X0206890Y0248849D01*
X0206992Y0248954D01*
X0207097Y0249056D01*
X0207205Y0249155D01*
X0207316Y0249252D01*
X0207429Y0249345D01*
X0207544Y0249435D01*
X0207662Y0249522D01*
X0207782Y0249606D01*
X0207905Y0249687D01*
X0208029Y0249764D01*
X0208156Y0249838D01*
X0208285Y0249908D01*
X0208415Y0249975D01*
X0208547Y0250039D01*
X0208681Y0250098D01*
X0208816Y0250155D01*
X0208953Y0250207D01*
X0209092Y0250256D01*
X0209231Y0250301D01*
X0209372Y0250342D01*
X0209514Y0250379D01*
X0209656Y0250412D01*
X0209800Y0250442D01*
X0209944Y0250468D01*
X0210089Y0250489D01*
X0210235Y0250507D01*
X0210381Y0250521D01*
X0210527Y0250531D01*
X0210673Y0250537D01*
X0210820Y0250539D01*
X0210967Y0250537D01*
X0211113Y0250531D01*
X0211259Y0250521D01*
X0211405Y0250507D01*
X0211551Y0250489D01*
X0211696Y0250468D01*
X0211840Y0250442D01*
X0211984Y0250412D01*
X0212126Y0250379D01*
X0212268Y0250342D01*
X0212409Y0250301D01*
X0212548Y0250256D01*
X0212687Y0250207D01*
X0212824Y0250155D01*
X0212959Y0250098D01*
X0213093Y0250039D01*
X0213225Y0249975D01*
X0213355Y0249908D01*
X0213484Y0249838D01*
X0213611Y0249764D01*
X0213735Y0249687D01*
X0213858Y0249606D01*
X0213978Y0249522D01*
X0214096Y0249435D01*
X0214211Y0249345D01*
X0214324Y0249252D01*
X0214435Y0249155D01*
X0214543Y0249056D01*
X0214648Y0248954D01*
X0214750Y0248849D01*
X0214849Y0248741D01*
X0214946Y0248630D01*
X0215039Y0248517D01*
X0215129Y0248402D01*
X0215216Y0248284D01*
X0215300Y0248164D01*
X0215381Y0248041D01*
X0215458Y0247917D01*
X0215532Y0247790D01*
X0215602Y0247661D01*
X0215669Y0247531D01*
X0215733Y0247399D01*
X0215792Y0247265D01*
X0215849Y0247130D01*
X0215901Y0246993D01*
X0215950Y0246854D01*
X0215995Y0246715D01*
X0216036Y0246574D01*
X0216073Y0246432D01*
X0216106Y0246290D01*
X0216136Y0246146D01*
X0216162Y0246002D01*
X0216183Y0245857D01*
X0216201Y0245711D01*
X0216215Y0245565D01*
X0216225Y0245419D01*
X0216231Y0245273D01*
X0216233Y0245126D01*
X0216231Y0244979D01*
X0216225Y0244833D01*
X0216215Y0244687D01*
X0216201Y0244541D01*
X0216183Y0244395D01*
X0216162Y0244250D01*
X0216136Y0244106D01*
X0216106Y0243962D01*
X0216073Y0243820D01*
X0216036Y0243678D01*
X0215995Y0243537D01*
X0215950Y0243398D01*
X0215901Y0243259D01*
X0215849Y0243122D01*
X0215792Y0242987D01*
X0215733Y0242853D01*
X0215669Y0242721D01*
X0215602Y0242591D01*
X0215532Y0242462D01*
X0215458Y0242335D01*
X0215381Y0242211D01*
X0215300Y0242088D01*
X0215216Y0241968D01*
X0215129Y0241850D01*
X0215039Y0241735D01*
X0214946Y0241622D01*
X0214849Y0241511D01*
X0214750Y0241403D01*
X0214648Y0241298D01*
X0214543Y0241196D01*
X0214435Y0241097D01*
X0214324Y0241000D01*
X0214211Y0240907D01*
X0214096Y0240817D01*
X0213978Y0240730D01*
X0213858Y0240646D01*
X0213735Y0240565D01*
X0213611Y0240488D01*
X0213484Y0240414D01*
X0213355Y0240344D01*
X0213225Y0240277D01*
X0213093Y0240213D01*
X0212959Y0240154D01*
X0212824Y0240097D01*
X0212687Y0240045D01*
X0212548Y0239996D01*
X0212409Y0239951D01*
X0212268Y0239910D01*
X0212126Y0239873D01*
X0211984Y0239840D01*
X0211840Y0239810D01*
X0211696Y0239784D01*
X0211551Y0239763D01*
X0211405Y0239745D01*
X0211259Y0239731D01*
X0211113Y0239721D01*
X0210967Y0239715D01*
X0210820Y0239713D01*
X0210673Y0239715D01*
X0210527Y0239721D01*
X0210381Y0239731D01*
X0210235Y0239745D01*
X0210089Y0239763D01*
X0209944Y0239784D01*
X0209800Y0239810D01*
X0209656Y0239840D01*
X0209514Y0239873D01*
X0209372Y0239910D01*
X0209231Y0239951D01*
X0209092Y0239996D01*
X0208953Y0240045D01*
X0208816Y0240097D01*
X0208681Y0240154D01*
X0208547Y0240213D01*
X0208415Y0240277D01*
X0208285Y0240344D01*
X0208156Y0240414D01*
X0208029Y0240488D01*
X0207905Y0240565D01*
X0207782Y0240646D01*
X0207662Y0240730D01*
X0207544Y0240817D01*
X0207429Y0240907D01*
X0207316Y0241000D01*
X0207205Y0241097D01*
X0207097Y0241196D01*
X0206992Y0241298D01*
X0206890Y0241403D01*
X0206791Y0241511D01*
X0206694Y0241622D01*
X0206601Y0241735D01*
X0206511Y0241850D01*
X0206424Y0241968D01*
X0206340Y0242088D01*
X0206259Y0242211D01*
X0206182Y0242335D01*
X0206108Y0242462D01*
X0206038Y0242591D01*
X0205971Y0242721D01*
X0205907Y0242853D01*
X0205848Y0242987D01*
X0205791Y0243122D01*
X0205739Y0243259D01*
X0205690Y0243398D01*
X0205645Y0243537D01*
X0205604Y0243678D01*
X0205567Y0243820D01*
X0205534Y0243962D01*
X0205504Y0244106D01*
X0205478Y0244250D01*
X0205457Y0244395D01*
X0205439Y0244541D01*
X0205425Y0244687D01*
X0205415Y0244833D01*
X0205409Y0244979D01*
X0205407Y0245126D01*
X0012494Y0245126D02*
X0012496Y0245273D01*
X0012502Y0245419D01*
X0012512Y0245565D01*
X0012526Y0245711D01*
X0012544Y0245857D01*
X0012565Y0246002D01*
X0012591Y0246146D01*
X0012621Y0246290D01*
X0012654Y0246432D01*
X0012691Y0246574D01*
X0012732Y0246715D01*
X0012777Y0246854D01*
X0012826Y0246993D01*
X0012878Y0247130D01*
X0012935Y0247265D01*
X0012994Y0247399D01*
X0013058Y0247531D01*
X0013125Y0247661D01*
X0013195Y0247790D01*
X0013269Y0247917D01*
X0013346Y0248041D01*
X0013427Y0248164D01*
X0013511Y0248284D01*
X0013598Y0248402D01*
X0013688Y0248517D01*
X0013781Y0248630D01*
X0013878Y0248741D01*
X0013977Y0248849D01*
X0014079Y0248954D01*
X0014184Y0249056D01*
X0014292Y0249155D01*
X0014403Y0249252D01*
X0014516Y0249345D01*
X0014631Y0249435D01*
X0014749Y0249522D01*
X0014869Y0249606D01*
X0014992Y0249687D01*
X0015116Y0249764D01*
X0015243Y0249838D01*
X0015372Y0249908D01*
X0015502Y0249975D01*
X0015634Y0250039D01*
X0015768Y0250098D01*
X0015903Y0250155D01*
X0016040Y0250207D01*
X0016179Y0250256D01*
X0016318Y0250301D01*
X0016459Y0250342D01*
X0016601Y0250379D01*
X0016743Y0250412D01*
X0016887Y0250442D01*
X0017031Y0250468D01*
X0017176Y0250489D01*
X0017322Y0250507D01*
X0017468Y0250521D01*
X0017614Y0250531D01*
X0017760Y0250537D01*
X0017907Y0250539D01*
X0018054Y0250537D01*
X0018200Y0250531D01*
X0018346Y0250521D01*
X0018492Y0250507D01*
X0018638Y0250489D01*
X0018783Y0250468D01*
X0018927Y0250442D01*
X0019071Y0250412D01*
X0019213Y0250379D01*
X0019355Y0250342D01*
X0019496Y0250301D01*
X0019635Y0250256D01*
X0019774Y0250207D01*
X0019911Y0250155D01*
X0020046Y0250098D01*
X0020180Y0250039D01*
X0020312Y0249975D01*
X0020442Y0249908D01*
X0020571Y0249838D01*
X0020698Y0249764D01*
X0020822Y0249687D01*
X0020945Y0249606D01*
X0021065Y0249522D01*
X0021183Y0249435D01*
X0021298Y0249345D01*
X0021411Y0249252D01*
X0021522Y0249155D01*
X0021630Y0249056D01*
X0021735Y0248954D01*
X0021837Y0248849D01*
X0021936Y0248741D01*
X0022033Y0248630D01*
X0022126Y0248517D01*
X0022216Y0248402D01*
X0022303Y0248284D01*
X0022387Y0248164D01*
X0022468Y0248041D01*
X0022545Y0247917D01*
X0022619Y0247790D01*
X0022689Y0247661D01*
X0022756Y0247531D01*
X0022820Y0247399D01*
X0022879Y0247265D01*
X0022936Y0247130D01*
X0022988Y0246993D01*
X0023037Y0246854D01*
X0023082Y0246715D01*
X0023123Y0246574D01*
X0023160Y0246432D01*
X0023193Y0246290D01*
X0023223Y0246146D01*
X0023249Y0246002D01*
X0023270Y0245857D01*
X0023288Y0245711D01*
X0023302Y0245565D01*
X0023312Y0245419D01*
X0023318Y0245273D01*
X0023320Y0245126D01*
X0023318Y0244979D01*
X0023312Y0244833D01*
X0023302Y0244687D01*
X0023288Y0244541D01*
X0023270Y0244395D01*
X0023249Y0244250D01*
X0023223Y0244106D01*
X0023193Y0243962D01*
X0023160Y0243820D01*
X0023123Y0243678D01*
X0023082Y0243537D01*
X0023037Y0243398D01*
X0022988Y0243259D01*
X0022936Y0243122D01*
X0022879Y0242987D01*
X0022820Y0242853D01*
X0022756Y0242721D01*
X0022689Y0242591D01*
X0022619Y0242462D01*
X0022545Y0242335D01*
X0022468Y0242211D01*
X0022387Y0242088D01*
X0022303Y0241968D01*
X0022216Y0241850D01*
X0022126Y0241735D01*
X0022033Y0241622D01*
X0021936Y0241511D01*
X0021837Y0241403D01*
X0021735Y0241298D01*
X0021630Y0241196D01*
X0021522Y0241097D01*
X0021411Y0241000D01*
X0021298Y0240907D01*
X0021183Y0240817D01*
X0021065Y0240730D01*
X0020945Y0240646D01*
X0020822Y0240565D01*
X0020698Y0240488D01*
X0020571Y0240414D01*
X0020442Y0240344D01*
X0020312Y0240277D01*
X0020180Y0240213D01*
X0020046Y0240154D01*
X0019911Y0240097D01*
X0019774Y0240045D01*
X0019635Y0239996D01*
X0019496Y0239951D01*
X0019355Y0239910D01*
X0019213Y0239873D01*
X0019071Y0239840D01*
X0018927Y0239810D01*
X0018783Y0239784D01*
X0018638Y0239763D01*
X0018492Y0239745D01*
X0018346Y0239731D01*
X0018200Y0239721D01*
X0018054Y0239715D01*
X0017907Y0239713D01*
X0017760Y0239715D01*
X0017614Y0239721D01*
X0017468Y0239731D01*
X0017322Y0239745D01*
X0017176Y0239763D01*
X0017031Y0239784D01*
X0016887Y0239810D01*
X0016743Y0239840D01*
X0016601Y0239873D01*
X0016459Y0239910D01*
X0016318Y0239951D01*
X0016179Y0239996D01*
X0016040Y0240045D01*
X0015903Y0240097D01*
X0015768Y0240154D01*
X0015634Y0240213D01*
X0015502Y0240277D01*
X0015372Y0240344D01*
X0015243Y0240414D01*
X0015116Y0240488D01*
X0014992Y0240565D01*
X0014869Y0240646D01*
X0014749Y0240730D01*
X0014631Y0240817D01*
X0014516Y0240907D01*
X0014403Y0241000D01*
X0014292Y0241097D01*
X0014184Y0241196D01*
X0014079Y0241298D01*
X0013977Y0241403D01*
X0013878Y0241511D01*
X0013781Y0241622D01*
X0013688Y0241735D01*
X0013598Y0241850D01*
X0013511Y0241968D01*
X0013427Y0242088D01*
X0013346Y0242211D01*
X0013269Y0242335D01*
X0013195Y0242462D01*
X0013125Y0242591D01*
X0013058Y0242721D01*
X0012994Y0242853D01*
X0012935Y0242987D01*
X0012878Y0243122D01*
X0012826Y0243259D01*
X0012777Y0243398D01*
X0012732Y0243537D01*
X0012691Y0243678D01*
X0012654Y0243820D01*
X0012621Y0243962D01*
X0012591Y0244106D01*
X0012565Y0244250D01*
X0012544Y0244395D01*
X0012526Y0244541D01*
X0012512Y0244687D01*
X0012502Y0244833D01*
X0012496Y0244979D01*
X0012494Y0245126D01*
D11*
X0013970Y0003000D02*
X0466289Y0003000D01*
X0466562Y0002991D01*
X0466836Y0002989D01*
X0467110Y0002994D01*
X0467383Y0003005D01*
X0467656Y0003022D01*
X0467929Y0003046D01*
X0468200Y0003077D01*
X0468471Y0003115D01*
X0468742Y0003159D01*
X0469010Y0003209D01*
X0469278Y0003266D01*
X0469544Y0003329D01*
X0469809Y0003399D01*
X0470072Y0003475D01*
X0470332Y0003558D01*
X0470591Y0003647D01*
X0470848Y0003742D01*
X0471102Y0003843D01*
X0471354Y0003950D01*
X0471603Y0004063D01*
X0471849Y0004183D01*
X0472092Y0004308D01*
X0472332Y0004439D01*
X0472569Y0004576D01*
X0472803Y0004718D01*
X0473033Y0004866D01*
X0473259Y0005020D01*
X0473482Y0005179D01*
X0473701Y0005343D01*
X0473915Y0005513D01*
X0474126Y0005688D01*
X0474332Y0005868D01*
X0474534Y0006052D01*
X0474731Y0006242D01*
X0474924Y0006436D01*
X0475112Y0006635D01*
X0475295Y0006838D01*
X0475473Y0007046D01*
X0475646Y0007258D01*
X0475814Y0007474D01*
X0475976Y0007694D01*
X0476133Y0007918D01*
X0476285Y0008146D01*
X0476431Y0008377D01*
X0476572Y0008612D01*
X0476707Y0008850D01*
X0476836Y0009091D01*
X0476959Y0009335D01*
X0477076Y0009583D01*
X0477188Y0009833D01*
X0477293Y0010085D01*
X0477392Y0010340D01*
X0477485Y0010598D01*
X0477571Y0010857D01*
X0477652Y0011119D01*
X0477726Y0011382D01*
X0477793Y0011647D01*
X0477854Y0011914D01*
X0477909Y0012182D01*
X0477957Y0012451D01*
X0477999Y0012722D01*
X0478034Y0012993D01*
X0478063Y0013265D01*
X0478085Y0013538D01*
X0478100Y0013811D01*
X0478100Y0286150D01*
X0478100Y0286149D02*
X0478091Y0286441D01*
X0478075Y0286733D01*
X0478051Y0287024D01*
X0478021Y0287314D01*
X0477984Y0287604D01*
X0477940Y0287892D01*
X0477889Y0288180D01*
X0477830Y0288466D01*
X0477765Y0288751D01*
X0477694Y0289034D01*
X0477615Y0289315D01*
X0477530Y0289594D01*
X0477437Y0289871D01*
X0477339Y0290146D01*
X0477233Y0290418D01*
X0477121Y0290688D01*
X0477003Y0290955D01*
X0476878Y0291219D01*
X0476746Y0291480D01*
X0476609Y0291737D01*
X0476465Y0291991D01*
X0476316Y0292242D01*
X0476160Y0292489D01*
X0475998Y0292732D01*
X0475830Y0292971D01*
X0475657Y0293206D01*
X0475478Y0293437D01*
X0475294Y0293663D01*
X0475104Y0293885D01*
X0474909Y0294102D01*
X0474709Y0294315D01*
X0474503Y0294522D01*
X0474293Y0294725D01*
X0474078Y0294922D01*
X0473858Y0295114D01*
X0473633Y0295301D01*
X0473404Y0295482D01*
X0473171Y0295658D01*
X0472934Y0295828D01*
X0472692Y0295992D01*
X0472447Y0296150D01*
X0472198Y0296303D01*
X0471945Y0296449D01*
X0471689Y0296589D01*
X0471429Y0296723D01*
X0471167Y0296851D01*
X0470901Y0296972D01*
X0470632Y0297087D01*
X0470361Y0297195D01*
X0470088Y0297296D01*
X0469811Y0297391D01*
X0469533Y0297480D01*
X0469253Y0297561D01*
X0468970Y0297636D01*
X0468687Y0297704D01*
X0468401Y0297765D01*
X0468114Y0297819D01*
X0467826Y0297866D01*
X0467537Y0297906D01*
X0467247Y0297939D01*
X0466956Y0297966D01*
X0466664Y0297985D01*
X0466373Y0297997D01*
X0466081Y0298002D01*
X0465789Y0298000D01*
X0465600Y0298000D01*
X0465600Y0288500D01*
X0405600Y0288500D01*
X0405600Y0298000D01*
X0262100Y0298000D01*
X0262100Y0266000D01*
X0229429Y0265999D01*
X0229325Y0265997D01*
X0229222Y0265991D01*
X0229119Y0265982D01*
X0229017Y0265969D01*
X0228915Y0265952D01*
X0228814Y0265931D01*
X0228713Y0265907D01*
X0228614Y0265879D01*
X0228515Y0265848D01*
X0228418Y0265813D01*
X0228322Y0265774D01*
X0228228Y0265732D01*
X0228135Y0265686D01*
X0228044Y0265637D01*
X0227955Y0265585D01*
X0227868Y0265530D01*
X0227783Y0265471D01*
X0227700Y0265410D01*
X0227619Y0265345D01*
X0227541Y0265277D01*
X0227465Y0265207D01*
X0227392Y0265134D01*
X0227322Y0265058D01*
X0227254Y0264980D01*
X0227190Y0264900D01*
X0227128Y0264817D01*
X0227070Y0264732D01*
X0227014Y0264644D01*
X0226962Y0264555D01*
X0226913Y0264464D01*
X0226867Y0264372D01*
X0226825Y0264277D01*
X0226787Y0264181D01*
X0226752Y0264084D01*
X0226720Y0263986D01*
X0226692Y0263886D01*
X0226668Y0263786D01*
X0226647Y0263685D01*
X0226630Y0263583D01*
X0226617Y0263480D01*
X0226608Y0263377D01*
X0226602Y0263274D01*
X0226600Y0263171D01*
X0226600Y0257000D01*
X0141600Y0257000D01*
X0141600Y0263171D01*
X0141598Y0263276D01*
X0141592Y0263382D01*
X0141582Y0263487D01*
X0141568Y0263592D01*
X0141550Y0263696D01*
X0141528Y0263800D01*
X0141503Y0263902D01*
X0141473Y0264004D01*
X0141440Y0264104D01*
X0141403Y0264204D01*
X0141363Y0264301D01*
X0141319Y0264397D01*
X0141271Y0264492D01*
X0141220Y0264584D01*
X0141165Y0264675D01*
X0141107Y0264763D01*
X0141046Y0264850D01*
X0140982Y0264933D01*
X0140914Y0265015D01*
X0140844Y0265094D01*
X0140770Y0265170D01*
X0140694Y0265243D01*
X0140615Y0265314D01*
X0140534Y0265381D01*
X0140450Y0265446D01*
X0140364Y0265507D01*
X0140275Y0265565D01*
X0140185Y0265619D01*
X0140092Y0265670D01*
X0139998Y0265718D01*
X0139901Y0265762D01*
X0139804Y0265803D01*
X0139705Y0265840D01*
X0139604Y0265873D01*
X0139503Y0265902D01*
X0139400Y0265928D01*
X0139296Y0265949D01*
X0139192Y0265967D01*
X0139087Y0265981D01*
X0138982Y0265991D01*
X0138876Y0265997D01*
X0138771Y0265999D01*
X0011970Y0265961D01*
X0002159Y0259150D02*
X0002159Y0014811D01*
X0002162Y0014526D01*
X0002173Y0014240D01*
X0002190Y0013955D01*
X0002214Y0013671D01*
X0002245Y0013387D01*
X0002283Y0013104D01*
X0002328Y0012823D01*
X0002379Y0012542D01*
X0002437Y0012262D01*
X0002502Y0011984D01*
X0002574Y0011708D01*
X0002652Y0011434D01*
X0002737Y0011161D01*
X0002829Y0010891D01*
X0002927Y0010623D01*
X0003031Y0010357D01*
X0003142Y0010094D01*
X0003259Y0009834D01*
X0003382Y0009576D01*
X0003512Y0009322D01*
X0003648Y0009071D01*
X0003789Y0008823D01*
X0003937Y0008579D01*
X0004090Y0008338D01*
X0004250Y0008102D01*
X0004415Y0007869D01*
X0004585Y0007640D01*
X0004761Y0007415D01*
X0004943Y0007195D01*
X0005129Y0006979D01*
X0005321Y0006768D01*
X0005518Y0006561D01*
X0005720Y0006359D01*
X0005927Y0006162D01*
X0006138Y0005970D01*
X0006354Y0005784D01*
X0006574Y0005602D01*
X0006799Y0005426D01*
X0007028Y0005256D01*
X0007261Y0005091D01*
X0007497Y0004931D01*
X0007738Y0004778D01*
X0007982Y0004630D01*
X0008230Y0004489D01*
X0008481Y0004353D01*
X0008735Y0004223D01*
X0008993Y0004100D01*
X0009253Y0003983D01*
X0009516Y0003872D01*
X0009782Y0003768D01*
X0010050Y0003670D01*
X0010320Y0003578D01*
X0010593Y0003493D01*
X0010867Y0003415D01*
X0011143Y0003343D01*
X0011421Y0003278D01*
X0011701Y0003220D01*
X0011982Y0003169D01*
X0012263Y0003124D01*
X0012546Y0003086D01*
X0012830Y0003055D01*
X0013114Y0003031D01*
X0013399Y0003014D01*
X0013685Y0003003D01*
X0013970Y0003000D01*
X0002159Y0259150D02*
X0002199Y0259353D01*
X0002243Y0259556D01*
X0002292Y0259757D01*
X0002346Y0259957D01*
X0002405Y0260156D01*
X0002469Y0260353D01*
X0002538Y0260549D01*
X0002612Y0260742D01*
X0002690Y0260934D01*
X0002773Y0261124D01*
X0002860Y0261312D01*
X0002953Y0261498D01*
X0003049Y0261681D01*
X0003150Y0261862D01*
X0003256Y0262040D01*
X0003366Y0262216D01*
X0003480Y0262389D01*
X0003599Y0262559D01*
X0003721Y0262726D01*
X0003848Y0262890D01*
X0003978Y0263051D01*
X0004113Y0263209D01*
X0004251Y0263363D01*
X0004393Y0263514D01*
X0004539Y0263662D01*
X0004688Y0263805D01*
X0004841Y0263945D01*
X0004997Y0264082D01*
X0005157Y0264214D01*
X0005319Y0264343D01*
X0005485Y0264467D01*
X0005654Y0264587D01*
X0005826Y0264703D01*
X0006000Y0264815D01*
X0006177Y0264923D01*
X0006357Y0265026D01*
X0006539Y0265125D01*
X0006724Y0265219D01*
X0006911Y0265308D01*
X0007100Y0265393D01*
X0007291Y0265474D01*
X0007484Y0265549D01*
X0007679Y0265620D01*
X0007875Y0265686D01*
X0008073Y0265748D01*
X0008273Y0265804D01*
X0008473Y0265856D01*
X0008675Y0265902D01*
X0008878Y0265944D01*
X0009082Y0265980D01*
X0009287Y0266012D01*
X0009493Y0266038D01*
X0009699Y0266060D01*
X0009906Y0266076D01*
X0010113Y0266087D01*
X0010320Y0266094D01*
X0010527Y0266095D01*
X0010734Y0266091D01*
X0010941Y0266082D01*
X0011148Y0266068D01*
X0011355Y0266049D01*
X0011560Y0266024D01*
X0011766Y0265995D01*
X0011970Y0265961D01*
D12*
X0358757Y0164952D02*
X0378443Y0199048D01*
X0378442Y0199048D02*
X0378024Y0199282D01*
X0377601Y0199507D01*
X0377172Y0199721D01*
X0376738Y0199924D01*
X0376299Y0200117D01*
X0375855Y0200299D01*
X0375408Y0200470D01*
X0374956Y0200631D01*
X0374500Y0200780D01*
X0374041Y0200918D01*
X0373579Y0201045D01*
X0373114Y0201161D01*
X0372646Y0201265D01*
X0372176Y0201358D01*
X0371703Y0201439D01*
X0371229Y0201509D01*
X0370753Y0201567D01*
X0370276Y0201614D01*
X0369798Y0201649D01*
X0369319Y0201672D01*
X0368840Y0201684D01*
X0368360Y0201684D01*
X0367881Y0201672D01*
X0367402Y0201649D01*
X0366924Y0201614D01*
X0366447Y0201567D01*
X0365971Y0201509D01*
X0365497Y0201439D01*
X0365024Y0201358D01*
X0364554Y0201265D01*
X0364086Y0201161D01*
X0363621Y0201045D01*
X0363159Y0200918D01*
X0362700Y0200780D01*
X0362244Y0200631D01*
X0361792Y0200470D01*
X0361345Y0200299D01*
X0360901Y0200117D01*
X0360462Y0199924D01*
X0360028Y0199721D01*
X0359599Y0199507D01*
X0359176Y0199282D01*
X0358757Y0199048D01*
X0358345Y0198803D01*
X0357939Y0198548D01*
X0357539Y0198284D01*
X0357146Y0198010D01*
X0356760Y0197726D01*
X0356380Y0197433D01*
X0356008Y0197131D01*
X0355643Y0196820D01*
X0355286Y0196500D01*
X0354937Y0196171D01*
X0354596Y0195834D01*
X0354263Y0195489D01*
X0353939Y0195136D01*
X0353624Y0194775D01*
X0353317Y0194407D01*
X0353019Y0194031D01*
X0352731Y0193648D01*
X0352452Y0193258D01*
X0352183Y0192862D01*
X0351923Y0192459D01*
X0351673Y0192049D01*
X0351434Y0191634D01*
X0351204Y0191213D01*
X0350985Y0190787D01*
X0350776Y0190355D01*
X0350578Y0189919D01*
X0350391Y0189478D01*
X0350214Y0189032D01*
X0350048Y0188582D01*
X0349893Y0188129D01*
X0349750Y0187671D01*
X0349617Y0187211D01*
X0349496Y0186747D01*
X0349386Y0186280D01*
X0349287Y0185811D01*
X0349200Y0185340D01*
X0349125Y0184866D01*
X0349061Y0184391D01*
X0349008Y0183915D01*
X0348968Y0183437D01*
X0348938Y0182958D01*
X0348921Y0182479D01*
X0348915Y0182000D01*
X0348921Y0181521D01*
X0348938Y0181042D01*
X0348968Y0180563D01*
X0349008Y0180085D01*
X0349061Y0179609D01*
X0349125Y0179134D01*
X0349200Y0178660D01*
X0349287Y0178189D01*
X0349386Y0177720D01*
X0349496Y0177253D01*
X0349617Y0176789D01*
X0349750Y0176329D01*
X0349893Y0175871D01*
X0350048Y0175418D01*
X0350214Y0174968D01*
X0350391Y0174522D01*
X0350578Y0174081D01*
X0350776Y0173645D01*
X0350985Y0173213D01*
X0351204Y0172787D01*
X0351434Y0172366D01*
X0351673Y0171951D01*
X0351923Y0171541D01*
X0352183Y0171138D01*
X0352452Y0170742D01*
X0352731Y0170352D01*
X0353019Y0169969D01*
X0353317Y0169593D01*
X0353624Y0169225D01*
X0353939Y0168864D01*
X0354263Y0168511D01*
X0354596Y0168166D01*
X0354937Y0167829D01*
X0355286Y0167500D01*
X0355643Y0167180D01*
X0356008Y0166869D01*
X0356380Y0166567D01*
X0356760Y0166274D01*
X0357146Y0165990D01*
X0357539Y0165716D01*
X0357939Y0165452D01*
X0358345Y0165197D01*
X0358758Y0164952D01*
X0358345Y0165197D01*
X0357939Y0165452D01*
X0357539Y0165716D01*
X0357146Y0165990D01*
X0356760Y0166274D01*
X0356380Y0166567D01*
X0356008Y0166869D01*
X0355643Y0167180D01*
X0355286Y0167500D01*
X0354937Y0167829D01*
X0354596Y0168166D01*
X0354263Y0168511D01*
X0353939Y0168864D01*
X0353624Y0169225D01*
X0353317Y0169593D01*
X0353019Y0169969D01*
X0352731Y0170352D01*
X0352452Y0170742D01*
X0352183Y0171138D01*
X0351923Y0171541D01*
X0351673Y0171951D01*
X0351434Y0172366D01*
X0351204Y0172787D01*
X0350985Y0173213D01*
X0350776Y0173645D01*
X0350578Y0174081D01*
X0350391Y0174522D01*
X0350214Y0174968D01*
X0350048Y0175418D01*
X0349893Y0175871D01*
X0349750Y0176329D01*
X0349617Y0176789D01*
X0349496Y0177253D01*
X0349386Y0177720D01*
X0349287Y0178189D01*
X0349200Y0178660D01*
X0349125Y0179134D01*
X0349061Y0179609D01*
X0349008Y0180085D01*
X0348968Y0180563D01*
X0348938Y0181042D01*
X0348921Y0181521D01*
X0348915Y0182000D01*
X0348921Y0182479D01*
X0348938Y0182958D01*
X0348968Y0183437D01*
X0349008Y0183915D01*
X0349061Y0184391D01*
X0349125Y0184866D01*
X0349200Y0185340D01*
X0349287Y0185811D01*
X0349386Y0186280D01*
X0349496Y0186747D01*
X0349617Y0187211D01*
X0349750Y0187671D01*
X0349893Y0188129D01*
X0350048Y0188582D01*
X0350214Y0189032D01*
X0350391Y0189478D01*
X0350578Y0189919D01*
X0350776Y0190355D01*
X0350985Y0190787D01*
X0351204Y0191213D01*
X0351434Y0191634D01*
X0351673Y0192049D01*
X0351923Y0192459D01*
X0352183Y0192862D01*
X0352452Y0193258D01*
X0352731Y0193648D01*
X0353019Y0194031D01*
X0353317Y0194407D01*
X0353624Y0194775D01*
X0353939Y0195136D01*
X0354263Y0195489D01*
X0354596Y0195834D01*
X0354937Y0196171D01*
X0355286Y0196500D01*
X0355643Y0196820D01*
X0356008Y0197131D01*
X0356380Y0197433D01*
X0356760Y0197726D01*
X0357146Y0198010D01*
X0357539Y0198284D01*
X0357939Y0198548D01*
X0358345Y0198803D01*
X0358757Y0199048D01*
X0359176Y0199282D01*
X0359599Y0199507D01*
X0360028Y0199721D01*
X0360462Y0199924D01*
X0360901Y0200117D01*
X0361345Y0200299D01*
X0361792Y0200470D01*
X0362244Y0200631D01*
X0362700Y0200780D01*
X0363159Y0200918D01*
X0363621Y0201045D01*
X0364086Y0201161D01*
X0364554Y0201265D01*
X0365024Y0201358D01*
X0365497Y0201439D01*
X0365971Y0201509D01*
X0366447Y0201567D01*
X0366924Y0201614D01*
X0367402Y0201649D01*
X0367881Y0201672D01*
X0368360Y0201684D01*
X0368840Y0201684D01*
X0369319Y0201672D01*
X0369798Y0201649D01*
X0370276Y0201614D01*
X0370753Y0201567D01*
X0371229Y0201509D01*
X0371703Y0201439D01*
X0372176Y0201358D01*
X0372646Y0201265D01*
X0373114Y0201161D01*
X0373579Y0201045D01*
X0374041Y0200918D01*
X0374500Y0200780D01*
X0374956Y0200631D01*
X0375408Y0200470D01*
X0375855Y0200299D01*
X0376299Y0200117D01*
X0376738Y0199924D01*
X0377172Y0199721D01*
X0377601Y0199507D01*
X0378024Y0199282D01*
X0378442Y0199048D01*
D13*
X0420850Y0258500D02*
X0420850Y0293500D01*
X0425350Y0293500D01*
X0425350Y0258500D01*
X0420850Y0258500D01*
M02*
