%
M48
M72
T01C0.0197
T02C0.0236
T03C0.0400
T04C0.0787
T05C0.0810
T06C0.0840
T07C0.1083
T08C0.1654
%
T01
X4260Y2300
X6460Y2900
X6360Y4300
X5960Y5000
X5960Y5400
X5960Y5800
X4910Y6300
X3760Y5400
X3760Y5000
X4110Y4300
X8160Y5050
X8160Y5450
X8160Y5900
X9960Y7250
X9960Y7700
X11510Y7250
X11510Y6800
X11510Y6350
X10360Y5850
X10360Y5450
X10360Y5050
X10760Y4300
X12560Y5050
X12560Y5450
X12560Y5850
X13860Y6200
X14260Y6200
X14660Y6200
X15710Y6200
X15710Y5800
X15710Y5400
X16160Y4400
X17460Y6750
X18010Y6750
X18560Y6750
X18560Y7300
X17660Y8550
X21160Y9700
X19460Y12200
X19060Y12200
X18660Y12200
X18160Y14000
X19360Y14300
X21160Y15600
X20510Y15760
X20110Y15760
X20260Y17700
X20260Y18400
X20260Y19100
X20260Y19800
X21860Y18900
X21160Y22200
X26410Y23500
X26410Y23950
X26410Y24400
X26860Y24400
X26860Y23950
X26860Y23500
X27310Y23500
X27310Y23950
X27310Y24400
X27760Y24400
X27760Y23950
X27760Y23500
X29060Y20900
X29560Y20900
X30060Y20900
X29060Y18900
X28960Y16900
X29460Y16900
X29960Y16900
X28360Y14800
X28760Y13200
X29260Y11400
X29260Y11000
X30560Y11300
X31260Y11300
X33360Y11500
X33360Y10950
X33960Y10950
X31560Y13100
X31560Y13500
X27360Y11100
X29360Y9100
X29260Y7200
X29760Y7200
X30260Y7200
X29360Y5400
X21860Y5200
X12960Y4400
X8560Y4300
X7560Y7450
X8260Y10350
X8560Y10550
X8910Y10750
X9210Y10950
X9560Y11150
X10010Y11400
X10510Y11400
X11010Y11400
X11510Y11400
X12010Y11400
X12510Y11400
X12960Y11400
X13560Y11400
X13510Y13000
X13510Y13400
X14360Y13700
X14760Y14000
X11910Y14750
X11460Y14750
X11010Y14750
X10560Y14750
X10110Y14750
X8260Y14600
X13760Y18600
X13760Y19200
X12560Y19800
X10760Y21000
X10760Y21400
X5410Y22700
X3910Y22950
X3960Y20900
X4410Y20900
X21860Y13000
X34360Y25400
X34160Y27150
X40210Y27250
X43460Y24850
X45560Y24850
T02
X35460Y23800
X28460Y23000
T03
X43260Y22900
X43260Y15400
X18660Y1100
X17660Y1100
X16660Y1100
X15460Y1100
X14460Y1100
X13460Y1100
X12260Y1100
X11260Y1100
X10060Y1100
X9060Y1100
X7860Y1100
X6860Y1100
X5660Y1100
X4660Y1100
X2381Y3646
X1381Y3646
X1381Y4646
X2381Y4646
X2381Y5646
X1381Y5646
X1381Y6646
X2381Y6646
X2381Y7646
X1381Y7646
X1381Y8646
X2381Y8646
X2381Y9646
X1381Y9646
X1381Y10646
X2381Y10646
X2381Y11646
X1381Y11646
X1381Y12646
X2381Y12646
X2381Y13646
X1381Y13646
X1381Y14646
X2381Y14646
X2381Y15646
X1381Y15646
X1381Y16646
X2381Y16646
X2381Y17646
X1381Y17646
X1381Y18646
X2381Y18646
X2381Y19646
X1381Y19646
X1381Y20646
X2381Y20646
X2381Y21646
X1381Y21646
X1381Y22646
X2381Y22646
X6910Y24500
X7910Y24500
X8910Y24500
T04
X29360Y3400
X31360Y3400
T05
X46110Y4050
X46110Y2050
X46110Y6450
X46110Y8450
X46260Y12000
X46260Y14000
X46260Y17100
X46260Y19100
X33710Y28550
X31710Y28550
X29510Y28550
X27510Y28550
X3960Y10250
X3960Y8250
T06
X32923Y18200
X33451Y16231
X34891Y14791
X36860Y14263
X38829Y14791
X40269Y16231
X40797Y18200
X40269Y20169
X38829Y21609
X36860Y22137
X34891Y21609
X33451Y20169
X36651Y10946
X37961Y9385
X38315Y7378
X36057Y4153
X34050Y3799
T07
X1791Y1678
X21082Y1678
X42582Y1678
X46632Y23263
X21082Y24513
X1791Y24513
T08
X37618Y5463
M30
