G75*
%MOIN*%
%OFA0B0*%
%FSLAX25Y25*%
%IPPOS*%
%LPD*%
%AMOC8*
5,1,8,0,0,1.08239X$1,22.5*
%
%ADD10C,0.07400*%
%ADD11C,0.01600*%
%ADD12C,0.03543*%
D10*
X0008100Y0026800D02*
X0015500Y0026800D01*
X0015500Y0036800D02*
X0008100Y0036800D01*
X0158100Y0039300D02*
X0165500Y0039300D01*
X0165500Y0029300D02*
X0158100Y0029300D01*
X0158100Y0019300D02*
X0165500Y0019300D01*
D11*
X0004100Y0023022D02*
X0004100Y0004100D01*
X0106800Y0004100D01*
X0106800Y0056961D01*
X0004100Y0056961D01*
X0004100Y0040861D01*
X0004871Y0041632D01*
X0006966Y0042500D01*
X0016634Y0042500D01*
X0018729Y0041632D01*
X0020332Y0040029D01*
X0021200Y0037934D01*
X0021200Y0035666D01*
X0020332Y0033571D01*
X0018729Y0031968D01*
X0018036Y0031681D01*
X0018383Y0031504D01*
X0019083Y0030995D01*
X0019695Y0030383D01*
X0020204Y0029683D01*
X0020597Y0028911D01*
X0020865Y0028088D01*
X0021000Y0027233D01*
X0021000Y0027100D01*
X0012100Y0027100D01*
X0012100Y0026500D01*
X0021000Y0026500D01*
X0021000Y0026367D01*
X0020865Y0025512D01*
X0020597Y0024689D01*
X0020204Y0023917D01*
X0019695Y0023217D01*
X0019083Y0022605D01*
X0018383Y0022096D01*
X0017611Y0021703D01*
X0016788Y0021435D01*
X0015933Y0021300D01*
X0012100Y0021300D01*
X0012100Y0026500D01*
X0011500Y0026500D01*
X0011500Y0021300D01*
X0007667Y0021300D01*
X0006812Y0021435D01*
X0005989Y0021703D01*
X0005217Y0022096D01*
X0004517Y0022605D01*
X0004100Y0023022D01*
X0004100Y0022785D02*
X0004337Y0022785D01*
X0004100Y0021187D02*
X0106800Y0021187D01*
X0106800Y0019588D02*
X0004100Y0019588D01*
X0004100Y0017990D02*
X0106800Y0017990D01*
X0106800Y0016391D02*
X0004100Y0016391D01*
X0004100Y0014793D02*
X0106800Y0014793D01*
X0106800Y0013194D02*
X0004100Y0013194D01*
X0004100Y0011596D02*
X0106800Y0011596D01*
X0106800Y0009997D02*
X0004100Y0009997D01*
X0004100Y0008399D02*
X0106800Y0008399D01*
X0106800Y0006800D02*
X0004100Y0006800D01*
X0004100Y0005201D02*
X0106800Y0005201D01*
X0126800Y0005201D02*
X0170701Y0005201D01*
X0170701Y0004100D02*
X0170701Y0017508D01*
X0170597Y0017189D01*
X0170204Y0016417D01*
X0169695Y0015717D01*
X0169083Y0015105D01*
X0168383Y0014596D01*
X0167611Y0014203D01*
X0166788Y0013935D01*
X0165933Y0013800D01*
X0162100Y0013800D01*
X0162100Y0019000D01*
X0161500Y0019000D01*
X0161500Y0013800D01*
X0157667Y0013800D01*
X0156812Y0013935D01*
X0155989Y0014203D01*
X0155217Y0014596D01*
X0154517Y0015105D01*
X0153905Y0015717D01*
X0153396Y0016417D01*
X0153003Y0017189D01*
X0152735Y0018012D01*
X0152600Y0018867D01*
X0152600Y0019000D01*
X0161500Y0019000D01*
X0161500Y0019600D01*
X0152600Y0019600D01*
X0152600Y0019733D01*
X0152735Y0020588D01*
X0153003Y0021411D01*
X0153396Y0022183D01*
X0153905Y0022883D01*
X0154517Y0023495D01*
X0155217Y0024004D01*
X0155564Y0024181D01*
X0154871Y0024468D01*
X0153268Y0026071D01*
X0152400Y0028166D01*
X0152400Y0030434D01*
X0153268Y0032529D01*
X0154871Y0034132D01*
X0155276Y0034300D01*
X0154871Y0034468D01*
X0153268Y0036071D01*
X0152400Y0038166D01*
X0152400Y0040434D01*
X0153268Y0042529D01*
X0154871Y0044132D01*
X0156966Y0045000D01*
X0166634Y0045000D01*
X0168729Y0044132D01*
X0170332Y0042529D01*
X0170701Y0041639D01*
X0170701Y0056961D01*
X0126800Y0056961D01*
X0126800Y0004100D01*
X0170701Y0004100D01*
X0170701Y0006800D02*
X0126800Y0006800D01*
X0126800Y0008399D02*
X0170701Y0008399D01*
X0170701Y0009997D02*
X0126800Y0009997D01*
X0126800Y0011596D02*
X0170701Y0011596D01*
X0170701Y0013194D02*
X0126800Y0013194D01*
X0126800Y0014793D02*
X0154947Y0014793D01*
X0153415Y0016391D02*
X0126800Y0016391D01*
X0126800Y0017990D02*
X0152743Y0017990D01*
X0152930Y0021187D02*
X0126800Y0021187D01*
X0126800Y0019588D02*
X0161500Y0019588D01*
X0161500Y0017990D02*
X0162100Y0017990D01*
X0162100Y0016391D02*
X0161500Y0016391D01*
X0161500Y0014793D02*
X0162100Y0014793D01*
X0168653Y0014793D02*
X0170701Y0014793D01*
X0170701Y0016391D02*
X0170185Y0016391D01*
X0153834Y0022785D02*
X0126800Y0022785D01*
X0126800Y0024384D02*
X0155074Y0024384D01*
X0153357Y0025982D02*
X0126800Y0025982D01*
X0126800Y0027581D02*
X0152643Y0027581D01*
X0152400Y0029179D02*
X0126800Y0029179D01*
X0126800Y0030778D02*
X0152542Y0030778D01*
X0153205Y0032376D02*
X0126800Y0032376D01*
X0126800Y0033975D02*
X0154714Y0033975D01*
X0153766Y0035573D02*
X0126800Y0035573D01*
X0126800Y0037172D02*
X0152812Y0037172D01*
X0152400Y0038770D02*
X0126800Y0038770D01*
X0126800Y0040369D02*
X0152400Y0040369D01*
X0153035Y0041967D02*
X0126800Y0041967D01*
X0126800Y0043566D02*
X0154305Y0043566D01*
X0169295Y0043566D02*
X0170701Y0043566D01*
X0170701Y0045164D02*
X0126800Y0045164D01*
X0126800Y0046763D02*
X0170701Y0046763D01*
X0170701Y0048361D02*
X0126800Y0048361D01*
X0126800Y0049960D02*
X0170701Y0049960D01*
X0170701Y0051558D02*
X0126800Y0051558D01*
X0126800Y0053157D02*
X0170701Y0053157D01*
X0170701Y0054755D02*
X0126800Y0054755D01*
X0126800Y0056354D02*
X0170701Y0056354D01*
X0170565Y0041967D02*
X0170701Y0041967D01*
X0106800Y0041967D02*
X0017920Y0041967D01*
X0019992Y0040369D02*
X0106800Y0040369D01*
X0106800Y0038770D02*
X0020854Y0038770D01*
X0021200Y0037172D02*
X0106800Y0037172D01*
X0106800Y0035573D02*
X0021161Y0035573D01*
X0020499Y0033975D02*
X0106800Y0033975D01*
X0106800Y0032376D02*
X0019137Y0032376D01*
X0019300Y0030778D02*
X0106800Y0030778D01*
X0106800Y0029179D02*
X0020461Y0029179D01*
X0020945Y0027581D02*
X0106800Y0027581D01*
X0106800Y0025982D02*
X0020939Y0025982D01*
X0020442Y0024384D02*
X0106800Y0024384D01*
X0106800Y0022785D02*
X0019263Y0022785D01*
X0012100Y0022785D02*
X0011500Y0022785D01*
X0011500Y0024384D02*
X0012100Y0024384D01*
X0012100Y0025982D02*
X0011500Y0025982D01*
X0005680Y0041967D02*
X0004100Y0041967D01*
X0004100Y0043566D02*
X0106800Y0043566D01*
X0106800Y0045164D02*
X0004100Y0045164D01*
X0004100Y0046763D02*
X0106800Y0046763D01*
X0106800Y0048361D02*
X0004100Y0048361D01*
X0004100Y0049960D02*
X0106800Y0049960D01*
X0106800Y0051558D02*
X0004100Y0051558D01*
X0004100Y0053157D02*
X0106800Y0053157D01*
X0106800Y0054755D02*
X0004100Y0054755D01*
X0004100Y0056354D02*
X0106800Y0056354D01*
D12*
X0086800Y0026800D03*
X0081800Y0026800D03*
X0076800Y0026800D03*
X0076800Y0019300D03*
X0076800Y0014300D03*
X0076800Y0009300D03*
M02*
