G75*
%MOIN*%
%OFA0B0*%
%FSLAX25Y25*%
%IPPOS*%
%LPD*%
%AMOC8*
5,1,8,0,0,1.08239X$1,22.5*
%
%ADD10C,0.00300*%
%ADD11C,0.00400*%
%ADD12C,0.00800*%
%ADD13C,0.00100*%
%ADD14C,0.00500*%
%ADD15R,0.03000X0.16000*%
D10*
X0086950Y0009934D02*
X0087434Y0009450D01*
X0088401Y0009450D01*
X0088885Y0009934D01*
X0088401Y0010417D02*
X0087434Y0010417D01*
X0087434Y0011385D01*
X0088401Y0011385D01*
X0088401Y0010417D01*
X0088885Y0010901D01*
X0088885Y0011869D01*
X0088401Y0012352D01*
X0087434Y0012352D01*
X0086950Y0011869D01*
X0086950Y0009934D01*
X0089897Y0009934D02*
X0089897Y0011385D01*
X0091831Y0011385D02*
X0091831Y0009934D01*
X0091348Y0009450D01*
X0090864Y0009934D01*
X0090380Y0009450D01*
X0089897Y0009934D01*
X0092843Y0009450D02*
X0092843Y0012352D01*
X0093327Y0011385D02*
X0094294Y0011385D01*
X0094778Y0010901D01*
X0094778Y0009450D01*
X0095790Y0009450D02*
X0096757Y0009450D01*
X0096273Y0009450D02*
X0096273Y0011385D01*
X0095790Y0011385D01*
X0097754Y0011385D02*
X0098721Y0011385D01*
X0098238Y0011869D02*
X0098238Y0009934D01*
X0098721Y0009450D01*
X0100202Y0009450D02*
X0100202Y0011869D01*
X0100686Y0012352D01*
X0102166Y0012352D02*
X0102166Y0012836D01*
X0104614Y0012836D02*
X0104614Y0012352D01*
X0104614Y0011385D02*
X0104614Y0008966D01*
X0104131Y0008483D01*
X0103647Y0008483D01*
X0102650Y0009450D02*
X0101683Y0009450D01*
X0102166Y0009450D02*
X0102166Y0011385D01*
X0101683Y0011385D01*
X0100686Y0010901D02*
X0099718Y0010901D01*
X0096273Y0012352D02*
X0096273Y0012836D01*
X0093811Y0014250D02*
X0094778Y0016185D01*
X0092843Y0016185D02*
X0093811Y0014250D01*
X0091831Y0015217D02*
X0089897Y0015217D01*
X0089897Y0014734D02*
X0089897Y0015701D01*
X0090380Y0016185D01*
X0091348Y0016185D01*
X0091831Y0015701D01*
X0091831Y0015217D01*
X0091348Y0014250D02*
X0090380Y0014250D01*
X0089897Y0014734D01*
X0088885Y0014250D02*
X0087917Y0015217D01*
X0088401Y0015217D02*
X0086950Y0015217D01*
X0086950Y0014250D02*
X0086950Y0017152D01*
X0088401Y0017152D01*
X0088885Y0016669D01*
X0088885Y0015701D01*
X0088401Y0015217D01*
X0092843Y0010901D02*
X0093327Y0011385D01*
X0098736Y0014250D02*
X0098736Y0016185D01*
X0099704Y0017152D01*
X0100671Y0016185D01*
X0100671Y0014250D01*
X0100671Y0015701D02*
X0098736Y0015701D01*
X0097725Y0019050D02*
X0097725Y0020501D01*
X0097241Y0020985D01*
X0096273Y0020985D01*
X0095790Y0020501D01*
X0094778Y0020985D02*
X0093327Y0020985D01*
X0092843Y0020501D01*
X0092843Y0019534D01*
X0093327Y0019050D01*
X0094778Y0019050D01*
X0095790Y0019050D02*
X0095790Y0021952D01*
X0091831Y0020501D02*
X0091831Y0019050D01*
X0090380Y0019050D01*
X0089897Y0019534D01*
X0090380Y0020017D01*
X0091831Y0020017D01*
X0091831Y0020501D02*
X0091348Y0020985D01*
X0090380Y0020985D01*
X0088885Y0021952D02*
X0086950Y0021952D01*
X0087917Y0021952D02*
X0087917Y0019050D01*
X0101683Y0019050D02*
X0101683Y0020985D01*
X0102650Y0021952D01*
X0103618Y0020985D01*
X0103618Y0019050D01*
X0104629Y0019534D02*
X0104629Y0020501D01*
X0105113Y0020985D01*
X0106564Y0020985D01*
X0106564Y0021952D02*
X0106564Y0019050D01*
X0105113Y0019050D01*
X0104629Y0019534D01*
X0103618Y0020501D02*
X0101683Y0020501D01*
X0107576Y0019534D02*
X0108059Y0020017D01*
X0109511Y0020017D01*
X0109511Y0020501D02*
X0109511Y0019050D01*
X0108059Y0019050D01*
X0107576Y0019534D01*
X0110522Y0019050D02*
X0111973Y0019050D01*
X0112457Y0019534D01*
X0112457Y0020501D01*
X0111973Y0020985D01*
X0110522Y0020985D01*
X0110522Y0018083D01*
X0113952Y0019534D02*
X0114436Y0019050D01*
X0113952Y0019534D02*
X0113952Y0021469D01*
X0113469Y0020985D02*
X0114436Y0020985D01*
X0115433Y0020501D02*
X0115917Y0020985D01*
X0116884Y0020985D01*
X0117368Y0020501D01*
X0117368Y0020017D01*
X0115433Y0020017D01*
X0115433Y0019534D02*
X0115433Y0020501D01*
X0115433Y0019534D02*
X0115917Y0019050D01*
X0116884Y0019050D01*
X0118380Y0019050D02*
X0118380Y0020985D01*
X0119347Y0020985D02*
X0119831Y0020985D01*
X0119347Y0020985D02*
X0118380Y0020017D01*
X0109511Y0020501D02*
X0109027Y0020985D01*
X0108059Y0020985D01*
X0107546Y0011385D02*
X0106095Y0011385D01*
X0105611Y0010901D01*
X0106095Y0010417D01*
X0107063Y0010417D01*
X0107546Y0009934D01*
X0107063Y0009450D01*
X0105611Y0009450D01*
X0115128Y0031450D02*
X0116363Y0031450D01*
X0115745Y0031450D02*
X0115745Y0035153D01*
X0115128Y0035153D02*
X0116363Y0035153D01*
X0117584Y0034536D02*
X0117584Y0032067D01*
X0118201Y0031450D01*
X0119435Y0031450D01*
X0120052Y0032067D01*
X0121267Y0031450D02*
X0123736Y0031450D01*
X0122501Y0031450D02*
X0122501Y0035153D01*
X0121267Y0033919D01*
X0120052Y0034536D02*
X0119435Y0035153D01*
X0118201Y0035153D01*
X0117584Y0034536D01*
D11*
X0013594Y0008500D02*
X0011292Y0008500D01*
X0011292Y0013104D01*
X0013594Y0013104D01*
X0014361Y0012337D01*
X0014361Y0009267D01*
X0013594Y0008500D01*
X0015896Y0008500D02*
X0018965Y0008500D01*
X0017431Y0008500D02*
X0017431Y0013104D01*
X0015896Y0011569D01*
X0027900Y0006800D02*
X0045700Y0006800D01*
X0056800Y0015400D02*
X0056800Y0033200D01*
X0051800Y0031650D02*
X0051800Y0049450D01*
X0036800Y0049450D02*
X0036800Y0031650D01*
X0027900Y0021800D02*
X0045700Y0021800D01*
X0071800Y0015400D02*
X0071800Y0033200D01*
X0075298Y0016465D02*
X0075298Y0013396D01*
X0072996Y0015698D01*
X0077600Y0015698D01*
X0076833Y0011861D02*
X0073763Y0011861D01*
X0072996Y0011094D01*
X0072996Y0008792D01*
X0077600Y0008792D01*
X0077600Y0011094D01*
X0076833Y0011861D01*
X0033965Y0051000D02*
X0030896Y0051000D01*
X0033965Y0054069D01*
X0033965Y0054837D01*
X0033198Y0055604D01*
X0031663Y0055604D01*
X0030896Y0054837D01*
X0029361Y0054837D02*
X0028594Y0055604D01*
X0026292Y0055604D01*
X0026292Y0051000D01*
X0028594Y0051000D01*
X0029361Y0051767D01*
X0029361Y0054837D01*
D12*
X0031987Y0045855D02*
X0033759Y0045855D01*
X0033759Y0027745D01*
X0031987Y0027745D01*
X0024113Y0027745D02*
X0022341Y0027745D01*
X0022341Y0045855D01*
X0024113Y0045855D01*
X0040363Y0043081D02*
X0048237Y0043081D01*
X0044300Y0037676D01*
X0040363Y0043081D01*
X0040363Y0037676D02*
X0048237Y0037676D01*
X0031987Y0032863D02*
X0024113Y0032863D01*
X0060363Y0027174D02*
X0068237Y0027174D01*
X0064300Y0027174D02*
X0060363Y0021769D01*
X0068237Y0021769D01*
X0064300Y0027174D01*
X0039331Y0018237D02*
X0039331Y0010363D01*
X0033926Y0014300D01*
X0039331Y0018237D01*
X0033926Y0018237D02*
X0033926Y0010363D01*
X0159300Y0014300D02*
X0164300Y0014300D01*
X0164300Y0044300D02*
X0159300Y0044300D01*
D13*
X0152850Y0038627D02*
X0152850Y0038127D01*
X0152600Y0037877D01*
X0152850Y0037404D02*
X0152350Y0036904D01*
X0152350Y0037154D02*
X0152350Y0036403D01*
X0152850Y0036403D02*
X0151349Y0036403D01*
X0151349Y0037154D01*
X0151599Y0037404D01*
X0152099Y0037404D01*
X0152350Y0037154D01*
X0151599Y0037877D02*
X0151349Y0038127D01*
X0151349Y0038627D01*
X0151599Y0038878D01*
X0151849Y0038878D01*
X0152099Y0038627D01*
X0152350Y0038878D01*
X0152600Y0038878D01*
X0152850Y0038627D01*
X0152099Y0038627D02*
X0152099Y0038377D01*
X0089324Y0032101D02*
X0088323Y0032101D01*
X0089074Y0032851D01*
X0089074Y0031350D01*
X0087851Y0031350D02*
X0087350Y0031850D01*
X0087601Y0031850D02*
X0086850Y0031850D01*
X0086850Y0031350D02*
X0086850Y0032851D01*
X0087601Y0032851D01*
X0087851Y0032601D01*
X0087851Y0032101D01*
X0087601Y0031850D01*
X0036100Y0042903D02*
X0036100Y0043654D01*
X0035850Y0043904D01*
X0034849Y0043904D01*
X0034599Y0043654D01*
X0034599Y0042903D01*
X0036100Y0042903D01*
X0035850Y0044377D02*
X0036100Y0044627D01*
X0036100Y0045127D01*
X0035850Y0045378D01*
X0035600Y0045378D01*
X0035349Y0045127D01*
X0035349Y0044877D01*
X0035349Y0045127D02*
X0035099Y0045378D01*
X0034849Y0045378D01*
X0034599Y0045127D01*
X0034599Y0044627D01*
X0034849Y0044377D01*
X0054499Y0053100D02*
X0054499Y0053851D01*
X0054749Y0054101D01*
X0055249Y0054101D01*
X0055500Y0053851D01*
X0055500Y0053100D01*
X0056000Y0053100D02*
X0054499Y0053100D01*
X0055500Y0053600D02*
X0056000Y0054101D01*
X0056000Y0054573D02*
X0056000Y0055574D01*
X0056000Y0055074D02*
X0054499Y0055074D01*
X0054999Y0054573D01*
X0076403Y0054751D02*
X0076403Y0053250D01*
X0076403Y0053750D02*
X0077154Y0053750D01*
X0077404Y0054001D01*
X0077404Y0054501D01*
X0077154Y0054751D01*
X0076403Y0054751D01*
X0077877Y0054501D02*
X0078127Y0054751D01*
X0078627Y0054751D01*
X0078878Y0054501D01*
X0078878Y0054251D01*
X0077877Y0053250D01*
X0078878Y0053250D01*
X0077404Y0053250D02*
X0076904Y0053750D01*
D14*
X0108139Y0052174D02*
X0108139Y0036426D01*
X0125461Y0036426D01*
X0125461Y0052174D01*
X0108139Y0052174D01*
X0171746Y0042498D02*
X0171746Y0040997D01*
X0172497Y0040246D01*
X0171746Y0038645D02*
X0171746Y0037143D01*
X0171746Y0037894D02*
X0175499Y0037894D01*
X0176250Y0037143D01*
X0176250Y0036393D01*
X0175499Y0035642D01*
X0176250Y0040246D02*
X0173247Y0043249D01*
X0172497Y0043249D01*
X0171746Y0042498D01*
X0176250Y0043249D02*
X0176250Y0040246D01*
D15*
X0109300Y0044300D03*
M02*
