G75*
%MOIN*%
%OFA0B0*%
%FSLAX25Y25*%
%IPPOS*%
%LPD*%
%AMOC8*
5,1,8,0,0,1.08239X$1,22.5*
%
%ADD10R,0.09449X0.09449*%
%ADD11R,0.05787X0.05000*%
%ADD12R,0.05709X0.03150*%
%ADD13C,0.07400*%
%ADD14R,0.06299X0.07087*%
%ADD15R,0.07087X0.06299*%
%ADD16C,0.04000*%
%ADD17C,0.02400*%
%ADD18C,0.01600*%
%ADD19C,0.03543*%
D10*
X0028139Y0014300D03*
X0045461Y0014300D03*
X0064300Y0015639D03*
X0044300Y0031889D03*
X0064300Y0032961D03*
X0044300Y0049211D03*
D11*
X0028050Y0045265D03*
X0028050Y0028335D03*
D12*
X0104497Y0039300D03*
X0129103Y0039300D03*
X0129103Y0049300D03*
X0104497Y0049300D03*
D13*
X0158100Y0039300D02*
X0165500Y0039300D01*
X0165500Y0029300D02*
X0158100Y0029300D01*
X0158100Y0019300D02*
X0165500Y0019300D01*
X0015500Y0026800D02*
X0008100Y0026800D01*
X0008100Y0036800D02*
X0015500Y0036800D01*
D14*
X0058788Y0049300D03*
X0069812Y0049300D03*
X0081288Y0049300D03*
X0092312Y0049300D03*
X0092312Y0036800D03*
X0081288Y0036800D03*
D15*
X0146800Y0039812D03*
X0146800Y0028788D03*
D16*
X0104497Y0039300D02*
X0098050Y0039300D01*
X0094812Y0037312D01*
X0092312Y0036800D01*
X0069812Y0044812D02*
X0069812Y0049300D01*
X0081288Y0049300D01*
X0092312Y0049300D02*
X0104497Y0049300D01*
X0069812Y0044812D02*
X0064300Y0039300D01*
X0064300Y0032961D01*
X0044300Y0031889D02*
X0044300Y0015461D01*
X0045461Y0014300D01*
X0028139Y0014300D02*
X0028139Y0026997D01*
X0028050Y0028335D01*
X0011800Y0036800D02*
X0020265Y0045265D01*
X0028050Y0045265D01*
X0044300Y0049211D02*
X0044900Y0049812D01*
X0045412Y0049300D01*
X0058788Y0049300D01*
D17*
X0129103Y0049300D02*
X0134300Y0049300D01*
X0136800Y0046800D01*
X0136800Y0031800D01*
X0139812Y0028788D01*
X0146800Y0028788D01*
X0161288Y0028788D01*
X0161800Y0029300D01*
X0161800Y0039300D02*
X0147312Y0039300D01*
X0146800Y0039812D01*
D18*
X0004100Y0023022D02*
X0004100Y0004100D01*
X0106800Y0004100D01*
X0106800Y0035725D01*
X0106319Y0035725D01*
X0105292Y0035300D01*
X0099180Y0035300D01*
X0097461Y0034245D01*
X0097461Y0032428D01*
X0096290Y0031257D01*
X0088334Y0031257D01*
X0087162Y0032428D01*
X0087162Y0041172D01*
X0088334Y0042343D01*
X0095362Y0042343D01*
X0095555Y0042462D01*
X0095784Y0042691D01*
X0096227Y0042874D01*
X0096635Y0043125D01*
X0096955Y0043176D01*
X0097254Y0043300D01*
X0097733Y0043300D01*
X0098207Y0043375D01*
X0098522Y0043300D01*
X0105292Y0043300D01*
X0106319Y0042875D01*
X0106800Y0042875D01*
X0106800Y0045725D01*
X0106319Y0045725D01*
X0105292Y0045300D01*
X0097461Y0045300D01*
X0097461Y0044928D01*
X0096290Y0043757D01*
X0088334Y0043757D01*
X0087162Y0044928D01*
X0087162Y0053672D01*
X0088334Y0054843D01*
X0096290Y0054843D01*
X0097461Y0053672D01*
X0097461Y0053300D01*
X0105292Y0053300D01*
X0106319Y0052875D01*
X0106800Y0052875D01*
X0106800Y0056961D01*
X0004100Y0056961D01*
X0004100Y0040861D01*
X0004871Y0041632D01*
X0006966Y0042500D01*
X0011843Y0042500D01*
X0016874Y0047530D01*
X0017999Y0048656D01*
X0019469Y0049265D01*
X0023828Y0049265D01*
X0024328Y0049765D01*
X0031772Y0049765D01*
X0032944Y0048593D01*
X0032944Y0041936D01*
X0031772Y0040765D01*
X0024328Y0040765D01*
X0023828Y0041265D01*
X0021921Y0041265D01*
X0020436Y0039779D01*
X0021200Y0037934D01*
X0021200Y0035666D01*
X0020332Y0033571D01*
X0018729Y0031968D01*
X0018036Y0031681D01*
X0018383Y0031504D01*
X0019083Y0030995D01*
X0019695Y0030383D01*
X0020204Y0029683D01*
X0020597Y0028911D01*
X0020865Y0028088D01*
X0021000Y0027233D01*
X0021000Y0027100D01*
X0012100Y0027100D01*
X0012100Y0026500D01*
X0021000Y0026500D01*
X0021000Y0026367D01*
X0020865Y0025512D01*
X0020597Y0024689D01*
X0020204Y0023917D01*
X0019695Y0023217D01*
X0019083Y0022605D01*
X0018383Y0022096D01*
X0017611Y0021703D01*
X0016788Y0021435D01*
X0015933Y0021300D01*
X0012100Y0021300D01*
X0012100Y0026500D01*
X0011500Y0026500D01*
X0011500Y0021300D01*
X0007667Y0021300D01*
X0006812Y0021435D01*
X0005989Y0021703D01*
X0005217Y0022096D01*
X0004517Y0022605D01*
X0004100Y0023022D01*
X0004100Y0022785D02*
X0004337Y0022785D01*
X0004100Y0021187D02*
X0024139Y0021187D01*
X0024139Y0021024D02*
X0022586Y0021024D01*
X0021414Y0019853D01*
X0021414Y0008747D01*
X0022586Y0007576D01*
X0033691Y0007576D01*
X0034863Y0008747D01*
X0034863Y0019853D01*
X0033691Y0021024D01*
X0032139Y0021024D01*
X0032139Y0024202D01*
X0032944Y0025007D01*
X0032944Y0031664D01*
X0031772Y0032835D01*
X0024328Y0032835D01*
X0023156Y0031664D01*
X0023156Y0025007D01*
X0024139Y0024025D01*
X0024139Y0021024D01*
X0021414Y0019588D02*
X0004100Y0019588D01*
X0004100Y0017990D02*
X0021414Y0017990D01*
X0021414Y0016391D02*
X0004100Y0016391D01*
X0004100Y0014793D02*
X0021414Y0014793D01*
X0021414Y0013194D02*
X0004100Y0013194D01*
X0004100Y0011596D02*
X0021414Y0011596D01*
X0021414Y0009997D02*
X0004100Y0009997D01*
X0004100Y0008399D02*
X0021763Y0008399D01*
X0034514Y0008399D02*
X0039086Y0008399D01*
X0038737Y0008747D02*
X0039909Y0007576D01*
X0051014Y0007576D01*
X0052186Y0008747D01*
X0052186Y0019853D01*
X0051014Y0021024D01*
X0048300Y0021024D01*
X0048300Y0025164D01*
X0049853Y0025164D01*
X0051024Y0026336D01*
X0051024Y0037441D01*
X0049853Y0038613D01*
X0038747Y0038613D01*
X0037576Y0037441D01*
X0037576Y0026336D01*
X0038747Y0025164D01*
X0040300Y0025164D01*
X0040300Y0021024D01*
X0039909Y0021024D01*
X0038737Y0019853D01*
X0038737Y0008747D01*
X0038737Y0009997D02*
X0034863Y0009997D01*
X0034863Y0011596D02*
X0038737Y0011596D01*
X0038737Y0013194D02*
X0034863Y0013194D01*
X0034863Y0014793D02*
X0038737Y0014793D01*
X0038737Y0016391D02*
X0034863Y0016391D01*
X0034863Y0017990D02*
X0038737Y0017990D01*
X0038737Y0019588D02*
X0034863Y0019588D01*
X0032139Y0021187D02*
X0040300Y0021187D01*
X0040300Y0022785D02*
X0032139Y0022785D01*
X0032320Y0024384D02*
X0040300Y0024384D01*
X0037929Y0025982D02*
X0032944Y0025982D01*
X0032944Y0027581D02*
X0037576Y0027581D01*
X0037576Y0029179D02*
X0032944Y0029179D01*
X0032944Y0030778D02*
X0037576Y0030778D01*
X0037576Y0032376D02*
X0032231Y0032376D01*
X0037576Y0033975D02*
X0020499Y0033975D01*
X0021161Y0035573D02*
X0037576Y0035573D01*
X0037576Y0037172D02*
X0021200Y0037172D01*
X0020854Y0038770D02*
X0057832Y0038770D01*
X0057576Y0038514D02*
X0057576Y0027409D01*
X0058747Y0026237D01*
X0069853Y0026237D01*
X0071024Y0027409D01*
X0071024Y0038514D01*
X0070098Y0039441D01*
X0072078Y0041421D01*
X0073203Y0042546D01*
X0073704Y0043757D01*
X0073790Y0043757D01*
X0074961Y0044928D01*
X0074961Y0045300D01*
X0076139Y0045300D01*
X0076139Y0044928D01*
X0077310Y0043757D01*
X0085266Y0043757D01*
X0086438Y0044928D01*
X0086438Y0053672D01*
X0085266Y0054843D01*
X0077310Y0054843D01*
X0076139Y0053672D01*
X0076139Y0053300D01*
X0074961Y0053300D01*
X0074961Y0053672D01*
X0073790Y0054843D01*
X0065834Y0054843D01*
X0064662Y0053672D01*
X0064662Y0045319D01*
X0060909Y0041566D01*
X0060300Y0040096D01*
X0060300Y0039686D01*
X0058747Y0039686D01*
X0057576Y0038514D01*
X0057576Y0037172D02*
X0051024Y0037172D01*
X0051024Y0035573D02*
X0057576Y0035573D01*
X0057576Y0033975D02*
X0051024Y0033975D01*
X0051024Y0032376D02*
X0057576Y0032376D01*
X0057576Y0030778D02*
X0051024Y0030778D01*
X0051024Y0029179D02*
X0057576Y0029179D01*
X0057576Y0027581D02*
X0051024Y0027581D01*
X0050671Y0025982D02*
X0106800Y0025982D01*
X0106800Y0024384D02*
X0048300Y0024384D01*
X0048300Y0022785D02*
X0106800Y0022785D01*
X0106800Y0021187D02*
X0070627Y0021187D01*
X0070702Y0021058D02*
X0070465Y0021468D01*
X0070130Y0021803D01*
X0069719Y0022040D01*
X0069261Y0022163D01*
X0065100Y0022163D01*
X0065100Y0016439D01*
X0063500Y0016439D01*
X0063500Y0022163D01*
X0059339Y0022163D01*
X0058881Y0022040D01*
X0058470Y0021803D01*
X0058135Y0021468D01*
X0057898Y0021058D01*
X0057776Y0020600D01*
X0057776Y0016439D01*
X0063500Y0016439D01*
X0063500Y0014839D01*
X0057776Y0014839D01*
X0057776Y0010677D01*
X0057898Y0010219D01*
X0058135Y0009809D01*
X0058470Y0009474D01*
X0058881Y0009237D01*
X0059339Y0009114D01*
X0063500Y0009114D01*
X0063500Y0014839D01*
X0065100Y0014839D01*
X0065100Y0016439D01*
X0070824Y0016439D01*
X0070824Y0020600D01*
X0070702Y0021058D01*
X0070824Y0019588D02*
X0106800Y0019588D01*
X0106800Y0017990D02*
X0070824Y0017990D01*
X0065100Y0017990D02*
X0063500Y0017990D01*
X0063500Y0019588D02*
X0065100Y0019588D01*
X0065100Y0021187D02*
X0063500Y0021187D01*
X0057973Y0021187D02*
X0048300Y0021187D01*
X0052186Y0019588D02*
X0057776Y0019588D01*
X0057776Y0017990D02*
X0052186Y0017990D01*
X0052186Y0016391D02*
X0063500Y0016391D01*
X0065100Y0016391D02*
X0106800Y0016391D01*
X0106800Y0014793D02*
X0070824Y0014793D01*
X0070824Y0014839D02*
X0070824Y0010677D01*
X0070702Y0010219D01*
X0070465Y0009809D01*
X0070130Y0009474D01*
X0069719Y0009237D01*
X0069261Y0009114D01*
X0065100Y0009114D01*
X0065100Y0014839D01*
X0070824Y0014839D01*
X0070824Y0013194D02*
X0106800Y0013194D01*
X0106800Y0011596D02*
X0070824Y0011596D01*
X0070573Y0009997D02*
X0106800Y0009997D01*
X0106800Y0008399D02*
X0051837Y0008399D01*
X0052186Y0009997D02*
X0058027Y0009997D01*
X0057776Y0011596D02*
X0052186Y0011596D01*
X0052186Y0013194D02*
X0057776Y0013194D01*
X0057776Y0014793D02*
X0052186Y0014793D01*
X0063500Y0014793D02*
X0065100Y0014793D01*
X0065100Y0013194D02*
X0063500Y0013194D01*
X0063500Y0011596D02*
X0065100Y0011596D01*
X0065100Y0009997D02*
X0063500Y0009997D01*
X0024139Y0022785D02*
X0019263Y0022785D01*
X0020442Y0024384D02*
X0023780Y0024384D01*
X0023156Y0025982D02*
X0020939Y0025982D01*
X0020945Y0027581D02*
X0023156Y0027581D01*
X0023156Y0029179D02*
X0020461Y0029179D01*
X0019300Y0030778D02*
X0023156Y0030778D01*
X0023869Y0032376D02*
X0019137Y0032376D01*
X0012100Y0025982D02*
X0011500Y0025982D01*
X0011500Y0024384D02*
X0012100Y0024384D01*
X0012100Y0022785D02*
X0011500Y0022785D01*
X0004100Y0006800D02*
X0106800Y0006800D01*
X0106800Y0005201D02*
X0004100Y0005201D01*
X0071024Y0027581D02*
X0106800Y0027581D01*
X0106800Y0029179D02*
X0071024Y0029179D01*
X0071024Y0030778D02*
X0106800Y0030778D01*
X0106800Y0032376D02*
X0097409Y0032376D01*
X0097461Y0033975D02*
X0106800Y0033975D01*
X0106800Y0035573D02*
X0105952Y0035573D01*
X0087958Y0041967D02*
X0085225Y0041967D01*
X0085133Y0042021D02*
X0084675Y0042143D01*
X0082063Y0042143D01*
X0082063Y0037575D01*
X0080513Y0037575D01*
X0080513Y0036025D01*
X0076339Y0036025D01*
X0076339Y0033020D01*
X0076461Y0032562D01*
X0076698Y0032151D01*
X0077033Y0031816D01*
X0077444Y0031579D01*
X0077902Y0031457D01*
X0080513Y0031457D01*
X0080513Y0036025D01*
X0082063Y0036025D01*
X0082063Y0031457D01*
X0084675Y0031457D01*
X0085133Y0031579D01*
X0085543Y0031816D01*
X0085878Y0032151D01*
X0086115Y0032562D01*
X0086238Y0033020D01*
X0086238Y0036025D01*
X0082063Y0036025D01*
X0082063Y0037575D01*
X0086238Y0037575D01*
X0086238Y0040580D01*
X0086115Y0041038D01*
X0085878Y0041449D01*
X0085543Y0041784D01*
X0085133Y0042021D01*
X0086238Y0040369D02*
X0087162Y0040369D01*
X0087162Y0038770D02*
X0086238Y0038770D01*
X0087162Y0037172D02*
X0082063Y0037172D01*
X0080513Y0037172D02*
X0071024Y0037172D01*
X0071024Y0035573D02*
X0076339Y0035573D01*
X0080513Y0035573D02*
X0082063Y0035573D01*
X0082063Y0033975D02*
X0080513Y0033975D01*
X0076339Y0033975D02*
X0071024Y0033975D01*
X0071024Y0032376D02*
X0076568Y0032376D01*
X0080513Y0032376D02*
X0082063Y0032376D01*
X0086008Y0032376D02*
X0087214Y0032376D01*
X0087162Y0033975D02*
X0086238Y0033975D01*
X0086238Y0035573D02*
X0087162Y0035573D01*
X0080513Y0037575D02*
X0080513Y0042143D01*
X0077902Y0042143D01*
X0077444Y0042021D01*
X0077033Y0041784D01*
X0076698Y0041449D01*
X0076461Y0041038D01*
X0076339Y0040580D01*
X0076339Y0037575D01*
X0080513Y0037575D01*
X0080513Y0038770D02*
X0082063Y0038770D01*
X0082063Y0040369D02*
X0080513Y0040369D01*
X0080513Y0041967D02*
X0082063Y0041967D01*
X0077351Y0041967D02*
X0072624Y0041967D01*
X0071026Y0040369D02*
X0076339Y0040369D01*
X0076339Y0038770D02*
X0070768Y0038770D01*
X0061310Y0041967D02*
X0032944Y0041967D01*
X0032944Y0043566D02*
X0037668Y0043566D01*
X0037576Y0043659D02*
X0038747Y0042487D01*
X0049853Y0042487D01*
X0051024Y0043659D01*
X0051024Y0045300D01*
X0053639Y0045300D01*
X0053639Y0044928D01*
X0054810Y0043757D01*
X0062766Y0043757D01*
X0063938Y0044928D01*
X0063938Y0053672D01*
X0062766Y0054843D01*
X0054810Y0054843D01*
X0053639Y0053672D01*
X0053639Y0053300D01*
X0051024Y0053300D01*
X0051024Y0054764D01*
X0049853Y0055936D01*
X0038747Y0055936D01*
X0037576Y0054764D01*
X0037576Y0043659D01*
X0037576Y0045164D02*
X0032944Y0045164D01*
X0032944Y0046763D02*
X0037576Y0046763D01*
X0037576Y0048361D02*
X0032944Y0048361D01*
X0037576Y0049960D02*
X0004100Y0049960D01*
X0004100Y0048361D02*
X0017704Y0048361D01*
X0016106Y0046763D02*
X0004100Y0046763D01*
X0004100Y0045164D02*
X0014507Y0045164D01*
X0012909Y0043566D02*
X0004100Y0043566D01*
X0004100Y0041967D02*
X0005680Y0041967D01*
X0021026Y0040369D02*
X0060413Y0040369D01*
X0062909Y0043566D02*
X0050932Y0043566D01*
X0051024Y0045164D02*
X0053639Y0045164D01*
X0063938Y0045164D02*
X0064507Y0045164D01*
X0064662Y0046763D02*
X0063938Y0046763D01*
X0063938Y0048361D02*
X0064662Y0048361D01*
X0064662Y0049960D02*
X0063938Y0049960D01*
X0063938Y0051558D02*
X0064662Y0051558D01*
X0064662Y0053157D02*
X0063938Y0053157D01*
X0062854Y0054755D02*
X0065746Y0054755D01*
X0073878Y0054755D02*
X0077222Y0054755D01*
X0085354Y0054755D02*
X0088246Y0054755D01*
X0087162Y0053157D02*
X0086438Y0053157D01*
X0086438Y0051558D02*
X0087162Y0051558D01*
X0087162Y0049960D02*
X0086438Y0049960D01*
X0086438Y0048361D02*
X0087162Y0048361D01*
X0087162Y0046763D02*
X0086438Y0046763D01*
X0086438Y0045164D02*
X0087162Y0045164D01*
X0097461Y0045164D02*
X0106800Y0045164D01*
X0106800Y0043566D02*
X0073625Y0043566D01*
X0074961Y0045164D02*
X0076139Y0045164D01*
X0096378Y0054755D02*
X0106800Y0054755D01*
X0106800Y0053157D02*
X0105638Y0053157D01*
X0106800Y0056354D02*
X0004100Y0056354D01*
X0004100Y0054755D02*
X0037576Y0054755D01*
X0037576Y0053157D02*
X0004100Y0053157D01*
X0004100Y0051558D02*
X0037576Y0051558D01*
X0051024Y0054755D02*
X0054722Y0054755D01*
X0126800Y0054755D02*
X0170701Y0054755D01*
X0170701Y0053157D02*
X0126800Y0053157D01*
X0126800Y0052875D02*
X0126800Y0056800D01*
X0170701Y0056800D01*
X0170701Y0041639D01*
X0170332Y0042529D01*
X0168729Y0044132D01*
X0166634Y0045000D01*
X0156966Y0045000D01*
X0154871Y0044132D01*
X0153268Y0042529D01*
X0153256Y0042500D01*
X0152343Y0042500D01*
X0152343Y0043790D01*
X0151172Y0044961D01*
X0142428Y0044961D01*
X0141257Y0043790D01*
X0141257Y0035834D01*
X0142428Y0034662D01*
X0151172Y0034662D01*
X0152343Y0035834D01*
X0152343Y0036100D01*
X0153256Y0036100D01*
X0153268Y0036071D01*
X0154871Y0034468D01*
X0155276Y0034300D01*
X0154871Y0034132D01*
X0153268Y0032529D01*
X0153044Y0031988D01*
X0152343Y0031988D01*
X0152343Y0032766D01*
X0151172Y0033938D01*
X0142428Y0033938D01*
X0141257Y0032766D01*
X0141257Y0031988D01*
X0141137Y0031988D01*
X0140000Y0033125D01*
X0140000Y0047437D01*
X0139513Y0048613D01*
X0138613Y0049513D01*
X0136113Y0052013D01*
X0134937Y0052500D01*
X0133161Y0052500D01*
X0132786Y0052875D01*
X0126800Y0052875D01*
X0126800Y0056354D02*
X0170701Y0056354D01*
X0170701Y0051558D02*
X0136567Y0051558D01*
X0138166Y0049960D02*
X0170701Y0049960D01*
X0170701Y0048361D02*
X0139617Y0048361D01*
X0140000Y0046763D02*
X0170701Y0046763D01*
X0170701Y0045164D02*
X0140000Y0045164D01*
X0140000Y0043566D02*
X0141257Y0043566D01*
X0141257Y0041967D02*
X0140000Y0041967D01*
X0140000Y0040369D02*
X0141257Y0040369D01*
X0141257Y0038770D02*
X0140000Y0038770D01*
X0140000Y0037172D02*
X0141257Y0037172D01*
X0141517Y0035573D02*
X0140000Y0035573D01*
X0140000Y0033975D02*
X0154714Y0033975D01*
X0153766Y0035573D02*
X0152083Y0035573D01*
X0152343Y0032376D02*
X0153205Y0032376D01*
X0141257Y0032376D02*
X0140749Y0032376D01*
X0137099Y0026976D02*
X0134087Y0029987D01*
X0133600Y0031163D01*
X0133600Y0036970D01*
X0133398Y0036620D01*
X0133063Y0036285D01*
X0132652Y0036048D01*
X0132194Y0035925D01*
X0129103Y0035925D01*
X0129103Y0039300D01*
X0129103Y0042675D01*
X0126800Y0042675D01*
X0126800Y0045725D01*
X0132786Y0045725D01*
X0133068Y0046007D01*
X0133600Y0045475D01*
X0133600Y0041630D01*
X0133398Y0041980D01*
X0133063Y0042315D01*
X0132652Y0042552D01*
X0132194Y0042675D01*
X0129103Y0042675D01*
X0129103Y0039300D01*
X0129103Y0039300D01*
X0129103Y0039300D01*
X0129103Y0035925D01*
X0126800Y0035925D01*
X0126800Y0004100D01*
X0170701Y0004100D01*
X0170701Y0017508D01*
X0170597Y0017189D01*
X0170204Y0016417D01*
X0169695Y0015717D01*
X0169083Y0015105D01*
X0168383Y0014596D01*
X0167611Y0014203D01*
X0166788Y0013935D01*
X0165933Y0013800D01*
X0162100Y0013800D01*
X0162100Y0019000D01*
X0161500Y0019000D01*
X0161500Y0013800D01*
X0157667Y0013800D01*
X0156812Y0013935D01*
X0155989Y0014203D01*
X0155217Y0014596D01*
X0154517Y0015105D01*
X0153905Y0015717D01*
X0153396Y0016417D01*
X0153003Y0017189D01*
X0152735Y0018012D01*
X0152600Y0018867D01*
X0152600Y0019000D01*
X0161500Y0019000D01*
X0161500Y0019600D01*
X0152600Y0019600D01*
X0152600Y0019733D01*
X0152735Y0020588D01*
X0153003Y0021411D01*
X0153396Y0022183D01*
X0153905Y0022883D01*
X0154517Y0023495D01*
X0155217Y0024004D01*
X0155564Y0024181D01*
X0154871Y0024468D01*
X0153751Y0025588D01*
X0152343Y0025588D01*
X0152343Y0024810D01*
X0151172Y0023639D01*
X0142428Y0023639D01*
X0141257Y0024810D01*
X0141257Y0025588D01*
X0139175Y0025588D01*
X0137999Y0026075D01*
X0137099Y0026976D01*
X0136494Y0027581D02*
X0126800Y0027581D01*
X0126800Y0029179D02*
X0134895Y0029179D01*
X0133760Y0030778D02*
X0126800Y0030778D01*
X0126800Y0032376D02*
X0133600Y0032376D01*
X0133600Y0033975D02*
X0126800Y0033975D01*
X0126800Y0035573D02*
X0133600Y0035573D01*
X0129103Y0037172D02*
X0129103Y0037172D01*
X0129103Y0038770D02*
X0129103Y0038770D01*
X0129103Y0040369D02*
X0129103Y0040369D01*
X0129103Y0041967D02*
X0129103Y0041967D01*
X0133405Y0041967D02*
X0133600Y0041967D01*
X0133600Y0043566D02*
X0126800Y0043566D01*
X0126800Y0045164D02*
X0133600Y0045164D01*
X0152343Y0043566D02*
X0154305Y0043566D01*
X0169295Y0043566D02*
X0170701Y0043566D01*
X0170701Y0041967D02*
X0170565Y0041967D01*
X0170701Y0036961D02*
X0170701Y0031639D01*
X0170332Y0032529D01*
X0168729Y0034132D01*
X0168324Y0034300D01*
X0168729Y0034468D01*
X0170332Y0036071D01*
X0170701Y0036961D01*
X0170701Y0035573D02*
X0169834Y0035573D01*
X0170701Y0033975D02*
X0168886Y0033975D01*
X0170395Y0032376D02*
X0170701Y0032376D01*
X0170701Y0026961D02*
X0170701Y0021092D01*
X0170597Y0021411D01*
X0170204Y0022183D01*
X0169695Y0022883D01*
X0169083Y0023495D01*
X0168383Y0024004D01*
X0168036Y0024181D01*
X0168729Y0024468D01*
X0170332Y0026071D01*
X0170701Y0026961D01*
X0170701Y0025982D02*
X0170243Y0025982D01*
X0170701Y0024384D02*
X0168526Y0024384D01*
X0169766Y0022785D02*
X0170701Y0022785D01*
X0170670Y0021187D02*
X0170701Y0021187D01*
X0162100Y0017990D02*
X0161500Y0017990D01*
X0161500Y0019588D02*
X0126800Y0019588D01*
X0126800Y0021187D02*
X0152930Y0021187D01*
X0153834Y0022785D02*
X0126800Y0022785D01*
X0126800Y0024384D02*
X0141683Y0024384D01*
X0138224Y0025982D02*
X0126800Y0025982D01*
X0126800Y0017990D02*
X0152743Y0017990D01*
X0153415Y0016391D02*
X0126800Y0016391D01*
X0126800Y0014793D02*
X0154947Y0014793D01*
X0161500Y0014793D02*
X0162100Y0014793D01*
X0162100Y0016391D02*
X0161500Y0016391D01*
X0168653Y0014793D02*
X0170701Y0014793D01*
X0170701Y0016391D02*
X0170185Y0016391D01*
X0170701Y0013194D02*
X0126800Y0013194D01*
X0126800Y0011596D02*
X0170701Y0011596D01*
X0170701Y0009997D02*
X0126800Y0009997D01*
X0126800Y0008399D02*
X0170701Y0008399D01*
X0170701Y0006800D02*
X0126800Y0006800D01*
X0126800Y0005201D02*
X0170701Y0005201D01*
X0155074Y0024384D02*
X0151917Y0024384D01*
D19*
X0086800Y0026800D03*
X0081800Y0026800D03*
X0076800Y0026800D03*
X0076800Y0019300D03*
X0076800Y0014300D03*
X0076800Y0009300D03*
M02*
