%TF.GenerationSoftware,KiCad,Pcbnew,6.0.10-86aedd382b~118~ubuntu20.04.1*%
%TF.CreationDate,2024-03-04T22:47:07-05:00*%
%TF.ProjectId,cold-start-power-supply,636f6c64-2d73-4746-9172-742d706f7765,rev?*%
%TF.SameCoordinates,Original*%
%TF.FileFunction,Soldermask,Bot*%
%TF.FilePolarity,Negative*%
%FSLAX46Y46*%
G04 Gerber Fmt 4.6, Leading zero omitted, Abs format (unit mm)*
G04 Created by KiCad (PCBNEW 6.0.10-86aedd382b~118~ubuntu20.04.1) date 2024-03-04 22:47:07*
%MOMM*%
%LPD*%
G01*
G04 APERTURE LIST*
G04 Aperture macros list*
%AMRoundRect*
0 Rectangle with rounded corners*
0 $1 Rounding radius*
0 $2 $3 $4 $5 $6 $7 $8 $9 X,Y pos of 4 corners*
0 Add a 4 corners polygon primitive as box body*
4,1,4,$2,$3,$4,$5,$6,$7,$8,$9,$2,$3,0*
0 Add four circle primitives for the rounded corners*
1,1,$1+$1,$2,$3*
1,1,$1+$1,$4,$5*
1,1,$1+$1,$6,$7*
1,1,$1+$1,$8,$9*
0 Add four rect primitives between the rounded corners*
20,1,$1+$1,$2,$3,$4,$5,0*
20,1,$1+$1,$4,$5,$6,$7,0*
20,1,$1+$1,$6,$7,$8,$9,0*
20,1,$1+$1,$8,$9,$2,$3,0*%
G04 Aperture macros list end*
%ADD10RoundRect,0.250000X1.125000X1.125000X-1.125000X1.125000X-1.125000X-1.125000X1.125000X-1.125000X0*%
%ADD11C,2.750000*%
%ADD12C,0.700000*%
%ADD13C,4.400000*%
G04 APERTURE END LIST*
D10*
%TO.C,J1*%
X148402000Y-110871000D03*
D11*
X143002000Y-110871000D03*
%TD*%
D12*
%TO.C,H4*%
X153011274Y-109450274D03*
X155344726Y-109450274D03*
X154178000Y-108967000D03*
X155344726Y-111783726D03*
X155828000Y-110617000D03*
X154178000Y-112267000D03*
D13*
X154178000Y-110617000D03*
D12*
X152528000Y-110617000D03*
X153011274Y-111783726D03*
%TD*%
%TO.C,H1*%
X111761000Y-80264000D03*
X112244274Y-81430726D03*
X115061000Y-80264000D03*
D13*
X113411000Y-80264000D03*
D12*
X114577726Y-79097274D03*
X112244274Y-79097274D03*
X113411000Y-78614000D03*
X113411000Y-81914000D03*
X114577726Y-81430726D03*
%TD*%
D10*
%TO.C,J2*%
X123858000Y-110871000D03*
D11*
X118458000Y-110871000D03*
%TD*%
D12*
%TO.C,H3*%
X115061000Y-110617000D03*
X112244274Y-109450274D03*
X113411000Y-112267000D03*
X111761000Y-110617000D03*
X114577726Y-111783726D03*
D13*
X113411000Y-110617000D03*
D12*
X113411000Y-108967000D03*
X114577726Y-109450274D03*
X112244274Y-111783726D03*
%TD*%
%TO.C,H2*%
X153011274Y-81430726D03*
X153011274Y-79097274D03*
X155344726Y-81430726D03*
X155828000Y-80264000D03*
D13*
X154178000Y-80264000D03*
D12*
X154178000Y-81914000D03*
X152528000Y-80264000D03*
X155344726Y-79097274D03*
X154178000Y-78614000D03*
%TD*%
M02*
