M48
; DRILL file {KiCad 6.0.2-378541a8eb~116~ubuntu20.04.1} date Thu 03 Mar 2022 05:18:29 PM EST
; FORMAT={-:-/ absolute / inch / decimal}
; #@! TF.CreationDate,2022-03-03T17:18:29-05:00
; #@! TF.GenerationSoftware,Kicad,Pcbnew,6.0.2-378541a8eb~116~ubuntu20.04.1
; #@! TF.FileFunction,MixedPlating,1,2
FMAT,2
INCH
; #@! TA.AperFunction,Plated,PTH,ViaDrill
T1C0.0157
; #@! TA.AperFunction,Plated,PTH,ComponentDrill
T2C0.0157
; #@! TA.AperFunction,Plated,PTH,ComponentDrill
T3C0.0689
; #@! TA.AperFunction,Plated,PTH,ComponentDrill
T4C0.0866
%
G90
G05
T1
X4.51Y-3.72
X4.51Y-3.76
X4.51Y-3.8
X4.51Y-3.86
X4.51Y-3.9
X4.51Y-3.94
X4.51Y-3.995
X4.51Y-4.04
X4.51Y-4.085
X4.51Y-4.13
X4.525Y-3.34
X4.525Y-3.48
X4.525Y-3.55
X4.555Y-4.13
X4.6Y-4.13
X4.67Y-3.14
X4.715Y-3.465
X4.755Y-3.465
X4.81Y-3.175
X4.81Y-3.22
X4.81Y-3.27
X4.885Y-3.465
X4.925Y-3.465
X4.95Y-3.1
X5.04Y-4.16
X5.04Y-4.205
X5.04Y-4.25
X5.07Y-3.175
X5.07Y-3.22
X5.07Y-3.265
X5.14Y-3.29
X5.2Y-4.16
X5.26Y-4.16
X5.32Y-4.16
X5.46Y-3.15
X5.46Y-3.195
X5.46Y-3.24
X5.46Y-3.285
X5.46Y-3.33
X5.465Y-4.16
X5.49Y-3.86
X5.49Y-3.905
X5.49Y-3.95
X5.49Y-3.995
X5.8Y-3.59
X5.87Y-3.4
X5.91Y-3.4
X5.95Y-3.4
X5.995Y-3.4
X6.04Y-3.4
X6.06Y-3.435
X6.06Y-3.48
X6.06Y-3.525
T2
X4.4Y-3.16
X4.4Y-4.355
X4.4191Y-3.1141
X4.4191Y-3.2059
X4.4191Y-4.3091
X4.4191Y-4.4009
X4.465Y-3.095
X4.465Y-3.225
X4.465Y-4.29
X4.465Y-4.42
X4.5109Y-3.1141
X4.5109Y-3.2059
X4.5109Y-4.3091
X4.5109Y-4.4009
X4.53Y-3.16
X4.53Y-4.355
X6.005Y-3.16
X6.005Y-4.355
X6.0241Y-3.1141
X6.0241Y-3.2059
X6.0241Y-4.3091
X6.0241Y-4.4009
X6.07Y-3.095
X6.07Y-3.225
X6.07Y-4.29
X6.07Y-4.42
X6.1159Y-3.1141
X6.1159Y-3.2059
X6.1159Y-4.3091
X6.1159Y-4.4009
X6.135Y-3.16
X6.135Y-4.355
T3
X4.6637Y-4.365
X4.8763Y-4.365
X5.63Y-4.365
X5.8426Y-4.365
T4
X4.465Y-3.16
X4.465Y-4.355
X6.07Y-3.16
X6.07Y-4.355
T0
M30
