%TF.GenerationSoftware,KiCad,Pcbnew,6.0.10-86aedd382b~118~ubuntu20.04.1*%
%TF.CreationDate,2024-03-04T22:47:07-05:00*%
%TF.ProjectId,cold-start-power-supply,636f6c64-2d73-4746-9172-742d706f7765,rev?*%
%TF.SameCoordinates,Original*%
%TF.FileFunction,Soldermask,Top*%
%TF.FilePolarity,Negative*%
%FSLAX46Y46*%
G04 Gerber Fmt 4.6, Leading zero omitted, Abs format (unit mm)*
G04 Created by KiCad (PCBNEW 6.0.10-86aedd382b~118~ubuntu20.04.1) date 2024-03-04 22:47:07*
%MOMM*%
%LPD*%
G01*
G04 APERTURE LIST*
G04 Aperture macros list*
%AMRoundRect*
0 Rectangle with rounded corners*
0 $1 Rounding radius*
0 $2 $3 $4 $5 $6 $7 $8 $9 X,Y pos of 4 corners*
0 Add a 4 corners polygon primitive as box body*
4,1,4,$2,$3,$4,$5,$6,$7,$8,$9,$2,$3,0*
0 Add four circle primitives for the rounded corners*
1,1,$1+$1,$2,$3*
1,1,$1+$1,$4,$5*
1,1,$1+$1,$6,$7*
1,1,$1+$1,$8,$9*
0 Add four rect primitives between the rounded corners*
20,1,$1+$1,$2,$3,$4,$5,0*
20,1,$1+$1,$4,$5,$6,$7,0*
20,1,$1+$1,$6,$7,$8,$9,0*
20,1,$1+$1,$8,$9,$2,$3,0*%
%AMFreePoly0*
4,1,17,2.675000,1.605000,1.875000,1.605000,1.875000,0.935000,2.675000,0.935000,2.675000,0.335000,1.875000,0.335000,1.875000,-0.335000,2.675000,-0.335000,2.675000,-0.935000,1.875000,-0.935000,1.875000,-1.605000,2.675000,-1.605000,2.675000,-2.205000,-1.875000,-2.205000,-1.875000,2.205000,2.675000,2.205000,2.675000,1.605000,2.675000,1.605000,$1*%
G04 Aperture macros list end*
%ADD10RoundRect,0.250000X1.125000X1.125000X-1.125000X1.125000X-1.125000X-1.125000X1.125000X-1.125000X0*%
%ADD11C,2.750000*%
%ADD12RoundRect,0.625000X1.625000X0.625000X-1.625000X0.625000X-1.625000X-0.625000X1.625000X-0.625000X0*%
%ADD13RoundRect,0.225000X0.250000X-0.225000X0.250000X0.225000X-0.250000X0.225000X-0.250000X-0.225000X0*%
%ADD14RoundRect,0.200000X-0.275000X0.200000X-0.275000X-0.200000X0.275000X-0.200000X0.275000X0.200000X0*%
%ADD15RoundRect,0.250000X0.550000X-1.250000X0.550000X1.250000X-0.550000X1.250000X-0.550000X-1.250000X0*%
%ADD16RoundRect,0.250000X-0.250000X-1.750000X0.250000X-1.750000X0.250000X1.750000X-0.250000X1.750000X0*%
%ADD17RoundRect,0.225000X0.225000X0.250000X-0.225000X0.250000X-0.225000X-0.250000X0.225000X-0.250000X0*%
%ADD18R,9.400000X10.800000*%
%ADD19R,4.600000X1.100000*%
%ADD20FreePoly0,270.000000*%
%ADD21R,0.500000X0.850000*%
%ADD22RoundRect,0.100000X-0.712500X-0.100000X0.712500X-0.100000X0.712500X0.100000X-0.712500X0.100000X0*%
%ADD23C,0.700000*%
%ADD24C,4.400000*%
%ADD25RoundRect,0.250000X0.325000X1.100000X-0.325000X1.100000X-0.325000X-1.100000X0.325000X-1.100000X0*%
%ADD26RoundRect,0.250000X1.250000X0.550000X-1.250000X0.550000X-1.250000X-0.550000X1.250000X-0.550000X0*%
%ADD27RoundRect,0.250000X0.312500X0.625000X-0.312500X0.625000X-0.312500X-0.625000X0.312500X-0.625000X0*%
%ADD28RoundRect,0.200000X0.200000X0.275000X-0.200000X0.275000X-0.200000X-0.275000X0.200000X-0.275000X0*%
%ADD29RoundRect,0.200000X0.275000X-0.200000X0.275000X0.200000X-0.275000X0.200000X-0.275000X-0.200000X0*%
G04 APERTURE END LIST*
D10*
%TO.C,J1*%
X148402000Y-110871000D03*
D11*
X143002000Y-110871000D03*
%TD*%
D12*
%TO.C,L1*%
X150792000Y-91416000D03*
X150792000Y-88416000D03*
X140292000Y-88416000D03*
X140292000Y-91416000D03*
%TD*%
D13*
%TO.C,C7*%
X120396000Y-82830000D03*
X120396000Y-81280000D03*
%TD*%
D14*
%TO.C,R5*%
X118618000Y-81217000D03*
X118618000Y-82867000D03*
%TD*%
D15*
%TO.C,C3*%
X130175000Y-111420000D03*
X130175000Y-107020000D03*
%TD*%
D16*
%TO.C,R6*%
X135852000Y-82296000D03*
X137452000Y-82296000D03*
%TD*%
D17*
%TO.C,C5*%
X117678000Y-84836000D03*
X116128000Y-84836000D03*
%TD*%
D18*
%TO.C,D1*%
X126927000Y-98298000D03*
D19*
X136077000Y-100838000D03*
X136077000Y-95758000D03*
%TD*%
D20*
%TO.C,Q1*%
X132334000Y-88392000D03*
D21*
X134239000Y-84842000D03*
X132969000Y-84842000D03*
X131699000Y-84842000D03*
X130429000Y-84842000D03*
%TD*%
D22*
%TO.C,IC1*%
X120315500Y-84623000D03*
X120315500Y-85273000D03*
X120315500Y-85923000D03*
X120315500Y-86573000D03*
X124540500Y-86573000D03*
X124540500Y-85923000D03*
X124540500Y-85273000D03*
X124540500Y-84623000D03*
%TD*%
D23*
%TO.C,H4*%
X153011274Y-109450274D03*
X155344726Y-109450274D03*
X154178000Y-108967000D03*
X155344726Y-111783726D03*
X155828000Y-110617000D03*
X154178000Y-112267000D03*
D24*
X154178000Y-110617000D03*
D23*
X152528000Y-110617000D03*
X153011274Y-111783726D03*
%TD*%
D25*
%TO.C,C11*%
X119028000Y-102616000D03*
X116078000Y-102616000D03*
%TD*%
D23*
%TO.C,H1*%
X111761000Y-80264000D03*
X112244274Y-81430726D03*
X115061000Y-80264000D03*
D24*
X113411000Y-80264000D03*
D23*
X114577726Y-79097274D03*
X112244274Y-79097274D03*
X113411000Y-78614000D03*
X113411000Y-81914000D03*
X114577726Y-81430726D03*
%TD*%
D17*
%TO.C,C6*%
X117678000Y-88392000D03*
X116128000Y-88392000D03*
%TD*%
D10*
%TO.C,J2*%
X123858000Y-110871000D03*
D11*
X118458000Y-110871000D03*
%TD*%
D26*
%TO.C,C2*%
X145329000Y-103251000D03*
X140929000Y-103251000D03*
%TD*%
D27*
%TO.C,R7*%
X119064500Y-92456000D03*
X116139500Y-92456000D03*
%TD*%
D28*
%TO.C,R2*%
X117728000Y-86614000D03*
X116078000Y-86614000D03*
%TD*%
%TO.C,R8*%
X117728000Y-90170000D03*
X116078000Y-90170000D03*
%TD*%
D13*
%TO.C,C4*%
X123952000Y-82830000D03*
X123952000Y-81280000D03*
%TD*%
D14*
%TO.C,R1*%
X125730000Y-81217000D03*
X125730000Y-82867000D03*
%TD*%
D23*
%TO.C,H3*%
X115061000Y-110617000D03*
X112244274Y-109450274D03*
X113411000Y-112267000D03*
X111761000Y-110617000D03*
X114577726Y-111783726D03*
D24*
X113411000Y-110617000D03*
D23*
X113411000Y-108967000D03*
X114577726Y-109450274D03*
X112244274Y-111783726D03*
%TD*%
D15*
%TO.C,C1*%
X136906000Y-111420000D03*
X136906000Y-107020000D03*
%TD*%
D25*
%TO.C,C9*%
X119077000Y-95504000D03*
X116127000Y-95504000D03*
%TD*%
D23*
%TO.C,H2*%
X153011274Y-81430726D03*
X153011274Y-79097274D03*
X155344726Y-81430726D03*
X155828000Y-80264000D03*
D24*
X154178000Y-80264000D03*
D23*
X154178000Y-81914000D03*
X152528000Y-80264000D03*
X155344726Y-79097274D03*
X154178000Y-78614000D03*
%TD*%
D13*
%TO.C,C8*%
X136398000Y-92088000D03*
X136398000Y-90538000D03*
%TD*%
D14*
%TO.C,R3*%
X127508000Y-81217000D03*
X127508000Y-82867000D03*
%TD*%
D29*
%TO.C,R4*%
X127508000Y-86423000D03*
X127508000Y-84773000D03*
%TD*%
D25*
%TO.C,C10*%
X119077000Y-99060000D03*
X116127000Y-99060000D03*
%TD*%
M02*
