%TF.GenerationSoftware,KiCad,Pcbnew,6.0.2-378541a8eb~116~ubuntu20.04.1*%
%TF.CreationDate,2022-03-03T17:18:27-05:00*%
%TF.ProjectId,cold-start-power-supply,636f6c64-2d73-4746-9172-742d706f7765,rev?*%
%TF.SameCoordinates,Original*%
%TF.FileFunction,Copper,L2,Bot*%
%TF.FilePolarity,Positive*%
%FSLAX46Y46*%
G04 Gerber Fmt 4.6, Leading zero omitted, Abs format (unit mm)*
G04 Created by KiCad (PCBNEW 6.0.2-378541a8eb~116~ubuntu20.04.1) date 2022-03-03 17:18:27*
%MOMM*%
%LPD*%
G01*
G04 APERTURE LIST*
G04 Aperture macros list*
%AMRoundRect*
0 Rectangle with rounded corners*
0 $1 Rounding radius*
0 $2 $3 $4 $5 $6 $7 $8 $9 X,Y pos of 4 corners*
0 Add a 4 corners polygon primitive as box body*
4,1,4,$2,$3,$4,$5,$6,$7,$8,$9,$2,$3,0*
0 Add four circle primitives for the rounded corners*
1,1,$1+$1,$2,$3*
1,1,$1+$1,$4,$5*
1,1,$1+$1,$6,$7*
1,1,$1+$1,$8,$9*
0 Add four rect primitives between the rounded corners*
20,1,$1+$1,$2,$3,$4,$5,0*
20,1,$1+$1,$4,$5,$6,$7,0*
20,1,$1+$1,$6,$7,$8,$9,0*
20,1,$1+$1,$8,$9,$2,$3,0*%
G04 Aperture macros list end*
%TA.AperFunction,ComponentPad*%
%ADD10C,0.700000*%
%TD*%
%TA.AperFunction,ComponentPad*%
%ADD11C,4.400000*%
%TD*%
%TA.AperFunction,ComponentPad*%
%ADD12RoundRect,0.250000X1.125000X1.125000X-1.125000X1.125000X-1.125000X-1.125000X1.125000X-1.125000X0*%
%TD*%
%TA.AperFunction,ComponentPad*%
%ADD13C,2.750000*%
%TD*%
%TA.AperFunction,ViaPad*%
%ADD14C,0.800000*%
%TD*%
%TA.AperFunction,Conductor*%
%ADD15C,0.250000*%
%TD*%
G04 APERTURE END LIST*
D10*
%TO.P,H4,1*%
%TO.N,N/C*%
X155344726Y-111783726D03*
X154178000Y-108967000D03*
X153011274Y-109450274D03*
X152528000Y-110617000D03*
X155344726Y-109450274D03*
X153011274Y-111783726D03*
X154178000Y-112267000D03*
D11*
X154178000Y-110617000D03*
D10*
X155828000Y-110617000D03*
%TD*%
%TO.P,H3,1*%
%TO.N,N/C*%
X114577726Y-111783726D03*
X113411000Y-108967000D03*
X112244274Y-109450274D03*
X111761000Y-110617000D03*
X114577726Y-109450274D03*
X112244274Y-111783726D03*
X113411000Y-112267000D03*
D11*
X113411000Y-110617000D03*
D10*
X115061000Y-110617000D03*
%TD*%
%TO.P,H2,1*%
%TO.N,N/C*%
X155344726Y-81430726D03*
X154178000Y-78614000D03*
X153011274Y-79097274D03*
X152528000Y-80264000D03*
X155344726Y-79097274D03*
X153011274Y-81430726D03*
X154178000Y-81914000D03*
D11*
X154178000Y-80264000D03*
D10*
X155828000Y-80264000D03*
%TD*%
%TO.P,H1,1*%
%TO.N,N/C*%
X114577726Y-81430726D03*
X113411000Y-78614000D03*
X112244274Y-79097274D03*
X111761000Y-80264000D03*
X114577726Y-79097274D03*
X112244274Y-81430726D03*
X113411000Y-81914000D03*
D11*
X113411000Y-80264000D03*
D10*
X115061000Y-80264000D03*
%TD*%
D12*
%TO.P,J2,1,Pin_1*%
%TO.N,/VOUT*%
X123858000Y-110871000D03*
D13*
%TO.P,J2,2,Pin_2*%
%TO.N,GND*%
X118458000Y-110871000D03*
%TD*%
D12*
%TO.P,J1,1,Pin_1*%
%TO.N,GND*%
X148402000Y-110871000D03*
D13*
%TO.P,J1,2,Pin_2*%
%TO.N,/VIN*%
X143002000Y-110871000D03*
%TD*%
D14*
%TO.N,GND*%
X153924000Y-89535000D03*
X153924000Y-88392000D03*
X153924000Y-87249000D03*
X153416000Y-86360000D03*
X116840000Y-104902000D03*
X114554000Y-104902000D03*
X115697000Y-104902000D03*
X128016000Y-107950000D03*
X128016000Y-106807000D03*
X128016000Y-105664000D03*
X128778000Y-82931000D03*
X128778000Y-81788000D03*
X128778000Y-80645000D03*
X114935000Y-84836000D03*
X114935000Y-88392000D03*
X114935000Y-90170000D03*
X114554000Y-94488000D03*
X114554000Y-95504000D03*
X114554000Y-96520000D03*
X114554000Y-98044000D03*
X114554000Y-99060000D03*
X114554000Y-100076000D03*
X114554000Y-101473000D03*
X114554000Y-102616000D03*
X114554000Y-103759000D03*
X139446000Y-98044000D03*
X139446000Y-99187000D03*
X139446000Y-100330000D03*
X139446000Y-101473000D03*
X138811000Y-105664000D03*
X135128000Y-105664000D03*
X133604000Y-105664000D03*
X132080000Y-105664000D03*
X152273000Y-86360000D03*
X151130000Y-86360000D03*
X150114000Y-86360000D03*
X149098000Y-86360000D03*
X138684000Y-84582000D03*
X138684000Y-83439000D03*
X138684000Y-82296000D03*
X138684000Y-81153000D03*
X138684000Y-80010000D03*
X125095000Y-88011000D03*
X124079000Y-88011000D03*
X120777000Y-88011000D03*
X119761000Y-88011000D03*
X122174000Y-83058000D03*
X122174000Y-81788000D03*
X122174000Y-80645000D03*
%TO.N,/VIN*%
X125730000Y-78740000D03*
X147320000Y-91186000D03*
%TO.N,/SOURCE*%
X118618000Y-79756000D03*
X130556000Y-83566000D03*
%TD*%
D15*
%TO.N,/VIN*%
X125984000Y-78486000D02*
X125730000Y-78740000D01*
X147320000Y-84582000D02*
X141732000Y-78994000D01*
X141224000Y-78486000D02*
X125984000Y-78486000D01*
X147320000Y-91186000D02*
X147320000Y-84582000D01*
X141732000Y-78994000D02*
X141224000Y-78486000D01*
%TO.N,/SOURCE*%
X118872000Y-79502000D02*
X118618000Y-79756000D01*
X129032000Y-79502000D02*
X118872000Y-79502000D01*
X129794000Y-82804000D02*
X129794000Y-82550000D01*
X129794000Y-82550000D02*
X129794000Y-80264000D01*
X130556000Y-83566000D02*
X129794000Y-82804000D01*
X129794000Y-80264000D02*
X129032000Y-79502000D01*
%TD*%
%TA.AperFunction,Conductor*%
%TO.N,GND*%
G36*
X153771099Y-77617002D02*
G01*
X153817592Y-77670658D01*
X153827696Y-77740932D01*
X153798202Y-77805512D01*
X153738476Y-77843896D01*
X153724925Y-77846723D01*
X153724973Y-77846973D01*
X153721101Y-77847712D01*
X153717163Y-77848209D01*
X153418018Y-77925016D01*
X153130858Y-78038711D01*
X153127399Y-78040612D01*
X153127396Y-78040614D01*
X153016318Y-78101680D01*
X152860213Y-78187500D01*
X152857009Y-78189828D01*
X152857004Y-78189831D01*
X152613553Y-78366708D01*
X152610349Y-78369036D01*
X152385209Y-78580457D01*
X152188342Y-78818429D01*
X152022853Y-79079198D01*
X151891351Y-79358652D01*
X151795912Y-79652384D01*
X151738040Y-79955761D01*
X151718647Y-80264000D01*
X151738040Y-80572239D01*
X151795912Y-80875616D01*
X151891351Y-81169348D01*
X152022853Y-81448802D01*
X152188342Y-81709571D01*
X152385209Y-81947543D01*
X152610349Y-82158964D01*
X152613551Y-82161291D01*
X152613553Y-82161292D01*
X152857004Y-82338169D01*
X152857009Y-82338172D01*
X152860213Y-82340500D01*
X153130858Y-82489289D01*
X153418018Y-82602984D01*
X153717163Y-82679791D01*
X154023576Y-82718500D01*
X154332424Y-82718500D01*
X154638837Y-82679791D01*
X154937982Y-82602984D01*
X155225142Y-82489289D01*
X155495787Y-82340500D01*
X155498991Y-82338172D01*
X155498996Y-82338169D01*
X155742447Y-82161292D01*
X155742449Y-82161291D01*
X155745651Y-82158964D01*
X155970791Y-81947543D01*
X156167658Y-81709571D01*
X156333147Y-81448802D01*
X156464649Y-81169348D01*
X156560088Y-80875616D01*
X156595232Y-80691384D01*
X156627644Y-80628218D01*
X156689061Y-80592603D01*
X156759984Y-80595846D01*
X156817894Y-80636917D01*
X156844406Y-80702778D01*
X156845000Y-80714994D01*
X156845000Y-110166006D01*
X156824998Y-110234127D01*
X156771342Y-110280620D01*
X156701068Y-110290724D01*
X156636488Y-110261230D01*
X156598104Y-110201504D01*
X156595232Y-110189616D01*
X156584529Y-110133509D01*
X156560088Y-110005384D01*
X156464649Y-109711652D01*
X156333147Y-109432198D01*
X156323914Y-109417648D01*
X156221453Y-109256197D01*
X156167658Y-109171429D01*
X155970791Y-108933457D01*
X155745651Y-108722036D01*
X155742447Y-108719708D01*
X155498996Y-108542831D01*
X155498991Y-108542828D01*
X155495787Y-108540500D01*
X155225142Y-108391711D01*
X154937982Y-108278016D01*
X154638837Y-108201209D01*
X154332424Y-108162500D01*
X154023576Y-108162500D01*
X153717163Y-108201209D01*
X153418018Y-108278016D01*
X153130858Y-108391711D01*
X152860213Y-108540500D01*
X152857009Y-108542828D01*
X152857004Y-108542831D01*
X152613553Y-108719708D01*
X152610349Y-108722036D01*
X152385209Y-108933457D01*
X152188342Y-109171429D01*
X152134547Y-109256197D01*
X152032087Y-109417648D01*
X152022853Y-109432198D01*
X151891351Y-109711652D01*
X151795912Y-110005384D01*
X151738040Y-110308761D01*
X151718647Y-110617000D01*
X151738040Y-110925239D01*
X151795912Y-111228616D01*
X151891351Y-111522348D01*
X152022853Y-111801802D01*
X152024971Y-111805140D01*
X152024973Y-111805143D01*
X152044066Y-111835228D01*
X152188342Y-112062571D01*
X152385209Y-112300543D01*
X152610349Y-112511964D01*
X152613551Y-112514291D01*
X152613553Y-112514292D01*
X152857004Y-112691169D01*
X152857009Y-112691172D01*
X152860213Y-112693500D01*
X153130858Y-112842289D01*
X153418018Y-112955984D01*
X153717163Y-113032791D01*
X153721101Y-113033288D01*
X153724973Y-113034027D01*
X153724679Y-113035570D01*
X153783846Y-113061375D01*
X153823248Y-113120435D01*
X153824465Y-113191421D01*
X153787111Y-113251796D01*
X153723045Y-113282392D01*
X153702978Y-113284000D01*
X113886022Y-113284000D01*
X113817901Y-113263998D01*
X113771408Y-113210342D01*
X113761304Y-113140068D01*
X113790798Y-113075488D01*
X113850524Y-113037104D01*
X113864075Y-113034277D01*
X113864027Y-113034027D01*
X113867899Y-113033288D01*
X113871837Y-113032791D01*
X114170982Y-112955984D01*
X114458142Y-112842289D01*
X114728787Y-112693500D01*
X114731991Y-112691172D01*
X114731996Y-112691169D01*
X114975447Y-112514292D01*
X114975449Y-112514291D01*
X114978651Y-112511964D01*
X115203791Y-112300543D01*
X115361505Y-112109899D01*
X117404851Y-112109899D01*
X117411638Y-112119600D01*
X117493772Y-112189748D01*
X117501754Y-112195548D01*
X117711943Y-112324352D01*
X117720737Y-112328833D01*
X117948482Y-112423168D01*
X117957867Y-112426217D01*
X118197567Y-112483764D01*
X118207314Y-112485307D01*
X118453070Y-112504649D01*
X118462930Y-112504649D01*
X118708686Y-112485307D01*
X118718433Y-112483764D01*
X118958133Y-112426217D01*
X118967518Y-112423168D01*
X119195263Y-112328833D01*
X119204057Y-112324352D01*
X119414246Y-112195548D01*
X119422228Y-112189748D01*
X119502792Y-112120941D01*
X119511222Y-112108027D01*
X119505215Y-112097820D01*
X119451151Y-112043756D01*
X122228500Y-112043756D01*
X122235202Y-112105448D01*
X122285929Y-112240764D01*
X122291309Y-112247943D01*
X122291311Y-112247946D01*
X122332762Y-112303254D01*
X122372596Y-112356404D01*
X122379776Y-112361785D01*
X122481054Y-112437689D01*
X122481057Y-112437691D01*
X122488236Y-112443071D01*
X122577954Y-112476704D01*
X122616157Y-112491026D01*
X122616159Y-112491026D01*
X122623552Y-112493798D01*
X122631402Y-112494651D01*
X122631403Y-112494651D01*
X122680632Y-112499999D01*
X122685244Y-112500500D01*
X125030756Y-112500500D01*
X125035368Y-112499999D01*
X125084597Y-112494651D01*
X125084598Y-112494651D01*
X125092448Y-112493798D01*
X125099841Y-112491026D01*
X125099843Y-112491026D01*
X125138046Y-112476704D01*
X125227764Y-112443071D01*
X125234943Y-112437691D01*
X125234946Y-112437689D01*
X125336224Y-112361785D01*
X125343404Y-112356404D01*
X125383238Y-112303254D01*
X125424689Y-112247946D01*
X125424691Y-112247943D01*
X125430071Y-112240764D01*
X125480798Y-112105448D01*
X125487500Y-112043756D01*
X125487500Y-110871000D01*
X141367461Y-110871000D01*
X141387585Y-111126698D01*
X141447461Y-111376100D01*
X141449354Y-111380671D01*
X141449355Y-111380673D01*
X141506476Y-111518574D01*
X141545615Y-111613065D01*
X141679630Y-111831758D01*
X141846206Y-112026794D01*
X142041242Y-112193370D01*
X142259935Y-112327385D01*
X142264505Y-112329278D01*
X142264509Y-112329280D01*
X142492327Y-112423645D01*
X142496900Y-112425539D01*
X142569926Y-112443071D01*
X142741489Y-112484260D01*
X142741495Y-112484261D01*
X142746302Y-112485415D01*
X143002000Y-112505539D01*
X143257698Y-112485415D01*
X143262505Y-112484261D01*
X143262511Y-112484260D01*
X143434074Y-112443071D01*
X143507100Y-112425539D01*
X143511673Y-112423645D01*
X143739491Y-112329280D01*
X143739495Y-112329278D01*
X143744065Y-112327385D01*
X143962758Y-112193370D01*
X144141990Y-112040292D01*
X146773001Y-112040292D01*
X146773370Y-112047110D01*
X146778841Y-112097482D01*
X146782470Y-112112741D01*
X146827222Y-112232118D01*
X146835754Y-112247704D01*
X146911572Y-112348867D01*
X146924133Y-112361428D01*
X147025296Y-112437246D01*
X147040882Y-112445778D01*
X147160265Y-112490533D01*
X147175510Y-112494158D01*
X147225892Y-112499631D01*
X147232706Y-112500000D01*
X148256885Y-112500000D01*
X148272124Y-112495525D01*
X148273329Y-112494135D01*
X148275000Y-112486452D01*
X148275000Y-112481884D01*
X148529000Y-112481884D01*
X148533475Y-112497123D01*
X148534865Y-112498328D01*
X148542548Y-112499999D01*
X149571292Y-112499999D01*
X149578110Y-112499630D01*
X149628482Y-112494159D01*
X149643741Y-112490530D01*
X149763118Y-112445778D01*
X149778704Y-112437246D01*
X149879867Y-112361428D01*
X149892428Y-112348867D01*
X149968246Y-112247704D01*
X149976778Y-112232118D01*
X150021533Y-112112735D01*
X150025158Y-112097490D01*
X150030631Y-112047108D01*
X150031000Y-112040294D01*
X150031000Y-111016115D01*
X150026525Y-111000876D01*
X150025135Y-110999671D01*
X150017452Y-110998000D01*
X148547115Y-110998000D01*
X148531876Y-111002475D01*
X148530671Y-111003865D01*
X148529000Y-111011548D01*
X148529000Y-112481884D01*
X148275000Y-112481884D01*
X148275000Y-111016115D01*
X148270525Y-111000876D01*
X148269135Y-110999671D01*
X148261452Y-110998000D01*
X146791116Y-110998000D01*
X146775877Y-111002475D01*
X146774672Y-111003865D01*
X146773001Y-111011548D01*
X146773001Y-112040292D01*
X144141990Y-112040292D01*
X144157794Y-112026794D01*
X144324370Y-111831758D01*
X144458385Y-111613065D01*
X144497525Y-111518574D01*
X144554645Y-111380673D01*
X144554646Y-111380671D01*
X144556539Y-111376100D01*
X144616415Y-111126698D01*
X144636539Y-110871000D01*
X144625118Y-110725885D01*
X146773000Y-110725885D01*
X146777475Y-110741124D01*
X146778865Y-110742329D01*
X146786548Y-110744000D01*
X148256885Y-110744000D01*
X148272124Y-110739525D01*
X148273329Y-110738135D01*
X148275000Y-110730452D01*
X148275000Y-110725885D01*
X148529000Y-110725885D01*
X148533475Y-110741124D01*
X148534865Y-110742329D01*
X148542548Y-110744000D01*
X150012884Y-110744000D01*
X150028123Y-110739525D01*
X150029328Y-110738135D01*
X150030999Y-110730452D01*
X150030999Y-109701708D01*
X150030630Y-109694890D01*
X150025159Y-109644518D01*
X150021530Y-109629259D01*
X149976778Y-109509882D01*
X149968246Y-109494296D01*
X149892428Y-109393133D01*
X149879867Y-109380572D01*
X149778704Y-109304754D01*
X149763118Y-109296222D01*
X149643735Y-109251467D01*
X149628490Y-109247842D01*
X149578108Y-109242369D01*
X149571294Y-109242000D01*
X148547115Y-109242000D01*
X148531876Y-109246475D01*
X148530671Y-109247865D01*
X148529000Y-109255548D01*
X148529000Y-110725885D01*
X148275000Y-110725885D01*
X148275000Y-109260116D01*
X148270525Y-109244877D01*
X148269135Y-109243672D01*
X148261452Y-109242001D01*
X147232708Y-109242001D01*
X147225890Y-109242370D01*
X147175518Y-109247841D01*
X147160259Y-109251470D01*
X147040882Y-109296222D01*
X147025296Y-109304754D01*
X146924133Y-109380572D01*
X146911572Y-109393133D01*
X146835754Y-109494296D01*
X146827222Y-109509882D01*
X146782467Y-109629265D01*
X146778842Y-109644510D01*
X146773369Y-109694892D01*
X146773000Y-109701706D01*
X146773000Y-110725885D01*
X144625118Y-110725885D01*
X144616415Y-110615302D01*
X144556539Y-110365900D01*
X144534513Y-110312724D01*
X144460280Y-110133509D01*
X144460278Y-110133505D01*
X144458385Y-110128935D01*
X144324370Y-109910242D01*
X144157794Y-109715206D01*
X143962758Y-109548630D01*
X143744065Y-109414615D01*
X143739495Y-109412722D01*
X143739491Y-109412720D01*
X143511673Y-109318355D01*
X143511671Y-109318354D01*
X143507100Y-109316461D01*
X143420607Y-109295696D01*
X143262511Y-109257740D01*
X143262505Y-109257739D01*
X143257698Y-109256585D01*
X143002000Y-109236461D01*
X142746302Y-109256585D01*
X142741495Y-109257739D01*
X142741489Y-109257740D01*
X142583393Y-109295696D01*
X142496900Y-109316461D01*
X142492329Y-109318354D01*
X142492327Y-109318355D01*
X142264509Y-109412720D01*
X142264505Y-109412722D01*
X142259935Y-109414615D01*
X142041242Y-109548630D01*
X141846206Y-109715206D01*
X141679630Y-109910242D01*
X141545615Y-110128935D01*
X141543722Y-110133505D01*
X141543720Y-110133509D01*
X141469487Y-110312724D01*
X141447461Y-110365900D01*
X141387585Y-110615302D01*
X141367461Y-110871000D01*
X125487500Y-110871000D01*
X125487500Y-109698244D01*
X125480798Y-109636552D01*
X125430071Y-109501236D01*
X125424691Y-109494057D01*
X125424689Y-109494054D01*
X125348785Y-109392776D01*
X125343404Y-109385596D01*
X125254321Y-109318832D01*
X125234946Y-109304311D01*
X125234943Y-109304309D01*
X125227764Y-109298929D01*
X125101166Y-109251470D01*
X125099843Y-109250974D01*
X125099841Y-109250974D01*
X125092448Y-109248202D01*
X125084598Y-109247349D01*
X125084597Y-109247349D01*
X125034153Y-109241869D01*
X125034152Y-109241869D01*
X125030756Y-109241500D01*
X122685244Y-109241500D01*
X122681848Y-109241869D01*
X122681847Y-109241869D01*
X122631403Y-109247349D01*
X122631402Y-109247349D01*
X122623552Y-109248202D01*
X122616159Y-109250974D01*
X122616157Y-109250974D01*
X122614834Y-109251470D01*
X122488236Y-109298929D01*
X122481057Y-109304309D01*
X122481054Y-109304311D01*
X122461679Y-109318832D01*
X122372596Y-109385596D01*
X122367215Y-109392776D01*
X122291311Y-109494054D01*
X122291309Y-109494057D01*
X122285929Y-109501236D01*
X122235202Y-109636552D01*
X122228500Y-109698244D01*
X122228500Y-112043756D01*
X119451151Y-112043756D01*
X118470812Y-111063417D01*
X118456868Y-111055803D01*
X118455035Y-111055934D01*
X118448420Y-111060185D01*
X117412243Y-112096362D01*
X117404851Y-112109899D01*
X115361505Y-112109899D01*
X115400658Y-112062571D01*
X115544934Y-111835228D01*
X115564027Y-111805143D01*
X115564029Y-111805140D01*
X115566147Y-111801802D01*
X115697649Y-111522348D01*
X115793088Y-111228616D01*
X115850960Y-110925239D01*
X115854062Y-110875930D01*
X116824351Y-110875930D01*
X116843693Y-111121686D01*
X116845236Y-111131433D01*
X116902783Y-111371133D01*
X116905832Y-111380518D01*
X117000167Y-111608263D01*
X117004648Y-111617057D01*
X117133452Y-111827246D01*
X117139252Y-111835228D01*
X117208059Y-111915792D01*
X117220973Y-111924222D01*
X117231180Y-111918215D01*
X118265583Y-110883812D01*
X118271961Y-110872132D01*
X118642803Y-110872132D01*
X118642934Y-110873965D01*
X118647185Y-110880580D01*
X119683362Y-111916757D01*
X119696899Y-111924149D01*
X119706600Y-111917362D01*
X119776748Y-111835228D01*
X119782548Y-111827246D01*
X119911352Y-111617057D01*
X119915833Y-111608263D01*
X120010168Y-111380518D01*
X120013217Y-111371133D01*
X120070764Y-111131433D01*
X120072307Y-111121686D01*
X120091649Y-110875930D01*
X120091649Y-110866070D01*
X120072307Y-110620314D01*
X120070764Y-110610567D01*
X120013217Y-110370867D01*
X120010168Y-110361482D01*
X119915833Y-110133737D01*
X119911352Y-110124943D01*
X119782548Y-109914754D01*
X119776748Y-109906772D01*
X119707941Y-109826208D01*
X119695027Y-109817778D01*
X119684820Y-109823785D01*
X118650417Y-110858188D01*
X118642803Y-110872132D01*
X118271961Y-110872132D01*
X118273197Y-110869868D01*
X118273066Y-110868035D01*
X118268815Y-110861420D01*
X117232638Y-109825243D01*
X117219101Y-109817851D01*
X117209400Y-109824638D01*
X117139252Y-109906772D01*
X117133452Y-109914754D01*
X117004648Y-110124943D01*
X117000167Y-110133737D01*
X116905832Y-110361482D01*
X116902783Y-110370867D01*
X116845236Y-110610567D01*
X116843693Y-110620314D01*
X116824351Y-110866070D01*
X116824351Y-110875930D01*
X115854062Y-110875930D01*
X115870353Y-110617000D01*
X115850960Y-110308761D01*
X115793088Y-110005384D01*
X115697649Y-109711652D01*
X115661096Y-109633973D01*
X117404778Y-109633973D01*
X117410785Y-109644180D01*
X118445188Y-110678583D01*
X118459132Y-110686197D01*
X118460965Y-110686066D01*
X118467580Y-110681815D01*
X119503757Y-109645638D01*
X119511149Y-109632101D01*
X119504362Y-109622400D01*
X119422228Y-109552252D01*
X119414246Y-109546452D01*
X119204057Y-109417648D01*
X119195263Y-109413167D01*
X118967518Y-109318832D01*
X118958133Y-109315783D01*
X118718433Y-109258236D01*
X118708686Y-109256693D01*
X118462930Y-109237351D01*
X118453070Y-109237351D01*
X118207314Y-109256693D01*
X118197567Y-109258236D01*
X117957867Y-109315783D01*
X117948482Y-109318832D01*
X117720737Y-109413167D01*
X117711943Y-109417648D01*
X117501754Y-109546452D01*
X117493772Y-109552252D01*
X117413208Y-109621059D01*
X117404778Y-109633973D01*
X115661096Y-109633973D01*
X115566147Y-109432198D01*
X115556914Y-109417648D01*
X115454453Y-109256197D01*
X115400658Y-109171429D01*
X115203791Y-108933457D01*
X114978651Y-108722036D01*
X114975447Y-108719708D01*
X114731996Y-108542831D01*
X114731991Y-108542828D01*
X114728787Y-108540500D01*
X114458142Y-108391711D01*
X114170982Y-108278016D01*
X113871837Y-108201209D01*
X113565424Y-108162500D01*
X113256576Y-108162500D01*
X112950163Y-108201209D01*
X112651018Y-108278016D01*
X112363858Y-108391711D01*
X112093213Y-108540500D01*
X112090009Y-108542828D01*
X112090004Y-108542831D01*
X111846553Y-108719708D01*
X111843349Y-108722036D01*
X111618209Y-108933457D01*
X111421342Y-109171429D01*
X111367547Y-109256197D01*
X111265087Y-109417648D01*
X111255853Y-109432198D01*
X111124351Y-109711652D01*
X111028912Y-110005384D01*
X111004471Y-110133509D01*
X110993768Y-110189616D01*
X110961356Y-110252782D01*
X110899939Y-110288397D01*
X110829016Y-110285154D01*
X110771106Y-110244083D01*
X110744594Y-110178222D01*
X110744000Y-110166006D01*
X110744000Y-80714994D01*
X110764002Y-80646873D01*
X110817658Y-80600380D01*
X110887932Y-80590276D01*
X110952512Y-80619770D01*
X110990896Y-80679496D01*
X110993768Y-80691384D01*
X111028912Y-80875616D01*
X111124351Y-81169348D01*
X111255853Y-81448802D01*
X111421342Y-81709571D01*
X111618209Y-81947543D01*
X111843349Y-82158964D01*
X111846551Y-82161291D01*
X111846553Y-82161292D01*
X112090004Y-82338169D01*
X112090009Y-82338172D01*
X112093213Y-82340500D01*
X112363858Y-82489289D01*
X112651018Y-82602984D01*
X112950163Y-82679791D01*
X113256576Y-82718500D01*
X113565424Y-82718500D01*
X113871837Y-82679791D01*
X114170982Y-82602984D01*
X114458142Y-82489289D01*
X114728787Y-82340500D01*
X114731991Y-82338172D01*
X114731996Y-82338169D01*
X114975447Y-82161292D01*
X114975449Y-82161291D01*
X114978651Y-82158964D01*
X115203791Y-81947543D01*
X115400658Y-81709571D01*
X115566147Y-81448802D01*
X115697649Y-81169348D01*
X115793088Y-80875616D01*
X115850960Y-80572239D01*
X115870353Y-80264000D01*
X115850960Y-79955761D01*
X115811537Y-79749096D01*
X117958729Y-79749096D01*
X117976113Y-79906553D01*
X117978723Y-79913684D01*
X117978723Y-79913686D01*
X118024396Y-80038493D01*
X118030553Y-80055319D01*
X118034789Y-80061622D01*
X118034789Y-80061623D01*
X118093106Y-80148407D01*
X118118908Y-80186805D01*
X118124527Y-80191918D01*
X118124528Y-80191919D01*
X118212294Y-80271779D01*
X118236076Y-80293419D01*
X118375293Y-80369008D01*
X118528522Y-80409207D01*
X118612477Y-80410526D01*
X118679319Y-80411576D01*
X118679322Y-80411576D01*
X118686916Y-80411695D01*
X118841332Y-80376329D01*
X118911742Y-80340917D01*
X118976072Y-80308563D01*
X118976075Y-80308561D01*
X118982855Y-80305151D01*
X118988626Y-80300222D01*
X118988629Y-80300220D01*
X119097536Y-80207204D01*
X119097536Y-80207203D01*
X119103314Y-80202269D01*
X119195755Y-80073624D01*
X119241230Y-79960503D01*
X119285197Y-79904759D01*
X119358137Y-79881500D01*
X128822616Y-79881500D01*
X128890737Y-79901502D01*
X128911711Y-79918405D01*
X129377595Y-80384289D01*
X129411621Y-80446601D01*
X129414500Y-80473384D01*
X129414500Y-82750080D01*
X129411951Y-82774028D01*
X129411872Y-82775693D01*
X129409680Y-82785876D01*
X129410904Y-82796217D01*
X129413627Y-82819223D01*
X129413977Y-82825154D01*
X129414072Y-82825146D01*
X129414500Y-82830324D01*
X129414500Y-82835524D01*
X129415354Y-82840653D01*
X129415354Y-82840656D01*
X129417669Y-82854565D01*
X129418506Y-82860443D01*
X129424530Y-82911341D01*
X129428493Y-82919593D01*
X129429996Y-82928626D01*
X129434943Y-82937795D01*
X129434944Y-82937797D01*
X129454334Y-82973732D01*
X129457031Y-82979025D01*
X129475785Y-83018082D01*
X129475788Y-83018086D01*
X129479219Y-83025232D01*
X129482814Y-83029508D01*
X129484737Y-83031431D01*
X129486509Y-83033363D01*
X129486552Y-83033442D01*
X129486428Y-83033555D01*
X129486904Y-83034095D01*
X129489990Y-83039814D01*
X129497635Y-83046881D01*
X129529586Y-83076416D01*
X129533152Y-83079846D01*
X129866249Y-83412943D01*
X129900275Y-83475255D01*
X129902076Y-83518482D01*
X129896729Y-83559096D01*
X129914113Y-83716553D01*
X129968553Y-83865319D01*
X130056908Y-83996805D01*
X130062527Y-84001918D01*
X130062528Y-84001919D01*
X130073903Y-84012269D01*
X130174076Y-84103419D01*
X130313293Y-84179008D01*
X130466522Y-84219207D01*
X130550477Y-84220526D01*
X130617319Y-84221576D01*
X130617322Y-84221576D01*
X130624916Y-84221695D01*
X130779332Y-84186329D01*
X130849742Y-84150917D01*
X130914072Y-84118563D01*
X130914075Y-84118561D01*
X130920855Y-84115151D01*
X130926626Y-84110222D01*
X130926629Y-84110220D01*
X131035536Y-84017204D01*
X131035536Y-84017203D01*
X131041314Y-84012269D01*
X131133755Y-83883624D01*
X131192842Y-83736641D01*
X131215162Y-83579807D01*
X131215307Y-83566000D01*
X131213561Y-83551567D01*
X131197188Y-83416273D01*
X131196276Y-83408733D01*
X131140280Y-83260546D01*
X131050553Y-83129992D01*
X130932275Y-83024611D01*
X130792274Y-82950484D01*
X130638633Y-82911892D01*
X130631034Y-82911852D01*
X130631033Y-82911852D01*
X130570626Y-82911536D01*
X130489335Y-82911110D01*
X130421321Y-82890752D01*
X130400901Y-82874207D01*
X130210405Y-82683711D01*
X130176379Y-82621399D01*
X130173500Y-82594616D01*
X130173500Y-80317925D01*
X130176050Y-80293967D01*
X130176128Y-80292308D01*
X130178321Y-80282124D01*
X130177097Y-80271782D01*
X130177097Y-80271779D01*
X130174374Y-80248779D01*
X130174024Y-80242848D01*
X130173928Y-80242856D01*
X130173500Y-80237680D01*
X130173500Y-80232476D01*
X130170327Y-80213412D01*
X130169496Y-80207566D01*
X130164694Y-80167001D01*
X130163470Y-80156659D01*
X130159507Y-80148407D01*
X130158004Y-80139374D01*
X130133665Y-80094266D01*
X130130969Y-80088975D01*
X130112215Y-80049919D01*
X130112214Y-80049918D01*
X130108781Y-80042768D01*
X130105187Y-80038493D01*
X130103262Y-80036568D01*
X130101491Y-80034638D01*
X130101445Y-80034553D01*
X130101568Y-80034441D01*
X130101096Y-80033906D01*
X130098010Y-80028186D01*
X130058413Y-79991583D01*
X130054848Y-79988154D01*
X129338478Y-79271784D01*
X129323336Y-79253036D01*
X129322221Y-79251811D01*
X129316571Y-79243060D01*
X129308393Y-79236613D01*
X129308391Y-79236611D01*
X129290200Y-79222271D01*
X129285759Y-79218325D01*
X129285697Y-79218398D01*
X129281733Y-79215039D01*
X129278056Y-79211362D01*
X129262308Y-79200108D01*
X129257638Y-79196602D01*
X129217353Y-79164844D01*
X129208719Y-79161812D01*
X129201266Y-79156486D01*
X129152150Y-79141797D01*
X129146508Y-79139964D01*
X129105633Y-79125610D01*
X129105632Y-79125610D01*
X129098149Y-79122982D01*
X129092584Y-79122500D01*
X129089876Y-79122500D01*
X129087242Y-79122386D01*
X129087144Y-79122357D01*
X129087151Y-79122193D01*
X129086447Y-79122149D01*
X129080222Y-79120287D01*
X129026365Y-79122403D01*
X129021418Y-79122500D01*
X126468127Y-79122500D01*
X126400006Y-79102498D01*
X126353513Y-79048842D01*
X126343409Y-78978568D01*
X126351220Y-78949503D01*
X126353230Y-78944503D01*
X126397197Y-78888759D01*
X126470137Y-78865500D01*
X141014615Y-78865500D01*
X141082736Y-78885502D01*
X141103711Y-78902405D01*
X141302367Y-79101062D01*
X141485942Y-79284637D01*
X141485957Y-79284651D01*
X146903595Y-84702289D01*
X146937621Y-84764601D01*
X146940500Y-84791384D01*
X146940500Y-90591187D01*
X146920498Y-90659308D01*
X146897330Y-90686135D01*
X146830039Y-90744838D01*
X146738950Y-90874444D01*
X146681406Y-91022037D01*
X146660729Y-91179096D01*
X146678113Y-91336553D01*
X146732553Y-91485319D01*
X146820908Y-91616805D01*
X146826527Y-91621918D01*
X146826528Y-91621919D01*
X146837903Y-91632269D01*
X146938076Y-91723419D01*
X147077293Y-91799008D01*
X147230522Y-91839207D01*
X147314477Y-91840526D01*
X147381319Y-91841576D01*
X147381322Y-91841576D01*
X147388916Y-91841695D01*
X147543332Y-91806329D01*
X147613742Y-91770917D01*
X147678072Y-91738563D01*
X147678075Y-91738561D01*
X147684855Y-91735151D01*
X147690626Y-91730222D01*
X147690629Y-91730220D01*
X147799536Y-91637204D01*
X147799536Y-91637203D01*
X147805314Y-91632269D01*
X147897755Y-91503624D01*
X147956842Y-91356641D01*
X147979162Y-91199807D01*
X147979307Y-91186000D01*
X147960276Y-91028733D01*
X147904280Y-90880546D01*
X147814553Y-90749992D01*
X147741681Y-90685065D01*
X147704126Y-90624816D01*
X147699500Y-90590989D01*
X147699500Y-84635920D01*
X147702049Y-84611973D01*
X147702128Y-84610307D01*
X147704320Y-84600124D01*
X147703096Y-84589782D01*
X147703096Y-84589779D01*
X147700374Y-84566787D01*
X147700023Y-84560846D01*
X147699928Y-84560854D01*
X147699500Y-84555674D01*
X147699500Y-84550476D01*
X147696329Y-84531424D01*
X147695492Y-84525547D01*
X147690693Y-84484997D01*
X147690692Y-84484995D01*
X147689469Y-84474659D01*
X147685508Y-84466410D01*
X147684004Y-84457374D01*
X147679056Y-84448203D01*
X147659652Y-84412240D01*
X147656957Y-84406951D01*
X147638212Y-84367915D01*
X147634780Y-84360768D01*
X147631186Y-84356492D01*
X147629246Y-84354552D01*
X147627493Y-84352641D01*
X147627444Y-84352551D01*
X147627567Y-84352439D01*
X147627095Y-84351904D01*
X147624010Y-84346186D01*
X147584413Y-84309583D01*
X147580848Y-84306154D01*
X141530478Y-78255784D01*
X141515336Y-78237036D01*
X141514221Y-78235811D01*
X141508571Y-78227060D01*
X141500393Y-78220613D01*
X141500391Y-78220611D01*
X141482200Y-78206271D01*
X141477759Y-78202325D01*
X141477697Y-78202398D01*
X141473733Y-78199039D01*
X141470056Y-78195362D01*
X141454308Y-78184108D01*
X141449638Y-78180602D01*
X141409353Y-78148844D01*
X141400719Y-78145812D01*
X141393266Y-78140486D01*
X141344150Y-78125797D01*
X141338508Y-78123964D01*
X141297633Y-78109610D01*
X141297632Y-78109610D01*
X141290149Y-78106982D01*
X141284584Y-78106500D01*
X141281876Y-78106500D01*
X141279242Y-78106386D01*
X141279144Y-78106357D01*
X141279151Y-78106193D01*
X141278447Y-78106149D01*
X141272222Y-78104287D01*
X141218365Y-78106403D01*
X141213418Y-78106500D01*
X126037920Y-78106500D01*
X126013973Y-78103951D01*
X126012307Y-78103872D01*
X126002124Y-78101680D01*
X125991782Y-78102904D01*
X125991779Y-78102904D01*
X125968787Y-78105626D01*
X125962846Y-78105977D01*
X125962854Y-78106072D01*
X125957675Y-78106500D01*
X125952476Y-78106500D01*
X125947350Y-78107353D01*
X125947341Y-78107354D01*
X125943616Y-78107974D01*
X125892239Y-78105887D01*
X125820004Y-78087743D01*
X125820000Y-78087743D01*
X125812633Y-78085892D01*
X125805033Y-78085852D01*
X125805032Y-78085852D01*
X125740232Y-78085513D01*
X125654221Y-78085062D01*
X125646841Y-78086834D01*
X125646839Y-78086834D01*
X125507563Y-78120271D01*
X125507560Y-78120272D01*
X125500184Y-78122043D01*
X125359414Y-78194700D01*
X125240039Y-78298838D01*
X125148950Y-78428444D01*
X125091406Y-78576037D01*
X125070729Y-78733096D01*
X125088113Y-78890553D01*
X125090723Y-78897684D01*
X125090723Y-78897686D01*
X125111038Y-78953199D01*
X125115664Y-79024045D01*
X125081254Y-79086145D01*
X125018733Y-79119784D01*
X124992712Y-79122500D01*
X118925920Y-79122500D01*
X118901973Y-79119951D01*
X118900307Y-79119872D01*
X118890124Y-79117680D01*
X118879782Y-79118904D01*
X118879779Y-79118904D01*
X118856787Y-79121626D01*
X118850846Y-79121977D01*
X118850854Y-79122072D01*
X118845675Y-79122500D01*
X118840476Y-79122500D01*
X118835350Y-79123353D01*
X118835341Y-79123354D01*
X118831616Y-79123974D01*
X118780239Y-79121887D01*
X118708004Y-79103743D01*
X118708000Y-79103743D01*
X118700633Y-79101892D01*
X118693033Y-79101852D01*
X118693032Y-79101852D01*
X118628232Y-79101513D01*
X118542221Y-79101062D01*
X118534841Y-79102834D01*
X118534839Y-79102834D01*
X118395563Y-79136271D01*
X118395560Y-79136272D01*
X118388184Y-79138043D01*
X118247414Y-79210700D01*
X118128039Y-79314838D01*
X118036950Y-79444444D01*
X117979406Y-79592037D01*
X117978414Y-79599570D01*
X117978414Y-79599571D01*
X117970948Y-79656285D01*
X117958729Y-79749096D01*
X115811537Y-79749096D01*
X115793088Y-79652384D01*
X115697649Y-79358652D01*
X115566147Y-79079198D01*
X115400658Y-78818429D01*
X115203791Y-78580457D01*
X114978651Y-78369036D01*
X114975447Y-78366708D01*
X114731996Y-78189831D01*
X114731991Y-78189828D01*
X114728787Y-78187500D01*
X114572682Y-78101680D01*
X114461604Y-78040614D01*
X114461601Y-78040612D01*
X114458142Y-78038711D01*
X114170982Y-77925016D01*
X113871837Y-77848209D01*
X113867899Y-77847712D01*
X113864027Y-77846973D01*
X113864321Y-77845430D01*
X113805154Y-77819625D01*
X113765752Y-77760565D01*
X113764535Y-77689579D01*
X113801889Y-77629204D01*
X113865955Y-77598608D01*
X113886022Y-77597000D01*
X153702978Y-77597000D01*
X153771099Y-77617002D01*
G37*
%TD.AperFunction*%
%TD*%
M02*
