%TF.GenerationSoftware,KiCad,Pcbnew,6.0.2-378541a8eb~116~ubuntu20.04.1*%
%TF.CreationDate,2022-03-03T17:18:27-05:00*%
%TF.ProjectId,cold-start-power-supply,636f6c64-2d73-4746-9172-742d706f7765,rev?*%
%TF.SameCoordinates,Original*%
%TF.FileFunction,Paste,Top*%
%TF.FilePolarity,Positive*%
%FSLAX46Y46*%
G04 Gerber Fmt 4.6, Leading zero omitted, Abs format (unit mm)*
G04 Created by KiCad (PCBNEW 6.0.2-378541a8eb~116~ubuntu20.04.1) date 2022-03-03 17:18:27*
%MOMM*%
%LPD*%
G01*
G04 APERTURE LIST*
G04 Aperture macros list*
%AMRoundRect*
0 Rectangle with rounded corners*
0 $1 Rounding radius*
0 $2 $3 $4 $5 $6 $7 $8 $9 X,Y pos of 4 corners*
0 Add a 4 corners polygon primitive as box body*
4,1,4,$2,$3,$4,$5,$6,$7,$8,$9,$2,$3,0*
0 Add four circle primitives for the rounded corners*
1,1,$1+$1,$2,$3*
1,1,$1+$1,$4,$5*
1,1,$1+$1,$6,$7*
1,1,$1+$1,$8,$9*
0 Add four rect primitives between the rounded corners*
20,1,$1+$1,$2,$3,$4,$5,0*
20,1,$1+$1,$4,$5,$6,$7,0*
20,1,$1+$1,$6,$7,$8,$9,0*
20,1,$1+$1,$8,$9,$2,$3,0*%
G04 Aperture macros list end*
%ADD10R,4.600000X1.100000*%
%ADD11R,4.550000X5.250000*%
%ADD12RoundRect,0.250000X-0.250000X-1.750000X0.250000X-1.750000X0.250000X1.750000X-0.250000X1.750000X0*%
%ADD13RoundRect,0.625000X1.625000X0.625000X-1.625000X0.625000X-1.625000X-0.625000X1.625000X-0.625000X0*%
%ADD14RoundRect,0.225000X0.250000X-0.225000X0.250000X0.225000X-0.250000X0.225000X-0.250000X-0.225000X0*%
%ADD15RoundRect,0.200000X-0.275000X0.200000X-0.275000X-0.200000X0.275000X-0.200000X0.275000X0.200000X0*%
%ADD16RoundRect,0.250000X0.550000X-1.250000X0.550000X1.250000X-0.550000X1.250000X-0.550000X-1.250000X0*%
%ADD17RoundRect,0.225000X0.225000X0.250000X-0.225000X0.250000X-0.225000X-0.250000X0.225000X-0.250000X0*%
%ADD18R,0.500000X0.750000*%
%ADD19R,1.500000X1.500000*%
%ADD20R,0.400000X0.750000*%
%ADD21RoundRect,0.100000X-0.712500X-0.100000X0.712500X-0.100000X0.712500X0.100000X-0.712500X0.100000X0*%
%ADD22RoundRect,0.250000X0.325000X1.100000X-0.325000X1.100000X-0.325000X-1.100000X0.325000X-1.100000X0*%
%ADD23RoundRect,0.250000X1.250000X0.550000X-1.250000X0.550000X-1.250000X-0.550000X1.250000X-0.550000X0*%
%ADD24RoundRect,0.250000X0.312500X0.625000X-0.312500X0.625000X-0.312500X-0.625000X0.312500X-0.625000X0*%
%ADD25RoundRect,0.200000X0.200000X0.275000X-0.200000X0.275000X-0.200000X-0.275000X0.200000X-0.275000X0*%
%ADD26RoundRect,0.200000X0.275000X-0.200000X0.275000X0.200000X-0.275000X0.200000X-0.275000X-0.200000X0*%
G04 APERTURE END LIST*
D10*
%TO.C,D1*%
X136077000Y-95758000D03*
X136077000Y-100838000D03*
D11*
X124502000Y-95523000D03*
X129352000Y-101073000D03*
X124502000Y-101073000D03*
X129352000Y-95523000D03*
%TD*%
D12*
%TO.C,R6*%
X135852000Y-82296000D03*
X137452000Y-82296000D03*
%TD*%
D13*
%TO.C,L1*%
X150792000Y-91416000D03*
X150792000Y-88416000D03*
X140292000Y-88416000D03*
X140292000Y-91416000D03*
%TD*%
D14*
%TO.C,C7*%
X120396000Y-82830000D03*
X120396000Y-81280000D03*
%TD*%
D15*
%TO.C,R5*%
X118618000Y-81217000D03*
X118618000Y-82867000D03*
%TD*%
D16*
%TO.C,C3*%
X130175000Y-111420000D03*
X130175000Y-107020000D03*
%TD*%
D17*
%TO.C,C5*%
X117678000Y-84836000D03*
X116128000Y-84836000D03*
%TD*%
D18*
%TO.C,Q1*%
X131699000Y-90647000D03*
X132969000Y-90647000D03*
D19*
X131484000Y-89242000D03*
X131484000Y-87542000D03*
X133184000Y-89242000D03*
X133184000Y-87542000D03*
D18*
X130429000Y-90647000D03*
X134239000Y-90647000D03*
D20*
X134239000Y-84842000D03*
X132969000Y-84842000D03*
X131699000Y-84842000D03*
X130429000Y-84842000D03*
%TD*%
D21*
%TO.C,IC1*%
X120315500Y-84623000D03*
X120315500Y-85273000D03*
X120315500Y-85923000D03*
X120315500Y-86573000D03*
X124540500Y-86573000D03*
X124540500Y-85923000D03*
X124540500Y-85273000D03*
X124540500Y-84623000D03*
%TD*%
D22*
%TO.C,C11*%
X116078000Y-102616000D03*
X119028000Y-102616000D03*
%TD*%
D17*
%TO.C,C6*%
X117678000Y-88392000D03*
X116128000Y-88392000D03*
%TD*%
D23*
%TO.C,C2*%
X140929000Y-103251000D03*
X145329000Y-103251000D03*
%TD*%
D24*
%TO.C,R7*%
X116139500Y-92456000D03*
X119064500Y-92456000D03*
%TD*%
D25*
%TO.C,R2*%
X117728000Y-86614000D03*
X116078000Y-86614000D03*
%TD*%
%TO.C,R8*%
X116078000Y-90170000D03*
X117728000Y-90170000D03*
%TD*%
D14*
%TO.C,C4*%
X123952000Y-82830000D03*
X123952000Y-81280000D03*
%TD*%
D15*
%TO.C,R1*%
X125730000Y-81217000D03*
X125730000Y-82867000D03*
%TD*%
D16*
%TO.C,C1*%
X136906000Y-111420000D03*
X136906000Y-107020000D03*
%TD*%
D22*
%TO.C,C9*%
X116127000Y-95504000D03*
X119077000Y-95504000D03*
%TD*%
D14*
%TO.C,C8*%
X136398000Y-92088000D03*
X136398000Y-90538000D03*
%TD*%
D15*
%TO.C,R3*%
X127508000Y-81217000D03*
X127508000Y-82867000D03*
%TD*%
D26*
%TO.C,R4*%
X127508000Y-86423000D03*
X127508000Y-84773000D03*
%TD*%
D22*
%TO.C,C10*%
X116127000Y-99060000D03*
X119077000Y-99060000D03*
%TD*%
M02*
