M48
; DRILL file {KiCad 6.0.10-86aedd382b~118~ubuntu20.04.1} date Thu 07 Mar 2024 10:41:10 AM EST
; FORMAT={-:-/ absolute / metric / decimal}
; #@! TF.CreationDate,2024-03-07T10:41:10-05:00
; #@! TF.GenerationSoftware,Kicad,Pcbnew,6.0.10-86aedd382b~118~ubuntu20.04.1
; #@! TF.FileFunction,MixedPlating,1,2
FMAT,2
METRIC
; #@! TA.AperFunction,Plated,PTH,ViaDrill
T1C0.400
; #@! TA.AperFunction,Plated,PTH,ComponentDrill
T2C2.134
; #@! TA.AperFunction,NonPlated,NPTH,ComponentDrill
T3C3.200
; #@! TA.AperFunction,NonPlated,NPTH,ComponentDrill
T4C4.200
%
G90
G05
T1
X122.047Y-70.993
X126.111Y-76.708
X129.643Y-67.842
X136.398Y-66.167
X137.541Y-50.673
X139.7Y-74.041
T2
X108.792Y-59.182
X110.132Y-54.182
X110.132Y-64.182
X111.412Y-90.772
X112.752Y-85.772
X113.792Y-50.522
X113.792Y-67.842
X116.412Y-82.112
X118.792Y-49.182
X118.792Y-69.182
X123.792Y-50.522
X123.792Y-67.842
X126.412Y-82.112
X127.452Y-54.182
X127.452Y-64.182
X128.792Y-59.182
X130.072Y-85.772
X138.66Y-86.026
X139.78Y-59.206
X141.12Y-54.206
X141.12Y-64.206
X142.32Y-82.366
X144.78Y-50.546
X144.78Y-67.866
X149.78Y-49.206
X149.78Y-69.206
X152.32Y-82.366
X154.78Y-50.546
X154.78Y-67.866
X155.98Y-86.026
X157.32Y-91.026
X158.44Y-54.206
X158.44Y-64.206
X159.78Y-59.206
T3
X105.029Y-44.069
X105.029Y-93.218
X164.211Y-44.069
X164.211Y-93.091
T4
X121.412Y-80.772
X147.32Y-81.026
T0
M30
