%TF.GenerationSoftware,KiCad,Pcbnew,6.0.10-86aedd382b~118~ubuntu20.04.1*%
%TF.CreationDate,2024-03-07T10:40:57-05:00*%
%TF.ProjectId,dash_connector_adapter,64617368-5f63-46f6-9e6e-6563746f725f,rev?*%
%TF.SameCoordinates,Original*%
%TF.FileFunction,Legend,Bot*%
%TF.FilePolarity,Positive*%
%FSLAX46Y46*%
G04 Gerber Fmt 4.6, Leading zero omitted, Abs format (unit mm)*
G04 Created by KiCad (PCBNEW 6.0.10-86aedd382b~118~ubuntu20.04.1) date 2024-03-07 10:40:57*
%MOMM*%
%LPD*%
G01*
G04 APERTURE LIST*
%ADD10C,0.150000*%
G04 APERTURE END LIST*
D10*
X148478809Y-87066380D02*
X148478809Y-86066380D01*
X148002619Y-87066380D02*
X148002619Y-86066380D01*
X147431190Y-87066380D01*
X147431190Y-86066380D01*
X149367809Y-58364380D02*
X149367809Y-57364380D01*
X148891619Y-58364380D02*
X148891619Y-57364380D01*
X148320190Y-58364380D01*
X148320190Y-57364380D01*
%TO.C,J3*%
X147653333Y-89978380D02*
X147653333Y-90692666D01*
X147700952Y-90835523D01*
X147796190Y-90930761D01*
X147939047Y-90978380D01*
X148034285Y-90978380D01*
X147272380Y-89978380D02*
X146653333Y-89978380D01*
X146986666Y-90359333D01*
X146843809Y-90359333D01*
X146748571Y-90406952D01*
X146700952Y-90454571D01*
X146653333Y-90549809D01*
X146653333Y-90787904D01*
X146700952Y-90883142D01*
X146748571Y-90930761D01*
X146843809Y-90978380D01*
X147129523Y-90978380D01*
X147224761Y-90930761D01*
X147272380Y-90883142D01*
X154003333Y-87303380D02*
X153384285Y-87303380D01*
X153717619Y-87684333D01*
X153574761Y-87684333D01*
X153479523Y-87731952D01*
X153431904Y-87779571D01*
X153384285Y-87874809D01*
X153384285Y-88112904D01*
X153431904Y-88208142D01*
X153479523Y-88255761D01*
X153574761Y-88303380D01*
X153860476Y-88303380D01*
X153955714Y-88255761D01*
X154003333Y-88208142D01*
X154241523Y-90811714D02*
X154241523Y-91478380D01*
X154479619Y-90430761D02*
X154717714Y-91145047D01*
X154098666Y-91145047D01*
X144049714Y-84223619D02*
X144002095Y-84176000D01*
X143906857Y-84128380D01*
X143668761Y-84128380D01*
X143573523Y-84176000D01*
X143525904Y-84223619D01*
X143478285Y-84318857D01*
X143478285Y-84414095D01*
X143525904Y-84556952D01*
X144097333Y-85128380D01*
X143478285Y-85128380D01*
X139795285Y-88811380D02*
X140366714Y-88811380D01*
X140081000Y-88811380D02*
X140081000Y-87811380D01*
X140176238Y-87954238D01*
X140271476Y-88049476D01*
X140366714Y-88097095D01*
X151114095Y-84969666D02*
X150637904Y-84969666D01*
X151209333Y-85255380D02*
X150876000Y-84255380D01*
X150542666Y-85255380D01*
%TO.C,J2*%
X149986333Y-52054380D02*
X149986333Y-52768666D01*
X150033952Y-52911523D01*
X150129190Y-53006761D01*
X150272047Y-53054380D01*
X150367285Y-53054380D01*
X149557761Y-52149619D02*
X149510142Y-52102000D01*
X149414904Y-52054380D01*
X149176809Y-52054380D01*
X149081571Y-52102000D01*
X149033952Y-52149619D01*
X148986333Y-52244857D01*
X148986333Y-52340095D01*
X149033952Y-52482952D01*
X149605380Y-53054380D01*
X148986333Y-53054380D01*
X153796333Y-64881380D02*
X153177285Y-64881380D01*
X153510619Y-65262333D01*
X153367761Y-65262333D01*
X153272523Y-65309952D01*
X153224904Y-65357571D01*
X153177285Y-65452809D01*
X153177285Y-65690904D01*
X153224904Y-65786142D01*
X153272523Y-65833761D01*
X153367761Y-65881380D01*
X153653476Y-65881380D01*
X153748714Y-65833761D01*
X153796333Y-65786142D01*
X146541476Y-53308380D02*
X146351000Y-53308380D01*
X146255761Y-53260761D01*
X146208142Y-53213142D01*
X146112904Y-53070285D01*
X146065285Y-52879809D01*
X146065285Y-52498857D01*
X146112904Y-52403619D01*
X146160523Y-52356000D01*
X146255761Y-52308380D01*
X146446238Y-52308380D01*
X146541476Y-52356000D01*
X146589095Y-52403619D01*
X146636714Y-52498857D01*
X146636714Y-52736952D01*
X146589095Y-52832190D01*
X146541476Y-52879809D01*
X146446238Y-52927428D01*
X146255761Y-52927428D01*
X146160523Y-52879809D01*
X146112904Y-52832190D01*
X146065285Y-52736952D01*
X145858904Y-64881380D02*
X146335095Y-64881380D01*
X146382714Y-65357571D01*
X146335095Y-65309952D01*
X146239857Y-65262333D01*
X146001761Y-65262333D01*
X145906523Y-65309952D01*
X145858904Y-65357571D01*
X145811285Y-65452809D01*
X145811285Y-65690904D01*
X145858904Y-65786142D01*
X145906523Y-65833761D01*
X146001761Y-65881380D01*
X146239857Y-65881380D01*
X146335095Y-65833761D01*
X146382714Y-65786142D01*
X156542714Y-62055619D02*
X156495095Y-62008000D01*
X156399857Y-61960380D01*
X156161761Y-61960380D01*
X156066523Y-62008000D01*
X156018904Y-62055619D01*
X155971285Y-62150857D01*
X155971285Y-62246095D01*
X156018904Y-62388952D01*
X156590333Y-62960380D01*
X155971285Y-62960380D01*
X153272476Y-53435380D02*
X153843904Y-53435380D01*
X153558190Y-53435380D02*
X153558190Y-52435380D01*
X153653428Y-52578238D01*
X153748666Y-52673476D01*
X153843904Y-52721095D01*
X152320095Y-53435380D02*
X152891523Y-53435380D01*
X152605809Y-53435380D02*
X152605809Y-52435380D01*
X152701047Y-52578238D01*
X152796285Y-52673476D01*
X152891523Y-52721095D01*
X156860285Y-59658380D02*
X157431714Y-59658380D01*
X157146000Y-59658380D02*
X157146000Y-58658380D01*
X157241238Y-58801238D01*
X157336476Y-58896476D01*
X157431714Y-58944095D01*
X143366523Y-62214380D02*
X143557000Y-62214380D01*
X143652238Y-62262000D01*
X143699857Y-62309619D01*
X143795095Y-62452476D01*
X143842714Y-62642952D01*
X143842714Y-63023904D01*
X143795095Y-63119142D01*
X143747476Y-63166761D01*
X143652238Y-63214380D01*
X143461761Y-63214380D01*
X143366523Y-63166761D01*
X143318904Y-63119142D01*
X143271285Y-63023904D01*
X143271285Y-62785809D01*
X143318904Y-62690571D01*
X143366523Y-62642952D01*
X143461761Y-62595333D01*
X143652238Y-62595333D01*
X143747476Y-62642952D01*
X143795095Y-62690571D01*
X143842714Y-62785809D01*
X156320476Y-56483380D02*
X156891904Y-56483380D01*
X156606190Y-56483380D02*
X156606190Y-55483380D01*
X156701428Y-55626238D01*
X156796666Y-55721476D01*
X156891904Y-55769095D01*
X155939523Y-55578619D02*
X155891904Y-55531000D01*
X155796666Y-55483380D01*
X155558571Y-55483380D01*
X155463333Y-55531000D01*
X155415714Y-55578619D01*
X155368095Y-55673857D01*
X155368095Y-55769095D01*
X155415714Y-55911952D01*
X155987142Y-56483380D01*
X155368095Y-56483380D01*
X149589523Y-66230714D02*
X149589523Y-66897380D01*
X149827619Y-65849761D02*
X150065714Y-66564047D01*
X149446666Y-66564047D01*
X143652238Y-55276952D02*
X143747476Y-55229333D01*
X143795095Y-55181714D01*
X143842714Y-55086476D01*
X143842714Y-55038857D01*
X143795095Y-54943619D01*
X143747476Y-54896000D01*
X143652238Y-54848380D01*
X143461761Y-54848380D01*
X143366523Y-54896000D01*
X143318904Y-54943619D01*
X143271285Y-55038857D01*
X143271285Y-55086476D01*
X143318904Y-55181714D01*
X143366523Y-55229333D01*
X143461761Y-55276952D01*
X143652238Y-55276952D01*
X143747476Y-55324571D01*
X143795095Y-55372190D01*
X143842714Y-55467428D01*
X143842714Y-55657904D01*
X143795095Y-55753142D01*
X143747476Y-55800761D01*
X143652238Y-55848380D01*
X143461761Y-55848380D01*
X143366523Y-55800761D01*
X143318904Y-55753142D01*
X143271285Y-55657904D01*
X143271285Y-55467428D01*
X143318904Y-55372190D01*
X143366523Y-55324571D01*
X143461761Y-55276952D01*
X142874333Y-58658380D02*
X142207666Y-58658380D01*
X142636238Y-59658380D01*
X149970476Y-52419380D02*
X150541904Y-52419380D01*
X150256190Y-52419380D02*
X150256190Y-51419380D01*
X150351428Y-51562238D01*
X150446666Y-51657476D01*
X150541904Y-51705095D01*
X149351428Y-51419380D02*
X149256190Y-51419380D01*
X149160952Y-51467000D01*
X149113333Y-51514619D01*
X149065714Y-51609857D01*
X149018095Y-51800333D01*
X149018095Y-52038428D01*
X149065714Y-52228904D01*
X149113333Y-52324142D01*
X149160952Y-52371761D01*
X149256190Y-52419380D01*
X149351428Y-52419380D01*
X149446666Y-52371761D01*
X149494285Y-52324142D01*
X149541904Y-52228904D01*
X149589523Y-52038428D01*
X149589523Y-51800333D01*
X149541904Y-51609857D01*
X149494285Y-51514619D01*
X149446666Y-51467000D01*
X149351428Y-51419380D01*
%TD*%
M02*
