%TF.GenerationSoftware,KiCad,Pcbnew,6.0.10-86aedd382b~118~ubuntu20.04.1*%
%TF.CreationDate,2024-03-07T10:40:57-05:00*%
%TF.ProjectId,dash_connector_adapter,64617368-5f63-46f6-9e6e-6563746f725f,rev?*%
%TF.SameCoordinates,Original*%
%TF.FileFunction,Copper,L2,Bot*%
%TF.FilePolarity,Positive*%
%FSLAX46Y46*%
G04 Gerber Fmt 4.6, Leading zero omitted, Abs format (unit mm)*
G04 Created by KiCad (PCBNEW 6.0.10-86aedd382b~118~ubuntu20.04.1) date 2024-03-07 10:40:57*
%MOMM*%
%LPD*%
G01*
G04 APERTURE LIST*
%TA.AperFunction,ComponentPad*%
%ADD10C,4.000000*%
%TD*%
%TA.AperFunction,ViaPad*%
%ADD11C,0.800000*%
%TD*%
%TA.AperFunction,Conductor*%
%ADD12C,0.762000*%
%TD*%
%TA.AperFunction,Conductor*%
%ADD13C,1.270000*%
%TD*%
G04 APERTURE END LIST*
D10*
%TO.P,J4,1,1*%
%TO.N,/FUEL_LEVEL_SENDER*%
X130072000Y-85772000D03*
%TO.P,J4,2,2*%
%TO.N,/PARKING_BRAKE*%
X126412000Y-82112000D03*
%TO.P,J4,3*%
%TO.N,N/C*%
X112752000Y-85772000D03*
%TO.P,J4,4,4*%
%TO.N,/GND*%
X111412000Y-90772000D03*
%TO.P,J4,A,A*%
%TO.N,/12V_FUSE_16*%
X116412000Y-82112000D03*
%TD*%
%TO.P,J3,1,1*%
%TO.N,/PARKING_BRAKE*%
X138660000Y-86026000D03*
%TO.P,J3,2,2*%
%TO.N,/12V_FUSE_8*%
X142320000Y-82366000D03*
%TO.P,J3,3*%
%TO.N,N/C*%
X155980000Y-86026000D03*
%TO.P,J3,4,4*%
%TO.N,/FUEL_LEVEL_SENDER*%
X157320000Y-91026000D03*
%TO.P,J3,A,A*%
%TO.N,/GND*%
X152320000Y-82366000D03*
%TD*%
%TO.P,J2,1,1*%
%TO.N,unconnected-(J2-Pad1)*%
X159780000Y-59206000D03*
%TO.P,J2,2,2*%
%TO.N,/BULB_FAILURE*%
X158440000Y-64206000D03*
%TO.P,J2,3,3*%
%TO.N,/HIGH_BEAM*%
X154780000Y-67866000D03*
%TO.P,J2,4,4*%
%TO.N,/CHARGING_D+*%
X149780000Y-69206000D03*
%TO.P,J2,5,5*%
%TO.N,/BRAKE_FAILURE*%
X144780000Y-67866000D03*
%TO.P,J2,6,6*%
%TO.N,/BLINKER_RIGHT*%
X141120000Y-64206000D03*
%TO.P,J2,7,7*%
%TO.N,unconnected-(J2-Pad7)*%
X139780000Y-59206000D03*
%TO.P,J2,8,8*%
%TO.N,/BLINKER_LEFT*%
X141120000Y-54206000D03*
%TO.P,J2,9,9*%
%TO.N,/CHARGING_D+*%
X144780000Y-50546000D03*
%TO.P,J2,10,10*%
%TO.N,/COOLANT_TEMP*%
X149780000Y-49206000D03*
%TO.P,J2,11,11*%
%TO.N,/OIL_LAMP*%
X154780000Y-50546000D03*
%TO.P,J2,12,12*%
%TO.N,/OD_LAMP*%
X158440000Y-54206000D03*
%TD*%
%TO.P,J1,12,12*%
%TO.N,/BULB_FAILURE*%
X110132000Y-54182000D03*
%TO.P,J1,11,11*%
%TO.N,/CHARGING_D+*%
X113792000Y-50522000D03*
%TO.P,J1,10,10*%
%TO.N,/12V_RHEOSTAT*%
X118792000Y-49182000D03*
%TO.P,J1,9,9*%
%TO.N,/12V_FUSE_8*%
X123792000Y-50522000D03*
%TO.P,J1,8,8*%
%TO.N,/BLINKER_LEFT*%
X127452000Y-54182000D03*
%TO.P,J1,7,7*%
%TO.N,/BLINKER_RIGHT*%
X128792000Y-59182000D03*
%TO.P,J1,6,6*%
%TO.N,/AC RELAY*%
X127452000Y-64182000D03*
%TO.P,J1,5,5*%
%TO.N,/OIL_LAMP*%
X123792000Y-67842000D03*
%TO.P,J1,4,4*%
%TO.N,/OD_LAMP*%
X118792000Y-69182000D03*
%TO.P,J1,3,3*%
%TO.N,/HIGH_BEAM*%
X113792000Y-67842000D03*
%TO.P,J1,2,2*%
%TO.N,/COOLANT_TEMP*%
X110132000Y-64182000D03*
%TO.P,J1,1,1*%
%TO.N,/BRAKE_FAILURE*%
X108792000Y-59182000D03*
%TD*%
D11*
%TO.N,/OIL_LAMP*%
X129643000Y-67842000D03*
X136398000Y-66167000D03*
%TO.N,/OD_LAMP*%
X122047000Y-70993000D03*
X126111000Y-76708000D03*
%TO.N,/OIL_LAMP*%
X137541000Y-50673000D03*
%TO.N,/BRAKE_FAILURE*%
X139700000Y-74041000D03*
%TD*%
D12*
%TO.N,/PARKING_BRAKE*%
X126412000Y-82112000D02*
X134746000Y-82112000D01*
X134746000Y-82112000D02*
X138660000Y-86026000D01*
%TO.N,/FUEL_LEVEL_SENDER*%
X130072000Y-85772000D02*
X132254000Y-85772000D01*
X132254000Y-85772000D02*
X135763000Y-89281000D01*
X135763000Y-89281000D02*
X151638000Y-89281000D01*
X151638000Y-89281000D02*
X154893000Y-86026000D01*
X154893000Y-86026000D02*
X155980000Y-86026000D01*
D13*
%TO.N,/12V_FUSE_8*%
X142320000Y-82366000D02*
X132588000Y-72634000D01*
X131064000Y-50419000D02*
X123895000Y-50419000D01*
X132588000Y-72634000D02*
X132588000Y-51943000D01*
X132588000Y-51943000D02*
X131064000Y-50419000D01*
X123895000Y-50419000D02*
X123792000Y-50522000D01*
D12*
%TO.N,/OIL_LAMP*%
X129643000Y-67842000D02*
X123792000Y-67842000D01*
%TO.N,/OD_LAMP*%
X122047000Y-70993000D02*
X122047000Y-72644000D01*
X122047000Y-72644000D02*
X126111000Y-76708000D01*
%TO.N,/OIL_LAMP*%
X137541000Y-50673000D02*
X136398000Y-51816000D01*
X136398000Y-51816000D02*
X136398000Y-66167000D01*
%TO.N,/COOLANT_TEMP*%
X114554000Y-43307000D02*
X104775000Y-53086000D01*
X146685000Y-43307000D02*
X114554000Y-43307000D01*
X104775000Y-53086000D02*
X104775000Y-61595000D01*
X110132000Y-64182000D02*
X107362000Y-64182000D01*
X107362000Y-64182000D02*
X104775000Y-61595000D01*
X146685000Y-43307000D02*
X149780000Y-46402000D01*
X149780000Y-46402000D02*
X149780000Y-49206000D01*
%TO.N,/BRAKE_FAILURE*%
X139700000Y-74041000D02*
X144780000Y-68961000D01*
X144780000Y-68961000D02*
X144780000Y-67866000D01*
%TO.N,/CHARGING_D+*%
X144780000Y-50546000D02*
X144780000Y-55118000D01*
X144780000Y-55118000D02*
X143891000Y-56007000D01*
X143891000Y-56007000D02*
X143891000Y-62103000D01*
X143891000Y-62103000D02*
X149780000Y-67992000D01*
X149780000Y-67992000D02*
X149780000Y-69206000D01*
%TD*%
%TA.AperFunction,Conductor*%
%TO.N,/GND*%
G36*
X164565755Y-41146262D02*
G01*
X164580579Y-41148571D01*
X164580588Y-41148571D01*
X164589456Y-41149952D01*
X164607452Y-41147599D01*
X164630848Y-41146733D01*
X164750826Y-41153472D01*
X164873009Y-41160336D01*
X164887039Y-41161917D01*
X165153871Y-41207257D01*
X165167608Y-41210393D01*
X165427671Y-41285318D01*
X165441004Y-41289983D01*
X165691043Y-41393554D01*
X165703773Y-41399685D01*
X165940627Y-41530591D01*
X165952591Y-41538108D01*
X166173319Y-41694723D01*
X166184350Y-41703521D01*
X166386149Y-41883860D01*
X166396139Y-41893850D01*
X166576479Y-42095650D01*
X166585277Y-42106681D01*
X166694950Y-42261250D01*
X166741892Y-42327409D01*
X166749409Y-42339373D01*
X166880315Y-42576227D01*
X166886446Y-42588957D01*
X166990017Y-42838996D01*
X166994682Y-42852329D01*
X167069607Y-43112392D01*
X167072743Y-43126129D01*
X167118083Y-43392961D01*
X167119664Y-43406992D01*
X167132857Y-43641861D01*
X167131555Y-43668309D01*
X167131430Y-43669115D01*
X167130048Y-43677992D01*
X167134175Y-43709549D01*
X167135239Y-43725888D01*
X167135239Y-93426367D01*
X167133738Y-93445755D01*
X167131429Y-93460579D01*
X167131429Y-93460588D01*
X167130048Y-93469456D01*
X167132401Y-93487452D01*
X167133267Y-93510848D01*
X167126528Y-93630826D01*
X167119664Y-93753009D01*
X167118083Y-93767039D01*
X167072743Y-94033871D01*
X167069607Y-94047608D01*
X166998771Y-94293479D01*
X166994683Y-94307668D01*
X166990017Y-94321004D01*
X166886446Y-94571043D01*
X166880315Y-94583773D01*
X166749409Y-94820627D01*
X166741892Y-94832591D01*
X166585277Y-95053319D01*
X166576479Y-95064350D01*
X166414114Y-95246036D01*
X166396140Y-95266149D01*
X166386150Y-95276139D01*
X166184350Y-95456479D01*
X166173319Y-95465277D01*
X165986283Y-95597986D01*
X165952591Y-95621892D01*
X165940627Y-95629409D01*
X165703773Y-95760315D01*
X165691043Y-95766446D01*
X165441004Y-95870017D01*
X165427671Y-95874682D01*
X165167608Y-95949607D01*
X165153871Y-95952743D01*
X164887039Y-95998083D01*
X164873008Y-95999664D01*
X164638139Y-96012857D01*
X164611691Y-96011555D01*
X164610885Y-96011430D01*
X164610884Y-96011430D01*
X164602008Y-96010048D01*
X164572355Y-96013926D01*
X164570451Y-96014175D01*
X164554112Y-96015239D01*
X104693633Y-96015239D01*
X104674245Y-96013738D01*
X104659421Y-96011429D01*
X104659412Y-96011429D01*
X104650544Y-96010048D01*
X104632548Y-96012401D01*
X104609152Y-96013267D01*
X104489174Y-96006528D01*
X104366991Y-95999664D01*
X104352961Y-95998083D01*
X104086129Y-95952743D01*
X104072392Y-95949607D01*
X103812329Y-95874682D01*
X103798996Y-95870017D01*
X103548957Y-95766446D01*
X103536227Y-95760315D01*
X103299373Y-95629409D01*
X103287409Y-95621892D01*
X103253717Y-95597986D01*
X103066681Y-95465277D01*
X103055650Y-95456479D01*
X102853850Y-95276139D01*
X102843860Y-95266149D01*
X102825886Y-95246036D01*
X102663521Y-95064350D01*
X102654723Y-95053319D01*
X102498108Y-94832591D01*
X102490591Y-94820627D01*
X102359685Y-94583773D01*
X102353554Y-94571043D01*
X102249983Y-94321004D01*
X102245317Y-94307668D01*
X102241229Y-94293479D01*
X102170393Y-94047608D01*
X102167257Y-94033871D01*
X102121917Y-93767039D01*
X102120336Y-93753008D01*
X102107143Y-93518139D01*
X102108445Y-93491691D01*
X102108570Y-93490885D01*
X102108570Y-93490884D01*
X102109952Y-93482008D01*
X102105825Y-93450451D01*
X102104761Y-93434112D01*
X102104761Y-93350703D01*
X102919743Y-93350703D01*
X102920302Y-93354947D01*
X102920302Y-93354951D01*
X102928398Y-93416443D01*
X102957268Y-93635734D01*
X103033129Y-93913036D01*
X103034813Y-93916984D01*
X103091753Y-94050476D01*
X103145923Y-94177476D01*
X103293561Y-94424161D01*
X103473313Y-94648528D01*
X103559717Y-94730522D01*
X103654668Y-94820627D01*
X103681851Y-94846423D01*
X103915317Y-95014186D01*
X103919112Y-95016195D01*
X103919113Y-95016196D01*
X103960346Y-95038028D01*
X104169392Y-95148712D01*
X104439373Y-95247511D01*
X104720264Y-95308755D01*
X104748841Y-95311004D01*
X104943282Y-95326307D01*
X104943291Y-95326307D01*
X104945739Y-95326500D01*
X105101271Y-95326500D01*
X105103407Y-95326354D01*
X105103418Y-95326354D01*
X105311548Y-95312165D01*
X105311554Y-95312164D01*
X105315825Y-95311873D01*
X105320020Y-95311004D01*
X105320022Y-95311004D01*
X105536619Y-95266149D01*
X105597342Y-95253574D01*
X105868343Y-95157607D01*
X106123812Y-95025750D01*
X106127313Y-95023289D01*
X106127317Y-95023287D01*
X106308019Y-94896287D01*
X106359023Y-94860441D01*
X106569622Y-94664740D01*
X106751713Y-94442268D01*
X106901927Y-94197142D01*
X106913659Y-94170417D01*
X107015757Y-93937830D01*
X107017483Y-93933898D01*
X107096244Y-93657406D01*
X107136751Y-93372784D01*
X107136845Y-93354951D01*
X107138235Y-93089583D01*
X107138235Y-93089576D01*
X107138257Y-93085297D01*
X107100732Y-92800266D01*
X107078223Y-92717987D01*
X109830721Y-92717987D01*
X109839548Y-92729605D01*
X110062281Y-92891430D01*
X110068961Y-92895670D01*
X110338572Y-93043890D01*
X110345707Y-93047247D01*
X110631770Y-93160508D01*
X110639296Y-93162953D01*
X110937279Y-93239462D01*
X110945050Y-93240945D01*
X111250278Y-93279503D01*
X111258169Y-93280000D01*
X111565831Y-93280000D01*
X111573722Y-93279503D01*
X111878950Y-93240945D01*
X111886721Y-93239462D01*
X112184704Y-93162953D01*
X112192230Y-93160508D01*
X112478293Y-93047247D01*
X112485428Y-93043890D01*
X112755039Y-92895670D01*
X112761719Y-92891430D01*
X112984823Y-92729336D01*
X112993246Y-92718413D01*
X112986342Y-92705552D01*
X111424812Y-91144022D01*
X111410868Y-91136408D01*
X111409035Y-91136539D01*
X111402420Y-91140790D01*
X109837334Y-92705876D01*
X109830721Y-92717987D01*
X107078223Y-92717987D01*
X107024871Y-92522964D01*
X106912077Y-92258524D01*
X106824299Y-92111858D01*
X106766643Y-92015521D01*
X106766640Y-92015517D01*
X106764439Y-92011839D01*
X106584687Y-91787472D01*
X106440951Y-91651072D01*
X106379258Y-91592527D01*
X106379255Y-91592525D01*
X106376149Y-91589577D01*
X106142683Y-91421814D01*
X106120843Y-91410250D01*
X106088350Y-91393046D01*
X105888608Y-91287288D01*
X105618627Y-91188489D01*
X105337736Y-91127245D01*
X105306685Y-91124801D01*
X105114718Y-91109693D01*
X105114709Y-91109693D01*
X105112261Y-91109500D01*
X104956729Y-91109500D01*
X104954593Y-91109646D01*
X104954582Y-91109646D01*
X104746452Y-91123835D01*
X104746446Y-91123836D01*
X104742175Y-91124127D01*
X104737980Y-91124996D01*
X104737978Y-91124996D01*
X104682239Y-91136539D01*
X104460658Y-91182426D01*
X104189657Y-91278393D01*
X103934188Y-91410250D01*
X103930687Y-91412711D01*
X103930683Y-91412713D01*
X103859734Y-91462577D01*
X103698977Y-91575559D01*
X103683892Y-91589577D01*
X103564340Y-91700672D01*
X103488378Y-91771260D01*
X103306287Y-91993732D01*
X103156073Y-92238858D01*
X103040517Y-92502102D01*
X102961756Y-92778594D01*
X102921249Y-93063216D01*
X102921227Y-93067505D01*
X102921226Y-93067512D01*
X102919765Y-93346417D01*
X102919743Y-93350703D01*
X102104761Y-93350703D01*
X102104761Y-90775958D01*
X108899290Y-90775958D01*
X108918607Y-91082994D01*
X108919600Y-91090855D01*
X108977246Y-91393046D01*
X108979217Y-91400723D01*
X109074284Y-91693309D01*
X109077199Y-91700672D01*
X109208189Y-91979041D01*
X109212001Y-91985974D01*
X109376851Y-92245736D01*
X109381495Y-92252129D01*
X109456497Y-92342790D01*
X109469014Y-92351245D01*
X109479752Y-92345038D01*
X111039978Y-90784812D01*
X111046356Y-90773132D01*
X111776408Y-90773132D01*
X111776539Y-90774965D01*
X111780790Y-90781580D01*
X113343145Y-92343935D01*
X113356407Y-92351177D01*
X113366512Y-92343988D01*
X113442505Y-92252129D01*
X113447149Y-92245736D01*
X113611999Y-91985974D01*
X113615811Y-91979041D01*
X113746801Y-91700672D01*
X113749716Y-91693309D01*
X113844783Y-91400723D01*
X113846754Y-91393046D01*
X113904400Y-91090855D01*
X113905393Y-91082994D01*
X113924710Y-90775958D01*
X113924710Y-90768042D01*
X113905393Y-90461006D01*
X113904400Y-90453145D01*
X113846754Y-90150954D01*
X113844783Y-90143277D01*
X113749716Y-89850691D01*
X113746801Y-89843328D01*
X113615811Y-89564959D01*
X113611999Y-89558026D01*
X113447149Y-89298264D01*
X113442505Y-89291871D01*
X113367503Y-89201210D01*
X113354986Y-89192755D01*
X113344248Y-89198962D01*
X111784022Y-90759188D01*
X111776408Y-90773132D01*
X111046356Y-90773132D01*
X111047592Y-90770868D01*
X111047461Y-90769035D01*
X111043210Y-90762420D01*
X109480855Y-89200065D01*
X109467593Y-89192823D01*
X109457488Y-89200012D01*
X109381495Y-89291871D01*
X109376851Y-89298264D01*
X109212001Y-89558026D01*
X109208189Y-89564959D01*
X109077199Y-89843328D01*
X109074284Y-89850691D01*
X108979217Y-90143277D01*
X108977246Y-90150954D01*
X108919600Y-90453145D01*
X108918607Y-90461006D01*
X108899290Y-90768042D01*
X108899290Y-90775958D01*
X102104761Y-90775958D01*
X102104761Y-61548190D01*
X103881826Y-61548190D01*
X103882171Y-61554778D01*
X103882171Y-61554782D01*
X103885327Y-61614999D01*
X103885500Y-61621593D01*
X103885500Y-61641620D01*
X103885844Y-61644891D01*
X103885844Y-61644895D01*
X103887593Y-61661539D01*
X103888110Y-61668113D01*
X103891112Y-61725398D01*
X103891611Y-61734915D01*
X103893320Y-61741292D01*
X103893320Y-61741293D01*
X103895124Y-61748023D01*
X103898728Y-61767471D01*
X103899292Y-61772836D01*
X103900145Y-61780956D01*
X103911938Y-61817251D01*
X103920818Y-61844582D01*
X103922691Y-61850906D01*
X103940006Y-61915524D01*
X103946167Y-61927616D01*
X103953730Y-61945875D01*
X103957925Y-61958785D01*
X103973559Y-61985864D01*
X103991376Y-62016724D01*
X103994523Y-62022520D01*
X104024893Y-62082125D01*
X104029050Y-62087258D01*
X104033432Y-62092670D01*
X104044625Y-62108955D01*
X104048116Y-62115002D01*
X104048119Y-62115005D01*
X104051415Y-62120715D01*
X104055827Y-62125615D01*
X104055830Y-62125619D01*
X104096175Y-62170425D01*
X104100463Y-62175446D01*
X104113063Y-62191006D01*
X104127210Y-62205153D01*
X104131751Y-62209937D01*
X104161445Y-62242915D01*
X104176530Y-62259669D01*
X104187518Y-62267652D01*
X104202546Y-62280489D01*
X106676511Y-64754454D01*
X106689348Y-64769482D01*
X106697331Y-64780470D01*
X106702233Y-64784883D01*
X106702234Y-64784885D01*
X106747063Y-64825249D01*
X106751847Y-64829790D01*
X106765993Y-64843936D01*
X106768557Y-64846012D01*
X106781561Y-64856543D01*
X106786576Y-64860827D01*
X106836285Y-64905585D01*
X106848044Y-64912374D01*
X106864329Y-64923567D01*
X106869740Y-64927948D01*
X106874875Y-64932106D01*
X106880759Y-64935104D01*
X106880762Y-64935106D01*
X106934481Y-64962478D01*
X106940276Y-64965624D01*
X106998215Y-64999075D01*
X107004499Y-65001117D01*
X107004504Y-65001119D01*
X107011121Y-65003269D01*
X107029385Y-65010834D01*
X107035590Y-65013996D01*
X107035595Y-65013998D01*
X107041475Y-65016994D01*
X107106111Y-65034313D01*
X107112412Y-65036180D01*
X107176044Y-65056855D01*
X107182609Y-65057545D01*
X107182618Y-65057547D01*
X107189543Y-65058275D01*
X107208976Y-65061876D01*
X107213964Y-65063212D01*
X107222084Y-65065388D01*
X107228677Y-65065734D01*
X107228680Y-65065734D01*
X107288881Y-65068889D01*
X107295456Y-65069406D01*
X107315380Y-65071500D01*
X107335413Y-65071500D01*
X107342007Y-65071673D01*
X107402217Y-65074829D01*
X107402222Y-65074829D01*
X107408809Y-65075174D01*
X107415324Y-65074142D01*
X107415326Y-65074142D01*
X107422213Y-65073051D01*
X107441924Y-65071500D01*
X107698252Y-65071500D01*
X107766373Y-65091502D01*
X107812260Y-65143852D01*
X107927750Y-65389283D01*
X107927754Y-65389290D01*
X107929438Y-65392869D01*
X108098568Y-65659375D01*
X108299767Y-65902582D01*
X108302657Y-65905296D01*
X108302658Y-65905297D01*
X108328268Y-65929346D01*
X108529860Y-66118654D01*
X108533062Y-66120981D01*
X108533064Y-66120982D01*
X108566698Y-66145418D01*
X108785221Y-66304184D01*
X108788690Y-66306091D01*
X108788693Y-66306093D01*
X109058352Y-66454340D01*
X109061821Y-66456247D01*
X109065490Y-66457700D01*
X109065495Y-66457702D01*
X109253835Y-66532271D01*
X109355298Y-66572443D01*
X109661025Y-66650940D01*
X109974179Y-66690500D01*
X110289821Y-66690500D01*
X110602975Y-66650940D01*
X110908702Y-66572443D01*
X111010165Y-66532271D01*
X111198505Y-66457702D01*
X111198510Y-66457700D01*
X111202179Y-66456247D01*
X111205648Y-66454340D01*
X111475307Y-66306093D01*
X111475310Y-66306091D01*
X111478779Y-66304184D01*
X111481977Y-66301861D01*
X111481981Y-66301858D01*
X111519575Y-66274544D01*
X111534750Y-66263518D01*
X111601616Y-66239661D01*
X111670768Y-66255741D01*
X111720248Y-66306654D01*
X111734348Y-66376237D01*
X111715195Y-66432969D01*
X111626060Y-66573424D01*
X111589438Y-66631131D01*
X111587754Y-66634710D01*
X111587750Y-66634717D01*
X111456733Y-66913144D01*
X111455044Y-66916734D01*
X111453818Y-66920506D01*
X111453818Y-66920507D01*
X111440725Y-66960803D01*
X111357505Y-67216928D01*
X111298359Y-67526980D01*
X111278540Y-67842000D01*
X111298359Y-68157020D01*
X111357505Y-68467072D01*
X111455044Y-68767266D01*
X111456731Y-68770852D01*
X111456733Y-68770856D01*
X111587750Y-69049283D01*
X111587754Y-69049290D01*
X111589438Y-69052869D01*
X111758568Y-69319375D01*
X111859168Y-69440979D01*
X111928609Y-69524918D01*
X111959767Y-69562582D01*
X111962657Y-69565296D01*
X111962658Y-69565297D01*
X111998999Y-69599423D01*
X112189860Y-69778654D01*
X112193062Y-69780981D01*
X112193064Y-69780982D01*
X112228974Y-69807072D01*
X112445221Y-69964184D01*
X112448690Y-69966091D01*
X112448693Y-69966093D01*
X112705485Y-70107266D01*
X112721821Y-70116247D01*
X112725490Y-70117700D01*
X112725495Y-70117702D01*
X112877124Y-70177736D01*
X113015298Y-70232443D01*
X113321025Y-70310940D01*
X113634179Y-70350500D01*
X113949821Y-70350500D01*
X114262975Y-70310940D01*
X114568702Y-70232443D01*
X114706876Y-70177736D01*
X114858505Y-70117702D01*
X114858510Y-70117700D01*
X114862179Y-70116247D01*
X114878515Y-70107266D01*
X115135307Y-69966093D01*
X115135310Y-69966091D01*
X115138779Y-69964184D01*
X115355026Y-69807072D01*
X115390936Y-69780982D01*
X115390938Y-69780981D01*
X115394140Y-69778654D01*
X115585001Y-69599423D01*
X115621342Y-69565297D01*
X115621343Y-69565296D01*
X115624233Y-69562582D01*
X115655392Y-69524918D01*
X115724832Y-69440979D01*
X115825432Y-69319375D01*
X115994562Y-69052869D01*
X115996246Y-69049290D01*
X115996250Y-69049283D01*
X116050513Y-68933967D01*
X116097616Y-68880846D01*
X116165960Y-68861623D01*
X116233848Y-68882402D01*
X116279725Y-68936585D01*
X116290272Y-68995526D01*
X116278540Y-69182000D01*
X116298359Y-69497020D01*
X116357505Y-69807072D01*
X116358732Y-69810848D01*
X116453323Y-70101968D01*
X116455044Y-70107266D01*
X116456731Y-70110852D01*
X116456733Y-70110856D01*
X116587750Y-70389283D01*
X116587754Y-70389290D01*
X116589438Y-70392869D01*
X116758568Y-70659375D01*
X116959767Y-70902582D01*
X116962657Y-70905296D01*
X116962658Y-70905297D01*
X116998999Y-70939423D01*
X117189860Y-71118654D01*
X117193062Y-71120981D01*
X117193064Y-71120982D01*
X117245631Y-71159174D01*
X117445221Y-71304184D01*
X117448690Y-71306091D01*
X117448693Y-71306093D01*
X117492349Y-71330093D01*
X117721821Y-71456247D01*
X117725490Y-71457700D01*
X117725495Y-71457702D01*
X118011628Y-71570990D01*
X118015298Y-71572443D01*
X118321025Y-71650940D01*
X118634179Y-71690500D01*
X118949821Y-71690500D01*
X119262975Y-71650940D01*
X119568702Y-71572443D01*
X119572372Y-71570990D01*
X119858505Y-71457702D01*
X119858510Y-71457700D01*
X119862179Y-71456247D01*
X120091651Y-71330093D01*
X120135307Y-71306093D01*
X120135310Y-71306091D01*
X120138779Y-71304184D01*
X120338369Y-71159174D01*
X120390936Y-71120982D01*
X120390938Y-71120981D01*
X120394140Y-71118654D01*
X120585001Y-70939423D01*
X120621342Y-70905297D01*
X120621343Y-70905296D01*
X120624233Y-70902582D01*
X120825432Y-70659375D01*
X120994562Y-70392869D01*
X120996246Y-70389290D01*
X120996250Y-70389283D01*
X121127267Y-70110856D01*
X121127269Y-70110852D01*
X121128956Y-70107266D01*
X121130678Y-70101968D01*
X121225268Y-69810848D01*
X121226495Y-69807072D01*
X121285641Y-69497020D01*
X121305460Y-69182000D01*
X121293728Y-68995526D01*
X121309413Y-68926284D01*
X121360043Y-68876514D01*
X121429544Y-68862018D01*
X121495849Y-68887397D01*
X121533487Y-68933967D01*
X121587750Y-69049283D01*
X121587754Y-69049290D01*
X121589438Y-69052869D01*
X121758568Y-69319375D01*
X121859168Y-69440979D01*
X121928609Y-69524918D01*
X121959767Y-69562582D01*
X121962657Y-69565296D01*
X121962658Y-69565297D01*
X121998999Y-69599423D01*
X122189860Y-69778654D01*
X122193060Y-69780979D01*
X122193071Y-69780988D01*
X122324926Y-69876785D01*
X122368281Y-69933007D01*
X122374357Y-70003743D01*
X122341225Y-70066535D01*
X122279405Y-70101446D01*
X122224670Y-70101968D01*
X122148946Y-70085873D01*
X122148947Y-70085873D01*
X122142487Y-70084500D01*
X121951513Y-70084500D01*
X121945061Y-70085872D01*
X121945056Y-70085872D01*
X121869333Y-70101968D01*
X121764712Y-70124206D01*
X121758682Y-70126891D01*
X121758681Y-70126891D01*
X121596278Y-70199197D01*
X121596276Y-70199198D01*
X121590248Y-70201882D01*
X121584907Y-70205762D01*
X121584906Y-70205763D01*
X121546834Y-70233424D01*
X121435747Y-70314134D01*
X121431326Y-70319044D01*
X121431325Y-70319045D01*
X121368083Y-70389283D01*
X121307960Y-70456056D01*
X121212473Y-70621444D01*
X121153458Y-70803072D01*
X121152768Y-70809633D01*
X121152768Y-70809635D01*
X121140477Y-70926582D01*
X121133496Y-70993000D01*
X121134186Y-70999565D01*
X121146703Y-71118654D01*
X121153458Y-71182928D01*
X121154936Y-71187477D01*
X121157500Y-71211867D01*
X121157500Y-72564075D01*
X121155949Y-72583785D01*
X121153826Y-72597190D01*
X121154171Y-72603778D01*
X121154171Y-72603782D01*
X121157327Y-72663999D01*
X121157500Y-72670593D01*
X121157500Y-72690620D01*
X121157844Y-72693891D01*
X121157844Y-72693895D01*
X121159593Y-72710539D01*
X121160110Y-72717113D01*
X121163611Y-72783915D01*
X121165320Y-72790292D01*
X121165320Y-72790293D01*
X121167124Y-72797023D01*
X121170728Y-72816470D01*
X121172145Y-72829956D01*
X121176474Y-72843279D01*
X121192818Y-72893582D01*
X121194691Y-72899906D01*
X121212006Y-72964524D01*
X121218167Y-72976616D01*
X121225730Y-72994875D01*
X121229925Y-73007785D01*
X121248516Y-73039985D01*
X121263376Y-73065724D01*
X121266523Y-73071520D01*
X121296893Y-73131125D01*
X121301050Y-73136258D01*
X121305432Y-73141670D01*
X121316625Y-73157955D01*
X121320116Y-73164002D01*
X121320119Y-73164005D01*
X121323415Y-73169715D01*
X121327827Y-73174615D01*
X121327830Y-73174619D01*
X121368175Y-73219425D01*
X121372463Y-73224446D01*
X121385063Y-73240006D01*
X121399210Y-73254153D01*
X121403751Y-73258937D01*
X121448530Y-73308669D01*
X121459518Y-73316652D01*
X121474546Y-73329489D01*
X125335584Y-77190527D01*
X125355606Y-77216619D01*
X125371960Y-77244944D01*
X125499747Y-77386866D01*
X125654248Y-77499118D01*
X125660276Y-77501802D01*
X125660278Y-77501803D01*
X125822681Y-77574109D01*
X125828712Y-77576794D01*
X125922113Y-77596647D01*
X126009056Y-77615128D01*
X126009061Y-77615128D01*
X126015513Y-77616500D01*
X126206487Y-77616500D01*
X126212939Y-77615128D01*
X126212944Y-77615128D01*
X126299887Y-77596647D01*
X126393288Y-77576794D01*
X126399319Y-77574109D01*
X126561722Y-77501803D01*
X126561724Y-77501802D01*
X126567752Y-77499118D01*
X126722253Y-77386866D01*
X126850040Y-77244944D01*
X126945527Y-77079556D01*
X127004542Y-76897928D01*
X127024504Y-76708000D01*
X127004542Y-76518072D01*
X126945527Y-76336444D01*
X126850040Y-76171056D01*
X126722253Y-76029134D01*
X126612607Y-75949471D01*
X126597574Y-75936631D01*
X122973405Y-72312462D01*
X122939379Y-72250150D01*
X122936500Y-72223367D01*
X122936500Y-71211867D01*
X122939064Y-71187477D01*
X122940542Y-71182928D01*
X122947298Y-71118654D01*
X122959814Y-70999565D01*
X122960504Y-70993000D01*
X122953523Y-70926582D01*
X122941232Y-70809635D01*
X122941232Y-70809633D01*
X122940542Y-70803072D01*
X122881527Y-70621444D01*
X122786040Y-70456056D01*
X122729146Y-70392869D01*
X122705609Y-70366728D01*
X122674891Y-70302721D01*
X122683656Y-70232267D01*
X122729119Y-70177736D01*
X122796846Y-70156441D01*
X122845628Y-70165266D01*
X123015298Y-70232443D01*
X123321025Y-70310940D01*
X123634179Y-70350500D01*
X123949821Y-70350500D01*
X124262975Y-70310940D01*
X124568702Y-70232443D01*
X124706876Y-70177736D01*
X124858505Y-70117702D01*
X124858510Y-70117700D01*
X124862179Y-70116247D01*
X124878515Y-70107266D01*
X125135307Y-69966093D01*
X125135310Y-69966091D01*
X125138779Y-69964184D01*
X125355026Y-69807072D01*
X125390936Y-69780982D01*
X125390938Y-69780981D01*
X125394140Y-69778654D01*
X125585001Y-69599423D01*
X125621342Y-69565297D01*
X125621343Y-69565296D01*
X125624233Y-69562582D01*
X125655392Y-69524918D01*
X125724832Y-69440979D01*
X125825432Y-69319375D01*
X125994562Y-69052869D01*
X125996246Y-69049290D01*
X125996250Y-69049283D01*
X126111740Y-68803852D01*
X126158842Y-68750731D01*
X126225748Y-68731500D01*
X129444881Y-68731500D01*
X129471078Y-68734253D01*
X129541056Y-68749128D01*
X129541061Y-68749128D01*
X129547513Y-68750500D01*
X129738487Y-68750500D01*
X129744939Y-68749128D01*
X129744944Y-68749128D01*
X129831888Y-68730647D01*
X129925288Y-68710794D01*
X129931319Y-68708109D01*
X130093722Y-68635803D01*
X130093724Y-68635802D01*
X130099752Y-68633118D01*
X130254253Y-68520866D01*
X130382040Y-68378944D01*
X130477527Y-68213556D01*
X130536542Y-68031928D01*
X130540410Y-67995131D01*
X130555814Y-67848565D01*
X130556504Y-67842000D01*
X130542418Y-67707976D01*
X130537232Y-67658635D01*
X130537232Y-67658633D01*
X130536542Y-67652072D01*
X130477527Y-67470444D01*
X130382040Y-67305056D01*
X130347791Y-67267018D01*
X130258675Y-67168045D01*
X130258674Y-67168044D01*
X130254253Y-67163134D01*
X130131747Y-67074128D01*
X130105094Y-67054763D01*
X130105093Y-67054762D01*
X130099752Y-67050882D01*
X130093724Y-67048198D01*
X130093722Y-67048197D01*
X129931319Y-66975891D01*
X129931318Y-66975891D01*
X129925288Y-66973206D01*
X129831888Y-66953353D01*
X129744944Y-66934872D01*
X129744939Y-66934872D01*
X129738487Y-66933500D01*
X129547513Y-66933500D01*
X129541061Y-66934872D01*
X129541056Y-66934872D01*
X129471078Y-66949747D01*
X129444881Y-66952500D01*
X126225748Y-66952500D01*
X126157627Y-66932498D01*
X126111740Y-66880148D01*
X125996250Y-66634717D01*
X125996246Y-66634710D01*
X125994562Y-66631131D01*
X125957940Y-66573424D01*
X125868805Y-66432969D01*
X125849192Y-66364735D01*
X125869583Y-66296730D01*
X125923503Y-66250544D01*
X125993834Y-66240842D01*
X126049249Y-66263518D01*
X126064425Y-66274544D01*
X126102019Y-66301858D01*
X126102023Y-66301861D01*
X126105221Y-66304184D01*
X126108690Y-66306091D01*
X126108693Y-66306093D01*
X126378352Y-66454340D01*
X126381821Y-66456247D01*
X126385490Y-66457700D01*
X126385495Y-66457702D01*
X126573835Y-66532271D01*
X126675298Y-66572443D01*
X126981025Y-66650940D01*
X127294179Y-66690500D01*
X127609821Y-66690500D01*
X127922975Y-66650940D01*
X128228702Y-66572443D01*
X128330165Y-66532271D01*
X128518505Y-66457702D01*
X128518510Y-66457700D01*
X128522179Y-66456247D01*
X128525648Y-66454340D01*
X128795307Y-66306093D01*
X128795310Y-66306091D01*
X128798779Y-66304184D01*
X129017302Y-66145418D01*
X129050936Y-66120982D01*
X129050938Y-66120981D01*
X129054140Y-66118654D01*
X129255732Y-65929346D01*
X129281342Y-65905297D01*
X129281343Y-65905296D01*
X129284233Y-65902582D01*
X129485432Y-65659375D01*
X129654562Y-65392869D01*
X129656246Y-65389290D01*
X129656250Y-65389283D01*
X129787267Y-65110856D01*
X129787269Y-65110852D01*
X129788956Y-65107266D01*
X129801258Y-65069406D01*
X129835515Y-64963971D01*
X129886495Y-64807072D01*
X129945641Y-64497020D01*
X129965460Y-64182000D01*
X129945641Y-63866980D01*
X129886495Y-63556928D01*
X129813868Y-63333406D01*
X129790182Y-63260507D01*
X129790182Y-63260506D01*
X129788956Y-63256734D01*
X129764519Y-63204802D01*
X129656250Y-62974717D01*
X129656246Y-62974710D01*
X129654562Y-62971131D01*
X129485432Y-62704625D01*
X129338967Y-62527580D01*
X129286758Y-62464470D01*
X129286757Y-62464469D01*
X129284233Y-62461418D01*
X129279909Y-62457357D01*
X129189597Y-62372549D01*
X129054140Y-62245346D01*
X128798779Y-62059816D01*
X128792184Y-62056190D01*
X128554490Y-61925516D01*
X128504431Y-61875171D01*
X128489538Y-61805754D01*
X128514539Y-61739305D01*
X128571496Y-61696921D01*
X128626246Y-61690641D01*
X128626302Y-61689755D01*
X128630248Y-61690003D01*
X128634179Y-61690500D01*
X128949821Y-61690500D01*
X129262975Y-61650940D01*
X129568702Y-61572443D01*
X129593575Y-61562595D01*
X129858505Y-61457702D01*
X129858510Y-61457700D01*
X129862179Y-61456247D01*
X129879538Y-61446704D01*
X130135307Y-61306093D01*
X130135310Y-61306091D01*
X130138779Y-61304184D01*
X130338369Y-61159174D01*
X130390936Y-61120982D01*
X130390938Y-61120981D01*
X130394140Y-61118654D01*
X130585001Y-60939423D01*
X130621342Y-60905297D01*
X130621343Y-60905296D01*
X130624233Y-60902582D01*
X130825432Y-60659375D01*
X130994562Y-60392869D01*
X130996246Y-60389290D01*
X130996250Y-60389283D01*
X131127267Y-60110856D01*
X131127269Y-60110852D01*
X131128956Y-60107266D01*
X131198667Y-59892718D01*
X131238740Y-59834112D01*
X131304137Y-59806475D01*
X131374094Y-59818582D01*
X131426400Y-59866588D01*
X131444500Y-59931654D01*
X131444500Y-72591195D01*
X131444230Y-72599436D01*
X131439994Y-72664061D01*
X131450399Y-72751973D01*
X131450736Y-72755186D01*
X131458831Y-72843279D01*
X131460399Y-72848839D01*
X131461061Y-72852412D01*
X131463250Y-72863415D01*
X131464018Y-72867028D01*
X131464697Y-72872765D01*
X131490938Y-72957276D01*
X131491854Y-72960373D01*
X131515877Y-73045549D01*
X131518435Y-73050737D01*
X131519760Y-73054188D01*
X131523901Y-73064566D01*
X131525304Y-73067953D01*
X131527018Y-73073473D01*
X131529709Y-73078587D01*
X131529709Y-73078588D01*
X131568198Y-73151745D01*
X131569695Y-73154681D01*
X131608829Y-73234037D01*
X131612287Y-73238668D01*
X131614250Y-73241871D01*
X131620173Y-73251258D01*
X131622182Y-73254351D01*
X131624871Y-73259463D01*
X131679656Y-73328956D01*
X131681627Y-73331526D01*
X131731116Y-73397801D01*
X131731123Y-73397808D01*
X131734573Y-73402429D01*
X131738807Y-73406343D01*
X131738809Y-73406345D01*
X131794973Y-73458262D01*
X131798539Y-73461692D01*
X139878059Y-81541212D01*
X139912085Y-81603524D01*
X139908797Y-81669243D01*
X139885505Y-81740928D01*
X139826359Y-82050980D01*
X139806540Y-82366000D01*
X139826359Y-82681020D01*
X139885505Y-82991072D01*
X139983044Y-83291266D01*
X139984731Y-83294852D01*
X139984733Y-83294856D01*
X140115750Y-83573283D01*
X140115754Y-83573290D01*
X140117438Y-83576869D01*
X140119562Y-83580215D01*
X140119562Y-83580216D01*
X140243195Y-83775031D01*
X140262808Y-83843265D01*
X140242417Y-83911270D01*
X140188497Y-83957456D01*
X140118166Y-83967158D01*
X140062751Y-83944482D01*
X140009982Y-83906143D01*
X140009981Y-83906142D01*
X140009977Y-83906139D01*
X140006779Y-83903816D01*
X139902390Y-83846427D01*
X139733648Y-83753660D01*
X139733647Y-83753659D01*
X139730179Y-83751753D01*
X139726510Y-83750300D01*
X139726505Y-83750298D01*
X139440372Y-83637010D01*
X139440371Y-83637010D01*
X139436702Y-83635557D01*
X139130975Y-83557060D01*
X138817821Y-83517500D01*
X138502179Y-83517500D01*
X138189025Y-83557060D01*
X137883298Y-83635557D01*
X137711805Y-83703456D01*
X137705369Y-83706004D01*
X137634668Y-83712483D01*
X137569890Y-83677947D01*
X135431489Y-81539546D01*
X135418652Y-81524518D01*
X135410669Y-81513530D01*
X135360937Y-81468751D01*
X135356153Y-81464210D01*
X135342006Y-81450063D01*
X135326446Y-81437463D01*
X135321425Y-81433175D01*
X135276619Y-81392830D01*
X135276615Y-81392827D01*
X135271715Y-81388415D01*
X135266005Y-81385119D01*
X135266002Y-81385116D01*
X135259955Y-81381625D01*
X135243670Y-81370432D01*
X135233125Y-81361893D01*
X135173520Y-81331523D01*
X135167724Y-81328376D01*
X135161975Y-81325057D01*
X135109785Y-81294925D01*
X135096875Y-81290730D01*
X135078616Y-81283167D01*
X135066524Y-81277006D01*
X135001906Y-81259691D01*
X134995582Y-81257818D01*
X134986981Y-81255023D01*
X134931956Y-81237145D01*
X134925389Y-81236455D01*
X134925385Y-81236454D01*
X134919712Y-81235858D01*
X134918470Y-81235728D01*
X134899028Y-81232125D01*
X134885915Y-81228611D01*
X134879318Y-81228265D01*
X134879316Y-81228265D01*
X134819113Y-81225110D01*
X134812539Y-81224593D01*
X134795895Y-81222844D01*
X134795891Y-81222844D01*
X134792620Y-81222500D01*
X134772593Y-81222500D01*
X134765999Y-81222327D01*
X134705782Y-81219171D01*
X134705778Y-81219171D01*
X134699190Y-81218826D01*
X134692675Y-81219858D01*
X134692673Y-81219858D01*
X134685786Y-81220949D01*
X134666075Y-81222500D01*
X128845748Y-81222500D01*
X128777627Y-81202498D01*
X128731740Y-81150148D01*
X128616250Y-80904717D01*
X128616246Y-80904710D01*
X128614562Y-80901131D01*
X128597608Y-80874415D01*
X128594917Y-80870175D01*
X128445432Y-80634625D01*
X128333083Y-80498819D01*
X128246758Y-80394470D01*
X128246757Y-80394469D01*
X128244233Y-80391418D01*
X128014140Y-80175346D01*
X127758779Y-79989816D01*
X127735486Y-79977010D01*
X127485648Y-79839660D01*
X127485647Y-79839659D01*
X127482179Y-79837753D01*
X127478510Y-79836300D01*
X127478505Y-79836298D01*
X127192372Y-79723010D01*
X127192371Y-79723010D01*
X127188702Y-79721557D01*
X126882975Y-79643060D01*
X126569821Y-79603500D01*
X126254179Y-79603500D01*
X125941025Y-79643060D01*
X125635298Y-79721557D01*
X125631629Y-79723010D01*
X125631628Y-79723010D01*
X125345495Y-79836298D01*
X125345490Y-79836300D01*
X125341821Y-79837753D01*
X125338353Y-79839659D01*
X125338352Y-79839660D01*
X125088515Y-79977010D01*
X125065221Y-79989816D01*
X124809860Y-80175346D01*
X124579767Y-80391418D01*
X124577243Y-80394469D01*
X124577242Y-80394470D01*
X124490917Y-80498819D01*
X124378568Y-80634625D01*
X124376444Y-80637972D01*
X124376441Y-80637976D01*
X124256092Y-80827616D01*
X124202703Y-80874415D01*
X124132488Y-80884920D01*
X124067740Y-80855796D01*
X124029016Y-80796290D01*
X124023827Y-80754606D01*
X124024891Y-80730236D01*
X124025059Y-80726389D01*
X124000023Y-80408277D01*
X123936406Y-80095588D01*
X123835155Y-79792982D01*
X123697781Y-79504971D01*
X123688148Y-79489849D01*
X123633966Y-79404801D01*
X123526331Y-79235849D01*
X123523887Y-79232884D01*
X123325804Y-78992590D01*
X123325800Y-78992585D01*
X123323361Y-78989627D01*
X123091898Y-78769976D01*
X122835391Y-78580171D01*
X122832058Y-78578285D01*
X122832053Y-78578282D01*
X122634417Y-78466465D01*
X122557664Y-78423040D01*
X122554121Y-78421573D01*
X122554116Y-78421570D01*
X122335386Y-78330970D01*
X122262858Y-78300928D01*
X122160468Y-78272533D01*
X121959084Y-78216683D01*
X121959076Y-78216681D01*
X121955368Y-78215653D01*
X121639778Y-78168488D01*
X121636480Y-78168344D01*
X121526910Y-78163560D01*
X121526906Y-78163560D01*
X121525534Y-78163500D01*
X121330953Y-78163500D01*
X121093500Y-78178023D01*
X121089717Y-78178724D01*
X121089710Y-78178725D01*
X120936624Y-78207098D01*
X120779748Y-78236174D01*
X120598491Y-78293324D01*
X120479093Y-78330970D01*
X120479090Y-78330971D01*
X120475421Y-78332128D01*
X120471924Y-78333722D01*
X120471918Y-78333724D01*
X120188564Y-78462855D01*
X120188560Y-78462857D01*
X120185056Y-78464454D01*
X120181777Y-78466464D01*
X120181774Y-78466465D01*
X119986503Y-78586128D01*
X119912983Y-78631181D01*
X119909979Y-78633571D01*
X119909974Y-78633574D01*
X119741370Y-78767688D01*
X119663256Y-78829823D01*
X119660564Y-78832562D01*
X119660560Y-78832566D01*
X119610830Y-78883172D01*
X119439599Y-79057418D01*
X119437254Y-79060474D01*
X119296716Y-79243627D01*
X119245346Y-79310573D01*
X119083393Y-79585515D01*
X118956154Y-79878145D01*
X118955060Y-79881839D01*
X118955058Y-79881844D01*
X118922386Y-79992143D01*
X118865526Y-80184100D01*
X118812860Y-80498819D01*
X118812692Y-80502669D01*
X118801145Y-80767130D01*
X118778191Y-80834314D01*
X118722558Y-80878422D01*
X118651910Y-80885451D01*
X118588677Y-80853169D01*
X118568880Y-80829148D01*
X118567908Y-80827616D01*
X118445432Y-80634625D01*
X118333083Y-80498819D01*
X118246758Y-80394470D01*
X118246757Y-80394469D01*
X118244233Y-80391418D01*
X118014140Y-80175346D01*
X117758779Y-79989816D01*
X117735486Y-79977010D01*
X117485648Y-79839660D01*
X117485647Y-79839659D01*
X117482179Y-79837753D01*
X117478510Y-79836300D01*
X117478505Y-79836298D01*
X117192372Y-79723010D01*
X117192371Y-79723010D01*
X117188702Y-79721557D01*
X116882975Y-79643060D01*
X116569821Y-79603500D01*
X116254179Y-79603500D01*
X115941025Y-79643060D01*
X115635298Y-79721557D01*
X115631629Y-79723010D01*
X115631628Y-79723010D01*
X115345495Y-79836298D01*
X115345490Y-79836300D01*
X115341821Y-79837753D01*
X115338353Y-79839659D01*
X115338352Y-79839660D01*
X115088515Y-79977010D01*
X115065221Y-79989816D01*
X114809860Y-80175346D01*
X114579767Y-80391418D01*
X114577243Y-80394469D01*
X114577242Y-80394470D01*
X114490917Y-80498819D01*
X114378568Y-80634625D01*
X114229083Y-80870175D01*
X114226393Y-80874415D01*
X114209438Y-80901131D01*
X114207754Y-80904710D01*
X114207750Y-80904717D01*
X114097071Y-81139923D01*
X114075044Y-81186734D01*
X113977505Y-81486928D01*
X113918359Y-81796980D01*
X113898540Y-82112000D01*
X113918359Y-82427020D01*
X113977505Y-82737072D01*
X113990255Y-82776312D01*
X114072785Y-83030312D01*
X114075044Y-83037266D01*
X114076731Y-83040852D01*
X114076733Y-83040856D01*
X114207750Y-83319283D01*
X114207754Y-83319290D01*
X114209438Y-83322869D01*
X114211562Y-83326215D01*
X114211562Y-83326216D01*
X114335195Y-83521031D01*
X114354808Y-83589265D01*
X114334417Y-83657270D01*
X114280497Y-83703456D01*
X114210166Y-83713158D01*
X114154751Y-83690482D01*
X114101982Y-83652143D01*
X114101981Y-83652142D01*
X114101977Y-83652139D01*
X114098779Y-83649816D01*
X114094287Y-83647346D01*
X113825648Y-83499660D01*
X113825647Y-83499659D01*
X113822179Y-83497753D01*
X113818510Y-83496300D01*
X113818505Y-83496298D01*
X113532372Y-83383010D01*
X113532371Y-83383010D01*
X113528702Y-83381557D01*
X113222975Y-83303060D01*
X112909821Y-83263500D01*
X112594179Y-83263500D01*
X112281025Y-83303060D01*
X111975298Y-83381557D01*
X111971629Y-83383010D01*
X111971628Y-83383010D01*
X111685495Y-83496298D01*
X111685490Y-83496300D01*
X111681821Y-83497753D01*
X111678353Y-83499659D01*
X111678352Y-83499660D01*
X111409714Y-83647346D01*
X111405221Y-83649816D01*
X111205631Y-83794826D01*
X111153695Y-83832560D01*
X111149860Y-83835346D01*
X110919767Y-84051418D01*
X110917243Y-84054469D01*
X110917242Y-84054470D01*
X110890677Y-84086582D01*
X110718568Y-84294625D01*
X110549438Y-84561131D01*
X110547754Y-84564710D01*
X110547750Y-84564717D01*
X110420591Y-84834945D01*
X110415044Y-84846734D01*
X110317505Y-85146928D01*
X110258359Y-85456980D01*
X110238540Y-85772000D01*
X110258359Y-86087020D01*
X110317505Y-86397072D01*
X110318732Y-86400848D01*
X110401262Y-86654848D01*
X110415044Y-86697266D01*
X110416731Y-86700852D01*
X110416733Y-86700856D01*
X110547750Y-86979283D01*
X110547754Y-86979290D01*
X110549438Y-86982869D01*
X110718568Y-87249375D01*
X110919767Y-87492582D01*
X111149860Y-87708654D01*
X111405221Y-87894184D01*
X111408690Y-87896091D01*
X111408693Y-87896093D01*
X111650700Y-88029138D01*
X111700759Y-88079483D01*
X111715652Y-88148900D01*
X111690651Y-88215349D01*
X111633694Y-88257733D01*
X111577704Y-88264157D01*
X111577667Y-88264745D01*
X111574380Y-88264538D01*
X111574207Y-88264558D01*
X111573721Y-88264497D01*
X111565831Y-88264000D01*
X111258169Y-88264000D01*
X111250278Y-88264497D01*
X110945050Y-88303055D01*
X110937279Y-88304538D01*
X110639296Y-88381047D01*
X110631770Y-88383492D01*
X110345707Y-88496753D01*
X110338572Y-88500110D01*
X110068961Y-88648330D01*
X110062281Y-88652570D01*
X109839177Y-88814664D01*
X109830754Y-88825587D01*
X109837658Y-88838448D01*
X111399188Y-90399978D01*
X111413132Y-90407592D01*
X111414965Y-90407461D01*
X111421580Y-90403210D01*
X112986666Y-88838124D01*
X112993279Y-88826013D01*
X112984452Y-88814395D01*
X112761719Y-88652570D01*
X112755039Y-88648330D01*
X112513144Y-88515347D01*
X112463085Y-88465001D01*
X112448192Y-88395584D01*
X112473193Y-88329135D01*
X112530150Y-88286751D01*
X112586267Y-88280313D01*
X112586302Y-88279755D01*
X112589422Y-88279951D01*
X112589639Y-88279926D01*
X112594179Y-88280500D01*
X112909821Y-88280500D01*
X113222975Y-88240940D01*
X113528702Y-88162443D01*
X113547286Y-88155085D01*
X113818505Y-88047702D01*
X113818510Y-88047700D01*
X113822179Y-88046247D01*
X113853300Y-88029138D01*
X114095307Y-87896093D01*
X114095310Y-87896091D01*
X114098779Y-87894184D01*
X114354140Y-87708654D01*
X114584233Y-87492582D01*
X114785432Y-87249375D01*
X114954562Y-86982869D01*
X114956246Y-86979290D01*
X114956250Y-86979283D01*
X115087267Y-86700856D01*
X115087269Y-86700852D01*
X115088956Y-86697266D01*
X115102739Y-86654848D01*
X115185268Y-86400848D01*
X115186495Y-86397072D01*
X115245641Y-86087020D01*
X115265460Y-85772000D01*
X115245641Y-85456980D01*
X115186495Y-85146928D01*
X115088956Y-84846734D01*
X115083409Y-84834945D01*
X114956250Y-84564717D01*
X114956246Y-84564710D01*
X114954562Y-84561131D01*
X114946695Y-84548735D01*
X114828805Y-84362969D01*
X114809192Y-84294735D01*
X114829583Y-84226730D01*
X114883503Y-84180544D01*
X114953834Y-84170842D01*
X115009249Y-84193518D01*
X115040461Y-84216195D01*
X115062019Y-84231858D01*
X115062023Y-84231861D01*
X115065221Y-84234184D01*
X115068690Y-84236091D01*
X115068693Y-84236093D01*
X115338352Y-84384340D01*
X115341821Y-84386247D01*
X115345490Y-84387700D01*
X115345495Y-84387702D01*
X115631628Y-84500990D01*
X115635298Y-84502443D01*
X115941025Y-84580940D01*
X116254179Y-84620500D01*
X116569821Y-84620500D01*
X116882975Y-84580940D01*
X117188702Y-84502443D01*
X117192372Y-84500990D01*
X117478505Y-84387702D01*
X117478510Y-84387700D01*
X117482179Y-84386247D01*
X117485648Y-84384340D01*
X117755307Y-84236093D01*
X117755310Y-84236091D01*
X117758779Y-84234184D01*
X118014140Y-84048654D01*
X118244233Y-83832582D01*
X118291844Y-83775031D01*
X118408198Y-83634383D01*
X118445432Y-83589375D01*
X118609062Y-83331535D01*
X118612438Y-83326216D01*
X118612438Y-83326215D01*
X118614562Y-83322869D01*
X118616246Y-83319290D01*
X118616250Y-83319283D01*
X118747267Y-83040856D01*
X118747269Y-83040852D01*
X118748956Y-83037266D01*
X118751216Y-83030312D01*
X118833745Y-82776312D01*
X118846495Y-82737072D01*
X118905641Y-82427020D01*
X118923405Y-82144658D01*
X118947644Y-82077928D01*
X119004113Y-82034896D01*
X119074883Y-82029224D01*
X119137485Y-82062714D01*
X119155423Y-82084870D01*
X119297669Y-82308151D01*
X119300112Y-82311114D01*
X119300113Y-82311116D01*
X119447978Y-82490490D01*
X119500639Y-82554373D01*
X119732102Y-82774024D01*
X119988609Y-82963829D01*
X119991942Y-82965715D01*
X119991947Y-82965718D01*
X120102073Y-83028024D01*
X120266336Y-83120960D01*
X120269879Y-83122427D01*
X120269884Y-83122430D01*
X120377050Y-83166819D01*
X120561142Y-83243072D01*
X120634803Y-83263500D01*
X120864916Y-83327317D01*
X120864924Y-83327319D01*
X120868632Y-83328347D01*
X121184222Y-83375512D01*
X121187520Y-83375656D01*
X121297090Y-83380440D01*
X121297094Y-83380440D01*
X121298466Y-83380500D01*
X121493047Y-83380500D01*
X121730500Y-83365977D01*
X121734283Y-83365276D01*
X121734290Y-83365275D01*
X121896853Y-83335145D01*
X122044252Y-83307826D01*
X122336927Y-83215546D01*
X122344907Y-83213030D01*
X122344910Y-83213029D01*
X122348579Y-83211872D01*
X122352076Y-83210278D01*
X122352082Y-83210276D01*
X122635436Y-83081145D01*
X122635440Y-83081143D01*
X122638944Y-83079546D01*
X122648236Y-83073852D01*
X122907739Y-82914828D01*
X122907742Y-82914826D01*
X122911017Y-82912819D01*
X122914021Y-82910429D01*
X122914026Y-82910426D01*
X123157733Y-82716572D01*
X123160744Y-82714177D01*
X123193328Y-82681020D01*
X123307226Y-82565116D01*
X123384401Y-82486582D01*
X123451867Y-82398659D01*
X123576304Y-82236490D01*
X123576306Y-82236486D01*
X123578654Y-82233427D01*
X123666054Y-82085051D01*
X123717862Y-82036508D01*
X123787690Y-82023681D01*
X123853368Y-82050642D01*
X123894044Y-82108831D01*
X123900370Y-82141089D01*
X123918359Y-82427020D01*
X123977505Y-82737072D01*
X123990255Y-82776312D01*
X124072785Y-83030312D01*
X124075044Y-83037266D01*
X124076731Y-83040852D01*
X124076733Y-83040856D01*
X124207750Y-83319283D01*
X124207754Y-83319290D01*
X124209438Y-83322869D01*
X124211562Y-83326215D01*
X124211562Y-83326216D01*
X124214938Y-83331535D01*
X124378568Y-83589375D01*
X124415802Y-83634383D01*
X124532157Y-83775031D01*
X124579767Y-83832582D01*
X124809860Y-84048654D01*
X125065221Y-84234184D01*
X125068690Y-84236091D01*
X125068693Y-84236093D01*
X125338352Y-84384340D01*
X125341821Y-84386247D01*
X125345490Y-84387700D01*
X125345495Y-84387702D01*
X125631628Y-84500990D01*
X125635298Y-84502443D01*
X125941025Y-84580940D01*
X126254179Y-84620500D01*
X126569821Y-84620500D01*
X126882975Y-84580940D01*
X127188702Y-84502443D01*
X127192372Y-84500990D01*
X127478505Y-84387702D01*
X127478510Y-84387700D01*
X127482179Y-84386247D01*
X127485648Y-84384340D01*
X127755307Y-84236093D01*
X127755310Y-84236091D01*
X127758779Y-84234184D01*
X127761977Y-84231861D01*
X127761981Y-84231858D01*
X127783539Y-84216195D01*
X127814750Y-84193518D01*
X127881616Y-84169661D01*
X127950768Y-84185741D01*
X128000248Y-84236654D01*
X128014348Y-84306237D01*
X127995195Y-84362969D01*
X127877305Y-84548735D01*
X127869438Y-84561131D01*
X127867754Y-84564710D01*
X127867750Y-84564717D01*
X127740591Y-84834945D01*
X127735044Y-84846734D01*
X127637505Y-85146928D01*
X127578359Y-85456980D01*
X127558540Y-85772000D01*
X127578359Y-86087020D01*
X127637505Y-86397072D01*
X127638732Y-86400848D01*
X127721262Y-86654848D01*
X127735044Y-86697266D01*
X127736731Y-86700852D01*
X127736733Y-86700856D01*
X127867750Y-86979283D01*
X127867754Y-86979290D01*
X127869438Y-86982869D01*
X128038568Y-87249375D01*
X128239767Y-87492582D01*
X128469860Y-87708654D01*
X128725221Y-87894184D01*
X128728690Y-87896091D01*
X128728693Y-87896093D01*
X128970700Y-88029138D01*
X129001821Y-88046247D01*
X129005490Y-88047700D01*
X129005495Y-88047702D01*
X129276714Y-88155085D01*
X129295298Y-88162443D01*
X129601025Y-88240940D01*
X129914179Y-88280500D01*
X130229821Y-88280500D01*
X130542975Y-88240940D01*
X130848702Y-88162443D01*
X130867286Y-88155085D01*
X131138505Y-88047702D01*
X131138510Y-88047700D01*
X131142179Y-88046247D01*
X131173300Y-88029138D01*
X131415307Y-87896093D01*
X131415310Y-87896091D01*
X131418779Y-87894184D01*
X131674140Y-87708654D01*
X131904233Y-87492582D01*
X132105432Y-87249375D01*
X132164032Y-87157036D01*
X132217421Y-87110237D01*
X132287636Y-87099732D01*
X132352384Y-87128856D01*
X132359512Y-87135455D01*
X135077511Y-89853454D01*
X135090348Y-89868482D01*
X135098331Y-89879470D01*
X135103233Y-89883883D01*
X135103234Y-89883885D01*
X135148063Y-89924249D01*
X135152847Y-89928790D01*
X135166994Y-89942937D01*
X135169552Y-89945009D01*
X135169556Y-89945012D01*
X135182561Y-89955543D01*
X135187574Y-89959825D01*
X135237285Y-90004585D01*
X135249044Y-90011374D01*
X135265329Y-90022567D01*
X135270740Y-90026948D01*
X135275875Y-90031106D01*
X135281759Y-90034104D01*
X135281762Y-90034106D01*
X135335481Y-90061478D01*
X135341276Y-90064624D01*
X135399215Y-90098075D01*
X135405497Y-90100116D01*
X135405504Y-90100119D01*
X135412121Y-90102269D01*
X135430385Y-90109834D01*
X135430393Y-90109838D01*
X135442475Y-90115994D01*
X135507101Y-90133310D01*
X135513408Y-90135178D01*
X135577044Y-90155855D01*
X135583610Y-90156545D01*
X135583614Y-90156546D01*
X135590544Y-90157275D01*
X135609977Y-90160876D01*
X135614965Y-90162212D01*
X135623085Y-90164388D01*
X135629678Y-90164734D01*
X135629681Y-90164734D01*
X135689880Y-90167889D01*
X135696455Y-90168406D01*
X135716380Y-90170500D01*
X135736413Y-90170500D01*
X135743007Y-90170673D01*
X135803217Y-90173829D01*
X135803222Y-90173829D01*
X135809809Y-90174174D01*
X135816324Y-90173142D01*
X135816326Y-90173142D01*
X135823213Y-90172051D01*
X135842924Y-90170500D01*
X151558075Y-90170500D01*
X151577786Y-90172051D01*
X151584673Y-90173142D01*
X151584675Y-90173142D01*
X151591190Y-90174174D01*
X151597778Y-90173829D01*
X151597782Y-90173829D01*
X151657999Y-90170673D01*
X151664593Y-90170500D01*
X151684620Y-90170500D01*
X151687891Y-90170156D01*
X151687895Y-90170156D01*
X151704539Y-90168407D01*
X151711113Y-90167890D01*
X151771316Y-90164735D01*
X151771318Y-90164735D01*
X151777915Y-90164389D01*
X151784297Y-90162679D01*
X151785761Y-90162286D01*
X151791028Y-90160875D01*
X151810470Y-90157272D01*
X151811712Y-90157142D01*
X151817385Y-90156546D01*
X151817389Y-90156545D01*
X151823956Y-90155855D01*
X151887585Y-90135181D01*
X151893906Y-90133309D01*
X151901359Y-90131312D01*
X151958524Y-90115994D01*
X151970616Y-90109833D01*
X151988875Y-90102270D01*
X152001785Y-90098075D01*
X152059724Y-90064624D01*
X152065520Y-90061477D01*
X152125125Y-90031107D01*
X152135671Y-90022567D01*
X152151955Y-90011375D01*
X152158002Y-90007884D01*
X152158005Y-90007881D01*
X152163715Y-90004585D01*
X152168615Y-90000173D01*
X152168619Y-90000170D01*
X152213425Y-89959825D01*
X152218446Y-89955537D01*
X152231441Y-89945014D01*
X152231443Y-89945012D01*
X152234006Y-89942937D01*
X152248153Y-89928790D01*
X152252937Y-89924249D01*
X152297766Y-89883885D01*
X152297767Y-89883883D01*
X152302669Y-89879470D01*
X152310652Y-89868482D01*
X152323489Y-89853454D01*
X154207449Y-87969494D01*
X154269761Y-87935468D01*
X154340576Y-87940533D01*
X154376273Y-87961164D01*
X154377860Y-87962654D01*
X154633221Y-88148184D01*
X154636690Y-88150091D01*
X154636693Y-88150093D01*
X154877510Y-88282484D01*
X154909821Y-88300247D01*
X154913490Y-88301700D01*
X154913495Y-88301702D01*
X155138402Y-88390749D01*
X155203298Y-88416443D01*
X155509025Y-88494940D01*
X155822179Y-88534500D01*
X156137821Y-88534500D01*
X156141752Y-88534003D01*
X156145698Y-88533755D01*
X156145768Y-88534865D01*
X156211099Y-88545398D01*
X156263954Y-88592799D01*
X156282791Y-88661251D01*
X156261630Y-88729021D01*
X156217510Y-88769516D01*
X156092714Y-88838124D01*
X155973221Y-88903816D01*
X155717860Y-89089346D01*
X155487767Y-89305418D01*
X155286568Y-89548625D01*
X155117438Y-89815131D01*
X155115754Y-89818710D01*
X155115750Y-89818717D01*
X155000812Y-90062975D01*
X154983044Y-90100734D01*
X154981818Y-90104506D01*
X154981818Y-90104507D01*
X154962362Y-90164388D01*
X154885505Y-90400928D01*
X154826359Y-90710980D01*
X154806540Y-91026000D01*
X154826359Y-91341020D01*
X154885505Y-91651072D01*
X154983044Y-91951266D01*
X154984731Y-91954852D01*
X154984733Y-91954856D01*
X155115750Y-92233283D01*
X155115754Y-92233290D01*
X155117438Y-92236869D01*
X155286568Y-92503375D01*
X155306198Y-92527103D01*
X155427115Y-92673266D01*
X155487767Y-92746582D01*
X155717860Y-92962654D01*
X155973221Y-93148184D01*
X155976690Y-93150091D01*
X155976693Y-93150093D01*
X156158488Y-93250036D01*
X156249821Y-93300247D01*
X156253490Y-93301700D01*
X156253495Y-93301702D01*
X156433028Y-93372784D01*
X156543298Y-93416443D01*
X156849025Y-93494940D01*
X157162179Y-93534500D01*
X157477821Y-93534500D01*
X157790975Y-93494940D01*
X158096702Y-93416443D01*
X158206972Y-93372784D01*
X158386505Y-93301702D01*
X158386510Y-93301700D01*
X158390179Y-93300247D01*
X158481512Y-93250036D01*
X158529411Y-93223703D01*
X162101743Y-93223703D01*
X162102302Y-93227947D01*
X162102302Y-93227951D01*
X162111569Y-93298340D01*
X162139268Y-93508734D01*
X162215129Y-93786036D01*
X162216813Y-93789984D01*
X162323806Y-94040823D01*
X162327923Y-94050476D01*
X162339693Y-94070142D01*
X162417890Y-94200799D01*
X162475561Y-94297161D01*
X162655313Y-94521528D01*
X162720906Y-94583773D01*
X162802730Y-94661421D01*
X162863851Y-94719423D01*
X163097317Y-94887186D01*
X163101112Y-94889195D01*
X163101113Y-94889196D01*
X163122869Y-94900715D01*
X163351392Y-95021712D01*
X163621373Y-95120511D01*
X163902264Y-95181755D01*
X163930841Y-95184004D01*
X164125282Y-95199307D01*
X164125291Y-95199307D01*
X164127739Y-95199500D01*
X164283271Y-95199500D01*
X164285407Y-95199354D01*
X164285418Y-95199354D01*
X164493548Y-95185165D01*
X164493554Y-95185164D01*
X164497825Y-95184873D01*
X164502020Y-95184004D01*
X164502022Y-95184004D01*
X164682152Y-95146701D01*
X164779342Y-95126574D01*
X165050343Y-95030607D01*
X165305812Y-94898750D01*
X165309313Y-94896289D01*
X165309317Y-94896287D01*
X165423417Y-94816096D01*
X165541023Y-94733441D01*
X165702085Y-94583773D01*
X165748479Y-94540661D01*
X165748481Y-94540658D01*
X165751622Y-94537740D01*
X165933713Y-94315268D01*
X166083927Y-94070142D01*
X166199483Y-93806898D01*
X166212824Y-93760066D01*
X166277068Y-93534534D01*
X166278244Y-93530406D01*
X166311271Y-93298340D01*
X166318146Y-93250036D01*
X166318146Y-93250034D01*
X166318751Y-93245784D01*
X166318777Y-93240945D01*
X166320235Y-92962583D01*
X166320235Y-92962576D01*
X166320257Y-92958297D01*
X166282732Y-92673266D01*
X166206871Y-92395964D01*
X166149933Y-92262476D01*
X166095763Y-92135476D01*
X166095761Y-92135472D01*
X166094077Y-92131524D01*
X165946439Y-91884839D01*
X165766687Y-91660472D01*
X165558149Y-91462577D01*
X165324683Y-91294814D01*
X165302843Y-91283250D01*
X165279654Y-91270972D01*
X165070608Y-91160288D01*
X164931823Y-91109500D01*
X164804658Y-91062964D01*
X164804656Y-91062963D01*
X164800627Y-91061489D01*
X164519736Y-91000245D01*
X164488685Y-90997801D01*
X164296718Y-90982693D01*
X164296709Y-90982693D01*
X164294261Y-90982500D01*
X164138729Y-90982500D01*
X164136593Y-90982646D01*
X164136582Y-90982646D01*
X163928452Y-90996835D01*
X163928446Y-90996836D01*
X163924175Y-90997127D01*
X163919980Y-90997996D01*
X163919978Y-90997996D01*
X163803864Y-91022042D01*
X163642658Y-91055426D01*
X163371657Y-91151393D01*
X163116188Y-91283250D01*
X163112687Y-91285711D01*
X163112683Y-91285713D01*
X163028443Y-91344918D01*
X162880977Y-91448559D01*
X162670378Y-91644260D01*
X162488287Y-91866732D01*
X162338073Y-92111858D01*
X162222517Y-92375102D01*
X162143756Y-92651594D01*
X162103249Y-92936216D01*
X162103227Y-92940505D01*
X162103226Y-92940512D01*
X162102074Y-93160508D01*
X162101743Y-93223703D01*
X158529411Y-93223703D01*
X158663307Y-93150093D01*
X158663310Y-93150091D01*
X158666779Y-93148184D01*
X158922140Y-92962654D01*
X159152233Y-92746582D01*
X159212886Y-92673266D01*
X159333802Y-92527103D01*
X159353432Y-92503375D01*
X159522562Y-92236869D01*
X159524246Y-92233290D01*
X159524250Y-92233283D01*
X159655267Y-91954856D01*
X159655269Y-91954852D01*
X159656956Y-91951266D01*
X159754495Y-91651072D01*
X159813641Y-91341020D01*
X159833460Y-91026000D01*
X159813641Y-90710980D01*
X159754495Y-90400928D01*
X159677638Y-90164388D01*
X159658182Y-90104507D01*
X159658182Y-90104506D01*
X159656956Y-90100734D01*
X159639188Y-90062975D01*
X159524250Y-89818717D01*
X159524246Y-89818710D01*
X159522562Y-89815131D01*
X159353432Y-89548625D01*
X159152233Y-89305418D01*
X158922140Y-89089346D01*
X158666779Y-88903816D01*
X158547287Y-88838124D01*
X158393648Y-88753660D01*
X158393647Y-88753659D01*
X158390179Y-88751753D01*
X158386510Y-88750300D01*
X158386505Y-88750298D01*
X158100372Y-88637010D01*
X158100371Y-88637010D01*
X158096702Y-88635557D01*
X157790975Y-88557060D01*
X157477821Y-88517500D01*
X157162179Y-88517500D01*
X157158248Y-88517997D01*
X157154302Y-88518245D01*
X157154232Y-88517135D01*
X157088901Y-88506602D01*
X157036046Y-88459201D01*
X157017209Y-88390749D01*
X157038370Y-88322979D01*
X157082490Y-88282484D01*
X157323307Y-88150093D01*
X157323310Y-88150091D01*
X157326779Y-88148184D01*
X157582140Y-87962654D01*
X157812233Y-87746582D01*
X158013432Y-87503375D01*
X158182562Y-87236869D01*
X158184246Y-87233290D01*
X158184250Y-87233283D01*
X158315267Y-86954856D01*
X158315269Y-86954852D01*
X158316956Y-86951266D01*
X158414495Y-86651072D01*
X158473641Y-86341020D01*
X158493460Y-86026000D01*
X158473641Y-85710980D01*
X158414495Y-85400928D01*
X158331965Y-85146928D01*
X158318182Y-85104507D01*
X158318182Y-85104506D01*
X158316956Y-85100734D01*
X158300938Y-85066694D01*
X158184250Y-84818717D01*
X158184246Y-84818710D01*
X158182562Y-84815131D01*
X158013432Y-84548625D01*
X157909104Y-84422514D01*
X157814758Y-84308470D01*
X157814757Y-84308469D01*
X157812233Y-84305418D01*
X157806332Y-84299876D01*
X157738409Y-84236093D01*
X157582140Y-84089346D01*
X157326779Y-83903816D01*
X157222390Y-83846427D01*
X157053648Y-83753660D01*
X157053647Y-83753659D01*
X157050179Y-83751753D01*
X157046510Y-83750300D01*
X157046505Y-83750298D01*
X156760372Y-83637010D01*
X156760371Y-83637010D01*
X156756702Y-83635557D01*
X156450975Y-83557060D01*
X156137821Y-83517500D01*
X155822179Y-83517500D01*
X155509025Y-83557060D01*
X155203298Y-83635557D01*
X155199629Y-83637010D01*
X155199628Y-83637010D01*
X154913495Y-83750298D01*
X154913490Y-83750300D01*
X154909821Y-83751753D01*
X154906353Y-83753659D01*
X154906352Y-83753660D01*
X154737611Y-83846427D01*
X154633221Y-83903816D01*
X154587836Y-83936790D01*
X154576152Y-83945279D01*
X154509284Y-83969138D01*
X154440133Y-83953057D01*
X154390652Y-83902143D01*
X154376553Y-83832560D01*
X154395706Y-83775829D01*
X154519999Y-83579974D01*
X154523811Y-83573041D01*
X154654801Y-83294672D01*
X154657716Y-83287309D01*
X154752783Y-82994723D01*
X154754754Y-82987046D01*
X154812400Y-82684855D01*
X154813393Y-82676994D01*
X154832710Y-82369958D01*
X154832710Y-82362042D01*
X154813393Y-82055006D01*
X154812400Y-82047145D01*
X154754754Y-81744954D01*
X154752783Y-81737277D01*
X154657716Y-81444691D01*
X154654801Y-81437328D01*
X154523811Y-81158959D01*
X154519999Y-81152026D01*
X154355149Y-80892264D01*
X154350505Y-80885871D01*
X154275503Y-80795210D01*
X154262986Y-80786755D01*
X154252248Y-80792962D01*
X150745334Y-84299876D01*
X150738721Y-84311987D01*
X150747548Y-84323605D01*
X150970281Y-84485430D01*
X150976961Y-84489670D01*
X151246572Y-84637890D01*
X151253707Y-84641247D01*
X151539770Y-84754508D01*
X151547296Y-84756953D01*
X151845279Y-84833462D01*
X151853050Y-84834945D01*
X152158278Y-84873503D01*
X152166169Y-84874000D01*
X152473831Y-84874000D01*
X152481722Y-84873503D01*
X152786950Y-84834945D01*
X152794721Y-84833462D01*
X153092704Y-84756953D01*
X153100230Y-84754508D01*
X153386293Y-84641247D01*
X153393428Y-84637890D01*
X153663039Y-84489670D01*
X153669720Y-84485430D01*
X153723477Y-84446373D01*
X153790345Y-84422514D01*
X153859497Y-84438595D01*
X153908977Y-84489509D01*
X153923076Y-84559092D01*
X153903923Y-84615822D01*
X153777438Y-84815131D01*
X153775754Y-84818710D01*
X153775750Y-84818717D01*
X153659062Y-85066694D01*
X153643044Y-85100734D01*
X153641818Y-85104506D01*
X153641818Y-85104507D01*
X153628035Y-85146928D01*
X153545505Y-85400928D01*
X153486359Y-85710980D01*
X153466540Y-86026000D01*
X153466789Y-86029958D01*
X153472942Y-86127765D01*
X153457257Y-86197007D01*
X153436286Y-86224771D01*
X151306462Y-88354595D01*
X151244150Y-88388621D01*
X151217367Y-88391500D01*
X140054925Y-88391500D01*
X139986804Y-88371498D01*
X139940311Y-88317842D01*
X139930207Y-88247568D01*
X139959701Y-88182988D01*
X139994222Y-88155087D01*
X140006779Y-88148184D01*
X140262140Y-87962654D01*
X140492233Y-87746582D01*
X140693432Y-87503375D01*
X140862562Y-87236869D01*
X140864246Y-87233290D01*
X140864250Y-87233283D01*
X140995267Y-86954856D01*
X140995269Y-86954852D01*
X140996956Y-86951266D01*
X141094495Y-86651072D01*
X141153641Y-86341020D01*
X141173460Y-86026000D01*
X141153641Y-85710980D01*
X141094495Y-85400928D01*
X141011965Y-85146928D01*
X140998182Y-85104507D01*
X140998182Y-85104506D01*
X140996956Y-85100734D01*
X140980938Y-85066694D01*
X140864250Y-84818717D01*
X140864246Y-84818710D01*
X140862562Y-84815131D01*
X140825641Y-84756953D01*
X140736805Y-84616969D01*
X140717192Y-84548735D01*
X140737583Y-84480730D01*
X140791503Y-84434544D01*
X140861834Y-84424842D01*
X140917249Y-84447518D01*
X140948461Y-84470195D01*
X140970019Y-84485858D01*
X140970023Y-84485861D01*
X140973221Y-84488184D01*
X140976690Y-84490091D01*
X140976693Y-84490093D01*
X141246352Y-84638340D01*
X141249821Y-84640247D01*
X141253490Y-84641700D01*
X141253495Y-84641702D01*
X141538411Y-84754508D01*
X141543298Y-84756443D01*
X141849025Y-84834940D01*
X142162179Y-84874500D01*
X142477821Y-84874500D01*
X142790975Y-84834940D01*
X143096702Y-84756443D01*
X143101589Y-84754508D01*
X143386505Y-84641702D01*
X143386510Y-84641700D01*
X143390179Y-84640247D01*
X143393648Y-84638340D01*
X143663307Y-84490093D01*
X143663310Y-84490091D01*
X143666779Y-84488184D01*
X143914135Y-84308470D01*
X143918936Y-84304982D01*
X143918938Y-84304981D01*
X143922140Y-84302654D01*
X144152233Y-84086582D01*
X144178799Y-84054470D01*
X144269129Y-83945279D01*
X144353432Y-83843375D01*
X144516752Y-83586024D01*
X144520438Y-83580216D01*
X144520438Y-83580215D01*
X144522562Y-83576869D01*
X144524246Y-83573290D01*
X144524250Y-83573283D01*
X144655267Y-83294856D01*
X144655269Y-83294852D01*
X144656956Y-83291266D01*
X144754495Y-82991072D01*
X144813641Y-82681020D01*
X144831405Y-82398658D01*
X144855644Y-82331928D01*
X144912113Y-82288896D01*
X144982883Y-82283224D01*
X145045485Y-82316714D01*
X145063423Y-82338870D01*
X145205669Y-82562151D01*
X145208112Y-82565114D01*
X145208113Y-82565116D01*
X145382210Y-82776312D01*
X145408639Y-82808373D01*
X145640102Y-83028024D01*
X145896609Y-83217829D01*
X145899942Y-83219715D01*
X145899947Y-83219718D01*
X145978210Y-83263997D01*
X146174336Y-83374960D01*
X146177879Y-83376427D01*
X146177884Y-83376430D01*
X146355032Y-83449806D01*
X146469142Y-83497072D01*
X146542803Y-83517500D01*
X146772916Y-83581317D01*
X146772924Y-83581319D01*
X146776632Y-83582347D01*
X147092222Y-83629512D01*
X147095520Y-83629656D01*
X147205090Y-83634440D01*
X147205094Y-83634440D01*
X147206466Y-83634500D01*
X147401047Y-83634500D01*
X147638500Y-83619977D01*
X147642283Y-83619276D01*
X147642290Y-83619275D01*
X147821692Y-83586024D01*
X147952252Y-83561826D01*
X148154359Y-83498102D01*
X148252907Y-83467030D01*
X148252910Y-83467029D01*
X148256579Y-83465872D01*
X148260076Y-83464278D01*
X148260082Y-83464276D01*
X148543436Y-83335145D01*
X148543440Y-83335143D01*
X148546944Y-83333546D01*
X148550226Y-83331535D01*
X148815739Y-83168828D01*
X148815742Y-83168826D01*
X148819017Y-83166819D01*
X148822021Y-83164429D01*
X148822026Y-83164426D01*
X149065733Y-82970572D01*
X149068744Y-82968177D01*
X149075261Y-82961546D01*
X149257289Y-82776312D01*
X149292401Y-82740582D01*
X149429316Y-82562151D01*
X149484304Y-82490490D01*
X149484306Y-82490486D01*
X149486654Y-82487427D01*
X149574507Y-82338282D01*
X149626315Y-82289739D01*
X149696143Y-82276912D01*
X149761821Y-82303873D01*
X149802497Y-82362062D01*
X149808823Y-82394321D01*
X149826607Y-82676995D01*
X149827600Y-82684855D01*
X149885246Y-82987046D01*
X149887217Y-82994723D01*
X149982284Y-83287309D01*
X149985199Y-83294672D01*
X150116189Y-83573041D01*
X150120001Y-83579974D01*
X150284851Y-83839736D01*
X150289495Y-83846129D01*
X150364497Y-83936790D01*
X150377014Y-83945245D01*
X150387752Y-83939038D01*
X151947978Y-82378812D01*
X151955592Y-82364868D01*
X151955461Y-82363035D01*
X151951210Y-82356420D01*
X150388855Y-80794065D01*
X150375593Y-80786823D01*
X150365488Y-80794012D01*
X150289495Y-80885871D01*
X150284851Y-80892264D01*
X150164048Y-81082619D01*
X150110659Y-81129418D01*
X150040444Y-81139923D01*
X149975696Y-81110799D01*
X149936972Y-81051293D01*
X149931783Y-81009608D01*
X149932891Y-80984235D01*
X149933059Y-80980389D01*
X149915452Y-80756669D01*
X149908325Y-80666112D01*
X149908325Y-80666109D01*
X149908023Y-80662277D01*
X149858647Y-80419587D01*
X150738754Y-80419587D01*
X150745658Y-80432448D01*
X152307188Y-81993978D01*
X152321132Y-82001592D01*
X152322965Y-82001461D01*
X152329580Y-81997210D01*
X153894666Y-80432124D01*
X153901279Y-80420013D01*
X153892452Y-80408395D01*
X153669719Y-80246570D01*
X153663039Y-80242330D01*
X153393428Y-80094110D01*
X153386293Y-80090753D01*
X153100230Y-79977492D01*
X153092704Y-79975047D01*
X152794721Y-79898538D01*
X152786950Y-79897055D01*
X152481722Y-79858497D01*
X152473831Y-79858000D01*
X152166169Y-79858000D01*
X152158278Y-79858497D01*
X151853050Y-79897055D01*
X151845279Y-79898538D01*
X151547296Y-79975047D01*
X151539770Y-79977492D01*
X151253707Y-80090753D01*
X151246572Y-80094110D01*
X150976961Y-80242330D01*
X150970281Y-80246570D01*
X150747177Y-80408664D01*
X150738754Y-80419587D01*
X149858647Y-80419587D01*
X149844406Y-80349588D01*
X149743155Y-80046982D01*
X149605781Y-79758971D01*
X149582872Y-79723010D01*
X149495277Y-79585515D01*
X149434331Y-79489849D01*
X149286547Y-79310573D01*
X149233804Y-79246590D01*
X149233800Y-79246585D01*
X149231361Y-79243627D01*
X148999898Y-79023976D01*
X148743391Y-78834171D01*
X148740058Y-78832285D01*
X148740053Y-78832282D01*
X148542417Y-78720465D01*
X148465664Y-78677040D01*
X148462121Y-78675573D01*
X148462116Y-78675570D01*
X148227240Y-78578282D01*
X148170858Y-78554928D01*
X148068468Y-78526533D01*
X147867084Y-78470683D01*
X147867076Y-78470681D01*
X147863368Y-78469653D01*
X147547778Y-78422488D01*
X147544480Y-78422344D01*
X147434910Y-78417560D01*
X147434906Y-78417560D01*
X147433534Y-78417500D01*
X147238953Y-78417500D01*
X147001500Y-78432023D01*
X146997717Y-78432724D01*
X146997710Y-78432725D01*
X146844624Y-78461099D01*
X146687748Y-78490174D01*
X146506491Y-78547324D01*
X146387093Y-78584970D01*
X146387090Y-78584971D01*
X146383421Y-78586128D01*
X146379924Y-78587722D01*
X146379918Y-78587724D01*
X146096564Y-78716855D01*
X146096560Y-78716857D01*
X146093056Y-78718454D01*
X146089777Y-78720464D01*
X146089774Y-78720465D01*
X145904224Y-78834171D01*
X145820983Y-78885181D01*
X145817979Y-78887571D01*
X145817974Y-78887574D01*
X145604452Y-79057418D01*
X145571256Y-79083823D01*
X145347599Y-79311418D01*
X145345254Y-79314474D01*
X145208195Y-79493093D01*
X145153346Y-79564573D01*
X145060020Y-79723010D01*
X145016657Y-79796626D01*
X144991393Y-79839515D01*
X144864154Y-80132145D01*
X144863060Y-80135839D01*
X144863058Y-80135844D01*
X144830386Y-80246143D01*
X144773526Y-80438100D01*
X144720860Y-80752819D01*
X144719059Y-80794065D01*
X144709145Y-81021130D01*
X144686191Y-81088314D01*
X144630558Y-81132422D01*
X144559910Y-81139451D01*
X144496677Y-81107169D01*
X144476880Y-81083148D01*
X144476544Y-81082619D01*
X144353432Y-80888625D01*
X144241083Y-80752819D01*
X144154758Y-80648470D01*
X144154757Y-80648469D01*
X144152233Y-80645418D01*
X143922140Y-80429346D01*
X143666779Y-80243816D01*
X143565062Y-80187896D01*
X143393648Y-80093660D01*
X143393647Y-80093659D01*
X143390179Y-80091753D01*
X143386510Y-80090300D01*
X143386505Y-80090298D01*
X143100372Y-79977010D01*
X143100371Y-79977010D01*
X143096702Y-79975557D01*
X142790975Y-79897060D01*
X142477821Y-79857500D01*
X142162179Y-79857500D01*
X142026730Y-79874611D01*
X141852957Y-79896563D01*
X141852953Y-79896564D01*
X141849025Y-79897060D01*
X141615625Y-79956987D01*
X141544670Y-79954555D01*
X141495195Y-79924041D01*
X133768405Y-72197252D01*
X133734379Y-72134940D01*
X133731500Y-72108157D01*
X133731500Y-51985794D01*
X133731770Y-51977553D01*
X133735627Y-51918704D01*
X133736005Y-51912938D01*
X133725605Y-51825074D01*
X133725262Y-51821800D01*
X133717698Y-51739476D01*
X133717698Y-51739474D01*
X133717169Y-51733721D01*
X133715600Y-51728159D01*
X133714941Y-51724601D01*
X133712743Y-51713551D01*
X133711982Y-51709970D01*
X133711303Y-51704234D01*
X133685065Y-51619731D01*
X133684133Y-51616584D01*
X133674304Y-51581731D01*
X133660123Y-51531451D01*
X133657567Y-51526269D01*
X133656245Y-51522824D01*
X133652094Y-51512421D01*
X133650695Y-51509042D01*
X133648982Y-51503526D01*
X133641653Y-51489594D01*
X133607782Y-51425217D01*
X133606284Y-51422277D01*
X133569725Y-51348141D01*
X133569722Y-51348137D01*
X133567171Y-51342963D01*
X133563717Y-51338338D01*
X133561777Y-51335172D01*
X133555838Y-51325759D01*
X133553819Y-51322649D01*
X133551129Y-51317537D01*
X133496344Y-51248043D01*
X133494348Y-51245441D01*
X133490715Y-51240575D01*
X133441427Y-51174571D01*
X133407655Y-51143352D01*
X133381040Y-51118750D01*
X133377474Y-51115320D01*
X133354839Y-51092685D01*
X133320813Y-51030373D01*
X133325878Y-50959558D01*
X133368425Y-50902722D01*
X133434945Y-50877911D01*
X133444365Y-50877591D01*
X134452666Y-50881043D01*
X135766757Y-50885543D01*
X135834808Y-50905778D01*
X135881117Y-50959592D01*
X135890980Y-51029901D01*
X135861266Y-51094380D01*
X135855420Y-51100637D01*
X135825546Y-51130511D01*
X135810518Y-51143348D01*
X135799530Y-51151331D01*
X135795117Y-51156233D01*
X135795115Y-51156234D01*
X135754751Y-51201063D01*
X135750210Y-51205847D01*
X135736063Y-51219994D01*
X135733986Y-51222559D01*
X135723463Y-51235554D01*
X135719175Y-51240575D01*
X135678830Y-51285381D01*
X135678827Y-51285385D01*
X135674415Y-51290285D01*
X135671119Y-51295995D01*
X135671116Y-51295998D01*
X135667625Y-51302045D01*
X135656432Y-51318330D01*
X135647893Y-51328875D01*
X135617523Y-51388480D01*
X135614376Y-51394276D01*
X135580925Y-51452215D01*
X135578884Y-51458497D01*
X135576731Y-51465123D01*
X135569167Y-51483384D01*
X135563006Y-51495476D01*
X135555678Y-51522824D01*
X135545691Y-51560094D01*
X135543818Y-51566418D01*
X135523145Y-51630044D01*
X135522455Y-51636611D01*
X135522454Y-51636615D01*
X135521728Y-51643529D01*
X135518125Y-51662972D01*
X135514611Y-51676085D01*
X135514265Y-51682682D01*
X135514265Y-51682684D01*
X135511110Y-51742887D01*
X135510593Y-51749461D01*
X135509815Y-51756869D01*
X135508500Y-51769380D01*
X135508500Y-51789407D01*
X135508327Y-51796001D01*
X135507354Y-51814576D01*
X135504826Y-51862810D01*
X135505858Y-51869325D01*
X135505858Y-51869327D01*
X135506949Y-51876214D01*
X135508500Y-51895925D01*
X135508500Y-65948133D01*
X135505936Y-65972523D01*
X135504458Y-65977072D01*
X135484496Y-66167000D01*
X135485186Y-66173565D01*
X135501697Y-66330654D01*
X135504458Y-66356928D01*
X135563473Y-66538556D01*
X135658960Y-66703944D01*
X135663378Y-66708851D01*
X135663379Y-66708852D01*
X135737847Y-66791557D01*
X135786747Y-66845866D01*
X135799995Y-66855491D01*
X135933516Y-66952500D01*
X135941248Y-66958118D01*
X135947276Y-66960802D01*
X135947278Y-66960803D01*
X136109681Y-67033109D01*
X136115712Y-67035794D01*
X136204954Y-67054763D01*
X136296056Y-67074128D01*
X136296061Y-67074128D01*
X136302513Y-67075500D01*
X136493487Y-67075500D01*
X136499939Y-67074128D01*
X136499944Y-67074128D01*
X136591046Y-67054763D01*
X136680288Y-67035794D01*
X136686319Y-67033109D01*
X136848722Y-66960803D01*
X136848724Y-66960802D01*
X136854752Y-66958118D01*
X136862485Y-66952500D01*
X136996005Y-66855491D01*
X137009253Y-66845866D01*
X137058153Y-66791557D01*
X137132621Y-66708852D01*
X137132622Y-66708851D01*
X137137040Y-66703944D01*
X137232527Y-66538556D01*
X137291542Y-66356928D01*
X137294304Y-66330654D01*
X137310814Y-66173565D01*
X137311504Y-66167000D01*
X137291542Y-65977072D01*
X137290064Y-65972523D01*
X137287500Y-65948133D01*
X137287500Y-60364410D01*
X137307502Y-60296289D01*
X137361158Y-60249796D01*
X137431432Y-60239692D01*
X137496012Y-60269186D01*
X137527508Y-60310762D01*
X137575750Y-60413283D01*
X137575754Y-60413290D01*
X137577438Y-60416869D01*
X137746568Y-60683375D01*
X137749093Y-60686427D01*
X137925388Y-60899530D01*
X137947767Y-60926582D01*
X138177860Y-61142654D01*
X138433221Y-61328184D01*
X138436690Y-61330091D01*
X138436693Y-61330093D01*
X138706352Y-61478340D01*
X138709821Y-61480247D01*
X138713490Y-61481700D01*
X138713495Y-61481702D01*
X138991172Y-61591642D01*
X139003298Y-61596443D01*
X139309025Y-61674940D01*
X139622179Y-61714500D01*
X139937821Y-61714500D01*
X139941752Y-61714003D01*
X139945698Y-61713755D01*
X139945768Y-61714865D01*
X140011099Y-61725398D01*
X140063954Y-61772799D01*
X140082791Y-61841251D01*
X140061630Y-61909021D01*
X140017510Y-61949516D01*
X139787000Y-62076241D01*
X139773221Y-62083816D01*
X139602988Y-62207497D01*
X139554098Y-62243018D01*
X139517860Y-62269346D01*
X139396078Y-62383707D01*
X139292045Y-62481401D01*
X139287767Y-62485418D01*
X139086568Y-62728625D01*
X138917438Y-62995131D01*
X138915754Y-62998710D01*
X138915750Y-62998717D01*
X138794337Y-63256734D01*
X138783044Y-63280734D01*
X138685505Y-63580928D01*
X138626359Y-63890980D01*
X138606540Y-64206000D01*
X138626359Y-64521020D01*
X138685505Y-64831072D01*
X138783044Y-65131266D01*
X138784731Y-65134852D01*
X138784733Y-65134856D01*
X138915750Y-65413283D01*
X138915754Y-65413290D01*
X138917438Y-65416869D01*
X139086568Y-65683375D01*
X139116715Y-65719816D01*
X139265388Y-65899530D01*
X139287767Y-65926582D01*
X139517860Y-66142654D01*
X139521062Y-66144981D01*
X139521064Y-66144982D01*
X139560405Y-66173565D01*
X139773221Y-66328184D01*
X139776690Y-66330091D01*
X139776693Y-66330093D01*
X140008812Y-66457702D01*
X140049821Y-66480247D01*
X140053490Y-66481700D01*
X140053495Y-66481702D01*
X140339628Y-66594990D01*
X140343298Y-66596443D01*
X140649025Y-66674940D01*
X140962179Y-66714500D01*
X141277821Y-66714500D01*
X141590975Y-66674940D01*
X141896702Y-66596443D01*
X141900372Y-66594990D01*
X142186505Y-66481702D01*
X142186510Y-66481700D01*
X142190179Y-66480247D01*
X142231188Y-66457702D01*
X142463307Y-66330093D01*
X142463310Y-66330091D01*
X142466779Y-66328184D01*
X142469977Y-66325861D01*
X142469981Y-66325858D01*
X142491539Y-66310195D01*
X142522750Y-66287518D01*
X142589616Y-66263661D01*
X142658768Y-66279741D01*
X142708248Y-66330654D01*
X142722348Y-66400237D01*
X142703195Y-66456969D01*
X142614060Y-66597424D01*
X142577438Y-66655131D01*
X142575754Y-66658710D01*
X142575750Y-66658717D01*
X142445802Y-66934872D01*
X142443044Y-66940734D01*
X142345505Y-67240928D01*
X142286359Y-67550980D01*
X142266540Y-67866000D01*
X142286359Y-68181020D01*
X142345505Y-68491072D01*
X142346732Y-68494848D01*
X142429353Y-68749128D01*
X142443044Y-68791266D01*
X142444731Y-68794852D01*
X142444733Y-68794856D01*
X142575750Y-69073283D01*
X142575754Y-69073290D01*
X142577438Y-69076869D01*
X142746568Y-69343375D01*
X142749093Y-69346427D01*
X142851464Y-69470173D01*
X142879474Y-69535411D01*
X142867767Y-69605435D01*
X142843474Y-69639583D01*
X139213426Y-73269631D01*
X139198393Y-73282471D01*
X139088747Y-73362134D01*
X138960960Y-73504056D01*
X138865473Y-73669444D01*
X138806458Y-73851072D01*
X138786496Y-74041000D01*
X138806458Y-74230928D01*
X138865473Y-74412556D01*
X138960960Y-74577944D01*
X139088747Y-74719866D01*
X139243248Y-74832118D01*
X139249276Y-74834802D01*
X139249278Y-74834803D01*
X139411681Y-74907109D01*
X139417712Y-74909794D01*
X139511112Y-74929647D01*
X139598056Y-74948128D01*
X139598061Y-74948128D01*
X139604513Y-74949500D01*
X139795487Y-74949500D01*
X139801939Y-74948128D01*
X139801944Y-74948128D01*
X139888888Y-74929647D01*
X139982288Y-74909794D01*
X139988319Y-74907109D01*
X140150722Y-74834803D01*
X140150724Y-74834802D01*
X140156752Y-74832118D01*
X140311253Y-74719866D01*
X140439040Y-74577944D01*
X140455394Y-74549619D01*
X140475416Y-74523527D01*
X144587538Y-70411405D01*
X144649850Y-70377379D01*
X144676633Y-70374500D01*
X144937821Y-70374500D01*
X145250975Y-70334940D01*
X145556702Y-70256443D01*
X145560372Y-70254990D01*
X145846505Y-70141702D01*
X145846510Y-70141700D01*
X145850179Y-70140247D01*
X145866515Y-70131266D01*
X146123307Y-69990093D01*
X146123310Y-69990091D01*
X146126779Y-69988184D01*
X146382140Y-69802654D01*
X146612233Y-69586582D01*
X146634613Y-69559530D01*
X146810907Y-69346427D01*
X146813432Y-69343375D01*
X146982562Y-69076869D01*
X146984246Y-69073290D01*
X146984250Y-69073283D01*
X147038513Y-68957967D01*
X147085616Y-68904846D01*
X147153960Y-68885623D01*
X147221848Y-68906402D01*
X147267725Y-68960585D01*
X147278272Y-69019526D01*
X147266540Y-69206000D01*
X147286359Y-69521020D01*
X147345505Y-69831072D01*
X147443044Y-70131266D01*
X147444731Y-70134852D01*
X147444733Y-70134856D01*
X147575750Y-70413283D01*
X147575754Y-70413290D01*
X147577438Y-70416869D01*
X147746568Y-70683375D01*
X147749093Y-70686427D01*
X147925388Y-70899530D01*
X147947767Y-70926582D01*
X148177860Y-71142654D01*
X148433221Y-71328184D01*
X148436690Y-71330091D01*
X148436693Y-71330093D01*
X148666165Y-71456247D01*
X148709821Y-71480247D01*
X148713490Y-71481700D01*
X148713495Y-71481702D01*
X148999628Y-71594990D01*
X149003298Y-71596443D01*
X149309025Y-71674940D01*
X149622179Y-71714500D01*
X149937821Y-71714500D01*
X150250975Y-71674940D01*
X150556702Y-71596443D01*
X150560372Y-71594990D01*
X150846505Y-71481702D01*
X150846510Y-71481700D01*
X150850179Y-71480247D01*
X150893835Y-71456247D01*
X151123307Y-71330093D01*
X151123310Y-71330091D01*
X151126779Y-71328184D01*
X151382140Y-71142654D01*
X151612233Y-70926582D01*
X151634613Y-70899530D01*
X151810907Y-70686427D01*
X151813432Y-70683375D01*
X151982562Y-70416869D01*
X151984246Y-70413290D01*
X151984250Y-70413283D01*
X152115267Y-70134856D01*
X152115269Y-70134852D01*
X152116956Y-70131266D01*
X152214495Y-69831072D01*
X152273641Y-69521020D01*
X152293460Y-69206000D01*
X152281728Y-69019526D01*
X152297413Y-68950284D01*
X152348043Y-68900514D01*
X152417544Y-68886018D01*
X152483849Y-68911397D01*
X152521487Y-68957967D01*
X152575750Y-69073283D01*
X152575754Y-69073290D01*
X152577438Y-69076869D01*
X152746568Y-69343375D01*
X152749093Y-69346427D01*
X152925388Y-69559530D01*
X152947767Y-69586582D01*
X153177860Y-69802654D01*
X153433221Y-69988184D01*
X153436690Y-69990091D01*
X153436693Y-69990093D01*
X153693485Y-70131266D01*
X153709821Y-70140247D01*
X153713490Y-70141700D01*
X153713495Y-70141702D01*
X153999628Y-70254990D01*
X154003298Y-70256443D01*
X154309025Y-70334940D01*
X154622179Y-70374500D01*
X154937821Y-70374500D01*
X155250975Y-70334940D01*
X155556702Y-70256443D01*
X155560372Y-70254990D01*
X155846505Y-70141702D01*
X155846510Y-70141700D01*
X155850179Y-70140247D01*
X155866515Y-70131266D01*
X156123307Y-69990093D01*
X156123310Y-69990091D01*
X156126779Y-69988184D01*
X156382140Y-69802654D01*
X156612233Y-69586582D01*
X156634613Y-69559530D01*
X156810907Y-69346427D01*
X156813432Y-69343375D01*
X156982562Y-69076869D01*
X156984246Y-69073290D01*
X156984250Y-69073283D01*
X157115267Y-68794856D01*
X157115269Y-68794852D01*
X157116956Y-68791266D01*
X157130648Y-68749128D01*
X157213268Y-68494848D01*
X157214495Y-68491072D01*
X157273641Y-68181020D01*
X157293460Y-67866000D01*
X157273641Y-67550980D01*
X157214495Y-67240928D01*
X157116956Y-66940734D01*
X157114198Y-66934872D01*
X156984250Y-66658717D01*
X156984246Y-66658710D01*
X156982562Y-66655131D01*
X156945940Y-66597424D01*
X156856805Y-66456969D01*
X156837192Y-66388735D01*
X156857583Y-66320730D01*
X156911503Y-66274544D01*
X156981834Y-66264842D01*
X157037249Y-66287518D01*
X157068461Y-66310195D01*
X157090019Y-66325858D01*
X157090023Y-66325861D01*
X157093221Y-66328184D01*
X157096690Y-66330091D01*
X157096693Y-66330093D01*
X157328812Y-66457702D01*
X157369821Y-66480247D01*
X157373490Y-66481700D01*
X157373495Y-66481702D01*
X157659628Y-66594990D01*
X157663298Y-66596443D01*
X157969025Y-66674940D01*
X158282179Y-66714500D01*
X158597821Y-66714500D01*
X158910975Y-66674940D01*
X159216702Y-66596443D01*
X159220372Y-66594990D01*
X159506505Y-66481702D01*
X159506510Y-66481700D01*
X159510179Y-66480247D01*
X159551188Y-66457702D01*
X159783307Y-66330093D01*
X159783310Y-66330091D01*
X159786779Y-66328184D01*
X159999595Y-66173565D01*
X160038936Y-66144982D01*
X160038938Y-66144981D01*
X160042140Y-66142654D01*
X160272233Y-65926582D01*
X160294613Y-65899530D01*
X160443285Y-65719816D01*
X160473432Y-65683375D01*
X160642562Y-65416869D01*
X160644246Y-65413290D01*
X160644250Y-65413283D01*
X160775267Y-65134856D01*
X160775269Y-65134852D01*
X160776956Y-65131266D01*
X160874495Y-64831072D01*
X160933641Y-64521020D01*
X160953460Y-64206000D01*
X160933641Y-63890980D01*
X160874495Y-63580928D01*
X160776956Y-63280734D01*
X160765663Y-63256734D01*
X160644250Y-62998717D01*
X160644246Y-62998710D01*
X160642562Y-62995131D01*
X160473432Y-62728625D01*
X160272233Y-62485418D01*
X160267956Y-62481401D01*
X160163922Y-62383707D01*
X160042140Y-62269346D01*
X160005903Y-62243018D01*
X159957012Y-62207497D01*
X159786779Y-62083816D01*
X159773001Y-62076241D01*
X159542490Y-61949516D01*
X159492431Y-61899171D01*
X159477538Y-61829754D01*
X159502539Y-61763305D01*
X159559496Y-61720921D01*
X159614246Y-61714641D01*
X159614302Y-61713755D01*
X159618248Y-61714003D01*
X159622179Y-61714500D01*
X159937821Y-61714500D01*
X160250975Y-61674940D01*
X160556702Y-61596443D01*
X160568828Y-61591642D01*
X160846505Y-61481702D01*
X160846510Y-61481700D01*
X160850179Y-61480247D01*
X160853648Y-61478340D01*
X161123307Y-61330093D01*
X161123310Y-61330091D01*
X161126779Y-61328184D01*
X161382140Y-61142654D01*
X161612233Y-60926582D01*
X161634613Y-60899530D01*
X161810907Y-60686427D01*
X161813432Y-60683375D01*
X161982562Y-60416869D01*
X161984246Y-60413290D01*
X161984250Y-60413283D01*
X162115267Y-60134856D01*
X162115269Y-60134852D01*
X162116956Y-60131266D01*
X162214495Y-59831072D01*
X162273641Y-59521020D01*
X162293460Y-59206000D01*
X162273641Y-58890980D01*
X162214495Y-58580928D01*
X162116956Y-58280734D01*
X162105663Y-58256734D01*
X161984250Y-57998717D01*
X161984246Y-57998710D01*
X161982562Y-57995131D01*
X161813432Y-57728625D01*
X161612233Y-57485418D01*
X161583785Y-57458703D01*
X161435941Y-57319869D01*
X161382140Y-57269346D01*
X161345903Y-57243018D01*
X161326369Y-57228826D01*
X161126779Y-57083816D01*
X161087357Y-57062143D01*
X160853648Y-56933660D01*
X160853647Y-56933659D01*
X160850179Y-56931753D01*
X160846510Y-56930300D01*
X160846505Y-56930298D01*
X160560372Y-56817010D01*
X160560371Y-56817010D01*
X160556702Y-56815557D01*
X160250975Y-56737060D01*
X159937821Y-56697500D01*
X159622179Y-56697500D01*
X159618248Y-56697997D01*
X159614302Y-56698245D01*
X159614232Y-56697135D01*
X159548901Y-56686602D01*
X159496046Y-56639201D01*
X159477209Y-56570749D01*
X159498370Y-56502979D01*
X159542490Y-56462484D01*
X159783307Y-56330093D01*
X159783310Y-56330091D01*
X159786779Y-56328184D01*
X160042140Y-56142654D01*
X160272233Y-55926582D01*
X160294613Y-55899530D01*
X160470907Y-55686427D01*
X160473432Y-55683375D01*
X160642562Y-55416869D01*
X160644246Y-55413290D01*
X160644250Y-55413283D01*
X160775267Y-55134856D01*
X160775269Y-55134852D01*
X160776956Y-55131266D01*
X160874495Y-54831072D01*
X160933641Y-54521020D01*
X160953460Y-54206000D01*
X160933641Y-53890980D01*
X160874495Y-53580928D01*
X160776956Y-53280734D01*
X160765663Y-53256734D01*
X160644250Y-52998717D01*
X160644246Y-52998710D01*
X160642562Y-52995131D01*
X160473432Y-52728625D01*
X160359201Y-52590544D01*
X160274758Y-52488470D01*
X160274757Y-52488469D01*
X160272233Y-52485418D01*
X160256947Y-52471063D01*
X160226061Y-52442060D01*
X160042140Y-52269346D01*
X160005903Y-52243018D01*
X159986369Y-52228826D01*
X159786779Y-52083816D01*
X159782287Y-52081346D01*
X159513648Y-51933660D01*
X159513647Y-51933659D01*
X159510179Y-51931753D01*
X159506510Y-51930300D01*
X159506505Y-51930298D01*
X159220372Y-51817010D01*
X159220371Y-51817010D01*
X159216702Y-51815557D01*
X158910975Y-51737060D01*
X158597821Y-51697500D01*
X158282179Y-51697500D01*
X157969025Y-51737060D01*
X157663298Y-51815557D01*
X157659629Y-51817010D01*
X157659628Y-51817010D01*
X157373495Y-51930298D01*
X157373490Y-51930300D01*
X157369821Y-51931753D01*
X157366353Y-51933659D01*
X157366352Y-51933660D01*
X157097714Y-52081346D01*
X157093221Y-52083816D01*
X157090023Y-52086139D01*
X157090019Y-52086142D01*
X157068461Y-52101805D01*
X157037250Y-52124482D01*
X156970384Y-52148339D01*
X156901232Y-52132259D01*
X156851752Y-52081346D01*
X156837652Y-52011763D01*
X156856805Y-51955031D01*
X156980438Y-51760216D01*
X156980438Y-51760215D01*
X156982562Y-51756869D01*
X156984246Y-51753290D01*
X156984250Y-51753283D01*
X157115267Y-51474856D01*
X157115269Y-51474852D01*
X157116956Y-51471266D01*
X157214495Y-51171072D01*
X157273641Y-50861020D01*
X157293460Y-50546000D01*
X157273641Y-50230980D01*
X157214495Y-49920928D01*
X157116956Y-49620734D01*
X157105663Y-49596734D01*
X156984250Y-49338717D01*
X156984246Y-49338710D01*
X156982562Y-49335131D01*
X156813432Y-49068625D01*
X156612233Y-48825418D01*
X156382140Y-48609346D01*
X156126779Y-48423816D01*
X155873379Y-48284507D01*
X155853648Y-48273660D01*
X155853647Y-48273659D01*
X155850179Y-48271753D01*
X155846510Y-48270300D01*
X155846505Y-48270298D01*
X155560372Y-48157010D01*
X155560371Y-48157010D01*
X155556702Y-48155557D01*
X155250975Y-48077060D01*
X154937821Y-48037500D01*
X154622179Y-48037500D01*
X154309025Y-48077060D01*
X154003298Y-48155557D01*
X153999629Y-48157010D01*
X153999628Y-48157010D01*
X153713495Y-48270298D01*
X153713490Y-48270300D01*
X153709821Y-48271753D01*
X153706353Y-48273659D01*
X153706352Y-48273660D01*
X153686622Y-48284507D01*
X153433221Y-48423816D01*
X153177860Y-48609346D01*
X152947767Y-48825418D01*
X152746568Y-49068625D01*
X152577438Y-49335131D01*
X152575754Y-49338710D01*
X152575750Y-49338717D01*
X152521487Y-49454033D01*
X152474384Y-49507154D01*
X152406040Y-49526377D01*
X152338152Y-49505598D01*
X152292275Y-49451415D01*
X152281728Y-49392473D01*
X152283759Y-49360201D01*
X152293460Y-49206000D01*
X152273641Y-48890980D01*
X152214495Y-48580928D01*
X152116956Y-48280734D01*
X152115267Y-48277144D01*
X151984250Y-47998717D01*
X151984246Y-47998710D01*
X151982562Y-47995131D01*
X151813432Y-47728625D01*
X151612233Y-47485418D01*
X151382140Y-47269346D01*
X151126779Y-47083816D01*
X150850179Y-46931753D01*
X150846510Y-46930300D01*
X150846505Y-46930298D01*
X150749116Y-46891739D01*
X150693142Y-46848064D01*
X150669500Y-46774587D01*
X150669500Y-46481925D01*
X150671051Y-46462214D01*
X150672142Y-46455327D01*
X150672142Y-46455325D01*
X150673174Y-46448810D01*
X150669673Y-46382001D01*
X150669500Y-46375407D01*
X150669500Y-46355380D01*
X150667407Y-46335461D01*
X150666890Y-46328887D01*
X150663735Y-46268684D01*
X150663735Y-46268682D01*
X150663389Y-46262085D01*
X150659875Y-46248972D01*
X150656272Y-46229529D01*
X150655546Y-46222615D01*
X150655545Y-46222611D01*
X150654855Y-46216044D01*
X150634182Y-46152418D01*
X150632309Y-46146094D01*
X150620800Y-46103144D01*
X150614994Y-46081476D01*
X150608833Y-46069384D01*
X150601269Y-46051123D01*
X150599116Y-46044497D01*
X150597075Y-46038215D01*
X150563624Y-45980276D01*
X150560477Y-45974480D01*
X150558699Y-45970991D01*
X150530107Y-45914875D01*
X150521568Y-45904330D01*
X150510375Y-45888045D01*
X150506884Y-45881998D01*
X150506881Y-45881995D01*
X150503585Y-45876285D01*
X150499173Y-45871385D01*
X150499170Y-45871381D01*
X150458825Y-45826575D01*
X150454537Y-45821554D01*
X150444014Y-45808559D01*
X150441937Y-45805994D01*
X150427790Y-45791847D01*
X150423249Y-45787063D01*
X150382885Y-45742234D01*
X150382883Y-45742233D01*
X150378470Y-45737331D01*
X150367482Y-45729348D01*
X150352454Y-45716511D01*
X148837646Y-44201703D01*
X162101743Y-44201703D01*
X162139268Y-44486734D01*
X162215129Y-44764036D01*
X162216813Y-44767984D01*
X162290840Y-44941536D01*
X162327923Y-45028476D01*
X162475561Y-45275161D01*
X162655313Y-45499528D01*
X162863851Y-45697423D01*
X163018513Y-45808559D01*
X163086990Y-45857765D01*
X163097317Y-45865186D01*
X163101112Y-45867195D01*
X163101113Y-45867196D01*
X163122869Y-45878715D01*
X163351392Y-45999712D01*
X163371977Y-46007245D01*
X163574823Y-46081476D01*
X163621373Y-46098511D01*
X163902264Y-46159755D01*
X163930841Y-46162004D01*
X164125282Y-46177307D01*
X164125291Y-46177307D01*
X164127739Y-46177500D01*
X164283271Y-46177500D01*
X164285407Y-46177354D01*
X164285418Y-46177354D01*
X164493548Y-46163165D01*
X164493554Y-46163164D01*
X164497825Y-46162873D01*
X164502020Y-46162004D01*
X164502022Y-46162004D01*
X164638583Y-46133724D01*
X164779342Y-46104574D01*
X165050343Y-46008607D01*
X165305812Y-45876750D01*
X165309313Y-45874289D01*
X165309317Y-45874287D01*
X165504185Y-45737331D01*
X165541023Y-45711441D01*
X165707388Y-45556845D01*
X165748479Y-45518661D01*
X165748481Y-45518658D01*
X165751622Y-45515740D01*
X165933713Y-45293268D01*
X166083927Y-45048142D01*
X166146568Y-44905443D01*
X166197757Y-44788830D01*
X166199483Y-44784898D01*
X166278244Y-44508406D01*
X166318751Y-44223784D01*
X166318845Y-44205951D01*
X166320235Y-43940583D01*
X166320235Y-43940576D01*
X166320257Y-43936297D01*
X166282732Y-43651266D01*
X166206871Y-43373964D01*
X166140458Y-43218261D01*
X166095763Y-43113476D01*
X166095761Y-43113472D01*
X166094077Y-43109524D01*
X165994322Y-42942845D01*
X165948643Y-42866521D01*
X165948640Y-42866517D01*
X165946439Y-42862839D01*
X165766687Y-42638472D01*
X165607997Y-42487881D01*
X165561258Y-42443527D01*
X165561255Y-42443525D01*
X165558149Y-42440577D01*
X165324683Y-42272814D01*
X165302843Y-42261250D01*
X165279654Y-42248972D01*
X165070608Y-42138288D01*
X164800627Y-42039489D01*
X164519736Y-41978245D01*
X164488685Y-41975801D01*
X164296718Y-41960693D01*
X164296709Y-41960693D01*
X164294261Y-41960500D01*
X164138729Y-41960500D01*
X164136593Y-41960646D01*
X164136582Y-41960646D01*
X163928452Y-41974835D01*
X163928446Y-41974836D01*
X163924175Y-41975127D01*
X163919980Y-41975996D01*
X163919978Y-41975996D01*
X163783416Y-42004277D01*
X163642658Y-42033426D01*
X163371657Y-42129393D01*
X163116188Y-42261250D01*
X163112687Y-42263711D01*
X163112683Y-42263713D01*
X163102594Y-42270804D01*
X162880977Y-42426559D01*
X162833908Y-42470298D01*
X162674344Y-42618575D01*
X162670378Y-42622260D01*
X162488287Y-42844732D01*
X162338073Y-43089858D01*
X162222517Y-43353102D01*
X162221342Y-43357229D01*
X162221341Y-43357230D01*
X162207166Y-43406991D01*
X162143756Y-43629594D01*
X162103249Y-43914216D01*
X162103227Y-43918505D01*
X162103226Y-43918512D01*
X162101765Y-44197417D01*
X162101743Y-44201703D01*
X148837646Y-44201703D01*
X147370489Y-42734546D01*
X147357652Y-42719518D01*
X147349669Y-42708530D01*
X147299937Y-42663751D01*
X147295153Y-42659210D01*
X147281006Y-42645063D01*
X147265446Y-42632463D01*
X147260425Y-42628175D01*
X147252847Y-42621351D01*
X147245425Y-42614669D01*
X147215619Y-42587830D01*
X147215615Y-42587827D01*
X147210715Y-42583415D01*
X147205005Y-42580119D01*
X147205002Y-42580116D01*
X147198955Y-42576625D01*
X147182670Y-42565432D01*
X147172125Y-42556893D01*
X147112518Y-42526522D01*
X147106724Y-42523376D01*
X147100975Y-42520057D01*
X147048785Y-42489925D01*
X147035875Y-42485730D01*
X147017614Y-42478166D01*
X147005524Y-42472006D01*
X146940906Y-42454691D01*
X146934582Y-42452818D01*
X146925981Y-42450023D01*
X146870956Y-42432145D01*
X146864389Y-42431455D01*
X146864385Y-42431454D01*
X146858712Y-42430858D01*
X146857470Y-42430728D01*
X146838028Y-42427125D01*
X146832761Y-42425714D01*
X146831293Y-42425320D01*
X146831292Y-42425320D01*
X146824915Y-42423611D01*
X146818318Y-42423265D01*
X146818316Y-42423265D01*
X146758113Y-42420110D01*
X146751539Y-42419593D01*
X146734895Y-42417844D01*
X146734891Y-42417844D01*
X146731620Y-42417500D01*
X146711593Y-42417500D01*
X146704999Y-42417327D01*
X146644782Y-42414171D01*
X146644778Y-42414171D01*
X146638190Y-42413826D01*
X146631675Y-42414858D01*
X146631673Y-42414858D01*
X146624786Y-42415949D01*
X146605075Y-42417500D01*
X114633924Y-42417500D01*
X114614213Y-42415949D01*
X114607326Y-42414858D01*
X114607324Y-42414858D01*
X114600809Y-42413826D01*
X114594222Y-42414171D01*
X114594217Y-42414171D01*
X114534007Y-42417327D01*
X114527413Y-42417500D01*
X114507380Y-42417500D01*
X114494706Y-42418832D01*
X114487455Y-42419594D01*
X114480881Y-42420111D01*
X114420680Y-42423266D01*
X114420677Y-42423266D01*
X114414084Y-42423612D01*
X114407705Y-42425321D01*
X114407706Y-42425321D01*
X114400976Y-42427124D01*
X114381543Y-42430725D01*
X114374618Y-42431453D01*
X114374609Y-42431455D01*
X114368044Y-42432145D01*
X114304412Y-42452820D01*
X114298111Y-42454687D01*
X114233475Y-42472006D01*
X114227595Y-42475002D01*
X114227590Y-42475004D01*
X114221385Y-42478166D01*
X114203121Y-42485731D01*
X114196504Y-42487881D01*
X114196499Y-42487883D01*
X114190215Y-42489925D01*
X114136436Y-42520974D01*
X114132276Y-42523376D01*
X114126481Y-42526522D01*
X114072762Y-42553894D01*
X114072759Y-42553896D01*
X114066875Y-42556894D01*
X114061743Y-42561050D01*
X114061740Y-42561052D01*
X114056329Y-42565433D01*
X114040044Y-42576626D01*
X114028285Y-42583415D01*
X113986154Y-42621351D01*
X113978555Y-42628193D01*
X113973546Y-42632471D01*
X113957994Y-42645064D01*
X113943857Y-42659201D01*
X113939073Y-42663742D01*
X113889331Y-42708530D01*
X113881348Y-42719518D01*
X113868511Y-42734547D01*
X113572378Y-43030679D01*
X113510066Y-43064704D01*
X113439250Y-43059639D01*
X113382415Y-43017092D01*
X113368670Y-42993926D01*
X113348091Y-42948865D01*
X113348088Y-42948859D01*
X113346219Y-42944767D01*
X113268201Y-42823368D01*
X113172490Y-42712910D01*
X113113223Y-42661554D01*
X113066827Y-42621351D01*
X113066822Y-42621348D01*
X113063430Y-42618408D01*
X112967711Y-42556893D01*
X112944257Y-42541820D01*
X112944256Y-42541819D01*
X112940471Y-42539387D01*
X112809204Y-42479440D01*
X112718526Y-42452815D01*
X112673281Y-42439530D01*
X112673280Y-42439530D01*
X112668969Y-42438264D01*
X112664529Y-42437626D01*
X112664526Y-42437625D01*
X112528352Y-42418046D01*
X112528343Y-42418045D01*
X112526131Y-42417727D01*
X112523898Y-42417567D01*
X112523886Y-42417566D01*
X112464749Y-42413337D01*
X112453052Y-42412500D01*
X110997602Y-42412500D01*
X110960668Y-42413830D01*
X110927466Y-42416224D01*
X110891298Y-42418832D01*
X110891291Y-42418833D01*
X110887920Y-42419076D01*
X110884585Y-42419681D01*
X110884583Y-42419681D01*
X110862906Y-42423612D01*
X110779598Y-42438719D01*
X110776358Y-42439674D01*
X110776356Y-42439675D01*
X110645507Y-42478265D01*
X110641184Y-42479540D01*
X110611308Y-42493227D01*
X110512401Y-42538538D01*
X110512397Y-42538540D01*
X110508309Y-42540413D01*
X110387003Y-42618575D01*
X110276659Y-42714418D01*
X110273719Y-42717819D01*
X110273716Y-42717822D01*
X110185229Y-42820186D01*
X110185226Y-42820191D01*
X110182287Y-42823590D01*
X110179860Y-42827376D01*
X110179858Y-42827379D01*
X110107041Y-42940980D01*
X110103414Y-42946638D01*
X110043622Y-43077975D01*
X110022355Y-43150722D01*
X110003871Y-43213949D01*
X110003869Y-43213956D01*
X110002611Y-43218261D01*
X109982243Y-43361124D01*
X109977102Y-43434210D01*
X109977448Y-43725888D01*
X109978708Y-44788830D01*
X109978825Y-44887937D01*
X109979163Y-44905968D01*
X109980455Y-44941536D01*
X109991852Y-45032046D01*
X109992444Y-45034768D01*
X109992446Y-45034779D01*
X110021569Y-45168658D01*
X110021571Y-45168665D01*
X110022526Y-45173055D01*
X110073604Y-45310001D01*
X110142764Y-45436657D01*
X110230352Y-45553660D01*
X110332392Y-45655700D01*
X110449395Y-45743288D01*
X110453350Y-45745447D01*
X110453349Y-45745447D01*
X110567104Y-45807563D01*
X110617306Y-45857765D01*
X110632397Y-45927140D01*
X110607586Y-45993660D01*
X110595813Y-46007245D01*
X107397057Y-49206000D01*
X104202546Y-52400511D01*
X104187518Y-52413348D01*
X104176530Y-52421331D01*
X104172117Y-52426233D01*
X104172115Y-52426234D01*
X104131751Y-52471063D01*
X104127210Y-52475847D01*
X104113063Y-52489994D01*
X104110986Y-52492559D01*
X104100463Y-52505554D01*
X104096175Y-52510575D01*
X104055830Y-52555381D01*
X104055827Y-52555385D01*
X104051415Y-52560285D01*
X104048119Y-52565995D01*
X104048116Y-52565998D01*
X104044625Y-52572045D01*
X104033432Y-52588330D01*
X104024893Y-52598875D01*
X104000549Y-52646654D01*
X103994523Y-52658480D01*
X103991376Y-52664276D01*
X103957925Y-52722215D01*
X103953731Y-52735123D01*
X103946167Y-52753384D01*
X103940006Y-52765476D01*
X103932272Y-52794340D01*
X103922691Y-52830094D01*
X103920818Y-52836418D01*
X103900145Y-52900044D01*
X103899455Y-52906611D01*
X103899454Y-52906615D01*
X103898728Y-52913529D01*
X103895125Y-52932972D01*
X103891611Y-52946085D01*
X103891265Y-52952682D01*
X103891265Y-52952684D01*
X103888110Y-53012887D01*
X103887593Y-53019461D01*
X103885500Y-53039380D01*
X103885500Y-53059407D01*
X103885327Y-53066001D01*
X103881826Y-53132810D01*
X103882858Y-53139325D01*
X103882858Y-53139327D01*
X103883949Y-53146214D01*
X103885500Y-53165925D01*
X103885500Y-61515075D01*
X103883949Y-61534785D01*
X103881826Y-61548190D01*
X102104761Y-61548190D01*
X102104761Y-44201703D01*
X102919743Y-44201703D01*
X102957268Y-44486734D01*
X103033129Y-44764036D01*
X103034813Y-44767984D01*
X103108840Y-44941536D01*
X103145923Y-45028476D01*
X103293561Y-45275161D01*
X103473313Y-45499528D01*
X103681851Y-45697423D01*
X103836513Y-45808559D01*
X103904990Y-45857765D01*
X103915317Y-45865186D01*
X103919112Y-45867195D01*
X103919113Y-45867196D01*
X103940869Y-45878715D01*
X104169392Y-45999712D01*
X104189977Y-46007245D01*
X104392823Y-46081476D01*
X104439373Y-46098511D01*
X104720264Y-46159755D01*
X104748841Y-46162004D01*
X104943282Y-46177307D01*
X104943291Y-46177307D01*
X104945739Y-46177500D01*
X105101271Y-46177500D01*
X105103407Y-46177354D01*
X105103418Y-46177354D01*
X105311548Y-46163165D01*
X105311554Y-46163164D01*
X105315825Y-46162873D01*
X105320020Y-46162004D01*
X105320022Y-46162004D01*
X105456583Y-46133724D01*
X105597342Y-46104574D01*
X105868343Y-46008607D01*
X106123812Y-45876750D01*
X106127313Y-45874289D01*
X106127317Y-45874287D01*
X106322185Y-45737331D01*
X106359023Y-45711441D01*
X106525388Y-45556845D01*
X106566479Y-45518661D01*
X106566481Y-45518658D01*
X106569622Y-45515740D01*
X106751713Y-45293268D01*
X106901927Y-45048142D01*
X106964568Y-44905443D01*
X107015757Y-44788830D01*
X107017483Y-44784898D01*
X107096244Y-44508406D01*
X107136751Y-44223784D01*
X107136845Y-44205951D01*
X107138235Y-43940583D01*
X107138235Y-43940576D01*
X107138257Y-43936297D01*
X107100732Y-43651266D01*
X107024871Y-43373964D01*
X106958458Y-43218261D01*
X106913763Y-43113476D01*
X106913761Y-43113472D01*
X106912077Y-43109524D01*
X106812322Y-42942845D01*
X106766643Y-42866521D01*
X106766640Y-42866517D01*
X106764439Y-42862839D01*
X106584687Y-42638472D01*
X106425997Y-42487881D01*
X106379258Y-42443527D01*
X106379255Y-42443525D01*
X106376149Y-42440577D01*
X106142683Y-42272814D01*
X106120843Y-42261250D01*
X106097654Y-42248972D01*
X105888608Y-42138288D01*
X105618627Y-42039489D01*
X105337736Y-41978245D01*
X105306685Y-41975801D01*
X105114718Y-41960693D01*
X105114709Y-41960693D01*
X105112261Y-41960500D01*
X104956729Y-41960500D01*
X104954593Y-41960646D01*
X104954582Y-41960646D01*
X104746452Y-41974835D01*
X104746446Y-41974836D01*
X104742175Y-41975127D01*
X104737980Y-41975996D01*
X104737978Y-41975996D01*
X104601416Y-42004277D01*
X104460658Y-42033426D01*
X104189657Y-42129393D01*
X103934188Y-42261250D01*
X103930687Y-42263711D01*
X103930683Y-42263713D01*
X103920594Y-42270804D01*
X103698977Y-42426559D01*
X103651908Y-42470298D01*
X103492344Y-42618575D01*
X103488378Y-42622260D01*
X103306287Y-42844732D01*
X103156073Y-43089858D01*
X103040517Y-43353102D01*
X103039342Y-43357229D01*
X103039341Y-43357230D01*
X103025166Y-43406991D01*
X102961756Y-43629594D01*
X102921249Y-43914216D01*
X102921227Y-43918505D01*
X102921226Y-43918512D01*
X102919765Y-44197417D01*
X102919743Y-44201703D01*
X102104761Y-44201703D01*
X102104761Y-43733633D01*
X102106262Y-43714245D01*
X102108571Y-43699421D01*
X102108571Y-43699412D01*
X102109952Y-43690544D01*
X102107599Y-43672548D01*
X102106733Y-43649148D01*
X102107143Y-43641861D01*
X102120336Y-43406991D01*
X102121917Y-43392961D01*
X102167257Y-43126129D01*
X102170393Y-43112392D01*
X102245318Y-42852329D01*
X102249983Y-42838996D01*
X102353554Y-42588957D01*
X102359685Y-42576227D01*
X102490591Y-42339373D01*
X102498108Y-42327409D01*
X102545050Y-42261250D01*
X102654723Y-42106681D01*
X102663521Y-42095650D01*
X102843861Y-41893850D01*
X102853851Y-41883860D01*
X103055650Y-41703521D01*
X103066681Y-41694723D01*
X103287409Y-41538108D01*
X103299373Y-41530591D01*
X103536227Y-41399685D01*
X103548957Y-41393554D01*
X103798996Y-41289983D01*
X103812329Y-41285318D01*
X104072392Y-41210393D01*
X104086129Y-41207257D01*
X104352961Y-41161917D01*
X104366992Y-41160336D01*
X104601861Y-41147143D01*
X104628309Y-41148445D01*
X104629115Y-41148570D01*
X104629116Y-41148570D01*
X104637992Y-41149952D01*
X104669549Y-41145825D01*
X104685888Y-41144761D01*
X164546367Y-41144761D01*
X164565755Y-41146262D01*
G37*
%TD.AperFunction*%
%TD*%
%TA.AperFunction,NonConductor*%
G36*
X102465417Y-40660002D02*
G01*
X102511910Y-40713658D01*
X102522014Y-40783932D01*
X102492520Y-40848512D01*
X102472357Y-40867202D01*
X102385330Y-40931746D01*
X102126414Y-41166414D01*
X101891746Y-41425330D01*
X101827204Y-41512355D01*
X101770558Y-41555154D01*
X101699766Y-41560535D01*
X101637303Y-41526788D01*
X101603000Y-41464628D01*
X101600000Y-41437296D01*
X101600000Y-40766000D01*
X101620002Y-40697879D01*
X101673658Y-40651386D01*
X101726000Y-40640000D01*
X102397296Y-40640000D01*
X102465417Y-40660002D01*
G37*
%TD.AperFunction*%
%TA.AperFunction,NonConductor*%
G36*
X167582121Y-40660002D02*
G01*
X167628614Y-40713658D01*
X167640000Y-40766000D01*
X167640000Y-41437296D01*
X167619998Y-41505417D01*
X167566342Y-41551910D01*
X167496068Y-41562014D01*
X167431488Y-41532520D01*
X167412796Y-41512355D01*
X167348254Y-41425330D01*
X167113586Y-41166414D01*
X166854670Y-40931746D01*
X166767644Y-40867203D01*
X166724846Y-40810558D01*
X166719465Y-40739766D01*
X166753212Y-40677303D01*
X166815372Y-40643000D01*
X166842704Y-40640000D01*
X167514000Y-40640000D01*
X167582121Y-40660002D01*
G37*
%TD.AperFunction*%
%TA.AperFunction,NonConductor*%
G36*
X148299804Y-46180215D02*
G01*
X148306498Y-46186441D01*
X148819177Y-46699120D01*
X148853203Y-46761432D01*
X148848138Y-46832247D01*
X148805591Y-46889083D01*
X148776467Y-46905366D01*
X148750148Y-46915787D01*
X148713500Y-46930296D01*
X148713495Y-46930298D01*
X148709821Y-46931753D01*
X148433221Y-47083816D01*
X148292406Y-47186124D01*
X148225538Y-47209983D01*
X148156387Y-47193902D01*
X148106906Y-47142988D01*
X148092345Y-47084335D01*
X148092345Y-47083816D01*
X148091403Y-46275683D01*
X148111326Y-46207539D01*
X148164927Y-46160983D01*
X148235189Y-46150798D01*
X148299804Y-46180215D01*
G37*
%TD.AperFunction*%
%TA.AperFunction,NonConductor*%
G36*
X126661435Y-51582502D02*
G01*
X126707928Y-51636158D01*
X126718032Y-51706432D01*
X126688538Y-51771012D01*
X126639698Y-51805652D01*
X126385495Y-51906298D01*
X126385490Y-51906300D01*
X126381821Y-51907753D01*
X126378353Y-51909659D01*
X126378352Y-51909660D01*
X126109714Y-52057346D01*
X126105221Y-52059816D01*
X126102023Y-52062139D01*
X126102019Y-52062142D01*
X126102018Y-52062143D01*
X126049250Y-52100482D01*
X125982384Y-52124339D01*
X125913232Y-52108259D01*
X125863752Y-52057346D01*
X125849652Y-51987763D01*
X125868805Y-51931031D01*
X125992438Y-51736216D01*
X125992438Y-51736215D01*
X125994562Y-51732869D01*
X126040685Y-51634852D01*
X126087787Y-51581731D01*
X126154693Y-51562500D01*
X126593314Y-51562500D01*
X126661435Y-51582502D01*
G37*
%TD.AperFunction*%
%TA.AperFunction,NonConductor*%
G36*
X143377249Y-52627518D02*
G01*
X143408461Y-52650195D01*
X143430019Y-52665858D01*
X143430023Y-52665861D01*
X143433221Y-52668184D01*
X143436690Y-52670091D01*
X143436693Y-52670093D01*
X143668812Y-52797702D01*
X143709821Y-52820247D01*
X143713490Y-52821700D01*
X143713495Y-52821702D01*
X143810884Y-52860261D01*
X143866858Y-52903936D01*
X143890500Y-52977413D01*
X143890500Y-54697367D01*
X143870498Y-54765488D01*
X143853595Y-54786462D01*
X143784113Y-54855944D01*
X143721801Y-54889970D01*
X143650986Y-54884905D01*
X143594150Y-54842358D01*
X143569339Y-54775838D01*
X143571250Y-54743239D01*
X143612897Y-54524918D01*
X143613641Y-54521020D01*
X143633460Y-54206000D01*
X143613641Y-53890980D01*
X143554495Y-53580928D01*
X143456956Y-53280734D01*
X143445663Y-53256734D01*
X143324250Y-52998717D01*
X143324246Y-52998710D01*
X143322562Y-52995131D01*
X143295624Y-52952684D01*
X143196805Y-52796969D01*
X143177192Y-52728735D01*
X143197583Y-52660730D01*
X143251503Y-52614544D01*
X143321834Y-52604842D01*
X143377249Y-52627518D01*
G37*
%TD.AperFunction*%
%TA.AperFunction,NonConductor*%
G36*
X142149294Y-50856644D02*
G01*
X142212072Y-50854793D01*
X142272903Y-50891401D01*
X142303919Y-50953073D01*
X142345505Y-51171072D01*
X142443044Y-51471266D01*
X142444731Y-51474852D01*
X142444733Y-51474856D01*
X142575750Y-51753283D01*
X142575754Y-51753290D01*
X142577438Y-51756869D01*
X142579562Y-51760215D01*
X142579562Y-51760216D01*
X142703195Y-51955031D01*
X142722808Y-52023265D01*
X142702417Y-52091270D01*
X142648497Y-52137456D01*
X142578166Y-52147158D01*
X142522751Y-52124482D01*
X142491539Y-52101805D01*
X142469981Y-52086142D01*
X142469977Y-52086139D01*
X142466779Y-52083816D01*
X142462287Y-52081346D01*
X142193648Y-51933660D01*
X142193647Y-51933659D01*
X142190179Y-51931753D01*
X142186510Y-51930300D01*
X142186505Y-51930298D01*
X141900372Y-51817010D01*
X141900371Y-51817010D01*
X141896702Y-51815557D01*
X141590975Y-51737060D01*
X141277821Y-51697500D01*
X140962179Y-51697500D01*
X140649025Y-51737060D01*
X140343298Y-51815557D01*
X140339629Y-51817010D01*
X140339628Y-51817010D01*
X140053495Y-51930298D01*
X140053490Y-51930300D01*
X140049821Y-51931753D01*
X140046353Y-51933659D01*
X140046352Y-51933660D01*
X139777714Y-52081346D01*
X139773221Y-52083816D01*
X139573631Y-52228826D01*
X139554098Y-52243018D01*
X139517860Y-52269346D01*
X139333939Y-52442060D01*
X139303054Y-52471063D01*
X139287767Y-52485418D01*
X139285243Y-52488469D01*
X139285242Y-52488470D01*
X139200799Y-52590544D01*
X139086568Y-52728625D01*
X138917438Y-52995131D01*
X138915754Y-52998710D01*
X138915750Y-52998717D01*
X138794337Y-53256734D01*
X138783044Y-53280734D01*
X138685505Y-53580928D01*
X138626359Y-53890980D01*
X138606540Y-54206000D01*
X138626359Y-54521020D01*
X138685505Y-54831072D01*
X138783044Y-55131266D01*
X138784731Y-55134852D01*
X138784733Y-55134856D01*
X138915750Y-55413283D01*
X138915754Y-55413290D01*
X138917438Y-55416869D01*
X139086568Y-55683375D01*
X139089093Y-55686427D01*
X139265388Y-55899530D01*
X139287767Y-55926582D01*
X139517860Y-56142654D01*
X139773221Y-56328184D01*
X139776690Y-56330091D01*
X139776693Y-56330093D01*
X140017510Y-56462484D01*
X140067569Y-56512829D01*
X140082462Y-56582246D01*
X140057461Y-56648695D01*
X140000504Y-56691079D01*
X139945754Y-56697359D01*
X139945698Y-56698245D01*
X139941752Y-56697997D01*
X139937821Y-56697500D01*
X139622179Y-56697500D01*
X139309025Y-56737060D01*
X139003298Y-56815557D01*
X138999629Y-56817010D01*
X138999628Y-56817010D01*
X138713495Y-56930298D01*
X138713490Y-56930300D01*
X138709821Y-56931753D01*
X138706353Y-56933659D01*
X138706352Y-56933660D01*
X138472644Y-57062143D01*
X138433221Y-57083816D01*
X138233631Y-57228826D01*
X138214098Y-57243018D01*
X138177860Y-57269346D01*
X138124059Y-57319869D01*
X137976216Y-57458703D01*
X137947767Y-57485418D01*
X137746568Y-57728625D01*
X137577438Y-57995131D01*
X137575754Y-57998710D01*
X137575750Y-57998717D01*
X137527508Y-58101238D01*
X137480406Y-58154359D01*
X137412061Y-58173582D01*
X137344173Y-58152803D01*
X137298296Y-58098620D01*
X137287500Y-58047590D01*
X137287500Y-52236633D01*
X137307502Y-52168512D01*
X137324405Y-52147538D01*
X138027574Y-51444369D01*
X138042608Y-51431528D01*
X138146909Y-51355749D01*
X138146911Y-51355747D01*
X138152253Y-51351866D01*
X138171145Y-51330884D01*
X138275621Y-51214852D01*
X138275622Y-51214851D01*
X138280040Y-51209944D01*
X138375527Y-51044556D01*
X138402464Y-50961653D01*
X138442538Y-50903048D01*
X138507935Y-50875411D01*
X138540656Y-50875935D01*
X138559454Y-50878703D01*
X138637162Y-50890148D01*
X138710224Y-50895625D01*
X138712460Y-50895633D01*
X138712469Y-50895633D01*
X140070774Y-50900284D01*
X141833073Y-50906319D01*
X141895403Y-50902737D01*
X142017604Y-50888221D01*
X142024019Y-50886580D01*
X142148786Y-50854659D01*
X142149294Y-50856644D01*
G37*
%TD.AperFunction*%
%TA.AperFunction,NonConductor*%
G36*
X130606278Y-51582502D02*
G01*
X130627252Y-51599405D01*
X131407595Y-52379748D01*
X131441621Y-52442060D01*
X131444500Y-52468843D01*
X131444500Y-58432346D01*
X131424498Y-58500467D01*
X131370842Y-58546960D01*
X131300568Y-58557064D01*
X131235988Y-58527570D01*
X131198667Y-58471282D01*
X131130182Y-58260507D01*
X131130182Y-58260506D01*
X131128956Y-58256734D01*
X131101621Y-58198643D01*
X130996250Y-57974717D01*
X130996246Y-57974710D01*
X130994562Y-57971131D01*
X130825432Y-57704625D01*
X130652345Y-57495399D01*
X130626758Y-57464470D01*
X130626757Y-57464469D01*
X130624233Y-57461418D01*
X130394140Y-57245346D01*
X130138779Y-57059816D01*
X129909304Y-56933660D01*
X129865648Y-56909660D01*
X129865647Y-56909659D01*
X129862179Y-56907753D01*
X129858510Y-56906300D01*
X129858505Y-56906298D01*
X129572372Y-56793010D01*
X129572371Y-56793010D01*
X129568702Y-56791557D01*
X129262975Y-56713060D01*
X128949821Y-56673500D01*
X128634179Y-56673500D01*
X128630248Y-56673997D01*
X128626302Y-56674245D01*
X128626232Y-56673135D01*
X128560901Y-56662602D01*
X128508046Y-56615201D01*
X128489209Y-56546749D01*
X128510370Y-56478979D01*
X128554490Y-56438484D01*
X128795307Y-56306093D01*
X128795310Y-56306091D01*
X128798779Y-56304184D01*
X128998369Y-56159174D01*
X129050936Y-56120982D01*
X129050938Y-56120981D01*
X129054140Y-56118654D01*
X129247377Y-55937192D01*
X129281342Y-55905297D01*
X129281343Y-55905296D01*
X129284233Y-55902582D01*
X129485432Y-55659375D01*
X129654562Y-55392869D01*
X129656246Y-55389290D01*
X129656250Y-55389283D01*
X129787267Y-55110856D01*
X129787269Y-55110852D01*
X129788956Y-55107266D01*
X129886495Y-54807072D01*
X129945641Y-54497020D01*
X129965460Y-54182000D01*
X129945641Y-53866980D01*
X129886495Y-53556928D01*
X129788956Y-53256734D01*
X129741558Y-53156007D01*
X129656250Y-52974717D01*
X129656246Y-52974710D01*
X129654562Y-52971131D01*
X129485432Y-52704625D01*
X129307873Y-52489994D01*
X129286758Y-52464470D01*
X129286757Y-52464469D01*
X129284233Y-52461418D01*
X129054140Y-52245346D01*
X128798779Y-52059816D01*
X128794287Y-52057346D01*
X128525648Y-51909660D01*
X128525647Y-51909659D01*
X128522179Y-51907753D01*
X128518510Y-51906300D01*
X128518505Y-51906298D01*
X128264302Y-51805652D01*
X128208328Y-51761977D01*
X128184852Y-51694974D01*
X128201328Y-51625916D01*
X128252524Y-51576727D01*
X128310686Y-51562500D01*
X130538157Y-51562500D01*
X130606278Y-51582502D01*
G37*
%TD.AperFunction*%
%TA.AperFunction,NonConductor*%
G36*
X142923219Y-56054872D02*
G01*
X142978690Y-56099182D01*
X143001500Y-56171486D01*
X143001500Y-62023075D01*
X142999949Y-62042785D01*
X142997826Y-62056190D01*
X142998171Y-62062778D01*
X142998171Y-62062782D01*
X143001327Y-62122999D01*
X143001500Y-62129593D01*
X143001500Y-62149620D01*
X143001844Y-62152891D01*
X143001844Y-62152895D01*
X143003593Y-62169539D01*
X143004110Y-62176113D01*
X143007440Y-62239661D01*
X142991030Y-62308736D01*
X142939881Y-62357973D01*
X142870232Y-62371740D01*
X142804197Y-62345667D01*
X142795369Y-62338113D01*
X142722140Y-62269346D01*
X142685903Y-62243018D01*
X142637012Y-62207497D01*
X142466779Y-62083816D01*
X142453001Y-62076241D01*
X142193648Y-61933660D01*
X142193647Y-61933659D01*
X142190179Y-61931753D01*
X142186510Y-61930300D01*
X142186505Y-61930298D01*
X141900372Y-61817010D01*
X141900371Y-61817010D01*
X141896702Y-61815557D01*
X141590975Y-61737060D01*
X141277821Y-61697500D01*
X140962179Y-61697500D01*
X140958248Y-61697997D01*
X140954302Y-61698245D01*
X140954232Y-61697135D01*
X140888901Y-61686602D01*
X140836046Y-61639201D01*
X140817209Y-61570749D01*
X140838370Y-61502979D01*
X140882490Y-61462484D01*
X141123307Y-61330093D01*
X141123310Y-61330091D01*
X141126779Y-61328184D01*
X141382140Y-61142654D01*
X141612233Y-60926582D01*
X141634613Y-60899530D01*
X141810907Y-60686427D01*
X141813432Y-60683375D01*
X141982562Y-60416869D01*
X141984246Y-60413290D01*
X141984250Y-60413283D01*
X142115267Y-60134856D01*
X142115269Y-60134852D01*
X142116956Y-60131266D01*
X142214495Y-59831072D01*
X142273641Y-59521020D01*
X142293460Y-59206000D01*
X142273641Y-58890980D01*
X142214495Y-58580928D01*
X142116956Y-58280734D01*
X142105663Y-58256734D01*
X141984250Y-57998717D01*
X141984246Y-57998710D01*
X141982562Y-57995131D01*
X141813432Y-57728625D01*
X141612233Y-57485418D01*
X141583785Y-57458703D01*
X141435941Y-57319869D01*
X141382140Y-57269346D01*
X141345903Y-57243018D01*
X141326369Y-57228826D01*
X141126779Y-57083816D01*
X141087357Y-57062143D01*
X140882490Y-56949516D01*
X140832431Y-56899171D01*
X140817538Y-56829754D01*
X140842539Y-56763305D01*
X140899496Y-56720921D01*
X140954246Y-56714641D01*
X140954302Y-56713755D01*
X140958248Y-56714003D01*
X140962179Y-56714500D01*
X141277821Y-56714500D01*
X141590975Y-56674940D01*
X141896702Y-56596443D01*
X141900372Y-56594990D01*
X142186505Y-56481702D01*
X142186510Y-56481700D01*
X142190179Y-56480247D01*
X142204935Y-56472135D01*
X142463307Y-56330093D01*
X142463310Y-56330091D01*
X142466779Y-56328184D01*
X142722140Y-56142654D01*
X142789248Y-56079636D01*
X142852597Y-56047585D01*
X142923219Y-56054872D01*
G37*
%TD.AperFunction*%
%TA.AperFunction,NonConductor*%
G36*
X109905455Y-49317654D02*
G01*
X109962291Y-49360201D01*
X109987146Y-49427365D01*
X109989628Y-49464756D01*
X109990180Y-49467969D01*
X109990181Y-49467975D01*
X109996916Y-49507154D01*
X110007680Y-49569776D01*
X110046752Y-49708693D01*
X110105944Y-49842324D01*
X110182570Y-49964607D01*
X110277018Y-50076156D01*
X110384992Y-50171896D01*
X110388748Y-50174371D01*
X110388752Y-50174374D01*
X110430107Y-50201623D01*
X110507034Y-50252312D01*
X110637607Y-50313755D01*
X110777363Y-50356531D01*
X110781805Y-50357222D01*
X110781807Y-50357222D01*
X110812795Y-50362039D01*
X110919957Y-50378699D01*
X111001786Y-50379634D01*
X111061612Y-50380318D01*
X111061617Y-50380318D01*
X111066106Y-50380369D01*
X111137431Y-50370944D01*
X111207583Y-50381849D01*
X111260705Y-50428952D01*
X111279687Y-50503770D01*
X111278540Y-50522000D01*
X111298359Y-50837020D01*
X111357505Y-51147072D01*
X111376602Y-51205847D01*
X111436899Y-51391420D01*
X111455044Y-51447266D01*
X111456731Y-51450852D01*
X111456733Y-51450856D01*
X111587750Y-51729283D01*
X111587754Y-51729290D01*
X111589438Y-51732869D01*
X111591562Y-51736215D01*
X111591562Y-51736216D01*
X111715195Y-51931031D01*
X111734808Y-51999265D01*
X111714417Y-52067270D01*
X111660497Y-52113456D01*
X111590166Y-52123158D01*
X111534751Y-52100482D01*
X111481982Y-52062143D01*
X111481981Y-52062142D01*
X111481977Y-52062139D01*
X111478779Y-52059816D01*
X111474287Y-52057346D01*
X111205648Y-51909660D01*
X111205647Y-51909659D01*
X111202179Y-51907753D01*
X111198510Y-51906300D01*
X111198505Y-51906298D01*
X110912372Y-51793010D01*
X110912371Y-51793010D01*
X110908702Y-51791557D01*
X110602975Y-51713060D01*
X110289821Y-51673500D01*
X109974179Y-51673500D01*
X109661025Y-51713060D01*
X109355298Y-51791557D01*
X109351629Y-51793010D01*
X109351628Y-51793010D01*
X109065495Y-51906298D01*
X109065490Y-51906300D01*
X109061821Y-51907753D01*
X109058353Y-51909659D01*
X109058352Y-51909660D01*
X108789714Y-52057346D01*
X108785221Y-52059816D01*
X108529860Y-52245346D01*
X108299767Y-52461418D01*
X108297243Y-52464469D01*
X108297242Y-52464470D01*
X108276127Y-52489994D01*
X108098568Y-52704625D01*
X107929438Y-52971131D01*
X107927754Y-52974710D01*
X107927750Y-52974717D01*
X107842442Y-53156007D01*
X107795044Y-53256734D01*
X107697505Y-53556928D01*
X107638359Y-53866980D01*
X107618540Y-54182000D01*
X107638359Y-54497020D01*
X107697505Y-54807072D01*
X107795044Y-55107266D01*
X107796731Y-55110852D01*
X107796733Y-55110856D01*
X107927750Y-55389283D01*
X107927754Y-55389290D01*
X107929438Y-55392869D01*
X108098568Y-55659375D01*
X108299767Y-55902582D01*
X108302657Y-55905296D01*
X108302658Y-55905297D01*
X108336623Y-55937192D01*
X108529860Y-56118654D01*
X108533062Y-56120981D01*
X108533064Y-56120982D01*
X108585631Y-56159174D01*
X108785221Y-56304184D01*
X108788690Y-56306091D01*
X108788693Y-56306093D01*
X109029510Y-56438484D01*
X109079569Y-56488829D01*
X109094462Y-56558246D01*
X109069461Y-56624695D01*
X109012504Y-56667079D01*
X108957754Y-56673359D01*
X108957698Y-56674245D01*
X108953752Y-56673997D01*
X108949821Y-56673500D01*
X108634179Y-56673500D01*
X108321025Y-56713060D01*
X108015298Y-56791557D01*
X108011629Y-56793010D01*
X108011628Y-56793010D01*
X107725495Y-56906298D01*
X107725490Y-56906300D01*
X107721821Y-56907753D01*
X107718353Y-56909659D01*
X107718352Y-56909660D01*
X107674697Y-56933660D01*
X107445221Y-57059816D01*
X107189860Y-57245346D01*
X106959767Y-57461418D01*
X106957243Y-57464469D01*
X106957242Y-57464470D01*
X106931655Y-57495399D01*
X106758568Y-57704625D01*
X106589438Y-57971131D01*
X106587754Y-57974710D01*
X106587750Y-57974717D01*
X106482379Y-58198643D01*
X106455044Y-58256734D01*
X106357505Y-58556928D01*
X106298359Y-58866980D01*
X106278540Y-59182000D01*
X106298359Y-59497020D01*
X106357505Y-59807072D01*
X106455044Y-60107266D01*
X106456731Y-60110852D01*
X106456733Y-60110856D01*
X106587750Y-60389283D01*
X106587754Y-60389290D01*
X106589438Y-60392869D01*
X106758568Y-60659375D01*
X106959767Y-60902582D01*
X106962657Y-60905296D01*
X106962658Y-60905297D01*
X106998999Y-60939423D01*
X107189860Y-61118654D01*
X107193062Y-61120981D01*
X107193064Y-61120982D01*
X107245631Y-61159174D01*
X107445221Y-61304184D01*
X107448690Y-61306091D01*
X107448693Y-61306093D01*
X107704462Y-61446704D01*
X107721821Y-61456247D01*
X107725490Y-61457700D01*
X107725495Y-61457702D01*
X107990425Y-61562595D01*
X108015298Y-61572443D01*
X108321025Y-61650940D01*
X108634179Y-61690500D01*
X108949821Y-61690500D01*
X108953752Y-61690003D01*
X108957698Y-61689755D01*
X108957768Y-61690865D01*
X109023099Y-61701398D01*
X109075954Y-61748799D01*
X109094791Y-61817251D01*
X109073630Y-61885021D01*
X109029510Y-61925516D01*
X108791817Y-62056190D01*
X108785221Y-62059816D01*
X108529860Y-62245346D01*
X108394403Y-62372549D01*
X108304092Y-62457357D01*
X108299767Y-62461418D01*
X108297243Y-62464469D01*
X108297242Y-62464470D01*
X108245033Y-62527580D01*
X108098568Y-62704625D01*
X107929438Y-62971131D01*
X107861450Y-63115613D01*
X107839261Y-63162768D01*
X107792159Y-63215889D01*
X107723814Y-63235112D01*
X107655926Y-63214333D01*
X107636158Y-63198215D01*
X105701405Y-61263462D01*
X105667379Y-61201150D01*
X105664500Y-61174367D01*
X105664500Y-53506633D01*
X105684502Y-53438512D01*
X105701405Y-53417538D01*
X109772328Y-49346615D01*
X109834640Y-49312589D01*
X109905455Y-49317654D01*
G37*
%TD.AperFunction*%
%TA.AperFunction,NonConductor*%
G36*
X153882476Y-57542648D02*
G01*
X153926166Y-57597965D01*
X153987918Y-57750355D01*
X153989733Y-57754835D01*
X153993598Y-57765805D01*
X154078484Y-58047590D01*
X154109903Y-58151888D01*
X154112741Y-58163175D01*
X154192926Y-58558343D01*
X154194711Y-58569839D01*
X154236753Y-58958328D01*
X154238094Y-58970724D01*
X154238810Y-58982335D01*
X154241823Y-59178042D01*
X154245017Y-59385500D01*
X154244659Y-59397133D01*
X154213640Y-59799169D01*
X154212209Y-59810718D01*
X154177636Y-60012852D01*
X154147358Y-60189879D01*
X154144233Y-60208147D01*
X154141746Y-60219510D01*
X154095294Y-60392869D01*
X154037377Y-60609014D01*
X154033848Y-60620104D01*
X153894000Y-60998280D01*
X153889468Y-61008989D01*
X153739376Y-61322421D01*
X153715314Y-61372668D01*
X153709808Y-61382921D01*
X153502843Y-61728975D01*
X153496414Y-61738677D01*
X153451892Y-61799561D01*
X153362792Y-61921406D01*
X153258407Y-62064152D01*
X153251112Y-62073218D01*
X152984073Y-62375361D01*
X152975989Y-62383698D01*
X152703532Y-62639868D01*
X152682224Y-62659902D01*
X152673387Y-62667474D01*
X152355381Y-62915403D01*
X152345881Y-62922127D01*
X152006373Y-63139644D01*
X151996294Y-63145463D01*
X151638166Y-63330726D01*
X151627595Y-63335591D01*
X151253870Y-63487032D01*
X151242923Y-63490889D01*
X150956571Y-63577152D01*
X150856822Y-63607201D01*
X150845533Y-63610039D01*
X150450382Y-63690223D01*
X150438894Y-63692007D01*
X150037992Y-63735393D01*
X150026383Y-63736109D01*
X149846497Y-63738879D01*
X149623219Y-63742318D01*
X149611587Y-63741960D01*
X149209561Y-63710944D01*
X149198011Y-63709514D01*
X148999286Y-63675525D01*
X148800556Y-63641535D01*
X148789198Y-63639047D01*
X148586851Y-63584829D01*
X148399719Y-63534687D01*
X148388628Y-63531159D01*
X148010429Y-63391304D01*
X147999712Y-63386767D01*
X147720669Y-63253144D01*
X147636048Y-63212622D01*
X147625796Y-63207117D01*
X147618769Y-63202914D01*
X147512977Y-63139644D01*
X147279744Y-63000155D01*
X147270043Y-62993727D01*
X146944564Y-62755719D01*
X146935497Y-62748423D01*
X146633368Y-62481401D01*
X146625012Y-62473299D01*
X146427794Y-62263544D01*
X146348803Y-62179531D01*
X146341234Y-62170697D01*
X146340332Y-62169539D01*
X146237165Y-62037213D01*
X146211055Y-61971191D01*
X146224784Y-61901535D01*
X146273534Y-61850622D01*
X153746389Y-57536166D01*
X153815384Y-57519428D01*
X153882476Y-57542648D01*
G37*
%TD.AperFunction*%
%TA.AperFunction,NonConductor*%
G36*
X143652958Y-63122901D02*
G01*
X145869620Y-65339563D01*
X145903646Y-65401875D01*
X145898581Y-65472690D01*
X145856034Y-65529526D01*
X145789514Y-65554337D01*
X145734141Y-65545810D01*
X145560372Y-65477010D01*
X145560371Y-65477010D01*
X145556702Y-65475557D01*
X145250975Y-65397060D01*
X144937821Y-65357500D01*
X144622179Y-65357500D01*
X144309025Y-65397060D01*
X144003298Y-65475557D01*
X143999629Y-65477010D01*
X143999628Y-65477010D01*
X143713495Y-65590298D01*
X143713490Y-65590300D01*
X143709821Y-65591753D01*
X143706353Y-65593659D01*
X143706352Y-65593660D01*
X143437714Y-65741346D01*
X143433221Y-65743816D01*
X143430023Y-65746139D01*
X143430019Y-65746142D01*
X143408461Y-65761805D01*
X143377250Y-65784482D01*
X143310384Y-65808339D01*
X143241232Y-65792259D01*
X143191752Y-65741346D01*
X143177652Y-65671763D01*
X143196805Y-65615031D01*
X143320438Y-65420216D01*
X143320438Y-65420215D01*
X143322562Y-65416869D01*
X143324246Y-65413290D01*
X143324250Y-65413283D01*
X143455267Y-65134856D01*
X143455269Y-65134852D01*
X143456956Y-65131266D01*
X143554495Y-64831072D01*
X143613641Y-64521020D01*
X143633460Y-64206000D01*
X143613641Y-63890980D01*
X143554495Y-63580928D01*
X143456956Y-63280734D01*
X143449855Y-63265643D01*
X143438949Y-63195491D01*
X143467701Y-63130578D01*
X143526985Y-63091514D01*
X143597977Y-63090702D01*
X143652958Y-63122901D01*
G37*
%TD.AperFunction*%
%TA.AperFunction,NonConductor*%
G36*
X114825601Y-57512161D02*
G01*
X122033008Y-61673359D01*
X122298401Y-61826584D01*
X122347394Y-61877966D01*
X122360830Y-61947680D01*
X122334771Y-62013173D01*
X122249147Y-62122999D01*
X122230700Y-62146660D01*
X122223128Y-62155497D01*
X121946931Y-62449255D01*
X121938576Y-62457357D01*
X121646500Y-62715497D01*
X121636450Y-62724379D01*
X121627387Y-62731673D01*
X121404105Y-62894950D01*
X121301895Y-62969692D01*
X121292193Y-62976120D01*
X120946152Y-63183077D01*
X120935899Y-63188583D01*
X120572233Y-63362731D01*
X120561515Y-63367267D01*
X120183322Y-63507121D01*
X120172240Y-63510647D01*
X119895389Y-63584829D01*
X119782751Y-63615010D01*
X119771383Y-63617499D01*
X119682903Y-63632633D01*
X119373943Y-63685477D01*
X119362411Y-63686906D01*
X119089680Y-63707948D01*
X118960370Y-63717924D01*
X118948738Y-63718282D01*
X118725417Y-63714843D01*
X118545576Y-63712073D01*
X118533964Y-63711357D01*
X118516934Y-63709514D01*
X118133070Y-63667972D01*
X118121579Y-63666188D01*
X117726430Y-63586005D01*
X117715141Y-63583167D01*
X117628039Y-63556928D01*
X117329042Y-63466856D01*
X117318095Y-63462999D01*
X116944371Y-63311558D01*
X116933800Y-63306693D01*
X116575674Y-63121432D01*
X116565595Y-63115613D01*
X116226089Y-62898097D01*
X116216589Y-62891373D01*
X115898590Y-62643449D01*
X115889752Y-62635877D01*
X115595988Y-62359673D01*
X115587887Y-62351318D01*
X115320865Y-62049194D01*
X115313568Y-62040126D01*
X115075561Y-61714649D01*
X115069133Y-61704948D01*
X114862170Y-61358897D01*
X114856664Y-61348643D01*
X114745232Y-61115943D01*
X114682512Y-60984967D01*
X114677990Y-60974286D01*
X114538124Y-60596059D01*
X114534603Y-60584990D01*
X114430240Y-60195499D01*
X114427751Y-60184131D01*
X114398015Y-60010278D01*
X114359773Y-59786692D01*
X114358343Y-59775151D01*
X114327326Y-59373118D01*
X114326968Y-59361486D01*
X114333177Y-58958328D01*
X114333893Y-58946712D01*
X114373478Y-58580928D01*
X114377278Y-58545818D01*
X114379063Y-58534321D01*
X114431250Y-58277144D01*
X114459246Y-58139176D01*
X114462084Y-58127889D01*
X114486274Y-58047590D01*
X114578395Y-57741790D01*
X114582255Y-57730836D01*
X114645825Y-57573959D01*
X114689946Y-57518337D01*
X114757134Y-57495399D01*
X114825601Y-57512161D01*
G37*
%TD.AperFunction*%
%TA.AperFunction,NonConductor*%
G36*
X121233848Y-50222402D02*
G01*
X121279725Y-50276585D01*
X121290272Y-50335526D01*
X121278540Y-50522000D01*
X121298359Y-50837020D01*
X121357505Y-51147072D01*
X121376602Y-51205847D01*
X121436899Y-51391420D01*
X121455044Y-51447266D01*
X121456731Y-51450852D01*
X121456733Y-51450856D01*
X121587750Y-51729283D01*
X121587754Y-51729290D01*
X121589438Y-51732869D01*
X121758568Y-51999375D01*
X121806526Y-52057346D01*
X121954846Y-52236633D01*
X121959767Y-52242582D01*
X121962657Y-52245296D01*
X121962658Y-52245297D01*
X121988268Y-52269346D01*
X122189860Y-52458654D01*
X122193062Y-52460981D01*
X122193064Y-52460982D01*
X122226698Y-52485418D01*
X122445221Y-52644184D01*
X122448690Y-52646091D01*
X122448693Y-52646093D01*
X122718352Y-52794340D01*
X122721821Y-52796247D01*
X122725490Y-52797700D01*
X122725495Y-52797702D01*
X122963117Y-52891783D01*
X123015298Y-52912443D01*
X123321025Y-52990940D01*
X123634179Y-53030500D01*
X123949821Y-53030500D01*
X124262975Y-52990940D01*
X124568702Y-52912443D01*
X124620883Y-52891783D01*
X124858505Y-52797702D01*
X124858510Y-52797700D01*
X124862179Y-52796247D01*
X124865648Y-52794340D01*
X125135307Y-52646093D01*
X125135310Y-52646091D01*
X125138779Y-52644184D01*
X125141977Y-52641861D01*
X125141981Y-52641858D01*
X125179575Y-52614544D01*
X125194750Y-52603518D01*
X125261616Y-52579661D01*
X125330768Y-52595741D01*
X125380248Y-52646654D01*
X125394348Y-52716237D01*
X125375195Y-52772969D01*
X125273651Y-52932977D01*
X125249438Y-52971131D01*
X125247754Y-52974710D01*
X125247750Y-52974717D01*
X125162442Y-53156007D01*
X125115044Y-53256734D01*
X125017505Y-53556928D01*
X124958359Y-53866980D01*
X124938540Y-54182000D01*
X124958359Y-54497020D01*
X125017505Y-54807072D01*
X125115044Y-55107266D01*
X125116731Y-55110852D01*
X125116733Y-55110856D01*
X125247750Y-55389283D01*
X125247754Y-55389290D01*
X125249438Y-55392869D01*
X125418568Y-55659375D01*
X125619767Y-55902582D01*
X125622657Y-55905296D01*
X125622658Y-55905297D01*
X125656623Y-55937192D01*
X125849860Y-56118654D01*
X125853062Y-56120981D01*
X125853064Y-56120982D01*
X125905631Y-56159174D01*
X126105221Y-56304184D01*
X126108690Y-56306091D01*
X126108693Y-56306093D01*
X126346327Y-56436734D01*
X126381821Y-56456247D01*
X126385490Y-56457700D01*
X126385495Y-56457702D01*
X126671019Y-56570749D01*
X126675298Y-56572443D01*
X126981025Y-56650940D01*
X127294179Y-56690500D01*
X127609821Y-56690500D01*
X127613752Y-56690003D01*
X127617698Y-56689755D01*
X127617768Y-56690865D01*
X127683099Y-56701398D01*
X127735954Y-56748799D01*
X127754791Y-56817251D01*
X127733630Y-56885021D01*
X127689510Y-56925516D01*
X127645855Y-56949516D01*
X127445221Y-57059816D01*
X127189860Y-57245346D01*
X126959767Y-57461418D01*
X126957243Y-57464469D01*
X126957242Y-57464470D01*
X126931655Y-57495399D01*
X126758568Y-57704625D01*
X126589438Y-57971131D01*
X126587754Y-57974710D01*
X126587750Y-57974717D01*
X126482379Y-58198643D01*
X126455044Y-58256734D01*
X126357505Y-58556928D01*
X126298359Y-58866980D01*
X126278540Y-59182000D01*
X126298359Y-59497020D01*
X126357505Y-59807072D01*
X126455044Y-60107266D01*
X126456731Y-60110852D01*
X126456733Y-60110856D01*
X126587750Y-60389283D01*
X126587754Y-60389290D01*
X126589438Y-60392869D01*
X126758568Y-60659375D01*
X126959767Y-60902582D01*
X126962657Y-60905296D01*
X126962658Y-60905297D01*
X126998999Y-60939423D01*
X127189860Y-61118654D01*
X127193062Y-61120981D01*
X127193064Y-61120982D01*
X127245631Y-61159174D01*
X127445221Y-61304184D01*
X127448690Y-61306091D01*
X127448693Y-61306093D01*
X127689510Y-61438484D01*
X127739569Y-61488829D01*
X127754462Y-61558246D01*
X127729461Y-61624695D01*
X127672504Y-61667079D01*
X127617754Y-61673359D01*
X127617698Y-61674245D01*
X127613752Y-61673997D01*
X127609821Y-61673500D01*
X127294179Y-61673500D01*
X126981025Y-61713060D01*
X126675298Y-61791557D01*
X126671629Y-61793010D01*
X126671628Y-61793010D01*
X126385495Y-61906298D01*
X126385490Y-61906300D01*
X126381821Y-61907753D01*
X126378353Y-61909659D01*
X126378352Y-61909660D01*
X126111817Y-62056190D01*
X126105221Y-62059816D01*
X125849860Y-62245346D01*
X125714403Y-62372549D01*
X125624092Y-62457357D01*
X125619767Y-62461418D01*
X125617243Y-62464469D01*
X125617242Y-62464470D01*
X125565033Y-62527580D01*
X125418568Y-62704625D01*
X125249438Y-62971131D01*
X125247754Y-62974710D01*
X125247750Y-62974717D01*
X125139481Y-63204802D01*
X125115044Y-63256734D01*
X125113818Y-63260506D01*
X125113818Y-63260507D01*
X125090132Y-63333406D01*
X125017505Y-63556928D01*
X124958359Y-63866980D01*
X124938540Y-64182000D01*
X124958359Y-64497020D01*
X125017505Y-64807072D01*
X125068485Y-64963971D01*
X125102743Y-65069406D01*
X125115044Y-65107266D01*
X125116731Y-65110852D01*
X125116733Y-65110856D01*
X125247750Y-65389283D01*
X125247754Y-65389290D01*
X125249438Y-65392869D01*
X125251562Y-65396215D01*
X125251562Y-65396216D01*
X125375195Y-65591031D01*
X125394808Y-65659265D01*
X125374417Y-65727270D01*
X125320497Y-65773456D01*
X125250166Y-65783158D01*
X125194751Y-65760482D01*
X125141982Y-65722143D01*
X125141981Y-65722142D01*
X125141977Y-65722139D01*
X125138779Y-65719816D01*
X125134287Y-65717346D01*
X124865648Y-65569660D01*
X124865647Y-65569659D01*
X124862179Y-65567753D01*
X124858510Y-65566300D01*
X124858505Y-65566298D01*
X124572372Y-65453010D01*
X124572371Y-65453010D01*
X124568702Y-65451557D01*
X124262975Y-65373060D01*
X123949821Y-65333500D01*
X123634179Y-65333500D01*
X123321025Y-65373060D01*
X123015298Y-65451557D01*
X123011629Y-65453010D01*
X123011628Y-65453010D01*
X122725495Y-65566298D01*
X122725490Y-65566300D01*
X122721821Y-65567753D01*
X122718353Y-65569659D01*
X122718352Y-65569660D01*
X122449714Y-65717346D01*
X122445221Y-65719816D01*
X122189860Y-65905346D01*
X121959767Y-66121418D01*
X121957243Y-66124469D01*
X121957242Y-66124470D01*
X121927489Y-66160435D01*
X121758568Y-66364625D01*
X121589438Y-66631131D01*
X121587754Y-66634710D01*
X121587750Y-66634717D01*
X121456733Y-66913144D01*
X121455044Y-66916734D01*
X121453818Y-66920506D01*
X121453818Y-66920507D01*
X121440725Y-66960803D01*
X121357505Y-67216928D01*
X121298359Y-67526980D01*
X121278540Y-67842000D01*
X121287964Y-67991784D01*
X121290272Y-68028473D01*
X121274587Y-68097716D01*
X121223957Y-68147486D01*
X121154456Y-68161982D01*
X121088151Y-68136603D01*
X121050513Y-68090033D01*
X120996250Y-67974717D01*
X120996246Y-67974710D01*
X120994562Y-67971131D01*
X120825432Y-67704625D01*
X120656498Y-67500420D01*
X120626758Y-67464470D01*
X120626757Y-67464469D01*
X120624233Y-67461418D01*
X120394140Y-67245346D01*
X120138779Y-67059816D01*
X120122529Y-67050882D01*
X119865648Y-66909660D01*
X119865647Y-66909659D01*
X119862179Y-66907753D01*
X119858510Y-66906300D01*
X119858505Y-66906298D01*
X119572372Y-66793010D01*
X119572371Y-66793010D01*
X119568702Y-66791557D01*
X119262975Y-66713060D01*
X118949821Y-66673500D01*
X118634179Y-66673500D01*
X118321025Y-66713060D01*
X118015298Y-66791557D01*
X118011629Y-66793010D01*
X118011628Y-66793010D01*
X117725495Y-66906298D01*
X117725490Y-66906300D01*
X117721821Y-66907753D01*
X117718353Y-66909659D01*
X117718352Y-66909660D01*
X117461472Y-67050882D01*
X117445221Y-67059816D01*
X117189860Y-67245346D01*
X116959767Y-67461418D01*
X116957243Y-67464469D01*
X116957242Y-67464470D01*
X116927502Y-67500420D01*
X116758568Y-67704625D01*
X116589438Y-67971131D01*
X116587754Y-67974710D01*
X116587750Y-67974717D01*
X116533487Y-68090033D01*
X116486384Y-68143154D01*
X116418040Y-68162377D01*
X116350152Y-68141598D01*
X116304275Y-68087415D01*
X116293728Y-68028473D01*
X116296037Y-67991784D01*
X116305460Y-67842000D01*
X116285641Y-67526980D01*
X116226495Y-67216928D01*
X116143275Y-66960803D01*
X116130182Y-66920507D01*
X116130182Y-66920506D01*
X116128956Y-66916734D01*
X116127267Y-66913144D01*
X115996250Y-66634717D01*
X115996246Y-66634710D01*
X115994562Y-66631131D01*
X115825432Y-66364625D01*
X115656511Y-66160435D01*
X115626758Y-66124470D01*
X115626757Y-66124469D01*
X115624233Y-66121418D01*
X115394140Y-65905346D01*
X115138779Y-65719816D01*
X115134287Y-65717346D01*
X114865648Y-65569660D01*
X114865647Y-65569659D01*
X114862179Y-65567753D01*
X114858510Y-65566300D01*
X114858505Y-65566298D01*
X114572372Y-65453010D01*
X114572371Y-65453010D01*
X114568702Y-65451557D01*
X114262975Y-65373060D01*
X113949821Y-65333500D01*
X113634179Y-65333500D01*
X113321025Y-65373060D01*
X113015298Y-65451557D01*
X113011629Y-65453010D01*
X113011628Y-65453010D01*
X112725495Y-65566298D01*
X112725490Y-65566300D01*
X112721821Y-65567753D01*
X112718353Y-65569659D01*
X112718352Y-65569660D01*
X112449714Y-65717346D01*
X112445221Y-65719816D01*
X112442023Y-65722139D01*
X112442019Y-65722142D01*
X112442018Y-65722143D01*
X112389250Y-65760482D01*
X112322384Y-65784339D01*
X112253232Y-65768259D01*
X112203752Y-65717346D01*
X112189652Y-65647763D01*
X112208805Y-65591031D01*
X112332438Y-65396216D01*
X112332438Y-65396215D01*
X112334562Y-65392869D01*
X112336246Y-65389290D01*
X112336250Y-65389283D01*
X112467267Y-65110856D01*
X112467269Y-65110852D01*
X112468956Y-65107266D01*
X112481258Y-65069406D01*
X112515515Y-64963971D01*
X112566495Y-64807072D01*
X112625641Y-64497020D01*
X112645460Y-64182000D01*
X112625641Y-63866980D01*
X112566495Y-63556928D01*
X112493868Y-63333406D01*
X112470182Y-63260507D01*
X112470182Y-63260506D01*
X112468956Y-63256734D01*
X112444519Y-63204802D01*
X112336250Y-62974717D01*
X112336246Y-62974710D01*
X112334562Y-62971131D01*
X112165432Y-62704625D01*
X112018967Y-62527580D01*
X111966758Y-62464470D01*
X111966757Y-62464469D01*
X111964233Y-62461418D01*
X111959909Y-62457357D01*
X111869597Y-62372549D01*
X111734140Y-62245346D01*
X111478779Y-62059816D01*
X111472184Y-62056190D01*
X111205648Y-61909660D01*
X111205647Y-61909659D01*
X111202179Y-61907753D01*
X111198510Y-61906300D01*
X111198505Y-61906298D01*
X110912372Y-61793010D01*
X110912371Y-61793010D01*
X110908702Y-61791557D01*
X110602975Y-61713060D01*
X110289821Y-61673500D01*
X109974179Y-61673500D01*
X109970248Y-61673997D01*
X109966302Y-61674245D01*
X109966232Y-61673135D01*
X109900901Y-61662602D01*
X109848046Y-61615201D01*
X109829209Y-61546749D01*
X109850370Y-61478979D01*
X109894490Y-61438484D01*
X110135307Y-61306093D01*
X110135310Y-61306091D01*
X110138779Y-61304184D01*
X110338369Y-61159174D01*
X110390936Y-61120982D01*
X110390938Y-61120981D01*
X110394140Y-61118654D01*
X110585001Y-60939423D01*
X110621342Y-60905297D01*
X110621343Y-60905296D01*
X110624233Y-60902582D01*
X110825432Y-60659375D01*
X110994562Y-60392869D01*
X110996246Y-60389290D01*
X110996250Y-60389283D01*
X111127267Y-60110856D01*
X111127269Y-60110852D01*
X111128956Y-60107266D01*
X111226495Y-59807072D01*
X111285641Y-59497020D01*
X111305460Y-59182000D01*
X111298859Y-59077085D01*
X113305131Y-59077085D01*
X113305167Y-59079687D01*
X113311303Y-59524918D01*
X113311410Y-59532709D01*
X113311659Y-59535286D01*
X113311660Y-59535298D01*
X113350009Y-59931654D01*
X113355292Y-59986257D01*
X113436477Y-60434634D01*
X113554412Y-60874774D01*
X113555291Y-60877224D01*
X113704263Y-61292444D01*
X113708291Y-61303672D01*
X113709370Y-61306042D01*
X113709373Y-61306050D01*
X113895455Y-61714865D01*
X113897063Y-61718398D01*
X114119437Y-62116119D01*
X114120898Y-62118289D01*
X114120899Y-62118291D01*
X114145945Y-62155497D01*
X114373895Y-62494118D01*
X114658700Y-62849812D01*
X114660483Y-62851696D01*
X114932982Y-63139644D01*
X114971904Y-63180773D01*
X115311370Y-63484740D01*
X115313439Y-63486305D01*
X115313445Y-63486310D01*
X115620109Y-63718282D01*
X115674777Y-63759635D01*
X116059644Y-64003581D01*
X116463341Y-64214913D01*
X116745547Y-64334091D01*
X116880707Y-64391170D01*
X116880712Y-64391172D01*
X116883111Y-64392185D01*
X117316086Y-64534187D01*
X117759309Y-64639950D01*
X117761899Y-64640346D01*
X117761901Y-64640346D01*
X118207164Y-64708356D01*
X118207167Y-64708356D01*
X118209751Y-64708751D01*
X118212353Y-64708931D01*
X118212357Y-64708931D01*
X118661741Y-64739940D01*
X118661744Y-64739940D01*
X118664337Y-64740119D01*
X118848073Y-64737587D01*
X119117364Y-64733876D01*
X119117369Y-64733876D01*
X119119961Y-64733840D01*
X119122538Y-64733591D01*
X119122550Y-64733590D01*
X119570920Y-64690209D01*
X119570930Y-64690208D01*
X119573510Y-64689958D01*
X120021886Y-64608772D01*
X120258080Y-64545484D01*
X120459516Y-64491510D01*
X120459526Y-64491507D01*
X120462026Y-64490837D01*
X120667736Y-64417033D01*
X120888464Y-64337841D01*
X120888473Y-64337838D01*
X120890924Y-64336958D01*
X120893294Y-64335879D01*
X120893302Y-64335876D01*
X121303282Y-64149264D01*
X121303285Y-64149263D01*
X121305650Y-64148186D01*
X121703371Y-63925812D01*
X122081369Y-63671353D01*
X122159394Y-63608879D01*
X122435032Y-63388176D01*
X122437064Y-63386549D01*
X122564822Y-63265645D01*
X122766137Y-63075131D01*
X122766141Y-63075127D01*
X122768025Y-63073344D01*
X123071991Y-62733879D01*
X123073561Y-62731804D01*
X123345315Y-62372549D01*
X123345325Y-62372535D01*
X123346886Y-62370471D01*
X123576857Y-62007653D01*
X123580211Y-62002633D01*
X123581770Y-62000417D01*
X123584874Y-61996658D01*
X123591282Y-61985864D01*
X123600833Y-61962044D01*
X123609048Y-61945276D01*
X123617492Y-61930855D01*
X123617492Y-61930854D01*
X123622028Y-61923108D01*
X123626235Y-61906298D01*
X123629208Y-61894415D01*
X123634491Y-61878108D01*
X123642150Y-61859007D01*
X123642150Y-61859006D01*
X123645493Y-61850670D01*
X123646409Y-61841251D01*
X123647975Y-61825125D01*
X123651154Y-61806720D01*
X123655208Y-61790520D01*
X123655208Y-61790519D01*
X123657388Y-61781808D01*
X123657035Y-61772799D01*
X123656227Y-61752252D01*
X123656721Y-61735121D01*
X123658712Y-61714629D01*
X123659580Y-61705696D01*
X123654791Y-61680470D01*
X123652678Y-61661922D01*
X123652663Y-61661539D01*
X123651670Y-61636262D01*
X123642260Y-61608219D01*
X123637927Y-61591642D01*
X123634087Y-61571418D01*
X123634085Y-61571412D01*
X123632411Y-61562595D01*
X123620738Y-61539734D01*
X123613503Y-61522521D01*
X123608188Y-61506683D01*
X123605332Y-61498172D01*
X123588428Y-61473895D01*
X123579618Y-61459204D01*
X123570253Y-61440864D01*
X123566171Y-61432870D01*
X123557839Y-61424043D01*
X123548549Y-61414202D01*
X123536773Y-61399712D01*
X123522099Y-61378638D01*
X123499066Y-61360086D01*
X123486479Y-61348451D01*
X123472345Y-61333478D01*
X123472343Y-61333476D01*
X123466184Y-61326952D01*
X123436467Y-61309551D01*
X123435807Y-61309132D01*
X123434938Y-61308433D01*
X123432348Y-61306938D01*
X123432336Y-61306930D01*
X123407915Y-61292831D01*
X123407250Y-61292444D01*
X123343886Y-61255342D01*
X123343879Y-61255339D01*
X123340488Y-61253353D01*
X123339133Y-61253014D01*
X123337924Y-61252422D01*
X114747399Y-56292680D01*
X114745411Y-56291508D01*
X114693725Y-56260391D01*
X114693722Y-56260390D01*
X114686032Y-56255760D01*
X114653667Y-56247239D01*
X114638850Y-56242339D01*
X114636244Y-56241294D01*
X114607797Y-56229887D01*
X114598860Y-56229019D01*
X114598857Y-56229018D01*
X114586132Y-56227782D01*
X114566237Y-56224221D01*
X114553855Y-56220961D01*
X114553853Y-56220961D01*
X114545175Y-56218676D01*
X114511716Y-56219581D01*
X114496130Y-56219036D01*
X114462823Y-56215800D01*
X114445778Y-56219036D01*
X114441432Y-56219861D01*
X114421339Y-56222026D01*
X114408542Y-56222372D01*
X114408540Y-56222372D01*
X114399570Y-56222615D01*
X114391028Y-56225366D01*
X114391027Y-56225366D01*
X114367719Y-56232872D01*
X114352600Y-56236726D01*
X114334708Y-56240123D01*
X114319722Y-56242968D01*
X114311732Y-56247048D01*
X114311729Y-56247049D01*
X114308140Y-56248882D01*
X114300328Y-56252871D01*
X114281651Y-56260588D01*
X114269471Y-56264510D01*
X114269467Y-56264512D01*
X114260924Y-56267263D01*
X114234254Y-56285354D01*
X114233228Y-56286050D01*
X114219796Y-56293993D01*
X114197990Y-56305127D01*
X114197987Y-56305129D01*
X114189997Y-56309209D01*
X114183473Y-56315368D01*
X114183470Y-56315370D01*
X114174163Y-56324156D01*
X114158404Y-56336804D01*
X114149121Y-56343101D01*
X114140382Y-56349029D01*
X114134665Y-56355952D01*
X114119073Y-56374832D01*
X114108422Y-56386215D01*
X114084079Y-56409196D01*
X114079547Y-56416936D01*
X114079544Y-56416940D01*
X114073078Y-56427984D01*
X114061499Y-56444552D01*
X114047634Y-56461341D01*
X114041226Y-56472135D01*
X114039443Y-56476581D01*
X114038297Y-56478834D01*
X113830338Y-56876089D01*
X113711372Y-57157793D01*
X113674398Y-57245346D01*
X113653066Y-57295858D01*
X113511063Y-57728834D01*
X113405300Y-58172056D01*
X113404905Y-58174642D01*
X113342254Y-58584829D01*
X113336500Y-58622499D01*
X113319356Y-58870943D01*
X113312471Y-58970724D01*
X113305131Y-59077085D01*
X111298859Y-59077085D01*
X111285641Y-58866980D01*
X111226495Y-58556928D01*
X111128956Y-58256734D01*
X111101621Y-58198643D01*
X110996250Y-57974717D01*
X110996246Y-57974710D01*
X110994562Y-57971131D01*
X110825432Y-57704625D01*
X110652345Y-57495399D01*
X110626758Y-57464470D01*
X110626757Y-57464469D01*
X110624233Y-57461418D01*
X110394140Y-57245346D01*
X110138779Y-57059816D01*
X109938146Y-56949516D01*
X109894490Y-56925516D01*
X109844431Y-56875171D01*
X109829538Y-56805754D01*
X109854539Y-56739305D01*
X109911496Y-56696921D01*
X109966246Y-56690641D01*
X109966302Y-56689755D01*
X109970248Y-56690003D01*
X109974179Y-56690500D01*
X110289821Y-56690500D01*
X110602975Y-56650940D01*
X110908702Y-56572443D01*
X110912981Y-56570749D01*
X111198505Y-56457702D01*
X111198510Y-56457700D01*
X111202179Y-56456247D01*
X111237673Y-56436734D01*
X111475307Y-56306093D01*
X111475310Y-56306091D01*
X111478779Y-56304184D01*
X111678369Y-56159174D01*
X111730936Y-56120982D01*
X111730938Y-56120981D01*
X111734140Y-56118654D01*
X111927377Y-55937192D01*
X111961342Y-55905297D01*
X111961343Y-55905296D01*
X111964233Y-55902582D01*
X112165432Y-55659375D01*
X112334562Y-55392869D01*
X112336246Y-55389290D01*
X112336250Y-55389283D01*
X112467267Y-55110856D01*
X112467269Y-55110852D01*
X112468956Y-55107266D01*
X112566495Y-54807072D01*
X112625641Y-54497020D01*
X112645460Y-54182000D01*
X112625641Y-53866980D01*
X112566495Y-53556928D01*
X112468956Y-53256734D01*
X112421558Y-53156007D01*
X112336250Y-52974717D01*
X112336246Y-52974710D01*
X112334562Y-52971131D01*
X112310349Y-52932977D01*
X112208805Y-52772969D01*
X112189192Y-52704735D01*
X112209583Y-52636730D01*
X112263503Y-52590544D01*
X112333834Y-52580842D01*
X112389249Y-52603518D01*
X112404425Y-52614544D01*
X112442019Y-52641858D01*
X112442023Y-52641861D01*
X112445221Y-52644184D01*
X112448690Y-52646091D01*
X112448693Y-52646093D01*
X112718352Y-52794340D01*
X112721821Y-52796247D01*
X112725490Y-52797700D01*
X112725495Y-52797702D01*
X112963117Y-52891783D01*
X113015298Y-52912443D01*
X113321025Y-52990940D01*
X113634179Y-53030500D01*
X113949821Y-53030500D01*
X114262975Y-52990940D01*
X114568702Y-52912443D01*
X114620883Y-52891783D01*
X114858505Y-52797702D01*
X114858510Y-52797700D01*
X114862179Y-52796247D01*
X114865648Y-52794340D01*
X115135307Y-52646093D01*
X115135310Y-52646091D01*
X115138779Y-52644184D01*
X115357302Y-52485418D01*
X115390936Y-52460982D01*
X115390938Y-52460981D01*
X115394140Y-52458654D01*
X115595732Y-52269346D01*
X115621342Y-52245297D01*
X115621343Y-52245296D01*
X115624233Y-52242582D01*
X115629155Y-52236633D01*
X115777474Y-52057346D01*
X115825432Y-51999375D01*
X115994562Y-51732869D01*
X115996246Y-51729290D01*
X115996250Y-51729283D01*
X116127267Y-51450856D01*
X116127269Y-51450852D01*
X116128956Y-51447266D01*
X116147102Y-51391420D01*
X116207398Y-51205847D01*
X116226495Y-51147072D01*
X116285641Y-50837020D01*
X116305460Y-50522000D01*
X116293728Y-50335526D01*
X116309413Y-50266284D01*
X116360043Y-50216514D01*
X116429544Y-50202018D01*
X116495849Y-50227397D01*
X116533487Y-50273967D01*
X116587750Y-50389283D01*
X116587754Y-50389290D01*
X116589438Y-50392869D01*
X116758568Y-50659375D01*
X116859167Y-50780978D01*
X116954012Y-50895625D01*
X116959767Y-50902582D01*
X116962657Y-50905296D01*
X116962658Y-50905297D01*
X116998999Y-50939423D01*
X117189860Y-51118654D01*
X117193062Y-51120981D01*
X117193064Y-51120982D01*
X117228974Y-51147072D01*
X117445221Y-51304184D01*
X117448690Y-51306091D01*
X117448693Y-51306093D01*
X117700215Y-51444369D01*
X117721821Y-51456247D01*
X117725490Y-51457700D01*
X117725495Y-51457702D01*
X118011628Y-51570990D01*
X118015298Y-51572443D01*
X118321025Y-51650940D01*
X118634179Y-51690500D01*
X118949821Y-51690500D01*
X119262975Y-51650940D01*
X119568702Y-51572443D01*
X119572372Y-51570990D01*
X119858505Y-51457702D01*
X119858510Y-51457700D01*
X119862179Y-51456247D01*
X119883785Y-51444369D01*
X120135307Y-51306093D01*
X120135310Y-51306091D01*
X120138779Y-51304184D01*
X120355026Y-51147072D01*
X120390936Y-51120982D01*
X120390938Y-51120981D01*
X120394140Y-51118654D01*
X120585001Y-50939423D01*
X120621342Y-50905297D01*
X120621343Y-50905296D01*
X120624233Y-50902582D01*
X120629989Y-50895625D01*
X120724833Y-50780978D01*
X120825432Y-50659375D01*
X120994562Y-50392869D01*
X120996246Y-50389290D01*
X120996250Y-50389283D01*
X121050513Y-50273967D01*
X121097616Y-50220846D01*
X121165960Y-50201623D01*
X121233848Y-50222402D01*
G37*
%TD.AperFunction*%
%TA.AperFunction,NonConductor*%
G36*
X152221848Y-50246402D02*
G01*
X152267725Y-50300585D01*
X152278272Y-50359526D01*
X152266540Y-50546000D01*
X152286359Y-50861020D01*
X152345505Y-51171072D01*
X152443044Y-51471266D01*
X152444731Y-51474852D01*
X152444733Y-51474856D01*
X152575750Y-51753283D01*
X152575754Y-51753290D01*
X152577438Y-51756869D01*
X152746568Y-52023375D01*
X152776715Y-52059816D01*
X152925388Y-52239530D01*
X152947767Y-52266582D01*
X153177860Y-52482654D01*
X153181062Y-52484981D01*
X153181064Y-52484982D01*
X153191493Y-52492559D01*
X153433221Y-52668184D01*
X153436690Y-52670091D01*
X153436693Y-52670093D01*
X153668812Y-52797702D01*
X153709821Y-52820247D01*
X153713490Y-52821700D01*
X153713495Y-52821702D01*
X153945424Y-52913529D01*
X154003298Y-52936443D01*
X154309025Y-53014940D01*
X154622179Y-53054500D01*
X154937821Y-53054500D01*
X155250975Y-53014940D01*
X155556702Y-52936443D01*
X155614576Y-52913529D01*
X155846505Y-52821702D01*
X155846510Y-52821700D01*
X155850179Y-52820247D01*
X155891188Y-52797702D01*
X156123307Y-52670093D01*
X156123310Y-52670091D01*
X156126779Y-52668184D01*
X156129977Y-52665861D01*
X156129981Y-52665858D01*
X156151540Y-52650195D01*
X156182750Y-52627518D01*
X156249616Y-52603661D01*
X156318768Y-52619741D01*
X156368248Y-52670654D01*
X156382348Y-52740237D01*
X156363195Y-52796969D01*
X156264376Y-52952684D01*
X156237438Y-52995131D01*
X156235754Y-52998710D01*
X156235750Y-52998717D01*
X156114337Y-53256734D01*
X156103044Y-53280734D01*
X156005505Y-53580928D01*
X155946359Y-53890980D01*
X155926540Y-54206000D01*
X155946359Y-54521020D01*
X156005505Y-54831072D01*
X156103044Y-55131266D01*
X156104731Y-55134852D01*
X156104733Y-55134856D01*
X156235750Y-55413283D01*
X156235754Y-55413290D01*
X156237438Y-55416869D01*
X156406568Y-55683375D01*
X156409093Y-55686427D01*
X156585388Y-55899530D01*
X156607767Y-55926582D01*
X156837860Y-56142654D01*
X157093221Y-56328184D01*
X157096690Y-56330091D01*
X157096693Y-56330093D01*
X157355065Y-56472135D01*
X157369821Y-56480247D01*
X157373490Y-56481700D01*
X157373495Y-56481702D01*
X157659628Y-56594990D01*
X157663298Y-56596443D01*
X157969025Y-56674940D01*
X158282179Y-56714500D01*
X158597821Y-56714500D01*
X158601752Y-56714003D01*
X158605698Y-56713755D01*
X158605768Y-56714865D01*
X158671099Y-56725398D01*
X158723954Y-56772799D01*
X158742791Y-56841251D01*
X158721630Y-56909021D01*
X158677510Y-56949516D01*
X158472644Y-57062143D01*
X158433221Y-57083816D01*
X158233631Y-57228826D01*
X158214098Y-57243018D01*
X158177860Y-57269346D01*
X158124059Y-57319869D01*
X157976216Y-57458703D01*
X157947767Y-57485418D01*
X157746568Y-57728625D01*
X157577438Y-57995131D01*
X157575754Y-57998710D01*
X157575750Y-57998717D01*
X157454337Y-58256734D01*
X157443044Y-58280734D01*
X157345505Y-58580928D01*
X157286359Y-58890980D01*
X157266540Y-59206000D01*
X157286359Y-59521020D01*
X157345505Y-59831072D01*
X157443044Y-60131266D01*
X157444731Y-60134852D01*
X157444733Y-60134856D01*
X157575750Y-60413283D01*
X157575754Y-60413290D01*
X157577438Y-60416869D01*
X157746568Y-60683375D01*
X157749093Y-60686427D01*
X157925388Y-60899530D01*
X157947767Y-60926582D01*
X158177860Y-61142654D01*
X158433221Y-61328184D01*
X158436690Y-61330091D01*
X158436693Y-61330093D01*
X158677510Y-61462484D01*
X158727569Y-61512829D01*
X158742462Y-61582246D01*
X158717461Y-61648695D01*
X158660504Y-61691079D01*
X158605754Y-61697359D01*
X158605698Y-61698245D01*
X158601752Y-61697997D01*
X158597821Y-61697500D01*
X158282179Y-61697500D01*
X157969025Y-61737060D01*
X157663298Y-61815557D01*
X157659629Y-61817010D01*
X157659628Y-61817010D01*
X157373495Y-61930298D01*
X157373490Y-61930300D01*
X157369821Y-61931753D01*
X157366353Y-61933659D01*
X157366352Y-61933660D01*
X157107000Y-62076241D01*
X157093221Y-62083816D01*
X156922988Y-62207497D01*
X156874098Y-62243018D01*
X156837860Y-62269346D01*
X156716078Y-62383707D01*
X156612045Y-62481401D01*
X156607767Y-62485418D01*
X156406568Y-62728625D01*
X156237438Y-62995131D01*
X156235754Y-62998710D01*
X156235750Y-62998717D01*
X156114337Y-63256734D01*
X156103044Y-63280734D01*
X156005505Y-63580928D01*
X155946359Y-63890980D01*
X155926540Y-64206000D01*
X155946359Y-64521020D01*
X156005505Y-64831072D01*
X156103044Y-65131266D01*
X156104731Y-65134852D01*
X156104733Y-65134856D01*
X156235750Y-65413283D01*
X156235754Y-65413290D01*
X156237438Y-65416869D01*
X156239562Y-65420215D01*
X156239562Y-65420216D01*
X156363195Y-65615031D01*
X156382808Y-65683265D01*
X156362417Y-65751270D01*
X156308497Y-65797456D01*
X156238166Y-65807158D01*
X156182751Y-65784482D01*
X156151539Y-65761805D01*
X156129981Y-65746142D01*
X156129977Y-65746139D01*
X156126779Y-65743816D01*
X156122287Y-65741346D01*
X155853648Y-65593660D01*
X155853647Y-65593659D01*
X155850179Y-65591753D01*
X155846510Y-65590300D01*
X155846505Y-65590298D01*
X155560372Y-65477010D01*
X155560371Y-65477010D01*
X155556702Y-65475557D01*
X155250975Y-65397060D01*
X154937821Y-65357500D01*
X154622179Y-65357500D01*
X154309025Y-65397060D01*
X154003298Y-65475557D01*
X153999629Y-65477010D01*
X153999628Y-65477010D01*
X153713495Y-65590298D01*
X153713490Y-65590300D01*
X153709821Y-65591753D01*
X153706353Y-65593659D01*
X153706352Y-65593660D01*
X153437714Y-65741346D01*
X153433221Y-65743816D01*
X153233631Y-65888826D01*
X153214098Y-65903018D01*
X153177860Y-65929346D01*
X152986999Y-66108577D01*
X152976216Y-66118703D01*
X152947767Y-66145418D01*
X152746568Y-66388625D01*
X152577438Y-66655131D01*
X152575754Y-66658710D01*
X152575750Y-66658717D01*
X152445802Y-66934872D01*
X152443044Y-66940734D01*
X152345505Y-67240928D01*
X152286359Y-67550980D01*
X152266540Y-67866000D01*
X152266789Y-67869957D01*
X152278272Y-68052473D01*
X152262587Y-68121716D01*
X152211957Y-68171486D01*
X152142456Y-68185982D01*
X152076151Y-68160603D01*
X152038513Y-68114033D01*
X151984250Y-67998717D01*
X151984246Y-67998710D01*
X151982562Y-67995131D01*
X151813432Y-67728625D01*
X151646616Y-67526980D01*
X151614758Y-67488470D01*
X151614757Y-67488469D01*
X151612233Y-67485418D01*
X151583785Y-67458703D01*
X151552798Y-67429605D01*
X151382140Y-67269346D01*
X151345903Y-67243018D01*
X151315362Y-67220829D01*
X151126779Y-67083816D01*
X151111653Y-67075500D01*
X150853648Y-66933660D01*
X150853647Y-66933659D01*
X150850179Y-66931753D01*
X150846510Y-66930300D01*
X150846505Y-66930298D01*
X150560372Y-66817010D01*
X150560371Y-66817010D01*
X150556702Y-66815557D01*
X150250975Y-66737060D01*
X149937821Y-66697500D01*
X149795633Y-66697500D01*
X149727512Y-66677498D01*
X149706538Y-66660595D01*
X147651142Y-64605199D01*
X147617116Y-64542887D01*
X147622181Y-64472072D01*
X147664728Y-64415236D01*
X147731248Y-64390425D01*
X147782787Y-64397506D01*
X148109927Y-64514876D01*
X148112427Y-64515546D01*
X148112437Y-64515549D01*
X148273960Y-64558828D01*
X148550069Y-64632810D01*
X148998447Y-64713995D01*
X149001027Y-64714245D01*
X149001037Y-64714246D01*
X149449408Y-64757627D01*
X149449420Y-64757628D01*
X149451997Y-64757877D01*
X149454587Y-64757913D01*
X149454593Y-64757913D01*
X149712727Y-64761469D01*
X149907622Y-64764154D01*
X149910214Y-64763975D01*
X149910219Y-64763975D01*
X150359604Y-64732966D01*
X150359608Y-64732966D01*
X150362210Y-64732786D01*
X150364794Y-64732391D01*
X150364797Y-64732391D01*
X150810062Y-64664380D01*
X150810064Y-64664380D01*
X150812654Y-64663984D01*
X151255878Y-64558221D01*
X151688855Y-64416218D01*
X151691254Y-64415205D01*
X151691259Y-64415203D01*
X152106238Y-64239953D01*
X152106248Y-64239948D01*
X152108626Y-64238944D01*
X152512324Y-64027613D01*
X152514522Y-64026219D01*
X152514532Y-64026214D01*
X152771899Y-63863082D01*
X152897192Y-63783665D01*
X152927117Y-63761029D01*
X153258526Y-63510339D01*
X153258532Y-63510334D01*
X153260601Y-63508769D01*
X153395278Y-63388176D01*
X153598125Y-63206542D01*
X153598127Y-63206540D01*
X153600068Y-63204802D01*
X153606302Y-63198215D01*
X153911492Y-62875724D01*
X153911503Y-62875712D01*
X153913274Y-62873840D01*
X154198079Y-62518145D01*
X154358063Y-62280489D01*
X154451083Y-62142309D01*
X154451091Y-62142296D01*
X154452539Y-62140145D01*
X154460281Y-62126300D01*
X154673643Y-61744698D01*
X154674915Y-61742423D01*
X154715120Y-61654095D01*
X154862606Y-61330074D01*
X154862609Y-61330066D01*
X154863688Y-61327696D01*
X154870334Y-61309174D01*
X155016688Y-60901250D01*
X155016689Y-60901248D01*
X155017568Y-60898797D01*
X155101654Y-60584990D01*
X155134835Y-60461157D01*
X155134836Y-60461154D01*
X155135505Y-60458656D01*
X155216692Y-60010278D01*
X155260575Y-59556728D01*
X155260871Y-59535298D01*
X155265740Y-59182000D01*
X155266855Y-59101103D01*
X155257004Y-58958328D01*
X155235667Y-58649110D01*
X155235488Y-58646515D01*
X155176531Y-58260507D01*
X155167082Y-58198643D01*
X155167081Y-58198639D01*
X155166689Y-58196071D01*
X155158840Y-58163175D01*
X155064022Y-57765812D01*
X155060928Y-57752846D01*
X154918926Y-57319869D01*
X154741655Y-56900097D01*
X154698287Y-56817251D01*
X154542444Y-56519547D01*
X154539764Y-56514114D01*
X154538623Y-56511653D01*
X154536919Y-56507084D01*
X154530776Y-56496138D01*
X154514917Y-56475948D01*
X154504502Y-56460448D01*
X154496241Y-56445936D01*
X154491799Y-56438132D01*
X154485346Y-56431889D01*
X154485344Y-56431887D01*
X154470542Y-56417568D01*
X154459064Y-56404844D01*
X154440800Y-56381592D01*
X154433499Y-56376374D01*
X154433497Y-56376373D01*
X154419911Y-56366665D01*
X154405563Y-56354710D01*
X154393562Y-56343101D01*
X154387109Y-56336858D01*
X154360930Y-56323085D01*
X154346345Y-56314094D01*
X154339510Y-56309209D01*
X154322292Y-56296905D01*
X154298051Y-56288440D01*
X154280930Y-56280995D01*
X154258204Y-56269038D01*
X154229218Y-56263167D01*
X154212700Y-56258632D01*
X154193258Y-56251842D01*
X154193251Y-56251841D01*
X154184779Y-56248882D01*
X154175816Y-56248420D01*
X154175815Y-56248420D01*
X154165632Y-56247895D01*
X154159139Y-56247561D01*
X154140609Y-56245220D01*
X154124245Y-56241905D01*
X154124243Y-56241905D01*
X154115446Y-56240123D01*
X154085981Y-56242623D01*
X154068847Y-56242907D01*
X154039314Y-56241385D01*
X154014325Y-56247315D01*
X153995893Y-56250267D01*
X153986276Y-56251083D01*
X153979253Y-56251679D01*
X153979252Y-56251679D01*
X153970310Y-56252438D01*
X153942730Y-56263108D01*
X153926367Y-56268189D01*
X153897592Y-56275017D01*
X153889788Y-56279459D01*
X153889789Y-56279459D01*
X153867665Y-56292052D01*
X153866958Y-56292422D01*
X153865930Y-56292819D01*
X153863350Y-56294309D01*
X153863332Y-56294318D01*
X153839072Y-56308325D01*
X153838403Y-56308708D01*
X153774444Y-56345115D01*
X153774434Y-56345122D01*
X153771006Y-56347073D01*
X153770033Y-56348079D01*
X153768911Y-56348833D01*
X149400489Y-58870943D01*
X145178634Y-61308433D01*
X145178348Y-61308598D01*
X145176390Y-61309705D01*
X145115732Y-61343259D01*
X145092177Y-61367021D01*
X145080525Y-61377402D01*
X145069577Y-61386002D01*
X145054209Y-61398074D01*
X145048985Y-61405384D01*
X145041546Y-61415793D01*
X145028517Y-61431239D01*
X145021336Y-61438484D01*
X145013188Y-61446704D01*
X145008913Y-61454593D01*
X145007656Y-61456286D01*
X144950983Y-61499050D01*
X144880187Y-61504385D01*
X144817745Y-61470598D01*
X144783483Y-61408416D01*
X144780500Y-61381163D01*
X144780500Y-56427633D01*
X144800502Y-56359512D01*
X144817405Y-56338538D01*
X145352454Y-55803489D01*
X145367482Y-55790652D01*
X145378470Y-55782669D01*
X145423249Y-55732937D01*
X145427790Y-55728153D01*
X145441937Y-55714006D01*
X145454537Y-55698446D01*
X145458825Y-55693425D01*
X145467875Y-55683375D01*
X145472331Y-55678425D01*
X145499170Y-55648619D01*
X145499173Y-55648615D01*
X145503585Y-55643715D01*
X145506881Y-55638005D01*
X145506884Y-55638002D01*
X145510375Y-55631955D01*
X145521568Y-55615670D01*
X145525950Y-55610258D01*
X145530107Y-55605125D01*
X145560477Y-55545520D01*
X145563624Y-55539724D01*
X145566943Y-55533975D01*
X145597075Y-55481785D01*
X145601270Y-55468875D01*
X145608833Y-55450616D01*
X145614994Y-55438524D01*
X145632309Y-55373906D01*
X145634182Y-55367582D01*
X145652813Y-55310240D01*
X145654855Y-55303956D01*
X145656272Y-55290470D01*
X145659876Y-55271023D01*
X145661680Y-55264293D01*
X145661680Y-55264292D01*
X145663389Y-55257915D01*
X145666890Y-55191113D01*
X145667407Y-55184539D01*
X145669156Y-55167895D01*
X145669156Y-55167891D01*
X145669500Y-55164620D01*
X145669500Y-55144593D01*
X145669673Y-55137999D01*
X145672829Y-55077782D01*
X145672829Y-55077778D01*
X145673174Y-55071190D01*
X145671051Y-55057785D01*
X145669500Y-55038075D01*
X145669500Y-52977413D01*
X145689502Y-52909292D01*
X145749116Y-52860261D01*
X145846505Y-52821702D01*
X145846510Y-52821700D01*
X145850179Y-52820247D01*
X145891188Y-52797702D01*
X146123307Y-52670093D01*
X146123310Y-52670091D01*
X146126779Y-52668184D01*
X146368507Y-52492559D01*
X146378936Y-52484982D01*
X146378938Y-52484981D01*
X146382140Y-52482654D01*
X146612233Y-52266582D01*
X146634613Y-52239530D01*
X146783285Y-52059816D01*
X146813432Y-52023375D01*
X146982562Y-51756869D01*
X146984246Y-51753290D01*
X146984250Y-51753283D01*
X147115267Y-51474856D01*
X147115269Y-51474852D01*
X147116956Y-51471266D01*
X147214495Y-51171072D01*
X147273641Y-50861020D01*
X147293460Y-50546000D01*
X147281728Y-50359526D01*
X147297413Y-50290284D01*
X147348043Y-50240514D01*
X147417544Y-50226018D01*
X147483849Y-50251397D01*
X147521487Y-50297967D01*
X147575750Y-50413283D01*
X147575754Y-50413290D01*
X147577438Y-50416869D01*
X147746568Y-50683375D01*
X147749093Y-50686427D01*
X147925388Y-50899530D01*
X147947767Y-50926582D01*
X148177860Y-51142654D01*
X148433221Y-51328184D01*
X148436690Y-51330091D01*
X148436693Y-51330093D01*
X148693485Y-51471266D01*
X148709821Y-51480247D01*
X148713490Y-51481700D01*
X148713495Y-51481702D01*
X148953501Y-51576727D01*
X149003298Y-51596443D01*
X149309025Y-51674940D01*
X149622179Y-51714500D01*
X149937821Y-51714500D01*
X150250975Y-51674940D01*
X150556702Y-51596443D01*
X150606499Y-51576727D01*
X150846505Y-51481702D01*
X150846510Y-51481700D01*
X150850179Y-51480247D01*
X150866515Y-51471266D01*
X151123307Y-51330093D01*
X151123310Y-51330091D01*
X151126779Y-51328184D01*
X151382140Y-51142654D01*
X151612233Y-50926582D01*
X151634613Y-50899530D01*
X151810907Y-50686427D01*
X151813432Y-50683375D01*
X151982562Y-50416869D01*
X151984246Y-50413290D01*
X151984250Y-50413283D01*
X152038513Y-50297967D01*
X152085616Y-50244846D01*
X152153960Y-50225623D01*
X152221848Y-50246402D01*
G37*
%TD.AperFunction*%
%TA.AperFunction,NonConductor*%
G36*
X147312958Y-66782901D02*
G01*
X147897350Y-67367293D01*
X147931376Y-67429605D01*
X147926311Y-67500420D01*
X147905339Y-67536704D01*
X147749100Y-67725563D01*
X147749093Y-67725573D01*
X147746568Y-67728625D01*
X147577438Y-67995131D01*
X147575754Y-67998710D01*
X147575750Y-67998717D01*
X147521487Y-68114033D01*
X147474384Y-68167154D01*
X147406040Y-68186377D01*
X147338152Y-68165598D01*
X147292275Y-68111415D01*
X147281728Y-68052473D01*
X147293211Y-67869957D01*
X147293460Y-67866000D01*
X147273641Y-67550980D01*
X147214495Y-67240928D01*
X147116956Y-66940734D01*
X147109855Y-66925643D01*
X147098949Y-66855491D01*
X147127701Y-66790578D01*
X147186985Y-66751514D01*
X147257977Y-66750702D01*
X147312958Y-66782901D01*
G37*
%TD.AperFunction*%
%TA.AperFunction,NonConductor*%
G36*
X134393488Y-83021502D02*
G01*
X134414462Y-83038405D01*
X136309624Y-84933567D01*
X136343650Y-84995879D01*
X136338585Y-85066694D01*
X136334537Y-85076309D01*
X136323044Y-85100734D01*
X136321818Y-85104506D01*
X136321818Y-85104507D01*
X136308035Y-85146928D01*
X136225505Y-85400928D01*
X136166359Y-85710980D01*
X136146540Y-86026000D01*
X136166359Y-86341020D01*
X136225505Y-86651072D01*
X136323044Y-86951266D01*
X136324731Y-86954852D01*
X136324733Y-86954856D01*
X136455750Y-87233283D01*
X136455754Y-87233290D01*
X136457438Y-87236869D01*
X136626568Y-87503375D01*
X136827767Y-87746582D01*
X137057860Y-87962654D01*
X137313221Y-88148184D01*
X137325776Y-88155086D01*
X137375834Y-88205430D01*
X137390728Y-88274846D01*
X137365728Y-88341296D01*
X137308771Y-88383680D01*
X137265075Y-88391500D01*
X136183633Y-88391500D01*
X136115512Y-88371498D01*
X136094538Y-88354595D01*
X132939489Y-85199546D01*
X132926652Y-85184518D01*
X132918669Y-85173530D01*
X132868937Y-85128751D01*
X132864153Y-85124210D01*
X132850006Y-85110063D01*
X132834446Y-85097463D01*
X132829425Y-85093175D01*
X132784619Y-85052830D01*
X132784615Y-85052827D01*
X132779715Y-85048415D01*
X132774005Y-85045119D01*
X132774002Y-85045116D01*
X132767955Y-85041625D01*
X132751670Y-85030432D01*
X132741125Y-85021893D01*
X132681520Y-84991523D01*
X132675724Y-84988376D01*
X132669975Y-84985057D01*
X132617785Y-84954925D01*
X132604875Y-84950730D01*
X132586616Y-84943167D01*
X132574524Y-84937006D01*
X132509906Y-84919691D01*
X132503582Y-84917818D01*
X132483220Y-84911202D01*
X132424614Y-84871129D01*
X132408148Y-84845017D01*
X132403640Y-84835437D01*
X132274562Y-84561131D01*
X132105432Y-84294625D01*
X131933323Y-84086582D01*
X131906758Y-84054470D01*
X131906757Y-84054469D01*
X131904233Y-84051418D01*
X131674140Y-83835346D01*
X131670306Y-83832560D01*
X131618369Y-83794826D01*
X131418779Y-83649816D01*
X131414287Y-83647346D01*
X131145648Y-83499660D01*
X131145647Y-83499659D01*
X131142179Y-83497753D01*
X131138510Y-83496300D01*
X131138505Y-83496298D01*
X130852372Y-83383010D01*
X130852371Y-83383010D01*
X130848702Y-83381557D01*
X130542975Y-83303060D01*
X130229821Y-83263500D01*
X129914179Y-83263500D01*
X129601025Y-83303060D01*
X129295298Y-83381557D01*
X129291629Y-83383010D01*
X129291628Y-83383010D01*
X129005495Y-83496298D01*
X129005490Y-83496300D01*
X129001821Y-83497753D01*
X128998353Y-83499659D01*
X128998352Y-83499660D01*
X128729714Y-83647346D01*
X128725221Y-83649816D01*
X128722023Y-83652139D01*
X128722019Y-83652142D01*
X128722018Y-83652143D01*
X128669250Y-83690482D01*
X128602384Y-83714339D01*
X128533232Y-83698259D01*
X128483752Y-83647346D01*
X128469652Y-83577763D01*
X128488805Y-83521031D01*
X128612438Y-83326216D01*
X128612438Y-83326215D01*
X128614562Y-83322869D01*
X128616246Y-83319290D01*
X128616250Y-83319283D01*
X128731740Y-83073852D01*
X128778842Y-83020731D01*
X128845748Y-83001500D01*
X134325367Y-83001500D01*
X134393488Y-83021502D01*
G37*
%TD.AperFunction*%
%TA.AperFunction,NonConductor*%
G36*
X167602697Y-95633212D02*
G01*
X167637000Y-95695372D01*
X167640000Y-95722704D01*
X167640000Y-96394000D01*
X167619998Y-96462121D01*
X167566342Y-96508614D01*
X167514000Y-96520000D01*
X166842704Y-96520000D01*
X166774583Y-96499998D01*
X166728090Y-96446342D01*
X166717986Y-96376068D01*
X166747480Y-96311488D01*
X166767643Y-96292798D01*
X166854670Y-96228254D01*
X167113586Y-95993586D01*
X167348254Y-95734670D01*
X167412797Y-95647644D01*
X167469442Y-95604846D01*
X167540234Y-95599465D01*
X167602697Y-95633212D01*
G37*
%TD.AperFunction*%
%TA.AperFunction,NonConductor*%
G36*
X101808512Y-95627480D02*
G01*
X101827202Y-95647643D01*
X101891746Y-95734670D01*
X102126414Y-95993586D01*
X102385330Y-96228254D01*
X102472356Y-96292797D01*
X102515154Y-96349442D01*
X102520535Y-96420234D01*
X102486788Y-96482697D01*
X102424628Y-96517000D01*
X102397296Y-96520000D01*
X101726000Y-96520000D01*
X101657879Y-96499998D01*
X101611386Y-96446342D01*
X101600000Y-96394000D01*
X101600000Y-95722704D01*
X101620002Y-95654583D01*
X101673658Y-95608090D01*
X101743932Y-95597986D01*
X101808512Y-95627480D01*
G37*
%TD.AperFunction*%
%TA.AperFunction,Conductor*%
%TO.N,/CHARGING_D+*%
G36*
X146249389Y-44217037D02*
G01*
X146380656Y-44276984D01*
X146465054Y-44344997D01*
X147428696Y-45308639D01*
X147515176Y-45424163D01*
X147565606Y-45559371D01*
X147577193Y-45666551D01*
X147579767Y-47876263D01*
X147559396Y-48019126D01*
X147531517Y-48092718D01*
X147443044Y-48280734D01*
X147438123Y-48295880D01*
X147438122Y-48295882D01*
X147350423Y-48565790D01*
X147350421Y-48565799D01*
X147345505Y-48580928D01*
X147286359Y-48890980D01*
X147283651Y-48890463D01*
X147252365Y-49004187D01*
X147176437Y-49126904D01*
X147069012Y-49223260D01*
X146968862Y-49269689D01*
X146929110Y-49294916D01*
X145817564Y-50406462D01*
X143735305Y-50399331D01*
X142639807Y-49303833D01*
X142614652Y-49285002D01*
X142601490Y-49298164D01*
X142586412Y-49321924D01*
X142571094Y-49349788D01*
X142450293Y-49606504D01*
X142438589Y-49636062D01*
X142350908Y-49905916D01*
X142343005Y-49936698D01*
X142334586Y-49980830D01*
X142287647Y-50117290D01*
X142204164Y-50234998D01*
X142090900Y-50324418D01*
X141957032Y-50378306D01*
X141834831Y-50392822D01*
X139810473Y-50385890D01*
X138711982Y-50382128D01*
X138569217Y-50361102D01*
X138438156Y-50300705D01*
X138329420Y-50205831D01*
X138303547Y-50173136D01*
X138293325Y-50159066D01*
X138280040Y-50136056D01*
X138262265Y-50116315D01*
X138262263Y-50116312D01*
X138170033Y-50013880D01*
X138170030Y-50013877D01*
X138152253Y-49994134D01*
X138083143Y-49943923D01*
X138019246Y-49897498D01*
X138019244Y-49897497D01*
X137997752Y-49881882D01*
X137973485Y-49871078D01*
X137973482Y-49871076D01*
X137847555Y-49815010D01*
X137847552Y-49815009D01*
X137823288Y-49804206D01*
X137797309Y-49798684D01*
X137797306Y-49798683D01*
X137737858Y-49786047D01*
X137636487Y-49764500D01*
X137445513Y-49764500D01*
X137344142Y-49786047D01*
X137284694Y-49798683D01*
X137284691Y-49798684D01*
X137258712Y-49804206D01*
X137234448Y-49815009D01*
X137234445Y-49815010D01*
X137108518Y-49871076D01*
X137108515Y-49871078D01*
X137084248Y-49881882D01*
X137062756Y-49897497D01*
X137062754Y-49897498D01*
X136998857Y-49943923D01*
X136929747Y-49994134D01*
X136911970Y-50013877D01*
X136911967Y-50013880D01*
X136819737Y-50116312D01*
X136819735Y-50116315D01*
X136801960Y-50136056D01*
X136789173Y-50158204D01*
X136738364Y-50217693D01*
X136730444Y-50225613D01*
X136614920Y-50312093D01*
X136479712Y-50362523D01*
X136370205Y-50374107D01*
X132832419Y-50361992D01*
X132689652Y-50340966D01*
X132558591Y-50280569D01*
X132475652Y-50213498D01*
X131911666Y-49649513D01*
X131888986Y-49625298D01*
X131869835Y-49603460D01*
X131869833Y-49603458D01*
X131854506Y-49585981D01*
X131836252Y-49571591D01*
X131836250Y-49571589D01*
X131788949Y-49534301D01*
X131778627Y-49525942D01*
X131732333Y-49487439D01*
X131714460Y-49472574D01*
X131701302Y-49465205D01*
X131689463Y-49455872D01*
X131668898Y-49445052D01*
X131668896Y-49445051D01*
X131615589Y-49417005D01*
X131603961Y-49410692D01*
X131531096Y-49369885D01*
X131516813Y-49365037D01*
X131503473Y-49358018D01*
X131481273Y-49351125D01*
X131481269Y-49351123D01*
X131423773Y-49333270D01*
X131411147Y-49329168D01*
X131354086Y-49309798D01*
X131354083Y-49309797D01*
X131332088Y-49302331D01*
X131317166Y-49300167D01*
X131302766Y-49295696D01*
X131279687Y-49292964D01*
X131279685Y-49292964D01*
X131219881Y-49285886D01*
X131206725Y-49284154D01*
X131147101Y-49275509D01*
X131147096Y-49275509D01*
X131124103Y-49272175D01*
X131100886Y-49273087D01*
X131100882Y-49273087D01*
X131049429Y-49275109D01*
X131029524Y-49275500D01*
X126250266Y-49275500D01*
X126107428Y-49254963D01*
X125976161Y-49195016D01*
X125867101Y-49100514D01*
X125840095Y-49066508D01*
X125833964Y-49058070D01*
X125825432Y-49044625D01*
X125624233Y-48801418D01*
X125394140Y-48585346D01*
X125293272Y-48512061D01*
X125151671Y-48409182D01*
X125151665Y-48409178D01*
X125138779Y-48399816D01*
X125124820Y-48392142D01*
X125124817Y-48392140D01*
X125106589Y-48382119D01*
X143519388Y-48382119D01*
X143525791Y-48393765D01*
X144754358Y-49622332D01*
X144780438Y-49641855D01*
X144792952Y-49635022D01*
X146021646Y-48406328D01*
X146040477Y-48381173D01*
X146031079Y-48371775D01*
X145863923Y-48279880D01*
X145835160Y-48266345D01*
X145571362Y-48161900D01*
X145541110Y-48152070D01*
X145266313Y-48081514D01*
X145235077Y-48075555D01*
X144953593Y-48039996D01*
X144921864Y-48038000D01*
X144638136Y-48038000D01*
X144606407Y-48039996D01*
X144324923Y-48075555D01*
X144293687Y-48081514D01*
X144018890Y-48152070D01*
X143988638Y-48161900D01*
X143724840Y-48266345D01*
X143696077Y-48279880D01*
X143544488Y-48363217D01*
X143519388Y-48382119D01*
X125106589Y-48382119D01*
X125028550Y-48339217D01*
X124862179Y-48247753D01*
X124568702Y-48131557D01*
X124373797Y-48081514D01*
X124278400Y-48057020D01*
X124278393Y-48057019D01*
X124262975Y-48053060D01*
X124106398Y-48033280D01*
X123965624Y-48015496D01*
X123965618Y-48015496D01*
X123949821Y-48013500D01*
X123634179Y-48013500D01*
X123618382Y-48015496D01*
X123618376Y-48015496D01*
X123477602Y-48033280D01*
X123321025Y-48053060D01*
X123305607Y-48057019D01*
X123305600Y-48057020D01*
X123210203Y-48081514D01*
X123015298Y-48131557D01*
X122721821Y-48247753D01*
X122555450Y-48339217D01*
X122459183Y-48392140D01*
X122459180Y-48392142D01*
X122445221Y-48399816D01*
X122432335Y-48409178D01*
X122432329Y-48409182D01*
X122290728Y-48512061D01*
X122189860Y-48585346D01*
X122178250Y-48596249D01*
X122178241Y-48596256D01*
X122041168Y-48724976D01*
X121922985Y-48807785D01*
X121786259Y-48853943D01*
X121642067Y-48859712D01*
X121502091Y-48824623D01*
X121377670Y-48751519D01*
X121278885Y-48646324D01*
X121211917Y-48512061D01*
X121133878Y-48271882D01*
X121133877Y-48271880D01*
X121128956Y-48256734D01*
X121032407Y-48051555D01*
X121001347Y-47985549D01*
X121001344Y-47985544D01*
X120994562Y-47971131D01*
X120825432Y-47704625D01*
X120624233Y-47461418D01*
X120394140Y-47245346D01*
X120345718Y-47210165D01*
X120151671Y-47069182D01*
X120151665Y-47069178D01*
X120138779Y-47059816D01*
X120124820Y-47052142D01*
X120124817Y-47052140D01*
X120043516Y-47007444D01*
X119862179Y-46907753D01*
X119568702Y-46791557D01*
X119463069Y-46764435D01*
X119278400Y-46717020D01*
X119278393Y-46717019D01*
X119262975Y-46713060D01*
X119106398Y-46693280D01*
X118965624Y-46675496D01*
X118965618Y-46675496D01*
X118949821Y-46673500D01*
X118634179Y-46673500D01*
X118618382Y-46675496D01*
X118618376Y-46675496D01*
X118477602Y-46693280D01*
X118321025Y-46713060D01*
X118305607Y-46717019D01*
X118305600Y-46717020D01*
X118120931Y-46764435D01*
X118015298Y-46791557D01*
X117721821Y-46907753D01*
X117540484Y-47007444D01*
X117459183Y-47052140D01*
X117459180Y-47052142D01*
X117445221Y-47059816D01*
X117432335Y-47069178D01*
X117432329Y-47069182D01*
X117238282Y-47210165D01*
X117189860Y-47245346D01*
X116959767Y-47461418D01*
X116758568Y-47704625D01*
X116589438Y-47971131D01*
X116582656Y-47985544D01*
X116582653Y-47985549D01*
X116551593Y-48051555D01*
X116455044Y-48256734D01*
X116450123Y-48271880D01*
X116450122Y-48271882D01*
X116362423Y-48541790D01*
X116362421Y-48541799D01*
X116357505Y-48556928D01*
X116298359Y-48866980D01*
X116295651Y-48866463D01*
X116264365Y-48980187D01*
X116188437Y-49102904D01*
X116081012Y-49199260D01*
X115980862Y-49245689D01*
X115941110Y-49270916D01*
X114911407Y-50300619D01*
X112664899Y-50292925D01*
X111651807Y-49279833D01*
X111626652Y-49261002D01*
X111613490Y-49274164D01*
X111598412Y-49297924D01*
X111583094Y-49325788D01*
X111463378Y-49580197D01*
X111383978Y-49700697D01*
X111273846Y-49793946D01*
X111141903Y-49852390D01*
X110998839Y-49871294D01*
X110856245Y-49849126D01*
X110725672Y-49787683D01*
X110617698Y-49691943D01*
X110541072Y-49569660D01*
X110502000Y-49430743D01*
X110497631Y-49364928D01*
X110497000Y-48832550D01*
X110517368Y-48689687D01*
X110577160Y-48558350D01*
X110645497Y-48473446D01*
X110760824Y-48358119D01*
X112531388Y-48358119D01*
X112537791Y-48369765D01*
X113766358Y-49598332D01*
X113792438Y-49617855D01*
X113804952Y-49611022D01*
X115033646Y-48382328D01*
X115052477Y-48357173D01*
X115043079Y-48347775D01*
X114875923Y-48255880D01*
X114847160Y-48242345D01*
X114583362Y-48137900D01*
X114553110Y-48128070D01*
X114278313Y-48057514D01*
X114247077Y-48051555D01*
X113965593Y-48015996D01*
X113933864Y-48014000D01*
X113650136Y-48014000D01*
X113618407Y-48015996D01*
X113336923Y-48051555D01*
X113305687Y-48057514D01*
X113030890Y-48128070D01*
X113000638Y-48137900D01*
X112736840Y-48242345D01*
X112708077Y-48255880D01*
X112556488Y-48339217D01*
X112531388Y-48358119D01*
X110760824Y-48358119D01*
X114773945Y-44344997D01*
X114889469Y-44258517D01*
X115024677Y-44208087D01*
X115132448Y-44196500D01*
X146106551Y-44196500D01*
X146249389Y-44217037D01*
G37*
%TD.AperFunction*%
%TD*%
M02*
