%TF.GenerationSoftware,KiCad,Pcbnew,6.0.10-86aedd382b~118~ubuntu20.04.1*%
%TF.CreationDate,2024-03-07T10:40:57-05:00*%
%TF.ProjectId,dash_connector_adapter,64617368-5f63-46f6-9e6e-6563746f725f,rev?*%
%TF.SameCoordinates,Original*%
%TF.FileFunction,Copper,L1,Top*%
%TF.FilePolarity,Positive*%
%FSLAX46Y46*%
G04 Gerber Fmt 4.6, Leading zero omitted, Abs format (unit mm)*
G04 Created by KiCad (PCBNEW 6.0.10-86aedd382b~118~ubuntu20.04.1) date 2024-03-07 10:40:57*
%MOMM*%
%LPD*%
G01*
G04 APERTURE LIST*
%TA.AperFunction,ComponentPad*%
%ADD10C,4.000000*%
%TD*%
%TA.AperFunction,ViaPad*%
%ADD11C,0.800000*%
%TD*%
%TA.AperFunction,Conductor*%
%ADD12C,0.762000*%
%TD*%
G04 APERTURE END LIST*
D10*
%TO.P,J4,1,1*%
%TO.N,/FUEL_LEVEL_SENDER*%
X130072000Y-85772000D03*
%TO.P,J4,2,2*%
%TO.N,/PARKING_BRAKE*%
X126412000Y-82112000D03*
%TO.P,J4,3*%
%TO.N,N/C*%
X112752000Y-85772000D03*
%TO.P,J4,4,4*%
%TO.N,/GND*%
X111412000Y-90772000D03*
%TO.P,J4,A,A*%
%TO.N,/12V_FUSE_16*%
X116412000Y-82112000D03*
%TD*%
%TO.P,J3,1,1*%
%TO.N,/PARKING_BRAKE*%
X138660000Y-86026000D03*
%TO.P,J3,2,2*%
%TO.N,/12V_FUSE_8*%
X142320000Y-82366000D03*
%TO.P,J3,3*%
%TO.N,N/C*%
X155980000Y-86026000D03*
%TO.P,J3,4,4*%
%TO.N,/FUEL_LEVEL_SENDER*%
X157320000Y-91026000D03*
%TO.P,J3,A,A*%
%TO.N,/GND*%
X152320000Y-82366000D03*
%TD*%
%TO.P,J2,1,1*%
%TO.N,unconnected-(J2-Pad1)*%
X159780000Y-59206000D03*
%TO.P,J2,2,2*%
%TO.N,/BULB_FAILURE*%
X158440000Y-64206000D03*
%TO.P,J2,3,3*%
%TO.N,/HIGH_BEAM*%
X154780000Y-67866000D03*
%TO.P,J2,4,4*%
%TO.N,/CHARGING_D+*%
X149780000Y-69206000D03*
%TO.P,J2,5,5*%
%TO.N,/BRAKE_FAILURE*%
X144780000Y-67866000D03*
%TO.P,J2,6,6*%
%TO.N,/BLINKER_RIGHT*%
X141120000Y-64206000D03*
%TO.P,J2,7,7*%
%TO.N,unconnected-(J2-Pad7)*%
X139780000Y-59206000D03*
%TO.P,J2,8,8*%
%TO.N,/BLINKER_LEFT*%
X141120000Y-54206000D03*
%TO.P,J2,9,9*%
%TO.N,/CHARGING_D+*%
X144780000Y-50546000D03*
%TO.P,J2,10,10*%
%TO.N,/COOLANT_TEMP*%
X149780000Y-49206000D03*
%TO.P,J2,11,11*%
%TO.N,/OIL_LAMP*%
X154780000Y-50546000D03*
%TO.P,J2,12,12*%
%TO.N,/OD_LAMP*%
X158440000Y-54206000D03*
%TD*%
%TO.P,J1,12,12*%
%TO.N,/BULB_FAILURE*%
X110132000Y-54182000D03*
%TO.P,J1,11,11*%
%TO.N,/CHARGING_D+*%
X113792000Y-50522000D03*
%TO.P,J1,10,10*%
%TO.N,/12V_RHEOSTAT*%
X118792000Y-49182000D03*
%TO.P,J1,9,9*%
%TO.N,/12V_FUSE_8*%
X123792000Y-50522000D03*
%TO.P,J1,8,8*%
%TO.N,/BLINKER_LEFT*%
X127452000Y-54182000D03*
%TO.P,J1,7,7*%
%TO.N,/BLINKER_RIGHT*%
X128792000Y-59182000D03*
%TO.P,J1,6,6*%
%TO.N,/AC RELAY*%
X127452000Y-64182000D03*
%TO.P,J1,5,5*%
%TO.N,/OIL_LAMP*%
X123792000Y-67842000D03*
%TO.P,J1,4,4*%
%TO.N,/OD_LAMP*%
X118792000Y-69182000D03*
%TO.P,J1,3,3*%
%TO.N,/HIGH_BEAM*%
X113792000Y-67842000D03*
%TO.P,J1,2,2*%
%TO.N,/COOLANT_TEMP*%
X110132000Y-64182000D03*
%TO.P,J1,1,1*%
%TO.N,/BRAKE_FAILURE*%
X108792000Y-59182000D03*
%TD*%
D11*
%TO.N,/OIL_LAMP*%
X129643000Y-67842000D03*
X136398000Y-66167000D03*
%TO.N,/OD_LAMP*%
X122047000Y-70993000D03*
X126111000Y-76708000D03*
%TO.N,/OIL_LAMP*%
X137541000Y-50673000D03*
%TO.N,/BRAKE_FAILURE*%
X139700000Y-74041000D03*
%TD*%
D12*
%TO.N,/OIL_LAMP*%
X129643000Y-67842000D02*
X129667000Y-67818000D01*
X129667000Y-67818000D02*
X134747000Y-67818000D01*
X134747000Y-67818000D02*
X136398000Y-66167000D01*
%TO.N,/HIGH_BEAM*%
X113792000Y-67842000D02*
X113792000Y-70866000D01*
X113792000Y-70866000D02*
X115697000Y-72771000D01*
X115697000Y-72771000D02*
X152781000Y-72771000D01*
X152781000Y-72771000D02*
X154780000Y-70772000D01*
X154780000Y-70772000D02*
X154780000Y-67866000D01*
%TO.N,/OD_LAMP*%
X126111000Y-76708000D02*
X153924000Y-76708000D01*
X153924000Y-76708000D02*
X162941000Y-67691000D01*
X162941000Y-67691000D02*
X162941000Y-55753000D01*
X162941000Y-55753000D02*
X161394000Y-54206000D01*
X161394000Y-54206000D02*
X158440000Y-54206000D01*
X120236000Y-69182000D02*
X122047000Y-70993000D01*
X118792000Y-69182000D02*
X120236000Y-69182000D01*
%TO.N,/OIL_LAMP*%
X137541000Y-50673000D02*
X142367000Y-45847000D01*
X142367000Y-45847000D02*
X152908000Y-45847000D01*
X152908000Y-45847000D02*
X154780000Y-47719000D01*
X154780000Y-47719000D02*
X154780000Y-50546000D01*
%TO.N,/BULB_FAILURE*%
X158440000Y-64206000D02*
X158440000Y-70160000D01*
X104648000Y-55880000D02*
X106346000Y-54182000D01*
X158440000Y-70160000D02*
X153162000Y-75438000D01*
X104648000Y-67183000D02*
X104648000Y-55880000D01*
X153162000Y-75438000D02*
X112903000Y-75438000D01*
X112903000Y-75438000D02*
X104648000Y-67183000D01*
X106346000Y-54182000D02*
X110132000Y-54182000D01*
%TO.N,/BRAKE_FAILURE*%
X113792000Y-74041000D02*
X139700000Y-74041000D01*
X113538000Y-73787000D02*
X113792000Y-74041000D01*
X106299000Y-66548000D02*
X113538000Y-73787000D01*
X106299000Y-60833000D02*
X106299000Y-66548000D01*
X107950000Y-59182000D02*
X106299000Y-60833000D01*
X108792000Y-59182000D02*
X107950000Y-59182000D01*
%TO.N,/BLINKER_RIGHT*%
X128792000Y-59182000D02*
X132842000Y-59182000D01*
X132842000Y-59182000D02*
X137866000Y-64206000D01*
X137866000Y-64206000D02*
X141120000Y-64206000D01*
%TO.N,/BLINKER_LEFT*%
X127452000Y-54182000D02*
X141096000Y-54182000D01*
X141096000Y-54182000D02*
X141120000Y-54206000D01*
%TD*%
%TA.AperFunction,Conductor*%
%TO.N,/GND*%
G36*
X164565755Y-41146262D02*
G01*
X164580579Y-41148571D01*
X164580588Y-41148571D01*
X164589456Y-41149952D01*
X164607452Y-41147599D01*
X164630848Y-41146733D01*
X164750826Y-41153472D01*
X164873009Y-41160336D01*
X164887039Y-41161917D01*
X165153871Y-41207257D01*
X165167608Y-41210393D01*
X165427671Y-41285318D01*
X165441004Y-41289983D01*
X165691043Y-41393554D01*
X165703773Y-41399685D01*
X165940627Y-41530591D01*
X165952591Y-41538108D01*
X166173319Y-41694723D01*
X166184350Y-41703521D01*
X166386149Y-41883860D01*
X166396139Y-41893850D01*
X166576479Y-42095650D01*
X166585277Y-42106681D01*
X166694950Y-42261250D01*
X166741892Y-42327409D01*
X166749409Y-42339373D01*
X166880315Y-42576227D01*
X166886446Y-42588957D01*
X166990017Y-42838996D01*
X166994682Y-42852329D01*
X167069607Y-43112392D01*
X167072743Y-43126129D01*
X167118083Y-43392961D01*
X167119664Y-43406992D01*
X167132857Y-43641861D01*
X167131555Y-43668309D01*
X167131430Y-43669115D01*
X167130048Y-43677992D01*
X167134175Y-43709549D01*
X167135239Y-43725888D01*
X167135239Y-93426367D01*
X167133738Y-93445755D01*
X167131429Y-93460579D01*
X167131429Y-93460588D01*
X167130048Y-93469456D01*
X167132401Y-93487452D01*
X167133267Y-93510848D01*
X167126528Y-93630826D01*
X167119664Y-93753009D01*
X167118083Y-93767039D01*
X167072743Y-94033871D01*
X167069607Y-94047608D01*
X166998771Y-94293479D01*
X166994683Y-94307668D01*
X166990017Y-94321004D01*
X166886446Y-94571043D01*
X166880315Y-94583773D01*
X166749409Y-94820627D01*
X166741892Y-94832591D01*
X166585277Y-95053319D01*
X166576479Y-95064350D01*
X166414114Y-95246036D01*
X166396140Y-95266149D01*
X166386150Y-95276139D01*
X166184350Y-95456479D01*
X166173319Y-95465277D01*
X165986283Y-95597986D01*
X165952591Y-95621892D01*
X165940627Y-95629409D01*
X165703773Y-95760315D01*
X165691043Y-95766446D01*
X165441004Y-95870017D01*
X165427671Y-95874682D01*
X165167608Y-95949607D01*
X165153871Y-95952743D01*
X164887039Y-95998083D01*
X164873008Y-95999664D01*
X164638139Y-96012857D01*
X164611691Y-96011555D01*
X164610885Y-96011430D01*
X164610884Y-96011430D01*
X164602008Y-96010048D01*
X164572355Y-96013926D01*
X164570451Y-96014175D01*
X164554112Y-96015239D01*
X104693633Y-96015239D01*
X104674245Y-96013738D01*
X104659421Y-96011429D01*
X104659412Y-96011429D01*
X104650544Y-96010048D01*
X104632548Y-96012401D01*
X104609152Y-96013267D01*
X104489174Y-96006528D01*
X104366991Y-95999664D01*
X104352961Y-95998083D01*
X104086129Y-95952743D01*
X104072392Y-95949607D01*
X103812329Y-95874682D01*
X103798996Y-95870017D01*
X103548957Y-95766446D01*
X103536227Y-95760315D01*
X103299373Y-95629409D01*
X103287409Y-95621892D01*
X103253717Y-95597986D01*
X103066681Y-95465277D01*
X103055650Y-95456479D01*
X102853850Y-95276139D01*
X102843860Y-95266149D01*
X102825886Y-95246036D01*
X102663521Y-95064350D01*
X102654723Y-95053319D01*
X102498108Y-94832591D01*
X102490591Y-94820627D01*
X102359685Y-94583773D01*
X102353554Y-94571043D01*
X102249983Y-94321004D01*
X102245317Y-94307668D01*
X102241229Y-94293479D01*
X102170393Y-94047608D01*
X102167257Y-94033871D01*
X102121917Y-93767039D01*
X102120336Y-93753008D01*
X102107143Y-93518139D01*
X102108445Y-93491691D01*
X102108570Y-93490885D01*
X102108570Y-93490884D01*
X102109952Y-93482008D01*
X102105825Y-93450451D01*
X102104761Y-93434112D01*
X102104761Y-93350703D01*
X102919743Y-93350703D01*
X102920302Y-93354947D01*
X102920302Y-93354951D01*
X102928398Y-93416443D01*
X102957268Y-93635734D01*
X103033129Y-93913036D01*
X103034813Y-93916984D01*
X103091753Y-94050476D01*
X103145923Y-94177476D01*
X103293561Y-94424161D01*
X103473313Y-94648528D01*
X103559717Y-94730522D01*
X103654668Y-94820627D01*
X103681851Y-94846423D01*
X103915317Y-95014186D01*
X103919112Y-95016195D01*
X103919113Y-95016196D01*
X103960346Y-95038028D01*
X104169392Y-95148712D01*
X104439373Y-95247511D01*
X104720264Y-95308755D01*
X104748841Y-95311004D01*
X104943282Y-95326307D01*
X104943291Y-95326307D01*
X104945739Y-95326500D01*
X105101271Y-95326500D01*
X105103407Y-95326354D01*
X105103418Y-95326354D01*
X105311548Y-95312165D01*
X105311554Y-95312164D01*
X105315825Y-95311873D01*
X105320020Y-95311004D01*
X105320022Y-95311004D01*
X105536619Y-95266149D01*
X105597342Y-95253574D01*
X105868343Y-95157607D01*
X106123812Y-95025750D01*
X106127313Y-95023289D01*
X106127317Y-95023287D01*
X106308019Y-94896287D01*
X106359023Y-94860441D01*
X106569622Y-94664740D01*
X106751713Y-94442268D01*
X106901927Y-94197142D01*
X106913659Y-94170417D01*
X107015757Y-93937830D01*
X107017483Y-93933898D01*
X107096244Y-93657406D01*
X107136751Y-93372784D01*
X107136845Y-93354951D01*
X107138235Y-93089583D01*
X107138235Y-93089576D01*
X107138257Y-93085297D01*
X107100732Y-92800266D01*
X107078223Y-92717987D01*
X109830721Y-92717987D01*
X109839548Y-92729605D01*
X110062281Y-92891430D01*
X110068961Y-92895670D01*
X110338572Y-93043890D01*
X110345707Y-93047247D01*
X110631770Y-93160508D01*
X110639296Y-93162953D01*
X110937279Y-93239462D01*
X110945050Y-93240945D01*
X111250278Y-93279503D01*
X111258169Y-93280000D01*
X111565831Y-93280000D01*
X111573722Y-93279503D01*
X111878950Y-93240945D01*
X111886721Y-93239462D01*
X112184704Y-93162953D01*
X112192230Y-93160508D01*
X112478293Y-93047247D01*
X112485428Y-93043890D01*
X112755039Y-92895670D01*
X112761719Y-92891430D01*
X112984823Y-92729336D01*
X112993246Y-92718413D01*
X112986342Y-92705552D01*
X111424812Y-91144022D01*
X111410868Y-91136408D01*
X111409035Y-91136539D01*
X111402420Y-91140790D01*
X109837334Y-92705876D01*
X109830721Y-92717987D01*
X107078223Y-92717987D01*
X107024871Y-92522964D01*
X106912077Y-92258524D01*
X106824299Y-92111858D01*
X106766643Y-92015521D01*
X106766640Y-92015517D01*
X106764439Y-92011839D01*
X106584687Y-91787472D01*
X106440951Y-91651072D01*
X106379258Y-91592527D01*
X106379255Y-91592525D01*
X106376149Y-91589577D01*
X106142683Y-91421814D01*
X106120843Y-91410250D01*
X106088350Y-91393046D01*
X105888608Y-91287288D01*
X105618627Y-91188489D01*
X105337736Y-91127245D01*
X105306685Y-91124801D01*
X105114718Y-91109693D01*
X105114709Y-91109693D01*
X105112261Y-91109500D01*
X104956729Y-91109500D01*
X104954593Y-91109646D01*
X104954582Y-91109646D01*
X104746452Y-91123835D01*
X104746446Y-91123836D01*
X104742175Y-91124127D01*
X104737980Y-91124996D01*
X104737978Y-91124996D01*
X104682239Y-91136539D01*
X104460658Y-91182426D01*
X104189657Y-91278393D01*
X103934188Y-91410250D01*
X103930687Y-91412711D01*
X103930683Y-91412713D01*
X103859734Y-91462577D01*
X103698977Y-91575559D01*
X103683892Y-91589577D01*
X103564340Y-91700672D01*
X103488378Y-91771260D01*
X103306287Y-91993732D01*
X103156073Y-92238858D01*
X103040517Y-92502102D01*
X102961756Y-92778594D01*
X102921249Y-93063216D01*
X102921227Y-93067505D01*
X102921226Y-93067512D01*
X102919765Y-93346417D01*
X102919743Y-93350703D01*
X102104761Y-93350703D01*
X102104761Y-90775958D01*
X108899290Y-90775958D01*
X108918607Y-91082994D01*
X108919600Y-91090855D01*
X108977246Y-91393046D01*
X108979217Y-91400723D01*
X109074284Y-91693309D01*
X109077199Y-91700672D01*
X109208189Y-91979041D01*
X109212001Y-91985974D01*
X109376851Y-92245736D01*
X109381495Y-92252129D01*
X109456497Y-92342790D01*
X109469014Y-92351245D01*
X109479752Y-92345038D01*
X111039978Y-90784812D01*
X111046356Y-90773132D01*
X111776408Y-90773132D01*
X111776539Y-90774965D01*
X111780790Y-90781580D01*
X113343145Y-92343935D01*
X113356407Y-92351177D01*
X113366512Y-92343988D01*
X113442505Y-92252129D01*
X113447149Y-92245736D01*
X113611999Y-91985974D01*
X113615811Y-91979041D01*
X113746801Y-91700672D01*
X113749716Y-91693309D01*
X113844783Y-91400723D01*
X113846754Y-91393046D01*
X113904400Y-91090855D01*
X113905393Y-91082994D01*
X113924710Y-90775958D01*
X113924710Y-90768042D01*
X113905393Y-90461006D01*
X113904400Y-90453145D01*
X113846754Y-90150954D01*
X113844783Y-90143277D01*
X113749716Y-89850691D01*
X113746801Y-89843328D01*
X113615811Y-89564959D01*
X113611999Y-89558026D01*
X113447149Y-89298264D01*
X113442505Y-89291871D01*
X113367503Y-89201210D01*
X113354986Y-89192755D01*
X113344248Y-89198962D01*
X111784022Y-90759188D01*
X111776408Y-90773132D01*
X111046356Y-90773132D01*
X111047592Y-90770868D01*
X111047461Y-90769035D01*
X111043210Y-90762420D01*
X109480855Y-89200065D01*
X109467593Y-89192823D01*
X109457488Y-89200012D01*
X109381495Y-89291871D01*
X109376851Y-89298264D01*
X109212001Y-89558026D01*
X109208189Y-89564959D01*
X109077199Y-89843328D01*
X109074284Y-89850691D01*
X108979217Y-90143277D01*
X108977246Y-90150954D01*
X108919600Y-90453145D01*
X108918607Y-90461006D01*
X108899290Y-90768042D01*
X108899290Y-90775958D01*
X102104761Y-90775958D01*
X102104761Y-88825587D01*
X109830754Y-88825587D01*
X109837658Y-88838448D01*
X111399188Y-90399978D01*
X111413132Y-90407592D01*
X111414965Y-90407461D01*
X111421580Y-90403210D01*
X112986666Y-88838124D01*
X112993279Y-88826013D01*
X112984452Y-88814395D01*
X112761719Y-88652570D01*
X112755039Y-88648330D01*
X112513144Y-88515347D01*
X112463085Y-88465001D01*
X112448192Y-88395584D01*
X112473193Y-88329135D01*
X112530150Y-88286751D01*
X112586267Y-88280313D01*
X112586302Y-88279755D01*
X112589422Y-88279951D01*
X112589639Y-88279926D01*
X112594179Y-88280500D01*
X112909821Y-88280500D01*
X113222975Y-88240940D01*
X113528702Y-88162443D01*
X113532372Y-88160990D01*
X113818505Y-88047702D01*
X113818510Y-88047700D01*
X113822179Y-88046247D01*
X113969999Y-87964982D01*
X114095307Y-87896093D01*
X114095310Y-87896091D01*
X114098779Y-87894184D01*
X114354140Y-87708654D01*
X114584233Y-87492582D01*
X114785432Y-87249375D01*
X114954562Y-86982869D01*
X114956246Y-86979290D01*
X114956250Y-86979283D01*
X115087267Y-86700856D01*
X115087269Y-86700852D01*
X115088956Y-86697266D01*
X115102739Y-86654848D01*
X115185268Y-86400848D01*
X115186495Y-86397072D01*
X115245641Y-86087020D01*
X115265460Y-85772000D01*
X115245641Y-85456980D01*
X115186495Y-85146928D01*
X115088956Y-84846734D01*
X115083409Y-84834945D01*
X114956250Y-84564717D01*
X114956246Y-84564710D01*
X114954562Y-84561131D01*
X114946695Y-84548735D01*
X114828805Y-84362969D01*
X114809192Y-84294735D01*
X114829583Y-84226730D01*
X114883503Y-84180544D01*
X114953834Y-84170842D01*
X115009249Y-84193518D01*
X115040461Y-84216195D01*
X115062019Y-84231858D01*
X115062023Y-84231861D01*
X115065221Y-84234184D01*
X115068690Y-84236091D01*
X115068693Y-84236093D01*
X115338352Y-84384340D01*
X115341821Y-84386247D01*
X115345490Y-84387700D01*
X115345495Y-84387702D01*
X115631628Y-84500990D01*
X115635298Y-84502443D01*
X115941025Y-84580940D01*
X116254179Y-84620500D01*
X116569821Y-84620500D01*
X116882975Y-84580940D01*
X117188702Y-84502443D01*
X117192372Y-84500990D01*
X117478505Y-84387702D01*
X117478510Y-84387700D01*
X117482179Y-84386247D01*
X117485648Y-84384340D01*
X117755307Y-84236093D01*
X117755310Y-84236091D01*
X117758779Y-84234184D01*
X118014140Y-84048654D01*
X118244233Y-83832582D01*
X118291844Y-83775031D01*
X118408198Y-83634383D01*
X118445432Y-83589375D01*
X118609062Y-83331535D01*
X118612438Y-83326216D01*
X118612438Y-83326215D01*
X118614562Y-83322869D01*
X118616246Y-83319290D01*
X118616250Y-83319283D01*
X118747267Y-83040856D01*
X118747269Y-83040852D01*
X118748956Y-83037266D01*
X118751216Y-83030312D01*
X118833745Y-82776312D01*
X118846495Y-82737072D01*
X118905641Y-82427020D01*
X118923405Y-82144658D01*
X118947644Y-82077928D01*
X119004113Y-82034896D01*
X119074883Y-82029224D01*
X119137485Y-82062714D01*
X119155423Y-82084870D01*
X119297669Y-82308151D01*
X119300112Y-82311114D01*
X119300113Y-82311116D01*
X119447978Y-82490490D01*
X119500639Y-82554373D01*
X119732102Y-82774024D01*
X119988609Y-82963829D01*
X119991942Y-82965715D01*
X119991947Y-82965718D01*
X120102073Y-83028024D01*
X120266336Y-83120960D01*
X120269879Y-83122427D01*
X120269884Y-83122430D01*
X120377050Y-83166819D01*
X120561142Y-83243072D01*
X120634803Y-83263500D01*
X120864916Y-83327317D01*
X120864924Y-83327319D01*
X120868632Y-83328347D01*
X121184222Y-83375512D01*
X121187520Y-83375656D01*
X121297090Y-83380440D01*
X121297094Y-83380440D01*
X121298466Y-83380500D01*
X121493047Y-83380500D01*
X121730500Y-83365977D01*
X121734283Y-83365276D01*
X121734290Y-83365275D01*
X121896853Y-83335145D01*
X122044252Y-83307826D01*
X122336927Y-83215546D01*
X122344907Y-83213030D01*
X122344910Y-83213029D01*
X122348579Y-83211872D01*
X122352076Y-83210278D01*
X122352082Y-83210276D01*
X122635436Y-83081145D01*
X122635440Y-83081143D01*
X122638944Y-83079546D01*
X122642226Y-83077535D01*
X122907739Y-82914828D01*
X122907742Y-82914826D01*
X122911017Y-82912819D01*
X122914021Y-82910429D01*
X122914026Y-82910426D01*
X123157733Y-82716572D01*
X123160744Y-82714177D01*
X123193328Y-82681020D01*
X123307226Y-82565116D01*
X123384401Y-82486582D01*
X123451867Y-82398659D01*
X123576304Y-82236490D01*
X123576306Y-82236486D01*
X123578654Y-82233427D01*
X123666054Y-82085051D01*
X123717862Y-82036508D01*
X123787690Y-82023681D01*
X123853368Y-82050642D01*
X123894044Y-82108831D01*
X123900370Y-82141089D01*
X123918359Y-82427020D01*
X123977505Y-82737072D01*
X123990255Y-82776312D01*
X124072785Y-83030312D01*
X124075044Y-83037266D01*
X124076731Y-83040852D01*
X124076733Y-83040856D01*
X124207750Y-83319283D01*
X124207754Y-83319290D01*
X124209438Y-83322869D01*
X124211562Y-83326215D01*
X124211562Y-83326216D01*
X124214938Y-83331535D01*
X124378568Y-83589375D01*
X124415802Y-83634383D01*
X124532157Y-83775031D01*
X124579767Y-83832582D01*
X124809860Y-84048654D01*
X125065221Y-84234184D01*
X125068690Y-84236091D01*
X125068693Y-84236093D01*
X125338352Y-84384340D01*
X125341821Y-84386247D01*
X125345490Y-84387700D01*
X125345495Y-84387702D01*
X125631628Y-84500990D01*
X125635298Y-84502443D01*
X125941025Y-84580940D01*
X126254179Y-84620500D01*
X126569821Y-84620500D01*
X126882975Y-84580940D01*
X127188702Y-84502443D01*
X127192372Y-84500990D01*
X127478505Y-84387702D01*
X127478510Y-84387700D01*
X127482179Y-84386247D01*
X127485648Y-84384340D01*
X127755307Y-84236093D01*
X127755310Y-84236091D01*
X127758779Y-84234184D01*
X127761977Y-84231861D01*
X127761981Y-84231858D01*
X127783539Y-84216195D01*
X127814750Y-84193518D01*
X127881616Y-84169661D01*
X127950768Y-84185741D01*
X128000248Y-84236654D01*
X128014348Y-84306237D01*
X127995195Y-84362969D01*
X127877305Y-84548735D01*
X127869438Y-84561131D01*
X127867754Y-84564710D01*
X127867750Y-84564717D01*
X127740591Y-84834945D01*
X127735044Y-84846734D01*
X127637505Y-85146928D01*
X127578359Y-85456980D01*
X127558540Y-85772000D01*
X127578359Y-86087020D01*
X127637505Y-86397072D01*
X127638732Y-86400848D01*
X127721262Y-86654848D01*
X127735044Y-86697266D01*
X127736731Y-86700852D01*
X127736733Y-86700856D01*
X127867750Y-86979283D01*
X127867754Y-86979290D01*
X127869438Y-86982869D01*
X128038568Y-87249375D01*
X128239767Y-87492582D01*
X128469860Y-87708654D01*
X128725221Y-87894184D01*
X128728690Y-87896091D01*
X128728693Y-87896093D01*
X128854001Y-87964982D01*
X129001821Y-88046247D01*
X129005490Y-88047700D01*
X129005495Y-88047702D01*
X129291628Y-88160990D01*
X129295298Y-88162443D01*
X129601025Y-88240940D01*
X129914179Y-88280500D01*
X130229821Y-88280500D01*
X130542975Y-88240940D01*
X130848702Y-88162443D01*
X130852372Y-88160990D01*
X131138505Y-88047702D01*
X131138510Y-88047700D01*
X131142179Y-88046247D01*
X131289999Y-87964982D01*
X131415307Y-87896093D01*
X131415310Y-87896091D01*
X131418779Y-87894184D01*
X131674140Y-87708654D01*
X131904233Y-87492582D01*
X132105432Y-87249375D01*
X132274562Y-86982869D01*
X132276246Y-86979290D01*
X132276250Y-86979283D01*
X132407267Y-86700856D01*
X132407269Y-86700852D01*
X132408956Y-86697266D01*
X132422739Y-86654848D01*
X132505268Y-86400848D01*
X132506495Y-86397072D01*
X132565641Y-86087020D01*
X132569480Y-86026000D01*
X136146540Y-86026000D01*
X136166359Y-86341020D01*
X136225505Y-86651072D01*
X136323044Y-86951266D01*
X136324731Y-86954852D01*
X136324733Y-86954856D01*
X136455750Y-87233283D01*
X136455754Y-87233290D01*
X136457438Y-87236869D01*
X136626568Y-87503375D01*
X136827767Y-87746582D01*
X137057860Y-87962654D01*
X137313221Y-88148184D01*
X137316690Y-88150091D01*
X137316693Y-88150093D01*
X137557510Y-88282484D01*
X137589821Y-88300247D01*
X137593490Y-88301700D01*
X137593495Y-88301702D01*
X137793898Y-88381047D01*
X137883298Y-88416443D01*
X138189025Y-88494940D01*
X138502179Y-88534500D01*
X138817821Y-88534500D01*
X139130975Y-88494940D01*
X139436702Y-88416443D01*
X139526102Y-88381047D01*
X139726505Y-88301702D01*
X139726510Y-88301700D01*
X139730179Y-88300247D01*
X139762490Y-88282484D01*
X140003307Y-88150093D01*
X140003310Y-88150091D01*
X140006779Y-88148184D01*
X140262140Y-87962654D01*
X140492233Y-87746582D01*
X140693432Y-87503375D01*
X140862562Y-87236869D01*
X140864246Y-87233290D01*
X140864250Y-87233283D01*
X140995267Y-86954856D01*
X140995269Y-86954852D01*
X140996956Y-86951266D01*
X141094495Y-86651072D01*
X141153641Y-86341020D01*
X141173460Y-86026000D01*
X141153641Y-85710980D01*
X141094495Y-85400928D01*
X141011965Y-85146928D01*
X140998182Y-85104507D01*
X140998182Y-85104506D01*
X140996956Y-85100734D01*
X140879209Y-84850507D01*
X140864250Y-84818717D01*
X140864246Y-84818710D01*
X140862562Y-84815131D01*
X140825641Y-84756953D01*
X140736805Y-84616969D01*
X140717192Y-84548735D01*
X140737583Y-84480730D01*
X140791503Y-84434544D01*
X140861834Y-84424842D01*
X140917249Y-84447518D01*
X140948461Y-84470195D01*
X140970019Y-84485858D01*
X140970023Y-84485861D01*
X140973221Y-84488184D01*
X140976690Y-84490091D01*
X140976693Y-84490093D01*
X141246352Y-84638340D01*
X141249821Y-84640247D01*
X141253490Y-84641700D01*
X141253495Y-84641702D01*
X141538411Y-84754508D01*
X141543298Y-84756443D01*
X141849025Y-84834940D01*
X142162179Y-84874500D01*
X142477821Y-84874500D01*
X142790975Y-84834940D01*
X143096702Y-84756443D01*
X143101589Y-84754508D01*
X143386505Y-84641702D01*
X143386510Y-84641700D01*
X143390179Y-84640247D01*
X143393648Y-84638340D01*
X143663307Y-84490093D01*
X143663310Y-84490091D01*
X143666779Y-84488184D01*
X143909294Y-84311987D01*
X150738721Y-84311987D01*
X150747548Y-84323605D01*
X150970281Y-84485430D01*
X150976961Y-84489670D01*
X151246572Y-84637890D01*
X151253707Y-84641247D01*
X151539770Y-84754508D01*
X151547296Y-84756953D01*
X151845279Y-84833462D01*
X151853050Y-84834945D01*
X152158278Y-84873503D01*
X152166169Y-84874000D01*
X152473831Y-84874000D01*
X152481722Y-84873503D01*
X152786950Y-84834945D01*
X152794721Y-84833462D01*
X153092704Y-84756953D01*
X153100230Y-84754508D01*
X153386293Y-84641247D01*
X153393428Y-84637890D01*
X153663039Y-84489670D01*
X153669720Y-84485430D01*
X153723477Y-84446373D01*
X153790345Y-84422514D01*
X153859497Y-84438595D01*
X153908977Y-84489509D01*
X153923076Y-84559092D01*
X153903923Y-84615822D01*
X153777438Y-84815131D01*
X153775754Y-84818710D01*
X153775750Y-84818717D01*
X153760791Y-84850507D01*
X153643044Y-85100734D01*
X153641818Y-85104506D01*
X153641818Y-85104507D01*
X153628035Y-85146928D01*
X153545505Y-85400928D01*
X153486359Y-85710980D01*
X153466540Y-86026000D01*
X153486359Y-86341020D01*
X153545505Y-86651072D01*
X153643044Y-86951266D01*
X153644731Y-86954852D01*
X153644733Y-86954856D01*
X153775750Y-87233283D01*
X153775754Y-87233290D01*
X153777438Y-87236869D01*
X153946568Y-87503375D01*
X154147767Y-87746582D01*
X154377860Y-87962654D01*
X154633221Y-88148184D01*
X154636690Y-88150091D01*
X154636693Y-88150093D01*
X154877510Y-88282484D01*
X154909821Y-88300247D01*
X154913490Y-88301700D01*
X154913495Y-88301702D01*
X155113898Y-88381047D01*
X155203298Y-88416443D01*
X155509025Y-88494940D01*
X155822179Y-88534500D01*
X156137821Y-88534500D01*
X156141752Y-88534003D01*
X156145698Y-88533755D01*
X156145768Y-88534865D01*
X156211099Y-88545398D01*
X156263954Y-88592799D01*
X156282791Y-88661251D01*
X156261630Y-88729021D01*
X156217510Y-88769516D01*
X156092714Y-88838124D01*
X155973221Y-88903816D01*
X155717860Y-89089346D01*
X155487767Y-89305418D01*
X155286568Y-89548625D01*
X155117438Y-89815131D01*
X155115754Y-89818710D01*
X155115750Y-89818717D01*
X154984733Y-90097144D01*
X154983044Y-90100734D01*
X154981818Y-90104506D01*
X154981818Y-90104507D01*
X154940950Y-90230287D01*
X154885505Y-90400928D01*
X154826359Y-90710980D01*
X154806540Y-91026000D01*
X154826359Y-91341020D01*
X154885505Y-91651072D01*
X154983044Y-91951266D01*
X154984731Y-91954852D01*
X154984733Y-91954856D01*
X155115750Y-92233283D01*
X155115754Y-92233290D01*
X155117438Y-92236869D01*
X155286568Y-92503375D01*
X155306198Y-92527103D01*
X155427115Y-92673266D01*
X155487767Y-92746582D01*
X155717860Y-92962654D01*
X155973221Y-93148184D01*
X155976690Y-93150091D01*
X155976693Y-93150093D01*
X156158488Y-93250036D01*
X156249821Y-93300247D01*
X156253490Y-93301700D01*
X156253495Y-93301702D01*
X156433028Y-93372784D01*
X156543298Y-93416443D01*
X156849025Y-93494940D01*
X157162179Y-93534500D01*
X157477821Y-93534500D01*
X157790975Y-93494940D01*
X158096702Y-93416443D01*
X158206972Y-93372784D01*
X158386505Y-93301702D01*
X158386510Y-93301700D01*
X158390179Y-93300247D01*
X158481512Y-93250036D01*
X158529411Y-93223703D01*
X162101743Y-93223703D01*
X162102302Y-93227947D01*
X162102302Y-93227951D01*
X162111569Y-93298340D01*
X162139268Y-93508734D01*
X162215129Y-93786036D01*
X162216813Y-93789984D01*
X162323806Y-94040823D01*
X162327923Y-94050476D01*
X162339693Y-94070142D01*
X162417890Y-94200799D01*
X162475561Y-94297161D01*
X162655313Y-94521528D01*
X162720906Y-94583773D01*
X162802730Y-94661421D01*
X162863851Y-94719423D01*
X163097317Y-94887186D01*
X163101112Y-94889195D01*
X163101113Y-94889196D01*
X163122869Y-94900715D01*
X163351392Y-95021712D01*
X163621373Y-95120511D01*
X163902264Y-95181755D01*
X163930841Y-95184004D01*
X164125282Y-95199307D01*
X164125291Y-95199307D01*
X164127739Y-95199500D01*
X164283271Y-95199500D01*
X164285407Y-95199354D01*
X164285418Y-95199354D01*
X164493548Y-95185165D01*
X164493554Y-95185164D01*
X164497825Y-95184873D01*
X164502020Y-95184004D01*
X164502022Y-95184004D01*
X164682152Y-95146701D01*
X164779342Y-95126574D01*
X165050343Y-95030607D01*
X165305812Y-94898750D01*
X165309313Y-94896289D01*
X165309317Y-94896287D01*
X165423417Y-94816096D01*
X165541023Y-94733441D01*
X165702085Y-94583773D01*
X165748479Y-94540661D01*
X165748481Y-94540658D01*
X165751622Y-94537740D01*
X165933713Y-94315268D01*
X166083927Y-94070142D01*
X166199483Y-93806898D01*
X166212824Y-93760066D01*
X166277068Y-93534534D01*
X166278244Y-93530406D01*
X166311271Y-93298340D01*
X166318146Y-93250036D01*
X166318146Y-93250034D01*
X166318751Y-93245784D01*
X166318777Y-93240945D01*
X166320235Y-92962583D01*
X166320235Y-92962576D01*
X166320257Y-92958297D01*
X166282732Y-92673266D01*
X166206871Y-92395964D01*
X166149933Y-92262476D01*
X166095763Y-92135476D01*
X166095761Y-92135472D01*
X166094077Y-92131524D01*
X165946439Y-91884839D01*
X165766687Y-91660472D01*
X165558149Y-91462577D01*
X165324683Y-91294814D01*
X165302843Y-91283250D01*
X165279654Y-91270972D01*
X165070608Y-91160288D01*
X164931823Y-91109500D01*
X164804658Y-91062964D01*
X164804656Y-91062963D01*
X164800627Y-91061489D01*
X164519736Y-91000245D01*
X164488685Y-90997801D01*
X164296718Y-90982693D01*
X164296709Y-90982693D01*
X164294261Y-90982500D01*
X164138729Y-90982500D01*
X164136593Y-90982646D01*
X164136582Y-90982646D01*
X163928452Y-90996835D01*
X163928446Y-90996836D01*
X163924175Y-90997127D01*
X163919980Y-90997996D01*
X163919978Y-90997996D01*
X163803864Y-91022042D01*
X163642658Y-91055426D01*
X163371657Y-91151393D01*
X163116188Y-91283250D01*
X163112687Y-91285711D01*
X163112683Y-91285713D01*
X163028443Y-91344918D01*
X162880977Y-91448559D01*
X162670378Y-91644260D01*
X162488287Y-91866732D01*
X162338073Y-92111858D01*
X162222517Y-92375102D01*
X162143756Y-92651594D01*
X162103249Y-92936216D01*
X162103227Y-92940505D01*
X162103226Y-92940512D01*
X162102074Y-93160508D01*
X162101743Y-93223703D01*
X158529411Y-93223703D01*
X158663307Y-93150093D01*
X158663310Y-93150091D01*
X158666779Y-93148184D01*
X158922140Y-92962654D01*
X159152233Y-92746582D01*
X159212886Y-92673266D01*
X159333802Y-92527103D01*
X159353432Y-92503375D01*
X159522562Y-92236869D01*
X159524246Y-92233290D01*
X159524250Y-92233283D01*
X159655267Y-91954856D01*
X159655269Y-91954852D01*
X159656956Y-91951266D01*
X159754495Y-91651072D01*
X159813641Y-91341020D01*
X159833460Y-91026000D01*
X159813641Y-90710980D01*
X159754495Y-90400928D01*
X159699050Y-90230287D01*
X159658182Y-90104507D01*
X159658182Y-90104506D01*
X159656956Y-90100734D01*
X159655267Y-90097144D01*
X159524250Y-89818717D01*
X159524246Y-89818710D01*
X159522562Y-89815131D01*
X159353432Y-89548625D01*
X159152233Y-89305418D01*
X158922140Y-89089346D01*
X158666779Y-88903816D01*
X158547287Y-88838124D01*
X158393648Y-88753660D01*
X158393647Y-88753659D01*
X158390179Y-88751753D01*
X158386510Y-88750300D01*
X158386505Y-88750298D01*
X158100372Y-88637010D01*
X158100371Y-88637010D01*
X158096702Y-88635557D01*
X157790975Y-88557060D01*
X157477821Y-88517500D01*
X157162179Y-88517500D01*
X157158248Y-88517997D01*
X157154302Y-88518245D01*
X157154232Y-88517135D01*
X157088901Y-88506602D01*
X157036046Y-88459201D01*
X157017209Y-88390749D01*
X157038370Y-88322979D01*
X157082490Y-88282484D01*
X157323307Y-88150093D01*
X157323310Y-88150091D01*
X157326779Y-88148184D01*
X157582140Y-87962654D01*
X157812233Y-87746582D01*
X158013432Y-87503375D01*
X158182562Y-87236869D01*
X158184246Y-87233290D01*
X158184250Y-87233283D01*
X158315267Y-86954856D01*
X158315269Y-86954852D01*
X158316956Y-86951266D01*
X158414495Y-86651072D01*
X158473641Y-86341020D01*
X158493460Y-86026000D01*
X158473641Y-85710980D01*
X158414495Y-85400928D01*
X158331965Y-85146928D01*
X158318182Y-85104507D01*
X158318182Y-85104506D01*
X158316956Y-85100734D01*
X158199209Y-84850507D01*
X158184250Y-84818717D01*
X158184246Y-84818710D01*
X158182562Y-84815131D01*
X158013432Y-84548625D01*
X157909104Y-84422514D01*
X157814758Y-84308470D01*
X157814757Y-84308469D01*
X157812233Y-84305418D01*
X157806332Y-84299876D01*
X157738409Y-84236093D01*
X157582140Y-84089346D01*
X157326779Y-83903816D01*
X157222390Y-83846427D01*
X157053648Y-83753660D01*
X157053647Y-83753659D01*
X157050179Y-83751753D01*
X157046510Y-83750300D01*
X157046505Y-83750298D01*
X156760372Y-83637010D01*
X156760371Y-83637010D01*
X156756702Y-83635557D01*
X156450975Y-83557060D01*
X156137821Y-83517500D01*
X155822179Y-83517500D01*
X155509025Y-83557060D01*
X155203298Y-83635557D01*
X155199629Y-83637010D01*
X155199628Y-83637010D01*
X154913495Y-83750298D01*
X154913490Y-83750300D01*
X154909821Y-83751753D01*
X154906353Y-83753659D01*
X154906352Y-83753660D01*
X154737611Y-83846427D01*
X154633221Y-83903816D01*
X154587836Y-83936790D01*
X154576152Y-83945279D01*
X154509284Y-83969138D01*
X154440133Y-83953057D01*
X154390652Y-83902143D01*
X154376553Y-83832560D01*
X154395706Y-83775829D01*
X154519999Y-83579974D01*
X154523811Y-83573041D01*
X154654801Y-83294672D01*
X154657716Y-83287309D01*
X154752783Y-82994723D01*
X154754754Y-82987046D01*
X154812400Y-82684855D01*
X154813393Y-82676994D01*
X154832710Y-82369958D01*
X154832710Y-82362042D01*
X154813393Y-82055006D01*
X154812400Y-82047145D01*
X154754754Y-81744954D01*
X154752783Y-81737277D01*
X154657716Y-81444691D01*
X154654801Y-81437328D01*
X154523811Y-81158959D01*
X154519999Y-81152026D01*
X154355149Y-80892264D01*
X154350505Y-80885871D01*
X154275503Y-80795210D01*
X154262986Y-80786755D01*
X154252248Y-80792962D01*
X150745334Y-84299876D01*
X150738721Y-84311987D01*
X143909294Y-84311987D01*
X143914135Y-84308470D01*
X143918936Y-84304982D01*
X143918938Y-84304981D01*
X143922140Y-84302654D01*
X144152233Y-84086582D01*
X144178799Y-84054470D01*
X144269129Y-83945279D01*
X144353432Y-83843375D01*
X144516752Y-83586024D01*
X144520438Y-83580216D01*
X144520438Y-83580215D01*
X144522562Y-83576869D01*
X144524246Y-83573290D01*
X144524250Y-83573283D01*
X144655267Y-83294856D01*
X144655269Y-83294852D01*
X144656956Y-83291266D01*
X144754495Y-82991072D01*
X144813641Y-82681020D01*
X144831405Y-82398658D01*
X144855644Y-82331928D01*
X144912113Y-82288896D01*
X144982883Y-82283224D01*
X145045485Y-82316714D01*
X145063423Y-82338870D01*
X145205669Y-82562151D01*
X145208112Y-82565114D01*
X145208113Y-82565116D01*
X145382210Y-82776312D01*
X145408639Y-82808373D01*
X145640102Y-83028024D01*
X145896609Y-83217829D01*
X145899942Y-83219715D01*
X145899947Y-83219718D01*
X145978210Y-83263997D01*
X146174336Y-83374960D01*
X146177879Y-83376427D01*
X146177884Y-83376430D01*
X146355032Y-83449806D01*
X146469142Y-83497072D01*
X146542803Y-83517500D01*
X146772916Y-83581317D01*
X146772924Y-83581319D01*
X146776632Y-83582347D01*
X147092222Y-83629512D01*
X147095520Y-83629656D01*
X147205090Y-83634440D01*
X147205094Y-83634440D01*
X147206466Y-83634500D01*
X147401047Y-83634500D01*
X147638500Y-83619977D01*
X147642283Y-83619276D01*
X147642290Y-83619275D01*
X147821692Y-83586024D01*
X147952252Y-83561826D01*
X148154359Y-83498102D01*
X148252907Y-83467030D01*
X148252910Y-83467029D01*
X148256579Y-83465872D01*
X148260076Y-83464278D01*
X148260082Y-83464276D01*
X148543436Y-83335145D01*
X148543440Y-83335143D01*
X148546944Y-83333546D01*
X148550226Y-83331535D01*
X148815739Y-83168828D01*
X148815742Y-83168826D01*
X148819017Y-83166819D01*
X148822021Y-83164429D01*
X148822026Y-83164426D01*
X149065733Y-82970572D01*
X149068744Y-82968177D01*
X149075261Y-82961546D01*
X149257289Y-82776312D01*
X149292401Y-82740582D01*
X149429316Y-82562151D01*
X149484304Y-82490490D01*
X149484306Y-82490486D01*
X149486654Y-82487427D01*
X149574507Y-82338282D01*
X149626315Y-82289739D01*
X149696143Y-82276912D01*
X149761821Y-82303873D01*
X149802497Y-82362062D01*
X149808823Y-82394321D01*
X149826607Y-82676995D01*
X149827600Y-82684855D01*
X149885246Y-82987046D01*
X149887217Y-82994723D01*
X149982284Y-83287309D01*
X149985199Y-83294672D01*
X150116189Y-83573041D01*
X150120001Y-83579974D01*
X150284851Y-83839736D01*
X150289495Y-83846129D01*
X150364497Y-83936790D01*
X150377014Y-83945245D01*
X150387752Y-83939038D01*
X151947978Y-82378812D01*
X151955592Y-82364868D01*
X151955461Y-82363035D01*
X151951210Y-82356420D01*
X150388855Y-80794065D01*
X150375593Y-80786823D01*
X150365488Y-80794012D01*
X150289495Y-80885871D01*
X150284851Y-80892264D01*
X150164048Y-81082619D01*
X150110659Y-81129418D01*
X150040444Y-81139923D01*
X149975696Y-81110799D01*
X149936972Y-81051293D01*
X149931783Y-81009608D01*
X149932891Y-80984235D01*
X149933059Y-80980389D01*
X149915452Y-80756669D01*
X149908325Y-80666112D01*
X149908325Y-80666109D01*
X149908023Y-80662277D01*
X149858647Y-80419587D01*
X150738754Y-80419587D01*
X150745658Y-80432448D01*
X152307188Y-81993978D01*
X152321132Y-82001592D01*
X152322965Y-82001461D01*
X152329580Y-81997210D01*
X153894666Y-80432124D01*
X153901279Y-80420013D01*
X153892452Y-80408395D01*
X153669719Y-80246570D01*
X153663039Y-80242330D01*
X153393428Y-80094110D01*
X153386293Y-80090753D01*
X153100230Y-79977492D01*
X153092704Y-79975047D01*
X152794721Y-79898538D01*
X152786950Y-79897055D01*
X152481722Y-79858497D01*
X152473831Y-79858000D01*
X152166169Y-79858000D01*
X152158278Y-79858497D01*
X151853050Y-79897055D01*
X151845279Y-79898538D01*
X151547296Y-79975047D01*
X151539770Y-79977492D01*
X151253707Y-80090753D01*
X151246572Y-80094110D01*
X150976961Y-80242330D01*
X150970281Y-80246570D01*
X150747177Y-80408664D01*
X150738754Y-80419587D01*
X149858647Y-80419587D01*
X149844406Y-80349588D01*
X149743155Y-80046982D01*
X149605781Y-79758971D01*
X149582872Y-79723010D01*
X149495277Y-79585515D01*
X149434331Y-79489849D01*
X149286547Y-79310573D01*
X149233804Y-79246590D01*
X149233800Y-79246585D01*
X149231361Y-79243627D01*
X148999898Y-79023976D01*
X148743391Y-78834171D01*
X148740058Y-78832285D01*
X148740053Y-78832282D01*
X148542417Y-78720465D01*
X148465664Y-78677040D01*
X148462121Y-78675573D01*
X148462116Y-78675570D01*
X148227240Y-78578282D01*
X148170858Y-78554928D01*
X148068468Y-78526533D01*
X147867084Y-78470683D01*
X147867076Y-78470681D01*
X147863368Y-78469653D01*
X147547778Y-78422488D01*
X147544480Y-78422344D01*
X147434910Y-78417560D01*
X147434906Y-78417560D01*
X147433534Y-78417500D01*
X147238953Y-78417500D01*
X147001500Y-78432023D01*
X146997717Y-78432724D01*
X146997710Y-78432725D01*
X146844624Y-78461099D01*
X146687748Y-78490174D01*
X146506491Y-78547324D01*
X146387093Y-78584970D01*
X146387090Y-78584971D01*
X146383421Y-78586128D01*
X146379924Y-78587722D01*
X146379918Y-78587724D01*
X146096564Y-78716855D01*
X146096560Y-78716857D01*
X146093056Y-78718454D01*
X146089777Y-78720464D01*
X146089774Y-78720465D01*
X145904224Y-78834171D01*
X145820983Y-78885181D01*
X145817979Y-78887571D01*
X145817974Y-78887574D01*
X145604452Y-79057418D01*
X145571256Y-79083823D01*
X145347599Y-79311418D01*
X145345254Y-79314474D01*
X145208195Y-79493093D01*
X145153346Y-79564573D01*
X145060020Y-79723010D01*
X145016657Y-79796626D01*
X144991393Y-79839515D01*
X144864154Y-80132145D01*
X144863060Y-80135839D01*
X144863058Y-80135844D01*
X144830386Y-80246143D01*
X144773526Y-80438100D01*
X144720860Y-80752819D01*
X144719059Y-80794065D01*
X144709145Y-81021130D01*
X144686191Y-81088314D01*
X144630558Y-81132422D01*
X144559910Y-81139451D01*
X144496677Y-81107169D01*
X144476880Y-81083148D01*
X144476544Y-81082619D01*
X144353432Y-80888625D01*
X144241083Y-80752819D01*
X144154758Y-80648470D01*
X144154757Y-80648469D01*
X144152233Y-80645418D01*
X143922140Y-80429346D01*
X143666779Y-80243816D01*
X143565062Y-80187896D01*
X143393648Y-80093660D01*
X143393647Y-80093659D01*
X143390179Y-80091753D01*
X143386510Y-80090300D01*
X143386505Y-80090298D01*
X143100372Y-79977010D01*
X143100371Y-79977010D01*
X143096702Y-79975557D01*
X142790975Y-79897060D01*
X142477821Y-79857500D01*
X142162179Y-79857500D01*
X141849025Y-79897060D01*
X141543298Y-79975557D01*
X141539629Y-79977010D01*
X141539628Y-79977010D01*
X141253495Y-80090298D01*
X141253490Y-80090300D01*
X141249821Y-80091753D01*
X141246353Y-80093659D01*
X141246352Y-80093660D01*
X141074939Y-80187896D01*
X140973221Y-80243816D01*
X140717860Y-80429346D01*
X140487767Y-80645418D01*
X140485243Y-80648469D01*
X140485242Y-80648470D01*
X140398917Y-80752819D01*
X140286568Y-80888625D01*
X140117438Y-81155131D01*
X140115754Y-81158710D01*
X140115750Y-81158717D01*
X139984733Y-81437144D01*
X139983044Y-81440734D01*
X139981818Y-81444506D01*
X139981818Y-81444507D01*
X139968035Y-81486928D01*
X139885505Y-81740928D01*
X139826359Y-82050980D01*
X139806540Y-82366000D01*
X139826359Y-82681020D01*
X139885505Y-82991072D01*
X139983044Y-83291266D01*
X139984731Y-83294852D01*
X139984733Y-83294856D01*
X140115750Y-83573283D01*
X140115754Y-83573290D01*
X140117438Y-83576869D01*
X140119562Y-83580215D01*
X140119562Y-83580216D01*
X140243195Y-83775031D01*
X140262808Y-83843265D01*
X140242417Y-83911270D01*
X140188497Y-83957456D01*
X140118166Y-83967158D01*
X140062751Y-83944482D01*
X140009982Y-83906143D01*
X140009981Y-83906142D01*
X140009977Y-83906139D01*
X140006779Y-83903816D01*
X139902390Y-83846427D01*
X139733648Y-83753660D01*
X139733647Y-83753659D01*
X139730179Y-83751753D01*
X139726510Y-83750300D01*
X139726505Y-83750298D01*
X139440372Y-83637010D01*
X139440371Y-83637010D01*
X139436702Y-83635557D01*
X139130975Y-83557060D01*
X138817821Y-83517500D01*
X138502179Y-83517500D01*
X138189025Y-83557060D01*
X137883298Y-83635557D01*
X137879629Y-83637010D01*
X137879628Y-83637010D01*
X137593495Y-83750298D01*
X137593490Y-83750300D01*
X137589821Y-83751753D01*
X137586353Y-83753659D01*
X137586352Y-83753660D01*
X137417611Y-83846427D01*
X137313221Y-83903816D01*
X137057860Y-84089346D01*
X136901591Y-84236093D01*
X136833669Y-84299876D01*
X136827767Y-84305418D01*
X136825243Y-84308469D01*
X136825242Y-84308470D01*
X136730896Y-84422514D01*
X136626568Y-84548625D01*
X136457438Y-84815131D01*
X136455754Y-84818710D01*
X136455750Y-84818717D01*
X136440791Y-84850507D01*
X136323044Y-85100734D01*
X136321818Y-85104506D01*
X136321818Y-85104507D01*
X136308035Y-85146928D01*
X136225505Y-85400928D01*
X136166359Y-85710980D01*
X136146540Y-86026000D01*
X132569480Y-86026000D01*
X132585460Y-85772000D01*
X132565641Y-85456980D01*
X132506495Y-85146928D01*
X132408956Y-84846734D01*
X132403409Y-84834945D01*
X132276250Y-84564717D01*
X132276246Y-84564710D01*
X132274562Y-84561131D01*
X132105432Y-84294625D01*
X131933323Y-84086582D01*
X131906758Y-84054470D01*
X131906757Y-84054469D01*
X131904233Y-84051418D01*
X131674140Y-83835346D01*
X131670306Y-83832560D01*
X131618369Y-83794826D01*
X131418779Y-83649816D01*
X131414287Y-83647346D01*
X131145648Y-83499660D01*
X131145647Y-83499659D01*
X131142179Y-83497753D01*
X131138510Y-83496300D01*
X131138505Y-83496298D01*
X130852372Y-83383010D01*
X130852371Y-83383010D01*
X130848702Y-83381557D01*
X130542975Y-83303060D01*
X130229821Y-83263500D01*
X129914179Y-83263500D01*
X129601025Y-83303060D01*
X129295298Y-83381557D01*
X129291629Y-83383010D01*
X129291628Y-83383010D01*
X129005495Y-83496298D01*
X129005490Y-83496300D01*
X129001821Y-83497753D01*
X128998353Y-83499659D01*
X128998352Y-83499660D01*
X128729714Y-83647346D01*
X128725221Y-83649816D01*
X128722023Y-83652139D01*
X128722019Y-83652142D01*
X128722018Y-83652143D01*
X128669250Y-83690482D01*
X128602384Y-83714339D01*
X128533232Y-83698259D01*
X128483752Y-83647346D01*
X128469652Y-83577763D01*
X128488805Y-83521031D01*
X128612438Y-83326216D01*
X128612438Y-83326215D01*
X128614562Y-83322869D01*
X128616246Y-83319290D01*
X128616250Y-83319283D01*
X128747267Y-83040856D01*
X128747269Y-83040852D01*
X128748956Y-83037266D01*
X128751216Y-83030312D01*
X128833745Y-82776312D01*
X128846495Y-82737072D01*
X128905641Y-82427020D01*
X128925460Y-82112000D01*
X128905641Y-81796980D01*
X128846495Y-81486928D01*
X128748956Y-81186734D01*
X128735886Y-81158959D01*
X128616250Y-80904717D01*
X128616246Y-80904710D01*
X128614562Y-80901131D01*
X128597608Y-80874415D01*
X128594917Y-80870175D01*
X128445432Y-80634625D01*
X128333083Y-80498819D01*
X128246758Y-80394470D01*
X128246757Y-80394469D01*
X128244233Y-80391418D01*
X128014140Y-80175346D01*
X127758779Y-79989816D01*
X127735486Y-79977010D01*
X127485648Y-79839660D01*
X127485647Y-79839659D01*
X127482179Y-79837753D01*
X127478510Y-79836300D01*
X127478505Y-79836298D01*
X127192372Y-79723010D01*
X127192371Y-79723010D01*
X127188702Y-79721557D01*
X126882975Y-79643060D01*
X126569821Y-79603500D01*
X126254179Y-79603500D01*
X125941025Y-79643060D01*
X125635298Y-79721557D01*
X125631629Y-79723010D01*
X125631628Y-79723010D01*
X125345495Y-79836298D01*
X125345490Y-79836300D01*
X125341821Y-79837753D01*
X125338353Y-79839659D01*
X125338352Y-79839660D01*
X125088515Y-79977010D01*
X125065221Y-79989816D01*
X124809860Y-80175346D01*
X124579767Y-80391418D01*
X124577243Y-80394469D01*
X124577242Y-80394470D01*
X124490917Y-80498819D01*
X124378568Y-80634625D01*
X124376444Y-80637972D01*
X124376441Y-80637976D01*
X124256092Y-80827616D01*
X124202703Y-80874415D01*
X124132488Y-80884920D01*
X124067740Y-80855796D01*
X124029016Y-80796290D01*
X124023827Y-80754606D01*
X124024891Y-80730236D01*
X124025059Y-80726389D01*
X124000023Y-80408277D01*
X123936406Y-80095588D01*
X123835155Y-79792982D01*
X123697781Y-79504971D01*
X123688148Y-79489849D01*
X123633966Y-79404801D01*
X123526331Y-79235849D01*
X123523887Y-79232884D01*
X123325804Y-78992590D01*
X123325800Y-78992585D01*
X123323361Y-78989627D01*
X123091898Y-78769976D01*
X122835391Y-78580171D01*
X122832058Y-78578285D01*
X122832053Y-78578282D01*
X122634417Y-78466465D01*
X122557664Y-78423040D01*
X122554121Y-78421573D01*
X122554116Y-78421570D01*
X122335386Y-78330970D01*
X122262858Y-78300928D01*
X122160468Y-78272533D01*
X121959084Y-78216683D01*
X121959076Y-78216681D01*
X121955368Y-78215653D01*
X121639778Y-78168488D01*
X121636480Y-78168344D01*
X121526910Y-78163560D01*
X121526906Y-78163560D01*
X121525534Y-78163500D01*
X121330953Y-78163500D01*
X121093500Y-78178023D01*
X121089717Y-78178724D01*
X121089710Y-78178725D01*
X120936624Y-78207098D01*
X120779748Y-78236174D01*
X120598491Y-78293324D01*
X120479093Y-78330970D01*
X120479090Y-78330971D01*
X120475421Y-78332128D01*
X120471924Y-78333722D01*
X120471918Y-78333724D01*
X120188564Y-78462855D01*
X120188560Y-78462857D01*
X120185056Y-78464454D01*
X120181777Y-78466464D01*
X120181774Y-78466465D01*
X119986503Y-78586128D01*
X119912983Y-78631181D01*
X119909979Y-78633571D01*
X119909974Y-78633574D01*
X119741370Y-78767688D01*
X119663256Y-78829823D01*
X119660564Y-78832562D01*
X119660560Y-78832566D01*
X119610830Y-78883172D01*
X119439599Y-79057418D01*
X119437254Y-79060474D01*
X119296716Y-79243627D01*
X119245346Y-79310573D01*
X119083393Y-79585515D01*
X118956154Y-79878145D01*
X118955060Y-79881839D01*
X118955058Y-79881844D01*
X118922386Y-79992143D01*
X118865526Y-80184100D01*
X118812860Y-80498819D01*
X118812692Y-80502669D01*
X118801145Y-80767130D01*
X118778191Y-80834314D01*
X118722558Y-80878422D01*
X118651910Y-80885451D01*
X118588677Y-80853169D01*
X118568880Y-80829148D01*
X118567908Y-80827616D01*
X118445432Y-80634625D01*
X118333083Y-80498819D01*
X118246758Y-80394470D01*
X118246757Y-80394469D01*
X118244233Y-80391418D01*
X118014140Y-80175346D01*
X117758779Y-79989816D01*
X117735486Y-79977010D01*
X117485648Y-79839660D01*
X117485647Y-79839659D01*
X117482179Y-79837753D01*
X117478510Y-79836300D01*
X117478505Y-79836298D01*
X117192372Y-79723010D01*
X117192371Y-79723010D01*
X117188702Y-79721557D01*
X116882975Y-79643060D01*
X116569821Y-79603500D01*
X116254179Y-79603500D01*
X115941025Y-79643060D01*
X115635298Y-79721557D01*
X115631629Y-79723010D01*
X115631628Y-79723010D01*
X115345495Y-79836298D01*
X115345490Y-79836300D01*
X115341821Y-79837753D01*
X115338353Y-79839659D01*
X115338352Y-79839660D01*
X115088515Y-79977010D01*
X115065221Y-79989816D01*
X114809860Y-80175346D01*
X114579767Y-80391418D01*
X114577243Y-80394469D01*
X114577242Y-80394470D01*
X114490917Y-80498819D01*
X114378568Y-80634625D01*
X114229083Y-80870175D01*
X114226393Y-80874415D01*
X114209438Y-80901131D01*
X114207754Y-80904710D01*
X114207750Y-80904717D01*
X114088114Y-81158959D01*
X114075044Y-81186734D01*
X113977505Y-81486928D01*
X113918359Y-81796980D01*
X113898540Y-82112000D01*
X113918359Y-82427020D01*
X113977505Y-82737072D01*
X113990255Y-82776312D01*
X114072785Y-83030312D01*
X114075044Y-83037266D01*
X114076731Y-83040852D01*
X114076733Y-83040856D01*
X114207750Y-83319283D01*
X114207754Y-83319290D01*
X114209438Y-83322869D01*
X114211562Y-83326215D01*
X114211562Y-83326216D01*
X114335195Y-83521031D01*
X114354808Y-83589265D01*
X114334417Y-83657270D01*
X114280497Y-83703456D01*
X114210166Y-83713158D01*
X114154751Y-83690482D01*
X114101982Y-83652143D01*
X114101981Y-83652142D01*
X114101977Y-83652139D01*
X114098779Y-83649816D01*
X114094287Y-83647346D01*
X113825648Y-83499660D01*
X113825647Y-83499659D01*
X113822179Y-83497753D01*
X113818510Y-83496300D01*
X113818505Y-83496298D01*
X113532372Y-83383010D01*
X113532371Y-83383010D01*
X113528702Y-83381557D01*
X113222975Y-83303060D01*
X112909821Y-83263500D01*
X112594179Y-83263500D01*
X112281025Y-83303060D01*
X111975298Y-83381557D01*
X111971629Y-83383010D01*
X111971628Y-83383010D01*
X111685495Y-83496298D01*
X111685490Y-83496300D01*
X111681821Y-83497753D01*
X111678353Y-83499659D01*
X111678352Y-83499660D01*
X111409714Y-83647346D01*
X111405221Y-83649816D01*
X111205631Y-83794826D01*
X111153695Y-83832560D01*
X111149860Y-83835346D01*
X110919767Y-84051418D01*
X110917243Y-84054469D01*
X110917242Y-84054470D01*
X110890677Y-84086582D01*
X110718568Y-84294625D01*
X110549438Y-84561131D01*
X110547754Y-84564710D01*
X110547750Y-84564717D01*
X110420591Y-84834945D01*
X110415044Y-84846734D01*
X110317505Y-85146928D01*
X110258359Y-85456980D01*
X110238540Y-85772000D01*
X110258359Y-86087020D01*
X110317505Y-86397072D01*
X110318732Y-86400848D01*
X110401262Y-86654848D01*
X110415044Y-86697266D01*
X110416731Y-86700852D01*
X110416733Y-86700856D01*
X110547750Y-86979283D01*
X110547754Y-86979290D01*
X110549438Y-86982869D01*
X110718568Y-87249375D01*
X110919767Y-87492582D01*
X111149860Y-87708654D01*
X111405221Y-87894184D01*
X111408690Y-87896091D01*
X111408693Y-87896093D01*
X111650700Y-88029138D01*
X111700759Y-88079483D01*
X111715652Y-88148900D01*
X111690651Y-88215349D01*
X111633694Y-88257733D01*
X111577704Y-88264157D01*
X111577667Y-88264745D01*
X111574380Y-88264538D01*
X111574207Y-88264558D01*
X111573721Y-88264497D01*
X111565831Y-88264000D01*
X111258169Y-88264000D01*
X111250278Y-88264497D01*
X110945050Y-88303055D01*
X110937279Y-88304538D01*
X110639296Y-88381047D01*
X110631770Y-88383492D01*
X110345707Y-88496753D01*
X110338572Y-88500110D01*
X110068961Y-88648330D01*
X110062281Y-88652570D01*
X109839177Y-88814664D01*
X109830754Y-88825587D01*
X102104761Y-88825587D01*
X102104761Y-67136190D01*
X103754826Y-67136190D01*
X103755171Y-67142778D01*
X103755171Y-67142782D01*
X103758327Y-67202999D01*
X103758500Y-67209593D01*
X103758500Y-67229620D01*
X103758844Y-67232891D01*
X103758844Y-67232895D01*
X103760593Y-67249539D01*
X103761110Y-67256113D01*
X103761857Y-67270367D01*
X103764611Y-67322915D01*
X103766320Y-67329292D01*
X103766320Y-67329293D01*
X103768124Y-67336023D01*
X103771728Y-67355470D01*
X103773145Y-67368956D01*
X103775187Y-67375240D01*
X103793818Y-67432582D01*
X103795691Y-67438906D01*
X103813006Y-67503524D01*
X103819167Y-67515616D01*
X103826730Y-67533875D01*
X103830925Y-67546785D01*
X103861057Y-67598975D01*
X103864376Y-67604724D01*
X103867523Y-67610520D01*
X103897893Y-67670125D01*
X103902050Y-67675258D01*
X103906432Y-67680670D01*
X103917625Y-67696955D01*
X103921116Y-67703002D01*
X103921119Y-67703005D01*
X103924415Y-67708715D01*
X103928827Y-67713615D01*
X103928830Y-67713619D01*
X103969175Y-67758425D01*
X103973463Y-67763446D01*
X103986063Y-67779006D01*
X104000210Y-67793153D01*
X104004751Y-67797937D01*
X104044426Y-67842000D01*
X104049530Y-67847669D01*
X104060518Y-67855652D01*
X104075546Y-67868489D01*
X112217511Y-76010454D01*
X112230348Y-76025482D01*
X112238331Y-76036470D01*
X112243233Y-76040883D01*
X112243234Y-76040885D01*
X112288063Y-76081249D01*
X112292847Y-76085790D01*
X112306994Y-76099937D01*
X112309559Y-76102014D01*
X112322554Y-76112537D01*
X112327575Y-76116825D01*
X112372381Y-76157170D01*
X112372385Y-76157173D01*
X112377285Y-76161585D01*
X112382995Y-76164881D01*
X112382998Y-76164884D01*
X112389045Y-76168375D01*
X112405330Y-76179568D01*
X112415875Y-76188107D01*
X112475480Y-76218477D01*
X112481276Y-76221624D01*
X112539215Y-76255075D01*
X112552125Y-76259270D01*
X112570384Y-76266833D01*
X112582476Y-76272994D01*
X112639641Y-76288312D01*
X112647094Y-76290309D01*
X112653419Y-76292182D01*
X112717044Y-76312855D01*
X112723611Y-76313545D01*
X112723615Y-76313546D01*
X112729288Y-76314142D01*
X112730530Y-76314272D01*
X112749972Y-76317875D01*
X112763085Y-76321389D01*
X112769682Y-76321735D01*
X112769684Y-76321735D01*
X112829887Y-76324890D01*
X112836461Y-76325407D01*
X112853105Y-76327156D01*
X112853109Y-76327156D01*
X112856380Y-76327500D01*
X112876407Y-76327500D01*
X112883001Y-76327673D01*
X112943218Y-76330829D01*
X112943222Y-76330829D01*
X112949810Y-76331174D01*
X112956325Y-76330142D01*
X112956327Y-76330142D01*
X112963214Y-76329051D01*
X112982925Y-76327500D01*
X125105955Y-76327500D01*
X125174076Y-76347502D01*
X125220569Y-76401158D01*
X125230673Y-76471432D01*
X125225790Y-76492428D01*
X125217458Y-76518072D01*
X125197496Y-76708000D01*
X125217458Y-76897928D01*
X125276473Y-77079556D01*
X125371960Y-77244944D01*
X125376378Y-77249851D01*
X125376379Y-77249852D01*
X125471766Y-77355790D01*
X125499747Y-77386866D01*
X125654248Y-77499118D01*
X125660276Y-77501802D01*
X125660278Y-77501803D01*
X125822681Y-77574109D01*
X125828712Y-77576794D01*
X125916279Y-77595407D01*
X126009056Y-77615128D01*
X126009061Y-77615128D01*
X126015513Y-77616500D01*
X126206487Y-77616500D01*
X126212939Y-77615128D01*
X126212944Y-77615128D01*
X126282922Y-77600253D01*
X126309119Y-77597500D01*
X153844075Y-77597500D01*
X153863786Y-77599051D01*
X153870673Y-77600142D01*
X153870675Y-77600142D01*
X153877190Y-77601174D01*
X153883778Y-77600829D01*
X153883782Y-77600829D01*
X153943999Y-77597673D01*
X153950593Y-77597500D01*
X153970620Y-77597500D01*
X153973891Y-77597156D01*
X153973895Y-77597156D01*
X153990539Y-77595407D01*
X153997113Y-77594890D01*
X154057316Y-77591735D01*
X154057318Y-77591735D01*
X154063915Y-77591389D01*
X154077028Y-77587875D01*
X154096470Y-77584272D01*
X154097712Y-77584142D01*
X154103385Y-77583546D01*
X154103389Y-77583545D01*
X154109956Y-77582855D01*
X154173581Y-77562182D01*
X154179906Y-77560309D01*
X154187359Y-77558312D01*
X154244524Y-77542994D01*
X154256616Y-77536833D01*
X154274875Y-77529270D01*
X154287785Y-77525075D01*
X154345724Y-77491624D01*
X154351520Y-77488477D01*
X154411125Y-77458107D01*
X154421670Y-77449568D01*
X154437955Y-77438375D01*
X154444002Y-77434884D01*
X154444005Y-77434881D01*
X154449715Y-77431585D01*
X154454615Y-77427173D01*
X154454619Y-77427170D01*
X154495067Y-77390749D01*
X154499432Y-77386819D01*
X154504446Y-77382537D01*
X154517441Y-77372014D01*
X154520006Y-77369937D01*
X154534153Y-77355790D01*
X154538937Y-77351249D01*
X154583766Y-77310885D01*
X154583767Y-77310883D01*
X154588669Y-77306470D01*
X154596652Y-77295482D01*
X154609489Y-77280454D01*
X163513454Y-68376489D01*
X163528482Y-68363652D01*
X163539470Y-68355669D01*
X163584249Y-68305937D01*
X163588790Y-68301153D01*
X163602937Y-68287006D01*
X163615537Y-68271446D01*
X163619825Y-68266425D01*
X163660170Y-68221619D01*
X163660173Y-68221615D01*
X163664585Y-68216715D01*
X163667881Y-68211005D01*
X163667884Y-68211002D01*
X163671375Y-68204955D01*
X163682568Y-68188670D01*
X163684425Y-68186377D01*
X163691107Y-68178125D01*
X163721477Y-68118520D01*
X163724624Y-68112724D01*
X163733289Y-68097716D01*
X163758075Y-68054785D01*
X163762270Y-68041875D01*
X163769833Y-68023616D01*
X163775994Y-68011524D01*
X163793309Y-67946906D01*
X163795182Y-67940582D01*
X163813813Y-67883240D01*
X163815855Y-67876956D01*
X163816591Y-67869958D01*
X163817272Y-67863471D01*
X163820876Y-67844023D01*
X163821419Y-67842000D01*
X163824389Y-67830915D01*
X163826987Y-67781341D01*
X163827890Y-67764113D01*
X163828407Y-67757539D01*
X163830156Y-67740895D01*
X163830156Y-67740891D01*
X163830500Y-67737620D01*
X163830500Y-67717593D01*
X163830673Y-67710999D01*
X163833829Y-67650782D01*
X163833829Y-67650778D01*
X163834174Y-67644190D01*
X163832051Y-67630785D01*
X163830500Y-67611075D01*
X163830500Y-55832924D01*
X163832051Y-55813213D01*
X163833142Y-55806326D01*
X163833142Y-55806324D01*
X163834174Y-55799809D01*
X163830673Y-55733007D01*
X163830500Y-55726413D01*
X163830500Y-55706380D01*
X163828406Y-55686454D01*
X163827889Y-55679880D01*
X163824734Y-55619681D01*
X163824734Y-55619678D01*
X163824388Y-55613085D01*
X163820876Y-55599977D01*
X163817275Y-55580544D01*
X163816546Y-55573614D01*
X163816545Y-55573610D01*
X163815855Y-55567044D01*
X163795178Y-55503408D01*
X163793307Y-55497091D01*
X163782907Y-55458276D01*
X163775994Y-55432475D01*
X163769834Y-55420385D01*
X163762269Y-55402121D01*
X163760119Y-55395504D01*
X163760117Y-55395499D01*
X163758075Y-55389215D01*
X163724624Y-55331276D01*
X163721478Y-55325481D01*
X163694106Y-55271762D01*
X163694104Y-55271759D01*
X163691106Y-55265875D01*
X163686948Y-55260740D01*
X163682567Y-55255329D01*
X163671372Y-55239041D01*
X163664585Y-55227285D01*
X163619827Y-55177576D01*
X163615543Y-55172561D01*
X163605012Y-55159556D01*
X163605009Y-55159552D01*
X163602937Y-55156994D01*
X163588790Y-55142847D01*
X163584249Y-55138063D01*
X163543885Y-55093234D01*
X163543883Y-55093233D01*
X163539470Y-55088331D01*
X163528482Y-55080348D01*
X163513454Y-55067511D01*
X162079489Y-53633546D01*
X162066652Y-53618518D01*
X162058669Y-53607530D01*
X162037940Y-53588865D01*
X162008937Y-53562751D01*
X162004153Y-53558210D01*
X161990006Y-53544063D01*
X161974446Y-53531463D01*
X161969425Y-53527175D01*
X161924619Y-53486830D01*
X161924615Y-53486827D01*
X161919715Y-53482415D01*
X161914005Y-53479119D01*
X161914002Y-53479116D01*
X161907955Y-53475625D01*
X161891670Y-53464432D01*
X161881125Y-53455893D01*
X161821520Y-53425523D01*
X161815724Y-53422376D01*
X161779605Y-53401523D01*
X161757785Y-53388925D01*
X161744875Y-53384730D01*
X161726616Y-53377167D01*
X161714524Y-53371006D01*
X161649906Y-53353691D01*
X161643582Y-53351818D01*
X161623509Y-53345296D01*
X161579956Y-53331145D01*
X161573389Y-53330455D01*
X161573385Y-53330454D01*
X161567712Y-53329858D01*
X161566470Y-53329728D01*
X161547028Y-53326125D01*
X161533915Y-53322611D01*
X161527318Y-53322265D01*
X161527316Y-53322265D01*
X161467113Y-53319110D01*
X161460539Y-53318593D01*
X161443895Y-53316844D01*
X161443891Y-53316844D01*
X161440620Y-53316500D01*
X161420593Y-53316500D01*
X161413999Y-53316327D01*
X161353782Y-53313171D01*
X161353778Y-53313171D01*
X161347190Y-53312826D01*
X161340675Y-53313858D01*
X161340673Y-53313858D01*
X161333786Y-53314949D01*
X161314075Y-53316500D01*
X160873748Y-53316500D01*
X160805627Y-53296498D01*
X160759740Y-53244148D01*
X160644250Y-52998717D01*
X160644246Y-52998710D01*
X160642562Y-52995131D01*
X160473432Y-52728625D01*
X160272233Y-52485418D01*
X160243785Y-52458703D01*
X160233001Y-52448577D01*
X160042140Y-52269346D01*
X160005903Y-52243018D01*
X159986369Y-52228826D01*
X159786779Y-52083816D01*
X159782287Y-52081346D01*
X159513648Y-51933660D01*
X159513647Y-51933659D01*
X159510179Y-51931753D01*
X159506510Y-51930300D01*
X159506505Y-51930298D01*
X159220372Y-51817010D01*
X159220371Y-51817010D01*
X159216702Y-51815557D01*
X158910975Y-51737060D01*
X158597821Y-51697500D01*
X158282179Y-51697500D01*
X157969025Y-51737060D01*
X157663298Y-51815557D01*
X157659629Y-51817010D01*
X157659628Y-51817010D01*
X157373495Y-51930298D01*
X157373490Y-51930300D01*
X157369821Y-51931753D01*
X157366353Y-51933659D01*
X157366352Y-51933660D01*
X157097714Y-52081346D01*
X157093221Y-52083816D01*
X157090023Y-52086139D01*
X157090019Y-52086142D01*
X157068461Y-52101805D01*
X157037250Y-52124482D01*
X156970384Y-52148339D01*
X156901232Y-52132259D01*
X156851752Y-52081346D01*
X156837652Y-52011763D01*
X156856805Y-51955031D01*
X156980438Y-51760216D01*
X156980438Y-51760215D01*
X156982562Y-51756869D01*
X156984246Y-51753290D01*
X156984250Y-51753283D01*
X157115267Y-51474856D01*
X157115269Y-51474852D01*
X157116956Y-51471266D01*
X157214495Y-51171072D01*
X157273641Y-50861020D01*
X157293460Y-50546000D01*
X157273641Y-50230980D01*
X157214495Y-49920928D01*
X157116956Y-49620734D01*
X157105663Y-49596734D01*
X156984250Y-49338717D01*
X156984246Y-49338710D01*
X156982562Y-49335131D01*
X156813432Y-49068625D01*
X156646616Y-48866980D01*
X156614758Y-48828470D01*
X156614757Y-48828469D01*
X156612233Y-48825418D01*
X156583785Y-48798703D01*
X156573001Y-48788577D01*
X156382140Y-48609346D01*
X156345903Y-48583018D01*
X156315362Y-48560829D01*
X156126779Y-48423816D01*
X156087357Y-48402143D01*
X155853648Y-48273660D01*
X155853647Y-48273659D01*
X155850179Y-48271753D01*
X155846510Y-48270300D01*
X155846505Y-48270298D01*
X155749116Y-48231739D01*
X155693142Y-48188064D01*
X155669500Y-48114587D01*
X155669500Y-47798925D01*
X155671051Y-47779214D01*
X155672142Y-47772327D01*
X155672142Y-47772325D01*
X155673174Y-47765810D01*
X155671226Y-47728625D01*
X155669673Y-47699001D01*
X155669500Y-47692407D01*
X155669500Y-47672380D01*
X155667407Y-47652461D01*
X155666890Y-47645887D01*
X155663735Y-47585684D01*
X155663735Y-47585682D01*
X155663389Y-47579085D01*
X155659875Y-47565972D01*
X155656272Y-47546529D01*
X155655546Y-47539615D01*
X155655545Y-47539611D01*
X155654855Y-47533044D01*
X155634182Y-47469418D01*
X155632309Y-47463094D01*
X155616704Y-47404859D01*
X155614994Y-47398476D01*
X155608833Y-47386384D01*
X155601269Y-47368123D01*
X155599116Y-47361497D01*
X155597075Y-47355215D01*
X155563624Y-47297276D01*
X155560477Y-47291480D01*
X155530107Y-47231875D01*
X155521568Y-47221330D01*
X155510375Y-47205045D01*
X155506884Y-47198998D01*
X155506881Y-47198995D01*
X155503585Y-47193285D01*
X155499173Y-47188385D01*
X155499170Y-47188381D01*
X155458825Y-47143575D01*
X155454537Y-47138554D01*
X155444014Y-47125559D01*
X155441937Y-47122994D01*
X155427790Y-47108847D01*
X155423249Y-47104063D01*
X155382885Y-47059234D01*
X155382883Y-47059233D01*
X155378470Y-47054331D01*
X155367482Y-47046348D01*
X155352454Y-47033511D01*
X153593489Y-45274546D01*
X153580652Y-45259518D01*
X153572669Y-45248530D01*
X153522937Y-45203751D01*
X153518153Y-45199210D01*
X153504006Y-45185063D01*
X153488446Y-45172463D01*
X153483425Y-45168175D01*
X153438619Y-45127830D01*
X153438615Y-45127827D01*
X153433715Y-45123415D01*
X153428005Y-45120119D01*
X153428002Y-45120116D01*
X153421955Y-45116625D01*
X153405670Y-45105432D01*
X153395125Y-45096893D01*
X153335520Y-45066523D01*
X153329724Y-45063376D01*
X153309672Y-45051799D01*
X153271785Y-45029925D01*
X153258875Y-45025730D01*
X153240616Y-45018167D01*
X153228524Y-45012006D01*
X153163906Y-44994691D01*
X153157582Y-44992818D01*
X153148981Y-44990023D01*
X153093956Y-44972145D01*
X153087389Y-44971455D01*
X153087385Y-44971454D01*
X153081712Y-44970858D01*
X153080470Y-44970728D01*
X153061028Y-44967125D01*
X153047915Y-44963611D01*
X153041318Y-44963265D01*
X153041316Y-44963265D01*
X152981113Y-44960110D01*
X152974539Y-44959593D01*
X152957895Y-44957844D01*
X152957891Y-44957844D01*
X152954620Y-44957500D01*
X152934593Y-44957500D01*
X152927999Y-44957327D01*
X152867782Y-44954171D01*
X152867778Y-44954171D01*
X152861190Y-44953826D01*
X152854675Y-44954858D01*
X152854673Y-44954858D01*
X152847786Y-44955949D01*
X152828075Y-44957500D01*
X142446925Y-44957500D01*
X142427214Y-44955949D01*
X142420327Y-44954858D01*
X142420325Y-44954858D01*
X142413810Y-44953826D01*
X142407222Y-44954171D01*
X142407218Y-44954171D01*
X142347001Y-44957327D01*
X142340407Y-44957500D01*
X142320380Y-44957500D01*
X142317109Y-44957844D01*
X142317105Y-44957844D01*
X142300461Y-44959593D01*
X142293887Y-44960110D01*
X142233684Y-44963265D01*
X142233682Y-44963265D01*
X142227085Y-44963611D01*
X142213972Y-44967125D01*
X142194530Y-44970728D01*
X142193288Y-44970858D01*
X142187615Y-44971454D01*
X142187611Y-44971455D01*
X142181044Y-44972145D01*
X142126019Y-44990023D01*
X142117418Y-44992818D01*
X142111094Y-44994691D01*
X142046476Y-45012006D01*
X142034384Y-45018167D01*
X142016125Y-45025730D01*
X142003215Y-45029925D01*
X141965328Y-45051799D01*
X141945276Y-45063376D01*
X141939480Y-45066523D01*
X141879875Y-45096893D01*
X141869330Y-45105432D01*
X141853045Y-45116625D01*
X141846998Y-45120116D01*
X141846995Y-45120119D01*
X141841285Y-45123415D01*
X141836385Y-45127827D01*
X141836381Y-45127830D01*
X141791575Y-45168175D01*
X141786554Y-45172463D01*
X141770994Y-45185063D01*
X141756847Y-45199210D01*
X141752063Y-45203751D01*
X141702331Y-45248530D01*
X141694348Y-45259518D01*
X141681511Y-45274546D01*
X137054426Y-49901631D01*
X137039393Y-49914471D01*
X136929747Y-49994134D01*
X136925326Y-49999044D01*
X136925325Y-49999045D01*
X136827883Y-50107266D01*
X136801960Y-50136056D01*
X136706473Y-50301444D01*
X136647458Y-50483072D01*
X136646768Y-50489633D01*
X136646768Y-50489635D01*
X136641260Y-50542042D01*
X136627496Y-50673000D01*
X136628186Y-50679565D01*
X136645145Y-50840918D01*
X136647458Y-50862928D01*
X136706473Y-51044556D01*
X136801960Y-51209944D01*
X136806378Y-51214851D01*
X136806379Y-51214852D01*
X136925325Y-51346955D01*
X136929747Y-51351866D01*
X137028843Y-51423864D01*
X137073415Y-51456247D01*
X137084248Y-51464118D01*
X137090276Y-51466802D01*
X137090278Y-51466803D01*
X137252681Y-51539109D01*
X137258712Y-51541794D01*
X137352112Y-51561647D01*
X137439056Y-51580128D01*
X137439061Y-51580128D01*
X137445513Y-51581500D01*
X137636487Y-51581500D01*
X137642939Y-51580128D01*
X137642944Y-51580128D01*
X137729887Y-51561647D01*
X137823288Y-51541794D01*
X137829319Y-51539109D01*
X137991722Y-51466803D01*
X137991724Y-51466802D01*
X137997752Y-51464118D01*
X138008586Y-51456247D01*
X138053157Y-51423864D01*
X138152253Y-51351866D01*
X138156675Y-51346955D01*
X138275621Y-51214852D01*
X138275622Y-51214851D01*
X138280040Y-51209944D01*
X138296394Y-51181619D01*
X138316416Y-51155527D01*
X142698538Y-46773405D01*
X142760850Y-46739379D01*
X142787633Y-46736500D01*
X148574249Y-46736500D01*
X148642370Y-46756502D01*
X148688863Y-46810158D01*
X148698967Y-46880432D01*
X148669473Y-46945012D01*
X148634954Y-46972912D01*
X148433221Y-47083816D01*
X148274686Y-47198998D01*
X148214098Y-47243018D01*
X148177860Y-47269346D01*
X148040351Y-47398476D01*
X147968142Y-47466285D01*
X147947767Y-47485418D01*
X147746568Y-47728625D01*
X147577438Y-47995131D01*
X147575754Y-47998710D01*
X147575750Y-47998717D01*
X147444733Y-48277144D01*
X147443044Y-48280734D01*
X147345505Y-48580928D01*
X147286359Y-48890980D01*
X147266540Y-49206000D01*
X147266789Y-49209957D01*
X147278272Y-49392473D01*
X147262587Y-49461716D01*
X147211957Y-49511486D01*
X147142456Y-49525982D01*
X147076151Y-49500603D01*
X147038513Y-49454033D01*
X146984250Y-49338717D01*
X146984246Y-49338710D01*
X146982562Y-49335131D01*
X146813432Y-49068625D01*
X146646616Y-48866980D01*
X146614758Y-48828470D01*
X146614757Y-48828469D01*
X146612233Y-48825418D01*
X146583785Y-48798703D01*
X146573001Y-48788577D01*
X146382140Y-48609346D01*
X146345903Y-48583018D01*
X146315362Y-48560829D01*
X146126779Y-48423816D01*
X146087357Y-48402143D01*
X145853648Y-48273660D01*
X145853647Y-48273659D01*
X145850179Y-48271753D01*
X145846510Y-48270300D01*
X145846505Y-48270298D01*
X145560372Y-48157010D01*
X145560371Y-48157010D01*
X145556702Y-48155557D01*
X145250975Y-48077060D01*
X144937821Y-48037500D01*
X144622179Y-48037500D01*
X144309025Y-48077060D01*
X144003298Y-48155557D01*
X143999629Y-48157010D01*
X143999628Y-48157010D01*
X143713495Y-48270298D01*
X143713490Y-48270300D01*
X143709821Y-48271753D01*
X143706353Y-48273659D01*
X143706352Y-48273660D01*
X143472644Y-48402143D01*
X143433221Y-48423816D01*
X143244638Y-48560829D01*
X143214098Y-48583018D01*
X143177860Y-48609346D01*
X142986999Y-48788577D01*
X142976216Y-48798703D01*
X142947767Y-48825418D01*
X142945243Y-48828469D01*
X142945242Y-48828470D01*
X142913384Y-48866980D01*
X142746568Y-49068625D01*
X142577438Y-49335131D01*
X142575754Y-49338710D01*
X142575750Y-49338717D01*
X142454337Y-49596734D01*
X142443044Y-49620734D01*
X142345505Y-49920928D01*
X142286359Y-50230980D01*
X142266540Y-50546000D01*
X142286359Y-50861020D01*
X142345505Y-51171072D01*
X142443044Y-51471266D01*
X142444731Y-51474852D01*
X142444733Y-51474856D01*
X142575750Y-51753283D01*
X142575754Y-51753290D01*
X142577438Y-51756869D01*
X142579562Y-51760215D01*
X142579562Y-51760216D01*
X142703195Y-51955031D01*
X142722808Y-52023265D01*
X142702417Y-52091270D01*
X142648497Y-52137456D01*
X142578166Y-52147158D01*
X142522751Y-52124482D01*
X142491539Y-52101805D01*
X142469981Y-52086142D01*
X142469977Y-52086139D01*
X142466779Y-52083816D01*
X142462287Y-52081346D01*
X142193648Y-51933660D01*
X142193647Y-51933659D01*
X142190179Y-51931753D01*
X142186510Y-51930300D01*
X142186505Y-51930298D01*
X141900372Y-51817010D01*
X141900371Y-51817010D01*
X141896702Y-51815557D01*
X141590975Y-51737060D01*
X141277821Y-51697500D01*
X140962179Y-51697500D01*
X140649025Y-51737060D01*
X140343298Y-51815557D01*
X140339629Y-51817010D01*
X140339628Y-51817010D01*
X140053495Y-51930298D01*
X140053490Y-51930300D01*
X140049821Y-51931753D01*
X140046353Y-51933659D01*
X140046352Y-51933660D01*
X139777714Y-52081346D01*
X139773221Y-52083816D01*
X139573631Y-52228826D01*
X139554098Y-52243018D01*
X139517860Y-52269346D01*
X139326999Y-52448577D01*
X139316216Y-52458703D01*
X139287767Y-52485418D01*
X139086568Y-52728625D01*
X138917438Y-52995131D01*
X138915754Y-52998710D01*
X138915750Y-52998717D01*
X138811553Y-53220148D01*
X138764450Y-53273269D01*
X138697545Y-53292500D01*
X129885748Y-53292500D01*
X129817627Y-53272498D01*
X129771740Y-53220148D01*
X129656250Y-52974717D01*
X129656246Y-52974710D01*
X129654562Y-52971131D01*
X129485432Y-52704625D01*
X129382052Y-52579661D01*
X129286758Y-52464470D01*
X129286757Y-52464469D01*
X129284233Y-52461418D01*
X129054140Y-52245346D01*
X128798779Y-52059816D01*
X128794287Y-52057346D01*
X128525648Y-51909660D01*
X128525647Y-51909659D01*
X128522179Y-51907753D01*
X128518510Y-51906300D01*
X128518505Y-51906298D01*
X128232372Y-51793010D01*
X128232371Y-51793010D01*
X128228702Y-51791557D01*
X127922975Y-51713060D01*
X127609821Y-51673500D01*
X127294179Y-51673500D01*
X126981025Y-51713060D01*
X126675298Y-51791557D01*
X126671629Y-51793010D01*
X126671628Y-51793010D01*
X126385495Y-51906298D01*
X126385490Y-51906300D01*
X126381821Y-51907753D01*
X126378353Y-51909659D01*
X126378352Y-51909660D01*
X126109714Y-52057346D01*
X126105221Y-52059816D01*
X126102023Y-52062139D01*
X126102019Y-52062142D01*
X126102018Y-52062143D01*
X126049250Y-52100482D01*
X125982384Y-52124339D01*
X125913232Y-52108259D01*
X125863752Y-52057346D01*
X125849652Y-51987763D01*
X125868805Y-51931031D01*
X125992438Y-51736216D01*
X125992438Y-51736215D01*
X125994562Y-51732869D01*
X125996246Y-51729290D01*
X125996250Y-51729283D01*
X126127267Y-51450856D01*
X126127269Y-51450852D01*
X126128956Y-51447266D01*
X126226495Y-51147072D01*
X126285641Y-50837020D01*
X126305460Y-50522000D01*
X126285641Y-50206980D01*
X126226495Y-49896928D01*
X126128956Y-49596734D01*
X126086071Y-49505598D01*
X125996250Y-49314717D01*
X125996246Y-49314710D01*
X125994562Y-49311131D01*
X125825432Y-49044625D01*
X125675246Y-48863082D01*
X125626758Y-48804470D01*
X125626757Y-48804469D01*
X125624233Y-48801418D01*
X125394140Y-48585346D01*
X125138779Y-48399816D01*
X124909304Y-48273660D01*
X124865648Y-48249660D01*
X124865647Y-48249659D01*
X124862179Y-48247753D01*
X124858510Y-48246300D01*
X124858505Y-48246298D01*
X124572372Y-48133010D01*
X124572371Y-48133010D01*
X124568702Y-48131557D01*
X124262975Y-48053060D01*
X123949821Y-48013500D01*
X123634179Y-48013500D01*
X123321025Y-48053060D01*
X123015298Y-48131557D01*
X123011629Y-48133010D01*
X123011628Y-48133010D01*
X122725495Y-48246298D01*
X122725490Y-48246300D01*
X122721821Y-48247753D01*
X122718353Y-48249659D01*
X122718352Y-48249660D01*
X122674697Y-48273660D01*
X122445221Y-48399816D01*
X122189860Y-48585346D01*
X121959767Y-48801418D01*
X121957243Y-48804469D01*
X121957242Y-48804470D01*
X121908754Y-48863082D01*
X121758568Y-49044625D01*
X121589438Y-49311131D01*
X121587754Y-49314710D01*
X121587750Y-49314717D01*
X121533487Y-49430033D01*
X121486384Y-49483154D01*
X121418040Y-49502377D01*
X121350152Y-49481598D01*
X121304275Y-49427415D01*
X121293728Y-49368473D01*
X121296037Y-49331784D01*
X121305460Y-49182000D01*
X121285641Y-48866980D01*
X121226495Y-48556928D01*
X121128956Y-48256734D01*
X121127267Y-48253144D01*
X120996250Y-47974717D01*
X120996246Y-47974710D01*
X120994562Y-47971131D01*
X120825432Y-47704625D01*
X120678289Y-47526760D01*
X120626758Y-47464470D01*
X120626757Y-47464469D01*
X120624233Y-47461418D01*
X120394140Y-47245346D01*
X120383698Y-47237759D01*
X120315734Y-47188381D01*
X120138779Y-47059816D01*
X120121754Y-47050456D01*
X119865648Y-46909660D01*
X119865647Y-46909659D01*
X119862179Y-46907753D01*
X119858510Y-46906300D01*
X119858505Y-46906298D01*
X119572372Y-46793010D01*
X119572371Y-46793010D01*
X119568702Y-46791557D01*
X119262975Y-46713060D01*
X118949821Y-46673500D01*
X118634179Y-46673500D01*
X118321025Y-46713060D01*
X118015298Y-46791557D01*
X118011629Y-46793010D01*
X118011628Y-46793010D01*
X117725495Y-46906298D01*
X117725490Y-46906300D01*
X117721821Y-46907753D01*
X117718353Y-46909659D01*
X117718352Y-46909660D01*
X117462247Y-47050456D01*
X117445221Y-47059816D01*
X117268266Y-47188381D01*
X117200303Y-47237759D01*
X117189860Y-47245346D01*
X116959767Y-47461418D01*
X116957243Y-47464469D01*
X116957242Y-47464470D01*
X116905711Y-47526760D01*
X116758568Y-47704625D01*
X116589438Y-47971131D01*
X116587754Y-47974710D01*
X116587750Y-47974717D01*
X116456733Y-48253144D01*
X116455044Y-48256734D01*
X116357505Y-48556928D01*
X116298359Y-48866980D01*
X116278540Y-49182000D01*
X116287964Y-49331784D01*
X116290272Y-49368473D01*
X116274587Y-49437716D01*
X116223957Y-49487486D01*
X116154456Y-49501982D01*
X116088151Y-49476603D01*
X116050513Y-49430033D01*
X115996250Y-49314717D01*
X115996246Y-49314710D01*
X115994562Y-49311131D01*
X115825432Y-49044625D01*
X115675246Y-48863082D01*
X115626758Y-48804470D01*
X115626757Y-48804469D01*
X115624233Y-48801418D01*
X115394140Y-48585346D01*
X115138779Y-48399816D01*
X114909304Y-48273660D01*
X114865648Y-48249660D01*
X114865647Y-48249659D01*
X114862179Y-48247753D01*
X114858510Y-48246300D01*
X114858505Y-48246298D01*
X114572372Y-48133010D01*
X114572371Y-48133010D01*
X114568702Y-48131557D01*
X114262975Y-48053060D01*
X113949821Y-48013500D01*
X113634179Y-48013500D01*
X113321025Y-48053060D01*
X113015298Y-48131557D01*
X113011629Y-48133010D01*
X113011628Y-48133010D01*
X112725495Y-48246298D01*
X112725490Y-48246300D01*
X112721821Y-48247753D01*
X112718353Y-48249659D01*
X112718352Y-48249660D01*
X112674697Y-48273660D01*
X112445221Y-48399816D01*
X112189860Y-48585346D01*
X111959767Y-48801418D01*
X111957243Y-48804469D01*
X111957242Y-48804470D01*
X111908754Y-48863082D01*
X111758568Y-49044625D01*
X111589438Y-49311131D01*
X111587754Y-49314710D01*
X111587750Y-49314717D01*
X111497929Y-49505598D01*
X111455044Y-49596734D01*
X111357505Y-49896928D01*
X111298359Y-50206980D01*
X111278540Y-50522000D01*
X111298359Y-50837020D01*
X111357505Y-51147072D01*
X111455044Y-51447266D01*
X111456731Y-51450852D01*
X111456733Y-51450856D01*
X111587750Y-51729283D01*
X111587754Y-51729290D01*
X111589438Y-51732869D01*
X111591562Y-51736215D01*
X111591562Y-51736216D01*
X111715195Y-51931031D01*
X111734808Y-51999265D01*
X111714417Y-52067270D01*
X111660497Y-52113456D01*
X111590166Y-52123158D01*
X111534751Y-52100482D01*
X111481982Y-52062143D01*
X111481981Y-52062142D01*
X111481977Y-52062139D01*
X111478779Y-52059816D01*
X111474287Y-52057346D01*
X111205648Y-51909660D01*
X111205647Y-51909659D01*
X111202179Y-51907753D01*
X111198510Y-51906300D01*
X111198505Y-51906298D01*
X110912372Y-51793010D01*
X110912371Y-51793010D01*
X110908702Y-51791557D01*
X110602975Y-51713060D01*
X110289821Y-51673500D01*
X109974179Y-51673500D01*
X109661025Y-51713060D01*
X109355298Y-51791557D01*
X109351629Y-51793010D01*
X109351628Y-51793010D01*
X109065495Y-51906298D01*
X109065490Y-51906300D01*
X109061821Y-51907753D01*
X109058353Y-51909659D01*
X109058352Y-51909660D01*
X108789714Y-52057346D01*
X108785221Y-52059816D01*
X108529860Y-52245346D01*
X108299767Y-52461418D01*
X108297243Y-52464469D01*
X108297242Y-52464470D01*
X108201948Y-52579661D01*
X108098568Y-52704625D01*
X107929438Y-52971131D01*
X107927754Y-52974710D01*
X107927750Y-52974717D01*
X107812260Y-53220148D01*
X107765158Y-53273269D01*
X107698252Y-53292500D01*
X106425925Y-53292500D01*
X106406214Y-53290949D01*
X106399327Y-53289858D01*
X106399325Y-53289858D01*
X106392810Y-53288826D01*
X106386222Y-53289171D01*
X106386218Y-53289171D01*
X106326001Y-53292327D01*
X106319407Y-53292500D01*
X106299380Y-53292500D01*
X106296109Y-53292844D01*
X106296105Y-53292844D01*
X106279461Y-53294593D01*
X106272887Y-53295110D01*
X106212684Y-53298265D01*
X106212682Y-53298265D01*
X106206085Y-53298611D01*
X106192972Y-53302125D01*
X106173530Y-53305728D01*
X106172288Y-53305858D01*
X106166615Y-53306454D01*
X106166611Y-53306455D01*
X106160044Y-53307145D01*
X106123219Y-53319110D01*
X106096418Y-53327818D01*
X106090094Y-53329691D01*
X106025476Y-53347006D01*
X106013384Y-53353167D01*
X105995125Y-53360730D01*
X105982215Y-53364925D01*
X105947910Y-53384731D01*
X105924276Y-53398376D01*
X105918480Y-53401523D01*
X105858875Y-53431893D01*
X105848330Y-53440432D01*
X105832045Y-53451625D01*
X105825998Y-53455116D01*
X105825995Y-53455119D01*
X105820285Y-53458415D01*
X105815385Y-53462827D01*
X105815381Y-53462830D01*
X105770575Y-53503175D01*
X105765554Y-53507463D01*
X105749994Y-53520063D01*
X105735847Y-53534210D01*
X105731063Y-53538751D01*
X105709452Y-53558210D01*
X105681331Y-53583530D01*
X105673348Y-53594518D01*
X105660511Y-53609546D01*
X104075546Y-55194511D01*
X104060518Y-55207348D01*
X104049530Y-55215331D01*
X104045117Y-55220233D01*
X104045115Y-55220234D01*
X104004751Y-55265063D01*
X104000210Y-55269847D01*
X103986063Y-55283994D01*
X103983986Y-55286559D01*
X103973463Y-55299554D01*
X103969175Y-55304575D01*
X103928830Y-55349381D01*
X103928827Y-55349385D01*
X103924415Y-55354285D01*
X103921119Y-55359995D01*
X103921116Y-55359998D01*
X103917625Y-55366045D01*
X103906432Y-55382330D01*
X103897893Y-55392875D01*
X103877716Y-55432475D01*
X103867523Y-55452480D01*
X103864376Y-55458276D01*
X103830925Y-55516215D01*
X103828884Y-55522497D01*
X103826731Y-55529123D01*
X103819167Y-55547384D01*
X103813006Y-55559476D01*
X103800350Y-55606707D01*
X103795691Y-55624094D01*
X103793818Y-55630418D01*
X103773145Y-55694044D01*
X103772455Y-55700611D01*
X103772454Y-55700615D01*
X103771728Y-55707529D01*
X103768125Y-55726972D01*
X103764611Y-55740085D01*
X103764265Y-55746682D01*
X103764265Y-55746684D01*
X103761110Y-55806887D01*
X103760593Y-55813461D01*
X103758500Y-55833380D01*
X103758500Y-55853407D01*
X103758327Y-55860001D01*
X103756096Y-55902582D01*
X103754826Y-55926810D01*
X103755858Y-55933325D01*
X103755858Y-55933327D01*
X103756949Y-55940214D01*
X103758500Y-55959925D01*
X103758500Y-67103075D01*
X103756949Y-67122785D01*
X103754826Y-67136190D01*
X102104761Y-67136190D01*
X102104761Y-44201703D01*
X102919743Y-44201703D01*
X102957268Y-44486734D01*
X103033129Y-44764036D01*
X103034813Y-44767984D01*
X103141524Y-45018162D01*
X103145923Y-45028476D01*
X103202743Y-45123415D01*
X103288995Y-45267531D01*
X103293561Y-45275161D01*
X103473313Y-45499528D01*
X103681851Y-45697423D01*
X103915317Y-45865186D01*
X103919112Y-45867195D01*
X103919113Y-45867196D01*
X103940869Y-45878715D01*
X104169392Y-45999712D01*
X104439373Y-46098511D01*
X104720264Y-46159755D01*
X104748841Y-46162004D01*
X104943282Y-46177307D01*
X104943291Y-46177307D01*
X104945739Y-46177500D01*
X105101271Y-46177500D01*
X105103407Y-46177354D01*
X105103418Y-46177354D01*
X105311548Y-46163165D01*
X105311554Y-46163164D01*
X105315825Y-46162873D01*
X105320020Y-46162004D01*
X105320022Y-46162004D01*
X105456583Y-46133724D01*
X105597342Y-46104574D01*
X105868343Y-46008607D01*
X106123812Y-45876750D01*
X106127313Y-45874289D01*
X106127317Y-45874287D01*
X106241418Y-45794095D01*
X106359023Y-45711441D01*
X106569622Y-45515740D01*
X106751713Y-45293268D01*
X106901927Y-45048142D01*
X107017483Y-44784898D01*
X107096244Y-44508406D01*
X107136751Y-44223784D01*
X107136845Y-44205951D01*
X107136867Y-44201703D01*
X162101743Y-44201703D01*
X162139268Y-44486734D01*
X162215129Y-44764036D01*
X162216813Y-44767984D01*
X162323524Y-45018162D01*
X162327923Y-45028476D01*
X162384743Y-45123415D01*
X162470995Y-45267531D01*
X162475561Y-45275161D01*
X162655313Y-45499528D01*
X162863851Y-45697423D01*
X163097317Y-45865186D01*
X163101112Y-45867195D01*
X163101113Y-45867196D01*
X163122869Y-45878715D01*
X163351392Y-45999712D01*
X163621373Y-46098511D01*
X163902264Y-46159755D01*
X163930841Y-46162004D01*
X164125282Y-46177307D01*
X164125291Y-46177307D01*
X164127739Y-46177500D01*
X164283271Y-46177500D01*
X164285407Y-46177354D01*
X164285418Y-46177354D01*
X164493548Y-46163165D01*
X164493554Y-46163164D01*
X164497825Y-46162873D01*
X164502020Y-46162004D01*
X164502022Y-46162004D01*
X164638583Y-46133724D01*
X164779342Y-46104574D01*
X165050343Y-46008607D01*
X165305812Y-45876750D01*
X165309313Y-45874289D01*
X165309317Y-45874287D01*
X165423418Y-45794095D01*
X165541023Y-45711441D01*
X165751622Y-45515740D01*
X165933713Y-45293268D01*
X166083927Y-45048142D01*
X166199483Y-44784898D01*
X166278244Y-44508406D01*
X166318751Y-44223784D01*
X166318845Y-44205951D01*
X166320235Y-43940583D01*
X166320235Y-43940576D01*
X166320257Y-43936297D01*
X166282732Y-43651266D01*
X166206871Y-43373964D01*
X166190353Y-43335238D01*
X166095763Y-43113476D01*
X166095761Y-43113472D01*
X166094077Y-43109524D01*
X165946439Y-42862839D01*
X165766687Y-42638472D01*
X165558149Y-42440577D01*
X165324683Y-42272814D01*
X165302843Y-42261250D01*
X165279654Y-42248972D01*
X165070608Y-42138288D01*
X164800627Y-42039489D01*
X164519736Y-41978245D01*
X164488685Y-41975801D01*
X164296718Y-41960693D01*
X164296709Y-41960693D01*
X164294261Y-41960500D01*
X164138729Y-41960500D01*
X164136593Y-41960646D01*
X164136582Y-41960646D01*
X163928452Y-41974835D01*
X163928446Y-41974836D01*
X163924175Y-41975127D01*
X163919980Y-41975996D01*
X163919978Y-41975996D01*
X163783416Y-42004277D01*
X163642658Y-42033426D01*
X163371657Y-42129393D01*
X163116188Y-42261250D01*
X163112687Y-42263711D01*
X163112683Y-42263713D01*
X163102594Y-42270804D01*
X162880977Y-42426559D01*
X162865892Y-42440577D01*
X162713248Y-42582423D01*
X162670378Y-42622260D01*
X162488287Y-42844732D01*
X162338073Y-43089858D01*
X162222517Y-43353102D01*
X162221342Y-43357229D01*
X162221341Y-43357230D01*
X162207166Y-43406991D01*
X162143756Y-43629594D01*
X162103249Y-43914216D01*
X162103227Y-43918505D01*
X162103226Y-43918512D01*
X162101765Y-44197417D01*
X162101743Y-44201703D01*
X107136867Y-44201703D01*
X107138235Y-43940583D01*
X107138235Y-43940576D01*
X107138257Y-43936297D01*
X107100732Y-43651266D01*
X107024871Y-43373964D01*
X107008353Y-43335238D01*
X106913763Y-43113476D01*
X106913761Y-43113472D01*
X106912077Y-43109524D01*
X106764439Y-42862839D01*
X106584687Y-42638472D01*
X106376149Y-42440577D01*
X106142683Y-42272814D01*
X106120843Y-42261250D01*
X106097654Y-42248972D01*
X105888608Y-42138288D01*
X105618627Y-42039489D01*
X105337736Y-41978245D01*
X105306685Y-41975801D01*
X105114718Y-41960693D01*
X105114709Y-41960693D01*
X105112261Y-41960500D01*
X104956729Y-41960500D01*
X104954593Y-41960646D01*
X104954582Y-41960646D01*
X104746452Y-41974835D01*
X104746446Y-41974836D01*
X104742175Y-41975127D01*
X104737980Y-41975996D01*
X104737978Y-41975996D01*
X104601416Y-42004277D01*
X104460658Y-42033426D01*
X104189657Y-42129393D01*
X103934188Y-42261250D01*
X103930687Y-42263711D01*
X103930683Y-42263713D01*
X103920594Y-42270804D01*
X103698977Y-42426559D01*
X103683892Y-42440577D01*
X103531248Y-42582423D01*
X103488378Y-42622260D01*
X103306287Y-42844732D01*
X103156073Y-43089858D01*
X103040517Y-43353102D01*
X103039342Y-43357229D01*
X103039341Y-43357230D01*
X103025166Y-43406991D01*
X102961756Y-43629594D01*
X102921249Y-43914216D01*
X102921227Y-43918505D01*
X102921226Y-43918512D01*
X102919765Y-44197417D01*
X102919743Y-44201703D01*
X102104761Y-44201703D01*
X102104761Y-43733633D01*
X102106262Y-43714245D01*
X102108571Y-43699421D01*
X102108571Y-43699412D01*
X102109952Y-43690544D01*
X102107599Y-43672548D01*
X102106733Y-43649148D01*
X102107143Y-43641861D01*
X102120336Y-43406991D01*
X102121917Y-43392961D01*
X102167257Y-43126129D01*
X102170393Y-43112392D01*
X102245318Y-42852329D01*
X102249983Y-42838996D01*
X102353554Y-42588957D01*
X102359685Y-42576227D01*
X102490591Y-42339373D01*
X102498108Y-42327409D01*
X102545050Y-42261250D01*
X102654723Y-42106681D01*
X102663521Y-42095650D01*
X102843861Y-41893850D01*
X102853851Y-41883860D01*
X103055650Y-41703521D01*
X103066681Y-41694723D01*
X103287409Y-41538108D01*
X103299373Y-41530591D01*
X103536227Y-41399685D01*
X103548957Y-41393554D01*
X103798996Y-41289983D01*
X103812329Y-41285318D01*
X104072392Y-41210393D01*
X104086129Y-41207257D01*
X104352961Y-41161917D01*
X104366992Y-41160336D01*
X104601861Y-41147143D01*
X104628309Y-41148445D01*
X104629115Y-41148570D01*
X104629116Y-41148570D01*
X104637992Y-41149952D01*
X104669549Y-41145825D01*
X104685888Y-41144761D01*
X164546367Y-41144761D01*
X164565755Y-41146262D01*
G37*
%TD.AperFunction*%
%TD*%
%TA.AperFunction,NonConductor*%
G36*
X102465417Y-40660002D02*
G01*
X102511910Y-40713658D01*
X102522014Y-40783932D01*
X102492520Y-40848512D01*
X102472357Y-40867202D01*
X102385330Y-40931746D01*
X102126414Y-41166414D01*
X101891746Y-41425330D01*
X101827204Y-41512355D01*
X101770558Y-41555154D01*
X101699766Y-41560535D01*
X101637303Y-41526788D01*
X101603000Y-41464628D01*
X101600000Y-41437296D01*
X101600000Y-40766000D01*
X101620002Y-40697879D01*
X101673658Y-40651386D01*
X101726000Y-40640000D01*
X102397296Y-40640000D01*
X102465417Y-40660002D01*
G37*
%TD.AperFunction*%
%TA.AperFunction,NonConductor*%
G36*
X167582121Y-40660002D02*
G01*
X167628614Y-40713658D01*
X167640000Y-40766000D01*
X167640000Y-41437296D01*
X167619998Y-41505417D01*
X167566342Y-41551910D01*
X167496068Y-41562014D01*
X167431488Y-41532520D01*
X167412796Y-41512355D01*
X167348254Y-41425330D01*
X167113586Y-41166414D01*
X166854670Y-40931746D01*
X166767644Y-40867203D01*
X166724846Y-40810558D01*
X166719465Y-40739766D01*
X166753212Y-40677303D01*
X166815372Y-40643000D01*
X166842704Y-40640000D01*
X167514000Y-40640000D01*
X167582121Y-40660002D01*
G37*
%TD.AperFunction*%
%TA.AperFunction,NonConductor*%
G36*
X152555488Y-46756502D02*
G01*
X152576462Y-46773405D01*
X153835653Y-48032596D01*
X153869679Y-48094908D01*
X153864614Y-48165723D01*
X153822067Y-48222559D01*
X153792942Y-48238843D01*
X153713495Y-48270298D01*
X153713490Y-48270300D01*
X153709821Y-48271753D01*
X153706353Y-48273659D01*
X153706352Y-48273660D01*
X153472644Y-48402143D01*
X153433221Y-48423816D01*
X153244638Y-48560829D01*
X153214098Y-48583018D01*
X153177860Y-48609346D01*
X152986999Y-48788577D01*
X152976216Y-48798703D01*
X152947767Y-48825418D01*
X152945243Y-48828469D01*
X152945242Y-48828470D01*
X152913384Y-48866980D01*
X152746568Y-49068625D01*
X152577438Y-49335131D01*
X152575754Y-49338710D01*
X152575750Y-49338717D01*
X152521487Y-49454033D01*
X152474384Y-49507154D01*
X152406040Y-49526377D01*
X152338152Y-49505598D01*
X152292275Y-49451415D01*
X152281728Y-49392473D01*
X152293211Y-49209957D01*
X152293460Y-49206000D01*
X152273641Y-48890980D01*
X152214495Y-48580928D01*
X152116956Y-48280734D01*
X152115267Y-48277144D01*
X151984250Y-47998717D01*
X151984246Y-47998710D01*
X151982562Y-47995131D01*
X151813432Y-47728625D01*
X151612233Y-47485418D01*
X151591859Y-47466285D01*
X151519649Y-47398476D01*
X151382140Y-47269346D01*
X151345903Y-47243018D01*
X151285314Y-47198998D01*
X151126779Y-47083816D01*
X150925048Y-46972913D01*
X150874991Y-46922569D01*
X150860098Y-46853152D01*
X150885099Y-46786703D01*
X150942056Y-46744319D01*
X150985751Y-46736500D01*
X152487367Y-46736500D01*
X152555488Y-46756502D01*
G37*
%TD.AperFunction*%
%TA.AperFunction,NonConductor*%
G36*
X161041488Y-55115502D02*
G01*
X161062462Y-55132405D01*
X162014595Y-56084538D01*
X162048621Y-56146850D01*
X162051500Y-56173633D01*
X162051500Y-57670066D01*
X162031498Y-57738187D01*
X161977842Y-57784680D01*
X161907568Y-57794784D01*
X161842988Y-57765290D01*
X161819115Y-57737580D01*
X161818256Y-57736226D01*
X161813432Y-57728625D01*
X161612233Y-57485418D01*
X161583785Y-57458703D01*
X161435941Y-57319869D01*
X161382140Y-57269346D01*
X161345903Y-57243018D01*
X161326369Y-57228826D01*
X161126779Y-57083816D01*
X161087357Y-57062143D01*
X160853648Y-56933660D01*
X160853647Y-56933659D01*
X160850179Y-56931753D01*
X160846510Y-56930300D01*
X160846505Y-56930298D01*
X160560372Y-56817010D01*
X160560371Y-56817010D01*
X160556702Y-56815557D01*
X160250975Y-56737060D01*
X159937821Y-56697500D01*
X159622179Y-56697500D01*
X159618248Y-56697997D01*
X159614302Y-56698245D01*
X159614232Y-56697135D01*
X159548901Y-56686602D01*
X159496046Y-56639201D01*
X159477209Y-56570749D01*
X159498370Y-56502979D01*
X159542490Y-56462484D01*
X159783307Y-56330093D01*
X159783310Y-56330091D01*
X159786779Y-56328184D01*
X160042140Y-56142654D01*
X160247288Y-55950007D01*
X160269342Y-55929297D01*
X160269343Y-55929296D01*
X160272233Y-55926582D01*
X160294613Y-55899530D01*
X160432373Y-55733007D01*
X160473432Y-55683375D01*
X160642562Y-55416869D01*
X160644246Y-55413290D01*
X160644250Y-55413283D01*
X160759740Y-55167852D01*
X160806842Y-55114731D01*
X160873748Y-55095500D01*
X160973367Y-55095500D01*
X161041488Y-55115502D01*
G37*
%TD.AperFunction*%
%TA.AperFunction,NonConductor*%
G36*
X107766373Y-55091502D02*
G01*
X107812260Y-55143852D01*
X107927750Y-55389283D01*
X107927754Y-55389290D01*
X107929438Y-55392869D01*
X107931562Y-55396215D01*
X107931562Y-55396216D01*
X107941293Y-55411550D01*
X108098568Y-55659375D01*
X108299767Y-55902582D01*
X108302657Y-55905296D01*
X108302658Y-55905297D01*
X108332507Y-55933327D01*
X108529860Y-56118654D01*
X108533062Y-56120981D01*
X108533064Y-56120982D01*
X108568669Y-56146850D01*
X108785221Y-56304184D01*
X108788690Y-56306091D01*
X108788693Y-56306093D01*
X109029510Y-56438484D01*
X109079569Y-56488829D01*
X109094462Y-56558246D01*
X109069461Y-56624695D01*
X109012504Y-56667079D01*
X108957754Y-56673359D01*
X108957698Y-56674245D01*
X108953752Y-56673997D01*
X108949821Y-56673500D01*
X108634179Y-56673500D01*
X108321025Y-56713060D01*
X108015298Y-56791557D01*
X108011629Y-56793010D01*
X108011628Y-56793010D01*
X107725495Y-56906298D01*
X107725490Y-56906300D01*
X107721821Y-56907753D01*
X107718353Y-56909659D01*
X107718352Y-56909660D01*
X107674697Y-56933660D01*
X107445221Y-57059816D01*
X107189860Y-57245346D01*
X106959767Y-57461418D01*
X106957243Y-57464469D01*
X106957242Y-57464470D01*
X106931655Y-57495399D01*
X106758568Y-57704625D01*
X106589438Y-57971131D01*
X106587754Y-57974710D01*
X106587750Y-57974717D01*
X106482379Y-58198643D01*
X106455044Y-58256734D01*
X106357505Y-58556928D01*
X106298359Y-58866980D01*
X106278540Y-59182000D01*
X106298359Y-59497020D01*
X106299103Y-59500918D01*
X106299598Y-59504840D01*
X106297760Y-59505072D01*
X106291530Y-59568346D01*
X106263789Y-59610268D01*
X105752595Y-60121462D01*
X105690283Y-60155488D01*
X105619468Y-60150423D01*
X105562632Y-60107876D01*
X105537821Y-60041356D01*
X105537500Y-60032367D01*
X105537500Y-56300633D01*
X105557502Y-56232512D01*
X105574405Y-56211538D01*
X106677538Y-55108405D01*
X106739850Y-55074379D01*
X106766633Y-55071500D01*
X107698252Y-55071500D01*
X107766373Y-55091502D01*
G37*
%TD.AperFunction*%
%TA.AperFunction,NonConductor*%
G36*
X138743079Y-55091502D02*
G01*
X138788966Y-55143852D01*
X138915750Y-55413283D01*
X138915754Y-55413290D01*
X138917438Y-55416869D01*
X139086568Y-55683375D01*
X139127627Y-55733007D01*
X139265388Y-55899530D01*
X139287767Y-55926582D01*
X139290657Y-55929296D01*
X139290658Y-55929297D01*
X139312712Y-55950007D01*
X139517860Y-56142654D01*
X139773221Y-56328184D01*
X139776690Y-56330091D01*
X139776693Y-56330093D01*
X140017510Y-56462484D01*
X140067569Y-56512829D01*
X140082462Y-56582246D01*
X140057461Y-56648695D01*
X140000504Y-56691079D01*
X139945754Y-56697359D01*
X139945698Y-56698245D01*
X139941752Y-56697997D01*
X139937821Y-56697500D01*
X139622179Y-56697500D01*
X139309025Y-56737060D01*
X139003298Y-56815557D01*
X138999629Y-56817010D01*
X138999628Y-56817010D01*
X138713495Y-56930298D01*
X138713490Y-56930300D01*
X138709821Y-56931753D01*
X138706353Y-56933659D01*
X138706352Y-56933660D01*
X138472644Y-57062143D01*
X138433221Y-57083816D01*
X138233631Y-57228826D01*
X138214098Y-57243018D01*
X138177860Y-57269346D01*
X138124059Y-57319869D01*
X137976216Y-57458703D01*
X137947767Y-57485418D01*
X137746568Y-57728625D01*
X137577438Y-57995131D01*
X137575754Y-57998710D01*
X137575750Y-57998717D01*
X137444733Y-58277144D01*
X137443044Y-58280734D01*
X137441818Y-58284506D01*
X137441818Y-58284507D01*
X137421511Y-58347006D01*
X137345505Y-58580928D01*
X137286359Y-58890980D01*
X137266540Y-59206000D01*
X137286359Y-59521020D01*
X137345505Y-59831072D01*
X137443044Y-60131266D01*
X137444731Y-60134852D01*
X137444733Y-60134856D01*
X137575750Y-60413283D01*
X137575754Y-60413290D01*
X137577438Y-60416869D01*
X137746568Y-60683375D01*
X137749093Y-60686427D01*
X137925388Y-60899530D01*
X137947767Y-60926582D01*
X138177860Y-61142654D01*
X138433221Y-61328184D01*
X138436690Y-61330091D01*
X138436693Y-61330093D01*
X138702323Y-61476125D01*
X138709821Y-61480247D01*
X138713490Y-61481700D01*
X138713495Y-61481702D01*
X138970726Y-61583547D01*
X139003298Y-61596443D01*
X139309025Y-61674940D01*
X139622179Y-61714500D01*
X139937821Y-61714500D01*
X139941752Y-61714003D01*
X139945698Y-61713755D01*
X139945768Y-61714865D01*
X140011099Y-61725398D01*
X140063954Y-61772799D01*
X140082791Y-61841251D01*
X140061630Y-61909021D01*
X140017510Y-61949516D01*
X139792497Y-62073219D01*
X139773221Y-62083816D01*
X139647316Y-62175291D01*
X139554098Y-62243018D01*
X139517860Y-62269346D01*
X139396078Y-62383707D01*
X139292045Y-62481401D01*
X139287767Y-62485418D01*
X139086568Y-62728625D01*
X138917438Y-62995131D01*
X138915754Y-62998710D01*
X138915750Y-62998717D01*
X138800260Y-63244148D01*
X138753158Y-63297269D01*
X138686252Y-63316500D01*
X138286633Y-63316500D01*
X138218512Y-63296498D01*
X138197538Y-63279595D01*
X133527489Y-58609546D01*
X133514652Y-58594518D01*
X133506669Y-58583530D01*
X133485036Y-58564051D01*
X133456937Y-58538751D01*
X133452153Y-58534210D01*
X133438006Y-58520063D01*
X133422446Y-58507463D01*
X133417425Y-58503175D01*
X133372619Y-58462830D01*
X133372615Y-58462827D01*
X133367715Y-58458415D01*
X133362005Y-58455119D01*
X133362002Y-58455116D01*
X133355955Y-58451625D01*
X133339670Y-58440432D01*
X133329125Y-58431893D01*
X133269520Y-58401523D01*
X133263724Y-58398376D01*
X133257975Y-58395057D01*
X133205785Y-58364925D01*
X133192875Y-58360730D01*
X133174616Y-58353167D01*
X133162524Y-58347006D01*
X133097906Y-58329691D01*
X133091582Y-58327818D01*
X133082981Y-58325023D01*
X133027956Y-58307145D01*
X133021389Y-58306455D01*
X133021385Y-58306454D01*
X133015712Y-58305858D01*
X133014470Y-58305728D01*
X132995028Y-58302125D01*
X132981915Y-58298611D01*
X132975318Y-58298265D01*
X132975316Y-58298265D01*
X132915113Y-58295110D01*
X132908539Y-58294593D01*
X132891895Y-58292844D01*
X132891891Y-58292844D01*
X132888620Y-58292500D01*
X132868593Y-58292500D01*
X132861999Y-58292327D01*
X132801782Y-58289171D01*
X132801778Y-58289171D01*
X132795190Y-58288826D01*
X132788675Y-58289858D01*
X132788673Y-58289858D01*
X132781786Y-58290949D01*
X132762075Y-58292500D01*
X131225748Y-58292500D01*
X131157627Y-58272498D01*
X131111740Y-58220148D01*
X130996250Y-57974717D01*
X130996246Y-57974710D01*
X130994562Y-57971131D01*
X130825432Y-57704625D01*
X130652345Y-57495399D01*
X130626758Y-57464470D01*
X130626757Y-57464469D01*
X130624233Y-57461418D01*
X130394140Y-57245346D01*
X130138779Y-57059816D01*
X129909304Y-56933660D01*
X129865648Y-56909660D01*
X129865647Y-56909659D01*
X129862179Y-56907753D01*
X129858510Y-56906300D01*
X129858505Y-56906298D01*
X129572372Y-56793010D01*
X129572371Y-56793010D01*
X129568702Y-56791557D01*
X129262975Y-56713060D01*
X128949821Y-56673500D01*
X128634179Y-56673500D01*
X128630248Y-56673997D01*
X128626302Y-56674245D01*
X128626232Y-56673135D01*
X128560901Y-56662602D01*
X128508046Y-56615201D01*
X128489209Y-56546749D01*
X128510370Y-56478979D01*
X128554490Y-56438484D01*
X128795307Y-56306093D01*
X128795310Y-56306091D01*
X128798779Y-56304184D01*
X129015331Y-56146850D01*
X129050936Y-56120982D01*
X129050938Y-56120981D01*
X129054140Y-56118654D01*
X129251493Y-55933327D01*
X129281342Y-55905297D01*
X129281343Y-55905296D01*
X129284233Y-55902582D01*
X129485432Y-55659375D01*
X129642707Y-55411550D01*
X129652438Y-55396216D01*
X129652438Y-55396215D01*
X129654562Y-55392869D01*
X129656246Y-55389290D01*
X129656250Y-55389283D01*
X129771740Y-55143852D01*
X129818842Y-55090731D01*
X129885748Y-55071500D01*
X138674958Y-55071500D01*
X138743079Y-55091502D01*
G37*
%TD.AperFunction*%
%TA.AperFunction,NonConductor*%
G36*
X114825601Y-57512161D02*
G01*
X116302632Y-58364925D01*
X122033008Y-61673359D01*
X122298401Y-61826584D01*
X122347394Y-61877966D01*
X122360830Y-61947680D01*
X122334771Y-62013173D01*
X122237547Y-62137878D01*
X122230700Y-62146660D01*
X122223128Y-62155497D01*
X121946931Y-62449255D01*
X121938576Y-62457357D01*
X121636450Y-62724379D01*
X121627387Y-62731673D01*
X121404105Y-62894950D01*
X121301895Y-62969692D01*
X121292193Y-62976120D01*
X120946152Y-63183077D01*
X120935899Y-63188583D01*
X120572233Y-63362731D01*
X120561515Y-63367267D01*
X120183322Y-63507121D01*
X120172240Y-63510647D01*
X119895389Y-63584829D01*
X119782751Y-63615010D01*
X119771383Y-63617499D01*
X119682903Y-63632633D01*
X119373943Y-63685477D01*
X119362411Y-63686906D01*
X119089680Y-63707948D01*
X118960370Y-63717924D01*
X118948738Y-63718282D01*
X118725417Y-63714843D01*
X118545576Y-63712073D01*
X118533964Y-63711357D01*
X118516934Y-63709514D01*
X118133070Y-63667972D01*
X118121579Y-63666188D01*
X117726430Y-63586005D01*
X117715141Y-63583167D01*
X117628039Y-63556928D01*
X117329042Y-63466856D01*
X117318095Y-63462999D01*
X116944371Y-63311558D01*
X116933800Y-63306693D01*
X116575674Y-63121432D01*
X116565595Y-63115613D01*
X116226089Y-62898097D01*
X116216589Y-62891373D01*
X115898590Y-62643449D01*
X115889752Y-62635877D01*
X115595988Y-62359673D01*
X115587887Y-62351318D01*
X115320865Y-62049194D01*
X115313568Y-62040126D01*
X115075561Y-61714649D01*
X115069133Y-61704948D01*
X114862170Y-61358897D01*
X114856664Y-61348643D01*
X114745232Y-61115943D01*
X114682512Y-60984967D01*
X114677990Y-60974286D01*
X114538124Y-60596059D01*
X114534603Y-60584990D01*
X114430240Y-60195499D01*
X114427751Y-60184131D01*
X114408486Y-60071500D01*
X114359773Y-59786692D01*
X114358343Y-59775151D01*
X114327326Y-59373118D01*
X114326968Y-59361486D01*
X114333177Y-58958328D01*
X114333893Y-58946712D01*
X114373674Y-58579115D01*
X114377278Y-58545818D01*
X114379063Y-58534321D01*
X114381483Y-58522398D01*
X114459246Y-58139176D01*
X114462084Y-58127889D01*
X114473102Y-58091314D01*
X114578395Y-57741790D01*
X114582255Y-57730836D01*
X114645825Y-57573959D01*
X114689946Y-57518337D01*
X114757134Y-57495399D01*
X114825601Y-57512161D01*
G37*
%TD.AperFunction*%
%TA.AperFunction,NonConductor*%
G36*
X121233848Y-50222402D02*
G01*
X121279725Y-50276585D01*
X121290272Y-50335526D01*
X121278540Y-50522000D01*
X121298359Y-50837020D01*
X121357505Y-51147072D01*
X121455044Y-51447266D01*
X121456731Y-51450852D01*
X121456733Y-51450856D01*
X121587750Y-51729283D01*
X121587754Y-51729290D01*
X121589438Y-51732869D01*
X121758568Y-51999375D01*
X121959767Y-52242582D01*
X121962657Y-52245296D01*
X121962658Y-52245297D01*
X121988268Y-52269346D01*
X122189860Y-52458654D01*
X122193062Y-52460981D01*
X122193064Y-52460982D01*
X122226698Y-52485418D01*
X122445221Y-52644184D01*
X122448690Y-52646091D01*
X122448693Y-52646093D01*
X122718352Y-52794340D01*
X122721821Y-52796247D01*
X122725490Y-52797700D01*
X122725495Y-52797702D01*
X123011628Y-52910990D01*
X123015298Y-52912443D01*
X123321025Y-52990940D01*
X123634179Y-53030500D01*
X123949821Y-53030500D01*
X124262975Y-52990940D01*
X124568702Y-52912443D01*
X124572372Y-52910990D01*
X124858505Y-52797702D01*
X124858510Y-52797700D01*
X124862179Y-52796247D01*
X124865648Y-52794340D01*
X125135307Y-52646093D01*
X125135310Y-52646091D01*
X125138779Y-52644184D01*
X125141977Y-52641861D01*
X125141981Y-52641858D01*
X125179575Y-52614544D01*
X125194750Y-52603518D01*
X125261616Y-52579661D01*
X125330768Y-52595741D01*
X125380248Y-52646654D01*
X125394348Y-52716237D01*
X125375195Y-52772969D01*
X125286060Y-52913424D01*
X125249438Y-52971131D01*
X125247754Y-52974710D01*
X125247750Y-52974717D01*
X125132260Y-53220148D01*
X125115044Y-53256734D01*
X125017505Y-53556928D01*
X124958359Y-53866980D01*
X124938540Y-54182000D01*
X124958359Y-54497020D01*
X125017505Y-54807072D01*
X125115044Y-55107266D01*
X125116731Y-55110852D01*
X125116733Y-55110856D01*
X125247750Y-55389283D01*
X125247754Y-55389290D01*
X125249438Y-55392869D01*
X125251562Y-55396215D01*
X125251562Y-55396216D01*
X125261293Y-55411550D01*
X125418568Y-55659375D01*
X125619767Y-55902582D01*
X125622657Y-55905296D01*
X125622658Y-55905297D01*
X125652507Y-55933327D01*
X125849860Y-56118654D01*
X125853062Y-56120981D01*
X125853064Y-56120982D01*
X125888669Y-56146850D01*
X126105221Y-56304184D01*
X126108690Y-56306091D01*
X126108693Y-56306093D01*
X126346327Y-56436734D01*
X126381821Y-56456247D01*
X126385490Y-56457700D01*
X126385495Y-56457702D01*
X126671019Y-56570749D01*
X126675298Y-56572443D01*
X126981025Y-56650940D01*
X127294179Y-56690500D01*
X127609821Y-56690500D01*
X127613752Y-56690003D01*
X127617698Y-56689755D01*
X127617768Y-56690865D01*
X127683099Y-56701398D01*
X127735954Y-56748799D01*
X127754791Y-56817251D01*
X127733630Y-56885021D01*
X127689510Y-56925516D01*
X127645855Y-56949516D01*
X127445221Y-57059816D01*
X127189860Y-57245346D01*
X126959767Y-57461418D01*
X126957243Y-57464469D01*
X126957242Y-57464470D01*
X126931655Y-57495399D01*
X126758568Y-57704625D01*
X126589438Y-57971131D01*
X126587754Y-57974710D01*
X126587750Y-57974717D01*
X126482379Y-58198643D01*
X126455044Y-58256734D01*
X126357505Y-58556928D01*
X126298359Y-58866980D01*
X126278540Y-59182000D01*
X126298359Y-59497020D01*
X126357505Y-59807072D01*
X126358732Y-59810848D01*
X126433629Y-60041356D01*
X126455044Y-60107266D01*
X126456731Y-60110852D01*
X126456733Y-60110856D01*
X126587750Y-60389283D01*
X126587754Y-60389290D01*
X126589438Y-60392869D01*
X126758568Y-60659375D01*
X126959767Y-60902582D01*
X126962657Y-60905296D01*
X126962658Y-60905297D01*
X126998999Y-60939423D01*
X127189860Y-61118654D01*
X127193062Y-61120981D01*
X127193064Y-61120982D01*
X127237023Y-61152920D01*
X127445221Y-61304184D01*
X127448690Y-61306091D01*
X127448693Y-61306093D01*
X127689510Y-61438484D01*
X127739569Y-61488829D01*
X127754462Y-61558246D01*
X127729461Y-61624695D01*
X127672504Y-61667079D01*
X127617754Y-61673359D01*
X127617698Y-61674245D01*
X127613752Y-61673997D01*
X127609821Y-61673500D01*
X127294179Y-61673500D01*
X126981025Y-61713060D01*
X126675298Y-61791557D01*
X126671629Y-61793010D01*
X126671628Y-61793010D01*
X126385495Y-61906298D01*
X126385490Y-61906300D01*
X126381821Y-61907753D01*
X126378353Y-61909659D01*
X126378352Y-61909660D01*
X126141037Y-62040126D01*
X126105221Y-62059816D01*
X125849860Y-62245346D01*
X125658999Y-62424577D01*
X125624092Y-62457357D01*
X125619767Y-62461418D01*
X125617243Y-62464469D01*
X125617242Y-62464470D01*
X125519167Y-62583022D01*
X125418568Y-62704625D01*
X125249438Y-62971131D01*
X125247754Y-62974710D01*
X125247750Y-62974717D01*
X125139481Y-63204802D01*
X125115044Y-63256734D01*
X125113818Y-63260506D01*
X125113818Y-63260507D01*
X125090132Y-63333406D01*
X125017505Y-63556928D01*
X124958359Y-63866980D01*
X124938540Y-64182000D01*
X124958359Y-64497020D01*
X125017505Y-64807072D01*
X125055877Y-64925170D01*
X125106463Y-65080855D01*
X125115044Y-65107266D01*
X125116731Y-65110852D01*
X125116733Y-65110856D01*
X125247750Y-65389283D01*
X125247754Y-65389290D01*
X125249438Y-65392869D01*
X125251562Y-65396215D01*
X125251562Y-65396216D01*
X125375195Y-65591031D01*
X125394808Y-65659265D01*
X125374417Y-65727270D01*
X125320497Y-65773456D01*
X125250166Y-65783158D01*
X125194751Y-65760482D01*
X125141982Y-65722143D01*
X125141981Y-65722142D01*
X125141977Y-65722139D01*
X125138779Y-65719816D01*
X125134287Y-65717346D01*
X124865648Y-65569660D01*
X124865647Y-65569659D01*
X124862179Y-65567753D01*
X124858510Y-65566300D01*
X124858505Y-65566298D01*
X124572372Y-65453010D01*
X124572371Y-65453010D01*
X124568702Y-65451557D01*
X124262975Y-65373060D01*
X123949821Y-65333500D01*
X123634179Y-65333500D01*
X123321025Y-65373060D01*
X123015298Y-65451557D01*
X123011629Y-65453010D01*
X123011628Y-65453010D01*
X122725495Y-65566298D01*
X122725490Y-65566300D01*
X122721821Y-65567753D01*
X122718353Y-65569659D01*
X122718352Y-65569660D01*
X122449714Y-65717346D01*
X122445221Y-65719816D01*
X122189860Y-65905346D01*
X121959767Y-66121418D01*
X121957243Y-66124469D01*
X121957242Y-66124470D01*
X121861948Y-66239661D01*
X121758568Y-66364625D01*
X121589438Y-66631131D01*
X121587754Y-66634710D01*
X121587750Y-66634717D01*
X121456733Y-66913144D01*
X121455044Y-66916734D01*
X121453818Y-66920506D01*
X121453818Y-66920507D01*
X121446020Y-66944507D01*
X121357505Y-67216928D01*
X121298359Y-67526980D01*
X121278540Y-67842000D01*
X121289966Y-68023604D01*
X121290272Y-68028473D01*
X121274587Y-68097716D01*
X121223957Y-68147486D01*
X121154456Y-68161982D01*
X121088151Y-68136603D01*
X121050513Y-68090033D01*
X120996250Y-67974717D01*
X120996246Y-67974710D01*
X120994562Y-67971131D01*
X120825432Y-67704625D01*
X120689658Y-67540503D01*
X120626758Y-67464470D01*
X120626757Y-67464469D01*
X120624233Y-67461418D01*
X120394140Y-67245346D01*
X120138779Y-67059816D01*
X120122529Y-67050882D01*
X119865648Y-66909660D01*
X119865647Y-66909659D01*
X119862179Y-66907753D01*
X119858510Y-66906300D01*
X119858505Y-66906298D01*
X119572372Y-66793010D01*
X119572371Y-66793010D01*
X119568702Y-66791557D01*
X119262975Y-66713060D01*
X118949821Y-66673500D01*
X118634179Y-66673500D01*
X118321025Y-66713060D01*
X118015298Y-66791557D01*
X118011629Y-66793010D01*
X118011628Y-66793010D01*
X117725495Y-66906298D01*
X117725490Y-66906300D01*
X117721821Y-66907753D01*
X117718353Y-66909659D01*
X117718352Y-66909660D01*
X117461472Y-67050882D01*
X117445221Y-67059816D01*
X117189860Y-67245346D01*
X116959767Y-67461418D01*
X116957243Y-67464469D01*
X116957242Y-67464470D01*
X116894342Y-67540503D01*
X116758568Y-67704625D01*
X116589438Y-67971131D01*
X116587754Y-67974710D01*
X116587750Y-67974717D01*
X116533487Y-68090033D01*
X116486384Y-68143154D01*
X116418040Y-68162377D01*
X116350152Y-68141598D01*
X116304275Y-68087415D01*
X116293728Y-68028473D01*
X116294035Y-68023604D01*
X116305460Y-67842000D01*
X116285641Y-67526980D01*
X116226495Y-67216928D01*
X116137980Y-66944507D01*
X116130182Y-66920507D01*
X116130182Y-66920506D01*
X116128956Y-66916734D01*
X116127267Y-66913144D01*
X115996250Y-66634717D01*
X115996246Y-66634710D01*
X115994562Y-66631131D01*
X115825432Y-66364625D01*
X115722052Y-66239661D01*
X115626758Y-66124470D01*
X115626757Y-66124469D01*
X115624233Y-66121418D01*
X115394140Y-65905346D01*
X115138779Y-65719816D01*
X115134287Y-65717346D01*
X114865648Y-65569660D01*
X114865647Y-65569659D01*
X114862179Y-65567753D01*
X114858510Y-65566300D01*
X114858505Y-65566298D01*
X114572372Y-65453010D01*
X114572371Y-65453010D01*
X114568702Y-65451557D01*
X114262975Y-65373060D01*
X113949821Y-65333500D01*
X113634179Y-65333500D01*
X113321025Y-65373060D01*
X113015298Y-65451557D01*
X113011629Y-65453010D01*
X113011628Y-65453010D01*
X112725495Y-65566298D01*
X112725490Y-65566300D01*
X112721821Y-65567753D01*
X112718353Y-65569659D01*
X112718352Y-65569660D01*
X112449714Y-65717346D01*
X112445221Y-65719816D01*
X112442023Y-65722139D01*
X112442019Y-65722142D01*
X112442018Y-65722143D01*
X112389250Y-65760482D01*
X112322384Y-65784339D01*
X112253232Y-65768259D01*
X112203752Y-65717346D01*
X112189652Y-65647763D01*
X112208805Y-65591031D01*
X112332438Y-65396216D01*
X112332438Y-65396215D01*
X112334562Y-65392869D01*
X112336246Y-65389290D01*
X112336250Y-65389283D01*
X112467267Y-65110856D01*
X112467269Y-65110852D01*
X112468956Y-65107266D01*
X112477538Y-65080855D01*
X112528123Y-64925170D01*
X112566495Y-64807072D01*
X112625641Y-64497020D01*
X112645460Y-64182000D01*
X112625641Y-63866980D01*
X112566495Y-63556928D01*
X112493868Y-63333406D01*
X112470182Y-63260507D01*
X112470182Y-63260506D01*
X112468956Y-63256734D01*
X112444519Y-63204802D01*
X112336250Y-62974717D01*
X112336246Y-62974710D01*
X112334562Y-62971131D01*
X112165432Y-62704625D01*
X112064833Y-62583022D01*
X111966758Y-62464470D01*
X111966757Y-62464469D01*
X111964233Y-62461418D01*
X111959909Y-62457357D01*
X111925001Y-62424577D01*
X111734140Y-62245346D01*
X111478779Y-62059816D01*
X111442964Y-62040126D01*
X111205648Y-61909660D01*
X111205647Y-61909659D01*
X111202179Y-61907753D01*
X111198510Y-61906300D01*
X111198505Y-61906298D01*
X110912372Y-61793010D01*
X110912371Y-61793010D01*
X110908702Y-61791557D01*
X110602975Y-61713060D01*
X110289821Y-61673500D01*
X109974179Y-61673500D01*
X109970248Y-61673997D01*
X109966302Y-61674245D01*
X109966232Y-61673135D01*
X109900901Y-61662602D01*
X109848046Y-61615201D01*
X109829209Y-61546749D01*
X109850370Y-61478979D01*
X109894490Y-61438484D01*
X110135307Y-61306093D01*
X110135310Y-61306091D01*
X110138779Y-61304184D01*
X110346977Y-61152920D01*
X110390936Y-61120982D01*
X110390938Y-61120981D01*
X110394140Y-61118654D01*
X110585001Y-60939423D01*
X110621342Y-60905297D01*
X110621343Y-60905296D01*
X110624233Y-60902582D01*
X110825432Y-60659375D01*
X110994562Y-60392869D01*
X110996246Y-60389290D01*
X110996250Y-60389283D01*
X111127267Y-60110856D01*
X111127269Y-60110852D01*
X111128956Y-60107266D01*
X111150372Y-60041356D01*
X111225268Y-59810848D01*
X111226495Y-59807072D01*
X111285641Y-59497020D01*
X111305460Y-59182000D01*
X111298859Y-59077085D01*
X113305131Y-59077085D01*
X113305167Y-59079687D01*
X113311303Y-59524918D01*
X113311410Y-59532709D01*
X113311659Y-59535286D01*
X113311660Y-59535298D01*
X113355041Y-59983667D01*
X113355292Y-59986257D01*
X113436477Y-60434634D01*
X113554412Y-60874774D01*
X113555291Y-60877224D01*
X113704263Y-61292444D01*
X113708291Y-61303672D01*
X113709370Y-61306042D01*
X113709373Y-61306050D01*
X113895455Y-61714865D01*
X113897063Y-61718398D01*
X114119437Y-62116119D01*
X114120898Y-62118289D01*
X114120899Y-62118291D01*
X114135611Y-62140145D01*
X114373895Y-62494118D01*
X114658700Y-62849812D01*
X114660483Y-62851696D01*
X114932982Y-63139644D01*
X114971904Y-63180773D01*
X115311370Y-63484740D01*
X115313439Y-63486305D01*
X115313445Y-63486310D01*
X115620109Y-63718282D01*
X115674777Y-63759635D01*
X116059644Y-64003581D01*
X116463341Y-64214913D01*
X116745547Y-64334091D01*
X116880707Y-64391170D01*
X116880712Y-64391172D01*
X116883111Y-64392185D01*
X117316086Y-64534187D01*
X117759309Y-64639950D01*
X117761899Y-64640346D01*
X117761901Y-64640346D01*
X118207164Y-64708356D01*
X118207167Y-64708356D01*
X118209751Y-64708751D01*
X118212353Y-64708931D01*
X118212357Y-64708931D01*
X118661741Y-64739940D01*
X118661744Y-64739940D01*
X118664337Y-64740119D01*
X118848073Y-64737587D01*
X119117364Y-64733876D01*
X119117369Y-64733876D01*
X119119961Y-64733840D01*
X119122538Y-64733591D01*
X119122550Y-64733590D01*
X119570920Y-64690209D01*
X119570930Y-64690208D01*
X119573510Y-64689958D01*
X120021886Y-64608772D01*
X120297976Y-64534794D01*
X120459516Y-64491510D01*
X120459526Y-64491507D01*
X120462026Y-64490837D01*
X120667736Y-64417033D01*
X120888464Y-64337841D01*
X120888473Y-64337838D01*
X120890924Y-64336958D01*
X120893294Y-64335879D01*
X120893302Y-64335876D01*
X121303282Y-64149264D01*
X121303285Y-64149263D01*
X121305650Y-64148186D01*
X121703371Y-63925812D01*
X122081369Y-63671353D01*
X122159394Y-63608879D01*
X122435032Y-63388176D01*
X122437064Y-63386549D01*
X122552671Y-63277144D01*
X122766137Y-63075131D01*
X122766141Y-63075127D01*
X122768025Y-63073344D01*
X123071991Y-62733879D01*
X123073561Y-62731804D01*
X123345315Y-62372549D01*
X123345325Y-62372535D01*
X123346886Y-62370471D01*
X123576857Y-62007653D01*
X123580211Y-62002633D01*
X123581770Y-62000417D01*
X123584874Y-61996658D01*
X123591282Y-61985864D01*
X123600833Y-61962044D01*
X123609048Y-61945276D01*
X123617492Y-61930855D01*
X123617492Y-61930854D01*
X123622028Y-61923108D01*
X123626235Y-61906298D01*
X123629208Y-61894415D01*
X123634491Y-61878108D01*
X123642150Y-61859007D01*
X123642150Y-61859006D01*
X123645493Y-61850670D01*
X123646409Y-61841251D01*
X123647975Y-61825125D01*
X123651154Y-61806720D01*
X123655208Y-61790520D01*
X123655208Y-61790519D01*
X123657388Y-61781808D01*
X123657035Y-61772799D01*
X123656227Y-61752252D01*
X123656721Y-61735121D01*
X123658712Y-61714629D01*
X123659580Y-61705696D01*
X123654791Y-61680470D01*
X123652678Y-61661922D01*
X123651670Y-61636262D01*
X123642260Y-61608219D01*
X123637927Y-61591642D01*
X123634087Y-61571418D01*
X123634085Y-61571412D01*
X123632411Y-61562595D01*
X123620738Y-61539734D01*
X123613503Y-61522521D01*
X123608188Y-61506683D01*
X123605332Y-61498172D01*
X123588428Y-61473895D01*
X123579618Y-61459204D01*
X123570253Y-61440864D01*
X123566171Y-61432870D01*
X123557839Y-61424043D01*
X123548549Y-61414202D01*
X123536773Y-61399712D01*
X123522099Y-61378638D01*
X123499066Y-61360086D01*
X123486479Y-61348451D01*
X123472345Y-61333478D01*
X123472343Y-61333476D01*
X123466184Y-61326952D01*
X123436467Y-61309551D01*
X123435807Y-61309132D01*
X123434938Y-61308433D01*
X123432348Y-61306938D01*
X123432336Y-61306930D01*
X123407915Y-61292831D01*
X123407250Y-61292444D01*
X123343886Y-61255342D01*
X123343879Y-61255339D01*
X123340488Y-61253353D01*
X123339133Y-61253014D01*
X123337924Y-61252422D01*
X114747399Y-56292680D01*
X114745411Y-56291508D01*
X114693725Y-56260391D01*
X114693722Y-56260390D01*
X114686032Y-56255760D01*
X114653667Y-56247239D01*
X114638850Y-56242339D01*
X114636244Y-56241294D01*
X114607797Y-56229887D01*
X114598860Y-56229019D01*
X114598857Y-56229018D01*
X114586132Y-56227782D01*
X114566237Y-56224221D01*
X114553855Y-56220961D01*
X114553853Y-56220961D01*
X114545175Y-56218676D01*
X114511716Y-56219581D01*
X114496130Y-56219036D01*
X114462823Y-56215800D01*
X114445778Y-56219036D01*
X114441432Y-56219861D01*
X114421339Y-56222026D01*
X114408542Y-56222372D01*
X114408540Y-56222372D01*
X114399570Y-56222615D01*
X114391028Y-56225366D01*
X114391027Y-56225366D01*
X114367719Y-56232872D01*
X114352600Y-56236726D01*
X114334708Y-56240123D01*
X114319722Y-56242968D01*
X114311732Y-56247048D01*
X114311729Y-56247049D01*
X114308140Y-56248882D01*
X114300328Y-56252871D01*
X114281651Y-56260588D01*
X114269471Y-56264510D01*
X114269467Y-56264512D01*
X114260924Y-56267263D01*
X114234254Y-56285354D01*
X114233228Y-56286050D01*
X114219796Y-56293993D01*
X114197990Y-56305127D01*
X114197987Y-56305129D01*
X114189997Y-56309209D01*
X114183473Y-56315368D01*
X114183470Y-56315370D01*
X114174163Y-56324156D01*
X114158404Y-56336804D01*
X114149121Y-56343101D01*
X114140382Y-56349029D01*
X114134665Y-56355952D01*
X114119073Y-56374832D01*
X114108422Y-56386215D01*
X114084079Y-56409196D01*
X114079547Y-56416936D01*
X114079544Y-56416940D01*
X114073078Y-56427984D01*
X114061499Y-56444552D01*
X114047634Y-56461341D01*
X114041226Y-56472135D01*
X114039443Y-56476581D01*
X114038297Y-56478834D01*
X113830338Y-56876089D01*
X113711372Y-57157793D01*
X113674398Y-57245346D01*
X113653066Y-57295858D01*
X113511063Y-57728834D01*
X113405300Y-58172056D01*
X113404905Y-58174642D01*
X113340775Y-58594513D01*
X113336500Y-58622499D01*
X113319356Y-58870943D01*
X113312471Y-58970724D01*
X113305131Y-59077085D01*
X111298859Y-59077085D01*
X111285641Y-58866980D01*
X111226495Y-58556928D01*
X111128956Y-58256734D01*
X111101621Y-58198643D01*
X110996250Y-57974717D01*
X110996246Y-57974710D01*
X110994562Y-57971131D01*
X110825432Y-57704625D01*
X110652345Y-57495399D01*
X110626758Y-57464470D01*
X110626757Y-57464469D01*
X110624233Y-57461418D01*
X110394140Y-57245346D01*
X110138779Y-57059816D01*
X109938146Y-56949516D01*
X109894490Y-56925516D01*
X109844431Y-56875171D01*
X109829538Y-56805754D01*
X109854539Y-56739305D01*
X109911496Y-56696921D01*
X109966246Y-56690641D01*
X109966302Y-56689755D01*
X109970248Y-56690003D01*
X109974179Y-56690500D01*
X110289821Y-56690500D01*
X110602975Y-56650940D01*
X110908702Y-56572443D01*
X110912981Y-56570749D01*
X111198505Y-56457702D01*
X111198510Y-56457700D01*
X111202179Y-56456247D01*
X111237673Y-56436734D01*
X111475307Y-56306093D01*
X111475310Y-56306091D01*
X111478779Y-56304184D01*
X111695331Y-56146850D01*
X111730936Y-56120982D01*
X111730938Y-56120981D01*
X111734140Y-56118654D01*
X111931493Y-55933327D01*
X111961342Y-55905297D01*
X111961343Y-55905296D01*
X111964233Y-55902582D01*
X112165432Y-55659375D01*
X112322707Y-55411550D01*
X112332438Y-55396216D01*
X112332438Y-55396215D01*
X112334562Y-55392869D01*
X112336246Y-55389290D01*
X112336250Y-55389283D01*
X112467267Y-55110856D01*
X112467269Y-55110852D01*
X112468956Y-55107266D01*
X112566495Y-54807072D01*
X112625641Y-54497020D01*
X112645460Y-54182000D01*
X112625641Y-53866980D01*
X112566495Y-53556928D01*
X112468956Y-53256734D01*
X112451740Y-53220148D01*
X112336250Y-52974717D01*
X112336246Y-52974710D01*
X112334562Y-52971131D01*
X112297940Y-52913424D01*
X112208805Y-52772969D01*
X112189192Y-52704735D01*
X112209583Y-52636730D01*
X112263503Y-52590544D01*
X112333834Y-52580842D01*
X112389249Y-52603518D01*
X112404425Y-52614544D01*
X112442019Y-52641858D01*
X112442023Y-52641861D01*
X112445221Y-52644184D01*
X112448690Y-52646091D01*
X112448693Y-52646093D01*
X112718352Y-52794340D01*
X112721821Y-52796247D01*
X112725490Y-52797700D01*
X112725495Y-52797702D01*
X113011628Y-52910990D01*
X113015298Y-52912443D01*
X113321025Y-52990940D01*
X113634179Y-53030500D01*
X113949821Y-53030500D01*
X114262975Y-52990940D01*
X114568702Y-52912443D01*
X114572372Y-52910990D01*
X114858505Y-52797702D01*
X114858510Y-52797700D01*
X114862179Y-52796247D01*
X114865648Y-52794340D01*
X115135307Y-52646093D01*
X115135310Y-52646091D01*
X115138779Y-52644184D01*
X115357302Y-52485418D01*
X115390936Y-52460982D01*
X115390938Y-52460981D01*
X115394140Y-52458654D01*
X115595732Y-52269346D01*
X115621342Y-52245297D01*
X115621343Y-52245296D01*
X115624233Y-52242582D01*
X115825432Y-51999375D01*
X115994562Y-51732869D01*
X115996246Y-51729290D01*
X115996250Y-51729283D01*
X116127267Y-51450856D01*
X116127269Y-51450852D01*
X116128956Y-51447266D01*
X116226495Y-51147072D01*
X116285641Y-50837020D01*
X116305460Y-50522000D01*
X116293728Y-50335526D01*
X116309413Y-50266284D01*
X116360043Y-50216514D01*
X116429544Y-50202018D01*
X116495849Y-50227397D01*
X116533487Y-50273967D01*
X116587750Y-50389283D01*
X116587754Y-50389290D01*
X116589438Y-50392869D01*
X116758568Y-50659375D01*
X116859167Y-50780978D01*
X116928609Y-50864918D01*
X116959767Y-50902582D01*
X116962657Y-50905296D01*
X116962658Y-50905297D01*
X116998999Y-50939423D01*
X117189860Y-51118654D01*
X117193062Y-51120981D01*
X117193064Y-51120982D01*
X117245631Y-51159174D01*
X117445221Y-51304184D01*
X117448690Y-51306091D01*
X117448693Y-51306093D01*
X117705485Y-51447266D01*
X117721821Y-51456247D01*
X117725490Y-51457700D01*
X117725495Y-51457702D01*
X117941353Y-51543166D01*
X118015298Y-51572443D01*
X118321025Y-51650940D01*
X118634179Y-51690500D01*
X118949821Y-51690500D01*
X119262975Y-51650940D01*
X119568702Y-51572443D01*
X119642647Y-51543166D01*
X119858505Y-51457702D01*
X119858510Y-51457700D01*
X119862179Y-51456247D01*
X119878515Y-51447266D01*
X120135307Y-51306093D01*
X120135310Y-51306091D01*
X120138779Y-51304184D01*
X120338369Y-51159174D01*
X120390936Y-51120982D01*
X120390938Y-51120981D01*
X120394140Y-51118654D01*
X120585001Y-50939423D01*
X120621342Y-50905297D01*
X120621343Y-50905296D01*
X120624233Y-50902582D01*
X120655392Y-50864918D01*
X120724833Y-50780978D01*
X120825432Y-50659375D01*
X120994562Y-50392869D01*
X120996246Y-50389290D01*
X120996250Y-50389283D01*
X121050513Y-50273967D01*
X121097616Y-50220846D01*
X121165960Y-50201623D01*
X121233848Y-50222402D01*
G37*
%TD.AperFunction*%
%TA.AperFunction,NonConductor*%
G36*
X153882476Y-57542648D02*
G01*
X153926166Y-57597965D01*
X153987918Y-57750355D01*
X153989733Y-57754835D01*
X153993598Y-57765805D01*
X154091860Y-58091994D01*
X154109903Y-58151888D01*
X154112741Y-58163175D01*
X154192926Y-58558343D01*
X154194711Y-58569839D01*
X154236753Y-58958328D01*
X154238094Y-58970724D01*
X154238810Y-58982335D01*
X154241823Y-59178042D01*
X154245017Y-59385500D01*
X154244659Y-59397133D01*
X154213640Y-59799169D01*
X154212209Y-59810718D01*
X154172761Y-60041356D01*
X154147358Y-60189879D01*
X154144233Y-60208147D01*
X154141746Y-60219510D01*
X154095294Y-60392869D01*
X154037377Y-60609014D01*
X154033848Y-60620104D01*
X153894000Y-60998280D01*
X153889468Y-61008989D01*
X153739376Y-61322421D01*
X153715314Y-61372668D01*
X153709808Y-61382921D01*
X153502843Y-61728975D01*
X153496414Y-61738677D01*
X153421406Y-61841251D01*
X153306109Y-61998920D01*
X153258407Y-62064152D01*
X153251112Y-62073218D01*
X152984073Y-62375361D01*
X152975989Y-62383698D01*
X152703532Y-62639868D01*
X152682224Y-62659902D01*
X152673387Y-62667474D01*
X152355381Y-62915403D01*
X152345881Y-62922127D01*
X152006373Y-63139644D01*
X151996294Y-63145463D01*
X151638166Y-63330726D01*
X151627595Y-63335591D01*
X151253870Y-63487032D01*
X151242923Y-63490889D01*
X150956571Y-63577152D01*
X150856822Y-63607201D01*
X150845533Y-63610039D01*
X150450382Y-63690223D01*
X150438894Y-63692007D01*
X150037992Y-63735393D01*
X150026383Y-63736109D01*
X149846497Y-63738879D01*
X149623219Y-63742318D01*
X149611587Y-63741960D01*
X149209561Y-63710944D01*
X149198011Y-63709514D01*
X148999286Y-63675525D01*
X148800556Y-63641535D01*
X148789198Y-63639047D01*
X148586851Y-63584829D01*
X148399719Y-63534687D01*
X148388628Y-63531159D01*
X148010429Y-63391304D01*
X147999712Y-63386767D01*
X147636050Y-63212623D01*
X147625796Y-63207117D01*
X147618769Y-63202914D01*
X147445311Y-63099175D01*
X147279744Y-63000155D01*
X147270043Y-62993727D01*
X146944564Y-62755719D01*
X146935497Y-62748423D01*
X146633368Y-62481401D01*
X146625012Y-62473299D01*
X146348806Y-62179535D01*
X146341234Y-62170697D01*
X146300377Y-62118291D01*
X146237165Y-62037213D01*
X146211055Y-61971191D01*
X146224784Y-61901535D01*
X146273534Y-61850622D01*
X153746389Y-57536166D01*
X153815384Y-57519428D01*
X153882476Y-57542648D01*
G37*
%TD.AperFunction*%
%TA.AperFunction,NonConductor*%
G36*
X152221848Y-50246402D02*
G01*
X152267725Y-50300585D01*
X152278272Y-50359526D01*
X152266540Y-50546000D01*
X152286359Y-50861020D01*
X152345505Y-51171072D01*
X152443044Y-51471266D01*
X152444731Y-51474852D01*
X152444733Y-51474856D01*
X152575750Y-51753283D01*
X152575754Y-51753290D01*
X152577438Y-51756869D01*
X152746568Y-52023375D01*
X152776715Y-52059816D01*
X152925388Y-52239530D01*
X152947767Y-52266582D01*
X153177860Y-52482654D01*
X153433221Y-52668184D01*
X153436690Y-52670091D01*
X153436693Y-52670093D01*
X153668812Y-52797702D01*
X153709821Y-52820247D01*
X153713490Y-52821700D01*
X153713495Y-52821702D01*
X153999628Y-52934990D01*
X154003298Y-52936443D01*
X154309025Y-53014940D01*
X154622179Y-53054500D01*
X154937821Y-53054500D01*
X155250975Y-53014940D01*
X155556702Y-52936443D01*
X155560372Y-52934990D01*
X155846505Y-52821702D01*
X155846510Y-52821700D01*
X155850179Y-52820247D01*
X155891188Y-52797702D01*
X156123307Y-52670093D01*
X156123310Y-52670091D01*
X156126779Y-52668184D01*
X156129977Y-52665861D01*
X156129981Y-52665858D01*
X156151540Y-52650195D01*
X156182750Y-52627518D01*
X156249616Y-52603661D01*
X156318768Y-52619741D01*
X156368248Y-52670654D01*
X156382348Y-52740237D01*
X156363195Y-52796969D01*
X156274060Y-52937424D01*
X156237438Y-52995131D01*
X156235754Y-52998710D01*
X156235750Y-52998717D01*
X156104733Y-53277144D01*
X156103044Y-53280734D01*
X156101818Y-53284506D01*
X156101818Y-53284507D01*
X156081511Y-53347006D01*
X156005505Y-53580928D01*
X155946359Y-53890980D01*
X155926540Y-54206000D01*
X155946359Y-54521020D01*
X156005505Y-54831072D01*
X156006732Y-54834848D01*
X156087835Y-55084456D01*
X156103044Y-55131266D01*
X156104731Y-55134852D01*
X156104733Y-55134856D01*
X156235750Y-55413283D01*
X156235754Y-55413290D01*
X156237438Y-55416869D01*
X156406568Y-55683375D01*
X156447627Y-55733007D01*
X156585388Y-55899530D01*
X156607767Y-55926582D01*
X156610657Y-55929296D01*
X156610658Y-55929297D01*
X156632712Y-55950007D01*
X156837860Y-56142654D01*
X157093221Y-56328184D01*
X157096690Y-56330091D01*
X157096693Y-56330093D01*
X157355065Y-56472135D01*
X157369821Y-56480247D01*
X157373490Y-56481700D01*
X157373495Y-56481702D01*
X157659628Y-56594990D01*
X157663298Y-56596443D01*
X157969025Y-56674940D01*
X158282179Y-56714500D01*
X158597821Y-56714500D01*
X158601752Y-56714003D01*
X158605698Y-56713755D01*
X158605768Y-56714865D01*
X158671099Y-56725398D01*
X158723954Y-56772799D01*
X158742791Y-56841251D01*
X158721630Y-56909021D01*
X158677510Y-56949516D01*
X158472644Y-57062143D01*
X158433221Y-57083816D01*
X158233631Y-57228826D01*
X158214098Y-57243018D01*
X158177860Y-57269346D01*
X158124059Y-57319869D01*
X157976216Y-57458703D01*
X157947767Y-57485418D01*
X157746568Y-57728625D01*
X157577438Y-57995131D01*
X157575754Y-57998710D01*
X157575750Y-57998717D01*
X157444733Y-58277144D01*
X157443044Y-58280734D01*
X157441818Y-58284506D01*
X157441818Y-58284507D01*
X157421511Y-58347006D01*
X157345505Y-58580928D01*
X157286359Y-58890980D01*
X157266540Y-59206000D01*
X157286359Y-59521020D01*
X157345505Y-59831072D01*
X157443044Y-60131266D01*
X157444731Y-60134852D01*
X157444733Y-60134856D01*
X157575750Y-60413283D01*
X157575754Y-60413290D01*
X157577438Y-60416869D01*
X157746568Y-60683375D01*
X157749093Y-60686427D01*
X157925388Y-60899530D01*
X157947767Y-60926582D01*
X158177860Y-61142654D01*
X158433221Y-61328184D01*
X158436690Y-61330091D01*
X158436693Y-61330093D01*
X158677510Y-61462484D01*
X158727569Y-61512829D01*
X158742462Y-61582246D01*
X158717461Y-61648695D01*
X158660504Y-61691079D01*
X158605754Y-61697359D01*
X158605698Y-61698245D01*
X158601752Y-61697997D01*
X158597821Y-61697500D01*
X158282179Y-61697500D01*
X157969025Y-61737060D01*
X157663298Y-61815557D01*
X157659629Y-61817010D01*
X157659628Y-61817010D01*
X157373495Y-61930298D01*
X157373490Y-61930300D01*
X157369821Y-61931753D01*
X157366353Y-61933659D01*
X157366352Y-61933660D01*
X157112497Y-62073219D01*
X157093221Y-62083816D01*
X156967316Y-62175291D01*
X156874098Y-62243018D01*
X156837860Y-62269346D01*
X156716078Y-62383707D01*
X156612045Y-62481401D01*
X156607767Y-62485418D01*
X156406568Y-62728625D01*
X156237438Y-62995131D01*
X156235754Y-62998710D01*
X156235750Y-62998717D01*
X156114337Y-63256734D01*
X156103044Y-63280734D01*
X156005505Y-63580928D01*
X155946359Y-63890980D01*
X155926540Y-64206000D01*
X155946359Y-64521020D01*
X156005505Y-64831072D01*
X156103044Y-65131266D01*
X156104731Y-65134852D01*
X156104733Y-65134856D01*
X156235750Y-65413283D01*
X156235754Y-65413290D01*
X156237438Y-65416869D01*
X156239562Y-65420215D01*
X156239562Y-65420216D01*
X156363195Y-65615031D01*
X156382808Y-65683265D01*
X156362417Y-65751270D01*
X156308497Y-65797456D01*
X156238166Y-65807158D01*
X156182751Y-65784482D01*
X156151539Y-65761805D01*
X156129981Y-65746142D01*
X156129977Y-65746139D01*
X156126779Y-65743816D01*
X156122287Y-65741346D01*
X155853648Y-65593660D01*
X155853647Y-65593659D01*
X155850179Y-65591753D01*
X155846510Y-65590300D01*
X155846505Y-65590298D01*
X155560372Y-65477010D01*
X155560371Y-65477010D01*
X155556702Y-65475557D01*
X155250975Y-65397060D01*
X154937821Y-65357500D01*
X154622179Y-65357500D01*
X154309025Y-65397060D01*
X154003298Y-65475557D01*
X153999629Y-65477010D01*
X153999628Y-65477010D01*
X153713495Y-65590298D01*
X153713490Y-65590300D01*
X153709821Y-65591753D01*
X153706353Y-65593659D01*
X153706352Y-65593660D01*
X153437714Y-65741346D01*
X153433221Y-65743816D01*
X153233631Y-65888826D01*
X153214098Y-65903018D01*
X153177860Y-65929346D01*
X152986999Y-66108577D01*
X152976216Y-66118703D01*
X152947767Y-66145418D01*
X152746568Y-66388625D01*
X152577438Y-66655131D01*
X152575754Y-66658710D01*
X152575750Y-66658717D01*
X152444733Y-66937144D01*
X152443044Y-66940734D01*
X152441818Y-66944506D01*
X152441818Y-66944507D01*
X152438048Y-66956110D01*
X152345505Y-67240928D01*
X152286359Y-67550980D01*
X152266540Y-67866000D01*
X152276456Y-68023604D01*
X152278272Y-68052473D01*
X152262587Y-68121716D01*
X152211957Y-68171486D01*
X152142456Y-68185982D01*
X152076151Y-68160603D01*
X152038513Y-68114033D01*
X151984250Y-67998717D01*
X151984246Y-67998710D01*
X151982562Y-67995131D01*
X151813432Y-67728625D01*
X151663000Y-67546785D01*
X151614758Y-67488470D01*
X151614757Y-67488469D01*
X151612233Y-67485418D01*
X151583785Y-67458703D01*
X151555968Y-67432582D01*
X151382140Y-67269346D01*
X151345903Y-67243018D01*
X151315362Y-67220829D01*
X151126779Y-67083816D01*
X151087357Y-67062143D01*
X150853648Y-66933660D01*
X150853647Y-66933659D01*
X150850179Y-66931753D01*
X150846510Y-66930300D01*
X150846505Y-66930298D01*
X150560372Y-66817010D01*
X150560371Y-66817010D01*
X150556702Y-66815557D01*
X150250975Y-66737060D01*
X149937821Y-66697500D01*
X149622179Y-66697500D01*
X149309025Y-66737060D01*
X149003298Y-66815557D01*
X148999629Y-66817010D01*
X148999628Y-66817010D01*
X148713495Y-66930298D01*
X148713490Y-66930300D01*
X148709821Y-66931753D01*
X148706353Y-66933659D01*
X148706352Y-66933660D01*
X148472644Y-67062143D01*
X148433221Y-67083816D01*
X148244638Y-67220829D01*
X148214098Y-67243018D01*
X148177860Y-67269346D01*
X148004032Y-67432582D01*
X147976216Y-67458703D01*
X147947767Y-67485418D01*
X147945243Y-67488469D01*
X147945242Y-67488470D01*
X147897000Y-67546785D01*
X147746568Y-67728625D01*
X147577438Y-67995131D01*
X147575754Y-67998710D01*
X147575750Y-67998717D01*
X147521487Y-68114033D01*
X147474384Y-68167154D01*
X147406040Y-68186377D01*
X147338152Y-68165598D01*
X147292275Y-68111415D01*
X147281728Y-68052473D01*
X147283545Y-68023604D01*
X147293460Y-67866000D01*
X147273641Y-67550980D01*
X147214495Y-67240928D01*
X147121952Y-66956110D01*
X147118182Y-66944507D01*
X147118182Y-66944506D01*
X147116956Y-66940734D01*
X147115267Y-66937144D01*
X146984250Y-66658717D01*
X146984246Y-66658710D01*
X146982562Y-66655131D01*
X146813432Y-66388625D01*
X146612233Y-66145418D01*
X146583785Y-66118703D01*
X146573001Y-66108577D01*
X146382140Y-65929346D01*
X146345903Y-65903018D01*
X146326369Y-65888826D01*
X146126779Y-65743816D01*
X146122287Y-65741346D01*
X145853648Y-65593660D01*
X145853647Y-65593659D01*
X145850179Y-65591753D01*
X145846510Y-65590300D01*
X145846505Y-65590298D01*
X145560372Y-65477010D01*
X145560371Y-65477010D01*
X145556702Y-65475557D01*
X145250975Y-65397060D01*
X144937821Y-65357500D01*
X144622179Y-65357500D01*
X144309025Y-65397060D01*
X144003298Y-65475557D01*
X143999629Y-65477010D01*
X143999628Y-65477010D01*
X143713495Y-65590298D01*
X143713490Y-65590300D01*
X143709821Y-65591753D01*
X143706353Y-65593659D01*
X143706352Y-65593660D01*
X143437714Y-65741346D01*
X143433221Y-65743816D01*
X143430023Y-65746139D01*
X143430019Y-65746142D01*
X143408461Y-65761805D01*
X143377250Y-65784482D01*
X143310384Y-65808339D01*
X143241232Y-65792259D01*
X143191752Y-65741346D01*
X143177652Y-65671763D01*
X143196805Y-65615031D01*
X143320438Y-65420216D01*
X143320438Y-65420215D01*
X143322562Y-65416869D01*
X143324246Y-65413290D01*
X143324250Y-65413283D01*
X143455267Y-65134856D01*
X143455269Y-65134852D01*
X143456956Y-65131266D01*
X143554495Y-64831072D01*
X143613641Y-64521020D01*
X143633460Y-64206000D01*
X143613641Y-63890980D01*
X143554495Y-63580928D01*
X143456956Y-63280734D01*
X143445663Y-63256734D01*
X143324250Y-62998717D01*
X143324246Y-62998710D01*
X143322562Y-62995131D01*
X143153432Y-62728625D01*
X142952233Y-62485418D01*
X142947956Y-62481401D01*
X142843922Y-62383707D01*
X142722140Y-62269346D01*
X142685903Y-62243018D01*
X142592684Y-62175291D01*
X142466779Y-62083816D01*
X142447504Y-62073219D01*
X142193648Y-61933660D01*
X142193647Y-61933659D01*
X142190179Y-61931753D01*
X142186510Y-61930300D01*
X142186505Y-61930298D01*
X141900372Y-61817010D01*
X141900371Y-61817010D01*
X141896702Y-61815557D01*
X141590975Y-61737060D01*
X141433496Y-61717166D01*
X144913142Y-61717166D01*
X144913791Y-61726114D01*
X144913791Y-61726118D01*
X144915563Y-61750538D01*
X144915726Y-61766138D01*
X144915383Y-61772799D01*
X144914004Y-61799561D01*
X144916076Y-61808290D01*
X144916076Y-61808294D01*
X144919033Y-61820752D01*
X144922109Y-61840731D01*
X144923684Y-61862442D01*
X144935378Y-61893802D01*
X144939907Y-61908709D01*
X144947637Y-61941282D01*
X144952076Y-61949080D01*
X144952078Y-61949085D01*
X144958409Y-61960207D01*
X144966968Y-61978519D01*
X144974575Y-61998920D01*
X144980719Y-62009867D01*
X144982019Y-62011522D01*
X144982715Y-62013749D01*
X144983418Y-62013303D01*
X145218200Y-62383707D01*
X145225049Y-62394513D01*
X145226624Y-62396595D01*
X145481761Y-62733879D01*
X145499947Y-62757921D01*
X145803916Y-63097386D01*
X145805801Y-63099170D01*
X145805806Y-63099175D01*
X145829325Y-63121432D01*
X146134879Y-63410590D01*
X146136914Y-63412220D01*
X146136917Y-63412222D01*
X146257961Y-63509141D01*
X146490576Y-63695394D01*
X146868577Y-63949852D01*
X146870849Y-63951122D01*
X146870855Y-63951126D01*
X147223303Y-64148186D01*
X147266299Y-64172226D01*
X147681027Y-64360997D01*
X148109927Y-64514876D01*
X148112427Y-64515546D01*
X148112437Y-64515549D01*
X148273960Y-64558828D01*
X148550069Y-64632810D01*
X148998447Y-64713995D01*
X149001027Y-64714245D01*
X149001037Y-64714246D01*
X149449408Y-64757627D01*
X149449420Y-64757628D01*
X149451997Y-64757877D01*
X149454587Y-64757913D01*
X149454593Y-64757913D01*
X149727686Y-64761675D01*
X149907622Y-64764154D01*
X149910214Y-64763975D01*
X149910219Y-64763975D01*
X150359604Y-64732966D01*
X150359608Y-64732966D01*
X150362210Y-64732786D01*
X150364794Y-64732391D01*
X150364797Y-64732391D01*
X150810062Y-64664380D01*
X150810064Y-64664380D01*
X150812654Y-64663984D01*
X151255878Y-64558221D01*
X151688855Y-64416218D01*
X151691254Y-64415205D01*
X151691259Y-64415203D01*
X152106238Y-64239953D01*
X152106248Y-64239948D01*
X152108626Y-64238944D01*
X152512324Y-64027613D01*
X152514522Y-64026219D01*
X152514532Y-64026214D01*
X152771899Y-63863082D01*
X152897192Y-63783665D01*
X152927117Y-63761029D01*
X153258526Y-63510339D01*
X153258532Y-63510334D01*
X153260601Y-63508769D01*
X153395278Y-63388176D01*
X153598125Y-63206542D01*
X153598127Y-63206540D01*
X153600068Y-63204802D01*
X153617797Y-63186068D01*
X153911492Y-62875724D01*
X153911503Y-62875712D01*
X153913274Y-62873840D01*
X154198079Y-62518145D01*
X154310383Y-62351318D01*
X154451083Y-62142309D01*
X154451091Y-62142296D01*
X154452539Y-62140145D01*
X154464759Y-62118291D01*
X154673643Y-61744698D01*
X154674915Y-61742423D01*
X154715120Y-61654095D01*
X154862606Y-61330074D01*
X154862609Y-61330066D01*
X154863688Y-61327696D01*
X154870334Y-61309174D01*
X155016688Y-60901250D01*
X155016689Y-60901248D01*
X155017568Y-60898797D01*
X155077691Y-60674420D01*
X155134835Y-60461157D01*
X155134836Y-60461154D01*
X155135505Y-60458656D01*
X155216692Y-60010278D01*
X155260575Y-59556728D01*
X155260871Y-59535298D01*
X155265740Y-59182000D01*
X155266855Y-59101103D01*
X155257004Y-58958328D01*
X155235667Y-58649110D01*
X155235488Y-58646515D01*
X155176531Y-58260507D01*
X155167082Y-58198643D01*
X155167081Y-58198639D01*
X155166689Y-58196071D01*
X155158840Y-58163175D01*
X155063897Y-57765290D01*
X155060928Y-57752846D01*
X154918926Y-57319869D01*
X154741655Y-56900097D01*
X154698287Y-56817251D01*
X154542444Y-56519547D01*
X154539764Y-56514114D01*
X154538623Y-56511653D01*
X154536919Y-56507084D01*
X154530776Y-56496138D01*
X154514917Y-56475948D01*
X154504502Y-56460448D01*
X154496241Y-56445936D01*
X154491799Y-56438132D01*
X154485346Y-56431889D01*
X154485344Y-56431887D01*
X154470542Y-56417568D01*
X154459064Y-56404844D01*
X154440800Y-56381592D01*
X154433499Y-56376374D01*
X154433497Y-56376373D01*
X154419911Y-56366665D01*
X154405563Y-56354710D01*
X154393562Y-56343101D01*
X154387109Y-56336858D01*
X154360930Y-56323085D01*
X154346345Y-56314094D01*
X154339510Y-56309209D01*
X154322292Y-56296905D01*
X154298051Y-56288440D01*
X154280930Y-56280995D01*
X154258204Y-56269038D01*
X154229218Y-56263167D01*
X154212700Y-56258632D01*
X154193258Y-56251842D01*
X154193251Y-56251841D01*
X154184779Y-56248882D01*
X154175816Y-56248420D01*
X154175815Y-56248420D01*
X154165632Y-56247895D01*
X154159139Y-56247561D01*
X154140609Y-56245220D01*
X154124245Y-56241905D01*
X154124243Y-56241905D01*
X154115446Y-56240123D01*
X154085981Y-56242623D01*
X154068847Y-56242907D01*
X154039314Y-56241385D01*
X154014325Y-56247315D01*
X153995893Y-56250267D01*
X153986276Y-56251083D01*
X153979253Y-56251679D01*
X153979252Y-56251679D01*
X153970310Y-56252438D01*
X153942730Y-56263108D01*
X153926367Y-56268189D01*
X153897592Y-56275017D01*
X153889788Y-56279459D01*
X153889789Y-56279459D01*
X153867665Y-56292052D01*
X153866958Y-56292422D01*
X153865930Y-56292819D01*
X153863350Y-56294309D01*
X153863332Y-56294318D01*
X153839072Y-56308325D01*
X153838403Y-56308708D01*
X153774444Y-56345115D01*
X153774434Y-56345122D01*
X153771006Y-56347073D01*
X153770033Y-56348079D01*
X153768911Y-56348833D01*
X149400489Y-58870943D01*
X145178634Y-61308433D01*
X145178348Y-61308598D01*
X145176390Y-61309705D01*
X145115732Y-61343259D01*
X145094226Y-61364954D01*
X145092177Y-61367021D01*
X145080525Y-61377402D01*
X145069577Y-61386002D01*
X145054209Y-61398074D01*
X145048985Y-61405384D01*
X145041546Y-61415793D01*
X145028517Y-61431239D01*
X145021336Y-61438484D01*
X145013188Y-61446704D01*
X145008913Y-61454593D01*
X145008912Y-61454595D01*
X144997246Y-61476125D01*
X144988980Y-61489353D01*
X144969523Y-61516582D01*
X144962342Y-61537145D01*
X144954173Y-61555622D01*
X144943798Y-61574771D01*
X144941909Y-61583547D01*
X144936756Y-61607481D01*
X144932533Y-61622503D01*
X144924462Y-61645616D01*
X144921501Y-61654095D01*
X144920463Y-61674245D01*
X144920380Y-61675846D01*
X144917726Y-61695874D01*
X144913142Y-61717166D01*
X141433496Y-61717166D01*
X141277821Y-61697500D01*
X140962179Y-61697500D01*
X140958248Y-61697997D01*
X140954302Y-61698245D01*
X140954232Y-61697135D01*
X140888901Y-61686602D01*
X140836046Y-61639201D01*
X140817209Y-61570749D01*
X140838370Y-61502979D01*
X140882490Y-61462484D01*
X141123307Y-61330093D01*
X141123310Y-61330091D01*
X141126779Y-61328184D01*
X141382140Y-61142654D01*
X141612233Y-60926582D01*
X141634613Y-60899530D01*
X141810907Y-60686427D01*
X141813432Y-60683375D01*
X141982562Y-60416869D01*
X141984246Y-60413290D01*
X141984250Y-60413283D01*
X142115267Y-60134856D01*
X142115269Y-60134852D01*
X142116956Y-60131266D01*
X142214495Y-59831072D01*
X142273641Y-59521020D01*
X142293460Y-59206000D01*
X142273641Y-58890980D01*
X142214495Y-58580928D01*
X142138489Y-58347006D01*
X142118182Y-58284507D01*
X142118182Y-58284506D01*
X142116956Y-58280734D01*
X142115267Y-58277144D01*
X141984250Y-57998717D01*
X141984246Y-57998710D01*
X141982562Y-57995131D01*
X141813432Y-57728625D01*
X141612233Y-57485418D01*
X141583785Y-57458703D01*
X141435941Y-57319869D01*
X141382140Y-57269346D01*
X141345903Y-57243018D01*
X141326369Y-57228826D01*
X141126779Y-57083816D01*
X141087357Y-57062143D01*
X140882490Y-56949516D01*
X140832431Y-56899171D01*
X140817538Y-56829754D01*
X140842539Y-56763305D01*
X140899496Y-56720921D01*
X140954246Y-56714641D01*
X140954302Y-56713755D01*
X140958248Y-56714003D01*
X140962179Y-56714500D01*
X141277821Y-56714500D01*
X141590975Y-56674940D01*
X141896702Y-56596443D01*
X141900372Y-56594990D01*
X142186505Y-56481702D01*
X142186510Y-56481700D01*
X142190179Y-56480247D01*
X142204935Y-56472135D01*
X142463307Y-56330093D01*
X142463310Y-56330091D01*
X142466779Y-56328184D01*
X142722140Y-56142654D01*
X142927288Y-55950007D01*
X142949342Y-55929297D01*
X142949343Y-55929296D01*
X142952233Y-55926582D01*
X142974613Y-55899530D01*
X143112373Y-55733007D01*
X143153432Y-55683375D01*
X143322562Y-55416869D01*
X143324246Y-55413290D01*
X143324250Y-55413283D01*
X143455267Y-55134856D01*
X143455269Y-55134852D01*
X143456956Y-55131266D01*
X143472166Y-55084456D01*
X143553268Y-54834848D01*
X143554495Y-54831072D01*
X143613641Y-54521020D01*
X143633460Y-54206000D01*
X143613641Y-53890980D01*
X143554495Y-53580928D01*
X143478489Y-53347006D01*
X143458182Y-53284507D01*
X143458182Y-53284506D01*
X143456956Y-53280734D01*
X143455267Y-53277144D01*
X143324250Y-52998717D01*
X143324246Y-52998710D01*
X143322562Y-52995131D01*
X143285940Y-52937424D01*
X143196805Y-52796969D01*
X143177192Y-52728735D01*
X143197583Y-52660730D01*
X143251503Y-52614544D01*
X143321834Y-52604842D01*
X143377249Y-52627518D01*
X143408461Y-52650195D01*
X143430019Y-52665858D01*
X143430023Y-52665861D01*
X143433221Y-52668184D01*
X143436690Y-52670091D01*
X143436693Y-52670093D01*
X143668812Y-52797702D01*
X143709821Y-52820247D01*
X143713490Y-52821700D01*
X143713495Y-52821702D01*
X143999628Y-52934990D01*
X144003298Y-52936443D01*
X144309025Y-53014940D01*
X144622179Y-53054500D01*
X144937821Y-53054500D01*
X145250975Y-53014940D01*
X145556702Y-52936443D01*
X145560372Y-52934990D01*
X145846505Y-52821702D01*
X145846510Y-52821700D01*
X145850179Y-52820247D01*
X145891188Y-52797702D01*
X146123307Y-52670093D01*
X146123310Y-52670091D01*
X146126779Y-52668184D01*
X146382140Y-52482654D01*
X146612233Y-52266582D01*
X146634613Y-52239530D01*
X146783285Y-52059816D01*
X146813432Y-52023375D01*
X146982562Y-51756869D01*
X146984246Y-51753290D01*
X146984250Y-51753283D01*
X147115267Y-51474856D01*
X147115269Y-51474852D01*
X147116956Y-51471266D01*
X147214495Y-51171072D01*
X147273641Y-50861020D01*
X147293460Y-50546000D01*
X147281728Y-50359526D01*
X147297413Y-50290284D01*
X147348043Y-50240514D01*
X147417544Y-50226018D01*
X147483849Y-50251397D01*
X147521487Y-50297967D01*
X147575750Y-50413283D01*
X147575754Y-50413290D01*
X147577438Y-50416869D01*
X147746568Y-50683375D01*
X147749093Y-50686427D01*
X147925388Y-50899530D01*
X147947767Y-50926582D01*
X148177860Y-51142654D01*
X148433221Y-51328184D01*
X148436690Y-51330091D01*
X148436693Y-51330093D01*
X148693485Y-51471266D01*
X148709821Y-51480247D01*
X148713490Y-51481700D01*
X148713495Y-51481702D01*
X148962091Y-51580128D01*
X149003298Y-51596443D01*
X149309025Y-51674940D01*
X149622179Y-51714500D01*
X149937821Y-51714500D01*
X150250975Y-51674940D01*
X150556702Y-51596443D01*
X150597909Y-51580128D01*
X150846505Y-51481702D01*
X150846510Y-51481700D01*
X150850179Y-51480247D01*
X150866515Y-51471266D01*
X151123307Y-51330093D01*
X151123310Y-51330091D01*
X151126779Y-51328184D01*
X151382140Y-51142654D01*
X151612233Y-50926582D01*
X151634613Y-50899530D01*
X151810907Y-50686427D01*
X151813432Y-50683375D01*
X151982562Y-50416869D01*
X151984246Y-50413290D01*
X151984250Y-50413283D01*
X152038513Y-50297967D01*
X152085616Y-50244846D01*
X152153960Y-50225623D01*
X152221848Y-50246402D01*
G37*
%TD.AperFunction*%
%TA.AperFunction,NonConductor*%
G36*
X162007467Y-60646240D02*
G01*
X162046191Y-60705746D01*
X162051500Y-60741934D01*
X162051500Y-67270367D01*
X162031498Y-67338488D01*
X162014595Y-67359462D01*
X159544595Y-69829462D01*
X159482283Y-69863488D01*
X159411468Y-69858423D01*
X159354632Y-69815876D01*
X159329821Y-69749356D01*
X159329500Y-69740367D01*
X159329500Y-66637413D01*
X159349502Y-66569292D01*
X159409116Y-66520261D01*
X159506505Y-66481702D01*
X159506510Y-66481700D01*
X159510179Y-66480247D01*
X159551188Y-66457702D01*
X159783307Y-66330093D01*
X159783310Y-66330091D01*
X159786779Y-66328184D01*
X159999595Y-66173565D01*
X160038936Y-66144982D01*
X160038938Y-66144981D01*
X160042140Y-66142654D01*
X160272233Y-65926582D01*
X160294613Y-65899530D01*
X160443285Y-65719816D01*
X160473432Y-65683375D01*
X160642562Y-65416869D01*
X160644246Y-65413290D01*
X160644250Y-65413283D01*
X160775267Y-65134856D01*
X160775269Y-65134852D01*
X160776956Y-65131266D01*
X160874495Y-64831072D01*
X160933641Y-64521020D01*
X160953460Y-64206000D01*
X160933641Y-63890980D01*
X160874495Y-63580928D01*
X160776956Y-63280734D01*
X160765663Y-63256734D01*
X160644250Y-62998717D01*
X160644246Y-62998710D01*
X160642562Y-62995131D01*
X160473432Y-62728625D01*
X160272233Y-62485418D01*
X160267956Y-62481401D01*
X160163922Y-62383707D01*
X160042140Y-62269346D01*
X160005903Y-62243018D01*
X159912684Y-62175291D01*
X159786779Y-62083816D01*
X159767504Y-62073219D01*
X159542490Y-61949516D01*
X159492431Y-61899171D01*
X159477538Y-61829754D01*
X159502539Y-61763305D01*
X159559496Y-61720921D01*
X159614246Y-61714641D01*
X159614302Y-61713755D01*
X159618248Y-61714003D01*
X159622179Y-61714500D01*
X159937821Y-61714500D01*
X160250975Y-61674940D01*
X160556702Y-61596443D01*
X160589274Y-61583547D01*
X160846505Y-61481702D01*
X160846510Y-61481700D01*
X160850179Y-61480247D01*
X160857677Y-61476125D01*
X161123307Y-61330093D01*
X161123310Y-61330091D01*
X161126779Y-61328184D01*
X161382140Y-61142654D01*
X161612233Y-60926582D01*
X161634613Y-60899530D01*
X161810907Y-60686427D01*
X161813432Y-60683375D01*
X161819115Y-60674420D01*
X161872504Y-60627621D01*
X161942719Y-60617116D01*
X162007467Y-60646240D01*
G37*
%TD.AperFunction*%
%TA.AperFunction,NonConductor*%
G36*
X116233848Y-68882402D02*
G01*
X116279725Y-68936585D01*
X116290272Y-68995526D01*
X116278540Y-69182000D01*
X116298359Y-69497020D01*
X116357505Y-69807072D01*
X116455044Y-70107266D01*
X116456731Y-70110852D01*
X116456733Y-70110856D01*
X116587750Y-70389283D01*
X116587754Y-70389290D01*
X116589438Y-70392869D01*
X116758568Y-70659375D01*
X116959767Y-70902582D01*
X116962657Y-70905296D01*
X116962658Y-70905297D01*
X116991668Y-70932539D01*
X117189860Y-71118654D01*
X117193062Y-71120981D01*
X117193064Y-71120982D01*
X117245631Y-71159174D01*
X117445221Y-71304184D01*
X117448690Y-71306091D01*
X117448693Y-71306093D01*
X117703993Y-71446446D01*
X117721821Y-71456247D01*
X117725490Y-71457700D01*
X117725495Y-71457702D01*
X117962374Y-71551489D01*
X118015298Y-71572443D01*
X118019120Y-71573424D01*
X118019119Y-71573424D01*
X118252937Y-71633458D01*
X118313943Y-71669773D01*
X118345632Y-71733305D01*
X118337942Y-71803884D01*
X118293315Y-71859101D01*
X118221602Y-71881500D01*
X116117633Y-71881500D01*
X116049512Y-71861498D01*
X116028538Y-71844595D01*
X114718405Y-70534462D01*
X114684379Y-70472150D01*
X114681500Y-70445367D01*
X114681500Y-70273413D01*
X114701502Y-70205292D01*
X114761116Y-70156261D01*
X114858505Y-70117702D01*
X114858510Y-70117700D01*
X114862179Y-70116247D01*
X114878515Y-70107266D01*
X115135307Y-69966093D01*
X115135310Y-69966091D01*
X115138779Y-69964184D01*
X115355026Y-69807072D01*
X115390936Y-69780982D01*
X115390938Y-69780981D01*
X115394140Y-69778654D01*
X115585001Y-69599423D01*
X115621342Y-69565297D01*
X115621343Y-69565296D01*
X115624233Y-69562582D01*
X115655392Y-69524918D01*
X115724832Y-69440979D01*
X115825432Y-69319375D01*
X115994562Y-69052869D01*
X115996246Y-69049290D01*
X115996250Y-69049283D01*
X116050513Y-68933967D01*
X116097616Y-68880846D01*
X116165960Y-68861623D01*
X116233848Y-68882402D01*
G37*
%TD.AperFunction*%
%TA.AperFunction,NonConductor*%
G36*
X120707569Y-70925369D02*
G01*
X120748945Y-70952888D01*
X121271584Y-71475527D01*
X121291606Y-71501619D01*
X121307960Y-71529944D01*
X121312378Y-71534851D01*
X121312379Y-71534852D01*
X121435138Y-71671190D01*
X121465856Y-71735197D01*
X121457091Y-71805651D01*
X121411628Y-71860182D01*
X121341502Y-71881500D01*
X119362398Y-71881500D01*
X119294277Y-71861498D01*
X119247784Y-71807842D01*
X119237680Y-71737568D01*
X119267174Y-71672988D01*
X119331063Y-71633458D01*
X119564881Y-71573424D01*
X119564880Y-71573424D01*
X119568702Y-71572443D01*
X119621626Y-71551489D01*
X119858505Y-71457702D01*
X119858510Y-71457700D01*
X119862179Y-71456247D01*
X119880007Y-71446446D01*
X120135307Y-71306093D01*
X120135310Y-71306091D01*
X120138779Y-71304184D01*
X120338369Y-71159174D01*
X120390936Y-71120982D01*
X120390938Y-71120981D01*
X120394140Y-71118654D01*
X120428763Y-71086141D01*
X120573597Y-70950133D01*
X120636947Y-70918082D01*
X120707569Y-70925369D01*
G37*
%TD.AperFunction*%
%TA.AperFunction,NonConductor*%
G36*
X132489488Y-60091502D02*
G01*
X132510462Y-60108405D01*
X137180511Y-64778454D01*
X137193348Y-64793482D01*
X137201331Y-64804470D01*
X137206233Y-64808883D01*
X137206234Y-64808885D01*
X137251063Y-64849249D01*
X137255847Y-64853790D01*
X137269994Y-64867937D01*
X137272559Y-64870014D01*
X137285554Y-64880537D01*
X137290575Y-64884825D01*
X137335381Y-64925170D01*
X137335385Y-64925173D01*
X137340285Y-64929585D01*
X137345995Y-64932881D01*
X137345998Y-64932884D01*
X137352045Y-64936375D01*
X137368330Y-64947568D01*
X137378875Y-64956107D01*
X137438480Y-64986477D01*
X137444276Y-64989624D01*
X137502215Y-65023075D01*
X137515125Y-65027270D01*
X137533384Y-65034833D01*
X137545476Y-65040994D01*
X137602641Y-65056312D01*
X137610094Y-65058309D01*
X137616419Y-65060182D01*
X137680044Y-65080855D01*
X137686611Y-65081545D01*
X137686615Y-65081546D01*
X137692288Y-65082142D01*
X137693530Y-65082272D01*
X137712972Y-65085875D01*
X137726085Y-65089389D01*
X137732682Y-65089735D01*
X137732684Y-65089735D01*
X137792887Y-65092890D01*
X137799461Y-65093407D01*
X137816105Y-65095156D01*
X137816109Y-65095156D01*
X137819380Y-65095500D01*
X137839407Y-65095500D01*
X137846001Y-65095673D01*
X137906218Y-65098829D01*
X137906222Y-65098829D01*
X137912810Y-65099174D01*
X137919325Y-65098142D01*
X137919327Y-65098142D01*
X137926214Y-65097051D01*
X137945925Y-65095500D01*
X138686252Y-65095500D01*
X138754373Y-65115502D01*
X138800260Y-65167852D01*
X138915750Y-65413283D01*
X138915754Y-65413290D01*
X138917438Y-65416869D01*
X139086568Y-65683375D01*
X139116715Y-65719816D01*
X139265388Y-65899530D01*
X139287767Y-65926582D01*
X139517860Y-66142654D01*
X139521062Y-66144981D01*
X139521064Y-66144982D01*
X139560405Y-66173565D01*
X139773221Y-66328184D01*
X139776690Y-66330091D01*
X139776693Y-66330093D01*
X140008812Y-66457702D01*
X140049821Y-66480247D01*
X140053490Y-66481700D01*
X140053495Y-66481702D01*
X140339628Y-66594990D01*
X140343298Y-66596443D01*
X140649025Y-66674940D01*
X140962179Y-66714500D01*
X141277821Y-66714500D01*
X141590975Y-66674940D01*
X141896702Y-66596443D01*
X141900372Y-66594990D01*
X142186505Y-66481702D01*
X142186510Y-66481700D01*
X142190179Y-66480247D01*
X142231188Y-66457702D01*
X142463307Y-66330093D01*
X142463310Y-66330091D01*
X142466779Y-66328184D01*
X142469977Y-66325861D01*
X142469981Y-66325858D01*
X142491539Y-66310195D01*
X142522750Y-66287518D01*
X142589616Y-66263661D01*
X142658768Y-66279741D01*
X142708248Y-66330654D01*
X142722348Y-66400237D01*
X142703195Y-66456969D01*
X142614060Y-66597424D01*
X142577438Y-66655131D01*
X142575754Y-66658710D01*
X142575750Y-66658717D01*
X142444733Y-66937144D01*
X142443044Y-66940734D01*
X142441818Y-66944506D01*
X142441818Y-66944507D01*
X142438048Y-66956110D01*
X142345505Y-67240928D01*
X142286359Y-67550980D01*
X142266540Y-67866000D01*
X142286359Y-68181020D01*
X142345505Y-68491072D01*
X142346732Y-68494848D01*
X142429353Y-68749128D01*
X142443044Y-68791266D01*
X142444731Y-68794852D01*
X142444733Y-68794856D01*
X142575750Y-69073283D01*
X142575754Y-69073290D01*
X142577438Y-69076869D01*
X142746568Y-69343375D01*
X142749093Y-69346427D01*
X142925388Y-69559530D01*
X142947767Y-69586582D01*
X143177860Y-69802654D01*
X143181062Y-69804981D01*
X143181064Y-69804982D01*
X143211605Y-69827171D01*
X143433221Y-69988184D01*
X143436690Y-69990091D01*
X143436693Y-69990093D01*
X143693485Y-70131266D01*
X143709821Y-70140247D01*
X143713490Y-70141700D01*
X143713495Y-70141702D01*
X143999628Y-70254990D01*
X144003298Y-70256443D01*
X144309025Y-70334940D01*
X144622179Y-70374500D01*
X144937821Y-70374500D01*
X145250975Y-70334940D01*
X145556702Y-70256443D01*
X145560372Y-70254990D01*
X145846505Y-70141702D01*
X145846510Y-70141700D01*
X145850179Y-70140247D01*
X145866515Y-70131266D01*
X146123307Y-69990093D01*
X146123310Y-69990091D01*
X146126779Y-69988184D01*
X146348395Y-69827171D01*
X146378936Y-69804982D01*
X146378938Y-69804981D01*
X146382140Y-69802654D01*
X146612233Y-69586582D01*
X146634613Y-69559530D01*
X146810907Y-69346427D01*
X146813432Y-69343375D01*
X146982562Y-69076869D01*
X146984246Y-69073290D01*
X146984250Y-69073283D01*
X147038513Y-68957967D01*
X147085616Y-68904846D01*
X147153960Y-68885623D01*
X147221848Y-68906402D01*
X147267725Y-68960585D01*
X147278272Y-69019526D01*
X147266540Y-69206000D01*
X147286359Y-69521020D01*
X147345505Y-69831072D01*
X147346732Y-69834848D01*
X147414871Y-70044557D01*
X147443044Y-70131266D01*
X147444731Y-70134852D01*
X147444733Y-70134856D01*
X147575750Y-70413283D01*
X147575754Y-70413290D01*
X147577438Y-70416869D01*
X147746568Y-70683375D01*
X147786614Y-70731782D01*
X147936217Y-70912620D01*
X147947767Y-70926582D01*
X147950657Y-70929296D01*
X147950658Y-70929297D01*
X147957592Y-70935808D01*
X148177860Y-71142654D01*
X148433221Y-71328184D01*
X148436690Y-71330091D01*
X148436693Y-71330093D01*
X148668812Y-71457702D01*
X148709821Y-71480247D01*
X148713490Y-71481700D01*
X148713495Y-71481702D01*
X148999628Y-71594990D01*
X149003298Y-71596443D01*
X149007120Y-71597424D01*
X149007119Y-71597424D01*
X149147463Y-71633458D01*
X149208469Y-71669773D01*
X149240158Y-71733305D01*
X149232468Y-71803884D01*
X149187841Y-71859101D01*
X149116128Y-71881500D01*
X122752498Y-71881500D01*
X122684377Y-71861498D01*
X122637884Y-71807842D01*
X122627780Y-71737568D01*
X122658862Y-71671190D01*
X122781621Y-71534852D01*
X122781622Y-71534851D01*
X122786040Y-71529944D01*
X122871367Y-71382153D01*
X122878223Y-71370279D01*
X122878224Y-71370278D01*
X122881527Y-71364556D01*
X122940542Y-71182928D01*
X122947298Y-71118654D01*
X122959814Y-70999565D01*
X122960504Y-70993000D01*
X122955999Y-70950133D01*
X122941232Y-70809635D01*
X122941232Y-70809633D01*
X122940542Y-70803072D01*
X122881527Y-70621444D01*
X122786040Y-70456056D01*
X122729146Y-70392869D01*
X122705609Y-70366728D01*
X122674891Y-70302721D01*
X122683656Y-70232267D01*
X122729119Y-70177736D01*
X122796846Y-70156441D01*
X122845628Y-70165266D01*
X123015298Y-70232443D01*
X123321025Y-70310940D01*
X123634179Y-70350500D01*
X123949821Y-70350500D01*
X124262975Y-70310940D01*
X124568702Y-70232443D01*
X124620883Y-70211783D01*
X124858505Y-70117702D01*
X124858510Y-70117700D01*
X124862179Y-70116247D01*
X124878515Y-70107266D01*
X125135307Y-69966093D01*
X125135310Y-69966091D01*
X125138779Y-69964184D01*
X125355026Y-69807072D01*
X125390936Y-69780982D01*
X125390938Y-69780981D01*
X125394140Y-69778654D01*
X125585001Y-69599423D01*
X125621342Y-69565297D01*
X125621343Y-69565296D01*
X125624233Y-69562582D01*
X125655392Y-69524918D01*
X125724832Y-69440979D01*
X125825432Y-69319375D01*
X125994562Y-69052869D01*
X125996246Y-69049290D01*
X125996250Y-69049283D01*
X126127267Y-68770856D01*
X126127269Y-68770852D01*
X126128956Y-68767266D01*
X126226495Y-68467072D01*
X126285641Y-68157020D01*
X126305460Y-67842000D01*
X128729496Y-67842000D01*
X128730186Y-67848565D01*
X128747932Y-68017406D01*
X128749458Y-68031928D01*
X128808473Y-68213556D01*
X128903960Y-68378944D01*
X128908378Y-68383851D01*
X128908379Y-68383852D01*
X129001408Y-68487171D01*
X129031747Y-68520866D01*
X129186248Y-68633118D01*
X129192276Y-68635802D01*
X129192278Y-68635803D01*
X129353702Y-68707673D01*
X129360712Y-68710794D01*
X129454112Y-68730647D01*
X129541056Y-68749128D01*
X129541061Y-68749128D01*
X129547513Y-68750500D01*
X129738487Y-68750500D01*
X129744939Y-68749128D01*
X129744944Y-68749128D01*
X129925288Y-68710794D01*
X129925518Y-68711876D01*
X129953150Y-68707500D01*
X134667075Y-68707500D01*
X134686786Y-68709051D01*
X134693673Y-68710142D01*
X134693675Y-68710142D01*
X134700190Y-68711174D01*
X134706778Y-68710829D01*
X134706782Y-68710829D01*
X134766999Y-68707673D01*
X134773593Y-68707500D01*
X134793620Y-68707500D01*
X134796891Y-68707156D01*
X134796895Y-68707156D01*
X134813539Y-68705407D01*
X134820113Y-68704890D01*
X134880316Y-68701735D01*
X134880318Y-68701735D01*
X134886915Y-68701389D01*
X134900028Y-68697875D01*
X134919470Y-68694272D01*
X134920712Y-68694142D01*
X134926385Y-68693546D01*
X134926389Y-68693545D01*
X134932956Y-68692855D01*
X134996581Y-68672182D01*
X135002906Y-68670309D01*
X135010359Y-68668312D01*
X135067524Y-68652994D01*
X135079616Y-68646833D01*
X135097875Y-68639270D01*
X135110785Y-68635075D01*
X135168724Y-68601624D01*
X135174520Y-68598477D01*
X135234125Y-68568107D01*
X135244670Y-68559568D01*
X135260955Y-68548375D01*
X135267002Y-68544884D01*
X135267005Y-68544881D01*
X135272715Y-68541585D01*
X135277615Y-68537173D01*
X135277619Y-68537170D01*
X135322425Y-68496825D01*
X135327446Y-68492537D01*
X135340441Y-68482014D01*
X135343006Y-68479937D01*
X135357153Y-68465790D01*
X135361937Y-68461249D01*
X135406766Y-68420885D01*
X135406767Y-68420883D01*
X135411669Y-68416470D01*
X135419652Y-68405482D01*
X135432489Y-68390454D01*
X136884574Y-66938369D01*
X136899608Y-66925528D01*
X136900100Y-66925171D01*
X137009253Y-66845866D01*
X137059036Y-66790576D01*
X137132621Y-66708852D01*
X137132622Y-66708851D01*
X137137040Y-66703944D01*
X137217874Y-66563936D01*
X137229223Y-66544279D01*
X137229224Y-66544278D01*
X137232527Y-66538556D01*
X137291542Y-66356928D01*
X137294304Y-66330654D01*
X137310814Y-66173565D01*
X137311504Y-66167000D01*
X137291542Y-65977072D01*
X137232527Y-65795444D01*
X137226198Y-65784481D01*
X137161685Y-65672742D01*
X137137040Y-65630056D01*
X137123512Y-65615031D01*
X137013675Y-65493045D01*
X137013674Y-65493044D01*
X137009253Y-65488134D01*
X136854752Y-65375882D01*
X136848724Y-65373198D01*
X136848722Y-65373197D01*
X136686319Y-65300891D01*
X136686318Y-65300891D01*
X136680288Y-65298206D01*
X136586888Y-65278353D01*
X136499944Y-65259872D01*
X136499939Y-65259872D01*
X136493487Y-65258500D01*
X136302513Y-65258500D01*
X136296061Y-65259872D01*
X136296056Y-65259872D01*
X136209112Y-65278353D01*
X136115712Y-65298206D01*
X136109682Y-65300891D01*
X136109681Y-65300891D01*
X135947278Y-65373197D01*
X135947276Y-65373198D01*
X135941248Y-65375882D01*
X135786747Y-65488134D01*
X135782326Y-65493044D01*
X135782325Y-65493045D01*
X135672489Y-65615031D01*
X135658960Y-65630056D01*
X135642608Y-65658379D01*
X135622584Y-65684473D01*
X134415462Y-66891595D01*
X134353150Y-66925621D01*
X134326367Y-66928500D01*
X129746925Y-66928500D01*
X129727214Y-66926949D01*
X129720327Y-66925858D01*
X129720325Y-66925858D01*
X129713810Y-66924826D01*
X129707223Y-66925171D01*
X129707218Y-66925171D01*
X129647008Y-66928327D01*
X129640414Y-66928500D01*
X129620380Y-66928500D01*
X129617106Y-66928844D01*
X129617107Y-66928844D01*
X129600454Y-66930594D01*
X129593880Y-66931111D01*
X129556080Y-66933092D01*
X129556079Y-66933092D01*
X129552671Y-66933271D01*
X129548303Y-66933500D01*
X129548249Y-66932468D01*
X129547188Y-66932275D01*
X129547255Y-66933555D01*
X129533680Y-66934266D01*
X129533676Y-66934267D01*
X129527085Y-66934612D01*
X129516389Y-66937478D01*
X129513977Y-66938124D01*
X129494544Y-66941725D01*
X129487619Y-66942453D01*
X129487610Y-66942455D01*
X129481044Y-66943145D01*
X129447415Y-66954071D01*
X129434691Y-66957480D01*
X129367176Y-66971831D01*
X129367167Y-66971834D01*
X129360712Y-66973206D01*
X129354682Y-66975891D01*
X129354681Y-66975891D01*
X129192278Y-67048197D01*
X129192276Y-67048198D01*
X129186248Y-67050882D01*
X129180907Y-67054762D01*
X129180906Y-67054763D01*
X129143546Y-67081907D01*
X129031747Y-67163134D01*
X129027326Y-67168044D01*
X129027325Y-67168045D01*
X128938210Y-67267018D01*
X128903960Y-67305056D01*
X128900659Y-67310774D01*
X128826682Y-67438906D01*
X128808473Y-67470444D01*
X128749458Y-67652072D01*
X128748768Y-67658633D01*
X128748768Y-67658635D01*
X128738022Y-67760882D01*
X128729496Y-67842000D01*
X126305460Y-67842000D01*
X126285641Y-67526980D01*
X126226495Y-67216928D01*
X126137980Y-66944507D01*
X126130182Y-66920507D01*
X126130182Y-66920506D01*
X126128956Y-66916734D01*
X126127267Y-66913144D01*
X125996250Y-66634717D01*
X125996246Y-66634710D01*
X125994562Y-66631131D01*
X125957940Y-66573424D01*
X125868805Y-66432969D01*
X125849192Y-66364735D01*
X125869583Y-66296730D01*
X125923503Y-66250544D01*
X125993834Y-66240842D01*
X126049249Y-66263518D01*
X126064425Y-66274544D01*
X126102019Y-66301858D01*
X126102023Y-66301861D01*
X126105221Y-66304184D01*
X126108690Y-66306091D01*
X126108693Y-66306093D01*
X126378352Y-66454340D01*
X126381821Y-66456247D01*
X126385490Y-66457700D01*
X126385495Y-66457702D01*
X126573835Y-66532271D01*
X126675298Y-66572443D01*
X126981025Y-66650940D01*
X127294179Y-66690500D01*
X127609821Y-66690500D01*
X127922975Y-66650940D01*
X128228702Y-66572443D01*
X128330165Y-66532271D01*
X128518505Y-66457702D01*
X128518510Y-66457700D01*
X128522179Y-66456247D01*
X128525648Y-66454340D01*
X128795307Y-66306093D01*
X128795310Y-66306091D01*
X128798779Y-66304184D01*
X129017302Y-66145418D01*
X129050936Y-66120982D01*
X129050938Y-66120981D01*
X129054140Y-66118654D01*
X129255732Y-65929346D01*
X129281342Y-65905297D01*
X129281343Y-65905296D01*
X129284233Y-65902582D01*
X129485432Y-65659375D01*
X129654562Y-65392869D01*
X129656246Y-65389290D01*
X129656250Y-65389283D01*
X129787267Y-65110856D01*
X129787269Y-65110852D01*
X129788956Y-65107266D01*
X129797538Y-65080855D01*
X129848123Y-64925170D01*
X129886495Y-64807072D01*
X129945641Y-64497020D01*
X129965460Y-64182000D01*
X129945641Y-63866980D01*
X129886495Y-63556928D01*
X129813868Y-63333406D01*
X129790182Y-63260507D01*
X129790182Y-63260506D01*
X129788956Y-63256734D01*
X129764519Y-63204802D01*
X129656250Y-62974717D01*
X129656246Y-62974710D01*
X129654562Y-62971131D01*
X129485432Y-62704625D01*
X129384833Y-62583022D01*
X129286758Y-62464470D01*
X129286757Y-62464469D01*
X129284233Y-62461418D01*
X129279909Y-62457357D01*
X129245001Y-62424577D01*
X129054140Y-62245346D01*
X128798779Y-62059816D01*
X128762964Y-62040126D01*
X128554490Y-61925516D01*
X128504431Y-61875171D01*
X128489538Y-61805754D01*
X128514539Y-61739305D01*
X128571496Y-61696921D01*
X128626246Y-61690641D01*
X128626302Y-61689755D01*
X128630248Y-61690003D01*
X128634179Y-61690500D01*
X128949821Y-61690500D01*
X129262975Y-61650940D01*
X129568702Y-61572443D01*
X129593575Y-61562595D01*
X129858505Y-61457702D01*
X129858510Y-61457700D01*
X129862179Y-61456247D01*
X129879538Y-61446704D01*
X130135307Y-61306093D01*
X130135310Y-61306091D01*
X130138779Y-61304184D01*
X130346977Y-61152920D01*
X130390936Y-61120982D01*
X130390938Y-61120981D01*
X130394140Y-61118654D01*
X130585001Y-60939423D01*
X130621342Y-60905297D01*
X130621343Y-60905296D01*
X130624233Y-60902582D01*
X130825432Y-60659375D01*
X130994562Y-60392869D01*
X130996246Y-60389290D01*
X130996250Y-60389283D01*
X131111740Y-60143852D01*
X131158842Y-60090731D01*
X131225748Y-60071500D01*
X132421367Y-60071500D01*
X132489488Y-60091502D01*
G37*
%TD.AperFunction*%
%TA.AperFunction,NonConductor*%
G36*
X152483849Y-68911397D02*
G01*
X152521487Y-68957967D01*
X152575750Y-69073283D01*
X152575754Y-69073290D01*
X152577438Y-69076869D01*
X152746568Y-69343375D01*
X152749093Y-69346427D01*
X152925388Y-69559530D01*
X152947767Y-69586582D01*
X153177860Y-69802654D01*
X153181062Y-69804981D01*
X153181064Y-69804982D01*
X153211605Y-69827171D01*
X153433221Y-69988184D01*
X153436690Y-69990091D01*
X153436693Y-69990093D01*
X153693485Y-70131266D01*
X153709821Y-70140247D01*
X153713490Y-70141700D01*
X153713495Y-70141702D01*
X153810884Y-70180261D01*
X153866858Y-70223936D01*
X153890500Y-70297413D01*
X153890500Y-70351367D01*
X153870498Y-70419488D01*
X153853595Y-70440462D01*
X152449462Y-71844595D01*
X152387150Y-71878621D01*
X152360367Y-71881500D01*
X150443872Y-71881500D01*
X150375751Y-71861498D01*
X150329258Y-71807842D01*
X150319154Y-71737568D01*
X150348648Y-71672988D01*
X150412537Y-71633458D01*
X150552881Y-71597424D01*
X150552880Y-71597424D01*
X150556702Y-71596443D01*
X150560372Y-71594990D01*
X150846505Y-71481702D01*
X150846510Y-71481700D01*
X150850179Y-71480247D01*
X150891188Y-71457702D01*
X151123307Y-71330093D01*
X151123310Y-71330091D01*
X151126779Y-71328184D01*
X151382140Y-71142654D01*
X151602408Y-70935808D01*
X151609342Y-70929297D01*
X151609343Y-70929296D01*
X151612233Y-70926582D01*
X151623784Y-70912620D01*
X151773386Y-70731782D01*
X151813432Y-70683375D01*
X151982562Y-70416869D01*
X151984246Y-70413290D01*
X151984250Y-70413283D01*
X152115267Y-70134856D01*
X152115269Y-70134852D01*
X152116956Y-70131266D01*
X152145130Y-70044557D01*
X152213268Y-69834848D01*
X152214495Y-69831072D01*
X152273641Y-69521020D01*
X152293460Y-69206000D01*
X152281728Y-69019526D01*
X152297413Y-68950284D01*
X152348043Y-68900514D01*
X152417544Y-68886018D01*
X152483849Y-68911397D01*
G37*
%TD.AperFunction*%
%TA.AperFunction,NonConductor*%
G36*
X107388560Y-61263018D02*
G01*
X107445221Y-61304184D01*
X107448690Y-61306091D01*
X107448693Y-61306093D01*
X107704462Y-61446704D01*
X107721821Y-61456247D01*
X107725490Y-61457700D01*
X107725495Y-61457702D01*
X107990425Y-61562595D01*
X108015298Y-61572443D01*
X108321025Y-61650940D01*
X108634179Y-61690500D01*
X108949821Y-61690500D01*
X108953752Y-61690003D01*
X108957698Y-61689755D01*
X108957768Y-61690865D01*
X109023099Y-61701398D01*
X109075954Y-61748799D01*
X109094791Y-61817251D01*
X109073630Y-61885021D01*
X109029510Y-61925516D01*
X108821037Y-62040126D01*
X108785221Y-62059816D01*
X108529860Y-62245346D01*
X108338999Y-62424577D01*
X108304092Y-62457357D01*
X108299767Y-62461418D01*
X108297243Y-62464469D01*
X108297242Y-62464470D01*
X108199167Y-62583022D01*
X108098568Y-62704625D01*
X107929438Y-62971131D01*
X107927754Y-62974710D01*
X107927750Y-62974717D01*
X107819481Y-63204802D01*
X107795044Y-63256734D01*
X107793818Y-63260506D01*
X107793818Y-63260507D01*
X107770132Y-63333406D01*
X107697505Y-63556928D01*
X107638359Y-63866980D01*
X107618540Y-64182000D01*
X107638359Y-64497020D01*
X107697505Y-64807072D01*
X107735877Y-64925170D01*
X107786463Y-65080855D01*
X107795044Y-65107266D01*
X107796731Y-65110852D01*
X107796733Y-65110856D01*
X107927750Y-65389283D01*
X107927754Y-65389290D01*
X107929438Y-65392869D01*
X108098568Y-65659375D01*
X108299767Y-65902582D01*
X108302657Y-65905296D01*
X108302658Y-65905297D01*
X108328268Y-65929346D01*
X108529860Y-66118654D01*
X108533062Y-66120981D01*
X108533064Y-66120982D01*
X108566698Y-66145418D01*
X108785221Y-66304184D01*
X108788690Y-66306091D01*
X108788693Y-66306093D01*
X109058352Y-66454340D01*
X109061821Y-66456247D01*
X109065490Y-66457700D01*
X109065495Y-66457702D01*
X109253835Y-66532271D01*
X109355298Y-66572443D01*
X109661025Y-66650940D01*
X109974179Y-66690500D01*
X110289821Y-66690500D01*
X110602975Y-66650940D01*
X110908702Y-66572443D01*
X111010165Y-66532271D01*
X111198505Y-66457702D01*
X111198510Y-66457700D01*
X111202179Y-66456247D01*
X111205648Y-66454340D01*
X111475307Y-66306093D01*
X111475310Y-66306091D01*
X111478779Y-66304184D01*
X111481977Y-66301861D01*
X111481981Y-66301858D01*
X111519575Y-66274544D01*
X111534750Y-66263518D01*
X111601616Y-66239661D01*
X111670768Y-66255741D01*
X111720248Y-66306654D01*
X111734348Y-66376237D01*
X111715195Y-66432969D01*
X111626060Y-66573424D01*
X111589438Y-66631131D01*
X111587754Y-66634710D01*
X111587750Y-66634717D01*
X111456733Y-66913144D01*
X111455044Y-66916734D01*
X111453818Y-66920506D01*
X111453818Y-66920507D01*
X111446020Y-66944507D01*
X111357505Y-67216928D01*
X111298359Y-67526980D01*
X111278540Y-67842000D01*
X111298359Y-68157020D01*
X111357505Y-68467072D01*
X111455044Y-68767266D01*
X111456731Y-68770852D01*
X111456733Y-68770856D01*
X111587750Y-69049283D01*
X111587754Y-69049290D01*
X111589438Y-69052869D01*
X111758568Y-69319375D01*
X111859168Y-69440979D01*
X111928609Y-69524918D01*
X111959767Y-69562582D01*
X111962657Y-69565296D01*
X111962658Y-69565297D01*
X111998999Y-69599423D01*
X112189860Y-69778654D01*
X112193062Y-69780981D01*
X112193064Y-69780982D01*
X112228974Y-69807072D01*
X112445221Y-69964184D01*
X112448690Y-69966091D01*
X112448693Y-69966093D01*
X112705485Y-70107266D01*
X112721821Y-70116247D01*
X112725490Y-70117700D01*
X112725495Y-70117702D01*
X112822884Y-70156261D01*
X112878858Y-70199936D01*
X112902500Y-70273413D01*
X112902500Y-70786075D01*
X112900949Y-70805785D01*
X112898826Y-70819190D01*
X112899171Y-70825778D01*
X112899171Y-70825782D01*
X112902327Y-70885999D01*
X112902500Y-70892593D01*
X112902500Y-70912620D01*
X112902844Y-70915891D01*
X112902844Y-70915895D01*
X112904593Y-70932539D01*
X112905110Y-70939113D01*
X112906427Y-70964240D01*
X112908611Y-71005915D01*
X112910320Y-71012292D01*
X112910320Y-71012293D01*
X112912124Y-71019023D01*
X112915728Y-71038470D01*
X112917145Y-71051956D01*
X112919187Y-71058240D01*
X112937818Y-71115582D01*
X112939691Y-71121906D01*
X112957006Y-71186524D01*
X112963167Y-71198616D01*
X112970730Y-71216875D01*
X112974925Y-71229785D01*
X112994828Y-71264258D01*
X113008376Y-71287724D01*
X113011523Y-71293520D01*
X113041893Y-71353125D01*
X113050432Y-71363670D01*
X113061625Y-71379955D01*
X113065116Y-71386002D01*
X113065119Y-71386005D01*
X113068415Y-71391715D01*
X113072827Y-71396615D01*
X113072830Y-71396619D01*
X113099669Y-71426425D01*
X113112382Y-71440544D01*
X113113175Y-71441425D01*
X113117463Y-71446446D01*
X113130063Y-71462006D01*
X113144210Y-71476153D01*
X113148751Y-71480937D01*
X113187729Y-71524226D01*
X113193530Y-71530669D01*
X113204518Y-71538652D01*
X113219546Y-71551489D01*
X114604462Y-72936405D01*
X114638488Y-72998717D01*
X114633423Y-73069532D01*
X114590876Y-73126368D01*
X114524356Y-73151179D01*
X114515367Y-73151500D01*
X114212633Y-73151500D01*
X114144512Y-73131498D01*
X114123538Y-73114595D01*
X107225405Y-66216462D01*
X107191379Y-66154150D01*
X107188500Y-66127367D01*
X107188500Y-61364954D01*
X107208502Y-61296833D01*
X107262158Y-61250340D01*
X107332432Y-61240236D01*
X107388560Y-61263018D01*
G37*
%TD.AperFunction*%
%TA.AperFunction,NonConductor*%
G36*
X157037249Y-66287518D02*
G01*
X157068461Y-66310195D01*
X157090019Y-66325858D01*
X157090023Y-66325861D01*
X157093221Y-66328184D01*
X157096690Y-66330091D01*
X157096693Y-66330093D01*
X157328812Y-66457702D01*
X157369821Y-66480247D01*
X157373490Y-66481700D01*
X157373495Y-66481702D01*
X157470884Y-66520261D01*
X157526858Y-66563936D01*
X157550500Y-66637413D01*
X157550500Y-69739367D01*
X157530498Y-69807488D01*
X157513595Y-69828462D01*
X152830462Y-74511595D01*
X152768150Y-74545621D01*
X152741367Y-74548500D01*
X140663780Y-74548500D01*
X140595659Y-74528498D01*
X140549166Y-74474842D01*
X140539062Y-74404568D01*
X140543947Y-74383563D01*
X140591503Y-74237203D01*
X140593542Y-74230928D01*
X140613504Y-74041000D01*
X140593542Y-73851072D01*
X140585212Y-73825435D01*
X140583184Y-73754470D01*
X140619846Y-73693672D01*
X140683558Y-73662346D01*
X140705045Y-73660500D01*
X152701075Y-73660500D01*
X152720786Y-73662051D01*
X152727673Y-73663142D01*
X152727675Y-73663142D01*
X152734190Y-73664174D01*
X152740778Y-73663829D01*
X152740782Y-73663829D01*
X152800999Y-73660673D01*
X152807593Y-73660500D01*
X152827620Y-73660500D01*
X152830891Y-73660156D01*
X152830895Y-73660156D01*
X152847539Y-73658407D01*
X152854113Y-73657890D01*
X152914316Y-73654735D01*
X152914318Y-73654735D01*
X152920915Y-73654389D01*
X152934028Y-73650875D01*
X152953470Y-73647272D01*
X152954712Y-73647142D01*
X152960385Y-73646546D01*
X152960389Y-73646545D01*
X152966956Y-73645855D01*
X153030581Y-73625182D01*
X153036906Y-73623309D01*
X153044359Y-73621312D01*
X153101524Y-73605994D01*
X153113616Y-73599833D01*
X153131875Y-73592270D01*
X153144785Y-73588075D01*
X153202724Y-73554624D01*
X153208520Y-73551477D01*
X153268125Y-73521107D01*
X153278670Y-73512568D01*
X153294955Y-73501375D01*
X153301002Y-73497884D01*
X153301005Y-73497881D01*
X153306715Y-73494585D01*
X153311615Y-73490173D01*
X153311619Y-73490170D01*
X153356425Y-73449825D01*
X153361446Y-73445537D01*
X153374441Y-73435014D01*
X153377006Y-73432937D01*
X153391153Y-73418790D01*
X153395937Y-73414249D01*
X153440766Y-73373885D01*
X153440767Y-73373883D01*
X153445669Y-73369470D01*
X153453652Y-73358482D01*
X153466489Y-73343454D01*
X155352454Y-71457489D01*
X155367482Y-71444652D01*
X155378470Y-71436669D01*
X155423249Y-71386937D01*
X155427790Y-71382153D01*
X155441937Y-71368006D01*
X155449820Y-71358271D01*
X155454537Y-71352446D01*
X155458825Y-71347425D01*
X155499170Y-71302619D01*
X155499173Y-71302615D01*
X155503585Y-71297715D01*
X155506881Y-71292005D01*
X155506884Y-71292002D01*
X155510375Y-71285955D01*
X155521568Y-71269670D01*
X155525950Y-71264258D01*
X155530107Y-71259125D01*
X155560477Y-71199520D01*
X155563624Y-71193724D01*
X155573646Y-71176365D01*
X155597075Y-71135785D01*
X155601270Y-71122875D01*
X155608833Y-71104616D01*
X155614994Y-71092524D01*
X155632309Y-71027906D01*
X155634182Y-71021582D01*
X155641336Y-70999565D01*
X155654855Y-70957956D01*
X155656272Y-70944470D01*
X155659876Y-70925023D01*
X155660277Y-70923530D01*
X155663389Y-70911915D01*
X155666890Y-70845113D01*
X155667407Y-70838539D01*
X155669156Y-70821895D01*
X155669156Y-70821891D01*
X155669500Y-70818620D01*
X155669500Y-70798593D01*
X155669673Y-70791999D01*
X155672829Y-70731782D01*
X155672829Y-70731778D01*
X155673174Y-70725190D01*
X155671051Y-70711785D01*
X155669500Y-70692075D01*
X155669500Y-70297413D01*
X155689502Y-70229292D01*
X155749116Y-70180261D01*
X155846505Y-70141702D01*
X155846510Y-70141700D01*
X155850179Y-70140247D01*
X155866515Y-70131266D01*
X156123307Y-69990093D01*
X156123310Y-69990091D01*
X156126779Y-69988184D01*
X156348395Y-69827171D01*
X156378936Y-69804982D01*
X156378938Y-69804981D01*
X156382140Y-69802654D01*
X156612233Y-69586582D01*
X156634613Y-69559530D01*
X156810907Y-69346427D01*
X156813432Y-69343375D01*
X156982562Y-69076869D01*
X156984246Y-69073290D01*
X156984250Y-69073283D01*
X157115267Y-68794856D01*
X157115269Y-68794852D01*
X157116956Y-68791266D01*
X157130648Y-68749128D01*
X157213268Y-68494848D01*
X157214495Y-68491072D01*
X157273641Y-68181020D01*
X157293460Y-67866000D01*
X157273641Y-67550980D01*
X157214495Y-67240928D01*
X157121952Y-66956110D01*
X157118182Y-66944507D01*
X157118182Y-66944506D01*
X157116956Y-66940734D01*
X157115267Y-66937144D01*
X156984250Y-66658717D01*
X156984246Y-66658710D01*
X156982562Y-66655131D01*
X156945940Y-66597424D01*
X156856805Y-66456969D01*
X156837192Y-66388735D01*
X156857583Y-66320730D01*
X156911503Y-66274544D01*
X156981834Y-66264842D01*
X157037249Y-66287518D01*
G37*
%TD.AperFunction*%
%TA.AperFunction,NonConductor*%
G36*
X167602697Y-95633212D02*
G01*
X167637000Y-95695372D01*
X167640000Y-95722704D01*
X167640000Y-96394000D01*
X167619998Y-96462121D01*
X167566342Y-96508614D01*
X167514000Y-96520000D01*
X166842704Y-96520000D01*
X166774583Y-96499998D01*
X166728090Y-96446342D01*
X166717986Y-96376068D01*
X166747480Y-96311488D01*
X166767643Y-96292798D01*
X166854670Y-96228254D01*
X167113586Y-95993586D01*
X167348254Y-95734670D01*
X167412797Y-95647644D01*
X167469442Y-95604846D01*
X167540234Y-95599465D01*
X167602697Y-95633212D01*
G37*
%TD.AperFunction*%
%TA.AperFunction,NonConductor*%
G36*
X101808512Y-95627480D02*
G01*
X101827202Y-95647643D01*
X101891746Y-95734670D01*
X102126414Y-95993586D01*
X102385330Y-96228254D01*
X102472356Y-96292797D01*
X102515154Y-96349442D01*
X102520535Y-96420234D01*
X102486788Y-96482697D01*
X102424628Y-96517000D01*
X102397296Y-96520000D01*
X101726000Y-96520000D01*
X101657879Y-96499998D01*
X101611386Y-96446342D01*
X101600000Y-96394000D01*
X101600000Y-95722704D01*
X101620002Y-95654583D01*
X101673658Y-95608090D01*
X101743932Y-95597986D01*
X101808512Y-95627480D01*
G37*
%TD.AperFunction*%
M02*
