G75*
%MOIN*%
%OFA0B0*%
%FSLAX25Y25*%
%IPPOS*%
%LPD*%
%AMOC8*
5,1,8,0,0,1.08239X$1,22.5*
%
%ADD10C,0.00000*%
%ADD11C,0.01600*%
%ADD12C,0.00004*%
%ADD13C,0.00500*%
D10*
X0012494Y0015766D02*
X0012496Y0015913D01*
X0012502Y0016059D01*
X0012512Y0016205D01*
X0012526Y0016351D01*
X0012544Y0016497D01*
X0012565Y0016642D01*
X0012591Y0016786D01*
X0012621Y0016930D01*
X0012654Y0017072D01*
X0012691Y0017214D01*
X0012732Y0017355D01*
X0012777Y0017494D01*
X0012826Y0017633D01*
X0012878Y0017770D01*
X0012935Y0017905D01*
X0012994Y0018039D01*
X0013058Y0018171D01*
X0013125Y0018301D01*
X0013195Y0018430D01*
X0013269Y0018557D01*
X0013346Y0018681D01*
X0013427Y0018804D01*
X0013511Y0018924D01*
X0013598Y0019042D01*
X0013688Y0019157D01*
X0013781Y0019270D01*
X0013878Y0019381D01*
X0013977Y0019489D01*
X0014079Y0019594D01*
X0014184Y0019696D01*
X0014292Y0019795D01*
X0014403Y0019892D01*
X0014516Y0019985D01*
X0014631Y0020075D01*
X0014749Y0020162D01*
X0014869Y0020246D01*
X0014992Y0020327D01*
X0015116Y0020404D01*
X0015243Y0020478D01*
X0015372Y0020548D01*
X0015502Y0020615D01*
X0015634Y0020679D01*
X0015768Y0020738D01*
X0015903Y0020795D01*
X0016040Y0020847D01*
X0016179Y0020896D01*
X0016318Y0020941D01*
X0016459Y0020982D01*
X0016601Y0021019D01*
X0016743Y0021052D01*
X0016887Y0021082D01*
X0017031Y0021108D01*
X0017176Y0021129D01*
X0017322Y0021147D01*
X0017468Y0021161D01*
X0017614Y0021171D01*
X0017760Y0021177D01*
X0017907Y0021179D01*
X0018054Y0021177D01*
X0018200Y0021171D01*
X0018346Y0021161D01*
X0018492Y0021147D01*
X0018638Y0021129D01*
X0018783Y0021108D01*
X0018927Y0021082D01*
X0019071Y0021052D01*
X0019213Y0021019D01*
X0019355Y0020982D01*
X0019496Y0020941D01*
X0019635Y0020896D01*
X0019774Y0020847D01*
X0019911Y0020795D01*
X0020046Y0020738D01*
X0020180Y0020679D01*
X0020312Y0020615D01*
X0020442Y0020548D01*
X0020571Y0020478D01*
X0020698Y0020404D01*
X0020822Y0020327D01*
X0020945Y0020246D01*
X0021065Y0020162D01*
X0021183Y0020075D01*
X0021298Y0019985D01*
X0021411Y0019892D01*
X0021522Y0019795D01*
X0021630Y0019696D01*
X0021735Y0019594D01*
X0021837Y0019489D01*
X0021936Y0019381D01*
X0022033Y0019270D01*
X0022126Y0019157D01*
X0022216Y0019042D01*
X0022303Y0018924D01*
X0022387Y0018804D01*
X0022468Y0018681D01*
X0022545Y0018557D01*
X0022619Y0018430D01*
X0022689Y0018301D01*
X0022756Y0018171D01*
X0022820Y0018039D01*
X0022879Y0017905D01*
X0022936Y0017770D01*
X0022988Y0017633D01*
X0023037Y0017494D01*
X0023082Y0017355D01*
X0023123Y0017214D01*
X0023160Y0017072D01*
X0023193Y0016930D01*
X0023223Y0016786D01*
X0023249Y0016642D01*
X0023270Y0016497D01*
X0023288Y0016351D01*
X0023302Y0016205D01*
X0023312Y0016059D01*
X0023318Y0015913D01*
X0023320Y0015766D01*
X0023318Y0015619D01*
X0023312Y0015473D01*
X0023302Y0015327D01*
X0023288Y0015181D01*
X0023270Y0015035D01*
X0023249Y0014890D01*
X0023223Y0014746D01*
X0023193Y0014602D01*
X0023160Y0014460D01*
X0023123Y0014318D01*
X0023082Y0014177D01*
X0023037Y0014038D01*
X0022988Y0013899D01*
X0022936Y0013762D01*
X0022879Y0013627D01*
X0022820Y0013493D01*
X0022756Y0013361D01*
X0022689Y0013231D01*
X0022619Y0013102D01*
X0022545Y0012975D01*
X0022468Y0012851D01*
X0022387Y0012728D01*
X0022303Y0012608D01*
X0022216Y0012490D01*
X0022126Y0012375D01*
X0022033Y0012262D01*
X0021936Y0012151D01*
X0021837Y0012043D01*
X0021735Y0011938D01*
X0021630Y0011836D01*
X0021522Y0011737D01*
X0021411Y0011640D01*
X0021298Y0011547D01*
X0021183Y0011457D01*
X0021065Y0011370D01*
X0020945Y0011286D01*
X0020822Y0011205D01*
X0020698Y0011128D01*
X0020571Y0011054D01*
X0020442Y0010984D01*
X0020312Y0010917D01*
X0020180Y0010853D01*
X0020046Y0010794D01*
X0019911Y0010737D01*
X0019774Y0010685D01*
X0019635Y0010636D01*
X0019496Y0010591D01*
X0019355Y0010550D01*
X0019213Y0010513D01*
X0019071Y0010480D01*
X0018927Y0010450D01*
X0018783Y0010424D01*
X0018638Y0010403D01*
X0018492Y0010385D01*
X0018346Y0010371D01*
X0018200Y0010361D01*
X0018054Y0010355D01*
X0017907Y0010353D01*
X0017760Y0010355D01*
X0017614Y0010361D01*
X0017468Y0010371D01*
X0017322Y0010385D01*
X0017176Y0010403D01*
X0017031Y0010424D01*
X0016887Y0010450D01*
X0016743Y0010480D01*
X0016601Y0010513D01*
X0016459Y0010550D01*
X0016318Y0010591D01*
X0016179Y0010636D01*
X0016040Y0010685D01*
X0015903Y0010737D01*
X0015768Y0010794D01*
X0015634Y0010853D01*
X0015502Y0010917D01*
X0015372Y0010984D01*
X0015243Y0011054D01*
X0015116Y0011128D01*
X0014992Y0011205D01*
X0014869Y0011286D01*
X0014749Y0011370D01*
X0014631Y0011457D01*
X0014516Y0011547D01*
X0014403Y0011640D01*
X0014292Y0011737D01*
X0014184Y0011836D01*
X0014079Y0011938D01*
X0013977Y0012043D01*
X0013878Y0012151D01*
X0013781Y0012262D01*
X0013688Y0012375D01*
X0013598Y0012490D01*
X0013511Y0012608D01*
X0013427Y0012728D01*
X0013346Y0012851D01*
X0013269Y0012975D01*
X0013195Y0013102D01*
X0013125Y0013231D01*
X0013058Y0013361D01*
X0012994Y0013493D01*
X0012935Y0013627D01*
X0012878Y0013762D01*
X0012826Y0013899D01*
X0012777Y0014038D01*
X0012732Y0014177D01*
X0012691Y0014318D01*
X0012654Y0014460D01*
X0012621Y0014602D01*
X0012591Y0014746D01*
X0012565Y0014890D01*
X0012544Y0015035D01*
X0012526Y0015181D01*
X0012512Y0015327D01*
X0012502Y0015473D01*
X0012496Y0015619D01*
X0012494Y0015766D01*
X0101041Y0031683D02*
X0101043Y0031784D01*
X0101049Y0031885D01*
X0101059Y0031986D01*
X0101073Y0032086D01*
X0101091Y0032185D01*
X0101113Y0032284D01*
X0101138Y0032382D01*
X0101168Y0032479D01*
X0101201Y0032574D01*
X0101238Y0032668D01*
X0101279Y0032761D01*
X0101323Y0032852D01*
X0101371Y0032941D01*
X0101423Y0033028D01*
X0101478Y0033113D01*
X0101536Y0033195D01*
X0101597Y0033276D01*
X0101662Y0033354D01*
X0101729Y0033429D01*
X0101799Y0033501D01*
X0101873Y0033571D01*
X0101949Y0033638D01*
X0102027Y0033702D01*
X0102108Y0033762D01*
X0102191Y0033819D01*
X0102277Y0033873D01*
X0102365Y0033924D01*
X0102454Y0033971D01*
X0102545Y0034015D01*
X0102638Y0034054D01*
X0102733Y0034091D01*
X0102828Y0034123D01*
X0102925Y0034152D01*
X0103024Y0034176D01*
X0103122Y0034197D01*
X0103222Y0034214D01*
X0103322Y0034227D01*
X0103423Y0034236D01*
X0103524Y0034241D01*
X0103625Y0034242D01*
X0103726Y0034239D01*
X0103827Y0034232D01*
X0103928Y0034221D01*
X0104028Y0034206D01*
X0104127Y0034187D01*
X0104226Y0034164D01*
X0104323Y0034138D01*
X0104420Y0034107D01*
X0104515Y0034073D01*
X0104608Y0034035D01*
X0104701Y0033993D01*
X0104791Y0033948D01*
X0104880Y0033899D01*
X0104966Y0033847D01*
X0105050Y0033791D01*
X0105133Y0033732D01*
X0105212Y0033670D01*
X0105290Y0033605D01*
X0105364Y0033537D01*
X0105436Y0033465D01*
X0105505Y0033392D01*
X0105571Y0033315D01*
X0105634Y0033236D01*
X0105694Y0033154D01*
X0105750Y0033070D01*
X0105803Y0032984D01*
X0105853Y0032896D01*
X0105899Y0032806D01*
X0105942Y0032715D01*
X0105981Y0032621D01*
X0106016Y0032526D01*
X0106047Y0032430D01*
X0106075Y0032333D01*
X0106099Y0032235D01*
X0106119Y0032136D01*
X0106135Y0032036D01*
X0106147Y0031935D01*
X0106155Y0031835D01*
X0106159Y0031734D01*
X0106159Y0031632D01*
X0106155Y0031531D01*
X0106147Y0031431D01*
X0106135Y0031330D01*
X0106119Y0031230D01*
X0106099Y0031131D01*
X0106075Y0031033D01*
X0106047Y0030936D01*
X0106016Y0030840D01*
X0105981Y0030745D01*
X0105942Y0030651D01*
X0105899Y0030560D01*
X0105853Y0030470D01*
X0105803Y0030382D01*
X0105750Y0030296D01*
X0105694Y0030212D01*
X0105634Y0030130D01*
X0105571Y0030051D01*
X0105505Y0029974D01*
X0105436Y0029901D01*
X0105364Y0029829D01*
X0105290Y0029761D01*
X0105212Y0029696D01*
X0105133Y0029634D01*
X0105050Y0029575D01*
X0104966Y0029519D01*
X0104879Y0029467D01*
X0104791Y0029418D01*
X0104701Y0029373D01*
X0104608Y0029331D01*
X0104515Y0029293D01*
X0104420Y0029259D01*
X0104323Y0029228D01*
X0104226Y0029202D01*
X0104127Y0029179D01*
X0104028Y0029160D01*
X0103928Y0029145D01*
X0103827Y0029134D01*
X0103726Y0029127D01*
X0103625Y0029124D01*
X0103524Y0029125D01*
X0103423Y0029130D01*
X0103322Y0029139D01*
X0103222Y0029152D01*
X0103122Y0029169D01*
X0103024Y0029190D01*
X0102925Y0029214D01*
X0102828Y0029243D01*
X0102733Y0029275D01*
X0102638Y0029312D01*
X0102545Y0029351D01*
X0102454Y0029395D01*
X0102365Y0029442D01*
X0102277Y0029493D01*
X0102191Y0029547D01*
X0102108Y0029604D01*
X0102027Y0029664D01*
X0101949Y0029728D01*
X0101873Y0029795D01*
X0101799Y0029865D01*
X0101729Y0029937D01*
X0101662Y0030012D01*
X0101597Y0030090D01*
X0101536Y0030171D01*
X0101478Y0030253D01*
X0101423Y0030338D01*
X0101371Y0030425D01*
X0101323Y0030514D01*
X0101279Y0030605D01*
X0101238Y0030698D01*
X0101201Y0030792D01*
X0101168Y0030887D01*
X0101138Y0030984D01*
X0101113Y0031082D01*
X0101091Y0031181D01*
X0101073Y0031280D01*
X0101059Y0031380D01*
X0101049Y0031481D01*
X0101043Y0031582D01*
X0101041Y0031683D01*
X0171041Y0068289D02*
X0171043Y0068390D01*
X0171049Y0068491D01*
X0171059Y0068592D01*
X0171073Y0068692D01*
X0171091Y0068791D01*
X0171113Y0068890D01*
X0171138Y0068988D01*
X0171168Y0069085D01*
X0171201Y0069180D01*
X0171238Y0069274D01*
X0171279Y0069367D01*
X0171323Y0069458D01*
X0171371Y0069547D01*
X0171423Y0069634D01*
X0171478Y0069719D01*
X0171536Y0069801D01*
X0171597Y0069882D01*
X0171662Y0069960D01*
X0171729Y0070035D01*
X0171799Y0070107D01*
X0171873Y0070177D01*
X0171949Y0070244D01*
X0172027Y0070308D01*
X0172108Y0070368D01*
X0172191Y0070425D01*
X0172277Y0070479D01*
X0172365Y0070530D01*
X0172454Y0070577D01*
X0172545Y0070621D01*
X0172638Y0070660D01*
X0172733Y0070697D01*
X0172828Y0070729D01*
X0172925Y0070758D01*
X0173024Y0070782D01*
X0173122Y0070803D01*
X0173222Y0070820D01*
X0173322Y0070833D01*
X0173423Y0070842D01*
X0173524Y0070847D01*
X0173625Y0070848D01*
X0173726Y0070845D01*
X0173827Y0070838D01*
X0173928Y0070827D01*
X0174028Y0070812D01*
X0174127Y0070793D01*
X0174226Y0070770D01*
X0174323Y0070744D01*
X0174420Y0070713D01*
X0174515Y0070679D01*
X0174608Y0070641D01*
X0174701Y0070599D01*
X0174791Y0070554D01*
X0174880Y0070505D01*
X0174966Y0070453D01*
X0175050Y0070397D01*
X0175133Y0070338D01*
X0175212Y0070276D01*
X0175290Y0070211D01*
X0175364Y0070143D01*
X0175436Y0070071D01*
X0175505Y0069998D01*
X0175571Y0069921D01*
X0175634Y0069842D01*
X0175694Y0069760D01*
X0175750Y0069676D01*
X0175803Y0069590D01*
X0175853Y0069502D01*
X0175899Y0069412D01*
X0175942Y0069321D01*
X0175981Y0069227D01*
X0176016Y0069132D01*
X0176047Y0069036D01*
X0176075Y0068939D01*
X0176099Y0068841D01*
X0176119Y0068742D01*
X0176135Y0068642D01*
X0176147Y0068541D01*
X0176155Y0068441D01*
X0176159Y0068340D01*
X0176159Y0068238D01*
X0176155Y0068137D01*
X0176147Y0068037D01*
X0176135Y0067936D01*
X0176119Y0067836D01*
X0176099Y0067737D01*
X0176075Y0067639D01*
X0176047Y0067542D01*
X0176016Y0067446D01*
X0175981Y0067351D01*
X0175942Y0067257D01*
X0175899Y0067166D01*
X0175853Y0067076D01*
X0175803Y0066988D01*
X0175750Y0066902D01*
X0175694Y0066818D01*
X0175634Y0066736D01*
X0175571Y0066657D01*
X0175505Y0066580D01*
X0175436Y0066507D01*
X0175364Y0066435D01*
X0175290Y0066367D01*
X0175212Y0066302D01*
X0175133Y0066240D01*
X0175050Y0066181D01*
X0174966Y0066125D01*
X0174879Y0066073D01*
X0174791Y0066024D01*
X0174701Y0065979D01*
X0174608Y0065937D01*
X0174515Y0065899D01*
X0174420Y0065865D01*
X0174323Y0065834D01*
X0174226Y0065808D01*
X0174127Y0065785D01*
X0174028Y0065766D01*
X0173928Y0065751D01*
X0173827Y0065740D01*
X0173726Y0065733D01*
X0173625Y0065730D01*
X0173524Y0065731D01*
X0173423Y0065736D01*
X0173322Y0065745D01*
X0173222Y0065758D01*
X0173122Y0065775D01*
X0173024Y0065796D01*
X0172925Y0065820D01*
X0172828Y0065849D01*
X0172733Y0065881D01*
X0172638Y0065918D01*
X0172545Y0065957D01*
X0172454Y0066001D01*
X0172365Y0066048D01*
X0172277Y0066099D01*
X0172191Y0066153D01*
X0172108Y0066210D01*
X0172027Y0066270D01*
X0171949Y0066334D01*
X0171873Y0066401D01*
X0171799Y0066471D01*
X0171729Y0066543D01*
X0171662Y0066618D01*
X0171597Y0066696D01*
X0171536Y0066777D01*
X0171478Y0066859D01*
X0171423Y0066944D01*
X0171371Y0067031D01*
X0171323Y0067120D01*
X0171279Y0067211D01*
X0171238Y0067304D01*
X0171201Y0067398D01*
X0171168Y0067493D01*
X0171138Y0067590D01*
X0171113Y0067688D01*
X0171091Y0067787D01*
X0171073Y0067886D01*
X0171059Y0067986D01*
X0171049Y0068087D01*
X0171043Y0068188D01*
X0171041Y0068289D01*
X0205407Y0015766D02*
X0205409Y0015913D01*
X0205415Y0016059D01*
X0205425Y0016205D01*
X0205439Y0016351D01*
X0205457Y0016497D01*
X0205478Y0016642D01*
X0205504Y0016786D01*
X0205534Y0016930D01*
X0205567Y0017072D01*
X0205604Y0017214D01*
X0205645Y0017355D01*
X0205690Y0017494D01*
X0205739Y0017633D01*
X0205791Y0017770D01*
X0205848Y0017905D01*
X0205907Y0018039D01*
X0205971Y0018171D01*
X0206038Y0018301D01*
X0206108Y0018430D01*
X0206182Y0018557D01*
X0206259Y0018681D01*
X0206340Y0018804D01*
X0206424Y0018924D01*
X0206511Y0019042D01*
X0206601Y0019157D01*
X0206694Y0019270D01*
X0206791Y0019381D01*
X0206890Y0019489D01*
X0206992Y0019594D01*
X0207097Y0019696D01*
X0207205Y0019795D01*
X0207316Y0019892D01*
X0207429Y0019985D01*
X0207544Y0020075D01*
X0207662Y0020162D01*
X0207782Y0020246D01*
X0207905Y0020327D01*
X0208029Y0020404D01*
X0208156Y0020478D01*
X0208285Y0020548D01*
X0208415Y0020615D01*
X0208547Y0020679D01*
X0208681Y0020738D01*
X0208816Y0020795D01*
X0208953Y0020847D01*
X0209092Y0020896D01*
X0209231Y0020941D01*
X0209372Y0020982D01*
X0209514Y0021019D01*
X0209656Y0021052D01*
X0209800Y0021082D01*
X0209944Y0021108D01*
X0210089Y0021129D01*
X0210235Y0021147D01*
X0210381Y0021161D01*
X0210527Y0021171D01*
X0210673Y0021177D01*
X0210820Y0021179D01*
X0210967Y0021177D01*
X0211113Y0021171D01*
X0211259Y0021161D01*
X0211405Y0021147D01*
X0211551Y0021129D01*
X0211696Y0021108D01*
X0211840Y0021082D01*
X0211984Y0021052D01*
X0212126Y0021019D01*
X0212268Y0020982D01*
X0212409Y0020941D01*
X0212548Y0020896D01*
X0212687Y0020847D01*
X0212824Y0020795D01*
X0212959Y0020738D01*
X0213093Y0020679D01*
X0213225Y0020615D01*
X0213355Y0020548D01*
X0213484Y0020478D01*
X0213611Y0020404D01*
X0213735Y0020327D01*
X0213858Y0020246D01*
X0213978Y0020162D01*
X0214096Y0020075D01*
X0214211Y0019985D01*
X0214324Y0019892D01*
X0214435Y0019795D01*
X0214543Y0019696D01*
X0214648Y0019594D01*
X0214750Y0019489D01*
X0214849Y0019381D01*
X0214946Y0019270D01*
X0215039Y0019157D01*
X0215129Y0019042D01*
X0215216Y0018924D01*
X0215300Y0018804D01*
X0215381Y0018681D01*
X0215458Y0018557D01*
X0215532Y0018430D01*
X0215602Y0018301D01*
X0215669Y0018171D01*
X0215733Y0018039D01*
X0215792Y0017905D01*
X0215849Y0017770D01*
X0215901Y0017633D01*
X0215950Y0017494D01*
X0215995Y0017355D01*
X0216036Y0017214D01*
X0216073Y0017072D01*
X0216106Y0016930D01*
X0216136Y0016786D01*
X0216162Y0016642D01*
X0216183Y0016497D01*
X0216201Y0016351D01*
X0216215Y0016205D01*
X0216225Y0016059D01*
X0216231Y0015913D01*
X0216233Y0015766D01*
X0216231Y0015619D01*
X0216225Y0015473D01*
X0216215Y0015327D01*
X0216201Y0015181D01*
X0216183Y0015035D01*
X0216162Y0014890D01*
X0216136Y0014746D01*
X0216106Y0014602D01*
X0216073Y0014460D01*
X0216036Y0014318D01*
X0215995Y0014177D01*
X0215950Y0014038D01*
X0215901Y0013899D01*
X0215849Y0013762D01*
X0215792Y0013627D01*
X0215733Y0013493D01*
X0215669Y0013361D01*
X0215602Y0013231D01*
X0215532Y0013102D01*
X0215458Y0012975D01*
X0215381Y0012851D01*
X0215300Y0012728D01*
X0215216Y0012608D01*
X0215129Y0012490D01*
X0215039Y0012375D01*
X0214946Y0012262D01*
X0214849Y0012151D01*
X0214750Y0012043D01*
X0214648Y0011938D01*
X0214543Y0011836D01*
X0214435Y0011737D01*
X0214324Y0011640D01*
X0214211Y0011547D01*
X0214096Y0011457D01*
X0213978Y0011370D01*
X0213858Y0011286D01*
X0213735Y0011205D01*
X0213611Y0011128D01*
X0213484Y0011054D01*
X0213355Y0010984D01*
X0213225Y0010917D01*
X0213093Y0010853D01*
X0212959Y0010794D01*
X0212824Y0010737D01*
X0212687Y0010685D01*
X0212548Y0010636D01*
X0212409Y0010591D01*
X0212268Y0010550D01*
X0212126Y0010513D01*
X0211984Y0010480D01*
X0211840Y0010450D01*
X0211696Y0010424D01*
X0211551Y0010403D01*
X0211405Y0010385D01*
X0211259Y0010371D01*
X0211113Y0010361D01*
X0210967Y0010355D01*
X0210820Y0010353D01*
X0210673Y0010355D01*
X0210527Y0010361D01*
X0210381Y0010371D01*
X0210235Y0010385D01*
X0210089Y0010403D01*
X0209944Y0010424D01*
X0209800Y0010450D01*
X0209656Y0010480D01*
X0209514Y0010513D01*
X0209372Y0010550D01*
X0209231Y0010591D01*
X0209092Y0010636D01*
X0208953Y0010685D01*
X0208816Y0010737D01*
X0208681Y0010794D01*
X0208547Y0010853D01*
X0208415Y0010917D01*
X0208285Y0010984D01*
X0208156Y0011054D01*
X0208029Y0011128D01*
X0207905Y0011205D01*
X0207782Y0011286D01*
X0207662Y0011370D01*
X0207544Y0011457D01*
X0207429Y0011547D01*
X0207316Y0011640D01*
X0207205Y0011737D01*
X0207097Y0011836D01*
X0206992Y0011938D01*
X0206890Y0012043D01*
X0206791Y0012151D01*
X0206694Y0012262D01*
X0206601Y0012375D01*
X0206511Y0012490D01*
X0206424Y0012608D01*
X0206340Y0012728D01*
X0206259Y0012851D01*
X0206182Y0012975D01*
X0206108Y0013102D01*
X0206038Y0013231D01*
X0205971Y0013361D01*
X0205907Y0013493D01*
X0205848Y0013627D01*
X0205791Y0013762D01*
X0205739Y0013899D01*
X0205690Y0014038D01*
X0205645Y0014177D01*
X0205604Y0014318D01*
X0205567Y0014460D01*
X0205534Y0014602D01*
X0205504Y0014746D01*
X0205478Y0014890D01*
X0205457Y0015035D01*
X0205439Y0015181D01*
X0205425Y0015327D01*
X0205415Y0015473D01*
X0205409Y0015619D01*
X0205407Y0015766D01*
X0367910Y0053616D02*
X0367912Y0053819D01*
X0367920Y0054022D01*
X0367932Y0054224D01*
X0367950Y0054426D01*
X0367972Y0054628D01*
X0367999Y0054829D01*
X0368032Y0055030D01*
X0368069Y0055229D01*
X0368111Y0055428D01*
X0368158Y0055625D01*
X0368209Y0055821D01*
X0368266Y0056016D01*
X0368327Y0056210D01*
X0368393Y0056401D01*
X0368464Y0056592D01*
X0368539Y0056780D01*
X0368619Y0056967D01*
X0368704Y0057151D01*
X0368793Y0057333D01*
X0368886Y0057514D01*
X0368984Y0057691D01*
X0369086Y0057867D01*
X0369193Y0058039D01*
X0369303Y0058209D01*
X0369418Y0058377D01*
X0369537Y0058541D01*
X0369660Y0058703D01*
X0369787Y0058861D01*
X0369917Y0059016D01*
X0370052Y0059168D01*
X0370190Y0059317D01*
X0370332Y0059462D01*
X0370477Y0059604D01*
X0370626Y0059742D01*
X0370778Y0059877D01*
X0370933Y0060007D01*
X0371091Y0060134D01*
X0371253Y0060257D01*
X0371417Y0060376D01*
X0371585Y0060491D01*
X0371755Y0060601D01*
X0371927Y0060708D01*
X0372103Y0060810D01*
X0372280Y0060908D01*
X0372461Y0061001D01*
X0372643Y0061090D01*
X0372827Y0061175D01*
X0373014Y0061255D01*
X0373202Y0061330D01*
X0373393Y0061401D01*
X0373584Y0061467D01*
X0373778Y0061528D01*
X0373973Y0061585D01*
X0374169Y0061636D01*
X0374366Y0061683D01*
X0374565Y0061725D01*
X0374764Y0061762D01*
X0374965Y0061795D01*
X0375166Y0061822D01*
X0375368Y0061844D01*
X0375570Y0061862D01*
X0375772Y0061874D01*
X0375975Y0061882D01*
X0376178Y0061884D01*
X0376381Y0061882D01*
X0376584Y0061874D01*
X0376786Y0061862D01*
X0376988Y0061844D01*
X0377190Y0061822D01*
X0377391Y0061795D01*
X0377592Y0061762D01*
X0377791Y0061725D01*
X0377990Y0061683D01*
X0378187Y0061636D01*
X0378383Y0061585D01*
X0378578Y0061528D01*
X0378772Y0061467D01*
X0378963Y0061401D01*
X0379154Y0061330D01*
X0379342Y0061255D01*
X0379529Y0061175D01*
X0379713Y0061090D01*
X0379895Y0061001D01*
X0380076Y0060908D01*
X0380253Y0060810D01*
X0380429Y0060708D01*
X0380601Y0060601D01*
X0380771Y0060491D01*
X0380939Y0060376D01*
X0381103Y0060257D01*
X0381265Y0060134D01*
X0381423Y0060007D01*
X0381578Y0059877D01*
X0381730Y0059742D01*
X0381879Y0059604D01*
X0382024Y0059462D01*
X0382166Y0059317D01*
X0382304Y0059168D01*
X0382439Y0059016D01*
X0382569Y0058861D01*
X0382696Y0058703D01*
X0382819Y0058541D01*
X0382938Y0058377D01*
X0383053Y0058209D01*
X0383163Y0058039D01*
X0383270Y0057867D01*
X0383372Y0057691D01*
X0383470Y0057514D01*
X0383563Y0057333D01*
X0383652Y0057151D01*
X0383737Y0056967D01*
X0383817Y0056780D01*
X0383892Y0056592D01*
X0383963Y0056401D01*
X0384029Y0056210D01*
X0384090Y0056016D01*
X0384147Y0055821D01*
X0384198Y0055625D01*
X0384245Y0055428D01*
X0384287Y0055229D01*
X0384324Y0055030D01*
X0384357Y0054829D01*
X0384384Y0054628D01*
X0384406Y0054426D01*
X0384424Y0054224D01*
X0384436Y0054022D01*
X0384444Y0053819D01*
X0384446Y0053616D01*
X0384444Y0053413D01*
X0384436Y0053210D01*
X0384424Y0053008D01*
X0384406Y0052806D01*
X0384384Y0052604D01*
X0384357Y0052403D01*
X0384324Y0052202D01*
X0384287Y0052003D01*
X0384245Y0051804D01*
X0384198Y0051607D01*
X0384147Y0051411D01*
X0384090Y0051216D01*
X0384029Y0051022D01*
X0383963Y0050831D01*
X0383892Y0050640D01*
X0383817Y0050452D01*
X0383737Y0050265D01*
X0383652Y0050081D01*
X0383563Y0049899D01*
X0383470Y0049718D01*
X0383372Y0049541D01*
X0383270Y0049365D01*
X0383163Y0049193D01*
X0383053Y0049023D01*
X0382938Y0048855D01*
X0382819Y0048691D01*
X0382696Y0048529D01*
X0382569Y0048371D01*
X0382439Y0048216D01*
X0382304Y0048064D01*
X0382166Y0047915D01*
X0382024Y0047770D01*
X0381879Y0047628D01*
X0381730Y0047490D01*
X0381578Y0047355D01*
X0381423Y0047225D01*
X0381265Y0047098D01*
X0381103Y0046975D01*
X0380939Y0046856D01*
X0380771Y0046741D01*
X0380601Y0046631D01*
X0380429Y0046524D01*
X0380253Y0046422D01*
X0380076Y0046324D01*
X0379895Y0046231D01*
X0379713Y0046142D01*
X0379529Y0046057D01*
X0379342Y0045977D01*
X0379154Y0045902D01*
X0378963Y0045831D01*
X0378772Y0045765D01*
X0378578Y0045704D01*
X0378383Y0045647D01*
X0378187Y0045596D01*
X0377990Y0045549D01*
X0377791Y0045507D01*
X0377592Y0045470D01*
X0377391Y0045437D01*
X0377190Y0045410D01*
X0376988Y0045388D01*
X0376786Y0045370D01*
X0376584Y0045358D01*
X0376381Y0045350D01*
X0376178Y0045348D01*
X0375975Y0045350D01*
X0375772Y0045358D01*
X0375570Y0045370D01*
X0375368Y0045388D01*
X0375166Y0045410D01*
X0374965Y0045437D01*
X0374764Y0045470D01*
X0374565Y0045507D01*
X0374366Y0045549D01*
X0374169Y0045596D01*
X0373973Y0045647D01*
X0373778Y0045704D01*
X0373584Y0045765D01*
X0373393Y0045831D01*
X0373202Y0045902D01*
X0373014Y0045977D01*
X0372827Y0046057D01*
X0372643Y0046142D01*
X0372461Y0046231D01*
X0372280Y0046324D01*
X0372103Y0046422D01*
X0371927Y0046524D01*
X0371755Y0046631D01*
X0371585Y0046741D01*
X0371417Y0046856D01*
X0371253Y0046975D01*
X0371091Y0047098D01*
X0370933Y0047225D01*
X0370778Y0047355D01*
X0370626Y0047490D01*
X0370477Y0047628D01*
X0370332Y0047770D01*
X0370190Y0047915D01*
X0370052Y0048064D01*
X0369917Y0048216D01*
X0369787Y0048371D01*
X0369660Y0048529D01*
X0369537Y0048691D01*
X0369418Y0048855D01*
X0369303Y0049023D01*
X0369193Y0049193D01*
X0369086Y0049365D01*
X0368984Y0049541D01*
X0368886Y0049718D01*
X0368793Y0049899D01*
X0368704Y0050081D01*
X0368619Y0050265D01*
X0368539Y0050452D01*
X0368464Y0050640D01*
X0368393Y0050831D01*
X0368327Y0051022D01*
X0368266Y0051216D01*
X0368209Y0051411D01*
X0368158Y0051607D01*
X0368111Y0051804D01*
X0368069Y0052003D01*
X0368032Y0052202D01*
X0367999Y0052403D01*
X0367972Y0052604D01*
X0367950Y0052806D01*
X0367932Y0053008D01*
X0367920Y0053210D01*
X0367912Y0053413D01*
X0367910Y0053616D01*
X0420407Y0015766D02*
X0420409Y0015913D01*
X0420415Y0016059D01*
X0420425Y0016205D01*
X0420439Y0016351D01*
X0420457Y0016497D01*
X0420478Y0016642D01*
X0420504Y0016786D01*
X0420534Y0016930D01*
X0420567Y0017072D01*
X0420604Y0017214D01*
X0420645Y0017355D01*
X0420690Y0017494D01*
X0420739Y0017633D01*
X0420791Y0017770D01*
X0420848Y0017905D01*
X0420907Y0018039D01*
X0420971Y0018171D01*
X0421038Y0018301D01*
X0421108Y0018430D01*
X0421182Y0018557D01*
X0421259Y0018681D01*
X0421340Y0018804D01*
X0421424Y0018924D01*
X0421511Y0019042D01*
X0421601Y0019157D01*
X0421694Y0019270D01*
X0421791Y0019381D01*
X0421890Y0019489D01*
X0421992Y0019594D01*
X0422097Y0019696D01*
X0422205Y0019795D01*
X0422316Y0019892D01*
X0422429Y0019985D01*
X0422544Y0020075D01*
X0422662Y0020162D01*
X0422782Y0020246D01*
X0422905Y0020327D01*
X0423029Y0020404D01*
X0423156Y0020478D01*
X0423285Y0020548D01*
X0423415Y0020615D01*
X0423547Y0020679D01*
X0423681Y0020738D01*
X0423816Y0020795D01*
X0423953Y0020847D01*
X0424092Y0020896D01*
X0424231Y0020941D01*
X0424372Y0020982D01*
X0424514Y0021019D01*
X0424656Y0021052D01*
X0424800Y0021082D01*
X0424944Y0021108D01*
X0425089Y0021129D01*
X0425235Y0021147D01*
X0425381Y0021161D01*
X0425527Y0021171D01*
X0425673Y0021177D01*
X0425820Y0021179D01*
X0425967Y0021177D01*
X0426113Y0021171D01*
X0426259Y0021161D01*
X0426405Y0021147D01*
X0426551Y0021129D01*
X0426696Y0021108D01*
X0426840Y0021082D01*
X0426984Y0021052D01*
X0427126Y0021019D01*
X0427268Y0020982D01*
X0427409Y0020941D01*
X0427548Y0020896D01*
X0427687Y0020847D01*
X0427824Y0020795D01*
X0427959Y0020738D01*
X0428093Y0020679D01*
X0428225Y0020615D01*
X0428355Y0020548D01*
X0428484Y0020478D01*
X0428611Y0020404D01*
X0428735Y0020327D01*
X0428858Y0020246D01*
X0428978Y0020162D01*
X0429096Y0020075D01*
X0429211Y0019985D01*
X0429324Y0019892D01*
X0429435Y0019795D01*
X0429543Y0019696D01*
X0429648Y0019594D01*
X0429750Y0019489D01*
X0429849Y0019381D01*
X0429946Y0019270D01*
X0430039Y0019157D01*
X0430129Y0019042D01*
X0430216Y0018924D01*
X0430300Y0018804D01*
X0430381Y0018681D01*
X0430458Y0018557D01*
X0430532Y0018430D01*
X0430602Y0018301D01*
X0430669Y0018171D01*
X0430733Y0018039D01*
X0430792Y0017905D01*
X0430849Y0017770D01*
X0430901Y0017633D01*
X0430950Y0017494D01*
X0430995Y0017355D01*
X0431036Y0017214D01*
X0431073Y0017072D01*
X0431106Y0016930D01*
X0431136Y0016786D01*
X0431162Y0016642D01*
X0431183Y0016497D01*
X0431201Y0016351D01*
X0431215Y0016205D01*
X0431225Y0016059D01*
X0431231Y0015913D01*
X0431233Y0015766D01*
X0431231Y0015619D01*
X0431225Y0015473D01*
X0431215Y0015327D01*
X0431201Y0015181D01*
X0431183Y0015035D01*
X0431162Y0014890D01*
X0431136Y0014746D01*
X0431106Y0014602D01*
X0431073Y0014460D01*
X0431036Y0014318D01*
X0430995Y0014177D01*
X0430950Y0014038D01*
X0430901Y0013899D01*
X0430849Y0013762D01*
X0430792Y0013627D01*
X0430733Y0013493D01*
X0430669Y0013361D01*
X0430602Y0013231D01*
X0430532Y0013102D01*
X0430458Y0012975D01*
X0430381Y0012851D01*
X0430300Y0012728D01*
X0430216Y0012608D01*
X0430129Y0012490D01*
X0430039Y0012375D01*
X0429946Y0012262D01*
X0429849Y0012151D01*
X0429750Y0012043D01*
X0429648Y0011938D01*
X0429543Y0011836D01*
X0429435Y0011737D01*
X0429324Y0011640D01*
X0429211Y0011547D01*
X0429096Y0011457D01*
X0428978Y0011370D01*
X0428858Y0011286D01*
X0428735Y0011205D01*
X0428611Y0011128D01*
X0428484Y0011054D01*
X0428355Y0010984D01*
X0428225Y0010917D01*
X0428093Y0010853D01*
X0427959Y0010794D01*
X0427824Y0010737D01*
X0427687Y0010685D01*
X0427548Y0010636D01*
X0427409Y0010591D01*
X0427268Y0010550D01*
X0427126Y0010513D01*
X0426984Y0010480D01*
X0426840Y0010450D01*
X0426696Y0010424D01*
X0426551Y0010403D01*
X0426405Y0010385D01*
X0426259Y0010371D01*
X0426113Y0010361D01*
X0425967Y0010355D01*
X0425820Y0010353D01*
X0425673Y0010355D01*
X0425527Y0010361D01*
X0425381Y0010371D01*
X0425235Y0010385D01*
X0425089Y0010403D01*
X0424944Y0010424D01*
X0424800Y0010450D01*
X0424656Y0010480D01*
X0424514Y0010513D01*
X0424372Y0010550D01*
X0424231Y0010591D01*
X0424092Y0010636D01*
X0423953Y0010685D01*
X0423816Y0010737D01*
X0423681Y0010794D01*
X0423547Y0010853D01*
X0423415Y0010917D01*
X0423285Y0010984D01*
X0423156Y0011054D01*
X0423029Y0011128D01*
X0422905Y0011205D01*
X0422782Y0011286D01*
X0422662Y0011370D01*
X0422544Y0011457D01*
X0422429Y0011547D01*
X0422316Y0011640D01*
X0422205Y0011737D01*
X0422097Y0011836D01*
X0421992Y0011938D01*
X0421890Y0012043D01*
X0421791Y0012151D01*
X0421694Y0012262D01*
X0421601Y0012375D01*
X0421511Y0012490D01*
X0421424Y0012608D01*
X0421340Y0012728D01*
X0421259Y0012851D01*
X0421182Y0012975D01*
X0421108Y0013102D01*
X0421038Y0013231D01*
X0420971Y0013361D01*
X0420907Y0013493D01*
X0420848Y0013627D01*
X0420791Y0013762D01*
X0420739Y0013899D01*
X0420690Y0014038D01*
X0420645Y0014177D01*
X0420604Y0014318D01*
X0420567Y0014460D01*
X0420534Y0014602D01*
X0420504Y0014746D01*
X0420478Y0014890D01*
X0420457Y0015035D01*
X0420439Y0015181D01*
X0420425Y0015327D01*
X0420415Y0015473D01*
X0420409Y0015619D01*
X0420407Y0015766D01*
X0460907Y0231612D02*
X0460909Y0231759D01*
X0460915Y0231905D01*
X0460925Y0232051D01*
X0460939Y0232197D01*
X0460957Y0232343D01*
X0460978Y0232488D01*
X0461004Y0232632D01*
X0461034Y0232776D01*
X0461067Y0232918D01*
X0461104Y0233060D01*
X0461145Y0233201D01*
X0461190Y0233340D01*
X0461239Y0233479D01*
X0461291Y0233616D01*
X0461348Y0233751D01*
X0461407Y0233885D01*
X0461471Y0234017D01*
X0461538Y0234147D01*
X0461608Y0234276D01*
X0461682Y0234403D01*
X0461759Y0234527D01*
X0461840Y0234650D01*
X0461924Y0234770D01*
X0462011Y0234888D01*
X0462101Y0235003D01*
X0462194Y0235116D01*
X0462291Y0235227D01*
X0462390Y0235335D01*
X0462492Y0235440D01*
X0462597Y0235542D01*
X0462705Y0235641D01*
X0462816Y0235738D01*
X0462929Y0235831D01*
X0463044Y0235921D01*
X0463162Y0236008D01*
X0463282Y0236092D01*
X0463405Y0236173D01*
X0463529Y0236250D01*
X0463656Y0236324D01*
X0463785Y0236394D01*
X0463915Y0236461D01*
X0464047Y0236525D01*
X0464181Y0236584D01*
X0464316Y0236641D01*
X0464453Y0236693D01*
X0464592Y0236742D01*
X0464731Y0236787D01*
X0464872Y0236828D01*
X0465014Y0236865D01*
X0465156Y0236898D01*
X0465300Y0236928D01*
X0465444Y0236954D01*
X0465589Y0236975D01*
X0465735Y0236993D01*
X0465881Y0237007D01*
X0466027Y0237017D01*
X0466173Y0237023D01*
X0466320Y0237025D01*
X0466467Y0237023D01*
X0466613Y0237017D01*
X0466759Y0237007D01*
X0466905Y0236993D01*
X0467051Y0236975D01*
X0467196Y0236954D01*
X0467340Y0236928D01*
X0467484Y0236898D01*
X0467626Y0236865D01*
X0467768Y0236828D01*
X0467909Y0236787D01*
X0468048Y0236742D01*
X0468187Y0236693D01*
X0468324Y0236641D01*
X0468459Y0236584D01*
X0468593Y0236525D01*
X0468725Y0236461D01*
X0468855Y0236394D01*
X0468984Y0236324D01*
X0469111Y0236250D01*
X0469235Y0236173D01*
X0469358Y0236092D01*
X0469478Y0236008D01*
X0469596Y0235921D01*
X0469711Y0235831D01*
X0469824Y0235738D01*
X0469935Y0235641D01*
X0470043Y0235542D01*
X0470148Y0235440D01*
X0470250Y0235335D01*
X0470349Y0235227D01*
X0470446Y0235116D01*
X0470539Y0235003D01*
X0470629Y0234888D01*
X0470716Y0234770D01*
X0470800Y0234650D01*
X0470881Y0234527D01*
X0470958Y0234403D01*
X0471032Y0234276D01*
X0471102Y0234147D01*
X0471169Y0234017D01*
X0471233Y0233885D01*
X0471292Y0233751D01*
X0471349Y0233616D01*
X0471401Y0233479D01*
X0471450Y0233340D01*
X0471495Y0233201D01*
X0471536Y0233060D01*
X0471573Y0232918D01*
X0471606Y0232776D01*
X0471636Y0232632D01*
X0471662Y0232488D01*
X0471683Y0232343D01*
X0471701Y0232197D01*
X0471715Y0232051D01*
X0471725Y0231905D01*
X0471731Y0231759D01*
X0471733Y0231612D01*
X0471731Y0231465D01*
X0471725Y0231319D01*
X0471715Y0231173D01*
X0471701Y0231027D01*
X0471683Y0230881D01*
X0471662Y0230736D01*
X0471636Y0230592D01*
X0471606Y0230448D01*
X0471573Y0230306D01*
X0471536Y0230164D01*
X0471495Y0230023D01*
X0471450Y0229884D01*
X0471401Y0229745D01*
X0471349Y0229608D01*
X0471292Y0229473D01*
X0471233Y0229339D01*
X0471169Y0229207D01*
X0471102Y0229077D01*
X0471032Y0228948D01*
X0470958Y0228821D01*
X0470881Y0228697D01*
X0470800Y0228574D01*
X0470716Y0228454D01*
X0470629Y0228336D01*
X0470539Y0228221D01*
X0470446Y0228108D01*
X0470349Y0227997D01*
X0470250Y0227889D01*
X0470148Y0227784D01*
X0470043Y0227682D01*
X0469935Y0227583D01*
X0469824Y0227486D01*
X0469711Y0227393D01*
X0469596Y0227303D01*
X0469478Y0227216D01*
X0469358Y0227132D01*
X0469235Y0227051D01*
X0469111Y0226974D01*
X0468984Y0226900D01*
X0468855Y0226830D01*
X0468725Y0226763D01*
X0468593Y0226699D01*
X0468459Y0226640D01*
X0468324Y0226583D01*
X0468187Y0226531D01*
X0468048Y0226482D01*
X0467909Y0226437D01*
X0467768Y0226396D01*
X0467626Y0226359D01*
X0467484Y0226326D01*
X0467340Y0226296D01*
X0467196Y0226270D01*
X0467051Y0226249D01*
X0466905Y0226231D01*
X0466759Y0226217D01*
X0466613Y0226207D01*
X0466467Y0226201D01*
X0466320Y0226199D01*
X0466173Y0226201D01*
X0466027Y0226207D01*
X0465881Y0226217D01*
X0465735Y0226231D01*
X0465589Y0226249D01*
X0465444Y0226270D01*
X0465300Y0226296D01*
X0465156Y0226326D01*
X0465014Y0226359D01*
X0464872Y0226396D01*
X0464731Y0226437D01*
X0464592Y0226482D01*
X0464453Y0226531D01*
X0464316Y0226583D01*
X0464181Y0226640D01*
X0464047Y0226699D01*
X0463915Y0226763D01*
X0463785Y0226830D01*
X0463656Y0226900D01*
X0463529Y0226974D01*
X0463405Y0227051D01*
X0463282Y0227132D01*
X0463162Y0227216D01*
X0463044Y0227303D01*
X0462929Y0227393D01*
X0462816Y0227486D01*
X0462705Y0227583D01*
X0462597Y0227682D01*
X0462492Y0227784D01*
X0462390Y0227889D01*
X0462291Y0227997D01*
X0462194Y0228108D01*
X0462101Y0228221D01*
X0462011Y0228336D01*
X0461924Y0228454D01*
X0461840Y0228574D01*
X0461759Y0228697D01*
X0461682Y0228821D01*
X0461608Y0228948D01*
X0461538Y0229077D01*
X0461471Y0229207D01*
X0461407Y0229339D01*
X0461348Y0229473D01*
X0461291Y0229608D01*
X0461239Y0229745D01*
X0461190Y0229884D01*
X0461145Y0230023D01*
X0461104Y0230164D01*
X0461067Y0230306D01*
X0461034Y0230448D01*
X0461004Y0230592D01*
X0460978Y0230736D01*
X0460957Y0230881D01*
X0460939Y0231027D01*
X0460925Y0231173D01*
X0460915Y0231319D01*
X0460909Y0231465D01*
X0460907Y0231612D01*
X0276773Y0284675D02*
X0276775Y0284788D01*
X0276781Y0284902D01*
X0276791Y0285015D01*
X0276805Y0285127D01*
X0276822Y0285239D01*
X0276844Y0285350D01*
X0276869Y0285461D01*
X0276899Y0285570D01*
X0276932Y0285679D01*
X0276969Y0285786D01*
X0277010Y0285892D01*
X0277054Y0285996D01*
X0277102Y0286099D01*
X0277153Y0286200D01*
X0277208Y0286299D01*
X0277267Y0286396D01*
X0277328Y0286491D01*
X0277393Y0286584D01*
X0277462Y0286675D01*
X0277533Y0286763D01*
X0277607Y0286848D01*
X0277685Y0286931D01*
X0277765Y0287011D01*
X0277848Y0287089D01*
X0277933Y0287163D01*
X0278021Y0287234D01*
X0278112Y0287303D01*
X0278205Y0287368D01*
X0278300Y0287429D01*
X0278397Y0287488D01*
X0278496Y0287543D01*
X0278597Y0287594D01*
X0278700Y0287642D01*
X0278804Y0287686D01*
X0278910Y0287727D01*
X0279017Y0287764D01*
X0279126Y0287797D01*
X0279235Y0287827D01*
X0279346Y0287852D01*
X0279457Y0287874D01*
X0279569Y0287891D01*
X0279681Y0287905D01*
X0279794Y0287915D01*
X0279908Y0287921D01*
X0280021Y0287923D01*
X0280134Y0287921D01*
X0280248Y0287915D01*
X0280361Y0287905D01*
X0280473Y0287891D01*
X0280585Y0287874D01*
X0280696Y0287852D01*
X0280807Y0287827D01*
X0280916Y0287797D01*
X0281025Y0287764D01*
X0281132Y0287727D01*
X0281238Y0287686D01*
X0281342Y0287642D01*
X0281445Y0287594D01*
X0281546Y0287543D01*
X0281645Y0287488D01*
X0281742Y0287429D01*
X0281837Y0287368D01*
X0281930Y0287303D01*
X0282021Y0287234D01*
X0282109Y0287163D01*
X0282194Y0287089D01*
X0282277Y0287011D01*
X0282357Y0286931D01*
X0282435Y0286848D01*
X0282509Y0286763D01*
X0282580Y0286675D01*
X0282649Y0286584D01*
X0282714Y0286491D01*
X0282775Y0286396D01*
X0282834Y0286299D01*
X0282889Y0286200D01*
X0282940Y0286099D01*
X0282988Y0285996D01*
X0283032Y0285892D01*
X0283073Y0285786D01*
X0283110Y0285679D01*
X0283143Y0285570D01*
X0283173Y0285461D01*
X0283198Y0285350D01*
X0283220Y0285239D01*
X0283237Y0285127D01*
X0283251Y0285015D01*
X0283261Y0284902D01*
X0283267Y0284788D01*
X0283269Y0284675D01*
X0283267Y0284562D01*
X0283261Y0284448D01*
X0283251Y0284335D01*
X0283237Y0284223D01*
X0283220Y0284111D01*
X0283198Y0284000D01*
X0283173Y0283889D01*
X0283143Y0283780D01*
X0283110Y0283671D01*
X0283073Y0283564D01*
X0283032Y0283458D01*
X0282988Y0283354D01*
X0282940Y0283251D01*
X0282889Y0283150D01*
X0282834Y0283051D01*
X0282775Y0282954D01*
X0282714Y0282859D01*
X0282649Y0282766D01*
X0282580Y0282675D01*
X0282509Y0282587D01*
X0282435Y0282502D01*
X0282357Y0282419D01*
X0282277Y0282339D01*
X0282194Y0282261D01*
X0282109Y0282187D01*
X0282021Y0282116D01*
X0281930Y0282047D01*
X0281837Y0281982D01*
X0281742Y0281921D01*
X0281645Y0281862D01*
X0281546Y0281807D01*
X0281445Y0281756D01*
X0281342Y0281708D01*
X0281238Y0281664D01*
X0281132Y0281623D01*
X0281025Y0281586D01*
X0280916Y0281553D01*
X0280807Y0281523D01*
X0280696Y0281498D01*
X0280585Y0281476D01*
X0280473Y0281459D01*
X0280361Y0281445D01*
X0280248Y0281435D01*
X0280134Y0281429D01*
X0280021Y0281427D01*
X0279908Y0281429D01*
X0279794Y0281435D01*
X0279681Y0281445D01*
X0279569Y0281459D01*
X0279457Y0281476D01*
X0279346Y0281498D01*
X0279235Y0281523D01*
X0279126Y0281553D01*
X0279017Y0281586D01*
X0278910Y0281623D01*
X0278804Y0281664D01*
X0278700Y0281708D01*
X0278597Y0281756D01*
X0278496Y0281807D01*
X0278397Y0281862D01*
X0278300Y0281921D01*
X0278205Y0281982D01*
X0278112Y0282047D01*
X0278021Y0282116D01*
X0277933Y0282187D01*
X0277848Y0282261D01*
X0277765Y0282339D01*
X0277685Y0282419D01*
X0277607Y0282502D01*
X0277533Y0282587D01*
X0277462Y0282675D01*
X0277393Y0282766D01*
X0277328Y0282859D01*
X0277267Y0282954D01*
X0277208Y0283051D01*
X0277153Y0283150D01*
X0277102Y0283251D01*
X0277054Y0283354D01*
X0277010Y0283458D01*
X0276969Y0283564D01*
X0276932Y0283671D01*
X0276899Y0283780D01*
X0276869Y0283889D01*
X0276844Y0284000D01*
X0276822Y0284111D01*
X0276805Y0284223D01*
X0276791Y0284335D01*
X0276781Y0284448D01*
X0276775Y0284562D01*
X0276773Y0284675D01*
X0266931Y0284675D02*
X0266933Y0284788D01*
X0266939Y0284902D01*
X0266949Y0285015D01*
X0266963Y0285127D01*
X0266980Y0285239D01*
X0267002Y0285350D01*
X0267027Y0285461D01*
X0267057Y0285570D01*
X0267090Y0285679D01*
X0267127Y0285786D01*
X0267168Y0285892D01*
X0267212Y0285996D01*
X0267260Y0286099D01*
X0267311Y0286200D01*
X0267366Y0286299D01*
X0267425Y0286396D01*
X0267486Y0286491D01*
X0267551Y0286584D01*
X0267620Y0286675D01*
X0267691Y0286763D01*
X0267765Y0286848D01*
X0267843Y0286931D01*
X0267923Y0287011D01*
X0268006Y0287089D01*
X0268091Y0287163D01*
X0268179Y0287234D01*
X0268270Y0287303D01*
X0268363Y0287368D01*
X0268458Y0287429D01*
X0268555Y0287488D01*
X0268654Y0287543D01*
X0268755Y0287594D01*
X0268858Y0287642D01*
X0268962Y0287686D01*
X0269068Y0287727D01*
X0269175Y0287764D01*
X0269284Y0287797D01*
X0269393Y0287827D01*
X0269504Y0287852D01*
X0269615Y0287874D01*
X0269727Y0287891D01*
X0269839Y0287905D01*
X0269952Y0287915D01*
X0270066Y0287921D01*
X0270179Y0287923D01*
X0270292Y0287921D01*
X0270406Y0287915D01*
X0270519Y0287905D01*
X0270631Y0287891D01*
X0270743Y0287874D01*
X0270854Y0287852D01*
X0270965Y0287827D01*
X0271074Y0287797D01*
X0271183Y0287764D01*
X0271290Y0287727D01*
X0271396Y0287686D01*
X0271500Y0287642D01*
X0271603Y0287594D01*
X0271704Y0287543D01*
X0271803Y0287488D01*
X0271900Y0287429D01*
X0271995Y0287368D01*
X0272088Y0287303D01*
X0272179Y0287234D01*
X0272267Y0287163D01*
X0272352Y0287089D01*
X0272435Y0287011D01*
X0272515Y0286931D01*
X0272593Y0286848D01*
X0272667Y0286763D01*
X0272738Y0286675D01*
X0272807Y0286584D01*
X0272872Y0286491D01*
X0272933Y0286396D01*
X0272992Y0286299D01*
X0273047Y0286200D01*
X0273098Y0286099D01*
X0273146Y0285996D01*
X0273190Y0285892D01*
X0273231Y0285786D01*
X0273268Y0285679D01*
X0273301Y0285570D01*
X0273331Y0285461D01*
X0273356Y0285350D01*
X0273378Y0285239D01*
X0273395Y0285127D01*
X0273409Y0285015D01*
X0273419Y0284902D01*
X0273425Y0284788D01*
X0273427Y0284675D01*
X0273425Y0284562D01*
X0273419Y0284448D01*
X0273409Y0284335D01*
X0273395Y0284223D01*
X0273378Y0284111D01*
X0273356Y0284000D01*
X0273331Y0283889D01*
X0273301Y0283780D01*
X0273268Y0283671D01*
X0273231Y0283564D01*
X0273190Y0283458D01*
X0273146Y0283354D01*
X0273098Y0283251D01*
X0273047Y0283150D01*
X0272992Y0283051D01*
X0272933Y0282954D01*
X0272872Y0282859D01*
X0272807Y0282766D01*
X0272738Y0282675D01*
X0272667Y0282587D01*
X0272593Y0282502D01*
X0272515Y0282419D01*
X0272435Y0282339D01*
X0272352Y0282261D01*
X0272267Y0282187D01*
X0272179Y0282116D01*
X0272088Y0282047D01*
X0271995Y0281982D01*
X0271900Y0281921D01*
X0271803Y0281862D01*
X0271704Y0281807D01*
X0271603Y0281756D01*
X0271500Y0281708D01*
X0271396Y0281664D01*
X0271290Y0281623D01*
X0271183Y0281586D01*
X0271074Y0281553D01*
X0270965Y0281523D01*
X0270854Y0281498D01*
X0270743Y0281476D01*
X0270631Y0281459D01*
X0270519Y0281445D01*
X0270406Y0281435D01*
X0270292Y0281429D01*
X0270179Y0281427D01*
X0270066Y0281429D01*
X0269952Y0281435D01*
X0269839Y0281445D01*
X0269727Y0281459D01*
X0269615Y0281476D01*
X0269504Y0281498D01*
X0269393Y0281523D01*
X0269284Y0281553D01*
X0269175Y0281586D01*
X0269068Y0281623D01*
X0268962Y0281664D01*
X0268858Y0281708D01*
X0268755Y0281756D01*
X0268654Y0281807D01*
X0268555Y0281862D01*
X0268458Y0281921D01*
X0268363Y0281982D01*
X0268270Y0282047D01*
X0268179Y0282116D01*
X0268091Y0282187D01*
X0268006Y0282261D01*
X0267923Y0282339D01*
X0267843Y0282419D01*
X0267765Y0282502D01*
X0267691Y0282587D01*
X0267620Y0282675D01*
X0267551Y0282766D01*
X0267486Y0282859D01*
X0267425Y0282954D01*
X0267366Y0283051D01*
X0267311Y0283150D01*
X0267260Y0283251D01*
X0267212Y0283354D01*
X0267168Y0283458D01*
X0267127Y0283564D01*
X0267090Y0283671D01*
X0267057Y0283780D01*
X0267027Y0283889D01*
X0267002Y0284000D01*
X0266980Y0284111D01*
X0266963Y0284223D01*
X0266949Y0284335D01*
X0266939Y0284448D01*
X0266933Y0284562D01*
X0266931Y0284675D01*
X0205407Y0244112D02*
X0205409Y0244259D01*
X0205415Y0244405D01*
X0205425Y0244551D01*
X0205439Y0244697D01*
X0205457Y0244843D01*
X0205478Y0244988D01*
X0205504Y0245132D01*
X0205534Y0245276D01*
X0205567Y0245418D01*
X0205604Y0245560D01*
X0205645Y0245701D01*
X0205690Y0245840D01*
X0205739Y0245979D01*
X0205791Y0246116D01*
X0205848Y0246251D01*
X0205907Y0246385D01*
X0205971Y0246517D01*
X0206038Y0246647D01*
X0206108Y0246776D01*
X0206182Y0246903D01*
X0206259Y0247027D01*
X0206340Y0247150D01*
X0206424Y0247270D01*
X0206511Y0247388D01*
X0206601Y0247503D01*
X0206694Y0247616D01*
X0206791Y0247727D01*
X0206890Y0247835D01*
X0206992Y0247940D01*
X0207097Y0248042D01*
X0207205Y0248141D01*
X0207316Y0248238D01*
X0207429Y0248331D01*
X0207544Y0248421D01*
X0207662Y0248508D01*
X0207782Y0248592D01*
X0207905Y0248673D01*
X0208029Y0248750D01*
X0208156Y0248824D01*
X0208285Y0248894D01*
X0208415Y0248961D01*
X0208547Y0249025D01*
X0208681Y0249084D01*
X0208816Y0249141D01*
X0208953Y0249193D01*
X0209092Y0249242D01*
X0209231Y0249287D01*
X0209372Y0249328D01*
X0209514Y0249365D01*
X0209656Y0249398D01*
X0209800Y0249428D01*
X0209944Y0249454D01*
X0210089Y0249475D01*
X0210235Y0249493D01*
X0210381Y0249507D01*
X0210527Y0249517D01*
X0210673Y0249523D01*
X0210820Y0249525D01*
X0210967Y0249523D01*
X0211113Y0249517D01*
X0211259Y0249507D01*
X0211405Y0249493D01*
X0211551Y0249475D01*
X0211696Y0249454D01*
X0211840Y0249428D01*
X0211984Y0249398D01*
X0212126Y0249365D01*
X0212268Y0249328D01*
X0212409Y0249287D01*
X0212548Y0249242D01*
X0212687Y0249193D01*
X0212824Y0249141D01*
X0212959Y0249084D01*
X0213093Y0249025D01*
X0213225Y0248961D01*
X0213355Y0248894D01*
X0213484Y0248824D01*
X0213611Y0248750D01*
X0213735Y0248673D01*
X0213858Y0248592D01*
X0213978Y0248508D01*
X0214096Y0248421D01*
X0214211Y0248331D01*
X0214324Y0248238D01*
X0214435Y0248141D01*
X0214543Y0248042D01*
X0214648Y0247940D01*
X0214750Y0247835D01*
X0214849Y0247727D01*
X0214946Y0247616D01*
X0215039Y0247503D01*
X0215129Y0247388D01*
X0215216Y0247270D01*
X0215300Y0247150D01*
X0215381Y0247027D01*
X0215458Y0246903D01*
X0215532Y0246776D01*
X0215602Y0246647D01*
X0215669Y0246517D01*
X0215733Y0246385D01*
X0215792Y0246251D01*
X0215849Y0246116D01*
X0215901Y0245979D01*
X0215950Y0245840D01*
X0215995Y0245701D01*
X0216036Y0245560D01*
X0216073Y0245418D01*
X0216106Y0245276D01*
X0216136Y0245132D01*
X0216162Y0244988D01*
X0216183Y0244843D01*
X0216201Y0244697D01*
X0216215Y0244551D01*
X0216225Y0244405D01*
X0216231Y0244259D01*
X0216233Y0244112D01*
X0216231Y0243965D01*
X0216225Y0243819D01*
X0216215Y0243673D01*
X0216201Y0243527D01*
X0216183Y0243381D01*
X0216162Y0243236D01*
X0216136Y0243092D01*
X0216106Y0242948D01*
X0216073Y0242806D01*
X0216036Y0242664D01*
X0215995Y0242523D01*
X0215950Y0242384D01*
X0215901Y0242245D01*
X0215849Y0242108D01*
X0215792Y0241973D01*
X0215733Y0241839D01*
X0215669Y0241707D01*
X0215602Y0241577D01*
X0215532Y0241448D01*
X0215458Y0241321D01*
X0215381Y0241197D01*
X0215300Y0241074D01*
X0215216Y0240954D01*
X0215129Y0240836D01*
X0215039Y0240721D01*
X0214946Y0240608D01*
X0214849Y0240497D01*
X0214750Y0240389D01*
X0214648Y0240284D01*
X0214543Y0240182D01*
X0214435Y0240083D01*
X0214324Y0239986D01*
X0214211Y0239893D01*
X0214096Y0239803D01*
X0213978Y0239716D01*
X0213858Y0239632D01*
X0213735Y0239551D01*
X0213611Y0239474D01*
X0213484Y0239400D01*
X0213355Y0239330D01*
X0213225Y0239263D01*
X0213093Y0239199D01*
X0212959Y0239140D01*
X0212824Y0239083D01*
X0212687Y0239031D01*
X0212548Y0238982D01*
X0212409Y0238937D01*
X0212268Y0238896D01*
X0212126Y0238859D01*
X0211984Y0238826D01*
X0211840Y0238796D01*
X0211696Y0238770D01*
X0211551Y0238749D01*
X0211405Y0238731D01*
X0211259Y0238717D01*
X0211113Y0238707D01*
X0210967Y0238701D01*
X0210820Y0238699D01*
X0210673Y0238701D01*
X0210527Y0238707D01*
X0210381Y0238717D01*
X0210235Y0238731D01*
X0210089Y0238749D01*
X0209944Y0238770D01*
X0209800Y0238796D01*
X0209656Y0238826D01*
X0209514Y0238859D01*
X0209372Y0238896D01*
X0209231Y0238937D01*
X0209092Y0238982D01*
X0208953Y0239031D01*
X0208816Y0239083D01*
X0208681Y0239140D01*
X0208547Y0239199D01*
X0208415Y0239263D01*
X0208285Y0239330D01*
X0208156Y0239400D01*
X0208029Y0239474D01*
X0207905Y0239551D01*
X0207782Y0239632D01*
X0207662Y0239716D01*
X0207544Y0239803D01*
X0207429Y0239893D01*
X0207316Y0239986D01*
X0207205Y0240083D01*
X0207097Y0240182D01*
X0206992Y0240284D01*
X0206890Y0240389D01*
X0206791Y0240497D01*
X0206694Y0240608D01*
X0206601Y0240721D01*
X0206511Y0240836D01*
X0206424Y0240954D01*
X0206340Y0241074D01*
X0206259Y0241197D01*
X0206182Y0241321D01*
X0206108Y0241448D01*
X0206038Y0241577D01*
X0205971Y0241707D01*
X0205907Y0241839D01*
X0205848Y0241973D01*
X0205791Y0242108D01*
X0205739Y0242245D01*
X0205690Y0242384D01*
X0205645Y0242523D01*
X0205604Y0242664D01*
X0205567Y0242806D01*
X0205534Y0242948D01*
X0205504Y0243092D01*
X0205478Y0243236D01*
X0205457Y0243381D01*
X0205439Y0243527D01*
X0205425Y0243673D01*
X0205415Y0243819D01*
X0205409Y0243965D01*
X0205407Y0244112D01*
X0012494Y0244112D02*
X0012496Y0244259D01*
X0012502Y0244405D01*
X0012512Y0244551D01*
X0012526Y0244697D01*
X0012544Y0244843D01*
X0012565Y0244988D01*
X0012591Y0245132D01*
X0012621Y0245276D01*
X0012654Y0245418D01*
X0012691Y0245560D01*
X0012732Y0245701D01*
X0012777Y0245840D01*
X0012826Y0245979D01*
X0012878Y0246116D01*
X0012935Y0246251D01*
X0012994Y0246385D01*
X0013058Y0246517D01*
X0013125Y0246647D01*
X0013195Y0246776D01*
X0013269Y0246903D01*
X0013346Y0247027D01*
X0013427Y0247150D01*
X0013511Y0247270D01*
X0013598Y0247388D01*
X0013688Y0247503D01*
X0013781Y0247616D01*
X0013878Y0247727D01*
X0013977Y0247835D01*
X0014079Y0247940D01*
X0014184Y0248042D01*
X0014292Y0248141D01*
X0014403Y0248238D01*
X0014516Y0248331D01*
X0014631Y0248421D01*
X0014749Y0248508D01*
X0014869Y0248592D01*
X0014992Y0248673D01*
X0015116Y0248750D01*
X0015243Y0248824D01*
X0015372Y0248894D01*
X0015502Y0248961D01*
X0015634Y0249025D01*
X0015768Y0249084D01*
X0015903Y0249141D01*
X0016040Y0249193D01*
X0016179Y0249242D01*
X0016318Y0249287D01*
X0016459Y0249328D01*
X0016601Y0249365D01*
X0016743Y0249398D01*
X0016887Y0249428D01*
X0017031Y0249454D01*
X0017176Y0249475D01*
X0017322Y0249493D01*
X0017468Y0249507D01*
X0017614Y0249517D01*
X0017760Y0249523D01*
X0017907Y0249525D01*
X0018054Y0249523D01*
X0018200Y0249517D01*
X0018346Y0249507D01*
X0018492Y0249493D01*
X0018638Y0249475D01*
X0018783Y0249454D01*
X0018927Y0249428D01*
X0019071Y0249398D01*
X0019213Y0249365D01*
X0019355Y0249328D01*
X0019496Y0249287D01*
X0019635Y0249242D01*
X0019774Y0249193D01*
X0019911Y0249141D01*
X0020046Y0249084D01*
X0020180Y0249025D01*
X0020312Y0248961D01*
X0020442Y0248894D01*
X0020571Y0248824D01*
X0020698Y0248750D01*
X0020822Y0248673D01*
X0020945Y0248592D01*
X0021065Y0248508D01*
X0021183Y0248421D01*
X0021298Y0248331D01*
X0021411Y0248238D01*
X0021522Y0248141D01*
X0021630Y0248042D01*
X0021735Y0247940D01*
X0021837Y0247835D01*
X0021936Y0247727D01*
X0022033Y0247616D01*
X0022126Y0247503D01*
X0022216Y0247388D01*
X0022303Y0247270D01*
X0022387Y0247150D01*
X0022468Y0247027D01*
X0022545Y0246903D01*
X0022619Y0246776D01*
X0022689Y0246647D01*
X0022756Y0246517D01*
X0022820Y0246385D01*
X0022879Y0246251D01*
X0022936Y0246116D01*
X0022988Y0245979D01*
X0023037Y0245840D01*
X0023082Y0245701D01*
X0023123Y0245560D01*
X0023160Y0245418D01*
X0023193Y0245276D01*
X0023223Y0245132D01*
X0023249Y0244988D01*
X0023270Y0244843D01*
X0023288Y0244697D01*
X0023302Y0244551D01*
X0023312Y0244405D01*
X0023318Y0244259D01*
X0023320Y0244112D01*
X0023318Y0243965D01*
X0023312Y0243819D01*
X0023302Y0243673D01*
X0023288Y0243527D01*
X0023270Y0243381D01*
X0023249Y0243236D01*
X0023223Y0243092D01*
X0023193Y0242948D01*
X0023160Y0242806D01*
X0023123Y0242664D01*
X0023082Y0242523D01*
X0023037Y0242384D01*
X0022988Y0242245D01*
X0022936Y0242108D01*
X0022879Y0241973D01*
X0022820Y0241839D01*
X0022756Y0241707D01*
X0022689Y0241577D01*
X0022619Y0241448D01*
X0022545Y0241321D01*
X0022468Y0241197D01*
X0022387Y0241074D01*
X0022303Y0240954D01*
X0022216Y0240836D01*
X0022126Y0240721D01*
X0022033Y0240608D01*
X0021936Y0240497D01*
X0021837Y0240389D01*
X0021735Y0240284D01*
X0021630Y0240182D01*
X0021522Y0240083D01*
X0021411Y0239986D01*
X0021298Y0239893D01*
X0021183Y0239803D01*
X0021065Y0239716D01*
X0020945Y0239632D01*
X0020822Y0239551D01*
X0020698Y0239474D01*
X0020571Y0239400D01*
X0020442Y0239330D01*
X0020312Y0239263D01*
X0020180Y0239199D01*
X0020046Y0239140D01*
X0019911Y0239083D01*
X0019774Y0239031D01*
X0019635Y0238982D01*
X0019496Y0238937D01*
X0019355Y0238896D01*
X0019213Y0238859D01*
X0019071Y0238826D01*
X0018927Y0238796D01*
X0018783Y0238770D01*
X0018638Y0238749D01*
X0018492Y0238731D01*
X0018346Y0238717D01*
X0018200Y0238707D01*
X0018054Y0238701D01*
X0017907Y0238699D01*
X0017760Y0238701D01*
X0017614Y0238707D01*
X0017468Y0238717D01*
X0017322Y0238731D01*
X0017176Y0238749D01*
X0017031Y0238770D01*
X0016887Y0238796D01*
X0016743Y0238826D01*
X0016601Y0238859D01*
X0016459Y0238896D01*
X0016318Y0238937D01*
X0016179Y0238982D01*
X0016040Y0239031D01*
X0015903Y0239083D01*
X0015768Y0239140D01*
X0015634Y0239199D01*
X0015502Y0239263D01*
X0015372Y0239330D01*
X0015243Y0239400D01*
X0015116Y0239474D01*
X0014992Y0239551D01*
X0014869Y0239632D01*
X0014749Y0239716D01*
X0014631Y0239803D01*
X0014516Y0239893D01*
X0014403Y0239986D01*
X0014292Y0240083D01*
X0014184Y0240182D01*
X0014079Y0240284D01*
X0013977Y0240389D01*
X0013878Y0240497D01*
X0013781Y0240608D01*
X0013688Y0240721D01*
X0013598Y0240836D01*
X0013511Y0240954D01*
X0013427Y0241074D01*
X0013346Y0241197D01*
X0013269Y0241321D01*
X0013195Y0241448D01*
X0013125Y0241577D01*
X0013058Y0241707D01*
X0012994Y0241839D01*
X0012935Y0241973D01*
X0012878Y0242108D01*
X0012826Y0242245D01*
X0012777Y0242384D01*
X0012732Y0242523D01*
X0012691Y0242664D01*
X0012654Y0242806D01*
X0012621Y0242948D01*
X0012591Y0243092D01*
X0012565Y0243236D01*
X0012544Y0243381D01*
X0012526Y0243527D01*
X0012512Y0243673D01*
X0012502Y0243819D01*
X0012496Y0243965D01*
X0012494Y0244112D01*
D11*
X0013970Y0001986D02*
X0466289Y0001986D01*
X0466562Y0001977D01*
X0466836Y0001975D01*
X0467110Y0001980D01*
X0467383Y0001991D01*
X0467656Y0002008D01*
X0467929Y0002032D01*
X0468200Y0002063D01*
X0468471Y0002101D01*
X0468742Y0002145D01*
X0469010Y0002195D01*
X0469278Y0002252D01*
X0469544Y0002315D01*
X0469809Y0002385D01*
X0470072Y0002461D01*
X0470332Y0002544D01*
X0470591Y0002633D01*
X0470848Y0002728D01*
X0471102Y0002829D01*
X0471354Y0002936D01*
X0471603Y0003049D01*
X0471849Y0003169D01*
X0472092Y0003294D01*
X0472332Y0003425D01*
X0472569Y0003562D01*
X0472803Y0003704D01*
X0473033Y0003852D01*
X0473259Y0004006D01*
X0473482Y0004165D01*
X0473701Y0004329D01*
X0473915Y0004499D01*
X0474126Y0004674D01*
X0474332Y0004854D01*
X0474534Y0005038D01*
X0474731Y0005228D01*
X0474924Y0005422D01*
X0475112Y0005621D01*
X0475295Y0005824D01*
X0475473Y0006032D01*
X0475646Y0006244D01*
X0475814Y0006460D01*
X0475976Y0006680D01*
X0476133Y0006904D01*
X0476285Y0007132D01*
X0476431Y0007363D01*
X0476572Y0007598D01*
X0476707Y0007836D01*
X0476836Y0008077D01*
X0476959Y0008321D01*
X0477076Y0008569D01*
X0477188Y0008819D01*
X0477293Y0009071D01*
X0477392Y0009326D01*
X0477485Y0009584D01*
X0477571Y0009843D01*
X0477652Y0010105D01*
X0477726Y0010368D01*
X0477793Y0010633D01*
X0477854Y0010900D01*
X0477909Y0011168D01*
X0477957Y0011437D01*
X0477999Y0011708D01*
X0478034Y0011979D01*
X0478063Y0012251D01*
X0478085Y0012524D01*
X0478100Y0012797D01*
X0478100Y0285136D01*
X0478100Y0285135D02*
X0478091Y0285427D01*
X0478075Y0285719D01*
X0478051Y0286010D01*
X0478021Y0286300D01*
X0477984Y0286590D01*
X0477940Y0286878D01*
X0477889Y0287166D01*
X0477830Y0287452D01*
X0477765Y0287737D01*
X0477694Y0288020D01*
X0477615Y0288301D01*
X0477530Y0288580D01*
X0477437Y0288857D01*
X0477339Y0289132D01*
X0477233Y0289404D01*
X0477121Y0289674D01*
X0477003Y0289941D01*
X0476878Y0290205D01*
X0476746Y0290466D01*
X0476609Y0290723D01*
X0476465Y0290977D01*
X0476316Y0291228D01*
X0476160Y0291475D01*
X0475998Y0291718D01*
X0475830Y0291957D01*
X0475657Y0292192D01*
X0475478Y0292423D01*
X0475294Y0292649D01*
X0475104Y0292871D01*
X0474909Y0293088D01*
X0474709Y0293301D01*
X0474503Y0293508D01*
X0474293Y0293711D01*
X0474078Y0293908D01*
X0473858Y0294100D01*
X0473633Y0294287D01*
X0473404Y0294468D01*
X0473171Y0294644D01*
X0472934Y0294814D01*
X0472692Y0294978D01*
X0472447Y0295136D01*
X0472198Y0295289D01*
X0471945Y0295435D01*
X0471689Y0295575D01*
X0471429Y0295709D01*
X0471167Y0295837D01*
X0470901Y0295958D01*
X0470632Y0296073D01*
X0470361Y0296181D01*
X0470088Y0296282D01*
X0469811Y0296377D01*
X0469533Y0296466D01*
X0469253Y0296547D01*
X0468970Y0296622D01*
X0468687Y0296690D01*
X0468401Y0296751D01*
X0468114Y0296805D01*
X0467826Y0296852D01*
X0467537Y0296892D01*
X0467247Y0296925D01*
X0466956Y0296952D01*
X0466664Y0296971D01*
X0466373Y0296983D01*
X0466081Y0296988D01*
X0465789Y0296986D01*
X0465600Y0296986D01*
X0465600Y0287486D01*
X0405600Y0287486D01*
X0405600Y0296986D01*
X0262100Y0296986D01*
X0262100Y0264986D01*
X0229429Y0264985D01*
X0229325Y0264983D01*
X0229222Y0264977D01*
X0229119Y0264968D01*
X0229017Y0264955D01*
X0228915Y0264938D01*
X0228814Y0264917D01*
X0228713Y0264893D01*
X0228614Y0264865D01*
X0228515Y0264834D01*
X0228418Y0264799D01*
X0228322Y0264760D01*
X0228228Y0264718D01*
X0228135Y0264672D01*
X0228044Y0264623D01*
X0227955Y0264571D01*
X0227868Y0264516D01*
X0227783Y0264457D01*
X0227700Y0264396D01*
X0227619Y0264331D01*
X0227541Y0264263D01*
X0227465Y0264193D01*
X0227392Y0264120D01*
X0227322Y0264044D01*
X0227254Y0263966D01*
X0227190Y0263886D01*
X0227128Y0263803D01*
X0227070Y0263718D01*
X0227014Y0263630D01*
X0226962Y0263541D01*
X0226913Y0263450D01*
X0226867Y0263358D01*
X0226825Y0263263D01*
X0226787Y0263167D01*
X0226752Y0263070D01*
X0226720Y0262972D01*
X0226692Y0262872D01*
X0226668Y0262772D01*
X0226647Y0262671D01*
X0226630Y0262569D01*
X0226617Y0262466D01*
X0226608Y0262363D01*
X0226602Y0262260D01*
X0226600Y0262157D01*
X0226600Y0255986D01*
X0141600Y0255986D01*
X0141600Y0262157D01*
X0141598Y0262262D01*
X0141592Y0262368D01*
X0141582Y0262473D01*
X0141568Y0262578D01*
X0141550Y0262682D01*
X0141528Y0262786D01*
X0141503Y0262888D01*
X0141473Y0262990D01*
X0141440Y0263090D01*
X0141403Y0263190D01*
X0141363Y0263287D01*
X0141319Y0263383D01*
X0141271Y0263478D01*
X0141220Y0263570D01*
X0141165Y0263661D01*
X0141107Y0263749D01*
X0141046Y0263836D01*
X0140982Y0263919D01*
X0140914Y0264001D01*
X0140844Y0264080D01*
X0140770Y0264156D01*
X0140694Y0264229D01*
X0140615Y0264300D01*
X0140534Y0264367D01*
X0140450Y0264432D01*
X0140364Y0264493D01*
X0140275Y0264551D01*
X0140185Y0264605D01*
X0140092Y0264656D01*
X0139998Y0264704D01*
X0139901Y0264748D01*
X0139804Y0264789D01*
X0139705Y0264826D01*
X0139604Y0264859D01*
X0139503Y0264888D01*
X0139400Y0264914D01*
X0139296Y0264935D01*
X0139192Y0264953D01*
X0139087Y0264967D01*
X0138982Y0264977D01*
X0138876Y0264983D01*
X0138771Y0264985D01*
X0011970Y0264947D01*
X0002159Y0258136D02*
X0002159Y0013797D01*
X0002162Y0013512D01*
X0002173Y0013226D01*
X0002190Y0012941D01*
X0002214Y0012657D01*
X0002245Y0012373D01*
X0002283Y0012090D01*
X0002328Y0011809D01*
X0002379Y0011528D01*
X0002437Y0011248D01*
X0002502Y0010970D01*
X0002574Y0010694D01*
X0002652Y0010420D01*
X0002737Y0010147D01*
X0002829Y0009877D01*
X0002927Y0009609D01*
X0003031Y0009343D01*
X0003142Y0009080D01*
X0003259Y0008820D01*
X0003382Y0008562D01*
X0003512Y0008308D01*
X0003648Y0008057D01*
X0003789Y0007809D01*
X0003937Y0007565D01*
X0004090Y0007324D01*
X0004250Y0007088D01*
X0004415Y0006855D01*
X0004585Y0006626D01*
X0004761Y0006401D01*
X0004943Y0006181D01*
X0005129Y0005965D01*
X0005321Y0005754D01*
X0005518Y0005547D01*
X0005720Y0005345D01*
X0005927Y0005148D01*
X0006138Y0004956D01*
X0006354Y0004770D01*
X0006574Y0004588D01*
X0006799Y0004412D01*
X0007028Y0004242D01*
X0007261Y0004077D01*
X0007497Y0003917D01*
X0007738Y0003764D01*
X0007982Y0003616D01*
X0008230Y0003475D01*
X0008481Y0003339D01*
X0008735Y0003209D01*
X0008993Y0003086D01*
X0009253Y0002969D01*
X0009516Y0002858D01*
X0009782Y0002754D01*
X0010050Y0002656D01*
X0010320Y0002564D01*
X0010593Y0002479D01*
X0010867Y0002401D01*
X0011143Y0002329D01*
X0011421Y0002264D01*
X0011701Y0002206D01*
X0011982Y0002155D01*
X0012263Y0002110D01*
X0012546Y0002072D01*
X0012830Y0002041D01*
X0013114Y0002017D01*
X0013399Y0002000D01*
X0013685Y0001989D01*
X0013970Y0001986D01*
X0002159Y0258136D02*
X0002199Y0258339D01*
X0002243Y0258542D01*
X0002292Y0258743D01*
X0002346Y0258943D01*
X0002405Y0259142D01*
X0002469Y0259339D01*
X0002538Y0259535D01*
X0002612Y0259728D01*
X0002690Y0259920D01*
X0002773Y0260110D01*
X0002860Y0260298D01*
X0002953Y0260484D01*
X0003049Y0260667D01*
X0003150Y0260848D01*
X0003256Y0261026D01*
X0003366Y0261202D01*
X0003480Y0261375D01*
X0003599Y0261545D01*
X0003721Y0261712D01*
X0003848Y0261876D01*
X0003978Y0262037D01*
X0004113Y0262195D01*
X0004251Y0262349D01*
X0004393Y0262500D01*
X0004539Y0262648D01*
X0004688Y0262791D01*
X0004841Y0262931D01*
X0004997Y0263068D01*
X0005157Y0263200D01*
X0005319Y0263329D01*
X0005485Y0263453D01*
X0005654Y0263573D01*
X0005826Y0263689D01*
X0006000Y0263801D01*
X0006177Y0263909D01*
X0006357Y0264012D01*
X0006539Y0264111D01*
X0006724Y0264205D01*
X0006911Y0264294D01*
X0007100Y0264379D01*
X0007291Y0264460D01*
X0007484Y0264535D01*
X0007679Y0264606D01*
X0007875Y0264672D01*
X0008073Y0264734D01*
X0008273Y0264790D01*
X0008473Y0264842D01*
X0008675Y0264888D01*
X0008878Y0264930D01*
X0009082Y0264966D01*
X0009287Y0264998D01*
X0009493Y0265024D01*
X0009699Y0265046D01*
X0009906Y0265062D01*
X0010113Y0265073D01*
X0010320Y0265080D01*
X0010527Y0265081D01*
X0010734Y0265077D01*
X0010941Y0265068D01*
X0011148Y0265054D01*
X0011355Y0265035D01*
X0011560Y0265010D01*
X0011766Y0264981D01*
X0011970Y0264947D01*
D12*
X0358757Y0163938D02*
X0378443Y0198034D01*
X0378442Y0198034D02*
X0378024Y0198268D01*
X0377601Y0198493D01*
X0377172Y0198707D01*
X0376738Y0198910D01*
X0376299Y0199103D01*
X0375855Y0199285D01*
X0375408Y0199456D01*
X0374956Y0199617D01*
X0374500Y0199766D01*
X0374041Y0199904D01*
X0373579Y0200031D01*
X0373114Y0200147D01*
X0372646Y0200251D01*
X0372176Y0200344D01*
X0371703Y0200425D01*
X0371229Y0200495D01*
X0370753Y0200553D01*
X0370276Y0200600D01*
X0369798Y0200635D01*
X0369319Y0200658D01*
X0368840Y0200670D01*
X0368360Y0200670D01*
X0367881Y0200658D01*
X0367402Y0200635D01*
X0366924Y0200600D01*
X0366447Y0200553D01*
X0365971Y0200495D01*
X0365497Y0200425D01*
X0365024Y0200344D01*
X0364554Y0200251D01*
X0364086Y0200147D01*
X0363621Y0200031D01*
X0363159Y0199904D01*
X0362700Y0199766D01*
X0362244Y0199617D01*
X0361792Y0199456D01*
X0361345Y0199285D01*
X0360901Y0199103D01*
X0360462Y0198910D01*
X0360028Y0198707D01*
X0359599Y0198493D01*
X0359176Y0198268D01*
X0358757Y0198034D01*
X0358345Y0197789D01*
X0357939Y0197534D01*
X0357539Y0197270D01*
X0357146Y0196996D01*
X0356760Y0196712D01*
X0356380Y0196419D01*
X0356008Y0196117D01*
X0355643Y0195806D01*
X0355286Y0195486D01*
X0354937Y0195157D01*
X0354596Y0194820D01*
X0354263Y0194475D01*
X0353939Y0194122D01*
X0353624Y0193761D01*
X0353317Y0193393D01*
X0353019Y0193017D01*
X0352731Y0192634D01*
X0352452Y0192244D01*
X0352183Y0191848D01*
X0351923Y0191445D01*
X0351673Y0191035D01*
X0351434Y0190620D01*
X0351204Y0190199D01*
X0350985Y0189773D01*
X0350776Y0189341D01*
X0350578Y0188905D01*
X0350391Y0188464D01*
X0350214Y0188018D01*
X0350048Y0187568D01*
X0349893Y0187115D01*
X0349750Y0186657D01*
X0349617Y0186197D01*
X0349496Y0185733D01*
X0349386Y0185266D01*
X0349287Y0184797D01*
X0349200Y0184326D01*
X0349125Y0183852D01*
X0349061Y0183377D01*
X0349008Y0182901D01*
X0348968Y0182423D01*
X0348938Y0181944D01*
X0348921Y0181465D01*
X0348915Y0180986D01*
X0348921Y0180507D01*
X0348938Y0180028D01*
X0348968Y0179549D01*
X0349008Y0179071D01*
X0349061Y0178595D01*
X0349125Y0178120D01*
X0349200Y0177646D01*
X0349287Y0177175D01*
X0349386Y0176706D01*
X0349496Y0176239D01*
X0349617Y0175775D01*
X0349750Y0175315D01*
X0349893Y0174857D01*
X0350048Y0174404D01*
X0350214Y0173954D01*
X0350391Y0173508D01*
X0350578Y0173067D01*
X0350776Y0172631D01*
X0350985Y0172199D01*
X0351204Y0171773D01*
X0351434Y0171352D01*
X0351673Y0170937D01*
X0351923Y0170527D01*
X0352183Y0170124D01*
X0352452Y0169728D01*
X0352731Y0169338D01*
X0353019Y0168955D01*
X0353317Y0168579D01*
X0353624Y0168211D01*
X0353939Y0167850D01*
X0354263Y0167497D01*
X0354596Y0167152D01*
X0354937Y0166815D01*
X0355286Y0166486D01*
X0355643Y0166166D01*
X0356008Y0165855D01*
X0356380Y0165553D01*
X0356760Y0165260D01*
X0357146Y0164976D01*
X0357539Y0164702D01*
X0357939Y0164438D01*
X0358345Y0164183D01*
X0358758Y0163938D01*
X0358345Y0164183D01*
X0357939Y0164438D01*
X0357539Y0164702D01*
X0357146Y0164976D01*
X0356760Y0165260D01*
X0356380Y0165553D01*
X0356008Y0165855D01*
X0355643Y0166166D01*
X0355286Y0166486D01*
X0354937Y0166815D01*
X0354596Y0167152D01*
X0354263Y0167497D01*
X0353939Y0167850D01*
X0353624Y0168211D01*
X0353317Y0168579D01*
X0353019Y0168955D01*
X0352731Y0169338D01*
X0352452Y0169728D01*
X0352183Y0170124D01*
X0351923Y0170527D01*
X0351673Y0170937D01*
X0351434Y0171352D01*
X0351204Y0171773D01*
X0350985Y0172199D01*
X0350776Y0172631D01*
X0350578Y0173067D01*
X0350391Y0173508D01*
X0350214Y0173954D01*
X0350048Y0174404D01*
X0349893Y0174857D01*
X0349750Y0175315D01*
X0349617Y0175775D01*
X0349496Y0176239D01*
X0349386Y0176706D01*
X0349287Y0177175D01*
X0349200Y0177646D01*
X0349125Y0178120D01*
X0349061Y0178595D01*
X0349008Y0179071D01*
X0348968Y0179549D01*
X0348938Y0180028D01*
X0348921Y0180507D01*
X0348915Y0180986D01*
X0348921Y0181465D01*
X0348938Y0181944D01*
X0348968Y0182423D01*
X0349008Y0182901D01*
X0349061Y0183377D01*
X0349125Y0183852D01*
X0349200Y0184326D01*
X0349287Y0184797D01*
X0349386Y0185266D01*
X0349496Y0185733D01*
X0349617Y0186197D01*
X0349750Y0186657D01*
X0349893Y0187115D01*
X0350048Y0187568D01*
X0350214Y0188018D01*
X0350391Y0188464D01*
X0350578Y0188905D01*
X0350776Y0189341D01*
X0350985Y0189773D01*
X0351204Y0190199D01*
X0351434Y0190620D01*
X0351673Y0191035D01*
X0351923Y0191445D01*
X0352183Y0191848D01*
X0352452Y0192244D01*
X0352731Y0192634D01*
X0353019Y0193017D01*
X0353317Y0193393D01*
X0353624Y0193761D01*
X0353939Y0194122D01*
X0354263Y0194475D01*
X0354596Y0194820D01*
X0354937Y0195157D01*
X0355286Y0195486D01*
X0355643Y0195806D01*
X0356008Y0196117D01*
X0356380Y0196419D01*
X0356760Y0196712D01*
X0357146Y0196996D01*
X0357539Y0197270D01*
X0357939Y0197534D01*
X0358345Y0197789D01*
X0358757Y0198034D01*
X0359176Y0198268D01*
X0359599Y0198493D01*
X0360028Y0198707D01*
X0360462Y0198910D01*
X0360901Y0199103D01*
X0361345Y0199285D01*
X0361792Y0199456D01*
X0362244Y0199617D01*
X0362700Y0199766D01*
X0363159Y0199904D01*
X0363621Y0200031D01*
X0364086Y0200147D01*
X0364554Y0200251D01*
X0365024Y0200344D01*
X0365497Y0200425D01*
X0365971Y0200495D01*
X0366447Y0200553D01*
X0366924Y0200600D01*
X0367402Y0200635D01*
X0367881Y0200658D01*
X0368360Y0200670D01*
X0368840Y0200670D01*
X0369319Y0200658D01*
X0369798Y0200635D01*
X0370276Y0200600D01*
X0370753Y0200553D01*
X0371229Y0200495D01*
X0371703Y0200425D01*
X0372176Y0200344D01*
X0372646Y0200251D01*
X0373114Y0200147D01*
X0373579Y0200031D01*
X0374041Y0199904D01*
X0374500Y0199766D01*
X0374956Y0199617D01*
X0375408Y0199456D01*
X0375855Y0199285D01*
X0376299Y0199103D01*
X0376738Y0198910D01*
X0377172Y0198707D01*
X0377601Y0198493D01*
X0378024Y0198268D01*
X0378442Y0198034D01*
D13*
X0420850Y0257486D02*
X0420850Y0292486D01*
X0425350Y0292486D01*
X0425350Y0257486D01*
X0420850Y0257486D01*
M02*
