G75*
%MOIN*%
%OFA0B0*%
%FSLAX25Y25*%
%IPPOS*%
%LPD*%
%AMOC8*
5,1,8,0,0,1.08239X$1,22.5*
%
%ADD10C,0.00800*%
%ADD11C,0.00500*%
%ADD12C,0.00600*%
%ADD13C,0.00400*%
%ADD14C,0.00300*%
%ADD15C,0.00200*%
%ADD16C,0.01969*%
D10*
X0030313Y0031951D02*
X0030313Y0038451D01*
X0154194Y0168175D02*
X0155769Y0168175D01*
X0154194Y0168175D02*
X0154132Y0168177D01*
X0154071Y0168183D01*
X0154010Y0168192D01*
X0153949Y0168206D01*
X0153890Y0168223D01*
X0153832Y0168244D01*
X0153775Y0168269D01*
X0153720Y0168297D01*
X0153667Y0168328D01*
X0153616Y0168363D01*
X0153567Y0168401D01*
X0153520Y0168442D01*
X0153477Y0168485D01*
X0153436Y0168532D01*
X0153398Y0168581D01*
X0153363Y0168632D01*
X0153332Y0168685D01*
X0153304Y0168740D01*
X0153279Y0168797D01*
X0153258Y0168855D01*
X0153241Y0168914D01*
X0153227Y0168975D01*
X0153218Y0169036D01*
X0153212Y0169097D01*
X0153210Y0169159D01*
X0153210Y0190813D01*
X0153212Y0190875D01*
X0153218Y0190936D01*
X0153227Y0190997D01*
X0153241Y0191058D01*
X0153258Y0191117D01*
X0153279Y0191175D01*
X0153304Y0191232D01*
X0153332Y0191287D01*
X0153363Y0191340D01*
X0153398Y0191391D01*
X0153436Y0191440D01*
X0153477Y0191487D01*
X0153520Y0191530D01*
X0153567Y0191571D01*
X0153616Y0191609D01*
X0153667Y0191644D01*
X0153720Y0191675D01*
X0153775Y0191703D01*
X0153832Y0191728D01*
X0153890Y0191749D01*
X0153949Y0191766D01*
X0154010Y0191780D01*
X0154071Y0191789D01*
X0154132Y0191795D01*
X0154194Y0191797D01*
X0155769Y0191797D01*
X0149612Y0187088D02*
X0138588Y0187088D01*
X0138588Y0187089D02*
X0138542Y0187087D01*
X0138496Y0187082D01*
X0138450Y0187073D01*
X0138405Y0187060D01*
X0138362Y0187044D01*
X0138320Y0187025D01*
X0138279Y0187002D01*
X0138241Y0186976D01*
X0138204Y0186947D01*
X0138170Y0186916D01*
X0138139Y0186882D01*
X0138110Y0186845D01*
X0138084Y0186807D01*
X0138061Y0186766D01*
X0138042Y0186724D01*
X0138026Y0186681D01*
X0138013Y0186636D01*
X0138004Y0186590D01*
X0137999Y0186544D01*
X0137997Y0186498D01*
X0137998Y0186498D02*
X0137998Y0175474D01*
X0137997Y0175474D02*
X0137999Y0175428D01*
X0138004Y0175382D01*
X0138013Y0175336D01*
X0138026Y0175291D01*
X0138042Y0175248D01*
X0138061Y0175206D01*
X0138084Y0175165D01*
X0138110Y0175127D01*
X0138139Y0175090D01*
X0138170Y0175056D01*
X0138204Y0175025D01*
X0138241Y0174996D01*
X0138279Y0174970D01*
X0138320Y0174947D01*
X0138362Y0174928D01*
X0138405Y0174912D01*
X0138450Y0174899D01*
X0138496Y0174890D01*
X0138542Y0174885D01*
X0138588Y0174883D01*
X0138588Y0174884D02*
X0149612Y0174884D01*
X0149612Y0174883D02*
X0149658Y0174885D01*
X0149704Y0174890D01*
X0149750Y0174899D01*
X0149795Y0174912D01*
X0149838Y0174928D01*
X0149880Y0174947D01*
X0149921Y0174970D01*
X0149959Y0174996D01*
X0149996Y0175025D01*
X0150030Y0175056D01*
X0150061Y0175090D01*
X0150090Y0175127D01*
X0150116Y0175165D01*
X0150139Y0175206D01*
X0150158Y0175248D01*
X0150174Y0175291D01*
X0150187Y0175336D01*
X0150196Y0175382D01*
X0150201Y0175428D01*
X0150203Y0175474D01*
X0150202Y0175474D02*
X0150202Y0186498D01*
X0150203Y0186498D02*
X0150201Y0186544D01*
X0150196Y0186590D01*
X0150187Y0186636D01*
X0150174Y0186681D01*
X0150158Y0186724D01*
X0150139Y0186766D01*
X0150116Y0186807D01*
X0150090Y0186845D01*
X0150061Y0186882D01*
X0150030Y0186916D01*
X0149996Y0186947D01*
X0149959Y0186976D01*
X0149921Y0187002D01*
X0149880Y0187025D01*
X0149838Y0187044D01*
X0149795Y0187060D01*
X0149750Y0187073D01*
X0149704Y0187082D01*
X0149658Y0187087D01*
X0149612Y0187089D01*
X0157147Y0185892D02*
X0163053Y0185892D01*
X0163053Y0174080D01*
X0157147Y0174080D01*
X0157147Y0185892D01*
X0164431Y0191797D02*
X0166006Y0191797D01*
X0166068Y0191795D01*
X0166129Y0191789D01*
X0166190Y0191780D01*
X0166251Y0191766D01*
X0166310Y0191749D01*
X0166368Y0191728D01*
X0166425Y0191703D01*
X0166480Y0191675D01*
X0166533Y0191644D01*
X0166584Y0191609D01*
X0166633Y0191571D01*
X0166680Y0191530D01*
X0166723Y0191487D01*
X0166764Y0191440D01*
X0166802Y0191391D01*
X0166837Y0191340D01*
X0166868Y0191287D01*
X0166896Y0191232D01*
X0166921Y0191175D01*
X0166942Y0191117D01*
X0166959Y0191058D01*
X0166973Y0190997D01*
X0166982Y0190936D01*
X0166988Y0190875D01*
X0166990Y0190813D01*
X0166990Y0169159D01*
X0166988Y0169097D01*
X0166982Y0169036D01*
X0166973Y0168975D01*
X0166959Y0168914D01*
X0166942Y0168855D01*
X0166921Y0168797D01*
X0166896Y0168740D01*
X0166868Y0168685D01*
X0166837Y0168632D01*
X0166802Y0168581D01*
X0166764Y0168532D01*
X0166723Y0168485D01*
X0166680Y0168442D01*
X0166633Y0168401D01*
X0166584Y0168363D01*
X0166533Y0168328D01*
X0166480Y0168297D01*
X0166425Y0168269D01*
X0166368Y0168244D01*
X0166310Y0168223D01*
X0166251Y0168206D01*
X0166190Y0168192D01*
X0166129Y0168183D01*
X0166068Y0168177D01*
X0166006Y0168175D01*
X0164431Y0168175D01*
X0052494Y0203155D02*
X0048344Y0203155D01*
X0048344Y0204836D01*
X0048344Y0210136D02*
X0048344Y0211817D01*
X0052494Y0211817D01*
X0052494Y0214155D02*
X0048344Y0214155D01*
X0048344Y0215836D01*
X0048344Y0221136D02*
X0048344Y0222817D01*
X0052494Y0222817D01*
D11*
X0057082Y0220236D02*
X0058350Y0220236D01*
X0057716Y0220236D02*
X0057716Y0222138D01*
X0058350Y0221504D01*
X0059292Y0221821D02*
X0059292Y0220553D01*
X0059609Y0220236D01*
X0060243Y0220236D01*
X0060560Y0220553D01*
X0060560Y0221821D01*
X0060243Y0222138D01*
X0059609Y0222138D01*
X0059292Y0221821D01*
X0059926Y0220870D02*
X0059292Y0220236D01*
X0059609Y0211138D02*
X0059292Y0210821D01*
X0059292Y0209553D01*
X0059609Y0209236D01*
X0060243Y0209236D01*
X0060560Y0209553D01*
X0060560Y0210821D01*
X0060243Y0211138D01*
X0059609Y0211138D01*
X0058350Y0210821D02*
X0058033Y0211138D01*
X0057399Y0211138D01*
X0057082Y0210821D01*
X0057082Y0210504D01*
X0058350Y0209236D01*
X0057082Y0209236D01*
X0059292Y0209236D02*
X0059926Y0209870D01*
X0043252Y0210609D02*
X0042935Y0209975D01*
X0042301Y0209341D01*
X0042301Y0210292D01*
X0041984Y0210609D01*
X0041667Y0210609D01*
X0041350Y0210292D01*
X0041350Y0209658D01*
X0041667Y0209341D01*
X0042301Y0209341D01*
X0041350Y0208399D02*
X0041350Y0207131D01*
X0041350Y0207765D02*
X0043252Y0207765D01*
X0042618Y0207131D01*
X0042935Y0206189D02*
X0042301Y0206189D01*
X0041984Y0205872D01*
X0041984Y0204921D01*
X0041350Y0204921D02*
X0043252Y0204921D01*
X0043252Y0205872D01*
X0042935Y0206189D01*
X0041984Y0205555D02*
X0041350Y0206189D01*
X0036252Y0206372D02*
X0035935Y0206689D01*
X0035301Y0206689D01*
X0034984Y0206372D01*
X0034984Y0205421D01*
X0034350Y0205421D02*
X0036252Y0205421D01*
X0036252Y0206372D01*
X0036252Y0207631D02*
X0035301Y0207631D01*
X0035618Y0208265D01*
X0035618Y0208582D01*
X0035301Y0208899D01*
X0034667Y0208899D01*
X0034350Y0208582D01*
X0034350Y0207948D01*
X0034667Y0207631D01*
X0034350Y0206689D02*
X0034984Y0206055D01*
X0036252Y0207631D02*
X0036252Y0208899D01*
X0035301Y0209841D02*
X0035301Y0211109D01*
X0036252Y0210792D02*
X0035301Y0209841D01*
X0034350Y0210792D02*
X0036252Y0210792D01*
X0032352Y0231921D02*
X0032352Y0232872D01*
X0032035Y0233189D01*
X0031401Y0233189D01*
X0031084Y0232872D01*
X0031084Y0231921D01*
X0030450Y0231921D02*
X0032352Y0231921D01*
X0031084Y0232555D02*
X0030450Y0233189D01*
X0030450Y0234131D02*
X0030767Y0234131D01*
X0032035Y0235399D01*
X0032352Y0235399D01*
X0032352Y0234131D01*
X0031401Y0236341D02*
X0031401Y0237292D01*
X0031084Y0237609D01*
X0030767Y0237609D01*
X0030450Y0237292D01*
X0030450Y0236658D01*
X0030767Y0236341D01*
X0031401Y0236341D01*
X0032035Y0236975D01*
X0032352Y0237609D01*
X0125450Y0188792D02*
X0125450Y0188158D01*
X0125767Y0187841D01*
X0127035Y0189109D01*
X0125767Y0189109D01*
X0125450Y0188792D01*
X0125767Y0187841D02*
X0127035Y0187841D01*
X0127352Y0188158D01*
X0127352Y0188792D01*
X0127035Y0189109D01*
X0127035Y0186899D02*
X0127352Y0186582D01*
X0127352Y0185948D01*
X0127035Y0185631D01*
X0127035Y0184689D02*
X0127352Y0184372D01*
X0127352Y0183738D01*
X0127035Y0183421D01*
X0125767Y0183421D01*
X0125450Y0183738D01*
X0125450Y0184372D01*
X0125767Y0184689D01*
X0125450Y0185631D02*
X0126718Y0186899D01*
X0127035Y0186899D01*
X0125450Y0186899D02*
X0125450Y0185631D01*
X0131450Y0185631D02*
X0131450Y0186899D01*
X0131450Y0186265D02*
X0133352Y0186265D01*
X0132718Y0185631D01*
X0133035Y0184689D02*
X0133352Y0184372D01*
X0133352Y0183738D01*
X0133035Y0183421D01*
X0131767Y0183421D01*
X0131450Y0183738D01*
X0131450Y0184372D01*
X0131767Y0184689D01*
X0131767Y0187841D02*
X0131450Y0188158D01*
X0131450Y0188792D01*
X0131767Y0189109D01*
X0133035Y0189109D01*
X0133352Y0188792D01*
X0133352Y0188158D01*
X0133035Y0187841D01*
X0132718Y0187841D01*
X0132401Y0188158D01*
X0132401Y0189109D01*
X0135060Y0188253D02*
X0135377Y0188569D01*
X0136645Y0188569D01*
X0136962Y0188253D01*
X0136962Y0187619D01*
X0136645Y0187302D01*
X0136328Y0187302D01*
X0136011Y0187619D01*
X0136011Y0188569D01*
X0135060Y0188253D02*
X0135060Y0187619D01*
X0135377Y0187302D01*
X0135377Y0186360D02*
X0135060Y0186043D01*
X0135060Y0185409D01*
X0135377Y0185092D01*
X0136645Y0185092D01*
X0136962Y0185409D01*
X0136962Y0186043D01*
X0136645Y0186360D01*
X0136962Y0184252D02*
X0136962Y0183619D01*
X0136962Y0183935D02*
X0135060Y0183935D01*
X0135060Y0183619D02*
X0135060Y0184252D01*
X0139131Y0198033D02*
X0143069Y0198033D01*
X0143069Y0203939D02*
X0139131Y0203939D01*
X0167850Y0181504D02*
X0167850Y0180236D01*
X0167850Y0180870D02*
X0169752Y0180870D01*
X0169118Y0180236D01*
X0169435Y0179294D02*
X0169752Y0178977D01*
X0169752Y0178343D01*
X0169435Y0178026D01*
X0169118Y0178026D01*
X0168801Y0178343D01*
X0168801Y0178977D01*
X0168484Y0179294D01*
X0168167Y0179294D01*
X0167850Y0178977D01*
X0167850Y0178343D01*
X0168167Y0178026D01*
X0137665Y0162638D02*
X0136714Y0162638D01*
X0136397Y0162321D01*
X0136397Y0161687D01*
X0136714Y0161370D01*
X0137665Y0161370D01*
X0137665Y0160736D02*
X0137665Y0162638D01*
X0137031Y0161370D02*
X0136397Y0160736D01*
X0135455Y0160736D02*
X0135455Y0161053D01*
X0134187Y0162321D01*
X0134187Y0162638D01*
X0135455Y0162638D01*
X0133245Y0162638D02*
X0133245Y0161687D01*
X0132611Y0162004D01*
X0132294Y0162004D01*
X0131977Y0161687D01*
X0131977Y0161053D01*
X0132294Y0160736D01*
X0132928Y0160736D01*
X0133245Y0161053D01*
X0133245Y0162638D02*
X0131977Y0162638D01*
X0102252Y0130870D02*
X0100350Y0130870D01*
X0100350Y0130236D02*
X0100350Y0131504D01*
X0101618Y0130236D02*
X0102252Y0130870D01*
X0101935Y0129294D02*
X0102252Y0128977D01*
X0102252Y0128343D01*
X0101935Y0128026D01*
X0100667Y0128026D01*
X0100350Y0128343D01*
X0100350Y0128977D01*
X0100667Y0129294D01*
X0096252Y0128977D02*
X0096252Y0128343D01*
X0095935Y0128026D01*
X0094667Y0128026D01*
X0094350Y0128343D01*
X0094350Y0128977D01*
X0094667Y0129294D01*
X0094350Y0130236D02*
X0095618Y0131504D01*
X0095935Y0131504D01*
X0096252Y0131187D01*
X0096252Y0130553D01*
X0095935Y0130236D01*
X0095935Y0129294D02*
X0096252Y0128977D01*
X0094350Y0130236D02*
X0094350Y0131504D01*
X0090252Y0131187D02*
X0089935Y0131504D01*
X0089618Y0131504D01*
X0089301Y0131187D01*
X0088984Y0131504D01*
X0088667Y0131504D01*
X0088350Y0131187D01*
X0088350Y0130553D01*
X0088667Y0130236D01*
X0089301Y0130870D02*
X0089301Y0131187D01*
X0090252Y0131187D02*
X0090252Y0130553D01*
X0089935Y0130236D01*
X0089935Y0129294D02*
X0090252Y0128977D01*
X0090252Y0128343D01*
X0089935Y0128026D01*
X0088667Y0128026D01*
X0088350Y0128343D01*
X0088350Y0128977D01*
X0088667Y0129294D01*
X0084252Y0128977D02*
X0084252Y0128343D01*
X0083935Y0128026D01*
X0082667Y0128026D01*
X0082350Y0128343D01*
X0082350Y0128977D01*
X0082667Y0129294D01*
X0083301Y0130236D02*
X0083301Y0131504D01*
X0084252Y0131187D02*
X0083301Y0130236D01*
X0083935Y0129294D02*
X0084252Y0128977D01*
X0084252Y0131187D02*
X0082350Y0131187D01*
X0078252Y0130765D02*
X0077618Y0130131D01*
X0078252Y0130765D02*
X0076350Y0130765D01*
X0076350Y0130131D02*
X0076350Y0131399D01*
X0076350Y0132341D02*
X0076667Y0132341D01*
X0077935Y0133609D01*
X0078252Y0133609D01*
X0078252Y0132341D01*
X0077935Y0129189D02*
X0078252Y0128872D01*
X0078252Y0128238D01*
X0077935Y0127921D01*
X0076667Y0127921D01*
X0076350Y0128238D01*
X0076350Y0128872D01*
X0076667Y0129189D01*
X0071752Y0128872D02*
X0071752Y0128238D01*
X0071435Y0127921D01*
X0070167Y0127921D01*
X0069850Y0128238D01*
X0069850Y0128872D01*
X0070167Y0129189D01*
X0069850Y0130131D02*
X0069850Y0131399D01*
X0069850Y0130765D02*
X0071752Y0130765D01*
X0071118Y0130131D01*
X0071435Y0129189D02*
X0071752Y0128872D01*
X0071435Y0132341D02*
X0071118Y0132341D01*
X0070801Y0132658D01*
X0070801Y0133292D01*
X0070484Y0133609D01*
X0070167Y0133609D01*
X0069850Y0133292D01*
X0069850Y0132658D01*
X0070167Y0132341D01*
X0070484Y0132341D01*
X0070801Y0132658D01*
X0070801Y0133292D02*
X0071118Y0133609D01*
X0071435Y0133609D01*
X0071752Y0133292D01*
X0071752Y0132658D01*
X0071435Y0132341D01*
X0036852Y0144450D02*
X0036852Y0145084D01*
X0036852Y0144767D02*
X0035267Y0144767D01*
X0034950Y0144450D01*
X0034950Y0144133D01*
X0035267Y0143816D01*
X0035584Y0146026D02*
X0035584Y0146977D01*
X0035901Y0147294D01*
X0036535Y0147294D01*
X0036852Y0146977D01*
X0036852Y0146026D01*
X0034950Y0146026D01*
X0034950Y0148236D02*
X0036218Y0149504D01*
X0036535Y0149504D01*
X0036852Y0149187D01*
X0036852Y0148553D01*
X0036535Y0148236D01*
X0034950Y0148236D02*
X0034950Y0149504D01*
X0034950Y0150446D02*
X0036218Y0151714D01*
X0036535Y0151714D01*
X0036852Y0151397D01*
X0036852Y0150763D01*
X0036535Y0150446D01*
X0034950Y0150446D02*
X0034950Y0151714D01*
X0035267Y0157316D02*
X0034950Y0157633D01*
X0034950Y0157950D01*
X0035267Y0158267D01*
X0036852Y0158267D01*
X0036852Y0157950D02*
X0036852Y0158584D01*
X0036852Y0159526D02*
X0036852Y0160477D01*
X0036535Y0160794D01*
X0035901Y0160794D01*
X0035584Y0160477D01*
X0035584Y0159526D01*
X0034950Y0159526D02*
X0036852Y0159526D01*
X0036218Y0161736D02*
X0036852Y0162370D01*
X0034950Y0162370D01*
X0034950Y0161736D02*
X0034950Y0163004D01*
X0035267Y0163946D02*
X0034950Y0164263D01*
X0034950Y0164897D01*
X0035267Y0165214D01*
X0035584Y0165214D01*
X0035901Y0164897D01*
X0035901Y0163946D01*
X0035267Y0163946D01*
X0035901Y0163946D02*
X0036535Y0164580D01*
X0036852Y0165214D01*
X0070582Y0089238D02*
X0071850Y0089238D01*
X0071850Y0088287D01*
X0071216Y0088604D01*
X0070899Y0088604D01*
X0070582Y0088287D01*
X0070582Y0087653D01*
X0070899Y0087336D01*
X0071533Y0087336D01*
X0071850Y0087653D01*
X0072792Y0087653D02*
X0073109Y0087336D01*
X0073743Y0087336D01*
X0074060Y0087653D01*
X0074060Y0088921D01*
X0073743Y0089238D01*
X0073109Y0089238D01*
X0072792Y0088921D01*
X0073109Y0074238D02*
X0073743Y0074238D01*
X0074060Y0073921D01*
X0074060Y0072653D01*
X0073743Y0072336D01*
X0073109Y0072336D01*
X0072792Y0072653D01*
X0071850Y0072653D02*
X0071533Y0072336D01*
X0070899Y0072336D01*
X0070582Y0072653D01*
X0070582Y0072970D01*
X0070899Y0073287D01*
X0071850Y0073287D01*
X0071850Y0072653D01*
X0071850Y0073287D02*
X0071216Y0073921D01*
X0070582Y0074238D01*
X0072792Y0073921D02*
X0073109Y0074238D01*
X0190977Y0112836D02*
X0192245Y0112836D01*
X0190977Y0114104D01*
X0190977Y0114421D01*
X0191294Y0114738D01*
X0191928Y0114738D01*
X0192245Y0114421D01*
X0193187Y0114738D02*
X0193821Y0114421D01*
X0194455Y0113787D01*
X0193504Y0113787D01*
X0193187Y0113470D01*
X0193187Y0113153D01*
X0193504Y0112836D01*
X0194138Y0112836D01*
X0194455Y0113153D01*
X0194455Y0113787D01*
X0195397Y0113787D02*
X0195714Y0113470D01*
X0196665Y0113470D01*
X0196665Y0112836D02*
X0196665Y0114738D01*
X0195714Y0114738D01*
X0195397Y0114421D01*
X0195397Y0113787D01*
X0196031Y0113470D02*
X0195397Y0112836D01*
X0200977Y0124836D02*
X0202245Y0124836D01*
X0200977Y0126104D01*
X0200977Y0126421D01*
X0201294Y0126738D01*
X0201928Y0126738D01*
X0202245Y0126421D01*
X0203187Y0126421D02*
X0203504Y0126738D01*
X0204138Y0126738D01*
X0204455Y0126421D01*
X0205397Y0126421D02*
X0205714Y0126738D01*
X0206348Y0126738D01*
X0206665Y0126421D01*
X0206665Y0125153D01*
X0206348Y0124836D01*
X0205714Y0124836D01*
X0205397Y0125153D01*
X0204455Y0124836D02*
X0203187Y0126104D01*
X0203187Y0126421D01*
X0203187Y0124836D02*
X0204455Y0124836D01*
X0234519Y0149616D02*
X0260681Y0149616D01*
X0260681Y0228356D01*
X0234519Y0228356D01*
X0234519Y0149616D01*
X0249174Y0144740D02*
X0249174Y0143989D01*
X0252177Y0140987D01*
X0252177Y0140236D01*
X0253778Y0140987D02*
X0254529Y0140236D01*
X0256030Y0140236D01*
X0256781Y0140987D01*
X0256781Y0143989D01*
X0256030Y0144740D01*
X0254529Y0144740D01*
X0253778Y0143989D01*
X0252177Y0144740D02*
X0249174Y0144740D01*
X0258349Y0144740D02*
X0259850Y0144740D01*
X0259099Y0144740D02*
X0259099Y0140236D01*
X0258349Y0140236D02*
X0259850Y0140236D01*
X0275477Y0149421D02*
X0276745Y0148153D01*
X0276745Y0147836D01*
X0277687Y0148153D02*
X0278004Y0147836D01*
X0278638Y0147836D01*
X0278955Y0148153D01*
X0278321Y0148787D02*
X0278004Y0148787D01*
X0277687Y0148470D01*
X0277687Y0148153D01*
X0278004Y0148787D02*
X0277687Y0149104D01*
X0277687Y0149421D01*
X0278004Y0149738D01*
X0278638Y0149738D01*
X0278955Y0149421D01*
X0279897Y0149421D02*
X0279897Y0148787D01*
X0280214Y0148470D01*
X0281165Y0148470D01*
X0281165Y0147836D02*
X0281165Y0149738D01*
X0280214Y0149738D01*
X0279897Y0149421D01*
X0280531Y0148470D02*
X0279897Y0147836D01*
X0276745Y0149738D02*
X0275477Y0149738D01*
X0275477Y0149421D01*
X0277294Y0159236D02*
X0277928Y0159236D01*
X0278245Y0159553D01*
X0278245Y0159870D01*
X0277928Y0160187D01*
X0277294Y0160187D01*
X0276977Y0159870D01*
X0276977Y0159553D01*
X0277294Y0159236D01*
X0277294Y0160187D02*
X0276977Y0160504D01*
X0276977Y0160821D01*
X0277294Y0161138D01*
X0277928Y0161138D01*
X0278245Y0160821D01*
X0278245Y0160504D01*
X0277928Y0160187D01*
X0279187Y0160504D02*
X0279504Y0160187D01*
X0279187Y0159870D01*
X0279187Y0159553D01*
X0279504Y0159236D01*
X0280138Y0159236D01*
X0280455Y0159553D01*
X0279821Y0160187D02*
X0279504Y0160187D01*
X0279187Y0160504D02*
X0279187Y0160821D01*
X0279504Y0161138D01*
X0280138Y0161138D01*
X0280455Y0160821D01*
X0281397Y0160821D02*
X0281397Y0160187D01*
X0281714Y0159870D01*
X0282665Y0159870D01*
X0282665Y0159236D02*
X0282665Y0161138D01*
X0281714Y0161138D01*
X0281397Y0160821D01*
X0282031Y0159870D02*
X0281397Y0159236D01*
X0299350Y0158131D02*
X0301252Y0158131D01*
X0301252Y0159082D01*
X0300935Y0159399D01*
X0300301Y0159399D01*
X0299984Y0159082D01*
X0299984Y0158131D01*
X0299667Y0156872D02*
X0301252Y0156872D01*
X0301252Y0156555D02*
X0301252Y0157189D01*
X0299667Y0156872D02*
X0299350Y0156555D01*
X0299350Y0156238D01*
X0299667Y0155921D01*
X0299667Y0160341D02*
X0299984Y0160341D01*
X0300301Y0160658D01*
X0300301Y0161292D01*
X0299984Y0161609D01*
X0299667Y0161609D01*
X0299350Y0161292D01*
X0299350Y0160658D01*
X0299667Y0160341D01*
X0300301Y0160658D02*
X0300618Y0160341D01*
X0300935Y0160341D01*
X0301252Y0160658D01*
X0301252Y0161292D01*
X0300935Y0161609D01*
X0300618Y0161609D01*
X0300301Y0161292D01*
X0300267Y0174921D02*
X0299950Y0175238D01*
X0299950Y0175555D01*
X0300267Y0175872D01*
X0301852Y0175872D01*
X0301852Y0175555D02*
X0301852Y0176189D01*
X0301852Y0177131D02*
X0301852Y0178082D01*
X0301535Y0178399D01*
X0300901Y0178399D01*
X0300584Y0178082D01*
X0300584Y0177131D01*
X0299950Y0177131D02*
X0301852Y0177131D01*
X0301852Y0179341D02*
X0301852Y0180609D01*
X0301535Y0180609D01*
X0300267Y0179341D01*
X0299950Y0179341D01*
X0282665Y0179836D02*
X0282665Y0181738D01*
X0281714Y0181738D01*
X0281397Y0181421D01*
X0281397Y0180787D01*
X0281714Y0180470D01*
X0282665Y0180470D01*
X0282031Y0180470D02*
X0281397Y0179836D01*
X0280455Y0180153D02*
X0280138Y0179836D01*
X0279504Y0179836D01*
X0279187Y0180153D01*
X0279187Y0180470D01*
X0279504Y0180787D01*
X0279821Y0180787D01*
X0279504Y0180787D02*
X0279187Y0181104D01*
X0279187Y0181421D01*
X0279504Y0181738D01*
X0280138Y0181738D01*
X0280455Y0181421D01*
X0278245Y0181738D02*
X0278245Y0180787D01*
X0277611Y0181104D01*
X0277294Y0181104D01*
X0276977Y0180787D01*
X0276977Y0180153D01*
X0277294Y0179836D01*
X0277928Y0179836D01*
X0278245Y0180153D01*
X0278245Y0181738D02*
X0276977Y0181738D01*
X0276977Y0176138D02*
X0277611Y0175821D01*
X0278245Y0175187D01*
X0277294Y0175187D01*
X0276977Y0174870D01*
X0276977Y0174553D01*
X0277294Y0174236D01*
X0277928Y0174236D01*
X0278245Y0174553D01*
X0278245Y0175187D01*
X0279187Y0175504D02*
X0279504Y0175187D01*
X0279187Y0174870D01*
X0279187Y0174553D01*
X0279504Y0174236D01*
X0280138Y0174236D01*
X0280455Y0174553D01*
X0279821Y0175187D02*
X0279504Y0175187D01*
X0279187Y0175504D02*
X0279187Y0175821D01*
X0279504Y0176138D01*
X0280138Y0176138D01*
X0280455Y0175821D01*
X0281397Y0175821D02*
X0281397Y0175187D01*
X0281714Y0174870D01*
X0282665Y0174870D01*
X0282665Y0174236D02*
X0282665Y0176138D01*
X0281714Y0176138D01*
X0281397Y0175821D01*
X0282031Y0174870D02*
X0281397Y0174236D01*
X0281397Y0193836D02*
X0282031Y0194470D01*
X0281714Y0194470D02*
X0282665Y0194470D01*
X0282665Y0193836D02*
X0282665Y0195738D01*
X0281714Y0195738D01*
X0281397Y0195421D01*
X0281397Y0194787D01*
X0281714Y0194470D01*
X0280455Y0194153D02*
X0280138Y0193836D01*
X0279504Y0193836D01*
X0279187Y0194153D01*
X0279187Y0194470D01*
X0279504Y0194787D01*
X0279821Y0194787D01*
X0279504Y0194787D02*
X0279187Y0195104D01*
X0279187Y0195421D01*
X0279504Y0195738D01*
X0280138Y0195738D01*
X0280455Y0195421D01*
X0278245Y0195421D02*
X0277928Y0195738D01*
X0277294Y0195738D01*
X0276977Y0195421D01*
X0276977Y0195104D01*
X0278245Y0193836D01*
X0276977Y0193836D01*
X0277294Y0200236D02*
X0277928Y0200236D01*
X0278245Y0200553D01*
X0277611Y0201187D02*
X0277294Y0201187D01*
X0276977Y0200870D01*
X0276977Y0200553D01*
X0277294Y0200236D01*
X0277294Y0201187D02*
X0276977Y0201504D01*
X0276977Y0201821D01*
X0277294Y0202138D01*
X0277928Y0202138D01*
X0278245Y0201821D01*
X0279187Y0201821D02*
X0279187Y0201504D01*
X0279504Y0201187D01*
X0279187Y0200870D01*
X0279187Y0200553D01*
X0279504Y0200236D01*
X0280138Y0200236D01*
X0280455Y0200553D01*
X0279821Y0201187D02*
X0279504Y0201187D01*
X0279187Y0201821D02*
X0279504Y0202138D01*
X0280138Y0202138D01*
X0280455Y0201821D01*
X0281397Y0201821D02*
X0281397Y0201187D01*
X0281714Y0200870D01*
X0282665Y0200870D01*
X0282665Y0200236D02*
X0282665Y0202138D01*
X0281714Y0202138D01*
X0281397Y0201821D01*
X0282031Y0200870D02*
X0281397Y0200236D01*
X0299350Y0200292D02*
X0299667Y0200609D01*
X0299984Y0200609D01*
X0300301Y0200292D01*
X0300301Y0199341D01*
X0299667Y0199341D01*
X0299350Y0199658D01*
X0299350Y0200292D01*
X0300301Y0199341D02*
X0300935Y0199975D01*
X0301252Y0200609D01*
X0300935Y0198399D02*
X0300301Y0198399D01*
X0299984Y0198082D01*
X0299984Y0197131D01*
X0299350Y0197131D02*
X0301252Y0197131D01*
X0301252Y0198082D01*
X0300935Y0198399D01*
X0301252Y0196189D02*
X0301252Y0195555D01*
X0301252Y0195872D02*
X0299667Y0195872D01*
X0299350Y0195555D01*
X0299350Y0195238D01*
X0299667Y0194921D01*
X0300267Y0214921D02*
X0299950Y0215238D01*
X0299950Y0215555D01*
X0300267Y0215872D01*
X0301852Y0215872D01*
X0301852Y0215555D02*
X0301852Y0216189D01*
X0301852Y0217131D02*
X0301852Y0218082D01*
X0301535Y0218399D01*
X0300901Y0218399D01*
X0300584Y0218082D01*
X0300584Y0217131D01*
X0299950Y0217131D02*
X0301852Y0217131D01*
X0301852Y0219341D02*
X0300901Y0219341D01*
X0301218Y0219975D01*
X0301218Y0220292D01*
X0300901Y0220609D01*
X0300267Y0220609D01*
X0299950Y0220292D01*
X0299950Y0219658D01*
X0300267Y0219341D01*
X0301852Y0219341D02*
X0301852Y0220609D01*
X0282665Y0219738D02*
X0281714Y0219738D01*
X0281397Y0219421D01*
X0281397Y0218787D01*
X0281714Y0218470D01*
X0282665Y0218470D01*
X0282665Y0217836D02*
X0282665Y0219738D01*
X0282031Y0218470D02*
X0281397Y0217836D01*
X0281714Y0217138D02*
X0281397Y0216821D01*
X0281397Y0216187D01*
X0281714Y0215870D01*
X0282665Y0215870D01*
X0282665Y0215236D02*
X0282665Y0217138D01*
X0281714Y0217138D01*
X0280455Y0216821D02*
X0280138Y0217138D01*
X0279504Y0217138D01*
X0279187Y0216821D01*
X0279187Y0216504D01*
X0279504Y0216187D01*
X0279187Y0215870D01*
X0279187Y0215553D01*
X0279504Y0215236D01*
X0280138Y0215236D01*
X0280455Y0215553D01*
X0279821Y0216187D02*
X0279504Y0216187D01*
X0278245Y0216821D02*
X0277928Y0217138D01*
X0277294Y0217138D01*
X0276977Y0216821D01*
X0278245Y0215553D01*
X0277928Y0215236D01*
X0277294Y0215236D01*
X0276977Y0215553D01*
X0276977Y0216821D01*
X0277294Y0217836D02*
X0276977Y0218153D01*
X0276977Y0219421D01*
X0277294Y0219738D01*
X0277928Y0219738D01*
X0278245Y0219421D01*
X0278245Y0219104D01*
X0277928Y0218787D01*
X0276977Y0218787D01*
X0277294Y0217836D02*
X0277928Y0217836D01*
X0278245Y0218153D01*
X0279187Y0217836D02*
X0280455Y0217836D01*
X0279187Y0219104D01*
X0279187Y0219421D01*
X0279504Y0219738D01*
X0280138Y0219738D01*
X0280455Y0219421D01*
X0278245Y0216821D02*
X0278245Y0215553D01*
X0281397Y0215236D02*
X0282031Y0215870D01*
X0259850Y0229987D02*
X0259099Y0229236D01*
X0257598Y0229236D01*
X0256847Y0229987D01*
X0256847Y0232989D01*
X0257598Y0233740D01*
X0259099Y0233740D01*
X0259850Y0232989D01*
X0259850Y0229987D01*
X0255246Y0230737D02*
X0252244Y0233740D01*
X0250642Y0232989D02*
X0249892Y0233740D01*
X0248390Y0233740D01*
X0247640Y0232989D01*
X0247640Y0232239D01*
X0250642Y0229236D01*
X0247640Y0229236D01*
X0252244Y0229236D02*
X0254495Y0231488D01*
X0255246Y0233740D02*
X0255246Y0229236D01*
X0253600Y0227986D02*
X0253602Y0227904D01*
X0253608Y0227822D01*
X0253617Y0227741D01*
X0253631Y0227660D01*
X0253648Y0227579D01*
X0253669Y0227500D01*
X0253693Y0227422D01*
X0253722Y0227345D01*
X0253754Y0227269D01*
X0253789Y0227195D01*
X0253828Y0227123D01*
X0253870Y0227052D01*
X0253915Y0226984D01*
X0253964Y0226918D01*
X0254015Y0226854D01*
X0254070Y0226793D01*
X0254127Y0226734D01*
X0254187Y0226678D01*
X0254250Y0226625D01*
X0254315Y0226575D01*
X0254382Y0226528D01*
X0254451Y0226484D01*
X0254523Y0226444D01*
X0254596Y0226407D01*
X0254671Y0226373D01*
X0254747Y0226343D01*
X0254825Y0226317D01*
X0254904Y0226294D01*
X0254983Y0226275D01*
X0255064Y0226260D01*
X0255145Y0226248D01*
X0255227Y0226240D01*
X0255309Y0226236D01*
X0255391Y0226236D01*
X0255473Y0226240D01*
X0255555Y0226248D01*
X0255636Y0226260D01*
X0255717Y0226275D01*
X0255796Y0226294D01*
X0255875Y0226317D01*
X0255953Y0226343D01*
X0256029Y0226373D01*
X0256104Y0226407D01*
X0256177Y0226444D01*
X0256249Y0226484D01*
X0256318Y0226528D01*
X0256385Y0226575D01*
X0256450Y0226625D01*
X0256513Y0226678D01*
X0256573Y0226734D01*
X0256630Y0226793D01*
X0256685Y0226854D01*
X0256736Y0226918D01*
X0256785Y0226984D01*
X0256830Y0227052D01*
X0256872Y0227123D01*
X0256911Y0227195D01*
X0256946Y0227269D01*
X0256978Y0227345D01*
X0257007Y0227422D01*
X0257031Y0227500D01*
X0257052Y0227579D01*
X0257069Y0227660D01*
X0257083Y0227741D01*
X0257092Y0227822D01*
X0257098Y0227904D01*
X0257100Y0227986D01*
X0215252Y0218475D02*
X0213350Y0218475D01*
X0213350Y0217841D02*
X0213350Y0219109D01*
X0214618Y0217841D02*
X0215252Y0218475D01*
X0214935Y0216899D02*
X0214618Y0216899D01*
X0214301Y0216582D01*
X0213984Y0216899D01*
X0213667Y0216899D01*
X0213350Y0216582D01*
X0213350Y0215948D01*
X0213667Y0215631D01*
X0214301Y0216265D02*
X0214301Y0216582D01*
X0214935Y0216899D02*
X0215252Y0216582D01*
X0215252Y0215948D01*
X0214935Y0215631D01*
X0214935Y0214689D02*
X0214301Y0214689D01*
X0213984Y0214372D01*
X0213984Y0213421D01*
X0213350Y0213421D02*
X0215252Y0213421D01*
X0215252Y0214372D01*
X0214935Y0214689D01*
X0213984Y0214055D02*
X0213350Y0214689D01*
X0214401Y0200609D02*
X0214401Y0199341D01*
X0215352Y0200292D01*
X0213450Y0200292D01*
X0213767Y0198399D02*
X0213450Y0198082D01*
X0213450Y0197448D01*
X0213767Y0197131D01*
X0214401Y0197765D02*
X0214401Y0198082D01*
X0214084Y0198399D01*
X0213767Y0198399D01*
X0214401Y0198082D02*
X0214718Y0198399D01*
X0215035Y0198399D01*
X0215352Y0198082D01*
X0215352Y0197448D01*
X0215035Y0197131D01*
X0215035Y0196189D02*
X0214401Y0196189D01*
X0214084Y0195872D01*
X0214084Y0194921D01*
X0213450Y0194921D02*
X0215352Y0194921D01*
X0215352Y0195872D01*
X0215035Y0196189D01*
X0214084Y0195555D02*
X0213450Y0196189D01*
X0213667Y0180109D02*
X0214935Y0180109D01*
X0215252Y0179792D01*
X0215252Y0179158D01*
X0214935Y0178841D01*
X0214618Y0178841D01*
X0214301Y0179158D01*
X0214301Y0180109D01*
X0213667Y0180109D02*
X0213350Y0179792D01*
X0213350Y0179158D01*
X0213667Y0178841D01*
X0213667Y0177899D02*
X0213350Y0177582D01*
X0213350Y0176948D01*
X0213667Y0176631D01*
X0214301Y0177265D02*
X0214301Y0177582D01*
X0213984Y0177899D01*
X0213667Y0177899D01*
X0214301Y0177582D02*
X0214618Y0177899D01*
X0214935Y0177899D01*
X0215252Y0177582D01*
X0215252Y0176948D01*
X0214935Y0176631D01*
X0214935Y0175689D02*
X0214301Y0175689D01*
X0213984Y0175372D01*
X0213984Y0174421D01*
X0213350Y0174421D02*
X0215252Y0174421D01*
X0215252Y0175372D01*
X0214935Y0175689D01*
X0213984Y0175055D02*
X0213350Y0175689D01*
X0213767Y0163109D02*
X0213450Y0162792D01*
X0213450Y0162158D01*
X0213767Y0161841D01*
X0215035Y0163109D01*
X0213767Y0163109D01*
X0215035Y0163109D02*
X0215352Y0162792D01*
X0215352Y0162158D01*
X0215035Y0161841D01*
X0213767Y0161841D01*
X0214401Y0160899D02*
X0214401Y0159631D01*
X0215352Y0160582D01*
X0213450Y0160582D01*
X0213450Y0158689D02*
X0214084Y0158055D01*
X0214084Y0158372D02*
X0214084Y0157421D01*
X0213450Y0157421D02*
X0215352Y0157421D01*
X0215352Y0158372D01*
X0215035Y0158689D01*
X0214401Y0158689D01*
X0214084Y0158372D01*
X0278611Y0130138D02*
X0278611Y0128236D01*
X0279245Y0128236D02*
X0277977Y0128236D01*
X0279245Y0129504D02*
X0278611Y0130138D01*
X0280187Y0130138D02*
X0280821Y0129821D01*
X0281455Y0129187D01*
X0280504Y0129187D01*
X0280187Y0128870D01*
X0280187Y0128553D01*
X0280504Y0128236D01*
X0281138Y0128236D01*
X0281455Y0128553D01*
X0281455Y0129187D01*
X0282397Y0129187D02*
X0282714Y0128870D01*
X0283665Y0128870D01*
X0283665Y0128236D02*
X0283665Y0130138D01*
X0282714Y0130138D01*
X0282397Y0129821D01*
X0282397Y0129187D01*
X0283031Y0128870D02*
X0282397Y0128236D01*
X0274435Y0096109D02*
X0273167Y0096109D01*
X0272850Y0095792D01*
X0272850Y0095158D01*
X0273167Y0094841D01*
X0273801Y0095158D02*
X0273801Y0096109D01*
X0274435Y0096109D02*
X0274752Y0095792D01*
X0274752Y0095158D01*
X0274435Y0094841D01*
X0274118Y0094841D01*
X0273801Y0095158D01*
X0273801Y0093899D02*
X0273167Y0093899D01*
X0272850Y0093582D01*
X0272850Y0092948D01*
X0273167Y0092631D01*
X0273801Y0092631D02*
X0274118Y0093265D01*
X0274118Y0093582D01*
X0273801Y0093899D01*
X0274752Y0093899D02*
X0274752Y0092631D01*
X0273801Y0092631D01*
X0273801Y0091689D02*
X0273484Y0091372D01*
X0273484Y0090421D01*
X0272850Y0090421D02*
X0274752Y0090421D01*
X0274752Y0091372D01*
X0274435Y0091689D01*
X0273801Y0091689D01*
X0273484Y0091055D02*
X0272850Y0091689D01*
X0279767Y0083609D02*
X0279450Y0083292D01*
X0279450Y0082658D01*
X0279767Y0082341D01*
X0280401Y0082975D02*
X0280401Y0083292D01*
X0280084Y0083609D01*
X0279767Y0083609D01*
X0280401Y0083292D02*
X0280718Y0083609D01*
X0281035Y0083609D01*
X0281352Y0083292D01*
X0281352Y0082658D01*
X0281035Y0082341D01*
X0281352Y0080765D02*
X0279450Y0080765D01*
X0279450Y0080131D02*
X0279450Y0081399D01*
X0280718Y0080131D02*
X0281352Y0080765D01*
X0281035Y0079189D02*
X0281352Y0078872D01*
X0281352Y0078238D01*
X0281035Y0077921D01*
X0279767Y0077921D01*
X0279450Y0078238D01*
X0279450Y0078872D01*
X0279767Y0079189D01*
X0279455Y0071138D02*
X0278187Y0071138D01*
X0278504Y0070504D02*
X0278187Y0070187D01*
X0278187Y0069553D01*
X0278504Y0069236D01*
X0279138Y0069236D01*
X0279455Y0069553D01*
X0279455Y0070187D02*
X0278821Y0070504D01*
X0278504Y0070504D01*
X0279455Y0070187D02*
X0279455Y0071138D01*
X0280397Y0070821D02*
X0280397Y0070187D01*
X0280714Y0069870D01*
X0281665Y0069870D01*
X0281665Y0069236D02*
X0281665Y0071138D01*
X0280714Y0071138D01*
X0280397Y0070821D01*
X0281031Y0069870D02*
X0280397Y0069236D01*
X0277245Y0069553D02*
X0276928Y0069236D01*
X0276294Y0069236D01*
X0275977Y0069553D01*
X0275977Y0070187D01*
X0276294Y0070504D01*
X0276611Y0070504D01*
X0277245Y0070187D01*
X0277245Y0071138D01*
X0275977Y0071138D01*
X0258850Y0081236D02*
X0257349Y0081236D01*
X0258099Y0081236D02*
X0258099Y0085740D01*
X0257349Y0085740D02*
X0258850Y0085740D01*
X0255781Y0084989D02*
X0255781Y0081987D01*
X0255030Y0081236D01*
X0253529Y0081236D01*
X0252778Y0081987D01*
X0251177Y0081987D02*
X0250426Y0081236D01*
X0248925Y0081236D01*
X0248174Y0081987D01*
X0248174Y0083488D01*
X0248925Y0084239D01*
X0249676Y0084239D01*
X0251177Y0083488D01*
X0251177Y0085740D01*
X0248174Y0085740D01*
X0252778Y0084989D02*
X0253529Y0085740D01*
X0255030Y0085740D01*
X0255781Y0084989D01*
X0238665Y0088153D02*
X0238348Y0087836D01*
X0237714Y0087836D01*
X0237397Y0088153D01*
X0236455Y0087836D02*
X0235187Y0087836D01*
X0235821Y0087836D02*
X0235821Y0089738D01*
X0236455Y0089104D01*
X0237397Y0089421D02*
X0237714Y0089738D01*
X0238348Y0089738D01*
X0238665Y0089421D01*
X0238665Y0088153D01*
X0234245Y0087836D02*
X0232977Y0087836D01*
X0233611Y0087836D02*
X0233611Y0089738D01*
X0234245Y0089104D01*
X0235187Y0094836D02*
X0236455Y0094836D01*
X0235821Y0094836D02*
X0235821Y0096738D01*
X0236455Y0096104D01*
X0237397Y0096421D02*
X0237714Y0096738D01*
X0238348Y0096738D01*
X0238665Y0096421D01*
X0238665Y0095153D01*
X0238348Y0094836D01*
X0237714Y0094836D01*
X0237397Y0095153D01*
X0234245Y0095787D02*
X0232977Y0095787D01*
X0233294Y0096738D02*
X0234245Y0095787D01*
X0233294Y0094836D02*
X0233294Y0096738D01*
X0201665Y0073738D02*
X0201665Y0071836D01*
X0201665Y0072470D02*
X0200714Y0072470D01*
X0200397Y0072787D01*
X0200397Y0073421D01*
X0200714Y0073738D01*
X0201665Y0073738D01*
X0201031Y0072470D02*
X0200397Y0071836D01*
X0199455Y0072153D02*
X0199138Y0071836D01*
X0198504Y0071836D01*
X0198187Y0072153D01*
X0198187Y0072787D01*
X0198504Y0073104D01*
X0198821Y0073104D01*
X0199455Y0072787D01*
X0199455Y0073738D01*
X0198187Y0073738D01*
X0197245Y0072787D02*
X0196294Y0072787D01*
X0195977Y0072470D01*
X0195977Y0072153D01*
X0196294Y0071836D01*
X0196928Y0071836D01*
X0197245Y0072153D01*
X0197245Y0072787D01*
X0196611Y0073421D01*
X0195977Y0073738D01*
X0196611Y0067138D02*
X0196611Y0065236D01*
X0197245Y0065236D02*
X0195977Y0065236D01*
X0197245Y0066504D02*
X0196611Y0067138D01*
X0198187Y0066821D02*
X0198187Y0066504D01*
X0199455Y0065236D01*
X0198187Y0065236D01*
X0198187Y0066821D02*
X0198504Y0067138D01*
X0199138Y0067138D01*
X0199455Y0066821D01*
X0200397Y0066821D02*
X0200714Y0067138D01*
X0201348Y0067138D01*
X0201665Y0066821D01*
X0201665Y0065553D01*
X0201348Y0065236D01*
X0200714Y0065236D01*
X0200397Y0065553D01*
X0279350Y0045292D02*
X0279350Y0044658D01*
X0279667Y0044341D01*
X0280301Y0044975D02*
X0280301Y0045292D01*
X0279984Y0045609D01*
X0279667Y0045609D01*
X0279350Y0045292D01*
X0280301Y0045292D02*
X0280618Y0045609D01*
X0280935Y0045609D01*
X0281252Y0045292D01*
X0281252Y0044658D01*
X0280935Y0044341D01*
X0281252Y0043399D02*
X0281252Y0042131D01*
X0280301Y0042131D01*
X0280618Y0042765D01*
X0280618Y0043082D01*
X0280301Y0043399D01*
X0279667Y0043399D01*
X0279350Y0043082D01*
X0279350Y0042448D01*
X0279667Y0042131D01*
X0279350Y0041189D02*
X0279984Y0040555D01*
X0279984Y0040872D02*
X0279984Y0039921D01*
X0279350Y0039921D02*
X0281252Y0039921D01*
X0281252Y0040872D01*
X0280935Y0041189D01*
X0280301Y0041189D01*
X0279984Y0040872D01*
X0327294Y0071836D02*
X0327294Y0073738D01*
X0328245Y0072787D01*
X0326977Y0072787D01*
X0329187Y0073421D02*
X0330455Y0072153D01*
X0330455Y0071836D01*
X0331397Y0071836D02*
X0332031Y0072470D01*
X0331714Y0072470D02*
X0332665Y0072470D01*
X0332665Y0071836D02*
X0332665Y0073738D01*
X0331714Y0073738D01*
X0331397Y0073421D01*
X0331397Y0072787D01*
X0331714Y0072470D01*
X0330455Y0073738D02*
X0329187Y0073738D01*
X0329187Y0073421D01*
X0343350Y0083421D02*
X0345252Y0083421D01*
X0345252Y0084372D01*
X0344935Y0084689D01*
X0344301Y0084689D01*
X0343984Y0084372D01*
X0343984Y0083421D01*
X0343984Y0084055D02*
X0343350Y0084689D01*
X0343350Y0085631D02*
X0343667Y0085631D01*
X0344935Y0086899D01*
X0345252Y0086899D01*
X0345252Y0085631D01*
X0344935Y0087841D02*
X0345252Y0088158D01*
X0345252Y0088792D01*
X0344935Y0089109D01*
X0344618Y0089109D01*
X0344301Y0088792D01*
X0343984Y0089109D01*
X0343667Y0089109D01*
X0343350Y0088792D01*
X0343350Y0088158D01*
X0343667Y0087841D01*
X0344301Y0088475D02*
X0344301Y0088792D01*
X0332665Y0088138D02*
X0332665Y0086236D01*
X0332665Y0086870D02*
X0331714Y0086870D01*
X0331397Y0087187D01*
X0331397Y0087821D01*
X0331714Y0088138D01*
X0332665Y0088138D01*
X0332031Y0086870D02*
X0331397Y0086236D01*
X0330455Y0086553D02*
X0330138Y0086236D01*
X0329504Y0086236D01*
X0329187Y0086553D01*
X0329187Y0087187D01*
X0329504Y0087504D01*
X0329821Y0087504D01*
X0330455Y0087187D01*
X0330455Y0088138D01*
X0329187Y0088138D01*
X0328245Y0088138D02*
X0326977Y0088138D01*
X0326977Y0087821D01*
X0328245Y0086553D01*
X0328245Y0086236D01*
X0337140Y0101736D02*
X0337140Y0102053D01*
X0335872Y0103321D01*
X0335872Y0103638D01*
X0337140Y0103638D01*
X0338716Y0103638D02*
X0338716Y0101736D01*
X0339350Y0101736D02*
X0338082Y0101736D01*
X0339350Y0103004D02*
X0338716Y0103638D01*
X0340292Y0103321D02*
X0340609Y0103638D01*
X0341560Y0103638D01*
X0341560Y0101736D01*
X0341560Y0102370D02*
X0340609Y0102370D01*
X0340292Y0102687D01*
X0340292Y0103321D01*
X0342502Y0103638D02*
X0343136Y0103638D01*
X0342819Y0103638D02*
X0342819Y0102053D01*
X0343136Y0101736D01*
X0343453Y0101736D01*
X0343770Y0102053D01*
X0357167Y0120816D02*
X0356850Y0121133D01*
X0356850Y0121450D01*
X0357167Y0121767D01*
X0358752Y0121767D01*
X0358752Y0121450D02*
X0358752Y0122084D01*
X0358752Y0123026D02*
X0358752Y0123977D01*
X0358435Y0124294D01*
X0357801Y0124294D01*
X0357484Y0123977D01*
X0357484Y0123026D01*
X0356850Y0123026D02*
X0358752Y0123026D01*
X0358118Y0125236D02*
X0358752Y0125870D01*
X0356850Y0125870D01*
X0356850Y0125236D02*
X0356850Y0126504D01*
X0357167Y0127446D02*
X0357484Y0127446D01*
X0357801Y0127763D01*
X0357801Y0128397D01*
X0357484Y0128714D01*
X0357167Y0128714D01*
X0356850Y0128397D01*
X0356850Y0127763D01*
X0357167Y0127446D01*
X0357801Y0127763D02*
X0358118Y0127446D01*
X0358435Y0127446D01*
X0358752Y0127763D01*
X0358752Y0128397D01*
X0358435Y0128714D01*
X0358118Y0128714D01*
X0357801Y0128397D01*
X0343665Y0131236D02*
X0343665Y0133138D01*
X0342714Y0133138D01*
X0342397Y0132821D01*
X0342397Y0132187D01*
X0342714Y0131870D01*
X0343665Y0131870D01*
X0343031Y0131870D02*
X0342397Y0131236D01*
X0341455Y0131236D02*
X0341455Y0131553D01*
X0340187Y0132821D01*
X0340187Y0133138D01*
X0341455Y0133138D01*
X0339245Y0132504D02*
X0338611Y0133138D01*
X0338611Y0131236D01*
X0339245Y0131236D02*
X0337977Y0131236D01*
X0332665Y0137336D02*
X0332665Y0139238D01*
X0331714Y0139238D01*
X0331397Y0138921D01*
X0331397Y0138287D01*
X0331714Y0137970D01*
X0332665Y0137970D01*
X0332031Y0137970D02*
X0331397Y0137336D01*
X0330455Y0137336D02*
X0330455Y0137653D01*
X0329187Y0138921D01*
X0329187Y0139238D01*
X0330455Y0139238D01*
X0328245Y0138921D02*
X0327928Y0139238D01*
X0327294Y0139238D01*
X0326977Y0138921D01*
X0326977Y0138604D01*
X0328245Y0137336D01*
X0326977Y0137336D01*
X0327294Y0124638D02*
X0326977Y0124321D01*
X0326977Y0124004D01*
X0327294Y0123687D01*
X0327928Y0123687D01*
X0328245Y0124004D01*
X0328245Y0124321D01*
X0327928Y0124638D01*
X0327294Y0124638D01*
X0327294Y0123687D02*
X0326977Y0123370D01*
X0326977Y0123053D01*
X0327294Y0122736D01*
X0327928Y0122736D01*
X0328245Y0123053D01*
X0328245Y0123370D01*
X0327928Y0123687D01*
X0329187Y0123687D02*
X0329187Y0123053D01*
X0329504Y0122736D01*
X0330138Y0122736D01*
X0330455Y0123053D01*
X0330455Y0123687D02*
X0329821Y0124004D01*
X0329504Y0124004D01*
X0329187Y0123687D01*
X0329187Y0124638D02*
X0330455Y0124638D01*
X0330455Y0123687D01*
X0331397Y0123687D02*
X0331714Y0123370D01*
X0332665Y0123370D01*
X0332665Y0122736D02*
X0332665Y0124638D01*
X0331714Y0124638D01*
X0331397Y0124321D01*
X0331397Y0123687D01*
X0332031Y0123370D02*
X0331397Y0122736D01*
X0291352Y0093292D02*
X0291035Y0093609D01*
X0290718Y0093609D01*
X0289450Y0092341D01*
X0289450Y0093609D01*
X0291352Y0093292D02*
X0291352Y0092658D01*
X0291035Y0092341D01*
X0291352Y0090765D02*
X0289450Y0090765D01*
X0289450Y0090131D02*
X0289450Y0091399D01*
X0290718Y0090131D02*
X0291352Y0090765D01*
X0291035Y0089189D02*
X0291352Y0088872D01*
X0291352Y0088238D01*
X0291035Y0087921D01*
X0289767Y0087921D01*
X0289450Y0088238D01*
X0289450Y0088872D01*
X0289767Y0089189D01*
X0405600Y0287486D02*
X0405600Y0297486D01*
X0405600Y0287486D02*
X0465600Y0287486D01*
X0465600Y0297486D01*
D12*
X0298600Y0222986D02*
X0298600Y0212986D01*
X0298598Y0212926D01*
X0298593Y0212865D01*
X0298584Y0212806D01*
X0298571Y0212747D01*
X0298555Y0212688D01*
X0298535Y0212631D01*
X0298512Y0212576D01*
X0298485Y0212521D01*
X0298456Y0212469D01*
X0298423Y0212418D01*
X0298387Y0212369D01*
X0298349Y0212323D01*
X0298307Y0212279D01*
X0298263Y0212237D01*
X0298217Y0212199D01*
X0298168Y0212163D01*
X0298117Y0212130D01*
X0298065Y0212101D01*
X0298010Y0212074D01*
X0297955Y0212051D01*
X0297898Y0212031D01*
X0297839Y0212015D01*
X0297780Y0212002D01*
X0297721Y0211993D01*
X0297660Y0211988D01*
X0297600Y0211986D01*
X0291600Y0211986D01*
X0291540Y0211988D01*
X0291479Y0211993D01*
X0291420Y0212002D01*
X0291361Y0212015D01*
X0291302Y0212031D01*
X0291245Y0212051D01*
X0291190Y0212074D01*
X0291135Y0212101D01*
X0291083Y0212130D01*
X0291032Y0212163D01*
X0290983Y0212199D01*
X0290937Y0212237D01*
X0290893Y0212279D01*
X0290851Y0212323D01*
X0290813Y0212369D01*
X0290777Y0212418D01*
X0290744Y0212469D01*
X0290715Y0212521D01*
X0290688Y0212576D01*
X0290665Y0212631D01*
X0290645Y0212688D01*
X0290629Y0212747D01*
X0290616Y0212806D01*
X0290607Y0212865D01*
X0290602Y0212926D01*
X0290600Y0212986D01*
X0290600Y0222986D01*
X0290602Y0223046D01*
X0290607Y0223107D01*
X0290616Y0223166D01*
X0290629Y0223225D01*
X0290645Y0223284D01*
X0290665Y0223341D01*
X0290688Y0223396D01*
X0290715Y0223451D01*
X0290744Y0223503D01*
X0290777Y0223554D01*
X0290813Y0223603D01*
X0290851Y0223649D01*
X0290893Y0223693D01*
X0290937Y0223735D01*
X0290983Y0223773D01*
X0291032Y0223809D01*
X0291083Y0223842D01*
X0291135Y0223871D01*
X0291190Y0223898D01*
X0291245Y0223921D01*
X0291302Y0223941D01*
X0291361Y0223957D01*
X0291420Y0223970D01*
X0291479Y0223979D01*
X0291540Y0223984D01*
X0291600Y0223986D01*
X0297600Y0223986D01*
X0297660Y0223984D01*
X0297721Y0223979D01*
X0297780Y0223970D01*
X0297839Y0223957D01*
X0297898Y0223941D01*
X0297955Y0223921D01*
X0298010Y0223898D01*
X0298065Y0223871D01*
X0298117Y0223842D01*
X0298168Y0223809D01*
X0298217Y0223773D01*
X0298263Y0223735D01*
X0298307Y0223693D01*
X0298349Y0223649D01*
X0298387Y0223603D01*
X0298423Y0223554D01*
X0298456Y0223503D01*
X0298485Y0223451D01*
X0298512Y0223396D01*
X0298535Y0223341D01*
X0298555Y0223284D01*
X0298571Y0223225D01*
X0298584Y0223166D01*
X0298593Y0223107D01*
X0298598Y0223046D01*
X0298600Y0222986D01*
X0297600Y0203986D02*
X0291600Y0203986D01*
X0291540Y0203984D01*
X0291479Y0203979D01*
X0291420Y0203970D01*
X0291361Y0203957D01*
X0291302Y0203941D01*
X0291245Y0203921D01*
X0291190Y0203898D01*
X0291135Y0203871D01*
X0291083Y0203842D01*
X0291032Y0203809D01*
X0290983Y0203773D01*
X0290937Y0203735D01*
X0290893Y0203693D01*
X0290851Y0203649D01*
X0290813Y0203603D01*
X0290777Y0203554D01*
X0290744Y0203503D01*
X0290715Y0203451D01*
X0290688Y0203396D01*
X0290665Y0203341D01*
X0290645Y0203284D01*
X0290629Y0203225D01*
X0290616Y0203166D01*
X0290607Y0203107D01*
X0290602Y0203046D01*
X0290600Y0202986D01*
X0290600Y0192986D01*
X0290602Y0192926D01*
X0290607Y0192865D01*
X0290616Y0192806D01*
X0290629Y0192747D01*
X0290645Y0192688D01*
X0290665Y0192631D01*
X0290688Y0192576D01*
X0290715Y0192521D01*
X0290744Y0192469D01*
X0290777Y0192418D01*
X0290813Y0192369D01*
X0290851Y0192323D01*
X0290893Y0192279D01*
X0290937Y0192237D01*
X0290983Y0192199D01*
X0291032Y0192163D01*
X0291083Y0192130D01*
X0291135Y0192101D01*
X0291190Y0192074D01*
X0291245Y0192051D01*
X0291302Y0192031D01*
X0291361Y0192015D01*
X0291420Y0192002D01*
X0291479Y0191993D01*
X0291540Y0191988D01*
X0291600Y0191986D01*
X0297600Y0191986D01*
X0297660Y0191988D01*
X0297721Y0191993D01*
X0297780Y0192002D01*
X0297839Y0192015D01*
X0297898Y0192031D01*
X0297955Y0192051D01*
X0298010Y0192074D01*
X0298065Y0192101D01*
X0298117Y0192130D01*
X0298168Y0192163D01*
X0298217Y0192199D01*
X0298263Y0192237D01*
X0298307Y0192279D01*
X0298349Y0192323D01*
X0298387Y0192369D01*
X0298423Y0192418D01*
X0298456Y0192469D01*
X0298485Y0192521D01*
X0298512Y0192576D01*
X0298535Y0192631D01*
X0298555Y0192688D01*
X0298571Y0192747D01*
X0298584Y0192806D01*
X0298593Y0192865D01*
X0298598Y0192926D01*
X0298600Y0192986D01*
X0298600Y0202986D01*
X0298598Y0203046D01*
X0298593Y0203107D01*
X0298584Y0203166D01*
X0298571Y0203225D01*
X0298555Y0203284D01*
X0298535Y0203341D01*
X0298512Y0203396D01*
X0298485Y0203451D01*
X0298456Y0203503D01*
X0298423Y0203554D01*
X0298387Y0203603D01*
X0298349Y0203649D01*
X0298307Y0203693D01*
X0298263Y0203735D01*
X0298217Y0203773D01*
X0298168Y0203809D01*
X0298117Y0203842D01*
X0298065Y0203871D01*
X0298010Y0203898D01*
X0297955Y0203921D01*
X0297898Y0203941D01*
X0297839Y0203957D01*
X0297780Y0203970D01*
X0297721Y0203979D01*
X0297660Y0203984D01*
X0297600Y0203986D01*
X0297600Y0183986D02*
X0291600Y0183986D01*
X0291540Y0183984D01*
X0291479Y0183979D01*
X0291420Y0183970D01*
X0291361Y0183957D01*
X0291302Y0183941D01*
X0291245Y0183921D01*
X0291190Y0183898D01*
X0291135Y0183871D01*
X0291083Y0183842D01*
X0291032Y0183809D01*
X0290983Y0183773D01*
X0290937Y0183735D01*
X0290893Y0183693D01*
X0290851Y0183649D01*
X0290813Y0183603D01*
X0290777Y0183554D01*
X0290744Y0183503D01*
X0290715Y0183451D01*
X0290688Y0183396D01*
X0290665Y0183341D01*
X0290645Y0183284D01*
X0290629Y0183225D01*
X0290616Y0183166D01*
X0290607Y0183107D01*
X0290602Y0183046D01*
X0290600Y0182986D01*
X0290600Y0172986D01*
X0290602Y0172926D01*
X0290607Y0172865D01*
X0290616Y0172806D01*
X0290629Y0172747D01*
X0290645Y0172688D01*
X0290665Y0172631D01*
X0290688Y0172576D01*
X0290715Y0172521D01*
X0290744Y0172469D01*
X0290777Y0172418D01*
X0290813Y0172369D01*
X0290851Y0172323D01*
X0290893Y0172279D01*
X0290937Y0172237D01*
X0290983Y0172199D01*
X0291032Y0172163D01*
X0291083Y0172130D01*
X0291135Y0172101D01*
X0291190Y0172074D01*
X0291245Y0172051D01*
X0291302Y0172031D01*
X0291361Y0172015D01*
X0291420Y0172002D01*
X0291479Y0171993D01*
X0291540Y0171988D01*
X0291600Y0171986D01*
X0297600Y0171986D01*
X0297660Y0171988D01*
X0297721Y0171993D01*
X0297780Y0172002D01*
X0297839Y0172015D01*
X0297898Y0172031D01*
X0297955Y0172051D01*
X0298010Y0172074D01*
X0298065Y0172101D01*
X0298117Y0172130D01*
X0298168Y0172163D01*
X0298217Y0172199D01*
X0298263Y0172237D01*
X0298307Y0172279D01*
X0298349Y0172323D01*
X0298387Y0172369D01*
X0298423Y0172418D01*
X0298456Y0172469D01*
X0298485Y0172521D01*
X0298512Y0172576D01*
X0298535Y0172631D01*
X0298555Y0172688D01*
X0298571Y0172747D01*
X0298584Y0172806D01*
X0298593Y0172865D01*
X0298598Y0172926D01*
X0298600Y0172986D01*
X0298600Y0182986D01*
X0298598Y0183046D01*
X0298593Y0183107D01*
X0298584Y0183166D01*
X0298571Y0183225D01*
X0298555Y0183284D01*
X0298535Y0183341D01*
X0298512Y0183396D01*
X0298485Y0183451D01*
X0298456Y0183503D01*
X0298423Y0183554D01*
X0298387Y0183603D01*
X0298349Y0183649D01*
X0298307Y0183693D01*
X0298263Y0183735D01*
X0298217Y0183773D01*
X0298168Y0183809D01*
X0298117Y0183842D01*
X0298065Y0183871D01*
X0298010Y0183898D01*
X0297955Y0183921D01*
X0297898Y0183941D01*
X0297839Y0183957D01*
X0297780Y0183970D01*
X0297721Y0183979D01*
X0297660Y0183984D01*
X0297600Y0183986D01*
X0297600Y0164986D02*
X0291600Y0164986D01*
X0291540Y0164984D01*
X0291479Y0164979D01*
X0291420Y0164970D01*
X0291361Y0164957D01*
X0291302Y0164941D01*
X0291245Y0164921D01*
X0291190Y0164898D01*
X0291135Y0164871D01*
X0291083Y0164842D01*
X0291032Y0164809D01*
X0290983Y0164773D01*
X0290937Y0164735D01*
X0290893Y0164693D01*
X0290851Y0164649D01*
X0290813Y0164603D01*
X0290777Y0164554D01*
X0290744Y0164503D01*
X0290715Y0164451D01*
X0290688Y0164396D01*
X0290665Y0164341D01*
X0290645Y0164284D01*
X0290629Y0164225D01*
X0290616Y0164166D01*
X0290607Y0164107D01*
X0290602Y0164046D01*
X0290600Y0163986D01*
X0290600Y0153986D01*
X0290602Y0153926D01*
X0290607Y0153865D01*
X0290616Y0153806D01*
X0290629Y0153747D01*
X0290645Y0153688D01*
X0290665Y0153631D01*
X0290688Y0153576D01*
X0290715Y0153521D01*
X0290744Y0153469D01*
X0290777Y0153418D01*
X0290813Y0153369D01*
X0290851Y0153323D01*
X0290893Y0153279D01*
X0290937Y0153237D01*
X0290983Y0153199D01*
X0291032Y0153163D01*
X0291083Y0153130D01*
X0291135Y0153101D01*
X0291190Y0153074D01*
X0291245Y0153051D01*
X0291302Y0153031D01*
X0291361Y0153015D01*
X0291420Y0153002D01*
X0291479Y0152993D01*
X0291540Y0152988D01*
X0291600Y0152986D01*
X0297600Y0152986D01*
X0297660Y0152988D01*
X0297721Y0152993D01*
X0297780Y0153002D01*
X0297839Y0153015D01*
X0297898Y0153031D01*
X0297955Y0153051D01*
X0298010Y0153074D01*
X0298065Y0153101D01*
X0298117Y0153130D01*
X0298168Y0153163D01*
X0298217Y0153199D01*
X0298263Y0153237D01*
X0298307Y0153279D01*
X0298349Y0153323D01*
X0298387Y0153369D01*
X0298423Y0153418D01*
X0298456Y0153469D01*
X0298485Y0153521D01*
X0298512Y0153576D01*
X0298535Y0153631D01*
X0298555Y0153688D01*
X0298571Y0153747D01*
X0298584Y0153806D01*
X0298593Y0153865D01*
X0298598Y0153926D01*
X0298600Y0153986D01*
X0298600Y0163986D01*
X0298598Y0164046D01*
X0298593Y0164107D01*
X0298584Y0164166D01*
X0298571Y0164225D01*
X0298555Y0164284D01*
X0298535Y0164341D01*
X0298512Y0164396D01*
X0298485Y0164451D01*
X0298456Y0164503D01*
X0298423Y0164554D01*
X0298387Y0164603D01*
X0298349Y0164649D01*
X0298307Y0164693D01*
X0298263Y0164735D01*
X0298217Y0164773D01*
X0298168Y0164809D01*
X0298117Y0164842D01*
X0298065Y0164871D01*
X0298010Y0164898D01*
X0297955Y0164921D01*
X0297898Y0164941D01*
X0297839Y0164957D01*
X0297780Y0164970D01*
X0297721Y0164979D01*
X0297660Y0164984D01*
X0297600Y0164986D01*
X0260120Y0149872D02*
X0235080Y0149872D01*
X0235080Y0139100D02*
X0260120Y0139100D01*
X0260120Y0100872D01*
X0256120Y0100872D01*
X0256120Y0139100D01*
X0235080Y0139100D02*
X0235080Y0100872D01*
X0256120Y0100872D01*
X0255120Y0080100D02*
X0255120Y0041872D01*
X0259120Y0041872D01*
X0259120Y0080100D01*
X0234080Y0080100D01*
X0234080Y0041872D01*
X0255120Y0041872D01*
X0318000Y0096386D02*
X0318000Y0099586D01*
X0320200Y0099586D01*
X0327000Y0099586D02*
X0329200Y0099586D01*
X0329200Y0096386D01*
X0333600Y0093986D02*
X0333600Y0099986D01*
X0333602Y0100046D01*
X0333607Y0100107D01*
X0333616Y0100166D01*
X0333629Y0100225D01*
X0333645Y0100284D01*
X0333665Y0100341D01*
X0333688Y0100396D01*
X0333715Y0100451D01*
X0333744Y0100503D01*
X0333777Y0100554D01*
X0333813Y0100603D01*
X0333851Y0100649D01*
X0333893Y0100693D01*
X0333937Y0100735D01*
X0333983Y0100773D01*
X0334032Y0100809D01*
X0334083Y0100842D01*
X0334135Y0100871D01*
X0334190Y0100898D01*
X0334245Y0100921D01*
X0334302Y0100941D01*
X0334361Y0100957D01*
X0334420Y0100970D01*
X0334479Y0100979D01*
X0334540Y0100984D01*
X0334600Y0100986D01*
X0344600Y0100986D01*
X0344660Y0100984D01*
X0344721Y0100979D01*
X0344780Y0100970D01*
X0344839Y0100957D01*
X0344898Y0100941D01*
X0344955Y0100921D01*
X0345010Y0100898D01*
X0345065Y0100871D01*
X0345117Y0100842D01*
X0345168Y0100809D01*
X0345217Y0100773D01*
X0345263Y0100735D01*
X0345307Y0100693D01*
X0345349Y0100649D01*
X0345387Y0100603D01*
X0345423Y0100554D01*
X0345456Y0100503D01*
X0345485Y0100451D01*
X0345512Y0100396D01*
X0345535Y0100341D01*
X0345555Y0100284D01*
X0345571Y0100225D01*
X0345584Y0100166D01*
X0345593Y0100107D01*
X0345598Y0100046D01*
X0345600Y0099986D01*
X0345600Y0093986D01*
X0345598Y0093926D01*
X0345593Y0093865D01*
X0345584Y0093806D01*
X0345571Y0093747D01*
X0345555Y0093688D01*
X0345535Y0093631D01*
X0345512Y0093576D01*
X0345485Y0093521D01*
X0345456Y0093469D01*
X0345423Y0093418D01*
X0345387Y0093369D01*
X0345349Y0093323D01*
X0345307Y0093279D01*
X0345263Y0093237D01*
X0345217Y0093199D01*
X0345168Y0093163D01*
X0345117Y0093130D01*
X0345065Y0093101D01*
X0345010Y0093074D01*
X0344955Y0093051D01*
X0344898Y0093031D01*
X0344839Y0093015D01*
X0344780Y0093002D01*
X0344721Y0092993D01*
X0344660Y0092988D01*
X0344600Y0092986D01*
X0334600Y0092986D01*
X0334540Y0092988D01*
X0334479Y0092993D01*
X0334420Y0093002D01*
X0334361Y0093015D01*
X0334302Y0093031D01*
X0334245Y0093051D01*
X0334190Y0093074D01*
X0334135Y0093101D01*
X0334083Y0093130D01*
X0334032Y0093163D01*
X0333983Y0093199D01*
X0333937Y0093237D01*
X0333893Y0093279D01*
X0333851Y0093323D01*
X0333813Y0093369D01*
X0333777Y0093418D01*
X0333744Y0093469D01*
X0333715Y0093521D01*
X0333688Y0093576D01*
X0333665Y0093631D01*
X0333645Y0093688D01*
X0333629Y0093747D01*
X0333616Y0093806D01*
X0333607Y0093865D01*
X0333602Y0093926D01*
X0333600Y0093986D01*
X0329200Y0112386D02*
X0329200Y0115586D01*
X0327000Y0115586D01*
X0320200Y0115586D02*
X0318000Y0115586D01*
X0318000Y0112386D01*
X0348100Y0119986D02*
X0348100Y0129986D01*
X0348102Y0130046D01*
X0348107Y0130107D01*
X0348116Y0130166D01*
X0348129Y0130225D01*
X0348145Y0130284D01*
X0348165Y0130341D01*
X0348188Y0130396D01*
X0348215Y0130451D01*
X0348244Y0130503D01*
X0348277Y0130554D01*
X0348313Y0130603D01*
X0348351Y0130649D01*
X0348393Y0130693D01*
X0348437Y0130735D01*
X0348483Y0130773D01*
X0348532Y0130809D01*
X0348583Y0130842D01*
X0348635Y0130871D01*
X0348690Y0130898D01*
X0348745Y0130921D01*
X0348802Y0130941D01*
X0348861Y0130957D01*
X0348920Y0130970D01*
X0348979Y0130979D01*
X0349040Y0130984D01*
X0349100Y0130986D01*
X0355100Y0130986D01*
X0355160Y0130984D01*
X0355221Y0130979D01*
X0355280Y0130970D01*
X0355339Y0130957D01*
X0355398Y0130941D01*
X0355455Y0130921D01*
X0355510Y0130898D01*
X0355565Y0130871D01*
X0355617Y0130842D01*
X0355668Y0130809D01*
X0355717Y0130773D01*
X0355763Y0130735D01*
X0355807Y0130693D01*
X0355849Y0130649D01*
X0355887Y0130603D01*
X0355923Y0130554D01*
X0355956Y0130503D01*
X0355985Y0130451D01*
X0356012Y0130396D01*
X0356035Y0130341D01*
X0356055Y0130284D01*
X0356071Y0130225D01*
X0356084Y0130166D01*
X0356093Y0130107D01*
X0356098Y0130046D01*
X0356100Y0129986D01*
X0356100Y0119986D01*
X0356098Y0119926D01*
X0356093Y0119865D01*
X0356084Y0119806D01*
X0356071Y0119747D01*
X0356055Y0119688D01*
X0356035Y0119631D01*
X0356012Y0119576D01*
X0355985Y0119521D01*
X0355956Y0119469D01*
X0355923Y0119418D01*
X0355887Y0119369D01*
X0355849Y0119323D01*
X0355807Y0119279D01*
X0355763Y0119237D01*
X0355717Y0119199D01*
X0355668Y0119163D01*
X0355617Y0119130D01*
X0355565Y0119101D01*
X0355510Y0119074D01*
X0355455Y0119051D01*
X0355398Y0119031D01*
X0355339Y0119015D01*
X0355280Y0119002D01*
X0355221Y0118993D01*
X0355160Y0118988D01*
X0355100Y0118986D01*
X0349100Y0118986D01*
X0349040Y0118988D01*
X0348979Y0118993D01*
X0348920Y0119002D01*
X0348861Y0119015D01*
X0348802Y0119031D01*
X0348745Y0119051D01*
X0348690Y0119074D01*
X0348635Y0119101D01*
X0348583Y0119130D01*
X0348532Y0119163D01*
X0348483Y0119199D01*
X0348437Y0119237D01*
X0348393Y0119279D01*
X0348351Y0119323D01*
X0348313Y0119369D01*
X0348277Y0119418D01*
X0348244Y0119469D01*
X0348215Y0119521D01*
X0348188Y0119576D01*
X0348165Y0119631D01*
X0348145Y0119688D01*
X0348129Y0119747D01*
X0348116Y0119806D01*
X0348107Y0119865D01*
X0348102Y0119926D01*
X0348100Y0119986D01*
X0045600Y0142986D02*
X0045600Y0152986D01*
X0045598Y0153046D01*
X0045593Y0153107D01*
X0045584Y0153166D01*
X0045571Y0153225D01*
X0045555Y0153284D01*
X0045535Y0153341D01*
X0045512Y0153396D01*
X0045485Y0153451D01*
X0045456Y0153503D01*
X0045423Y0153554D01*
X0045387Y0153603D01*
X0045349Y0153649D01*
X0045307Y0153693D01*
X0045263Y0153735D01*
X0045217Y0153773D01*
X0045168Y0153809D01*
X0045117Y0153842D01*
X0045065Y0153871D01*
X0045010Y0153898D01*
X0044955Y0153921D01*
X0044898Y0153941D01*
X0044839Y0153957D01*
X0044780Y0153970D01*
X0044721Y0153979D01*
X0044660Y0153984D01*
X0044600Y0153986D01*
X0038600Y0153986D01*
X0038540Y0153984D01*
X0038479Y0153979D01*
X0038420Y0153970D01*
X0038361Y0153957D01*
X0038302Y0153941D01*
X0038245Y0153921D01*
X0038190Y0153898D01*
X0038135Y0153871D01*
X0038083Y0153842D01*
X0038032Y0153809D01*
X0037983Y0153773D01*
X0037937Y0153735D01*
X0037893Y0153693D01*
X0037851Y0153649D01*
X0037813Y0153603D01*
X0037777Y0153554D01*
X0037744Y0153503D01*
X0037715Y0153451D01*
X0037688Y0153396D01*
X0037665Y0153341D01*
X0037645Y0153284D01*
X0037629Y0153225D01*
X0037616Y0153166D01*
X0037607Y0153107D01*
X0037602Y0153046D01*
X0037600Y0152986D01*
X0037600Y0142986D01*
X0037602Y0142926D01*
X0037607Y0142865D01*
X0037616Y0142806D01*
X0037629Y0142747D01*
X0037645Y0142688D01*
X0037665Y0142631D01*
X0037688Y0142576D01*
X0037715Y0142521D01*
X0037744Y0142469D01*
X0037777Y0142418D01*
X0037813Y0142369D01*
X0037851Y0142323D01*
X0037893Y0142279D01*
X0037937Y0142237D01*
X0037983Y0142199D01*
X0038032Y0142163D01*
X0038083Y0142130D01*
X0038135Y0142101D01*
X0038190Y0142074D01*
X0038245Y0142051D01*
X0038302Y0142031D01*
X0038361Y0142015D01*
X0038420Y0142002D01*
X0038479Y0141993D01*
X0038540Y0141988D01*
X0038600Y0141986D01*
X0044600Y0141986D01*
X0044660Y0141988D01*
X0044721Y0141993D01*
X0044780Y0142002D01*
X0044839Y0142015D01*
X0044898Y0142031D01*
X0044955Y0142051D01*
X0045010Y0142074D01*
X0045065Y0142101D01*
X0045117Y0142130D01*
X0045168Y0142163D01*
X0045217Y0142199D01*
X0045263Y0142237D01*
X0045307Y0142279D01*
X0045349Y0142323D01*
X0045387Y0142369D01*
X0045423Y0142418D01*
X0045456Y0142469D01*
X0045485Y0142521D01*
X0045512Y0142576D01*
X0045535Y0142631D01*
X0045555Y0142688D01*
X0045571Y0142747D01*
X0045584Y0142806D01*
X0045593Y0142865D01*
X0045598Y0142926D01*
X0045600Y0142986D01*
X0044600Y0155486D02*
X0038600Y0155486D01*
X0038540Y0155488D01*
X0038479Y0155493D01*
X0038420Y0155502D01*
X0038361Y0155515D01*
X0038302Y0155531D01*
X0038245Y0155551D01*
X0038190Y0155574D01*
X0038135Y0155601D01*
X0038083Y0155630D01*
X0038032Y0155663D01*
X0037983Y0155699D01*
X0037937Y0155737D01*
X0037893Y0155779D01*
X0037851Y0155823D01*
X0037813Y0155869D01*
X0037777Y0155918D01*
X0037744Y0155969D01*
X0037715Y0156021D01*
X0037688Y0156076D01*
X0037665Y0156131D01*
X0037645Y0156188D01*
X0037629Y0156247D01*
X0037616Y0156306D01*
X0037607Y0156365D01*
X0037602Y0156426D01*
X0037600Y0156486D01*
X0037600Y0166486D01*
X0037602Y0166546D01*
X0037607Y0166607D01*
X0037616Y0166666D01*
X0037629Y0166725D01*
X0037645Y0166784D01*
X0037665Y0166841D01*
X0037688Y0166896D01*
X0037715Y0166951D01*
X0037744Y0167003D01*
X0037777Y0167054D01*
X0037813Y0167103D01*
X0037851Y0167149D01*
X0037893Y0167193D01*
X0037937Y0167235D01*
X0037983Y0167273D01*
X0038032Y0167309D01*
X0038083Y0167342D01*
X0038135Y0167371D01*
X0038190Y0167398D01*
X0038245Y0167421D01*
X0038302Y0167441D01*
X0038361Y0167457D01*
X0038420Y0167470D01*
X0038479Y0167479D01*
X0038540Y0167484D01*
X0038600Y0167486D01*
X0044600Y0167486D01*
X0044660Y0167484D01*
X0044721Y0167479D01*
X0044780Y0167470D01*
X0044839Y0167457D01*
X0044898Y0167441D01*
X0044955Y0167421D01*
X0045010Y0167398D01*
X0045065Y0167371D01*
X0045117Y0167342D01*
X0045168Y0167309D01*
X0045217Y0167273D01*
X0045263Y0167235D01*
X0045307Y0167193D01*
X0045349Y0167149D01*
X0045387Y0167103D01*
X0045423Y0167054D01*
X0045456Y0167003D01*
X0045485Y0166951D01*
X0045512Y0166896D01*
X0045535Y0166841D01*
X0045555Y0166784D01*
X0045571Y0166725D01*
X0045584Y0166666D01*
X0045593Y0166607D01*
X0045598Y0166546D01*
X0045600Y0166486D01*
X0045600Y0156486D01*
X0045598Y0156426D01*
X0045593Y0156365D01*
X0045584Y0156306D01*
X0045571Y0156247D01*
X0045555Y0156188D01*
X0045535Y0156131D01*
X0045512Y0156076D01*
X0045485Y0156021D01*
X0045456Y0155969D01*
X0045423Y0155918D01*
X0045387Y0155869D01*
X0045349Y0155823D01*
X0045307Y0155779D01*
X0045263Y0155737D01*
X0045217Y0155699D01*
X0045168Y0155663D01*
X0045117Y0155630D01*
X0045065Y0155601D01*
X0045010Y0155574D01*
X0044955Y0155551D01*
X0044898Y0155531D01*
X0044839Y0155515D01*
X0044780Y0155502D01*
X0044721Y0155493D01*
X0044660Y0155488D01*
X0044600Y0155486D01*
D13*
X0188300Y0098384D02*
X0188300Y0096849D01*
X0189067Y0096082D01*
X0190602Y0096082D01*
X0190602Y0098384D01*
X0189835Y0099151D01*
X0189067Y0099151D01*
X0188300Y0098384D01*
X0190602Y0096082D02*
X0192137Y0097617D01*
X0192904Y0099151D01*
X0192137Y0094547D02*
X0192904Y0093780D01*
X0192904Y0092245D01*
X0192137Y0091478D01*
X0189067Y0091478D01*
X0188300Y0092245D01*
X0188300Y0093780D01*
X0189067Y0094547D01*
X0188300Y0089943D02*
X0188300Y0088409D01*
X0188300Y0089176D02*
X0192904Y0089176D01*
X0192904Y0088409D02*
X0192904Y0089943D01*
D14*
X0293250Y0092136D02*
X0293250Y0093103D01*
X0293250Y0092620D02*
X0296152Y0092620D01*
X0296152Y0093103D02*
X0296152Y0092136D01*
X0295669Y0094100D02*
X0293734Y0094100D01*
X0293250Y0094584D01*
X0293250Y0095552D01*
X0293734Y0096035D01*
X0294701Y0097047D02*
X0294701Y0098982D01*
X0293250Y0098498D02*
X0296152Y0098498D01*
X0294701Y0097047D01*
X0295669Y0096035D02*
X0296152Y0095552D01*
X0296152Y0094584D01*
X0295669Y0094100D01*
D15*
X0327200Y0100086D02*
X0327200Y0101187D01*
X0327567Y0101554D01*
X0329035Y0101554D01*
X0329402Y0101187D01*
X0329402Y0100086D01*
X0327200Y0100086D01*
X0327200Y0102296D02*
X0327567Y0102296D01*
X0329035Y0103764D01*
X0329402Y0103764D01*
X0329402Y0102296D01*
X0329402Y0116586D02*
X0329402Y0117687D01*
X0329035Y0118054D01*
X0327567Y0118054D01*
X0327200Y0117687D01*
X0327200Y0116586D01*
X0329402Y0116586D01*
X0329035Y0118796D02*
X0328668Y0118796D01*
X0328301Y0119163D01*
X0328301Y0119897D01*
X0327934Y0120264D01*
X0327567Y0120264D01*
X0327200Y0119897D01*
X0327200Y0119163D01*
X0327567Y0118796D01*
X0327934Y0118796D01*
X0328301Y0119163D01*
X0328301Y0119897D02*
X0328668Y0120264D01*
X0329035Y0120264D01*
X0329402Y0119897D01*
X0329402Y0119163D01*
X0329035Y0118796D01*
X0155909Y0205614D02*
X0154442Y0205614D01*
X0153700Y0205981D02*
X0153700Y0207448D01*
X0153333Y0207815D01*
X0152599Y0207815D01*
X0152232Y0207448D01*
X0151490Y0207815D02*
X0150022Y0205614D01*
X0149280Y0206715D02*
X0147812Y0206715D01*
X0147070Y0205981D02*
X0146703Y0205981D01*
X0146703Y0205614D01*
X0147070Y0205614D01*
X0147070Y0205981D01*
X0145965Y0205981D02*
X0145598Y0205614D01*
X0144864Y0205614D01*
X0144497Y0205981D01*
X0144497Y0206348D01*
X0144864Y0206715D01*
X0145231Y0206715D01*
X0144864Y0206715D02*
X0144497Y0207081D01*
X0144497Y0207448D01*
X0144864Y0207815D01*
X0145598Y0207815D01*
X0145965Y0207448D01*
X0143755Y0207448D02*
X0143388Y0207815D01*
X0142654Y0207815D01*
X0142287Y0207448D01*
X0142287Y0207081D01*
X0143755Y0205614D01*
X0142287Y0205614D01*
X0141545Y0205614D02*
X0141545Y0205981D01*
X0140077Y0207448D01*
X0140077Y0207815D01*
X0141545Y0207815D01*
X0139335Y0206715D02*
X0137867Y0206715D01*
X0137125Y0206715D02*
X0136025Y0206715D01*
X0135658Y0206348D01*
X0135658Y0205981D01*
X0136025Y0205614D01*
X0136759Y0205614D01*
X0137125Y0205981D01*
X0137125Y0206715D01*
X0136392Y0207448D01*
X0135658Y0207815D01*
X0134916Y0206715D02*
X0133448Y0206715D01*
X0132706Y0207448D02*
X0132339Y0207815D01*
X0131605Y0207815D01*
X0131238Y0207448D01*
X0131238Y0207081D01*
X0131605Y0206715D01*
X0131238Y0206348D01*
X0131238Y0205981D01*
X0131605Y0205614D01*
X0132339Y0205614D01*
X0132706Y0205981D01*
X0131972Y0206715D02*
X0131605Y0206715D01*
X0130496Y0206715D02*
X0129028Y0206715D01*
X0128286Y0206348D02*
X0127185Y0206348D01*
X0126818Y0206715D01*
X0126818Y0207448D01*
X0127185Y0207815D01*
X0128286Y0207815D01*
X0128286Y0205614D01*
X0127552Y0206348D02*
X0126818Y0205614D01*
X0126076Y0205614D02*
X0126076Y0207815D01*
X0124975Y0207815D01*
X0124608Y0207448D01*
X0124608Y0206715D01*
X0124975Y0206348D01*
X0126076Y0206348D01*
X0125342Y0206348D02*
X0124608Y0205614D01*
X0129395Y0205614D02*
X0129395Y0207815D01*
X0130496Y0206715D01*
X0130926Y0202608D02*
X0130926Y0201140D01*
X0130926Y0201874D02*
X0133128Y0201874D01*
X0132394Y0201140D01*
X0132761Y0200398D02*
X0133128Y0200398D01*
X0132761Y0200398D02*
X0132027Y0199664D01*
X0130926Y0199664D01*
X0132027Y0199664D02*
X0132761Y0198930D01*
X0133128Y0198930D01*
X0150022Y0207815D02*
X0151490Y0205614D01*
X0152232Y0205981D02*
X0152599Y0205614D01*
X0153333Y0205614D01*
X0153700Y0205981D01*
X0155175Y0206715D02*
X0155909Y0206715D01*
X0155909Y0207815D02*
X0155909Y0205614D01*
X0155909Y0207815D02*
X0154442Y0207815D01*
D16*
X0139769Y0185317D03*
M02*
