G75*
%MOIN*%
%OFA0B0*%
%FSLAX25Y25*%
%IPPOS*%
%LPD*%
%AMOC8*
5,1,8,0,0,1.08239X$1,22.5*
%
%ADD10C,0.06000*%
%ADD11C,0.12400*%
%ADD12C,0.11811*%
%ADD13C,0.12100*%
%ADD14C,0.07087*%
%ADD15C,0.02953*%
%ADD16C,0.01200*%
%ADD17C,0.03543*%
%ADD18C,0.02400*%
%ADD19C,0.07000*%
D10*
X0013813Y0035451D03*
X0023813Y0035451D03*
X0023813Y0045451D03*
X0013813Y0045451D03*
X0013813Y0055451D03*
X0023813Y0055451D03*
X0023813Y0065451D03*
X0013813Y0065451D03*
X0013813Y0075451D03*
X0023813Y0075451D03*
X0023813Y0085451D03*
X0013813Y0085451D03*
X0013813Y0095451D03*
X0023813Y0095451D03*
X0023813Y0105451D03*
X0013813Y0105451D03*
X0013813Y0115451D03*
X0023813Y0115451D03*
X0023813Y0125451D03*
X0013813Y0125451D03*
X0013813Y0135451D03*
X0023813Y0135451D03*
X0023813Y0145451D03*
X0013813Y0145451D03*
X0013813Y0155451D03*
X0023813Y0155451D03*
X0023813Y0165451D03*
X0013813Y0165451D03*
X0013813Y0175451D03*
X0023813Y0175451D03*
X0023813Y0185451D03*
X0013813Y0185451D03*
X0013813Y0195451D03*
X0023813Y0195451D03*
X0023813Y0205451D03*
X0013813Y0205451D03*
X0013813Y0215451D03*
X0023813Y0215451D03*
X0023813Y0225451D03*
X0013813Y0225451D03*
X0041600Y0247986D03*
X0051600Y0247986D03*
X0061600Y0247986D03*
X0112100Y0247986D03*
X0122100Y0247986D03*
X0045600Y0100986D03*
X0045600Y0090986D03*
X0045600Y0080986D03*
X0432600Y0152986D03*
X0432600Y0227986D03*
D11*
X0402694Y0200671D03*
X0388285Y0215080D03*
X0368600Y0220356D03*
X0348915Y0215080D03*
X0334506Y0200671D03*
X0329230Y0180986D03*
X0334506Y0161301D03*
X0348915Y0146892D03*
X0368600Y0141616D03*
X0388285Y0146892D03*
X0402694Y0161301D03*
X0407970Y0180986D03*
X0366510Y0108448D03*
X0379609Y0092836D03*
X0383147Y0072767D03*
X0360566Y0040517D03*
X0340497Y0036978D03*
D12*
X0313600Y0032986D03*
X0293600Y0032986D03*
D13*
X0461100Y0039486D03*
X0461100Y0019486D03*
X0461100Y0063486D03*
X0461100Y0083486D03*
X0462600Y0118986D03*
X0462600Y0138986D03*
X0462600Y0169986D03*
X0462600Y0189986D03*
D14*
X0280021Y0246565D03*
X0270179Y0246565D03*
X0270179Y0256407D03*
X0280021Y0256407D03*
X0178521Y0083407D03*
X0178521Y0073565D03*
X0168679Y0073565D03*
X0168679Y0083407D03*
X0118364Y0026407D03*
X0108521Y0026407D03*
X0098679Y0026407D03*
X0088836Y0026407D03*
X0088836Y0016565D03*
X0098679Y0016565D03*
X0108521Y0016565D03*
X0118364Y0016565D03*
D15*
X0113100Y0048986D03*
X0095100Y0048986D03*
X0077100Y0048986D03*
X0059100Y0048986D03*
X0041600Y0048986D03*
X0060100Y0066486D03*
X0060100Y0070486D03*
X0061600Y0078986D03*
X0051600Y0066986D03*
X0047100Y0066986D03*
X0081100Y0066986D03*
X0085600Y0066986D03*
X0084100Y0078986D03*
X0088100Y0078986D03*
X0088100Y0082986D03*
X0084100Y0082986D03*
X0099100Y0066486D03*
X0103600Y0066486D03*
X0108600Y0072486D03*
X0108600Y0076986D03*
X0116600Y0066986D03*
X0120600Y0066986D03*
X0132100Y0067486D03*
X0136600Y0067486D03*
X0141100Y0067486D03*
X0146600Y0075486D03*
X0150600Y0075486D03*
X0154600Y0075486D03*
X0137100Y0091986D03*
X0135600Y0112986D03*
X0129600Y0112986D03*
X0125100Y0112986D03*
X0120100Y0112986D03*
X0115100Y0112986D03*
X0110100Y0112986D03*
X0105100Y0112986D03*
X0100100Y0112986D03*
X0095600Y0110486D03*
X0092100Y0108486D03*
X0089100Y0106486D03*
X0085600Y0104486D03*
X0082600Y0102486D03*
X0062100Y0102486D03*
X0100100Y0132986D03*
X0105100Y0132986D03*
X0105600Y0146486D03*
X0101100Y0146486D03*
X0110100Y0146486D03*
X0105100Y0161986D03*
X0121600Y0165486D03*
X0128600Y0161486D03*
X0121600Y0174986D03*
X0134100Y0185486D03*
X0120100Y0195986D03*
X0107600Y0197986D03*
X0095600Y0199486D03*
X0095600Y0195486D03*
X0091100Y0195486D03*
X0091100Y0199486D03*
X0107600Y0214986D03*
X0117100Y0216486D03*
X0117100Y0220486D03*
X0141600Y0208486D03*
X0152600Y0188986D03*
X0152600Y0184986D03*
X0105600Y0181986D03*
X0054600Y0199986D03*
X0048600Y0223486D03*
X0054100Y0225986D03*
X0039100Y0226486D03*
X0035600Y0157986D03*
X0083100Y0144986D03*
X0130100Y0145986D03*
X0147100Y0135986D03*
X0149600Y0142486D03*
X0135100Y0132986D03*
X0135100Y0128986D03*
X0176100Y0110486D03*
X0180600Y0110486D03*
X0185100Y0110486D03*
X0189600Y0110486D03*
X0190600Y0120986D03*
X0186600Y0120986D03*
X0194600Y0120986D03*
X0181600Y0138986D03*
X0193600Y0141986D03*
X0201100Y0156586D03*
X0205100Y0156586D03*
X0211600Y0154986D03*
X0202600Y0175986D03*
X0202600Y0182986D03*
X0202600Y0189986D03*
X0202600Y0196986D03*
X0218600Y0187986D03*
X0211600Y0220986D03*
X0268100Y0234486D03*
X0272600Y0234486D03*
X0277100Y0234486D03*
X0281600Y0234486D03*
X0281600Y0238986D03*
X0277100Y0238986D03*
X0272600Y0238986D03*
X0268100Y0238986D03*
X0290600Y0207986D03*
X0295600Y0207986D03*
X0300600Y0207986D03*
X0290600Y0187986D03*
X0289600Y0167986D03*
X0294600Y0167986D03*
X0299600Y0167986D03*
X0283600Y0146986D03*
X0287600Y0130986D03*
X0292600Y0112986D03*
X0292600Y0108986D03*
X0305600Y0111986D03*
X0312600Y0111986D03*
X0333600Y0113986D03*
X0333600Y0108486D03*
X0339600Y0108486D03*
X0315600Y0129986D03*
X0315600Y0133986D03*
X0273600Y0109986D03*
X0293600Y0089986D03*
X0292600Y0070986D03*
X0297600Y0070986D03*
X0302600Y0070986D03*
X0293600Y0052986D03*
X0218600Y0050986D03*
X0173100Y0054986D03*
X0131100Y0048986D03*
X0063100Y0032986D03*
X0048600Y0026986D03*
X0211600Y0095986D03*
X0218600Y0128986D03*
X0343600Y0252986D03*
X0341600Y0270486D03*
X0402100Y0271486D03*
X0406100Y0265986D03*
X0406100Y0261486D03*
X0434600Y0247486D03*
X0455600Y0247486D03*
D16*
X0236600Y0007979D02*
X0007294Y0007979D01*
X0006900Y0008372D02*
X0005737Y0010387D01*
X0005135Y0012634D01*
X0005059Y0013797D01*
X0005059Y0105986D01*
X0009013Y0105986D01*
X0009013Y0104496D01*
X0009743Y0102732D01*
X0011094Y0101381D01*
X0012858Y0100651D01*
X0014767Y0100651D01*
X0016532Y0101381D01*
X0017882Y0102732D01*
X0018613Y0104496D01*
X0018613Y0105986D01*
X0019013Y0105986D01*
X0019013Y0104496D01*
X0019743Y0102732D01*
X0021094Y0101381D01*
X0022858Y0100651D01*
X0024767Y0100651D01*
X0026532Y0101381D01*
X0027882Y0102732D01*
X0028613Y0104496D01*
X0028613Y0105986D01*
X0082675Y0105986D01*
X0082582Y0105762D01*
X0081948Y0105762D01*
X0080744Y0105264D01*
X0079822Y0104342D01*
X0079324Y0103138D01*
X0079324Y0101834D01*
X0079822Y0100630D01*
X0080744Y0099708D01*
X0081948Y0099210D01*
X0083252Y0099210D01*
X0084456Y0099708D01*
X0085378Y0100630D01*
X0085618Y0101210D01*
X0086252Y0101210D01*
X0087456Y0101708D01*
X0088378Y0102630D01*
X0088618Y0103210D01*
X0089752Y0103210D01*
X0090956Y0103708D01*
X0091878Y0104630D01*
X0092118Y0105210D01*
X0092752Y0105210D01*
X0093956Y0105708D01*
X0094233Y0105986D01*
X0155155Y0105986D01*
X0174349Y0086792D01*
X0173991Y0086434D01*
X0173600Y0085489D01*
X0173209Y0086434D01*
X0171705Y0087937D01*
X0169742Y0088751D01*
X0167616Y0088751D01*
X0165652Y0087937D01*
X0164149Y0086434D01*
X0163335Y0084470D01*
X0163335Y0082344D01*
X0164149Y0080381D01*
X0165652Y0078877D01*
X0166597Y0078486D01*
X0165652Y0078095D01*
X0164149Y0076591D01*
X0163335Y0074628D01*
X0163335Y0072502D01*
X0164149Y0070538D01*
X0165652Y0069035D01*
X0167616Y0068221D01*
X0168941Y0068221D01*
X0168941Y0067362D01*
X0169650Y0065650D01*
X0170961Y0064339D01*
X0172673Y0063630D01*
X0174527Y0063630D01*
X0176239Y0064339D01*
X0177550Y0065650D01*
X0178259Y0067362D01*
X0178259Y0068221D01*
X0179584Y0068221D01*
X0181548Y0069035D01*
X0183051Y0070538D01*
X0183865Y0072502D01*
X0183865Y0074628D01*
X0183051Y0076591D01*
X0181548Y0078095D01*
X0180603Y0078486D01*
X0181548Y0078877D01*
X0181906Y0079235D01*
X0236600Y0024541D01*
X0236600Y0004886D01*
X0013970Y0004886D01*
X0012807Y0004962D01*
X0010560Y0005564D01*
X0008545Y0006727D01*
X0006900Y0008372D01*
X0006436Y0009177D02*
X0014180Y0009177D01*
X0013651Y0009396D02*
X0016413Y0008252D01*
X0019402Y0008252D01*
X0022163Y0009396D01*
X0024277Y0011510D01*
X0025420Y0014271D01*
X0025420Y0017260D01*
X0024277Y0020022D01*
X0022163Y0022135D01*
X0019402Y0023279D01*
X0016413Y0023279D01*
X0013651Y0022135D01*
X0011538Y0020022D01*
X0010394Y0017260D01*
X0010394Y0014271D01*
X0011538Y0011510D01*
X0013651Y0009396D01*
X0012672Y0010376D02*
X0005744Y0010376D01*
X0005419Y0011574D02*
X0011511Y0011574D01*
X0011014Y0012773D02*
X0005126Y0012773D01*
X0005059Y0013971D02*
X0010518Y0013971D01*
X0010394Y0015170D02*
X0005059Y0015170D01*
X0005059Y0016368D02*
X0010394Y0016368D01*
X0010521Y0017567D02*
X0005059Y0017567D01*
X0005059Y0018765D02*
X0011017Y0018765D01*
X0011514Y0019964D02*
X0005059Y0019964D01*
X0005059Y0021162D02*
X0012678Y0021162D01*
X0014196Y0022361D02*
X0005059Y0022361D01*
X0005059Y0023559D02*
X0084232Y0023559D01*
X0084306Y0023381D02*
X0085809Y0021877D01*
X0086754Y0021486D01*
X0085809Y0021095D01*
X0084306Y0019591D01*
X0083493Y0017628D01*
X0083493Y0015502D01*
X0084306Y0013538D01*
X0085809Y0012035D01*
X0087773Y0011221D01*
X0089899Y0011221D01*
X0091863Y0012035D01*
X0093366Y0013538D01*
X0093864Y0014740D01*
X0093912Y0014590D01*
X0094280Y0013869D01*
X0094756Y0013214D01*
X0095328Y0012642D01*
X0095983Y0012166D01*
X0096704Y0011798D01*
X0097474Y0011548D01*
X0098098Y0011449D01*
X0098098Y0015984D01*
X0099260Y0015984D01*
X0099260Y0011449D01*
X0099883Y0011548D01*
X0100653Y0011798D01*
X0101374Y0012166D01*
X0102029Y0012642D01*
X0102602Y0013214D01*
X0103078Y0013869D01*
X0103445Y0014590D01*
X0103494Y0014740D01*
X0103991Y0013538D01*
X0105495Y0012035D01*
X0107458Y0011221D01*
X0109584Y0011221D01*
X0111548Y0012035D01*
X0113051Y0013538D01*
X0113443Y0014483D01*
X0113834Y0013538D01*
X0115337Y0012035D01*
X0117301Y0011221D01*
X0119427Y0011221D01*
X0121391Y0012035D01*
X0122894Y0013538D01*
X0123707Y0015502D01*
X0123707Y0017628D01*
X0122894Y0019591D01*
X0121391Y0021095D01*
X0120445Y0021486D01*
X0121391Y0021877D01*
X0122894Y0023381D01*
X0123707Y0025344D01*
X0123707Y0027470D01*
X0122894Y0029434D01*
X0121391Y0030937D01*
X0119427Y0031751D01*
X0117301Y0031751D01*
X0115337Y0030937D01*
X0113834Y0029434D01*
X0113443Y0028489D01*
X0113051Y0029434D01*
X0111548Y0030937D01*
X0109584Y0031751D01*
X0108259Y0031751D01*
X0108259Y0032610D01*
X0107550Y0034322D01*
X0106239Y0035633D01*
X0104527Y0036342D01*
X0102673Y0036342D01*
X0100961Y0035633D01*
X0099650Y0034322D01*
X0098941Y0032610D01*
X0098941Y0031751D01*
X0097616Y0031751D01*
X0095652Y0030937D01*
X0094149Y0029434D01*
X0093757Y0028489D01*
X0093366Y0029434D01*
X0091863Y0030937D01*
X0089899Y0031751D01*
X0087773Y0031751D01*
X0085809Y0030937D01*
X0084306Y0029434D01*
X0083493Y0027470D01*
X0083493Y0025344D01*
X0084306Y0023381D01*
X0085326Y0022361D02*
X0021618Y0022361D01*
X0023136Y0021162D02*
X0085973Y0021162D01*
X0084679Y0019964D02*
X0024301Y0019964D01*
X0024797Y0018765D02*
X0083964Y0018765D01*
X0083493Y0017567D02*
X0025293Y0017567D01*
X0025420Y0016368D02*
X0083493Y0016368D01*
X0083631Y0015170D02*
X0025420Y0015170D01*
X0025296Y0013971D02*
X0084127Y0013971D01*
X0085072Y0012773D02*
X0024800Y0012773D01*
X0024303Y0011574D02*
X0086922Y0011574D01*
X0090750Y0011574D02*
X0097394Y0011574D01*
X0098098Y0011574D02*
X0099260Y0011574D01*
X0099963Y0011574D02*
X0106607Y0011574D01*
X0104757Y0012773D02*
X0102160Y0012773D01*
X0103130Y0013971D02*
X0103812Y0013971D01*
X0099260Y0013971D02*
X0098098Y0013971D01*
X0098098Y0012773D02*
X0099260Y0012773D01*
X0099260Y0015170D02*
X0098098Y0015170D01*
X0095197Y0012773D02*
X0092601Y0012773D01*
X0093545Y0013971D02*
X0094228Y0013971D01*
X0083736Y0024758D02*
X0051005Y0024758D01*
X0051378Y0025130D02*
X0051876Y0026334D01*
X0051876Y0027638D01*
X0051378Y0028842D01*
X0050456Y0029764D01*
X0049252Y0030262D01*
X0047948Y0030262D01*
X0046744Y0029764D01*
X0045822Y0028842D01*
X0045324Y0027638D01*
X0045324Y0026334D01*
X0045822Y0025130D01*
X0046744Y0024208D01*
X0047948Y0023710D01*
X0049252Y0023710D01*
X0050456Y0024208D01*
X0051378Y0025130D01*
X0051720Y0025956D02*
X0083493Y0025956D01*
X0083493Y0027155D02*
X0051876Y0027155D01*
X0051580Y0028353D02*
X0083859Y0028353D01*
X0084424Y0029552D02*
X0050668Y0029552D01*
X0046532Y0029552D02*
X0005059Y0029552D01*
X0005059Y0030750D02*
X0022617Y0030750D01*
X0022858Y0030651D02*
X0024767Y0030651D01*
X0026532Y0031381D01*
X0027882Y0032732D01*
X0028613Y0034496D01*
X0028613Y0036405D01*
X0027882Y0038170D01*
X0026532Y0039520D01*
X0024767Y0040251D01*
X0022858Y0040251D01*
X0021094Y0039520D01*
X0019743Y0038170D01*
X0019013Y0036405D01*
X0019013Y0034496D01*
X0019743Y0032732D01*
X0021094Y0031381D01*
X0022858Y0030651D01*
X0025008Y0030750D02*
X0060702Y0030750D01*
X0060322Y0031130D02*
X0061244Y0030208D01*
X0062448Y0029710D01*
X0063752Y0029710D01*
X0064956Y0030208D01*
X0065878Y0031130D01*
X0066376Y0032334D01*
X0066376Y0033638D01*
X0065878Y0034842D01*
X0064956Y0035764D01*
X0063752Y0036262D01*
X0062448Y0036262D01*
X0061244Y0035764D01*
X0060322Y0034842D01*
X0059824Y0033638D01*
X0059824Y0032334D01*
X0060322Y0031130D01*
X0059983Y0031949D02*
X0027099Y0031949D01*
X0028054Y0033147D02*
X0059824Y0033147D01*
X0060117Y0034346D02*
X0028550Y0034346D01*
X0028613Y0035544D02*
X0061025Y0035544D01*
X0065175Y0035544D02*
X0100873Y0035544D01*
X0099674Y0034346D02*
X0066083Y0034346D01*
X0066376Y0033147D02*
X0099164Y0033147D01*
X0098941Y0031949D02*
X0066217Y0031949D01*
X0065498Y0030750D02*
X0085623Y0030750D01*
X0092050Y0030750D02*
X0095465Y0030750D01*
X0094267Y0029552D02*
X0093248Y0029552D01*
X0106327Y0035544D02*
X0225597Y0035544D01*
X0226795Y0034346D02*
X0107526Y0034346D01*
X0108036Y0033147D02*
X0227994Y0033147D01*
X0229192Y0031949D02*
X0108259Y0031949D01*
X0111735Y0030750D02*
X0115150Y0030750D01*
X0113952Y0029552D02*
X0112933Y0029552D01*
X0121577Y0030750D02*
X0230391Y0030750D01*
X0231589Y0029552D02*
X0122776Y0029552D01*
X0123341Y0028353D02*
X0232788Y0028353D01*
X0233986Y0027155D02*
X0123707Y0027155D01*
X0123707Y0025956D02*
X0235185Y0025956D01*
X0236384Y0024758D02*
X0123464Y0024758D01*
X0122968Y0023559D02*
X0236600Y0023559D01*
X0236600Y0022361D02*
X0214532Y0022361D01*
X0215076Y0022135D02*
X0212315Y0023279D01*
X0209326Y0023279D01*
X0206564Y0022135D01*
X0204451Y0020022D01*
X0203307Y0017260D01*
X0203307Y0014271D01*
X0204451Y0011510D01*
X0206564Y0009396D01*
X0209326Y0008252D01*
X0212315Y0008252D01*
X0215076Y0009396D01*
X0217190Y0011510D01*
X0218334Y0014271D01*
X0218334Y0017260D01*
X0217190Y0020022D01*
X0215076Y0022135D01*
X0216049Y0021162D02*
X0236600Y0021162D01*
X0236600Y0019964D02*
X0217214Y0019964D01*
X0217710Y0018765D02*
X0236600Y0018765D01*
X0236600Y0017567D02*
X0218207Y0017567D01*
X0218334Y0016368D02*
X0236600Y0016368D01*
X0236600Y0015170D02*
X0218334Y0015170D01*
X0218210Y0013971D02*
X0236600Y0013971D01*
X0236600Y0012773D02*
X0217713Y0012773D01*
X0217217Y0011574D02*
X0236600Y0011574D01*
X0236600Y0010376D02*
X0216056Y0010376D01*
X0214548Y0009177D02*
X0236600Y0009177D01*
X0236600Y0006780D02*
X0008493Y0006780D01*
X0010530Y0005582D02*
X0236600Y0005582D01*
X0261606Y0005582D02*
X0469835Y0005582D01*
X0469631Y0005475D02*
X0467510Y0005006D01*
X0466559Y0004986D01*
X0466355Y0004986D01*
X0465825Y0005009D01*
X0465761Y0004986D01*
X0261605Y0004986D01*
X0261666Y0041186D01*
X0262151Y0041185D01*
X0262154Y0041186D01*
X0294091Y0041186D01*
X0294639Y0041182D01*
X0294647Y0041186D01*
X0294657Y0041186D01*
X0295163Y0041396D01*
X0295671Y0041602D01*
X0295677Y0041609D01*
X0295686Y0041612D01*
X0296073Y0041999D01*
X0334177Y0079609D01*
X0334186Y0079612D01*
X0334573Y0079999D01*
X0334963Y0080384D01*
X0334967Y0080393D01*
X0334974Y0080400D01*
X0335183Y0080906D01*
X0335396Y0081411D01*
X0335396Y0081420D01*
X0335400Y0081429D01*
X0335400Y0081977D01*
X0335404Y0082525D01*
X0335400Y0082533D01*
X0335400Y0109543D01*
X0334974Y0110572D01*
X0334186Y0111360D01*
X0303400Y0142146D01*
X0303400Y0215826D01*
X0309760Y0222186D01*
X0323157Y0222186D01*
X0324186Y0222612D01*
X0324974Y0223400D01*
X0328573Y0226999D01*
X0328962Y0227383D01*
X0328966Y0227392D01*
X0328974Y0227400D01*
X0329183Y0227905D01*
X0329396Y0228409D01*
X0329396Y0228419D01*
X0329400Y0228429D01*
X0329400Y0228975D01*
X0329572Y0252582D01*
X0335800Y0246769D01*
X0335800Y0210929D01*
X0336226Y0209900D01*
X0337677Y0208450D01*
X0336176Y0209071D01*
X0332835Y0209071D01*
X0329747Y0207792D01*
X0327384Y0205429D01*
X0326106Y0202342D01*
X0326106Y0199000D01*
X0327384Y0195913D01*
X0329747Y0193550D01*
X0332835Y0192271D01*
X0336176Y0192271D01*
X0339264Y0193550D01*
X0341627Y0195913D01*
X0342800Y0198745D01*
X0342800Y0163227D01*
X0341627Y0166059D01*
X0339264Y0168422D01*
X0336176Y0169701D01*
X0332835Y0169701D01*
X0329747Y0168422D01*
X0327384Y0166059D01*
X0326106Y0162972D01*
X0326106Y0159630D01*
X0327384Y0156543D01*
X0329747Y0154180D01*
X0332835Y0152901D01*
X0336176Y0152901D01*
X0339264Y0154180D01*
X0341627Y0156543D01*
X0342800Y0159375D01*
X0342800Y0152656D01*
X0341794Y0151650D01*
X0340515Y0148562D01*
X0340515Y0145221D01*
X0341794Y0142133D01*
X0344157Y0139770D01*
X0347244Y0138492D01*
X0350586Y0138492D01*
X0353673Y0139770D01*
X0356036Y0142133D01*
X0357315Y0145221D01*
X0357315Y0148562D01*
X0356036Y0151650D01*
X0353673Y0154013D01*
X0350586Y0155292D01*
X0348400Y0155292D01*
X0348400Y0172376D01*
X0348681Y0171534D01*
X0351522Y0167042D01*
X0355355Y0163360D01*
X0357024Y0162396D01*
X0358446Y0161575D01*
X0360208Y0162047D01*
X0360228Y0162082D01*
X0361120Y0163627D01*
X0380806Y0197723D01*
X0380333Y0199485D01*
X0378754Y0200397D01*
X0378754Y0200397D01*
X0377242Y0201270D01*
X0372137Y0202748D01*
X0372137Y0202748D01*
X0366826Y0202962D01*
X0366826Y0202962D01*
X0361618Y0201899D01*
X0356816Y0199621D01*
X0352699Y0196259D01*
X0349506Y0192010D01*
X0349506Y0192010D01*
X0348400Y0189414D01*
X0348400Y0205043D01*
X0347974Y0206072D01*
X0347365Y0206680D01*
X0350586Y0206680D01*
X0353673Y0207959D01*
X0356036Y0210322D01*
X0357315Y0213410D01*
X0357315Y0216751D01*
X0356036Y0219839D01*
X0353673Y0222202D01*
X0352315Y0222764D01*
X0352315Y0230697D01*
X0355127Y0233014D01*
X0355390Y0233014D01*
X0356850Y0233619D01*
X0357967Y0234736D01*
X0358572Y0236196D01*
X0358572Y0237776D01*
X0357967Y0239236D01*
X0356850Y0240353D01*
X0355390Y0240958D01*
X0353810Y0240958D01*
X0352350Y0240353D01*
X0351233Y0239236D01*
X0350844Y0238296D01*
X0347145Y0235248D01*
X0346989Y0235183D01*
X0346626Y0234821D01*
X0346231Y0234495D01*
X0346152Y0234346D01*
X0346033Y0234227D01*
X0345836Y0233753D01*
X0345596Y0233301D01*
X0345579Y0233133D01*
X0345515Y0232977D01*
X0345515Y0232465D01*
X0345466Y0231954D01*
X0345515Y0231793D01*
X0345515Y0222764D01*
X0344157Y0222202D01*
X0341794Y0219839D01*
X0341400Y0218888D01*
X0341400Y0246826D01*
X0343883Y0249310D01*
X0344331Y0249310D01*
X0345682Y0249869D01*
X0346717Y0250904D01*
X0347276Y0252255D01*
X0347276Y0253717D01*
X0346717Y0255069D01*
X0345682Y0256103D01*
X0344331Y0256662D01*
X0342869Y0256662D01*
X0341517Y0256103D01*
X0340483Y0255069D01*
X0339924Y0253717D01*
X0339924Y0253269D01*
X0338533Y0251879D01*
X0329628Y0260190D01*
X0329875Y0293986D01*
X0402600Y0293986D01*
X0402600Y0286889D01*
X0403057Y0285787D01*
X0403901Y0284943D01*
X0405003Y0284486D01*
X0466197Y0284486D01*
X0467299Y0284943D01*
X0468143Y0285787D01*
X0468600Y0286889D01*
X0468600Y0293543D01*
X0469335Y0293362D01*
X0471410Y0292215D01*
X0473119Y0290571D01*
X0474343Y0288540D01*
X0475000Y0286262D01*
X0475100Y0285085D01*
X0475100Y0204286D01*
X0427543Y0204286D01*
X0426514Y0203860D01*
X0425726Y0203072D01*
X0411337Y0188683D01*
X0409641Y0189386D01*
X0406299Y0189386D01*
X0403212Y0188107D01*
X0400849Y0185744D01*
X0399570Y0182657D01*
X0399570Y0179315D01*
X0400273Y0177619D01*
X0391226Y0168572D01*
X0390800Y0167543D01*
X0390800Y0154942D01*
X0389956Y0155292D01*
X0386614Y0155292D01*
X0383527Y0154013D01*
X0381164Y0151650D01*
X0379885Y0148562D01*
X0379885Y0145221D01*
X0381164Y0142133D01*
X0383527Y0139770D01*
X0386614Y0138492D01*
X0389956Y0138492D01*
X0393043Y0139770D01*
X0395406Y0142133D01*
X0396685Y0145221D01*
X0396685Y0148562D01*
X0396012Y0150186D01*
X0428131Y0150186D01*
X0428192Y0150040D01*
X0429654Y0148578D01*
X0431566Y0147786D01*
X0433634Y0147786D01*
X0435546Y0148578D01*
X0437008Y0150040D01*
X0437069Y0150186D01*
X0475100Y0150186D01*
X0475100Y0012903D01*
X0474984Y0011847D01*
X0474329Y0009776D01*
X0473161Y0007944D01*
X0471559Y0006477D01*
X0469631Y0005475D01*
X0471889Y0006780D02*
X0261608Y0006780D01*
X0261610Y0007979D02*
X0473183Y0007979D01*
X0473947Y0009177D02*
X0429809Y0009177D01*
X0430133Y0009311D02*
X0432275Y0011453D01*
X0433434Y0014251D01*
X0433434Y0017280D01*
X0432275Y0020078D01*
X0430133Y0022220D01*
X0427335Y0023379D01*
X0424306Y0023379D01*
X0421508Y0022220D01*
X0419366Y0020078D01*
X0418207Y0017280D01*
X0418207Y0014251D01*
X0419366Y0011453D01*
X0421508Y0009311D01*
X0424306Y0008152D01*
X0427335Y0008152D01*
X0430133Y0009311D01*
X0431197Y0010376D02*
X0474519Y0010376D01*
X0474897Y0011574D02*
X0432325Y0011574D01*
X0432821Y0012773D02*
X0475086Y0012773D01*
X0475100Y0013971D02*
X0433318Y0013971D01*
X0433434Y0015170D02*
X0475100Y0015170D01*
X0475100Y0016368D02*
X0433434Y0016368D01*
X0433315Y0017567D02*
X0475100Y0017567D01*
X0475100Y0018765D02*
X0432819Y0018765D01*
X0432322Y0019964D02*
X0475100Y0019964D01*
X0475100Y0021162D02*
X0431191Y0021162D01*
X0429793Y0022361D02*
X0475100Y0022361D01*
X0475100Y0023559D02*
X0261637Y0023559D01*
X0261635Y0022361D02*
X0421848Y0022361D01*
X0420450Y0021162D02*
X0261632Y0021162D01*
X0261630Y0019964D02*
X0419319Y0019964D01*
X0418822Y0018765D02*
X0261628Y0018765D01*
X0261626Y0017567D02*
X0418326Y0017567D01*
X0418207Y0016368D02*
X0261624Y0016368D01*
X0261622Y0015170D02*
X0418207Y0015170D01*
X0418323Y0013971D02*
X0261620Y0013971D01*
X0261618Y0012773D02*
X0418820Y0012773D01*
X0419316Y0011574D02*
X0261616Y0011574D01*
X0261614Y0010376D02*
X0420443Y0010376D01*
X0421832Y0009177D02*
X0261612Y0009177D01*
X0261639Y0024758D02*
X0475100Y0024758D01*
X0475100Y0025956D02*
X0317809Y0025956D01*
X0318191Y0026114D02*
X0320472Y0028395D01*
X0321705Y0031374D01*
X0321705Y0034598D01*
X0320472Y0037577D01*
X0318191Y0039858D01*
X0315212Y0041092D01*
X0311988Y0041092D01*
X0309009Y0039858D01*
X0306728Y0037577D01*
X0305494Y0034598D01*
X0305494Y0031374D01*
X0306728Y0028395D01*
X0309009Y0026114D01*
X0311988Y0024880D01*
X0315212Y0024880D01*
X0318191Y0026114D01*
X0319232Y0027155D02*
X0475100Y0027155D01*
X0475100Y0028353D02*
X0320430Y0028353D01*
X0320951Y0029552D02*
X0336477Y0029552D01*
X0335739Y0029857D02*
X0338826Y0028578D01*
X0342168Y0028578D01*
X0345255Y0029857D01*
X0347618Y0032220D01*
X0348897Y0035308D01*
X0348897Y0038649D01*
X0347618Y0041737D01*
X0345255Y0044100D01*
X0342168Y0045378D01*
X0338826Y0045378D01*
X0335739Y0044100D01*
X0333376Y0041737D01*
X0332097Y0038649D01*
X0332097Y0035308D01*
X0333376Y0032220D01*
X0335739Y0029857D01*
X0334846Y0030750D02*
X0321447Y0030750D01*
X0321705Y0031949D02*
X0333647Y0031949D01*
X0332992Y0033147D02*
X0321705Y0033147D01*
X0321705Y0034346D02*
X0332496Y0034346D01*
X0332097Y0035544D02*
X0321314Y0035544D01*
X0320817Y0036743D02*
X0332097Y0036743D01*
X0332097Y0037941D02*
X0320108Y0037941D01*
X0318909Y0039140D02*
X0332300Y0039140D01*
X0332797Y0040338D02*
X0317031Y0040338D01*
X0310169Y0040338D02*
X0297031Y0040338D01*
X0298191Y0039858D02*
X0295212Y0041092D01*
X0291988Y0041092D01*
X0289009Y0039858D01*
X0286728Y0037577D01*
X0285494Y0034598D01*
X0285494Y0031374D01*
X0286728Y0028395D01*
X0289009Y0026114D01*
X0291988Y0024880D01*
X0295212Y0024880D01*
X0298191Y0026114D01*
X0300472Y0028395D01*
X0301705Y0031374D01*
X0301705Y0034598D01*
X0300472Y0037577D01*
X0298191Y0039858D01*
X0298909Y0039140D02*
X0308291Y0039140D01*
X0307092Y0037941D02*
X0300108Y0037941D01*
X0300817Y0036743D02*
X0306383Y0036743D01*
X0305886Y0035544D02*
X0301314Y0035544D01*
X0301705Y0034346D02*
X0305494Y0034346D01*
X0305494Y0033147D02*
X0301705Y0033147D01*
X0301705Y0031949D02*
X0305494Y0031949D01*
X0305753Y0030750D02*
X0301447Y0030750D01*
X0300951Y0029552D02*
X0306249Y0029552D01*
X0306770Y0028353D02*
X0300430Y0028353D01*
X0299232Y0027155D02*
X0307968Y0027155D01*
X0309391Y0025956D02*
X0297809Y0025956D01*
X0289391Y0025956D02*
X0261641Y0025956D01*
X0261643Y0027155D02*
X0287968Y0027155D01*
X0286770Y0028353D02*
X0261645Y0028353D01*
X0261647Y0029552D02*
X0286249Y0029552D01*
X0285753Y0030750D02*
X0261649Y0030750D01*
X0261651Y0031949D02*
X0285494Y0031949D01*
X0285494Y0033147D02*
X0261653Y0033147D01*
X0261655Y0034346D02*
X0285494Y0034346D01*
X0285886Y0035544D02*
X0261657Y0035544D01*
X0261659Y0036743D02*
X0286383Y0036743D01*
X0287092Y0037941D02*
X0261661Y0037941D01*
X0261663Y0039140D02*
X0288291Y0039140D01*
X0290169Y0040338D02*
X0261665Y0040338D01*
X0261600Y0043986D02*
X0262025Y0259586D01*
X0265801Y0259586D01*
X0265649Y0259434D01*
X0264835Y0257470D01*
X0264835Y0255344D01*
X0265649Y0253381D01*
X0267152Y0251877D01*
X0268354Y0251380D01*
X0268204Y0251331D01*
X0267483Y0250964D01*
X0266828Y0250488D01*
X0266256Y0249915D01*
X0265780Y0249260D01*
X0265412Y0248539D01*
X0265162Y0247769D01*
X0265063Y0247146D01*
X0269598Y0247146D01*
X0269598Y0245984D01*
X0270760Y0245984D01*
X0270760Y0247146D01*
X0279440Y0247146D01*
X0279440Y0245984D01*
X0274906Y0245984D01*
X0270760Y0245984D01*
X0270760Y0241449D01*
X0271383Y0241548D01*
X0272153Y0241798D01*
X0272874Y0242166D01*
X0273529Y0242642D01*
X0274102Y0243214D01*
X0274578Y0243869D01*
X0274945Y0244590D01*
X0275100Y0245067D01*
X0275255Y0244590D01*
X0275622Y0243869D01*
X0276098Y0243214D01*
X0276671Y0242642D01*
X0277326Y0242166D01*
X0278047Y0241798D01*
X0278817Y0241548D01*
X0279440Y0241449D01*
X0279440Y0245984D01*
X0280602Y0245984D01*
X0280602Y0247146D01*
X0285137Y0247146D01*
X0285038Y0247769D01*
X0284788Y0248539D01*
X0284420Y0249260D01*
X0283944Y0249915D01*
X0283372Y0250488D01*
X0282717Y0250964D01*
X0281996Y0251331D01*
X0281846Y0251380D01*
X0283048Y0251877D01*
X0284551Y0253381D01*
X0285365Y0255344D01*
X0285365Y0257470D01*
X0284551Y0259434D01*
X0284399Y0259586D01*
X0322654Y0259586D01*
X0326795Y0255721D01*
X0326600Y0228986D01*
X0322600Y0224986D01*
X0308600Y0224986D01*
X0300600Y0216986D01*
X0300600Y0211262D01*
X0299948Y0211262D01*
X0298744Y0210764D01*
X0298100Y0210120D01*
X0297456Y0210764D01*
X0296252Y0211262D01*
X0294948Y0211262D01*
X0293744Y0210764D01*
X0293100Y0210120D01*
X0292456Y0210764D01*
X0291252Y0211262D01*
X0289948Y0211262D01*
X0288744Y0210764D01*
X0287822Y0209842D01*
X0287324Y0208638D01*
X0287324Y0207334D01*
X0287822Y0206130D01*
X0288744Y0205208D01*
X0289948Y0204710D01*
X0291252Y0204710D01*
X0292456Y0205208D01*
X0293100Y0205853D01*
X0293744Y0205208D01*
X0294948Y0204710D01*
X0296252Y0204710D01*
X0297456Y0205208D01*
X0298100Y0205853D01*
X0298744Y0205208D01*
X0299948Y0204710D01*
X0300600Y0204710D01*
X0300600Y0171118D01*
X0300252Y0171262D01*
X0298948Y0171262D01*
X0297744Y0170764D01*
X0297100Y0170120D01*
X0296456Y0170764D01*
X0295252Y0171262D01*
X0293948Y0171262D01*
X0292744Y0170764D01*
X0292100Y0170120D01*
X0291456Y0170764D01*
X0290252Y0171262D01*
X0288948Y0171262D01*
X0287744Y0170764D01*
X0286822Y0169842D01*
X0286324Y0168638D01*
X0286324Y0167334D01*
X0286822Y0166130D01*
X0287744Y0165208D01*
X0288948Y0164710D01*
X0290252Y0164710D01*
X0291456Y0165208D01*
X0292100Y0165853D01*
X0292744Y0165208D01*
X0293948Y0164710D01*
X0295252Y0164710D01*
X0296456Y0165208D01*
X0297100Y0165853D01*
X0297744Y0165208D01*
X0298948Y0164710D01*
X0300252Y0164710D01*
X0300600Y0164854D01*
X0300600Y0140986D01*
X0312374Y0129212D01*
X0312822Y0128130D01*
X0313744Y0127208D01*
X0314826Y0126760D01*
X0331033Y0110553D01*
X0330822Y0110342D01*
X0330324Y0109138D01*
X0330324Y0107834D01*
X0330822Y0106630D01*
X0331744Y0105708D01*
X0332600Y0105354D01*
X0332600Y0081986D01*
X0294100Y0043986D01*
X0261600Y0043986D01*
X0261602Y0045132D02*
X0295262Y0045132D01*
X0296476Y0046331D02*
X0261605Y0046331D01*
X0261607Y0047529D02*
X0297690Y0047529D01*
X0298904Y0048728D02*
X0261609Y0048728D01*
X0261612Y0049926D02*
X0300119Y0049926D01*
X0301333Y0051125D02*
X0261614Y0051125D01*
X0261616Y0052323D02*
X0302547Y0052323D01*
X0303761Y0053522D02*
X0261619Y0053522D01*
X0261621Y0054721D02*
X0304976Y0054721D01*
X0306190Y0055919D02*
X0261624Y0055919D01*
X0261626Y0057118D02*
X0307404Y0057118D01*
X0308619Y0058316D02*
X0261628Y0058316D01*
X0261631Y0059515D02*
X0309833Y0059515D01*
X0311047Y0060713D02*
X0261633Y0060713D01*
X0261635Y0061912D02*
X0312261Y0061912D01*
X0313476Y0063110D02*
X0261638Y0063110D01*
X0261640Y0064309D02*
X0314690Y0064309D01*
X0315904Y0065507D02*
X0261642Y0065507D01*
X0261645Y0066706D02*
X0317119Y0066706D01*
X0318333Y0067904D02*
X0303721Y0067904D01*
X0303252Y0067710D02*
X0304456Y0068208D01*
X0305378Y0069130D01*
X0305876Y0070334D01*
X0305876Y0071638D01*
X0305378Y0072842D01*
X0304456Y0073764D01*
X0303252Y0074262D01*
X0301948Y0074262D01*
X0300744Y0073764D01*
X0300100Y0073120D01*
X0299456Y0073764D01*
X0298252Y0074262D01*
X0296948Y0074262D01*
X0295744Y0073764D01*
X0295100Y0073120D01*
X0294456Y0073764D01*
X0293252Y0074262D01*
X0291948Y0074262D01*
X0290744Y0073764D01*
X0289822Y0072842D01*
X0289324Y0071638D01*
X0289324Y0070334D01*
X0289822Y0069130D01*
X0290744Y0068208D01*
X0291948Y0067710D01*
X0293252Y0067710D01*
X0294456Y0068208D01*
X0295100Y0068853D01*
X0295744Y0068208D01*
X0296948Y0067710D01*
X0298252Y0067710D01*
X0299456Y0068208D01*
X0300100Y0068853D01*
X0300744Y0068208D01*
X0301948Y0067710D01*
X0303252Y0067710D01*
X0301479Y0067904D02*
X0298721Y0067904D01*
X0296479Y0067904D02*
X0293721Y0067904D01*
X0291479Y0067904D02*
X0261647Y0067904D01*
X0261650Y0069103D02*
X0289850Y0069103D01*
X0289337Y0070301D02*
X0261652Y0070301D01*
X0261654Y0071500D02*
X0289324Y0071500D01*
X0289763Y0072698D02*
X0261657Y0072698D01*
X0261659Y0073897D02*
X0291065Y0073897D01*
X0294135Y0073897D02*
X0296065Y0073897D01*
X0299135Y0073897D02*
X0301065Y0073897D01*
X0304135Y0073897D02*
X0324404Y0073897D01*
X0325619Y0075095D02*
X0261661Y0075095D01*
X0261664Y0076294D02*
X0326833Y0076294D01*
X0328047Y0077492D02*
X0261666Y0077492D01*
X0261668Y0078691D02*
X0329261Y0078691D01*
X0330476Y0079889D02*
X0261671Y0079889D01*
X0261673Y0081088D02*
X0331690Y0081088D01*
X0332600Y0082286D02*
X0261676Y0082286D01*
X0261678Y0083485D02*
X0332600Y0083485D01*
X0332600Y0084683D02*
X0261680Y0084683D01*
X0261683Y0085882D02*
X0332600Y0085882D01*
X0332600Y0087080D02*
X0261685Y0087080D01*
X0261687Y0088279D02*
X0332600Y0088279D01*
X0332600Y0089477D02*
X0261690Y0089477D01*
X0261692Y0090676D02*
X0332600Y0090676D01*
X0332600Y0091874D02*
X0261694Y0091874D01*
X0261697Y0093073D02*
X0332600Y0093073D01*
X0332600Y0094271D02*
X0261699Y0094271D01*
X0261702Y0095470D02*
X0332600Y0095470D01*
X0332600Y0096668D02*
X0261704Y0096668D01*
X0261706Y0097867D02*
X0332600Y0097867D01*
X0332600Y0099065D02*
X0261709Y0099065D01*
X0261711Y0100264D02*
X0332600Y0100264D01*
X0332600Y0101462D02*
X0261713Y0101462D01*
X0261716Y0102661D02*
X0332600Y0102661D01*
X0332600Y0103859D02*
X0261718Y0103859D01*
X0261720Y0105058D02*
X0332600Y0105058D01*
X0331196Y0106256D02*
X0294504Y0106256D01*
X0294456Y0106208D02*
X0295378Y0107130D01*
X0295876Y0108334D01*
X0295876Y0109638D01*
X0295378Y0110842D01*
X0295233Y0110986D01*
X0295378Y0111130D01*
X0295876Y0112334D01*
X0295876Y0113638D01*
X0295378Y0114842D01*
X0294456Y0115764D01*
X0293252Y0116262D01*
X0291948Y0116262D01*
X0290744Y0115764D01*
X0289822Y0114842D01*
X0289324Y0113638D01*
X0289324Y0112334D01*
X0289822Y0111130D01*
X0289966Y0110986D01*
X0289822Y0110842D01*
X0289324Y0109638D01*
X0289324Y0108334D01*
X0289822Y0107130D01*
X0290744Y0106208D01*
X0291948Y0105710D01*
X0293252Y0105710D01*
X0294456Y0106208D01*
X0295512Y0107455D02*
X0330481Y0107455D01*
X0330324Y0108654D02*
X0295876Y0108654D01*
X0295788Y0109852D02*
X0303100Y0109852D01*
X0302822Y0110130D02*
X0303744Y0109208D01*
X0304948Y0108710D01*
X0306252Y0108710D01*
X0307456Y0109208D01*
X0308378Y0110130D01*
X0308876Y0111334D01*
X0308876Y0112638D01*
X0308378Y0113842D01*
X0307456Y0114764D01*
X0306252Y0115262D01*
X0304948Y0115262D01*
X0303744Y0114764D01*
X0302822Y0113842D01*
X0302324Y0112638D01*
X0302324Y0111334D01*
X0302822Y0110130D01*
X0302441Y0111051D02*
X0295298Y0111051D01*
X0295841Y0112249D02*
X0302324Y0112249D01*
X0302659Y0113448D02*
X0295876Y0113448D01*
X0295459Y0114646D02*
X0303627Y0114646D01*
X0307573Y0114646D02*
X0310627Y0114646D01*
X0310744Y0114764D02*
X0309822Y0113842D01*
X0309324Y0112638D01*
X0309324Y0111334D01*
X0309822Y0110130D01*
X0310744Y0109208D01*
X0311948Y0108710D01*
X0313252Y0108710D01*
X0314456Y0109208D01*
X0315378Y0110130D01*
X0315876Y0111334D01*
X0315876Y0112638D01*
X0315378Y0113842D01*
X0314456Y0114764D01*
X0313252Y0115262D01*
X0311948Y0115262D01*
X0310744Y0114764D01*
X0309659Y0113448D02*
X0308541Y0113448D01*
X0308876Y0112249D02*
X0309324Y0112249D01*
X0309441Y0111051D02*
X0308759Y0111051D01*
X0308100Y0109852D02*
X0310100Y0109852D01*
X0315100Y0109852D02*
X0330620Y0109852D01*
X0330535Y0111051D02*
X0315759Y0111051D01*
X0315876Y0112249D02*
X0329337Y0112249D01*
X0328138Y0113448D02*
X0315541Y0113448D01*
X0314573Y0114646D02*
X0326940Y0114646D01*
X0325741Y0115845D02*
X0294260Y0115845D01*
X0290940Y0115845D02*
X0261742Y0115845D01*
X0261744Y0117043D02*
X0324543Y0117043D01*
X0323344Y0118242D02*
X0261746Y0118242D01*
X0261749Y0119440D02*
X0322146Y0119440D01*
X0320947Y0120639D02*
X0261751Y0120639D01*
X0261754Y0121837D02*
X0319749Y0121837D01*
X0318550Y0123036D02*
X0261756Y0123036D01*
X0261758Y0124234D02*
X0317352Y0124234D01*
X0316153Y0125433D02*
X0261761Y0125433D01*
X0261763Y0126631D02*
X0314955Y0126631D01*
X0313123Y0127830D02*
X0261765Y0127830D01*
X0261768Y0129028D02*
X0312450Y0129028D01*
X0311359Y0130227D02*
X0261770Y0130227D01*
X0261772Y0131425D02*
X0310161Y0131425D01*
X0308962Y0132624D02*
X0261775Y0132624D01*
X0261777Y0133822D02*
X0307764Y0133822D01*
X0306565Y0135021D02*
X0261780Y0135021D01*
X0261782Y0136219D02*
X0305367Y0136219D01*
X0304168Y0137418D02*
X0261784Y0137418D01*
X0261787Y0138616D02*
X0302970Y0138616D01*
X0301771Y0139815D02*
X0261789Y0139815D01*
X0261791Y0141013D02*
X0300600Y0141013D01*
X0300600Y0142212D02*
X0261794Y0142212D01*
X0261796Y0143410D02*
X0300600Y0143410D01*
X0300600Y0144609D02*
X0261798Y0144609D01*
X0261801Y0145807D02*
X0300600Y0145807D01*
X0300600Y0147006D02*
X0261803Y0147006D01*
X0261806Y0148204D02*
X0300600Y0148204D01*
X0300600Y0149403D02*
X0261808Y0149403D01*
X0261810Y0150601D02*
X0300600Y0150601D01*
X0300600Y0151800D02*
X0261813Y0151800D01*
X0261815Y0152998D02*
X0300600Y0152998D01*
X0300600Y0154197D02*
X0261817Y0154197D01*
X0261820Y0155395D02*
X0300600Y0155395D01*
X0300600Y0156594D02*
X0261822Y0156594D01*
X0261824Y0157792D02*
X0300600Y0157792D01*
X0300600Y0158991D02*
X0261827Y0158991D01*
X0261829Y0160190D02*
X0300600Y0160190D01*
X0300600Y0161388D02*
X0261832Y0161388D01*
X0261834Y0162587D02*
X0300600Y0162587D01*
X0300600Y0163785D02*
X0261836Y0163785D01*
X0261839Y0164984D02*
X0288287Y0164984D01*
X0286801Y0166182D02*
X0261841Y0166182D01*
X0261843Y0167381D02*
X0286324Y0167381D01*
X0286324Y0168579D02*
X0261846Y0168579D01*
X0261848Y0169778D02*
X0286796Y0169778D01*
X0288257Y0170976D02*
X0261850Y0170976D01*
X0261853Y0172175D02*
X0300600Y0172175D01*
X0300600Y0173373D02*
X0261855Y0173373D01*
X0261858Y0174572D02*
X0300600Y0174572D01*
X0300600Y0175770D02*
X0261860Y0175770D01*
X0261862Y0176969D02*
X0300600Y0176969D01*
X0300600Y0178167D02*
X0261865Y0178167D01*
X0261867Y0179366D02*
X0300600Y0179366D01*
X0300600Y0180564D02*
X0261869Y0180564D01*
X0261872Y0181763D02*
X0300600Y0181763D01*
X0300600Y0182961D02*
X0261874Y0182961D01*
X0261876Y0184160D02*
X0300600Y0184160D01*
X0300600Y0185358D02*
X0261879Y0185358D01*
X0261881Y0186557D02*
X0300600Y0186557D01*
X0300600Y0187755D02*
X0261884Y0187755D01*
X0261886Y0188954D02*
X0300600Y0188954D01*
X0300600Y0190152D02*
X0261888Y0190152D01*
X0261891Y0191351D02*
X0300600Y0191351D01*
X0300600Y0192549D02*
X0261893Y0192549D01*
X0261895Y0193748D02*
X0300600Y0193748D01*
X0300600Y0194946D02*
X0261898Y0194946D01*
X0261900Y0196145D02*
X0300600Y0196145D01*
X0300600Y0197343D02*
X0261902Y0197343D01*
X0261905Y0198542D02*
X0300600Y0198542D01*
X0300600Y0199740D02*
X0261907Y0199740D01*
X0261910Y0200939D02*
X0300600Y0200939D01*
X0300600Y0202137D02*
X0261912Y0202137D01*
X0261914Y0203336D02*
X0300600Y0203336D01*
X0300600Y0204534D02*
X0261917Y0204534D01*
X0261919Y0205733D02*
X0288220Y0205733D01*
X0287490Y0206931D02*
X0261921Y0206931D01*
X0261924Y0208130D02*
X0287324Y0208130D01*
X0287610Y0209328D02*
X0261926Y0209328D01*
X0261928Y0210527D02*
X0288507Y0210527D01*
X0292693Y0210527D02*
X0293507Y0210527D01*
X0297693Y0210527D02*
X0298507Y0210527D01*
X0300600Y0211725D02*
X0261931Y0211725D01*
X0261933Y0212924D02*
X0300600Y0212924D01*
X0300600Y0214123D02*
X0261936Y0214123D01*
X0261938Y0215321D02*
X0300600Y0215321D01*
X0300600Y0216520D02*
X0261940Y0216520D01*
X0261943Y0217718D02*
X0301332Y0217718D01*
X0302531Y0218917D02*
X0261945Y0218917D01*
X0261947Y0220115D02*
X0303729Y0220115D01*
X0304928Y0221314D02*
X0261950Y0221314D01*
X0261952Y0222512D02*
X0306126Y0222512D01*
X0307325Y0223711D02*
X0261954Y0223711D01*
X0261957Y0224909D02*
X0308523Y0224909D01*
X0308887Y0221314D02*
X0335800Y0221314D01*
X0335800Y0222512D02*
X0323944Y0222512D01*
X0325284Y0223711D02*
X0335800Y0223711D01*
X0335800Y0224909D02*
X0326483Y0224909D01*
X0327681Y0226108D02*
X0335800Y0226108D01*
X0335800Y0227306D02*
X0328884Y0227306D01*
X0329400Y0228505D02*
X0335800Y0228505D01*
X0335800Y0229703D02*
X0329405Y0229703D01*
X0329414Y0230902D02*
X0335800Y0230902D01*
X0335800Y0232100D02*
X0329423Y0232100D01*
X0329432Y0233299D02*
X0335800Y0233299D01*
X0335800Y0234497D02*
X0329440Y0234497D01*
X0329449Y0235696D02*
X0335800Y0235696D01*
X0335800Y0236894D02*
X0329458Y0236894D01*
X0329467Y0238093D02*
X0335800Y0238093D01*
X0335800Y0239291D02*
X0329475Y0239291D01*
X0329484Y0240490D02*
X0335800Y0240490D01*
X0335800Y0241688D02*
X0329493Y0241688D01*
X0329502Y0242887D02*
X0335800Y0242887D01*
X0335800Y0244085D02*
X0329510Y0244085D01*
X0329519Y0245284D02*
X0335800Y0245284D01*
X0335800Y0246482D02*
X0329528Y0246482D01*
X0329537Y0247681D02*
X0334823Y0247681D01*
X0333539Y0248879D02*
X0329545Y0248879D01*
X0329554Y0250078D02*
X0332255Y0250078D01*
X0330971Y0251276D02*
X0329563Y0251276D01*
X0329572Y0252475D02*
X0329687Y0252475D01*
X0326771Y0252475D02*
X0283645Y0252475D01*
X0284672Y0253673D02*
X0326780Y0253673D01*
X0326789Y0254872D02*
X0285169Y0254872D01*
X0285365Y0256070D02*
X0326421Y0256070D01*
X0325137Y0257269D02*
X0285365Y0257269D01*
X0284951Y0258467D02*
X0323852Y0258467D01*
X0323600Y0261986D02*
X0338600Y0247986D01*
X0338600Y0211486D01*
X0345600Y0204486D01*
X0345600Y0152986D01*
X0348915Y0149671D01*
X0348915Y0146892D01*
X0354916Y0141013D02*
X0360200Y0141013D01*
X0360200Y0139945D02*
X0360200Y0143287D01*
X0361479Y0146374D01*
X0363842Y0148737D01*
X0366929Y0150016D01*
X0370271Y0150016D01*
X0373358Y0148737D01*
X0375721Y0146374D01*
X0377000Y0143287D01*
X0377000Y0139945D01*
X0375721Y0136858D01*
X0373358Y0134495D01*
X0370271Y0133216D01*
X0366929Y0133216D01*
X0363842Y0134495D01*
X0361479Y0136858D01*
X0360200Y0139945D01*
X0360254Y0139815D02*
X0353718Y0139815D01*
X0350887Y0138616D02*
X0360750Y0138616D01*
X0361247Y0137418D02*
X0308128Y0137418D01*
X0306929Y0138616D02*
X0346943Y0138616D01*
X0344112Y0139815D02*
X0305731Y0139815D01*
X0304532Y0141013D02*
X0342914Y0141013D01*
X0341761Y0142212D02*
X0303400Y0142212D01*
X0303400Y0143410D02*
X0341265Y0143410D01*
X0340768Y0144609D02*
X0303400Y0144609D01*
X0303400Y0145807D02*
X0340515Y0145807D01*
X0340515Y0147006D02*
X0303400Y0147006D01*
X0303400Y0148204D02*
X0340515Y0148204D01*
X0340863Y0149403D02*
X0303400Y0149403D01*
X0303400Y0150601D02*
X0341360Y0150601D01*
X0341944Y0151800D02*
X0303400Y0151800D01*
X0303400Y0152998D02*
X0332599Y0152998D01*
X0329730Y0154197D02*
X0303400Y0154197D01*
X0303400Y0155395D02*
X0328532Y0155395D01*
X0327363Y0156594D02*
X0303400Y0156594D01*
X0303400Y0157792D02*
X0326867Y0157792D01*
X0326370Y0158991D02*
X0303400Y0158991D01*
X0303400Y0160190D02*
X0326106Y0160190D01*
X0326106Y0161388D02*
X0303400Y0161388D01*
X0303400Y0162587D02*
X0326106Y0162587D01*
X0326442Y0163785D02*
X0303400Y0163785D01*
X0303400Y0164984D02*
X0326939Y0164984D01*
X0327507Y0166182D02*
X0303400Y0166182D01*
X0303400Y0167381D02*
X0328706Y0167381D01*
X0330126Y0168579D02*
X0303400Y0168579D01*
X0303400Y0169778D02*
X0342800Y0169778D01*
X0342800Y0170976D02*
X0303400Y0170976D01*
X0303400Y0172175D02*
X0342800Y0172175D01*
X0342800Y0173373D02*
X0332801Y0173373D01*
X0333988Y0173865D02*
X0336351Y0176228D01*
X0337630Y0179315D01*
X0337630Y0182657D01*
X0336351Y0185744D01*
X0333988Y0188107D01*
X0330901Y0189386D01*
X0327559Y0189386D01*
X0324472Y0188107D01*
X0322109Y0185744D01*
X0320830Y0182657D01*
X0320830Y0179315D01*
X0322109Y0176228D01*
X0324472Y0173865D01*
X0327559Y0172586D01*
X0330901Y0172586D01*
X0333988Y0173865D01*
X0334695Y0174572D02*
X0342800Y0174572D01*
X0342800Y0175770D02*
X0335893Y0175770D01*
X0336658Y0176969D02*
X0342800Y0176969D01*
X0342800Y0178167D02*
X0337154Y0178167D01*
X0337630Y0179366D02*
X0342800Y0179366D01*
X0342800Y0180564D02*
X0337630Y0180564D01*
X0337630Y0181763D02*
X0342800Y0181763D01*
X0342800Y0182961D02*
X0337504Y0182961D01*
X0337007Y0184160D02*
X0342800Y0184160D01*
X0342800Y0185358D02*
X0336511Y0185358D01*
X0335539Y0186557D02*
X0342800Y0186557D01*
X0342800Y0187755D02*
X0334340Y0187755D01*
X0331944Y0188954D02*
X0342800Y0188954D01*
X0342800Y0190152D02*
X0303400Y0190152D01*
X0303400Y0188954D02*
X0326516Y0188954D01*
X0324120Y0187755D02*
X0303400Y0187755D01*
X0303400Y0186557D02*
X0322921Y0186557D01*
X0321949Y0185358D02*
X0303400Y0185358D01*
X0303400Y0184160D02*
X0321452Y0184160D01*
X0320956Y0182961D02*
X0303400Y0182961D01*
X0303400Y0181763D02*
X0320830Y0181763D01*
X0320830Y0180564D02*
X0303400Y0180564D01*
X0303400Y0179366D02*
X0320830Y0179366D01*
X0321305Y0178167D02*
X0303400Y0178167D01*
X0303400Y0176969D02*
X0321802Y0176969D01*
X0322566Y0175770D02*
X0303400Y0175770D01*
X0303400Y0174572D02*
X0323765Y0174572D01*
X0325659Y0173373D02*
X0303400Y0173373D01*
X0298257Y0170976D02*
X0295943Y0170976D01*
X0293257Y0170976D02*
X0290943Y0170976D01*
X0290913Y0164984D02*
X0293287Y0164984D01*
X0295913Y0164984D02*
X0298287Y0164984D01*
X0336412Y0152998D02*
X0342800Y0152998D01*
X0342800Y0154197D02*
X0339281Y0154197D01*
X0340479Y0155395D02*
X0342800Y0155395D01*
X0342800Y0156594D02*
X0341648Y0156594D01*
X0342144Y0157792D02*
X0342800Y0157792D01*
X0342800Y0158991D02*
X0342641Y0158991D01*
X0348400Y0158991D02*
X0390800Y0158991D01*
X0390800Y0160190D02*
X0348400Y0160190D01*
X0348400Y0161388D02*
X0390800Y0161388D01*
X0390800Y0162587D02*
X0360520Y0162587D01*
X0361120Y0163627D02*
X0361120Y0163627D01*
X0361212Y0163785D02*
X0390800Y0163785D01*
X0390800Y0164984D02*
X0361904Y0164984D01*
X0362596Y0166182D02*
X0390800Y0166182D01*
X0390800Y0167381D02*
X0363287Y0167381D01*
X0363979Y0168579D02*
X0391233Y0168579D01*
X0392432Y0169778D02*
X0364671Y0169778D01*
X0365363Y0170976D02*
X0393630Y0170976D01*
X0394829Y0172175D02*
X0366055Y0172175D01*
X0366747Y0173373D02*
X0396027Y0173373D01*
X0397226Y0174572D02*
X0367439Y0174572D01*
X0368131Y0175770D02*
X0398424Y0175770D01*
X0399623Y0176969D02*
X0368823Y0176969D01*
X0369515Y0178167D02*
X0400046Y0178167D01*
X0399570Y0179366D02*
X0370207Y0179366D01*
X0370899Y0180564D02*
X0399570Y0180564D01*
X0399570Y0181763D02*
X0371591Y0181763D01*
X0372283Y0182961D02*
X0399696Y0182961D01*
X0400193Y0184160D02*
X0372975Y0184160D01*
X0373667Y0185358D02*
X0400689Y0185358D01*
X0401661Y0186557D02*
X0374359Y0186557D01*
X0375051Y0187755D02*
X0402860Y0187755D01*
X0405256Y0188954D02*
X0375743Y0188954D01*
X0376435Y0190152D02*
X0412806Y0190152D01*
X0411608Y0188954D02*
X0410684Y0188954D01*
X0413725Y0187111D02*
X0415091Y0185744D01*
X0416370Y0182657D01*
X0416370Y0179315D01*
X0415091Y0176228D01*
X0412728Y0173865D01*
X0409641Y0172586D01*
X0406299Y0172586D01*
X0403212Y0173865D01*
X0401845Y0175231D01*
X0393600Y0166986D01*
X0393600Y0153456D01*
X0394070Y0152986D01*
X0427400Y0152986D01*
X0427400Y0154020D01*
X0428192Y0155932D01*
X0429654Y0157394D01*
X0431566Y0158186D01*
X0433634Y0158186D01*
X0435546Y0157394D01*
X0437008Y0155932D01*
X0437800Y0154020D01*
X0437800Y0152986D01*
X0475100Y0152986D01*
X0475100Y0201486D01*
X0428100Y0201486D01*
X0413725Y0187111D01*
X0414279Y0186557D02*
X0475100Y0186557D01*
X0475100Y0187755D02*
X0414369Y0187755D01*
X0415568Y0188954D02*
X0475100Y0188954D01*
X0475100Y0190152D02*
X0416766Y0190152D01*
X0417965Y0191351D02*
X0475100Y0191351D01*
X0475100Y0192549D02*
X0419163Y0192549D01*
X0420362Y0193748D02*
X0475100Y0193748D01*
X0475100Y0194946D02*
X0421560Y0194946D01*
X0422759Y0196145D02*
X0475100Y0196145D01*
X0475100Y0197343D02*
X0423957Y0197343D01*
X0425156Y0198542D02*
X0475100Y0198542D01*
X0475100Y0199740D02*
X0426354Y0199740D01*
X0427553Y0200939D02*
X0475100Y0200939D01*
X0475100Y0204534D02*
X0410186Y0204534D01*
X0409816Y0205429D02*
X0407453Y0207792D01*
X0404365Y0209071D01*
X0401024Y0209071D01*
X0397936Y0207792D01*
X0395573Y0205429D01*
X0394294Y0202342D01*
X0394294Y0199000D01*
X0395573Y0195913D01*
X0397936Y0193550D01*
X0401024Y0192271D01*
X0404365Y0192271D01*
X0407453Y0193550D01*
X0409816Y0195913D01*
X0411094Y0199000D01*
X0411094Y0202342D01*
X0409816Y0205429D01*
X0409512Y0205733D02*
X0475100Y0205733D01*
X0475100Y0206931D02*
X0408313Y0206931D01*
X0406637Y0208130D02*
X0475100Y0208130D01*
X0475100Y0209328D02*
X0394412Y0209328D01*
X0395406Y0210322D02*
X0396685Y0213410D01*
X0396685Y0216751D01*
X0395406Y0219839D01*
X0393043Y0222202D01*
X0389956Y0223480D01*
X0386614Y0223480D01*
X0383527Y0222202D01*
X0381164Y0219839D01*
X0379885Y0216751D01*
X0379885Y0213410D01*
X0381164Y0210322D01*
X0383527Y0207959D01*
X0386614Y0206680D01*
X0389956Y0206680D01*
X0393043Y0207959D01*
X0395406Y0210322D01*
X0395491Y0210527D02*
X0475100Y0210527D01*
X0475100Y0211725D02*
X0395987Y0211725D01*
X0396484Y0212924D02*
X0475100Y0212924D01*
X0475100Y0214123D02*
X0396685Y0214123D01*
X0396685Y0215321D02*
X0475100Y0215321D01*
X0475100Y0216520D02*
X0396685Y0216520D01*
X0396285Y0217718D02*
X0475100Y0217718D01*
X0475100Y0218917D02*
X0395788Y0218917D01*
X0395130Y0220115D02*
X0475100Y0220115D01*
X0475100Y0221314D02*
X0393931Y0221314D01*
X0392294Y0222512D02*
X0475100Y0222512D01*
X0475100Y0223711D02*
X0435679Y0223711D01*
X0435546Y0223578D02*
X0437008Y0225040D01*
X0437800Y0226952D01*
X0437800Y0229020D01*
X0437008Y0230932D01*
X0435546Y0232394D01*
X0433634Y0233186D01*
X0431566Y0233186D01*
X0429654Y0232394D01*
X0428192Y0230932D01*
X0427400Y0229020D01*
X0427400Y0226952D01*
X0428192Y0225040D01*
X0429654Y0223578D01*
X0431566Y0222786D01*
X0433634Y0222786D01*
X0435546Y0223578D01*
X0436877Y0224909D02*
X0462608Y0224909D01*
X0462008Y0225158D02*
X0464806Y0223999D01*
X0467835Y0223999D01*
X0470633Y0225158D01*
X0472775Y0227299D01*
X0473934Y0230098D01*
X0473934Y0233126D01*
X0472775Y0235925D01*
X0470633Y0238066D01*
X0467835Y0239225D01*
X0464806Y0239225D01*
X0462008Y0238066D01*
X0459866Y0235925D01*
X0458707Y0233126D01*
X0458707Y0230098D01*
X0459866Y0227299D01*
X0462008Y0225158D01*
X0461058Y0226108D02*
X0437450Y0226108D01*
X0437800Y0227306D02*
X0459863Y0227306D01*
X0459367Y0228505D02*
X0437800Y0228505D01*
X0437517Y0229703D02*
X0458870Y0229703D01*
X0458707Y0230902D02*
X0437021Y0230902D01*
X0435840Y0232100D02*
X0458707Y0232100D01*
X0458778Y0233299D02*
X0356076Y0233299D01*
X0357728Y0234497D02*
X0459275Y0234497D01*
X0459771Y0235696D02*
X0358364Y0235696D01*
X0358572Y0236894D02*
X0460836Y0236894D01*
X0462072Y0238093D02*
X0358440Y0238093D01*
X0357912Y0239291D02*
X0475100Y0239291D01*
X0475100Y0238093D02*
X0470569Y0238093D01*
X0471805Y0236894D02*
X0475100Y0236894D01*
X0475100Y0235696D02*
X0472870Y0235696D01*
X0473366Y0234497D02*
X0475100Y0234497D01*
X0475100Y0233299D02*
X0473862Y0233299D01*
X0473934Y0232100D02*
X0475100Y0232100D01*
X0475100Y0230902D02*
X0473934Y0230902D01*
X0473770Y0229703D02*
X0475100Y0229703D01*
X0475100Y0228505D02*
X0473274Y0228505D01*
X0472778Y0227306D02*
X0475100Y0227306D01*
X0475100Y0226108D02*
X0471583Y0226108D01*
X0470033Y0224909D02*
X0475100Y0224909D01*
X0475100Y0240490D02*
X0356520Y0240490D01*
X0352680Y0240490D02*
X0341400Y0240490D01*
X0341400Y0241688D02*
X0475100Y0241688D01*
X0475100Y0242887D02*
X0341400Y0242887D01*
X0341400Y0244085D02*
X0433203Y0244085D01*
X0433869Y0243810D02*
X0435331Y0243810D01*
X0436682Y0244369D01*
X0437717Y0245404D01*
X0438276Y0246755D01*
X0438276Y0248217D01*
X0437717Y0249569D01*
X0436682Y0250603D01*
X0435331Y0251162D01*
X0433869Y0251162D01*
X0432517Y0250603D01*
X0431483Y0249569D01*
X0430924Y0248217D01*
X0430924Y0246755D01*
X0431483Y0245404D01*
X0432517Y0244369D01*
X0433869Y0243810D01*
X0435997Y0244085D02*
X0454203Y0244085D01*
X0454869Y0243810D02*
X0453517Y0244369D01*
X0452483Y0245404D01*
X0451924Y0246755D01*
X0451924Y0248217D01*
X0452483Y0249569D01*
X0453517Y0250603D01*
X0454869Y0251162D01*
X0456331Y0251162D01*
X0457682Y0250603D01*
X0458717Y0249569D01*
X0459276Y0248217D01*
X0459276Y0246755D01*
X0458717Y0245404D01*
X0457682Y0244369D01*
X0456331Y0243810D01*
X0454869Y0243810D01*
X0456997Y0244085D02*
X0475100Y0244085D01*
X0475100Y0245284D02*
X0458597Y0245284D01*
X0459164Y0246482D02*
X0475100Y0246482D01*
X0475100Y0247681D02*
X0459276Y0247681D01*
X0459002Y0248879D02*
X0475100Y0248879D01*
X0475100Y0250078D02*
X0458207Y0250078D01*
X0452993Y0250078D02*
X0437207Y0250078D01*
X0438002Y0248879D02*
X0452198Y0248879D01*
X0451924Y0247681D02*
X0438276Y0247681D01*
X0438164Y0246482D02*
X0452036Y0246482D01*
X0452603Y0245284D02*
X0437597Y0245284D01*
X0431603Y0245284D02*
X0341400Y0245284D01*
X0341400Y0246482D02*
X0431036Y0246482D01*
X0430924Y0247681D02*
X0342255Y0247681D01*
X0343453Y0248879D02*
X0431198Y0248879D01*
X0431993Y0250078D02*
X0345891Y0250078D01*
X0346871Y0251276D02*
X0475100Y0251276D01*
X0475100Y0252475D02*
X0347276Y0252475D01*
X0347276Y0253673D02*
X0475100Y0253673D01*
X0475100Y0254872D02*
X0346798Y0254872D01*
X0345715Y0256070D02*
X0475100Y0256070D01*
X0475100Y0257269D02*
X0332758Y0257269D01*
X0334042Y0256070D02*
X0341485Y0256070D01*
X0340402Y0254872D02*
X0335326Y0254872D01*
X0336610Y0253673D02*
X0339924Y0253673D01*
X0339129Y0252475D02*
X0337894Y0252475D01*
X0338600Y0247986D02*
X0343600Y0252986D01*
X0331474Y0258467D02*
X0475100Y0258467D01*
X0475100Y0259666D02*
X0330189Y0259666D01*
X0329633Y0260864D02*
X0475100Y0260864D01*
X0475100Y0262063D02*
X0329641Y0262063D01*
X0329650Y0263261D02*
X0475100Y0263261D01*
X0475100Y0264460D02*
X0329659Y0264460D01*
X0329668Y0265659D02*
X0475100Y0265659D01*
X0475100Y0266857D02*
X0342446Y0266857D01*
X0342331Y0266810D02*
X0343682Y0267369D01*
X0344717Y0268404D01*
X0345276Y0269755D01*
X0345276Y0271217D01*
X0344717Y0272569D01*
X0343682Y0273603D01*
X0342331Y0274162D01*
X0340869Y0274162D01*
X0339517Y0273603D01*
X0338483Y0272569D01*
X0337924Y0271217D01*
X0337924Y0269755D01*
X0338483Y0268404D01*
X0339517Y0267369D01*
X0340869Y0266810D01*
X0342331Y0266810D01*
X0340754Y0266857D02*
X0329676Y0266857D01*
X0329685Y0268056D02*
X0338831Y0268056D01*
X0338131Y0269254D02*
X0329694Y0269254D01*
X0329703Y0270453D02*
X0337924Y0270453D01*
X0338103Y0271651D02*
X0329711Y0271651D01*
X0329720Y0272850D02*
X0338764Y0272850D01*
X0340593Y0274048D02*
X0329729Y0274048D01*
X0329738Y0275247D02*
X0475100Y0275247D01*
X0475100Y0276445D02*
X0329746Y0276445D01*
X0329755Y0277644D02*
X0475100Y0277644D01*
X0475100Y0278842D02*
X0329764Y0278842D01*
X0329773Y0280041D02*
X0475100Y0280041D01*
X0475100Y0281239D02*
X0329781Y0281239D01*
X0329790Y0282438D02*
X0475100Y0282438D01*
X0475100Y0283636D02*
X0329799Y0283636D01*
X0329808Y0284835D02*
X0404161Y0284835D01*
X0402955Y0286033D02*
X0329816Y0286033D01*
X0329825Y0287232D02*
X0402600Y0287232D01*
X0402600Y0288430D02*
X0329834Y0288430D01*
X0329843Y0289629D02*
X0402600Y0289629D01*
X0402600Y0290827D02*
X0329851Y0290827D01*
X0329860Y0292026D02*
X0402600Y0292026D01*
X0402600Y0293224D02*
X0329869Y0293224D01*
X0342607Y0274048D02*
X0399463Y0274048D01*
X0398983Y0273569D02*
X0400017Y0274603D01*
X0401369Y0275162D01*
X0402831Y0275162D01*
X0404182Y0274603D01*
X0405217Y0273569D01*
X0405776Y0272217D01*
X0405776Y0270755D01*
X0405217Y0269404D01*
X0404182Y0268369D01*
X0402831Y0267810D01*
X0401369Y0267810D01*
X0400017Y0268369D01*
X0398983Y0269404D01*
X0398424Y0270755D01*
X0398424Y0272217D01*
X0398983Y0273569D01*
X0398686Y0272850D02*
X0344436Y0272850D01*
X0345097Y0271651D02*
X0398424Y0271651D01*
X0398549Y0270453D02*
X0345276Y0270453D01*
X0345069Y0269254D02*
X0399133Y0269254D01*
X0400775Y0268056D02*
X0344369Y0268056D01*
X0323600Y0261986D02*
X0238600Y0261986D01*
X0229100Y0252486D01*
X0129600Y0252486D01*
X0122600Y0259486D01*
X0081600Y0259486D01*
X0079600Y0257486D01*
X0079600Y0238986D01*
X0066600Y0225986D01*
X0054100Y0225986D01*
X0054100Y0226986D01*
X0055547Y0228933D02*
X0055459Y0229021D01*
X0054577Y0229386D01*
X0053623Y0229386D01*
X0052741Y0229021D01*
X0052653Y0228933D01*
X0052244Y0228764D01*
X0051322Y0227842D01*
X0050824Y0226638D01*
X0050824Y0225334D01*
X0051322Y0224130D01*
X0052244Y0223208D01*
X0053448Y0222710D01*
X0054752Y0222710D01*
X0055956Y0223208D01*
X0056333Y0223586D01*
X0067077Y0223586D01*
X0067959Y0223951D01*
X0068635Y0224627D01*
X0081635Y0237627D01*
X0082000Y0238509D01*
X0082000Y0256492D01*
X0082594Y0257086D01*
X0121606Y0257086D01*
X0128241Y0250451D01*
X0129123Y0250086D01*
X0206169Y0250086D01*
X0204451Y0248368D01*
X0203307Y0245606D01*
X0203307Y0242617D01*
X0204451Y0239856D01*
X0206564Y0237742D01*
X0209326Y0236599D01*
X0212315Y0236599D01*
X0215076Y0237742D01*
X0217190Y0239856D01*
X0218334Y0242617D01*
X0218334Y0245606D01*
X0217190Y0248368D01*
X0215472Y0250086D01*
X0229577Y0250086D01*
X0230459Y0250451D01*
X0236600Y0256592D01*
X0236600Y0027935D01*
X0183374Y0081161D01*
X0183865Y0082344D01*
X0183865Y0084470D01*
X0183051Y0086434D01*
X0181548Y0087937D01*
X0179584Y0088751D01*
X0177458Y0088751D01*
X0176275Y0088260D01*
X0156515Y0108021D01*
X0155633Y0108386D01*
X0098133Y0108386D01*
X0098378Y0108630D01*
X0098876Y0109834D01*
X0098876Y0109947D01*
X0099448Y0109710D01*
X0100752Y0109710D01*
X0101956Y0110208D01*
X0102600Y0110853D01*
X0103244Y0110208D01*
X0104448Y0109710D01*
X0105752Y0109710D01*
X0106956Y0110208D01*
X0107600Y0110853D01*
X0108244Y0110208D01*
X0109448Y0109710D01*
X0110752Y0109710D01*
X0111956Y0110208D01*
X0112600Y0110853D01*
X0113244Y0110208D01*
X0114448Y0109710D01*
X0115752Y0109710D01*
X0116956Y0110208D01*
X0117600Y0110853D01*
X0118244Y0110208D01*
X0119448Y0109710D01*
X0120752Y0109710D01*
X0121956Y0110208D01*
X0122600Y0110853D01*
X0123244Y0110208D01*
X0124448Y0109710D01*
X0125752Y0109710D01*
X0126956Y0110208D01*
X0127350Y0110603D01*
X0127744Y0110208D01*
X0128948Y0109710D01*
X0130252Y0109710D01*
X0131456Y0110208D01*
X0132378Y0111130D01*
X0132600Y0111667D01*
X0132822Y0111130D01*
X0133744Y0110208D01*
X0134948Y0109710D01*
X0136252Y0109710D01*
X0137456Y0110208D01*
X0138378Y0111130D01*
X0138876Y0112334D01*
X0138876Y0113638D01*
X0138378Y0114842D01*
X0137456Y0115764D01*
X0136252Y0116262D01*
X0134948Y0116262D01*
X0133744Y0115764D01*
X0132822Y0114842D01*
X0132600Y0114305D01*
X0132378Y0114842D01*
X0131456Y0115764D01*
X0130252Y0116262D01*
X0128948Y0116262D01*
X0127744Y0115764D01*
X0127350Y0115370D01*
X0126956Y0115764D01*
X0125752Y0116262D01*
X0124448Y0116262D01*
X0123244Y0115764D01*
X0122600Y0115120D01*
X0121956Y0115764D01*
X0120752Y0116262D01*
X0119448Y0116262D01*
X0118244Y0115764D01*
X0117600Y0115120D01*
X0116956Y0115764D01*
X0115752Y0116262D01*
X0114448Y0116262D01*
X0113244Y0115764D01*
X0112600Y0115120D01*
X0111956Y0115764D01*
X0110752Y0116262D01*
X0109448Y0116262D01*
X0108244Y0115764D01*
X0107600Y0115120D01*
X0106956Y0115764D01*
X0105752Y0116262D01*
X0104448Y0116262D01*
X0103244Y0115764D01*
X0102600Y0115120D01*
X0101956Y0115764D01*
X0100752Y0116262D01*
X0099448Y0116262D01*
X0098244Y0115764D01*
X0097322Y0114842D01*
X0096824Y0113638D01*
X0096824Y0113525D01*
X0096252Y0113762D01*
X0094948Y0113762D01*
X0093744Y0113264D01*
X0092822Y0112342D01*
X0092582Y0111762D01*
X0091448Y0111762D01*
X0090244Y0111264D01*
X0089322Y0110342D01*
X0089082Y0109762D01*
X0088448Y0109762D01*
X0087244Y0109264D01*
X0086366Y0108386D01*
X0027665Y0108386D01*
X0026532Y0109520D01*
X0024767Y0110251D01*
X0022858Y0110251D01*
X0021094Y0109520D01*
X0019960Y0108386D01*
X0017665Y0108386D01*
X0016532Y0109520D01*
X0014767Y0110251D01*
X0012858Y0110251D01*
X0011094Y0109520D01*
X0009960Y0108386D01*
X0005059Y0108386D01*
X0005059Y0257796D01*
X0005234Y0258462D01*
X0006055Y0259991D01*
X0007308Y0261191D01*
X0008870Y0261945D01*
X0010589Y0262180D01*
X0011227Y0262116D01*
X0011394Y0262046D01*
X0011711Y0262047D01*
X0012023Y0261990D01*
X0012282Y0262047D01*
X0138700Y0262085D01*
X0138700Y0255409D01*
X0138917Y0254886D01*
X0130594Y0254886D01*
X0124635Y0260845D01*
X0123959Y0261521D01*
X0123077Y0261886D01*
X0081123Y0261886D01*
X0080241Y0261521D01*
X0078241Y0259521D01*
X0077565Y0258845D01*
X0077200Y0257963D01*
X0077200Y0239980D01*
X0065606Y0228386D01*
X0056333Y0228386D01*
X0055956Y0228764D01*
X0055547Y0228933D01*
X0056215Y0228505D02*
X0065725Y0228505D01*
X0066923Y0229703D02*
X0039895Y0229703D01*
X0039752Y0229762D02*
X0038448Y0229762D01*
X0037244Y0229264D01*
X0036322Y0228342D01*
X0035824Y0227138D01*
X0035824Y0225834D01*
X0036322Y0224630D01*
X0037244Y0223708D01*
X0038448Y0223210D01*
X0039752Y0223210D01*
X0040956Y0223708D01*
X0041878Y0224630D01*
X0042376Y0225834D01*
X0042376Y0227138D01*
X0041878Y0228342D01*
X0040956Y0229264D01*
X0039752Y0229762D01*
X0038305Y0229703D02*
X0025599Y0229703D01*
X0025578Y0229714D02*
X0024890Y0229937D01*
X0024213Y0230045D01*
X0024213Y0225851D01*
X0028407Y0225851D01*
X0028299Y0226528D01*
X0028076Y0227216D01*
X0027747Y0227861D01*
X0027321Y0228447D01*
X0026809Y0228959D01*
X0026224Y0229385D01*
X0025578Y0229714D01*
X0024213Y0229703D02*
X0023413Y0229703D01*
X0023413Y0230045D02*
X0022735Y0229937D01*
X0022047Y0229714D01*
X0021402Y0229385D01*
X0020816Y0228959D01*
X0020304Y0228447D01*
X0019878Y0227861D01*
X0019550Y0227216D01*
X0019326Y0226528D01*
X0019219Y0225851D01*
X0023413Y0225851D01*
X0023413Y0230045D01*
X0022026Y0229703D02*
X0016089Y0229703D01*
X0016532Y0229520D02*
X0014767Y0230251D01*
X0012858Y0230251D01*
X0011094Y0229520D01*
X0009743Y0228170D01*
X0009013Y0226405D01*
X0009013Y0224496D01*
X0009743Y0222732D01*
X0011094Y0221381D01*
X0012858Y0220651D01*
X0014767Y0220651D01*
X0016532Y0221381D01*
X0017882Y0222732D01*
X0018613Y0224496D01*
X0018613Y0226405D01*
X0017882Y0228170D01*
X0016532Y0229520D01*
X0017547Y0228505D02*
X0020361Y0228505D01*
X0019595Y0227306D02*
X0018239Y0227306D01*
X0018613Y0226108D02*
X0019259Y0226108D01*
X0019219Y0225051D02*
X0019326Y0224373D01*
X0019550Y0223685D01*
X0019878Y0223040D01*
X0020304Y0222454D01*
X0020816Y0221942D01*
X0021402Y0221516D01*
X0022047Y0221188D01*
X0022735Y0220964D01*
X0023413Y0220857D01*
X0023413Y0225050D01*
X0024213Y0225050D01*
X0024213Y0220857D01*
X0024890Y0220964D01*
X0025578Y0221188D01*
X0026224Y0221516D01*
X0026809Y0221942D01*
X0027321Y0222454D01*
X0027747Y0223040D01*
X0028076Y0223685D01*
X0028299Y0224373D01*
X0028407Y0225051D01*
X0024213Y0225051D01*
X0024213Y0225851D01*
X0023413Y0225851D01*
X0023413Y0225051D01*
X0019219Y0225051D01*
X0019241Y0224909D02*
X0018613Y0224909D01*
X0018287Y0223711D02*
X0019541Y0223711D01*
X0020262Y0222512D02*
X0017662Y0222512D01*
X0016368Y0221314D02*
X0021800Y0221314D01*
X0022531Y0220115D02*
X0015094Y0220115D01*
X0014767Y0220251D02*
X0012858Y0220251D01*
X0011094Y0219520D01*
X0009743Y0218170D01*
X0009013Y0216405D01*
X0009013Y0214496D01*
X0009743Y0212732D01*
X0011094Y0211381D01*
X0012858Y0210651D01*
X0014767Y0210651D01*
X0016532Y0211381D01*
X0017882Y0212732D01*
X0018613Y0214496D01*
X0018613Y0216405D01*
X0017882Y0218170D01*
X0016532Y0219520D01*
X0014767Y0220251D01*
X0012531Y0220115D02*
X0005059Y0220115D01*
X0005059Y0218917D02*
X0010490Y0218917D01*
X0009556Y0217718D02*
X0005059Y0217718D01*
X0005059Y0216520D02*
X0009060Y0216520D01*
X0009013Y0215321D02*
X0005059Y0215321D01*
X0005059Y0214123D02*
X0009167Y0214123D01*
X0009664Y0212924D02*
X0005059Y0212924D01*
X0005059Y0211725D02*
X0010749Y0211725D01*
X0011094Y0209520D02*
X0009743Y0208170D01*
X0009013Y0206405D01*
X0009013Y0204496D01*
X0009743Y0202732D01*
X0011094Y0201381D01*
X0012858Y0200651D01*
X0014767Y0200651D01*
X0016532Y0201381D01*
X0017882Y0202732D01*
X0018613Y0204496D01*
X0018613Y0206405D01*
X0017882Y0208170D01*
X0016532Y0209520D01*
X0014767Y0210251D01*
X0012858Y0210251D01*
X0011094Y0209520D01*
X0010902Y0209328D02*
X0005059Y0209328D01*
X0005059Y0208130D02*
X0009727Y0208130D01*
X0009231Y0206931D02*
X0005059Y0206931D01*
X0005059Y0205733D02*
X0009013Y0205733D01*
X0009013Y0204534D02*
X0005059Y0204534D01*
X0005059Y0203336D02*
X0009493Y0203336D01*
X0010338Y0202137D02*
X0005059Y0202137D01*
X0005059Y0200939D02*
X0012162Y0200939D01*
X0012858Y0200251D02*
X0011094Y0199520D01*
X0009743Y0198170D01*
X0009013Y0196405D01*
X0009013Y0194496D01*
X0009743Y0192732D01*
X0011094Y0191381D01*
X0012858Y0190651D01*
X0014767Y0190651D01*
X0016532Y0191381D01*
X0017882Y0192732D01*
X0018613Y0194496D01*
X0018613Y0196405D01*
X0017882Y0198170D01*
X0016532Y0199520D01*
X0014767Y0200251D01*
X0012858Y0200251D01*
X0011626Y0199740D02*
X0005059Y0199740D01*
X0005059Y0198542D02*
X0010116Y0198542D01*
X0009401Y0197343D02*
X0005059Y0197343D01*
X0005059Y0196145D02*
X0009013Y0196145D01*
X0009013Y0194946D02*
X0005059Y0194946D01*
X0005059Y0193748D02*
X0009322Y0193748D01*
X0009926Y0192549D02*
X0005059Y0192549D01*
X0005059Y0191351D02*
X0011167Y0191351D01*
X0011094Y0189520D02*
X0009743Y0188170D01*
X0009013Y0186405D01*
X0009013Y0184496D01*
X0009743Y0182732D01*
X0011094Y0181381D01*
X0012858Y0180651D01*
X0014767Y0180651D01*
X0016532Y0181381D01*
X0017882Y0182732D01*
X0018613Y0184496D01*
X0018613Y0186405D01*
X0017882Y0188170D01*
X0016532Y0189520D01*
X0014767Y0190251D01*
X0012858Y0190251D01*
X0011094Y0189520D01*
X0010528Y0188954D02*
X0005059Y0188954D01*
X0005059Y0190152D02*
X0012621Y0190152D01*
X0015005Y0190152D02*
X0022621Y0190152D01*
X0022858Y0190251D02*
X0021094Y0189520D01*
X0019743Y0188170D01*
X0019013Y0186405D01*
X0019013Y0184496D01*
X0019743Y0182732D01*
X0021094Y0181381D01*
X0022858Y0180651D01*
X0024767Y0180651D01*
X0026532Y0181381D01*
X0027882Y0182732D01*
X0028613Y0184496D01*
X0028613Y0186405D01*
X0027882Y0188170D01*
X0026532Y0189520D01*
X0024767Y0190251D01*
X0022858Y0190251D01*
X0022858Y0190651D02*
X0024767Y0190651D01*
X0026532Y0191381D01*
X0027882Y0192732D01*
X0028613Y0194496D01*
X0028613Y0196405D01*
X0027882Y0198170D01*
X0026532Y0199520D01*
X0024767Y0200251D01*
X0022858Y0200251D01*
X0021094Y0199520D01*
X0019743Y0198170D01*
X0019013Y0196405D01*
X0019013Y0194496D01*
X0019743Y0192732D01*
X0021094Y0191381D01*
X0022858Y0190651D01*
X0021167Y0191351D02*
X0016458Y0191351D01*
X0017700Y0192549D02*
X0019926Y0192549D01*
X0019322Y0193748D02*
X0018303Y0193748D01*
X0018613Y0194946D02*
X0019013Y0194946D01*
X0019013Y0196145D02*
X0018613Y0196145D01*
X0018224Y0197343D02*
X0019401Y0197343D01*
X0020116Y0198542D02*
X0017510Y0198542D01*
X0015999Y0199740D02*
X0021626Y0199740D01*
X0022162Y0200939D02*
X0015463Y0200939D01*
X0017288Y0202137D02*
X0020338Y0202137D01*
X0019743Y0202732D02*
X0021094Y0201381D01*
X0022858Y0200651D01*
X0024767Y0200651D01*
X0026532Y0201381D01*
X0027882Y0202732D01*
X0028613Y0204496D01*
X0028613Y0206405D01*
X0027882Y0208170D01*
X0026532Y0209520D01*
X0024767Y0210251D01*
X0022858Y0210251D01*
X0021094Y0209520D01*
X0019743Y0208170D01*
X0019013Y0206405D01*
X0019013Y0204496D01*
X0019743Y0202732D01*
X0019493Y0203336D02*
X0018132Y0203336D01*
X0018613Y0204534D02*
X0019013Y0204534D01*
X0019013Y0205733D02*
X0018613Y0205733D01*
X0018395Y0206931D02*
X0019231Y0206931D01*
X0019727Y0208130D02*
X0017898Y0208130D01*
X0016723Y0209328D02*
X0020902Y0209328D01*
X0021094Y0211381D02*
X0022858Y0210651D01*
X0024767Y0210651D01*
X0026532Y0211381D01*
X0027882Y0212732D01*
X0028613Y0214496D01*
X0028613Y0216405D01*
X0027882Y0218170D01*
X0026532Y0219520D01*
X0024767Y0220251D01*
X0022858Y0220251D01*
X0021094Y0219520D01*
X0019743Y0218170D01*
X0019013Y0216405D01*
X0019013Y0214496D01*
X0019743Y0212732D01*
X0021094Y0211381D01*
X0020749Y0211725D02*
X0016876Y0211725D01*
X0017962Y0212924D02*
X0019664Y0212924D01*
X0019167Y0214123D02*
X0018458Y0214123D01*
X0018613Y0215321D02*
X0019013Y0215321D01*
X0019060Y0216520D02*
X0018565Y0216520D01*
X0018069Y0217718D02*
X0019556Y0217718D01*
X0020490Y0218917D02*
X0017135Y0218917D01*
X0011257Y0221314D02*
X0005059Y0221314D01*
X0005059Y0222512D02*
X0009963Y0222512D01*
X0009338Y0223711D02*
X0005059Y0223711D01*
X0005059Y0224909D02*
X0009013Y0224909D01*
X0009013Y0226108D02*
X0005059Y0226108D01*
X0005059Y0227306D02*
X0009386Y0227306D01*
X0010078Y0228505D02*
X0005059Y0228505D01*
X0005059Y0229703D02*
X0011536Y0229703D01*
X0005059Y0230902D02*
X0068122Y0230902D01*
X0069320Y0232100D02*
X0005059Y0232100D01*
X0005059Y0233299D02*
X0070519Y0233299D01*
X0071717Y0234497D02*
X0005059Y0234497D01*
X0005059Y0235696D02*
X0072916Y0235696D01*
X0074114Y0236894D02*
X0020115Y0236894D01*
X0019402Y0236599D02*
X0022163Y0237742D01*
X0024277Y0239856D01*
X0025420Y0242617D01*
X0025420Y0245606D01*
X0024277Y0248368D01*
X0022163Y0250482D01*
X0019402Y0251625D01*
X0016413Y0251625D01*
X0013651Y0250482D01*
X0011538Y0248368D01*
X0010394Y0245606D01*
X0010394Y0242617D01*
X0011538Y0239856D01*
X0013651Y0237742D01*
X0016413Y0236599D01*
X0019402Y0236599D01*
X0022513Y0238093D02*
X0075313Y0238093D01*
X0076511Y0239291D02*
X0023712Y0239291D01*
X0024539Y0240490D02*
X0077200Y0240490D01*
X0077200Y0241688D02*
X0025036Y0241688D01*
X0025420Y0242887D02*
X0077200Y0242887D01*
X0077200Y0244085D02*
X0064057Y0244085D01*
X0064011Y0244052D02*
X0064597Y0244477D01*
X0065109Y0244989D01*
X0065534Y0245575D01*
X0065863Y0246220D01*
X0066087Y0246909D01*
X0066194Y0247586D01*
X0062000Y0247586D01*
X0062000Y0248386D01*
X0066194Y0248386D01*
X0066087Y0249063D01*
X0065863Y0249752D01*
X0065534Y0250397D01*
X0065109Y0250983D01*
X0064597Y0251495D01*
X0064011Y0251920D01*
X0063366Y0252249D01*
X0062677Y0252473D01*
X0062000Y0252580D01*
X0062000Y0248386D01*
X0061200Y0248386D01*
X0061200Y0247586D01*
X0062000Y0247586D01*
X0062000Y0243392D01*
X0062677Y0243499D01*
X0063366Y0243723D01*
X0064011Y0244052D01*
X0065323Y0245284D02*
X0077200Y0245284D01*
X0077200Y0246482D02*
X0065948Y0246482D01*
X0066116Y0248879D02*
X0077200Y0248879D01*
X0077200Y0247681D02*
X0062000Y0247681D01*
X0061200Y0247681D02*
X0056400Y0247681D01*
X0057006Y0247586D02*
X0057113Y0246909D01*
X0057337Y0246220D01*
X0057666Y0245575D01*
X0058091Y0244989D01*
X0058603Y0244477D01*
X0059189Y0244052D01*
X0059834Y0243723D01*
X0060523Y0243499D01*
X0061200Y0243392D01*
X0061200Y0247586D01*
X0057006Y0247586D01*
X0057006Y0248386D02*
X0061200Y0248386D01*
X0061200Y0252580D01*
X0060523Y0252473D01*
X0059834Y0252249D01*
X0059189Y0251920D01*
X0058603Y0251495D01*
X0058091Y0250983D01*
X0057666Y0250397D01*
X0057337Y0249752D01*
X0057113Y0249063D01*
X0057006Y0248386D01*
X0057084Y0248879D02*
X0056400Y0248879D01*
X0056400Y0248941D02*
X0055669Y0250705D01*
X0054319Y0252055D01*
X0052555Y0252786D01*
X0050645Y0252786D01*
X0048881Y0252055D01*
X0047531Y0250705D01*
X0046800Y0248941D01*
X0046800Y0247031D01*
X0047531Y0245267D01*
X0048881Y0243917D01*
X0050645Y0243186D01*
X0052555Y0243186D01*
X0054319Y0243917D01*
X0055669Y0245267D01*
X0056400Y0247031D01*
X0056400Y0248941D01*
X0055929Y0250078D02*
X0057503Y0250078D01*
X0058385Y0251276D02*
X0055098Y0251276D01*
X0053306Y0252475D02*
X0060536Y0252475D01*
X0061200Y0252475D02*
X0062000Y0252475D01*
X0062664Y0252475D02*
X0077200Y0252475D01*
X0077200Y0253673D02*
X0005059Y0253673D01*
X0005059Y0252475D02*
X0039894Y0252475D01*
X0040645Y0252786D02*
X0038881Y0252055D01*
X0037531Y0250705D01*
X0036800Y0248941D01*
X0036800Y0247031D01*
X0037531Y0245267D01*
X0038881Y0243917D01*
X0040645Y0243186D01*
X0042555Y0243186D01*
X0044319Y0243917D01*
X0045669Y0245267D01*
X0046400Y0247031D01*
X0046400Y0248941D01*
X0045669Y0250705D01*
X0044319Y0252055D01*
X0042555Y0252786D01*
X0040645Y0252786D01*
X0043306Y0252475D02*
X0049894Y0252475D01*
X0048102Y0251276D02*
X0045098Y0251276D01*
X0045929Y0250078D02*
X0047271Y0250078D01*
X0046800Y0248879D02*
X0046400Y0248879D01*
X0046400Y0247681D02*
X0046800Y0247681D01*
X0047027Y0246482D02*
X0046173Y0246482D01*
X0045676Y0245284D02*
X0047524Y0245284D01*
X0048712Y0244085D02*
X0044487Y0244085D01*
X0038712Y0244085D02*
X0025420Y0244085D01*
X0025420Y0245284D02*
X0037524Y0245284D01*
X0037027Y0246482D02*
X0025058Y0246482D01*
X0024561Y0247681D02*
X0036800Y0247681D01*
X0036800Y0248879D02*
X0023765Y0248879D01*
X0022567Y0250078D02*
X0037271Y0250078D01*
X0038102Y0251276D02*
X0020244Y0251276D01*
X0015570Y0251276D02*
X0005059Y0251276D01*
X0005059Y0250078D02*
X0013247Y0250078D01*
X0012049Y0248879D02*
X0005059Y0248879D01*
X0005059Y0247681D02*
X0011253Y0247681D01*
X0010756Y0246482D02*
X0005059Y0246482D01*
X0005059Y0245284D02*
X0010394Y0245284D01*
X0010394Y0244085D02*
X0005059Y0244085D01*
X0005059Y0242887D02*
X0010394Y0242887D01*
X0010779Y0241688D02*
X0005059Y0241688D01*
X0005059Y0240490D02*
X0011275Y0240490D01*
X0012102Y0239291D02*
X0005059Y0239291D01*
X0005059Y0238093D02*
X0013301Y0238093D01*
X0015699Y0236894D02*
X0005059Y0236894D01*
X0023413Y0228505D02*
X0024213Y0228505D01*
X0024213Y0227306D02*
X0023413Y0227306D01*
X0023413Y0226108D02*
X0024213Y0226108D01*
X0024213Y0224909D02*
X0023413Y0224909D01*
X0023413Y0223711D02*
X0024213Y0223711D01*
X0024213Y0222512D02*
X0023413Y0222512D01*
X0023413Y0221314D02*
X0024213Y0221314D01*
X0025094Y0220115D02*
X0208414Y0220115D01*
X0208324Y0220334D02*
X0208822Y0219130D01*
X0209744Y0218208D01*
X0210948Y0217710D01*
X0212252Y0217710D01*
X0213456Y0218208D01*
X0214378Y0219130D01*
X0214876Y0220334D01*
X0214876Y0221638D01*
X0214378Y0222842D01*
X0213456Y0223764D01*
X0212252Y0224262D01*
X0210948Y0224262D01*
X0209744Y0223764D01*
X0208822Y0222842D01*
X0208324Y0221638D01*
X0208324Y0220334D01*
X0208324Y0221314D02*
X0025826Y0221314D01*
X0027364Y0222512D02*
X0208686Y0222512D01*
X0209691Y0223711D02*
X0067378Y0223711D01*
X0068917Y0224909D02*
X0236600Y0224909D01*
X0236600Y0223711D02*
X0213509Y0223711D01*
X0214514Y0222512D02*
X0236600Y0222512D01*
X0236600Y0221314D02*
X0214876Y0221314D01*
X0214786Y0220115D02*
X0236600Y0220115D01*
X0236600Y0218917D02*
X0214164Y0218917D01*
X0212272Y0217718D02*
X0236600Y0217718D01*
X0236600Y0216520D02*
X0110511Y0216520D01*
X0110378Y0216842D02*
X0109456Y0217764D01*
X0108252Y0218262D01*
X0106948Y0218262D01*
X0105744Y0217764D01*
X0104822Y0216842D01*
X0104324Y0215638D01*
X0104324Y0214334D01*
X0104822Y0213130D01*
X0105744Y0212208D01*
X0106948Y0211710D01*
X0108252Y0211710D01*
X0109456Y0212208D01*
X0110378Y0213130D01*
X0110876Y0214334D01*
X0110876Y0215638D01*
X0110378Y0216842D01*
X0109501Y0217718D02*
X0210928Y0217718D01*
X0209036Y0218917D02*
X0027135Y0218917D01*
X0028069Y0217718D02*
X0105699Y0217718D01*
X0104689Y0216520D02*
X0028565Y0216520D01*
X0028613Y0215321D02*
X0104324Y0215321D01*
X0104411Y0214123D02*
X0028458Y0214123D01*
X0027962Y0212924D02*
X0105028Y0212924D01*
X0106910Y0211725D02*
X0026876Y0211725D01*
X0026723Y0209328D02*
X0138403Y0209328D01*
X0138324Y0209138D02*
X0138324Y0207834D01*
X0138822Y0206630D01*
X0139744Y0205708D01*
X0140948Y0205210D01*
X0142252Y0205210D01*
X0143456Y0205708D01*
X0144378Y0206630D01*
X0144876Y0207834D01*
X0144876Y0209138D01*
X0144378Y0210342D01*
X0143456Y0211264D01*
X0142252Y0211762D01*
X0140948Y0211762D01*
X0139744Y0211264D01*
X0138822Y0210342D01*
X0138324Y0209138D01*
X0138324Y0208130D02*
X0027898Y0208130D01*
X0028395Y0206931D02*
X0138698Y0206931D01*
X0139720Y0205733D02*
X0028613Y0205733D01*
X0028613Y0204534D02*
X0236600Y0204534D01*
X0236600Y0203336D02*
X0028132Y0203336D01*
X0027288Y0202137D02*
X0236600Y0202137D01*
X0236600Y0200939D02*
X0025463Y0200939D01*
X0025999Y0199740D02*
X0200721Y0199740D01*
X0200744Y0199764D02*
X0199822Y0198842D01*
X0199324Y0197638D01*
X0199324Y0196334D01*
X0199822Y0195130D01*
X0200744Y0194208D01*
X0201948Y0193710D01*
X0203252Y0193710D01*
X0204456Y0194208D01*
X0205378Y0195130D01*
X0205876Y0196334D01*
X0205876Y0197638D01*
X0205378Y0198842D01*
X0204456Y0199764D01*
X0203252Y0200262D01*
X0201948Y0200262D01*
X0200744Y0199764D01*
X0199698Y0198542D02*
X0122178Y0198542D01*
X0121956Y0198764D02*
X0120752Y0199262D01*
X0119448Y0199262D01*
X0118244Y0198764D01*
X0117322Y0197842D01*
X0116824Y0196638D01*
X0116824Y0195334D01*
X0117322Y0194130D01*
X0118244Y0193208D01*
X0119448Y0192710D01*
X0120752Y0192710D01*
X0121956Y0193208D01*
X0122878Y0194130D01*
X0123376Y0195334D01*
X0123376Y0196638D01*
X0122878Y0197842D01*
X0121956Y0198764D01*
X0123084Y0197343D02*
X0199324Y0197343D01*
X0199402Y0196145D02*
X0123376Y0196145D01*
X0123216Y0194946D02*
X0200006Y0194946D01*
X0201856Y0193748D02*
X0122495Y0193748D01*
X0117705Y0193748D02*
X0028303Y0193748D01*
X0028613Y0194946D02*
X0116984Y0194946D01*
X0116824Y0196145D02*
X0028613Y0196145D01*
X0028224Y0197343D02*
X0117116Y0197343D01*
X0118022Y0198542D02*
X0027510Y0198542D01*
X0027700Y0192549D02*
X0200530Y0192549D01*
X0200744Y0192764D02*
X0199822Y0191842D01*
X0199324Y0190638D01*
X0199324Y0189334D01*
X0199822Y0188130D01*
X0200744Y0187208D01*
X0201948Y0186710D01*
X0203252Y0186710D01*
X0204456Y0187208D01*
X0205378Y0188130D01*
X0205876Y0189334D01*
X0205876Y0190638D01*
X0205378Y0191842D01*
X0204456Y0192764D01*
X0203252Y0193262D01*
X0201948Y0193262D01*
X0200744Y0192764D01*
X0199619Y0191351D02*
X0026458Y0191351D01*
X0025005Y0190152D02*
X0199324Y0190152D01*
X0199481Y0188954D02*
X0027098Y0188954D01*
X0028053Y0187755D02*
X0200197Y0187755D01*
X0200744Y0185764D02*
X0199822Y0184842D01*
X0199324Y0183638D01*
X0199324Y0182334D01*
X0199822Y0181130D01*
X0200744Y0180208D01*
X0201948Y0179710D01*
X0203252Y0179710D01*
X0204456Y0180208D01*
X0205378Y0181130D01*
X0205876Y0182334D01*
X0205876Y0183638D01*
X0205378Y0184842D01*
X0204456Y0185764D01*
X0203252Y0186262D01*
X0201948Y0186262D01*
X0200744Y0185764D01*
X0200339Y0185358D02*
X0028613Y0185358D01*
X0028550Y0186557D02*
X0215646Y0186557D01*
X0215822Y0186130D02*
X0216744Y0185208D01*
X0217948Y0184710D01*
X0219252Y0184710D01*
X0220456Y0185208D01*
X0221378Y0186130D01*
X0221876Y0187334D01*
X0221876Y0188638D01*
X0221378Y0189842D01*
X0220456Y0190764D01*
X0219252Y0191262D01*
X0217948Y0191262D01*
X0216744Y0190764D01*
X0215822Y0189842D01*
X0215324Y0188638D01*
X0215324Y0187334D01*
X0215822Y0186130D01*
X0216594Y0185358D02*
X0204861Y0185358D01*
X0205660Y0184160D02*
X0236600Y0184160D01*
X0236600Y0185358D02*
X0220606Y0185358D01*
X0221554Y0186557D02*
X0236600Y0186557D01*
X0236600Y0187755D02*
X0221876Y0187755D01*
X0221745Y0188954D02*
X0236600Y0188954D01*
X0236600Y0190152D02*
X0221067Y0190152D01*
X0216133Y0190152D02*
X0205876Y0190152D01*
X0205719Y0188954D02*
X0215455Y0188954D01*
X0215324Y0187755D02*
X0205003Y0187755D01*
X0205581Y0191351D02*
X0236600Y0191351D01*
X0236600Y0192549D02*
X0204670Y0192549D01*
X0203344Y0193748D02*
X0236600Y0193748D01*
X0236600Y0194946D02*
X0205194Y0194946D01*
X0205798Y0196145D02*
X0236600Y0196145D01*
X0236600Y0197343D02*
X0205876Y0197343D01*
X0205502Y0198542D02*
X0236600Y0198542D01*
X0236600Y0199740D02*
X0204479Y0199740D01*
X0199540Y0184160D02*
X0108060Y0184160D01*
X0108378Y0183842D02*
X0107456Y0184764D01*
X0106252Y0185262D01*
X0104948Y0185262D01*
X0103744Y0184764D01*
X0102822Y0183842D01*
X0102324Y0182638D01*
X0102324Y0181334D01*
X0102822Y0180130D01*
X0103744Y0179208D01*
X0104948Y0178710D01*
X0106252Y0178710D01*
X0107456Y0179208D01*
X0108378Y0180130D01*
X0108876Y0181334D01*
X0108876Y0182638D01*
X0108378Y0183842D01*
X0108742Y0182961D02*
X0199324Y0182961D01*
X0199560Y0181763D02*
X0108876Y0181763D01*
X0108557Y0180564D02*
X0200388Y0180564D01*
X0200744Y0178764D02*
X0199822Y0177842D01*
X0199324Y0176638D01*
X0199324Y0175334D01*
X0199822Y0174130D01*
X0200744Y0173208D01*
X0201948Y0172710D01*
X0203252Y0172710D01*
X0204456Y0173208D01*
X0205378Y0174130D01*
X0205876Y0175334D01*
X0205876Y0176638D01*
X0205378Y0177842D01*
X0204456Y0178764D01*
X0203252Y0179262D01*
X0201948Y0179262D01*
X0200744Y0178764D01*
X0200148Y0178167D02*
X0122482Y0178167D01*
X0122252Y0178262D02*
X0120948Y0178262D01*
X0119744Y0177764D01*
X0118822Y0176842D01*
X0118324Y0175638D01*
X0118324Y0174334D01*
X0118822Y0173130D01*
X0119744Y0172208D01*
X0120948Y0171710D01*
X0122252Y0171710D01*
X0123456Y0172208D01*
X0124378Y0173130D01*
X0124876Y0174334D01*
X0124876Y0175638D01*
X0124378Y0176842D01*
X0123456Y0177764D01*
X0122252Y0178262D01*
X0120718Y0178167D02*
X0027883Y0178167D01*
X0027882Y0178170D02*
X0026532Y0179520D01*
X0024767Y0180251D01*
X0022858Y0180251D01*
X0021094Y0179520D01*
X0019743Y0178170D01*
X0019013Y0176405D01*
X0019013Y0174496D01*
X0019743Y0172732D01*
X0021094Y0171381D01*
X0022858Y0170651D01*
X0024767Y0170651D01*
X0026532Y0171381D01*
X0027882Y0172732D01*
X0028613Y0174496D01*
X0028613Y0176405D01*
X0027882Y0178170D01*
X0028379Y0176969D02*
X0118949Y0176969D01*
X0118378Y0175770D02*
X0028613Y0175770D01*
X0028613Y0174572D02*
X0118324Y0174572D01*
X0118722Y0173373D02*
X0028148Y0173373D01*
X0027325Y0172175D02*
X0119826Y0172175D01*
X0123374Y0172175D02*
X0236600Y0172175D01*
X0236600Y0173373D02*
X0204621Y0173373D01*
X0205560Y0174572D02*
X0236600Y0174572D01*
X0236600Y0175770D02*
X0205876Y0175770D01*
X0205739Y0176969D02*
X0236600Y0176969D01*
X0236600Y0178167D02*
X0205052Y0178167D01*
X0204812Y0180564D02*
X0236600Y0180564D01*
X0236600Y0179366D02*
X0107613Y0179366D01*
X0103587Y0179366D02*
X0026686Y0179366D01*
X0026913Y0181763D02*
X0102324Y0181763D01*
X0102458Y0182961D02*
X0027977Y0182961D01*
X0028473Y0184160D02*
X0103140Y0184160D01*
X0102643Y0180564D02*
X0005059Y0180564D01*
X0005059Y0179366D02*
X0011375Y0179366D01*
X0011402Y0179385D02*
X0010816Y0178959D01*
X0010304Y0178447D01*
X0009878Y0177861D01*
X0009550Y0177216D01*
X0009326Y0176528D01*
X0009219Y0175851D01*
X0013413Y0175851D01*
X0013413Y0180045D01*
X0012735Y0179937D01*
X0012047Y0179714D01*
X0011402Y0179385D01*
X0010100Y0178167D02*
X0005059Y0178167D01*
X0005059Y0176969D02*
X0009469Y0176969D01*
X0009219Y0175051D02*
X0009326Y0174373D01*
X0009550Y0173685D01*
X0009878Y0173040D01*
X0010304Y0172454D01*
X0010816Y0171942D01*
X0011402Y0171516D01*
X0012047Y0171188D01*
X0012735Y0170964D01*
X0013413Y0170857D01*
X0013413Y0175050D01*
X0014213Y0175050D01*
X0014213Y0170857D01*
X0014890Y0170964D01*
X0015578Y0171188D01*
X0016224Y0171516D01*
X0016809Y0171942D01*
X0017321Y0172454D01*
X0017747Y0173040D01*
X0018076Y0173685D01*
X0018299Y0174373D01*
X0018407Y0175051D01*
X0014213Y0175051D01*
X0014213Y0175851D01*
X0018407Y0175851D01*
X0018299Y0176528D01*
X0018076Y0177216D01*
X0017747Y0177861D01*
X0017321Y0178447D01*
X0016809Y0178959D01*
X0016224Y0179385D01*
X0015578Y0179714D01*
X0014890Y0179937D01*
X0014213Y0180045D01*
X0014213Y0175851D01*
X0013413Y0175851D01*
X0013413Y0175051D01*
X0009219Y0175051D01*
X0009294Y0174572D02*
X0005059Y0174572D01*
X0005059Y0175770D02*
X0013413Y0175770D01*
X0014213Y0175770D02*
X0019013Y0175770D01*
X0019013Y0174572D02*
X0018331Y0174572D01*
X0017917Y0173373D02*
X0019478Y0173373D01*
X0020300Y0172175D02*
X0017042Y0172175D01*
X0014928Y0170976D02*
X0022072Y0170976D01*
X0022858Y0170251D02*
X0021094Y0169520D01*
X0019743Y0168170D01*
X0019013Y0166405D01*
X0019013Y0164496D01*
X0019743Y0162732D01*
X0021094Y0161381D01*
X0022858Y0160651D01*
X0024767Y0160651D01*
X0026532Y0161381D01*
X0027882Y0162732D01*
X0028613Y0164496D01*
X0028613Y0166405D01*
X0027882Y0168170D01*
X0026532Y0169520D01*
X0024767Y0170251D01*
X0022858Y0170251D01*
X0021716Y0169778D02*
X0015909Y0169778D01*
X0016532Y0169520D02*
X0014767Y0170251D01*
X0012858Y0170251D01*
X0011094Y0169520D01*
X0009743Y0168170D01*
X0009013Y0166405D01*
X0009013Y0164496D01*
X0009743Y0162732D01*
X0011094Y0161381D01*
X0012858Y0160651D01*
X0014767Y0160651D01*
X0016532Y0161381D01*
X0017882Y0162732D01*
X0018613Y0164496D01*
X0018613Y0166405D01*
X0017882Y0168170D01*
X0016532Y0169520D01*
X0017472Y0168579D02*
X0020153Y0168579D01*
X0019417Y0167381D02*
X0018209Y0167381D01*
X0018613Y0166182D02*
X0019013Y0166182D01*
X0019013Y0164984D02*
X0018613Y0164984D01*
X0018318Y0163785D02*
X0019307Y0163785D01*
X0019888Y0162587D02*
X0017737Y0162587D01*
X0016538Y0161388D02*
X0021087Y0161388D01*
X0022047Y0159714D02*
X0021402Y0159385D01*
X0020816Y0158959D01*
X0020304Y0158447D01*
X0019878Y0157861D01*
X0019550Y0157216D01*
X0019326Y0156528D01*
X0019219Y0155851D01*
X0023413Y0155851D01*
X0023413Y0160045D01*
X0022735Y0159937D01*
X0022047Y0159714D01*
X0020860Y0158991D02*
X0017060Y0158991D01*
X0016532Y0159520D02*
X0014767Y0160251D01*
X0012858Y0160251D01*
X0011094Y0159520D01*
X0009743Y0158170D01*
X0009013Y0156405D01*
X0009013Y0154496D01*
X0009743Y0152732D01*
X0011094Y0151381D01*
X0012858Y0150651D01*
X0014767Y0150651D01*
X0016532Y0151381D01*
X0017882Y0152732D01*
X0018613Y0154496D01*
X0018613Y0156405D01*
X0017882Y0158170D01*
X0016532Y0159520D01*
X0014915Y0160190D02*
X0033170Y0160190D01*
X0032822Y0159842D02*
X0032324Y0158638D01*
X0032324Y0157334D01*
X0032822Y0156130D01*
X0033744Y0155208D01*
X0034948Y0154710D01*
X0036252Y0154710D01*
X0037456Y0155208D01*
X0038378Y0156130D01*
X0038876Y0157334D01*
X0038876Y0158638D01*
X0038378Y0159842D01*
X0037456Y0160764D01*
X0036252Y0161262D01*
X0034948Y0161262D01*
X0033744Y0160764D01*
X0032822Y0159842D01*
X0032470Y0158991D02*
X0026766Y0158991D01*
X0026809Y0158959D02*
X0026224Y0159385D01*
X0025578Y0159714D01*
X0024890Y0159937D01*
X0024213Y0160045D01*
X0024213Y0155851D01*
X0028407Y0155851D01*
X0028299Y0156528D01*
X0028076Y0157216D01*
X0027747Y0157861D01*
X0027321Y0158447D01*
X0026809Y0158959D01*
X0027782Y0157792D02*
X0032324Y0157792D01*
X0032630Y0156594D02*
X0028278Y0156594D01*
X0028407Y0155051D02*
X0024213Y0155051D01*
X0024213Y0155851D01*
X0023413Y0155851D01*
X0023413Y0155051D01*
X0023413Y0155050D02*
X0024213Y0155050D01*
X0024213Y0150857D01*
X0024890Y0150964D01*
X0025578Y0151188D01*
X0026224Y0151516D01*
X0026809Y0151942D01*
X0027321Y0152454D01*
X0027747Y0153040D01*
X0028076Y0153685D01*
X0028299Y0154373D01*
X0028407Y0155051D01*
X0028242Y0154197D02*
X0208380Y0154197D01*
X0208324Y0154334D02*
X0208822Y0153130D01*
X0209744Y0152208D01*
X0210948Y0151710D01*
X0212252Y0151710D01*
X0213456Y0152208D01*
X0214378Y0153130D01*
X0214876Y0154334D01*
X0214876Y0155638D01*
X0214378Y0156842D01*
X0213456Y0157764D01*
X0212252Y0158262D01*
X0210948Y0158262D01*
X0209744Y0157764D01*
X0208822Y0156842D01*
X0208324Y0155638D01*
X0208324Y0154334D01*
X0208324Y0155395D02*
X0037643Y0155395D01*
X0038570Y0156594D02*
X0208720Y0156594D01*
X0209814Y0157792D02*
X0038876Y0157792D01*
X0038730Y0158991D02*
X0103769Y0158991D01*
X0103244Y0159208D02*
X0104448Y0158710D01*
X0105752Y0158710D01*
X0106956Y0159208D01*
X0107878Y0160130D01*
X0108376Y0161334D01*
X0108376Y0162638D01*
X0107878Y0163842D01*
X0106956Y0164764D01*
X0105752Y0165262D01*
X0104448Y0165262D01*
X0103244Y0164764D01*
X0102322Y0163842D01*
X0101824Y0162638D01*
X0101824Y0161334D01*
X0102322Y0160130D01*
X0103244Y0159208D01*
X0102298Y0160190D02*
X0038030Y0160190D01*
X0033557Y0155395D02*
X0024213Y0155395D01*
X0023413Y0155395D02*
X0018613Y0155395D01*
X0019219Y0155051D02*
X0019326Y0154373D01*
X0019550Y0153685D01*
X0019878Y0153040D01*
X0020304Y0152454D01*
X0020816Y0151942D01*
X0021402Y0151516D01*
X0022047Y0151188D01*
X0022735Y0150964D01*
X0023413Y0150857D01*
X0023413Y0155050D01*
X0023413Y0155051D02*
X0019219Y0155051D01*
X0019383Y0154197D02*
X0018489Y0154197D01*
X0017992Y0152998D02*
X0019908Y0152998D01*
X0021011Y0151800D02*
X0016950Y0151800D01*
X0016532Y0149520D02*
X0014767Y0150251D01*
X0012858Y0150251D01*
X0011094Y0149520D01*
X0009743Y0148170D01*
X0009013Y0146405D01*
X0009013Y0144496D01*
X0009743Y0142732D01*
X0011094Y0141381D01*
X0012858Y0140651D01*
X0014767Y0140651D01*
X0016532Y0141381D01*
X0017882Y0142732D01*
X0018613Y0144496D01*
X0018613Y0146405D01*
X0017882Y0148170D01*
X0016532Y0149520D01*
X0016648Y0149403D02*
X0020977Y0149403D01*
X0021094Y0149520D02*
X0019743Y0148170D01*
X0019013Y0146405D01*
X0019013Y0144496D01*
X0019743Y0142732D01*
X0021094Y0141381D01*
X0022858Y0140651D01*
X0024767Y0140651D01*
X0026532Y0141381D01*
X0027882Y0142732D01*
X0028613Y0144496D01*
X0028613Y0146405D01*
X0027882Y0148170D01*
X0026532Y0149520D01*
X0024767Y0150251D01*
X0022858Y0150251D01*
X0021094Y0149520D01*
X0019778Y0148204D02*
X0017847Y0148204D01*
X0018364Y0147006D02*
X0019261Y0147006D01*
X0019013Y0145807D02*
X0018613Y0145807D01*
X0018613Y0144609D02*
X0019013Y0144609D01*
X0019462Y0143410D02*
X0018163Y0143410D01*
X0017362Y0142212D02*
X0020263Y0142212D01*
X0021982Y0141013D02*
X0015643Y0141013D01*
X0014767Y0140251D02*
X0012858Y0140251D01*
X0011094Y0139520D01*
X0009743Y0138170D01*
X0009013Y0136405D01*
X0009013Y0134496D01*
X0009743Y0132732D01*
X0011094Y0131381D01*
X0012858Y0130651D01*
X0014767Y0130651D01*
X0016532Y0131381D01*
X0017882Y0132732D01*
X0018613Y0134496D01*
X0018613Y0136405D01*
X0017882Y0138170D01*
X0016532Y0139520D01*
X0014767Y0140251D01*
X0015819Y0139815D02*
X0021806Y0139815D01*
X0021094Y0139520D02*
X0019743Y0138170D01*
X0019013Y0136405D01*
X0019013Y0134496D01*
X0019743Y0132732D01*
X0021094Y0131381D01*
X0022858Y0130651D01*
X0024767Y0130651D01*
X0026532Y0131381D01*
X0027882Y0132732D01*
X0028613Y0134496D01*
X0028613Y0136405D01*
X0027882Y0138170D01*
X0026532Y0139520D01*
X0024767Y0140251D01*
X0022858Y0140251D01*
X0021094Y0139520D01*
X0020190Y0138616D02*
X0017435Y0138616D01*
X0018193Y0137418D02*
X0019432Y0137418D01*
X0019013Y0136219D02*
X0018613Y0136219D01*
X0018613Y0135021D02*
X0019013Y0135021D01*
X0019292Y0133822D02*
X0018334Y0133822D01*
X0017774Y0132624D02*
X0019851Y0132624D01*
X0021050Y0131425D02*
X0016575Y0131425D01*
X0015578Y0129714D02*
X0014890Y0129937D01*
X0014213Y0130045D01*
X0014213Y0125851D01*
X0018407Y0125851D01*
X0018299Y0126528D01*
X0018076Y0127216D01*
X0017747Y0127861D01*
X0017321Y0128447D01*
X0016809Y0128959D01*
X0016224Y0129385D01*
X0015578Y0129714D01*
X0016714Y0129028D02*
X0020602Y0129028D01*
X0021094Y0129520D02*
X0019743Y0128170D01*
X0019013Y0126405D01*
X0019013Y0124496D01*
X0019743Y0122732D01*
X0021094Y0121381D01*
X0022858Y0120651D01*
X0024767Y0120651D01*
X0026532Y0121381D01*
X0027882Y0122732D01*
X0028613Y0124496D01*
X0028613Y0126405D01*
X0027882Y0128170D01*
X0026532Y0129520D01*
X0024767Y0130251D01*
X0022858Y0130251D01*
X0021094Y0129520D01*
X0022800Y0130227D02*
X0005059Y0130227D01*
X0005059Y0131425D02*
X0011050Y0131425D01*
X0009851Y0132624D02*
X0005059Y0132624D01*
X0005059Y0133822D02*
X0009292Y0133822D01*
X0009013Y0135021D02*
X0005059Y0135021D01*
X0005059Y0136219D02*
X0009013Y0136219D01*
X0009432Y0137418D02*
X0005059Y0137418D01*
X0005059Y0138616D02*
X0010190Y0138616D01*
X0011806Y0139815D02*
X0005059Y0139815D01*
X0005059Y0141013D02*
X0011982Y0141013D01*
X0010263Y0142212D02*
X0005059Y0142212D01*
X0005059Y0143410D02*
X0009462Y0143410D01*
X0009013Y0144609D02*
X0005059Y0144609D01*
X0005059Y0145807D02*
X0009013Y0145807D01*
X0009261Y0147006D02*
X0005059Y0147006D01*
X0005059Y0148204D02*
X0009778Y0148204D01*
X0010977Y0149403D02*
X0005059Y0149403D01*
X0005059Y0150601D02*
X0236600Y0150601D01*
X0236600Y0149403D02*
X0026648Y0149403D01*
X0027847Y0148204D02*
X0082308Y0148204D01*
X0082448Y0148262D02*
X0081244Y0147764D01*
X0080322Y0146842D01*
X0079824Y0145638D01*
X0079824Y0144334D01*
X0080322Y0143130D01*
X0081244Y0142208D01*
X0082448Y0141710D01*
X0083752Y0141710D01*
X0084956Y0142208D01*
X0085878Y0143130D01*
X0086376Y0144334D01*
X0086376Y0145638D01*
X0085878Y0146842D01*
X0084956Y0147764D01*
X0083752Y0148262D01*
X0082448Y0148262D01*
X0083892Y0148204D02*
X0127685Y0148204D01*
X0127322Y0147842D02*
X0126824Y0146638D01*
X0126824Y0145334D01*
X0127322Y0144130D01*
X0128244Y0143208D01*
X0129448Y0142710D01*
X0130752Y0142710D01*
X0131956Y0143208D01*
X0132878Y0144130D01*
X0133376Y0145334D01*
X0133376Y0146638D01*
X0132878Y0147842D01*
X0131956Y0148764D01*
X0130752Y0149262D01*
X0129448Y0149262D01*
X0128244Y0148764D01*
X0127322Y0147842D01*
X0126976Y0147006D02*
X0085714Y0147006D01*
X0086306Y0145807D02*
X0126824Y0145807D01*
X0127124Y0144609D02*
X0086376Y0144609D01*
X0085994Y0143410D02*
X0128042Y0143410D01*
X0132158Y0143410D02*
X0146437Y0143410D01*
X0146324Y0143138D02*
X0146324Y0141834D01*
X0146822Y0140630D01*
X0147744Y0139708D01*
X0148948Y0139210D01*
X0150252Y0139210D01*
X0151456Y0139708D01*
X0152378Y0140630D01*
X0152876Y0141834D01*
X0152876Y0143138D01*
X0152378Y0144342D01*
X0151456Y0145264D01*
X0150252Y0145762D01*
X0148948Y0145762D01*
X0147744Y0145264D01*
X0146822Y0144342D01*
X0146324Y0143138D01*
X0146324Y0142212D02*
X0084959Y0142212D01*
X0081241Y0142212D02*
X0027362Y0142212D01*
X0028163Y0143410D02*
X0080206Y0143410D01*
X0079824Y0144609D02*
X0028613Y0144609D01*
X0028613Y0145807D02*
X0079894Y0145807D01*
X0080486Y0147006D02*
X0028364Y0147006D01*
X0026614Y0151800D02*
X0210730Y0151800D01*
X0212470Y0151800D02*
X0236600Y0151800D01*
X0236600Y0152998D02*
X0214246Y0152998D01*
X0214819Y0154197D02*
X0236600Y0154197D01*
X0236600Y0155395D02*
X0214876Y0155395D01*
X0214480Y0156594D02*
X0236600Y0156594D01*
X0236600Y0157792D02*
X0213386Y0157792D01*
X0208954Y0152998D02*
X0027717Y0152998D01*
X0024213Y0152998D02*
X0023413Y0152998D01*
X0023413Y0151800D02*
X0024213Y0151800D01*
X0024213Y0154197D02*
X0023413Y0154197D01*
X0023413Y0156594D02*
X0024213Y0156594D01*
X0024213Y0157792D02*
X0023413Y0157792D01*
X0023413Y0158991D02*
X0024213Y0158991D01*
X0026538Y0161388D02*
X0101824Y0161388D01*
X0101824Y0162587D02*
X0027737Y0162587D01*
X0028318Y0163785D02*
X0102299Y0163785D01*
X0103775Y0164984D02*
X0028613Y0164984D01*
X0028613Y0166182D02*
X0118342Y0166182D01*
X0118324Y0166138D02*
X0118324Y0164834D01*
X0118822Y0163630D01*
X0119744Y0162708D01*
X0120948Y0162210D01*
X0122252Y0162210D01*
X0123456Y0162708D01*
X0124378Y0163630D01*
X0124876Y0164834D01*
X0124876Y0166138D01*
X0124378Y0167342D01*
X0123456Y0168264D01*
X0122252Y0168762D01*
X0120948Y0168762D01*
X0119744Y0168264D01*
X0118822Y0167342D01*
X0118324Y0166138D01*
X0118324Y0164984D02*
X0106425Y0164984D01*
X0107901Y0163785D02*
X0118758Y0163785D01*
X0120038Y0162587D02*
X0108376Y0162587D01*
X0108376Y0161388D02*
X0125324Y0161388D01*
X0125324Y0160834D02*
X0125822Y0159630D01*
X0126744Y0158708D01*
X0127948Y0158210D01*
X0129252Y0158210D01*
X0130456Y0158708D01*
X0131378Y0159630D01*
X0131876Y0160834D01*
X0131876Y0162138D01*
X0131378Y0163342D01*
X0130456Y0164264D01*
X0129252Y0164762D01*
X0127948Y0164762D01*
X0126744Y0164264D01*
X0125822Y0163342D01*
X0125324Y0162138D01*
X0125324Y0160834D01*
X0125591Y0160190D02*
X0107902Y0160190D01*
X0106431Y0158991D02*
X0126462Y0158991D01*
X0125510Y0162587D02*
X0123162Y0162587D01*
X0124442Y0163785D02*
X0126266Y0163785D01*
X0124876Y0164984D02*
X0236600Y0164984D01*
X0236600Y0166182D02*
X0124858Y0166182D01*
X0124339Y0167381D02*
X0236600Y0167381D01*
X0236600Y0168579D02*
X0122694Y0168579D01*
X0120506Y0168579D02*
X0027472Y0168579D01*
X0028209Y0167381D02*
X0118861Y0167381D01*
X0124478Y0173373D02*
X0200579Y0173373D01*
X0199640Y0174572D02*
X0124876Y0174572D01*
X0124822Y0175770D02*
X0199324Y0175770D01*
X0199461Y0176969D02*
X0124251Y0176969D01*
X0130934Y0163785D02*
X0236600Y0163785D01*
X0236600Y0162587D02*
X0131690Y0162587D01*
X0131876Y0161388D02*
X0236600Y0161388D01*
X0236600Y0160190D02*
X0131609Y0160190D01*
X0130738Y0158991D02*
X0236600Y0158991D01*
X0236600Y0148204D02*
X0132515Y0148204D01*
X0133224Y0147006D02*
X0236600Y0147006D01*
X0236600Y0145807D02*
X0133376Y0145807D01*
X0133076Y0144609D02*
X0147089Y0144609D01*
X0146664Y0141013D02*
X0025643Y0141013D01*
X0025819Y0139815D02*
X0147638Y0139815D01*
X0147752Y0139262D02*
X0146448Y0139262D01*
X0145244Y0138764D01*
X0144322Y0137842D01*
X0143824Y0136638D01*
X0143824Y0135334D01*
X0144322Y0134130D01*
X0145244Y0133208D01*
X0146448Y0132710D01*
X0147752Y0132710D01*
X0148956Y0133208D01*
X0149878Y0134130D01*
X0150376Y0135334D01*
X0150376Y0136638D01*
X0149878Y0137842D01*
X0148956Y0138764D01*
X0147752Y0139262D01*
X0149103Y0138616D02*
X0178324Y0138616D01*
X0178324Y0138334D02*
X0178822Y0137130D01*
X0179744Y0136208D01*
X0180948Y0135710D01*
X0182252Y0135710D01*
X0183456Y0136208D01*
X0184378Y0137130D01*
X0184876Y0138334D01*
X0184876Y0139638D01*
X0184378Y0140842D01*
X0183456Y0141764D01*
X0182252Y0142262D01*
X0180948Y0142262D01*
X0179744Y0141764D01*
X0178822Y0140842D01*
X0178324Y0139638D01*
X0178324Y0138334D01*
X0178703Y0137418D02*
X0150053Y0137418D01*
X0150376Y0136219D02*
X0179733Y0136219D01*
X0183467Y0136219D02*
X0236600Y0136219D01*
X0236600Y0135021D02*
X0150246Y0135021D01*
X0149570Y0133822D02*
X0236600Y0133822D01*
X0236600Y0132624D02*
X0027774Y0132624D01*
X0028334Y0133822D02*
X0144630Y0133822D01*
X0143953Y0135021D02*
X0028613Y0135021D01*
X0028613Y0136219D02*
X0143824Y0136219D01*
X0144147Y0137418D02*
X0028193Y0137418D01*
X0027435Y0138616D02*
X0145097Y0138616D01*
X0151562Y0139815D02*
X0178397Y0139815D01*
X0178994Y0141013D02*
X0152536Y0141013D01*
X0152876Y0142212D02*
X0180826Y0142212D01*
X0182374Y0142212D02*
X0190324Y0142212D01*
X0190324Y0142638D02*
X0190324Y0141334D01*
X0190822Y0140130D01*
X0191744Y0139208D01*
X0192948Y0138710D01*
X0194252Y0138710D01*
X0195456Y0139208D01*
X0196378Y0140130D01*
X0196876Y0141334D01*
X0196876Y0142638D01*
X0196378Y0143842D01*
X0195456Y0144764D01*
X0194252Y0145262D01*
X0192948Y0145262D01*
X0191744Y0144764D01*
X0190822Y0143842D01*
X0190324Y0142638D01*
X0190644Y0143410D02*
X0152763Y0143410D01*
X0152111Y0144609D02*
X0191589Y0144609D01*
X0190457Y0141013D02*
X0184206Y0141013D01*
X0184803Y0139815D02*
X0191138Y0139815D01*
X0196062Y0139815D02*
X0236600Y0139815D01*
X0236600Y0141013D02*
X0196743Y0141013D01*
X0196876Y0142212D02*
X0236600Y0142212D01*
X0236600Y0143410D02*
X0196556Y0143410D01*
X0195611Y0144609D02*
X0236600Y0144609D01*
X0236600Y0138616D02*
X0184876Y0138616D01*
X0184497Y0137418D02*
X0236600Y0137418D01*
X0236600Y0131425D02*
X0220794Y0131425D01*
X0220456Y0131764D02*
X0219252Y0132262D01*
X0217948Y0132262D01*
X0216744Y0131764D01*
X0215822Y0130842D01*
X0215324Y0129638D01*
X0215324Y0128334D01*
X0215822Y0127130D01*
X0216744Y0126208D01*
X0217948Y0125710D01*
X0219252Y0125710D01*
X0220456Y0126208D01*
X0221378Y0127130D01*
X0221876Y0128334D01*
X0221876Y0129638D01*
X0221378Y0130842D01*
X0220456Y0131764D01*
X0221632Y0130227D02*
X0236600Y0130227D01*
X0236600Y0129028D02*
X0221876Y0129028D01*
X0221667Y0127830D02*
X0236600Y0127830D01*
X0236600Y0126631D02*
X0220879Y0126631D01*
X0216321Y0126631D02*
X0028519Y0126631D01*
X0028613Y0125433D02*
X0236600Y0125433D01*
X0236600Y0124234D02*
X0028504Y0124234D01*
X0028008Y0123036D02*
X0236600Y0123036D01*
X0236600Y0121837D02*
X0026987Y0121837D01*
X0026532Y0119520D02*
X0024767Y0120251D01*
X0022858Y0120251D01*
X0021094Y0119520D01*
X0019743Y0118170D01*
X0019013Y0116405D01*
X0019013Y0114496D01*
X0019743Y0112732D01*
X0021094Y0111381D01*
X0022858Y0110651D01*
X0024767Y0110651D01*
X0026532Y0111381D01*
X0027882Y0112732D01*
X0028613Y0114496D01*
X0028613Y0116405D01*
X0027882Y0118170D01*
X0026532Y0119520D01*
X0026611Y0119440D02*
X0236600Y0119440D01*
X0236600Y0118242D02*
X0027810Y0118242D01*
X0028348Y0117043D02*
X0236600Y0117043D01*
X0236600Y0115845D02*
X0137260Y0115845D01*
X0138459Y0114646D02*
X0236600Y0114646D01*
X0236600Y0113448D02*
X0191012Y0113448D01*
X0191456Y0113264D02*
X0190252Y0113762D01*
X0188948Y0113762D01*
X0187744Y0113264D01*
X0187350Y0112870D01*
X0186956Y0113264D01*
X0185752Y0113762D01*
X0184448Y0113762D01*
X0183244Y0113264D01*
X0182850Y0112870D01*
X0182456Y0113264D01*
X0181252Y0113762D01*
X0179948Y0113762D01*
X0178744Y0113264D01*
X0178350Y0112870D01*
X0177956Y0113264D01*
X0176752Y0113762D01*
X0175448Y0113762D01*
X0174244Y0113264D01*
X0173322Y0112342D01*
X0172824Y0111138D01*
X0172824Y0109834D01*
X0173322Y0108630D01*
X0174244Y0107708D01*
X0175448Y0107210D01*
X0176752Y0107210D01*
X0177956Y0107708D01*
X0178350Y0108103D01*
X0178744Y0107708D01*
X0179948Y0107210D01*
X0181252Y0107210D01*
X0182456Y0107708D01*
X0182850Y0108103D01*
X0183244Y0107708D01*
X0184448Y0107210D01*
X0185752Y0107210D01*
X0186956Y0107708D01*
X0187350Y0108103D01*
X0187744Y0107708D01*
X0188948Y0107210D01*
X0190252Y0107210D01*
X0191456Y0107708D01*
X0192378Y0108630D01*
X0192876Y0109834D01*
X0192876Y0111138D01*
X0192378Y0112342D01*
X0191456Y0113264D01*
X0192416Y0112249D02*
X0236600Y0112249D01*
X0236600Y0111051D02*
X0192876Y0111051D01*
X0192876Y0109852D02*
X0236600Y0109852D01*
X0236600Y0108654D02*
X0192387Y0108654D01*
X0190844Y0107455D02*
X0236600Y0107455D01*
X0236600Y0106256D02*
X0158279Y0106256D01*
X0159477Y0105058D02*
X0236600Y0105058D01*
X0236600Y0103859D02*
X0160676Y0103859D01*
X0161874Y0102661D02*
X0236600Y0102661D01*
X0236600Y0101462D02*
X0163073Y0101462D01*
X0164271Y0100264D02*
X0236600Y0100264D01*
X0236600Y0099065D02*
X0212727Y0099065D01*
X0212252Y0099262D02*
X0210948Y0099262D01*
X0209744Y0098764D01*
X0208822Y0097842D01*
X0208324Y0096638D01*
X0208324Y0095334D01*
X0208822Y0094130D01*
X0209744Y0093208D01*
X0210948Y0092710D01*
X0212252Y0092710D01*
X0213456Y0093208D01*
X0214378Y0094130D01*
X0214876Y0095334D01*
X0214876Y0096638D01*
X0214378Y0097842D01*
X0213456Y0098764D01*
X0212252Y0099262D01*
X0210473Y0099065D02*
X0165470Y0099065D01*
X0166668Y0097867D02*
X0208847Y0097867D01*
X0208336Y0096668D02*
X0167867Y0096668D01*
X0169065Y0095470D02*
X0208324Y0095470D01*
X0208764Y0094271D02*
X0170264Y0094271D01*
X0171462Y0093073D02*
X0210071Y0093073D01*
X0213129Y0093073D02*
X0236600Y0093073D01*
X0236600Y0094271D02*
X0214436Y0094271D01*
X0214876Y0095470D02*
X0236600Y0095470D01*
X0236600Y0096668D02*
X0214864Y0096668D01*
X0214353Y0097867D02*
X0236600Y0097867D01*
X0236600Y0091874D02*
X0172661Y0091874D01*
X0173859Y0090676D02*
X0236600Y0090676D01*
X0236600Y0089477D02*
X0175058Y0089477D01*
X0176257Y0088279D02*
X0176320Y0088279D01*
X0174061Y0087080D02*
X0172562Y0087080D01*
X0172862Y0088279D02*
X0170880Y0088279D01*
X0171664Y0089477D02*
X0050171Y0089477D01*
X0050400Y0090031D02*
X0049669Y0088267D01*
X0048319Y0086917D01*
X0046555Y0086186D01*
X0044645Y0086186D01*
X0042881Y0086917D01*
X0041531Y0088267D01*
X0040800Y0090031D01*
X0040800Y0091941D01*
X0041531Y0093705D01*
X0042881Y0095055D01*
X0044645Y0095786D01*
X0046555Y0095786D01*
X0048319Y0095055D01*
X0049669Y0093705D01*
X0050400Y0091941D01*
X0050400Y0090031D01*
X0050400Y0090676D02*
X0170465Y0090676D01*
X0169267Y0091874D02*
X0050400Y0091874D01*
X0049931Y0093073D02*
X0168068Y0093073D01*
X0166870Y0094271D02*
X0049103Y0094271D01*
X0047318Y0095470D02*
X0165671Y0095470D01*
X0164473Y0096668D02*
X0047719Y0096668D01*
X0048319Y0096917D02*
X0046555Y0096186D01*
X0044645Y0096186D01*
X0042881Y0096917D01*
X0041531Y0098267D01*
X0040800Y0100031D01*
X0040800Y0101941D01*
X0041531Y0103705D01*
X0042881Y0105055D01*
X0044645Y0105786D01*
X0046555Y0105786D01*
X0048319Y0105055D01*
X0049669Y0103705D01*
X0050400Y0101941D01*
X0050400Y0100031D01*
X0049669Y0098267D01*
X0048319Y0096917D01*
X0049269Y0097867D02*
X0163274Y0097867D01*
X0162076Y0099065D02*
X0050000Y0099065D01*
X0050400Y0100264D02*
X0059689Y0100264D01*
X0059322Y0100630D02*
X0060244Y0099708D01*
X0061448Y0099210D01*
X0062752Y0099210D01*
X0063956Y0099708D01*
X0064878Y0100630D01*
X0065376Y0101834D01*
X0065376Y0103138D01*
X0064878Y0104342D01*
X0063956Y0105264D01*
X0062752Y0105762D01*
X0061448Y0105762D01*
X0060244Y0105264D01*
X0059322Y0104342D01*
X0058824Y0103138D01*
X0058824Y0101834D01*
X0059322Y0100630D01*
X0058978Y0101462D02*
X0050400Y0101462D01*
X0050102Y0102661D02*
X0058824Y0102661D01*
X0059123Y0103859D02*
X0049515Y0103859D01*
X0048312Y0105058D02*
X0060038Y0105058D01*
X0064162Y0105058D02*
X0080538Y0105058D01*
X0079623Y0103859D02*
X0065077Y0103859D01*
X0065376Y0102661D02*
X0079324Y0102661D01*
X0079478Y0101462D02*
X0065222Y0101462D01*
X0064511Y0100264D02*
X0080189Y0100264D01*
X0085011Y0100264D02*
X0160877Y0100264D01*
X0159679Y0101462D02*
X0086862Y0101462D01*
X0088390Y0102661D02*
X0158480Y0102661D01*
X0157282Y0103859D02*
X0091107Y0103859D01*
X0092055Y0105058D02*
X0156083Y0105058D01*
X0157080Y0107455D02*
X0174856Y0107455D01*
X0173313Y0108654D02*
X0098387Y0108654D01*
X0098876Y0109852D02*
X0099105Y0109852D01*
X0101095Y0109852D02*
X0104104Y0109852D01*
X0106095Y0109852D02*
X0109104Y0109852D01*
X0111095Y0109852D02*
X0114104Y0109852D01*
X0116095Y0109852D02*
X0119104Y0109852D01*
X0121095Y0109852D02*
X0124104Y0109852D01*
X0126095Y0109852D02*
X0128604Y0109852D01*
X0130595Y0109852D02*
X0134604Y0109852D01*
X0136595Y0109852D02*
X0172824Y0109852D01*
X0172824Y0111051D02*
X0138298Y0111051D01*
X0138841Y0112249D02*
X0173284Y0112249D01*
X0174688Y0113448D02*
X0138876Y0113448D01*
X0133940Y0115845D02*
X0131260Y0115845D01*
X0132459Y0114646D02*
X0132741Y0114646D01*
X0132902Y0111051D02*
X0132298Y0111051D01*
X0127940Y0115845D02*
X0126760Y0115845D01*
X0123440Y0115845D02*
X0121760Y0115845D01*
X0118440Y0115845D02*
X0116760Y0115845D01*
X0113440Y0115845D02*
X0111760Y0115845D01*
X0108440Y0115845D02*
X0106760Y0115845D01*
X0103440Y0115845D02*
X0101760Y0115845D01*
X0098440Y0115845D02*
X0028613Y0115845D01*
X0028613Y0114646D02*
X0097241Y0114646D01*
X0094188Y0113448D02*
X0028178Y0113448D01*
X0027399Y0112249D02*
X0092784Y0112249D01*
X0090031Y0111051D02*
X0025733Y0111051D01*
X0025730Y0109852D02*
X0089120Y0109852D01*
X0086634Y0108654D02*
X0027398Y0108654D01*
X0028613Y0105058D02*
X0042888Y0105058D01*
X0041685Y0103859D02*
X0028349Y0103859D01*
X0027811Y0102661D02*
X0041098Y0102661D01*
X0040800Y0101462D02*
X0026613Y0101462D01*
X0026532Y0099520D02*
X0024767Y0100251D01*
X0022858Y0100251D01*
X0021094Y0099520D01*
X0019743Y0098170D01*
X0019013Y0096405D01*
X0019013Y0094496D01*
X0019743Y0092732D01*
X0021094Y0091381D01*
X0022858Y0090651D01*
X0024767Y0090651D01*
X0026532Y0091381D01*
X0027882Y0092732D01*
X0028613Y0094496D01*
X0028613Y0096405D01*
X0027882Y0098170D01*
X0026532Y0099520D01*
X0026986Y0099065D02*
X0041200Y0099065D01*
X0040800Y0100264D02*
X0005059Y0100264D01*
X0005059Y0101462D02*
X0011012Y0101462D01*
X0009814Y0102661D02*
X0005059Y0102661D01*
X0005059Y0103859D02*
X0009276Y0103859D01*
X0009013Y0105058D02*
X0005059Y0105058D01*
X0005059Y0108654D02*
X0010227Y0108654D01*
X0011896Y0109852D02*
X0005059Y0109852D01*
X0005059Y0111051D02*
X0011892Y0111051D01*
X0011094Y0111381D02*
X0012858Y0110651D01*
X0014767Y0110651D01*
X0016532Y0111381D01*
X0017882Y0112732D01*
X0018613Y0114496D01*
X0018613Y0116405D01*
X0017882Y0118170D01*
X0016532Y0119520D01*
X0014767Y0120251D01*
X0012858Y0120251D01*
X0011094Y0119520D01*
X0009743Y0118170D01*
X0009013Y0116405D01*
X0009013Y0114496D01*
X0009743Y0112732D01*
X0011094Y0111381D01*
X0010226Y0112249D02*
X0005059Y0112249D01*
X0005059Y0113448D02*
X0009447Y0113448D01*
X0009013Y0114646D02*
X0005059Y0114646D01*
X0005059Y0115845D02*
X0009013Y0115845D01*
X0009277Y0117043D02*
X0005059Y0117043D01*
X0005059Y0118242D02*
X0009815Y0118242D01*
X0011014Y0119440D02*
X0005059Y0119440D01*
X0005059Y0120639D02*
X0236600Y0120639D01*
X0216406Y0131425D02*
X0026575Y0131425D01*
X0024825Y0130227D02*
X0215568Y0130227D01*
X0215324Y0129028D02*
X0027023Y0129028D01*
X0028023Y0127830D02*
X0215533Y0127830D01*
X0188188Y0113448D02*
X0186512Y0113448D01*
X0183688Y0113448D02*
X0182012Y0113448D01*
X0179188Y0113448D02*
X0177512Y0113448D01*
X0177344Y0107455D02*
X0179356Y0107455D01*
X0181844Y0107455D02*
X0183856Y0107455D01*
X0186344Y0107455D02*
X0188356Y0107455D01*
X0180723Y0088279D02*
X0236600Y0088279D01*
X0236600Y0087080D02*
X0182405Y0087080D01*
X0183280Y0085882D02*
X0236600Y0085882D01*
X0236600Y0084683D02*
X0183776Y0084683D01*
X0183865Y0083485D02*
X0236600Y0083485D01*
X0236600Y0082286D02*
X0183840Y0082286D01*
X0183448Y0081088D02*
X0236600Y0081088D01*
X0236600Y0079889D02*
X0184646Y0079889D01*
X0185845Y0078691D02*
X0236600Y0078691D01*
X0236600Y0077492D02*
X0187043Y0077492D01*
X0188242Y0076294D02*
X0236600Y0076294D01*
X0236600Y0075095D02*
X0189440Y0075095D01*
X0190639Y0073897D02*
X0236600Y0073897D01*
X0236600Y0072698D02*
X0191837Y0072698D01*
X0193036Y0071500D02*
X0236600Y0071500D01*
X0236600Y0070301D02*
X0194234Y0070301D01*
X0195433Y0069103D02*
X0236600Y0069103D01*
X0236600Y0067904D02*
X0196631Y0067904D01*
X0197830Y0066706D02*
X0236600Y0066706D01*
X0236600Y0065507D02*
X0199028Y0065507D01*
X0200227Y0064309D02*
X0236600Y0064309D01*
X0236600Y0063110D02*
X0201425Y0063110D01*
X0202624Y0061912D02*
X0236600Y0061912D01*
X0236600Y0060713D02*
X0203822Y0060713D01*
X0205021Y0059515D02*
X0236600Y0059515D01*
X0236600Y0058316D02*
X0206219Y0058316D01*
X0207418Y0057118D02*
X0236600Y0057118D01*
X0236600Y0055919D02*
X0208616Y0055919D01*
X0209815Y0054721D02*
X0236600Y0054721D01*
X0236600Y0053522D02*
X0220698Y0053522D01*
X0220456Y0053764D02*
X0219252Y0054262D01*
X0217948Y0054262D01*
X0216744Y0053764D01*
X0215822Y0052842D01*
X0215324Y0051638D01*
X0215324Y0050334D01*
X0215822Y0049130D01*
X0216744Y0048208D01*
X0217948Y0047710D01*
X0219252Y0047710D01*
X0220456Y0048208D01*
X0221378Y0049130D01*
X0221876Y0050334D01*
X0221876Y0051638D01*
X0221378Y0052842D01*
X0220456Y0053764D01*
X0221592Y0052323D02*
X0236600Y0052323D01*
X0236600Y0051125D02*
X0221876Y0051125D01*
X0221707Y0049926D02*
X0236600Y0049926D01*
X0236600Y0048728D02*
X0220975Y0048728D01*
X0218204Y0046331D02*
X0236600Y0046331D01*
X0236600Y0047529D02*
X0217006Y0047529D01*
X0216225Y0048728D02*
X0215807Y0048728D01*
X0215493Y0049926D02*
X0214609Y0049926D01*
X0215324Y0051125D02*
X0213410Y0051125D01*
X0212212Y0052323D02*
X0215608Y0052323D01*
X0216502Y0053522D02*
X0211013Y0053522D01*
X0208818Y0052323D02*
X0175071Y0052323D01*
X0174956Y0052208D02*
X0175878Y0053130D01*
X0176376Y0054334D01*
X0176376Y0055638D01*
X0175878Y0056842D01*
X0174956Y0057764D01*
X0173752Y0058262D01*
X0172448Y0058262D01*
X0171244Y0057764D01*
X0170322Y0056842D01*
X0169824Y0055638D01*
X0169824Y0054334D01*
X0170322Y0053130D01*
X0171244Y0052208D01*
X0172448Y0051710D01*
X0173752Y0051710D01*
X0174956Y0052208D01*
X0176040Y0053522D02*
X0207619Y0053522D01*
X0206421Y0054721D02*
X0176376Y0054721D01*
X0176260Y0055919D02*
X0205222Y0055919D01*
X0204024Y0057118D02*
X0175602Y0057118D01*
X0170598Y0057118D02*
X0028318Y0057118D01*
X0028613Y0056405D02*
X0027882Y0058170D01*
X0026532Y0059520D01*
X0024767Y0060251D01*
X0022858Y0060251D01*
X0021094Y0059520D01*
X0019743Y0058170D01*
X0019013Y0056405D01*
X0019013Y0054496D01*
X0019743Y0052732D01*
X0021094Y0051381D01*
X0022858Y0050651D01*
X0024767Y0050651D01*
X0026532Y0051381D01*
X0027882Y0052732D01*
X0028613Y0054496D01*
X0028613Y0056405D01*
X0028613Y0055919D02*
X0169940Y0055919D01*
X0169824Y0054721D02*
X0028613Y0054721D01*
X0028209Y0053522D02*
X0170160Y0053522D01*
X0171129Y0052323D02*
X0027474Y0052323D01*
X0025913Y0051125D02*
X0210016Y0051125D01*
X0211215Y0049926D02*
X0025550Y0049926D01*
X0024767Y0050251D02*
X0026532Y0049520D01*
X0027882Y0048170D01*
X0028613Y0046405D01*
X0028613Y0044496D01*
X0027882Y0042732D01*
X0026532Y0041381D01*
X0024767Y0040651D01*
X0022858Y0040651D01*
X0021094Y0041381D01*
X0019743Y0042732D01*
X0019013Y0044496D01*
X0019013Y0046405D01*
X0019743Y0048170D01*
X0021094Y0049520D01*
X0022858Y0050251D01*
X0024767Y0050251D01*
X0022075Y0049926D02*
X0014923Y0049926D01*
X0014890Y0049937D02*
X0014213Y0050045D01*
X0014213Y0045851D01*
X0018407Y0045851D01*
X0018299Y0046528D01*
X0018076Y0047216D01*
X0017747Y0047861D01*
X0017321Y0048447D01*
X0016809Y0048959D01*
X0016224Y0049385D01*
X0015578Y0049714D01*
X0014890Y0049937D01*
X0014213Y0049926D02*
X0013413Y0049926D01*
X0013413Y0050045D02*
X0012735Y0049937D01*
X0012047Y0049714D01*
X0011402Y0049385D01*
X0010816Y0048959D01*
X0010304Y0048447D01*
X0009878Y0047861D01*
X0009550Y0047216D01*
X0009326Y0046528D01*
X0009219Y0045851D01*
X0013413Y0045851D01*
X0013413Y0050045D01*
X0012702Y0049926D02*
X0005059Y0049926D01*
X0005059Y0048728D02*
X0010585Y0048728D01*
X0009709Y0047529D02*
X0005059Y0047529D01*
X0005059Y0046331D02*
X0009295Y0046331D01*
X0009219Y0045051D02*
X0009326Y0044373D01*
X0009550Y0043685D01*
X0009878Y0043040D01*
X0010304Y0042454D01*
X0010816Y0041942D01*
X0011402Y0041516D01*
X0012047Y0041188D01*
X0012735Y0040964D01*
X0013413Y0040857D01*
X0013413Y0045050D01*
X0014213Y0045050D01*
X0014213Y0040857D01*
X0014890Y0040964D01*
X0015578Y0041188D01*
X0016224Y0041516D01*
X0016809Y0041942D01*
X0017321Y0042454D01*
X0017747Y0043040D01*
X0018076Y0043685D01*
X0018299Y0044373D01*
X0018407Y0045051D01*
X0014213Y0045051D01*
X0014213Y0045851D01*
X0013413Y0045851D01*
X0013413Y0045051D01*
X0009219Y0045051D01*
X0009469Y0043934D02*
X0005059Y0043934D01*
X0005059Y0045132D02*
X0013413Y0045132D01*
X0014213Y0045132D02*
X0019013Y0045132D01*
X0019013Y0046331D02*
X0018330Y0046331D01*
X0017916Y0047529D02*
X0019478Y0047529D01*
X0020302Y0048728D02*
X0017041Y0048728D01*
X0015913Y0051125D02*
X0021713Y0051125D01*
X0020151Y0052323D02*
X0017474Y0052323D01*
X0017882Y0052732D02*
X0018613Y0054496D01*
X0018613Y0056405D01*
X0017882Y0058170D01*
X0016532Y0059520D01*
X0014767Y0060251D01*
X0012858Y0060251D01*
X0011094Y0059520D01*
X0009743Y0058170D01*
X0009013Y0056405D01*
X0009013Y0054496D01*
X0009743Y0052732D01*
X0011094Y0051381D01*
X0012858Y0050651D01*
X0014767Y0050651D01*
X0016532Y0051381D01*
X0017882Y0052732D01*
X0018209Y0053522D02*
X0019416Y0053522D01*
X0019013Y0054721D02*
X0018613Y0054721D01*
X0018613Y0055919D02*
X0019013Y0055919D01*
X0019308Y0057118D02*
X0018318Y0057118D01*
X0017735Y0058316D02*
X0019890Y0058316D01*
X0021088Y0059515D02*
X0016537Y0059515D01*
X0016532Y0061381D02*
X0017882Y0062732D01*
X0018613Y0064496D01*
X0018613Y0066405D01*
X0017882Y0068170D01*
X0016532Y0069520D01*
X0014767Y0070251D01*
X0012858Y0070251D01*
X0011094Y0069520D01*
X0009743Y0068170D01*
X0009013Y0066405D01*
X0009013Y0064496D01*
X0009743Y0062732D01*
X0011094Y0061381D01*
X0012858Y0060651D01*
X0014767Y0060651D01*
X0016532Y0061381D01*
X0017062Y0061912D02*
X0020563Y0061912D01*
X0021094Y0061381D02*
X0022858Y0060651D01*
X0024767Y0060651D01*
X0026532Y0061381D01*
X0027882Y0062732D01*
X0028613Y0064496D01*
X0028613Y0066405D01*
X0027882Y0068170D01*
X0026532Y0069520D01*
X0024767Y0070251D01*
X0022858Y0070251D01*
X0021094Y0069520D01*
X0019743Y0068170D01*
X0019013Y0066405D01*
X0019013Y0064496D01*
X0019743Y0062732D01*
X0021094Y0061381D01*
X0022707Y0060713D02*
X0014918Y0060713D01*
X0012707Y0060713D02*
X0005059Y0060713D01*
X0005059Y0059515D02*
X0011088Y0059515D01*
X0009890Y0058316D02*
X0005059Y0058316D01*
X0005059Y0057118D02*
X0009308Y0057118D01*
X0009013Y0055919D02*
X0005059Y0055919D01*
X0005059Y0054721D02*
X0009013Y0054721D01*
X0009416Y0053522D02*
X0005059Y0053522D01*
X0005059Y0052323D02*
X0010151Y0052323D01*
X0011713Y0051125D02*
X0005059Y0051125D01*
X0013413Y0048728D02*
X0014213Y0048728D01*
X0014213Y0047529D02*
X0013413Y0047529D01*
X0013413Y0046331D02*
X0014213Y0046331D01*
X0014213Y0043934D02*
X0013413Y0043934D01*
X0013413Y0042735D02*
X0014213Y0042735D01*
X0014213Y0041537D02*
X0013413Y0041537D01*
X0013413Y0040045D02*
X0012735Y0039937D01*
X0012047Y0039714D01*
X0011402Y0039385D01*
X0010816Y0038959D01*
X0010304Y0038447D01*
X0009878Y0037861D01*
X0009550Y0037216D01*
X0009326Y0036528D01*
X0009219Y0035851D01*
X0013413Y0035851D01*
X0013413Y0040045D01*
X0014213Y0040045D02*
X0014890Y0039937D01*
X0015578Y0039714D01*
X0016224Y0039385D01*
X0016809Y0038959D01*
X0017321Y0038447D01*
X0017747Y0037861D01*
X0018076Y0037216D01*
X0018299Y0036528D01*
X0018407Y0035851D01*
X0014213Y0035851D01*
X0014213Y0035051D01*
X0018407Y0035051D01*
X0018299Y0034373D01*
X0018076Y0033685D01*
X0017747Y0033040D01*
X0017321Y0032454D01*
X0016809Y0031942D01*
X0016224Y0031516D01*
X0015578Y0031188D01*
X0014890Y0030964D01*
X0014213Y0030857D01*
X0014213Y0035050D01*
X0013413Y0035050D01*
X0013413Y0030857D01*
X0012735Y0030964D01*
X0012047Y0031188D01*
X0011402Y0031516D01*
X0010816Y0031942D01*
X0010304Y0032454D01*
X0009878Y0033040D01*
X0009550Y0033685D01*
X0009326Y0034373D01*
X0009219Y0035051D01*
X0013413Y0035051D01*
X0013413Y0035851D01*
X0014213Y0035851D01*
X0014213Y0040045D01*
X0014213Y0039140D02*
X0013413Y0039140D01*
X0013413Y0037941D02*
X0014213Y0037941D01*
X0014213Y0036743D02*
X0013413Y0036743D01*
X0013413Y0035544D02*
X0005059Y0035544D01*
X0005059Y0034346D02*
X0009335Y0034346D01*
X0009823Y0033147D02*
X0005059Y0033147D01*
X0005059Y0031949D02*
X0010809Y0031949D01*
X0013413Y0031949D02*
X0014213Y0031949D01*
X0014213Y0033147D02*
X0013413Y0033147D01*
X0013413Y0034346D02*
X0014213Y0034346D01*
X0014213Y0035544D02*
X0019013Y0035544D01*
X0019075Y0034346D02*
X0018290Y0034346D01*
X0017802Y0033147D02*
X0019571Y0033147D01*
X0020526Y0031949D02*
X0016816Y0031949D01*
X0018229Y0036743D02*
X0019152Y0036743D01*
X0019649Y0037941D02*
X0017689Y0037941D01*
X0016561Y0039140D02*
X0020714Y0039140D01*
X0020938Y0041537D02*
X0016252Y0041537D01*
X0017526Y0042735D02*
X0019742Y0042735D01*
X0019245Y0043934D02*
X0018157Y0043934D01*
X0011373Y0041537D02*
X0005059Y0041537D01*
X0005059Y0042735D02*
X0010099Y0042735D01*
X0011064Y0039140D02*
X0005059Y0039140D01*
X0005059Y0040338D02*
X0220803Y0040338D01*
X0222001Y0039140D02*
X0026912Y0039140D01*
X0027976Y0037941D02*
X0223200Y0037941D01*
X0224398Y0036743D02*
X0028473Y0036743D01*
X0026687Y0041537D02*
X0219604Y0041537D01*
X0218406Y0042735D02*
X0027883Y0042735D01*
X0028380Y0043934D02*
X0217207Y0043934D01*
X0216009Y0045132D02*
X0028613Y0045132D01*
X0028613Y0046331D02*
X0214810Y0046331D01*
X0213612Y0047529D02*
X0028147Y0047529D01*
X0027323Y0048728D02*
X0212413Y0048728D01*
X0219403Y0045132D02*
X0236600Y0045132D01*
X0236600Y0043934D02*
X0220601Y0043934D01*
X0221800Y0042735D02*
X0236600Y0042735D01*
X0236600Y0041537D02*
X0222998Y0041537D01*
X0224197Y0040338D02*
X0236600Y0040338D01*
X0236600Y0039140D02*
X0225395Y0039140D01*
X0226594Y0037941D02*
X0236600Y0037941D01*
X0236600Y0036743D02*
X0227793Y0036743D01*
X0228991Y0035544D02*
X0236600Y0035544D01*
X0236600Y0034346D02*
X0230190Y0034346D01*
X0231388Y0033147D02*
X0236600Y0033147D01*
X0236600Y0031949D02*
X0232587Y0031949D01*
X0233785Y0030750D02*
X0236600Y0030750D01*
X0236600Y0029552D02*
X0234984Y0029552D01*
X0236182Y0028353D02*
X0236600Y0028353D01*
X0207109Y0022361D02*
X0121874Y0022361D01*
X0121227Y0021162D02*
X0205592Y0021162D01*
X0204427Y0019964D02*
X0122521Y0019964D01*
X0123236Y0018765D02*
X0203931Y0018765D01*
X0203434Y0017567D02*
X0123707Y0017567D01*
X0123707Y0016368D02*
X0203307Y0016368D01*
X0203307Y0015170D02*
X0123569Y0015170D01*
X0123073Y0013971D02*
X0203431Y0013971D01*
X0203928Y0012773D02*
X0122128Y0012773D01*
X0120278Y0011574D02*
X0204424Y0011574D01*
X0205585Y0010376D02*
X0023143Y0010376D01*
X0021635Y0009177D02*
X0207093Y0009177D01*
X0202825Y0058316D02*
X0027735Y0058316D01*
X0026537Y0059515D02*
X0201627Y0059515D01*
X0200428Y0060713D02*
X0024918Y0060713D01*
X0027062Y0061912D02*
X0199230Y0061912D01*
X0198031Y0063110D02*
X0028039Y0063110D01*
X0028535Y0064309D02*
X0045144Y0064309D01*
X0045244Y0064208D02*
X0046448Y0063710D01*
X0047752Y0063710D01*
X0048956Y0064208D01*
X0049350Y0064603D01*
X0049744Y0064208D01*
X0050948Y0063710D01*
X0052252Y0063710D01*
X0053456Y0064208D01*
X0054378Y0065130D01*
X0054876Y0066334D01*
X0054876Y0067638D01*
X0054378Y0068842D01*
X0053456Y0069764D01*
X0052252Y0070262D01*
X0050948Y0070262D01*
X0049744Y0069764D01*
X0049350Y0069370D01*
X0048956Y0069764D01*
X0047752Y0070262D01*
X0046448Y0070262D01*
X0045244Y0069764D01*
X0044322Y0068842D01*
X0043824Y0067638D01*
X0043824Y0066334D01*
X0044322Y0065130D01*
X0045244Y0064208D01*
X0044166Y0065507D02*
X0028613Y0065507D01*
X0028488Y0066706D02*
X0043824Y0066706D01*
X0043934Y0067904D02*
X0027992Y0067904D01*
X0026949Y0069103D02*
X0044583Y0069103D01*
X0049056Y0064309D02*
X0049644Y0064309D01*
X0053556Y0064309D02*
X0057644Y0064309D01*
X0057322Y0064630D02*
X0058244Y0063708D01*
X0059448Y0063210D01*
X0060752Y0063210D01*
X0061956Y0063708D01*
X0062878Y0064630D01*
X0063376Y0065834D01*
X0063376Y0067138D01*
X0062878Y0068342D01*
X0062733Y0068486D01*
X0062878Y0068630D01*
X0063376Y0069834D01*
X0063376Y0071138D01*
X0062878Y0072342D01*
X0061956Y0073264D01*
X0060752Y0073762D01*
X0059448Y0073762D01*
X0058244Y0073264D01*
X0057322Y0072342D01*
X0056824Y0071138D01*
X0056824Y0069834D01*
X0057322Y0068630D01*
X0057466Y0068486D01*
X0057322Y0068342D01*
X0056824Y0067138D01*
X0056824Y0065834D01*
X0057322Y0064630D01*
X0056959Y0065507D02*
X0054534Y0065507D01*
X0054876Y0066706D02*
X0056824Y0066706D01*
X0057141Y0067904D02*
X0054766Y0067904D01*
X0054117Y0069103D02*
X0057127Y0069103D01*
X0056824Y0070301D02*
X0005059Y0070301D01*
X0005059Y0069103D02*
X0010676Y0069103D01*
X0009633Y0067904D02*
X0005059Y0067904D01*
X0005059Y0066706D02*
X0009137Y0066706D01*
X0009013Y0065507D02*
X0005059Y0065507D01*
X0005059Y0064309D02*
X0009090Y0064309D01*
X0009587Y0063110D02*
X0005059Y0063110D01*
X0005059Y0061912D02*
X0010563Y0061912D01*
X0018039Y0063110D02*
X0019587Y0063110D01*
X0019090Y0064309D02*
X0018535Y0064309D01*
X0018613Y0065507D02*
X0019013Y0065507D01*
X0019137Y0066706D02*
X0018488Y0066706D01*
X0017992Y0067904D02*
X0019633Y0067904D01*
X0020676Y0069103D02*
X0016949Y0069103D01*
X0016532Y0071381D02*
X0017882Y0072732D01*
X0018613Y0074496D01*
X0018613Y0076405D01*
X0017882Y0078170D01*
X0016532Y0079520D01*
X0014767Y0080251D01*
X0012858Y0080251D01*
X0011094Y0079520D01*
X0009743Y0078170D01*
X0009013Y0076405D01*
X0009013Y0074496D01*
X0009743Y0072732D01*
X0011094Y0071381D01*
X0012858Y0070651D01*
X0014767Y0070651D01*
X0016532Y0071381D01*
X0016650Y0071500D02*
X0020975Y0071500D01*
X0021094Y0071381D02*
X0022858Y0070651D01*
X0024767Y0070651D01*
X0026532Y0071381D01*
X0027882Y0072732D01*
X0028613Y0074496D01*
X0028613Y0076405D01*
X0027882Y0078170D01*
X0026532Y0079520D01*
X0024767Y0080251D01*
X0022858Y0080251D01*
X0021094Y0079520D01*
X0019743Y0078170D01*
X0019013Y0076405D01*
X0019013Y0074496D01*
X0019743Y0072732D01*
X0021094Y0071381D01*
X0019777Y0072698D02*
X0017848Y0072698D01*
X0018364Y0073897D02*
X0019261Y0073897D01*
X0019013Y0075095D02*
X0018613Y0075095D01*
X0018613Y0076294D02*
X0019013Y0076294D01*
X0019463Y0077492D02*
X0018162Y0077492D01*
X0017361Y0078691D02*
X0020265Y0078691D01*
X0021986Y0079889D02*
X0015640Y0079889D01*
X0014767Y0080651D02*
X0012858Y0080651D01*
X0011094Y0081381D01*
X0009743Y0082732D01*
X0009013Y0084496D01*
X0009013Y0086405D01*
X0009743Y0088170D01*
X0011094Y0089520D01*
X0012858Y0090251D01*
X0014767Y0090251D01*
X0016532Y0089520D01*
X0017882Y0088170D01*
X0018613Y0086405D01*
X0018613Y0084496D01*
X0017882Y0082732D01*
X0016532Y0081381D01*
X0014767Y0080651D01*
X0015823Y0081088D02*
X0021802Y0081088D01*
X0021094Y0081381D02*
X0022858Y0080651D01*
X0024767Y0080651D01*
X0026532Y0081381D01*
X0027882Y0082732D01*
X0028613Y0084496D01*
X0028613Y0086405D01*
X0027882Y0088170D01*
X0026532Y0089520D01*
X0024767Y0090251D01*
X0022858Y0090251D01*
X0021094Y0089520D01*
X0019743Y0088170D01*
X0019013Y0086405D01*
X0019013Y0084496D01*
X0019743Y0082732D01*
X0021094Y0081381D01*
X0020189Y0082286D02*
X0017437Y0082286D01*
X0018194Y0083485D02*
X0019431Y0083485D01*
X0019013Y0084683D02*
X0018613Y0084683D01*
X0018613Y0085882D02*
X0019013Y0085882D01*
X0019292Y0087080D02*
X0018333Y0087080D01*
X0017773Y0088279D02*
X0019853Y0088279D01*
X0021051Y0089477D02*
X0016574Y0089477D01*
X0016532Y0091381D02*
X0017882Y0092732D01*
X0018613Y0094496D01*
X0018613Y0096405D01*
X0017882Y0098170D01*
X0016532Y0099520D01*
X0014767Y0100251D01*
X0012858Y0100251D01*
X0011094Y0099520D01*
X0009743Y0098170D01*
X0009013Y0096405D01*
X0009013Y0094496D01*
X0009743Y0092732D01*
X0011094Y0091381D01*
X0012858Y0090651D01*
X0014767Y0090651D01*
X0016532Y0091381D01*
X0017025Y0091874D02*
X0020601Y0091874D01*
X0019602Y0093073D02*
X0018023Y0093073D01*
X0018520Y0094271D02*
X0019106Y0094271D01*
X0019013Y0095470D02*
X0018613Y0095470D01*
X0018504Y0096668D02*
X0019122Y0096668D01*
X0019618Y0097867D02*
X0018007Y0097867D01*
X0016986Y0099065D02*
X0020639Y0099065D01*
X0021013Y0101462D02*
X0016613Y0101462D01*
X0017811Y0102661D02*
X0019814Y0102661D01*
X0019276Y0103859D02*
X0018349Y0103859D01*
X0018613Y0105058D02*
X0019013Y0105058D01*
X0020227Y0108654D02*
X0017398Y0108654D01*
X0015730Y0109852D02*
X0021896Y0109852D01*
X0021892Y0111051D02*
X0015733Y0111051D01*
X0017399Y0112249D02*
X0020226Y0112249D01*
X0019447Y0113448D02*
X0018178Y0113448D01*
X0018613Y0114646D02*
X0019013Y0114646D01*
X0019013Y0115845D02*
X0018613Y0115845D01*
X0018348Y0117043D02*
X0019277Y0117043D01*
X0019815Y0118242D02*
X0017810Y0118242D01*
X0016611Y0119440D02*
X0021014Y0119440D01*
X0020638Y0121837D02*
X0016665Y0121837D01*
X0016809Y0121942D02*
X0017321Y0122454D01*
X0017747Y0123040D01*
X0018076Y0123685D01*
X0018299Y0124373D01*
X0018407Y0125051D01*
X0014213Y0125051D01*
X0014213Y0125851D01*
X0013413Y0125851D01*
X0013413Y0130045D01*
X0012735Y0129937D01*
X0012047Y0129714D01*
X0011402Y0129385D01*
X0010816Y0128959D01*
X0010304Y0128447D01*
X0009878Y0127861D01*
X0009550Y0127216D01*
X0009326Y0126528D01*
X0009219Y0125851D01*
X0013413Y0125851D01*
X0013413Y0125051D01*
X0013413Y0125050D02*
X0014213Y0125050D01*
X0014213Y0120857D01*
X0014890Y0120964D01*
X0015578Y0121188D01*
X0016224Y0121516D01*
X0016809Y0121942D01*
X0017744Y0123036D02*
X0019617Y0123036D01*
X0019121Y0124234D02*
X0018254Y0124234D01*
X0019013Y0125433D02*
X0014213Y0125433D01*
X0013413Y0125433D02*
X0005059Y0125433D01*
X0005059Y0126631D02*
X0009359Y0126631D01*
X0009862Y0127830D02*
X0005059Y0127830D01*
X0005059Y0129028D02*
X0010911Y0129028D01*
X0013413Y0129028D02*
X0014213Y0129028D01*
X0014213Y0127830D02*
X0013413Y0127830D01*
X0013413Y0126631D02*
X0014213Y0126631D01*
X0013413Y0125051D02*
X0009219Y0125051D01*
X0009326Y0124373D01*
X0009550Y0123685D01*
X0009878Y0123040D01*
X0010304Y0122454D01*
X0010816Y0121942D01*
X0011402Y0121516D01*
X0012047Y0121188D01*
X0012735Y0120964D01*
X0013413Y0120857D01*
X0013413Y0125050D01*
X0013413Y0124234D02*
X0014213Y0124234D01*
X0014213Y0123036D02*
X0013413Y0123036D01*
X0013413Y0121837D02*
X0014213Y0121837D01*
X0010960Y0121837D02*
X0005059Y0121837D01*
X0005059Y0123036D02*
X0009881Y0123036D01*
X0009371Y0124234D02*
X0005059Y0124234D01*
X0017763Y0127830D02*
X0019603Y0127830D01*
X0019106Y0126631D02*
X0018266Y0126631D01*
X0010675Y0151800D02*
X0005059Y0151800D01*
X0005059Y0152998D02*
X0009633Y0152998D01*
X0009136Y0154197D02*
X0005059Y0154197D01*
X0005059Y0155395D02*
X0009013Y0155395D01*
X0009091Y0156594D02*
X0005059Y0156594D01*
X0005059Y0157792D02*
X0009587Y0157792D01*
X0010565Y0158991D02*
X0005059Y0158991D01*
X0005059Y0160190D02*
X0012710Y0160190D01*
X0011087Y0161388D02*
X0005059Y0161388D01*
X0005059Y0162587D02*
X0009888Y0162587D01*
X0009307Y0163785D02*
X0005059Y0163785D01*
X0005059Y0164984D02*
X0009013Y0164984D01*
X0009013Y0166182D02*
X0005059Y0166182D01*
X0005059Y0167381D02*
X0009417Y0167381D01*
X0010153Y0168579D02*
X0005059Y0168579D01*
X0005059Y0169778D02*
X0011716Y0169778D01*
X0012698Y0170976D02*
X0005059Y0170976D01*
X0005059Y0172175D02*
X0010583Y0172175D01*
X0009708Y0173373D02*
X0005059Y0173373D01*
X0013413Y0173373D02*
X0014213Y0173373D01*
X0014213Y0172175D02*
X0013413Y0172175D01*
X0013413Y0170976D02*
X0014213Y0170976D01*
X0014213Y0174572D02*
X0013413Y0174572D01*
X0013413Y0176969D02*
X0014213Y0176969D01*
X0014213Y0178167D02*
X0013413Y0178167D01*
X0013413Y0179366D02*
X0014213Y0179366D01*
X0016250Y0179366D02*
X0020939Y0179366D01*
X0019742Y0178167D02*
X0017525Y0178167D01*
X0018156Y0176969D02*
X0019246Y0176969D01*
X0025553Y0170976D02*
X0236600Y0170976D01*
X0236600Y0169778D02*
X0025909Y0169778D01*
X0019843Y0157792D02*
X0018038Y0157792D01*
X0018534Y0156594D02*
X0019347Y0156594D01*
X0020712Y0181763D02*
X0016913Y0181763D01*
X0017977Y0182961D02*
X0019648Y0182961D01*
X0019152Y0184160D02*
X0018473Y0184160D01*
X0018613Y0185358D02*
X0019013Y0185358D01*
X0019075Y0186557D02*
X0018550Y0186557D01*
X0018053Y0187755D02*
X0019572Y0187755D01*
X0020528Y0188954D02*
X0017098Y0188954D01*
X0009572Y0187755D02*
X0005059Y0187755D01*
X0005059Y0186557D02*
X0009075Y0186557D01*
X0009013Y0185358D02*
X0005059Y0185358D01*
X0005059Y0184160D02*
X0009152Y0184160D01*
X0009648Y0182961D02*
X0005059Y0182961D01*
X0005059Y0181763D02*
X0010712Y0181763D01*
X0005059Y0210527D02*
X0139007Y0210527D01*
X0140859Y0211725D02*
X0108290Y0211725D01*
X0110171Y0212924D02*
X0236600Y0212924D01*
X0236600Y0211725D02*
X0142341Y0211725D01*
X0144193Y0210527D02*
X0236600Y0210527D01*
X0236600Y0209328D02*
X0144797Y0209328D01*
X0144876Y0208130D02*
X0236600Y0208130D01*
X0236600Y0206931D02*
X0144502Y0206931D01*
X0143480Y0205733D02*
X0236600Y0205733D01*
X0236600Y0214123D02*
X0110789Y0214123D01*
X0110876Y0215321D02*
X0236600Y0215321D01*
X0236600Y0226108D02*
X0070116Y0226108D01*
X0071314Y0227306D02*
X0236600Y0227306D01*
X0236600Y0228505D02*
X0072513Y0228505D01*
X0073711Y0229703D02*
X0236600Y0229703D01*
X0236600Y0230902D02*
X0074910Y0230902D01*
X0076108Y0232100D02*
X0236600Y0232100D01*
X0236600Y0233299D02*
X0077307Y0233299D01*
X0078505Y0234497D02*
X0236600Y0234497D01*
X0236600Y0235696D02*
X0079704Y0235696D01*
X0080902Y0236894D02*
X0208612Y0236894D01*
X0206214Y0238093D02*
X0081828Y0238093D01*
X0082000Y0239291D02*
X0205016Y0239291D01*
X0204188Y0240490D02*
X0082000Y0240490D01*
X0082000Y0241688D02*
X0203692Y0241688D01*
X0203307Y0242887D02*
X0082000Y0242887D01*
X0082000Y0244085D02*
X0109212Y0244085D01*
X0109381Y0243917D02*
X0111145Y0243186D01*
X0113055Y0243186D01*
X0114819Y0243917D01*
X0116169Y0245267D01*
X0116900Y0247031D01*
X0116900Y0248941D01*
X0116169Y0250705D01*
X0114819Y0252055D01*
X0113055Y0252786D01*
X0111145Y0252786D01*
X0109381Y0252055D01*
X0108031Y0250705D01*
X0107300Y0248941D01*
X0107300Y0247031D01*
X0108031Y0245267D01*
X0109381Y0243917D01*
X0108024Y0245284D02*
X0082000Y0245284D01*
X0082000Y0246482D02*
X0107527Y0246482D01*
X0107300Y0247681D02*
X0082000Y0247681D01*
X0082000Y0248879D02*
X0107300Y0248879D01*
X0107771Y0250078D02*
X0082000Y0250078D01*
X0082000Y0251276D02*
X0108602Y0251276D01*
X0110394Y0252475D02*
X0082000Y0252475D01*
X0082000Y0253673D02*
X0125019Y0253673D01*
X0124819Y0252055D02*
X0126169Y0250705D01*
X0126900Y0248941D01*
X0126900Y0247031D01*
X0126169Y0245267D01*
X0124819Y0243917D01*
X0123055Y0243186D01*
X0121145Y0243186D01*
X0119381Y0243917D01*
X0118031Y0245267D01*
X0117300Y0247031D01*
X0117300Y0248941D01*
X0118031Y0250705D01*
X0119381Y0252055D01*
X0121145Y0252786D01*
X0123055Y0252786D01*
X0124819Y0252055D01*
X0123806Y0252475D02*
X0126217Y0252475D01*
X0125598Y0251276D02*
X0127416Y0251276D01*
X0126429Y0250078D02*
X0206161Y0250078D01*
X0204962Y0248879D02*
X0126900Y0248879D01*
X0126900Y0247681D02*
X0204166Y0247681D01*
X0203670Y0246482D02*
X0126673Y0246482D01*
X0126176Y0245284D02*
X0203307Y0245284D01*
X0203307Y0244085D02*
X0124987Y0244085D01*
X0119212Y0244085D02*
X0114987Y0244085D01*
X0116176Y0245284D02*
X0118024Y0245284D01*
X0117527Y0246482D02*
X0116673Y0246482D01*
X0116900Y0247681D02*
X0117300Y0247681D01*
X0117300Y0248879D02*
X0116900Y0248879D01*
X0116429Y0250078D02*
X0117771Y0250078D01*
X0118602Y0251276D02*
X0115598Y0251276D01*
X0113806Y0252475D02*
X0120394Y0252475D01*
X0123820Y0254872D02*
X0082000Y0254872D01*
X0082000Y0256070D02*
X0122621Y0256070D01*
X0125814Y0259666D02*
X0138700Y0259666D01*
X0138700Y0260864D02*
X0124616Y0260864D01*
X0127013Y0258467D02*
X0138700Y0258467D01*
X0138700Y0257269D02*
X0128211Y0257269D01*
X0129410Y0256070D02*
X0138700Y0256070D01*
X0138700Y0262063D02*
X0065726Y0262063D01*
X0064815Y0251276D02*
X0077200Y0251276D01*
X0077200Y0250078D02*
X0065697Y0250078D01*
X0062000Y0250078D02*
X0061200Y0250078D01*
X0061200Y0251276D02*
X0062000Y0251276D01*
X0062000Y0248879D02*
X0061200Y0248879D01*
X0061200Y0246482D02*
X0062000Y0246482D01*
X0062000Y0245284D02*
X0061200Y0245284D01*
X0061200Y0244085D02*
X0062000Y0244085D01*
X0059143Y0244085D02*
X0054487Y0244085D01*
X0055676Y0245284D02*
X0057877Y0245284D01*
X0057252Y0246482D02*
X0056173Y0246482D01*
X0051985Y0228505D02*
X0041715Y0228505D01*
X0042307Y0227306D02*
X0051100Y0227306D01*
X0050824Y0226108D02*
X0042376Y0226108D01*
X0041993Y0224909D02*
X0051000Y0224909D01*
X0051742Y0223711D02*
X0040958Y0223711D01*
X0037242Y0223711D02*
X0028084Y0223711D01*
X0028384Y0224909D02*
X0036207Y0224909D01*
X0035824Y0226108D02*
X0028366Y0226108D01*
X0028030Y0227306D02*
X0035893Y0227306D01*
X0036485Y0228505D02*
X0027264Y0228505D01*
X0005059Y0254872D02*
X0077200Y0254872D01*
X0077200Y0256070D02*
X0005059Y0256070D01*
X0005059Y0257269D02*
X0077200Y0257269D01*
X0077409Y0258467D02*
X0005237Y0258467D01*
X0005881Y0259666D02*
X0078386Y0259666D01*
X0079584Y0260864D02*
X0006967Y0260864D01*
X0009734Y0262063D02*
X0011354Y0262063D01*
X0205876Y0182961D02*
X0236600Y0182961D01*
X0236600Y0181763D02*
X0205640Y0181763D01*
X0261959Y0226108D02*
X0323722Y0226108D01*
X0324920Y0227306D02*
X0261962Y0227306D01*
X0261964Y0228505D02*
X0326119Y0228505D01*
X0326605Y0229703D02*
X0261966Y0229703D01*
X0261969Y0230902D02*
X0326614Y0230902D01*
X0326623Y0232100D02*
X0261971Y0232100D01*
X0261973Y0233299D02*
X0326631Y0233299D01*
X0326640Y0234497D02*
X0261976Y0234497D01*
X0261978Y0235696D02*
X0326649Y0235696D01*
X0326658Y0236894D02*
X0261980Y0236894D01*
X0261983Y0238093D02*
X0326666Y0238093D01*
X0326675Y0239291D02*
X0261985Y0239291D01*
X0261988Y0240490D02*
X0326684Y0240490D01*
X0326693Y0241688D02*
X0281657Y0241688D01*
X0281996Y0241798D02*
X0282717Y0242166D01*
X0283372Y0242642D01*
X0283944Y0243214D01*
X0284420Y0243869D01*
X0284788Y0244590D01*
X0285038Y0245360D01*
X0285137Y0245984D01*
X0280602Y0245984D01*
X0280602Y0241449D01*
X0281226Y0241548D01*
X0281996Y0241798D01*
X0280602Y0241688D02*
X0279440Y0241688D01*
X0278385Y0241688D02*
X0271815Y0241688D01*
X0270760Y0241688D02*
X0269598Y0241688D01*
X0269598Y0241449D02*
X0269598Y0245984D01*
X0265063Y0245984D01*
X0265162Y0245360D01*
X0265412Y0244590D01*
X0265780Y0243869D01*
X0266256Y0243214D01*
X0266828Y0242642D01*
X0267483Y0242166D01*
X0268204Y0241798D01*
X0268974Y0241548D01*
X0269598Y0241449D01*
X0268543Y0241688D02*
X0261990Y0241688D01*
X0261992Y0242887D02*
X0266583Y0242887D01*
X0265670Y0244085D02*
X0261995Y0244085D01*
X0261997Y0245284D02*
X0265187Y0245284D01*
X0265148Y0247681D02*
X0262002Y0247681D01*
X0262004Y0248879D02*
X0265586Y0248879D01*
X0266418Y0250078D02*
X0262006Y0250078D01*
X0262009Y0251276D02*
X0268097Y0251276D01*
X0266555Y0252475D02*
X0262011Y0252475D01*
X0262014Y0253673D02*
X0265528Y0253673D01*
X0265031Y0254872D02*
X0262016Y0254872D01*
X0262018Y0256070D02*
X0264835Y0256070D01*
X0264835Y0257269D02*
X0262021Y0257269D01*
X0262023Y0258467D02*
X0265249Y0258467D01*
X0282103Y0251276D02*
X0326763Y0251276D01*
X0326754Y0250078D02*
X0283782Y0250078D01*
X0284614Y0248879D02*
X0326745Y0248879D01*
X0326736Y0247681D02*
X0285052Y0247681D01*
X0285013Y0245284D02*
X0326719Y0245284D01*
X0326728Y0246482D02*
X0280602Y0246482D01*
X0279440Y0246482D02*
X0270760Y0246482D01*
X0269598Y0246482D02*
X0261999Y0246482D01*
X0269598Y0245284D02*
X0270760Y0245284D01*
X0270760Y0244085D02*
X0269598Y0244085D01*
X0269598Y0242887D02*
X0270760Y0242887D01*
X0273774Y0242887D02*
X0276425Y0242887D01*
X0275512Y0244085D02*
X0274688Y0244085D01*
X0279440Y0244085D02*
X0280602Y0244085D01*
X0280602Y0242887D02*
X0279440Y0242887D01*
X0279440Y0245284D02*
X0280602Y0245284D01*
X0283617Y0242887D02*
X0326701Y0242887D01*
X0326710Y0244085D02*
X0284530Y0244085D01*
X0307689Y0220115D02*
X0335800Y0220115D01*
X0335800Y0218917D02*
X0306490Y0218917D01*
X0305292Y0217718D02*
X0335800Y0217718D01*
X0335800Y0216520D02*
X0304093Y0216520D01*
X0303400Y0215321D02*
X0335800Y0215321D01*
X0335800Y0214123D02*
X0303400Y0214123D01*
X0303400Y0212924D02*
X0335800Y0212924D01*
X0335800Y0211725D02*
X0303400Y0211725D01*
X0303400Y0210527D02*
X0335967Y0210527D01*
X0336798Y0209328D02*
X0303400Y0209328D01*
X0303400Y0208130D02*
X0330563Y0208130D01*
X0328887Y0206931D02*
X0303400Y0206931D01*
X0303400Y0205733D02*
X0327688Y0205733D01*
X0327014Y0204534D02*
X0303400Y0204534D01*
X0303400Y0203336D02*
X0326517Y0203336D01*
X0326106Y0202137D02*
X0303400Y0202137D01*
X0303400Y0200939D02*
X0326106Y0200939D01*
X0326106Y0199740D02*
X0303400Y0199740D01*
X0303400Y0198542D02*
X0326295Y0198542D01*
X0326792Y0197343D02*
X0303400Y0197343D01*
X0303400Y0196145D02*
X0327288Y0196145D01*
X0328351Y0194946D02*
X0303400Y0194946D01*
X0303400Y0193748D02*
X0329549Y0193748D01*
X0332163Y0192549D02*
X0303400Y0192549D01*
X0303400Y0191351D02*
X0342800Y0191351D01*
X0342800Y0192549D02*
X0336848Y0192549D01*
X0339462Y0193748D02*
X0342800Y0193748D01*
X0342800Y0194946D02*
X0340660Y0194946D01*
X0341723Y0196145D02*
X0342800Y0196145D01*
X0342800Y0197343D02*
X0342219Y0197343D01*
X0342716Y0198542D02*
X0342800Y0198542D01*
X0348400Y0198542D02*
X0355495Y0198542D01*
X0356816Y0199621D02*
X0356816Y0199621D01*
X0357069Y0199740D02*
X0348400Y0199740D01*
X0348400Y0200939D02*
X0359595Y0200939D01*
X0361618Y0201899D02*
X0361618Y0201899D01*
X0362785Y0202137D02*
X0348400Y0202137D01*
X0348400Y0203336D02*
X0394706Y0203336D01*
X0394294Y0202137D02*
X0374246Y0202137D01*
X0377242Y0201270D02*
X0377242Y0201270D01*
X0377815Y0200939D02*
X0394294Y0200939D01*
X0394294Y0199740D02*
X0379891Y0199740D01*
X0380586Y0198542D02*
X0394484Y0198542D01*
X0394981Y0197343D02*
X0380587Y0197343D01*
X0379895Y0196145D02*
X0395477Y0196145D01*
X0396540Y0194946D02*
X0379203Y0194946D01*
X0378511Y0193748D02*
X0397738Y0193748D01*
X0400352Y0192549D02*
X0377819Y0192549D01*
X0377127Y0191351D02*
X0414005Y0191351D01*
X0415204Y0192549D02*
X0405037Y0192549D01*
X0407651Y0193748D02*
X0416402Y0193748D01*
X0417601Y0194946D02*
X0408849Y0194946D01*
X0409912Y0196145D02*
X0418799Y0196145D01*
X0419998Y0197343D02*
X0410408Y0197343D01*
X0410905Y0198542D02*
X0421196Y0198542D01*
X0422395Y0199740D02*
X0411094Y0199740D01*
X0411094Y0200939D02*
X0423593Y0200939D01*
X0424792Y0202137D02*
X0411094Y0202137D01*
X0410683Y0203336D02*
X0425990Y0203336D01*
X0415251Y0185358D02*
X0475100Y0185358D01*
X0475100Y0184160D02*
X0415748Y0184160D01*
X0416244Y0182961D02*
X0475100Y0182961D01*
X0475100Y0181763D02*
X0416370Y0181763D01*
X0416370Y0180564D02*
X0475100Y0180564D01*
X0475100Y0179366D02*
X0416370Y0179366D01*
X0415895Y0178167D02*
X0475100Y0178167D01*
X0475100Y0176969D02*
X0415398Y0176969D01*
X0414634Y0175770D02*
X0475100Y0175770D01*
X0475100Y0174572D02*
X0413435Y0174572D01*
X0411541Y0173373D02*
X0475100Y0173373D01*
X0475100Y0172175D02*
X0398789Y0172175D01*
X0399987Y0173373D02*
X0404399Y0173373D01*
X0402505Y0174572D02*
X0401186Y0174572D01*
X0397590Y0170976D02*
X0475100Y0170976D01*
X0475100Y0169778D02*
X0396392Y0169778D01*
X0395193Y0168579D02*
X0475100Y0168579D01*
X0475100Y0167381D02*
X0393995Y0167381D01*
X0393600Y0166182D02*
X0475100Y0166182D01*
X0475100Y0164984D02*
X0393600Y0164984D01*
X0393600Y0163785D02*
X0475100Y0163785D01*
X0475100Y0162587D02*
X0393600Y0162587D01*
X0393600Y0161388D02*
X0475100Y0161388D01*
X0475100Y0160190D02*
X0393600Y0160190D01*
X0393600Y0158991D02*
X0475100Y0158991D01*
X0475100Y0157792D02*
X0434584Y0157792D01*
X0436346Y0156594D02*
X0475100Y0156594D01*
X0475100Y0155395D02*
X0437230Y0155395D01*
X0437727Y0154197D02*
X0475100Y0154197D01*
X0475100Y0152998D02*
X0437800Y0152998D01*
X0436371Y0149403D02*
X0475100Y0149403D01*
X0475100Y0148204D02*
X0434644Y0148204D01*
X0430556Y0148204D02*
X0396685Y0148204D01*
X0396685Y0147006D02*
X0460403Y0147006D01*
X0460959Y0147236D02*
X0457927Y0145980D01*
X0455606Y0143659D01*
X0454350Y0140627D01*
X0454350Y0137345D01*
X0455606Y0134313D01*
X0457927Y0131992D01*
X0460959Y0130736D01*
X0464241Y0130736D01*
X0467273Y0131992D01*
X0469594Y0134313D01*
X0470850Y0137345D01*
X0470850Y0140627D01*
X0469594Y0143659D01*
X0467273Y0145980D01*
X0464241Y0147236D01*
X0460959Y0147236D01*
X0457754Y0145807D02*
X0396685Y0145807D01*
X0396432Y0144609D02*
X0456556Y0144609D01*
X0455503Y0143410D02*
X0395935Y0143410D01*
X0395439Y0142212D02*
X0455006Y0142212D01*
X0454510Y0141013D02*
X0394286Y0141013D01*
X0393088Y0139815D02*
X0454350Y0139815D01*
X0454350Y0138616D02*
X0390257Y0138616D01*
X0386313Y0138616D02*
X0376450Y0138616D01*
X0375953Y0137418D02*
X0454350Y0137418D01*
X0454816Y0136219D02*
X0375083Y0136219D01*
X0373884Y0135021D02*
X0455313Y0135021D01*
X0456096Y0133822D02*
X0371735Y0133822D01*
X0365465Y0133822D02*
X0311724Y0133822D01*
X0312922Y0132624D02*
X0457295Y0132624D01*
X0459295Y0131425D02*
X0314121Y0131425D01*
X0315319Y0130227D02*
X0475100Y0130227D01*
X0475100Y0131425D02*
X0465905Y0131425D01*
X0467905Y0132624D02*
X0475100Y0132624D01*
X0475100Y0133822D02*
X0469103Y0133822D01*
X0469887Y0135021D02*
X0475100Y0135021D01*
X0475100Y0136219D02*
X0470384Y0136219D01*
X0470850Y0137418D02*
X0475100Y0137418D01*
X0475100Y0138616D02*
X0470850Y0138616D01*
X0470850Y0139815D02*
X0475100Y0139815D01*
X0475100Y0141013D02*
X0470690Y0141013D01*
X0470194Y0142212D02*
X0475100Y0142212D01*
X0475100Y0143410D02*
X0469697Y0143410D01*
X0468644Y0144609D02*
X0475100Y0144609D01*
X0475100Y0145807D02*
X0467446Y0145807D01*
X0464797Y0147006D02*
X0475100Y0147006D01*
X0475100Y0129028D02*
X0316518Y0129028D01*
X0317716Y0127830D02*
X0475100Y0127830D01*
X0475100Y0126631D02*
X0465701Y0126631D01*
X0464241Y0127236D02*
X0460959Y0127236D01*
X0457927Y0125980D01*
X0455606Y0123659D01*
X0454350Y0120627D01*
X0454350Y0117345D01*
X0455606Y0114313D01*
X0457927Y0111992D01*
X0460959Y0110736D01*
X0464241Y0110736D01*
X0467273Y0111992D01*
X0469594Y0114313D01*
X0470850Y0117345D01*
X0470850Y0120627D01*
X0469594Y0123659D01*
X0467273Y0125980D01*
X0464241Y0127236D01*
X0467821Y0125433D02*
X0475100Y0125433D01*
X0475100Y0124234D02*
X0469019Y0124234D01*
X0469852Y0123036D02*
X0475100Y0123036D01*
X0475100Y0121837D02*
X0470349Y0121837D01*
X0470845Y0120639D02*
X0475100Y0120639D01*
X0475100Y0119440D02*
X0470850Y0119440D01*
X0470850Y0118242D02*
X0475100Y0118242D01*
X0475100Y0117043D02*
X0470725Y0117043D01*
X0470228Y0115845D02*
X0475100Y0115845D01*
X0475100Y0114646D02*
X0469732Y0114646D01*
X0468729Y0113448D02*
X0475100Y0113448D01*
X0475100Y0112249D02*
X0467530Y0112249D01*
X0465000Y0111051D02*
X0475100Y0111051D01*
X0475100Y0109852D02*
X0335272Y0109852D01*
X0335400Y0108654D02*
X0475100Y0108654D01*
X0475100Y0107455D02*
X0335400Y0107455D01*
X0335400Y0106256D02*
X0475100Y0106256D01*
X0475100Y0105058D02*
X0335400Y0105058D01*
X0335400Y0103859D02*
X0475100Y0103859D01*
X0475100Y0102661D02*
X0335400Y0102661D01*
X0335400Y0101462D02*
X0475100Y0101462D01*
X0475100Y0100264D02*
X0383625Y0100264D01*
X0384367Y0099957D02*
X0381280Y0101236D01*
X0377938Y0101236D01*
X0374851Y0099957D01*
X0372488Y0097594D01*
X0371209Y0094506D01*
X0371209Y0091165D01*
X0372488Y0088077D01*
X0374851Y0085714D01*
X0377938Y0084436D01*
X0381280Y0084436D01*
X0384367Y0085714D01*
X0386730Y0088077D01*
X0388009Y0091165D01*
X0388009Y0094506D01*
X0386730Y0097594D01*
X0384367Y0099957D01*
X0385258Y0099065D02*
X0475100Y0099065D01*
X0475100Y0097867D02*
X0386457Y0097867D01*
X0387113Y0096668D02*
X0475100Y0096668D01*
X0475100Y0095470D02*
X0387610Y0095470D01*
X0388009Y0094271D02*
X0475100Y0094271D01*
X0475100Y0093073D02*
X0388009Y0093073D01*
X0388009Y0091874D02*
X0475100Y0091874D01*
X0475100Y0090676D02*
X0387806Y0090676D01*
X0387310Y0089477D02*
X0475100Y0089477D01*
X0475100Y0088279D02*
X0386813Y0088279D01*
X0385733Y0087080D02*
X0475100Y0087080D01*
X0475100Y0085882D02*
X0384534Y0085882D01*
X0381878Y0084683D02*
X0475100Y0084683D01*
X0475100Y0083485D02*
X0335400Y0083485D01*
X0335400Y0084683D02*
X0377340Y0084683D01*
X0374683Y0085882D02*
X0335400Y0085882D01*
X0335400Y0087080D02*
X0373485Y0087080D01*
X0372404Y0088279D02*
X0335400Y0088279D01*
X0335400Y0089477D02*
X0371908Y0089477D01*
X0371411Y0090676D02*
X0335400Y0090676D01*
X0335400Y0091874D02*
X0371209Y0091874D01*
X0371209Y0093073D02*
X0335400Y0093073D01*
X0335400Y0094271D02*
X0371209Y0094271D01*
X0371608Y0095470D02*
X0335400Y0095470D01*
X0335400Y0096668D02*
X0372104Y0096668D01*
X0372761Y0097867D02*
X0335400Y0097867D01*
X0335400Y0099065D02*
X0373959Y0099065D01*
X0375592Y0100264D02*
X0335400Y0100264D01*
X0334495Y0111051D02*
X0460200Y0111051D01*
X0457670Y0112249D02*
X0333297Y0112249D01*
X0332098Y0113448D02*
X0456471Y0113448D01*
X0455468Y0114646D02*
X0330900Y0114646D01*
X0329701Y0115845D02*
X0454971Y0115845D01*
X0454475Y0117043D02*
X0328503Y0117043D01*
X0327304Y0118242D02*
X0454350Y0118242D01*
X0454350Y0119440D02*
X0326106Y0119440D01*
X0324907Y0120639D02*
X0454355Y0120639D01*
X0454851Y0121837D02*
X0323709Y0121837D01*
X0322510Y0123036D02*
X0455348Y0123036D01*
X0456181Y0124234D02*
X0321312Y0124234D01*
X0320113Y0125433D02*
X0457379Y0125433D01*
X0459499Y0126631D02*
X0318915Y0126631D01*
X0310525Y0135021D02*
X0363316Y0135021D01*
X0362117Y0136219D02*
X0309327Y0136219D01*
X0289741Y0114646D02*
X0261739Y0114646D01*
X0261737Y0113448D02*
X0289324Y0113448D01*
X0289359Y0112249D02*
X0261735Y0112249D01*
X0261732Y0111051D02*
X0289902Y0111051D01*
X0289412Y0109852D02*
X0261730Y0109852D01*
X0261728Y0108654D02*
X0289324Y0108654D01*
X0289688Y0107455D02*
X0261725Y0107455D01*
X0261723Y0106256D02*
X0290696Y0106256D01*
X0328390Y0073897D02*
X0374747Y0073897D01*
X0374747Y0074438D02*
X0374747Y0071096D01*
X0376026Y0068009D01*
X0378389Y0065646D01*
X0381477Y0064367D01*
X0384818Y0064367D01*
X0387906Y0065646D01*
X0390269Y0068009D01*
X0391547Y0071096D01*
X0391547Y0074438D01*
X0390269Y0077525D01*
X0387906Y0079888D01*
X0384818Y0081167D01*
X0381477Y0081167D01*
X0378389Y0079888D01*
X0376026Y0077525D01*
X0374747Y0074438D01*
X0375020Y0075095D02*
X0329604Y0075095D01*
X0330819Y0076294D02*
X0375516Y0076294D01*
X0376013Y0077492D02*
X0332033Y0077492D01*
X0333247Y0078691D02*
X0377192Y0078691D01*
X0378392Y0079889D02*
X0334463Y0079889D01*
X0335260Y0081088D02*
X0381285Y0081088D01*
X0385010Y0081088D02*
X0475100Y0081088D01*
X0475100Y0082286D02*
X0335402Y0082286D01*
X0327176Y0072698D02*
X0374747Y0072698D01*
X0374747Y0071500D02*
X0325962Y0071500D01*
X0324747Y0070301D02*
X0375077Y0070301D01*
X0375573Y0069103D02*
X0323533Y0069103D01*
X0322319Y0067904D02*
X0376131Y0067904D01*
X0377330Y0066706D02*
X0321104Y0066706D01*
X0319890Y0065507D02*
X0378724Y0065507D01*
X0377556Y0064084D02*
X0374800Y0064084D01*
X0372138Y0063370D01*
X0369751Y0061992D01*
X0367802Y0060043D01*
X0366424Y0057657D01*
X0365710Y0054994D01*
X0365710Y0052238D01*
X0366424Y0049576D01*
X0367802Y0047189D01*
X0369751Y0045240D01*
X0372138Y0043862D01*
X0374800Y0043148D01*
X0377556Y0043148D01*
X0380218Y0043862D01*
X0382605Y0045240D01*
X0384554Y0047189D01*
X0385932Y0049576D01*
X0386646Y0052238D01*
X0386646Y0054994D01*
X0385932Y0057657D01*
X0384554Y0060043D01*
X0382605Y0061992D01*
X0380218Y0063370D01*
X0377556Y0064084D01*
X0380669Y0063110D02*
X0475100Y0063110D01*
X0475100Y0061912D02*
X0382686Y0061912D01*
X0383885Y0060713D02*
X0475100Y0060713D01*
X0475100Y0059515D02*
X0384860Y0059515D01*
X0385552Y0058316D02*
X0475100Y0058316D01*
X0475100Y0057118D02*
X0386077Y0057118D01*
X0386398Y0055919D02*
X0475100Y0055919D01*
X0475100Y0054721D02*
X0386646Y0054721D01*
X0386646Y0053522D02*
X0475100Y0053522D01*
X0475100Y0052323D02*
X0386646Y0052323D01*
X0386348Y0051125D02*
X0475100Y0051125D01*
X0475100Y0049926D02*
X0386026Y0049926D01*
X0385443Y0048728D02*
X0475100Y0048728D01*
X0475100Y0047529D02*
X0384751Y0047529D01*
X0383696Y0046331D02*
X0475100Y0046331D01*
X0475100Y0045132D02*
X0382419Y0045132D01*
X0380343Y0043934D02*
X0475100Y0043934D01*
X0475100Y0042735D02*
X0368739Y0042735D01*
X0368966Y0042188D02*
X0367687Y0045275D01*
X0365324Y0047638D01*
X0362237Y0048917D01*
X0358895Y0048917D01*
X0355807Y0047638D01*
X0353445Y0045275D01*
X0352166Y0042188D01*
X0352166Y0038846D01*
X0353445Y0035759D01*
X0355807Y0033396D01*
X0358895Y0032117D01*
X0362237Y0032117D01*
X0365324Y0033396D01*
X0367687Y0035759D01*
X0368966Y0038846D01*
X0368966Y0042188D01*
X0368966Y0041537D02*
X0475100Y0041537D01*
X0475100Y0040338D02*
X0368966Y0040338D01*
X0368966Y0039140D02*
X0475100Y0039140D01*
X0475100Y0037941D02*
X0368591Y0037941D01*
X0368094Y0036743D02*
X0475100Y0036743D01*
X0475100Y0035544D02*
X0367472Y0035544D01*
X0366274Y0034346D02*
X0475100Y0034346D01*
X0475100Y0033147D02*
X0364724Y0033147D01*
X0356408Y0033147D02*
X0348002Y0033147D01*
X0348499Y0034346D02*
X0354858Y0034346D01*
X0353659Y0035544D02*
X0348897Y0035544D01*
X0348897Y0036743D02*
X0353037Y0036743D01*
X0352540Y0037941D02*
X0348897Y0037941D01*
X0348694Y0039140D02*
X0352166Y0039140D01*
X0352166Y0040338D02*
X0348198Y0040338D01*
X0347701Y0041537D02*
X0352166Y0041537D01*
X0352392Y0042735D02*
X0346620Y0042735D01*
X0345421Y0043934D02*
X0352889Y0043934D01*
X0353385Y0045132D02*
X0342762Y0045132D01*
X0338232Y0045132D02*
X0299247Y0045132D01*
X0298033Y0043934D02*
X0335573Y0043934D01*
X0334375Y0042735D02*
X0296819Y0042735D01*
X0295510Y0041537D02*
X0333293Y0041537D01*
X0346148Y0030750D02*
X0475100Y0030750D01*
X0475100Y0029552D02*
X0344518Y0029552D01*
X0347347Y0031949D02*
X0475100Y0031949D01*
X0475100Y0064309D02*
X0318676Y0064309D01*
X0317462Y0063110D02*
X0371687Y0063110D01*
X0369670Y0061912D02*
X0316247Y0061912D01*
X0315033Y0060713D02*
X0368471Y0060713D01*
X0367496Y0059515D02*
X0313819Y0059515D01*
X0312605Y0058316D02*
X0366804Y0058316D01*
X0366279Y0057118D02*
X0311390Y0057118D01*
X0310176Y0055919D02*
X0365958Y0055919D01*
X0365710Y0054721D02*
X0308962Y0054721D01*
X0307747Y0053522D02*
X0365710Y0053522D01*
X0365710Y0052323D02*
X0306533Y0052323D01*
X0305319Y0051125D02*
X0366009Y0051125D01*
X0366330Y0049926D02*
X0304105Y0049926D01*
X0302890Y0048728D02*
X0358438Y0048728D01*
X0355699Y0047529D02*
X0301676Y0047529D01*
X0300462Y0046331D02*
X0354500Y0046331D01*
X0362693Y0048728D02*
X0366913Y0048728D01*
X0367605Y0047529D02*
X0365433Y0047529D01*
X0366631Y0046331D02*
X0368660Y0046331D01*
X0367746Y0045132D02*
X0369937Y0045132D01*
X0368242Y0043934D02*
X0372013Y0043934D01*
X0387570Y0065507D02*
X0475100Y0065507D01*
X0475100Y0066706D02*
X0388965Y0066706D01*
X0390164Y0067904D02*
X0475100Y0067904D01*
X0475100Y0069103D02*
X0390722Y0069103D01*
X0391218Y0070301D02*
X0475100Y0070301D01*
X0475100Y0071500D02*
X0391547Y0071500D01*
X0391547Y0072698D02*
X0475100Y0072698D01*
X0475100Y0073897D02*
X0391547Y0073897D01*
X0391275Y0075095D02*
X0475100Y0075095D01*
X0475100Y0076294D02*
X0390779Y0076294D01*
X0390282Y0077492D02*
X0475100Y0077492D01*
X0475100Y0078691D02*
X0389103Y0078691D01*
X0387903Y0079889D02*
X0475100Y0079889D01*
X0383482Y0139815D02*
X0376946Y0139815D01*
X0377000Y0141013D02*
X0382284Y0141013D01*
X0381131Y0142212D02*
X0377000Y0142212D01*
X0376949Y0143410D02*
X0380635Y0143410D01*
X0380138Y0144609D02*
X0376452Y0144609D01*
X0375956Y0145807D02*
X0379885Y0145807D01*
X0379885Y0147006D02*
X0375089Y0147006D01*
X0373891Y0148204D02*
X0379885Y0148204D01*
X0380233Y0149403D02*
X0371751Y0149403D01*
X0365449Y0149403D02*
X0356967Y0149403D01*
X0357315Y0148204D02*
X0363309Y0148204D01*
X0362111Y0147006D02*
X0357315Y0147006D01*
X0357315Y0145807D02*
X0361244Y0145807D01*
X0360748Y0144609D02*
X0357062Y0144609D01*
X0356565Y0143410D02*
X0360251Y0143410D01*
X0360200Y0142212D02*
X0356069Y0142212D01*
X0356470Y0150601D02*
X0380730Y0150601D01*
X0381314Y0151800D02*
X0355886Y0151800D01*
X0354687Y0152998D02*
X0382513Y0152998D01*
X0383972Y0154197D02*
X0353228Y0154197D01*
X0348400Y0155395D02*
X0390800Y0155395D01*
X0390800Y0156594D02*
X0348400Y0156594D01*
X0348400Y0157792D02*
X0390800Y0157792D01*
X0393600Y0157792D02*
X0430616Y0157792D01*
X0428854Y0156594D02*
X0393600Y0156594D01*
X0393600Y0155395D02*
X0427970Y0155395D01*
X0427473Y0154197D02*
X0393600Y0154197D01*
X0394057Y0152998D02*
X0427400Y0152998D01*
X0428829Y0149403D02*
X0396337Y0149403D01*
X0356695Y0162587D02*
X0348400Y0162587D01*
X0348400Y0163785D02*
X0354913Y0163785D01*
X0355355Y0163360D02*
X0355355Y0163360D01*
X0353665Y0164984D02*
X0348400Y0164984D01*
X0348400Y0166182D02*
X0352417Y0166182D01*
X0351522Y0167042D02*
X0351522Y0167042D01*
X0351308Y0167381D02*
X0348400Y0167381D01*
X0348400Y0168579D02*
X0350550Y0168579D01*
X0349792Y0169778D02*
X0348400Y0169778D01*
X0348400Y0170976D02*
X0349034Y0170976D01*
X0348681Y0171534D02*
X0348681Y0171534D01*
X0348467Y0172175D02*
X0348400Y0172175D01*
X0342800Y0168579D02*
X0338885Y0168579D01*
X0340305Y0167381D02*
X0342800Y0167381D01*
X0342800Y0166182D02*
X0341504Y0166182D01*
X0342072Y0164984D02*
X0342800Y0164984D01*
X0342800Y0163785D02*
X0342569Y0163785D01*
X0348400Y0190152D02*
X0348715Y0190152D01*
X0348400Y0191351D02*
X0349225Y0191351D01*
X0349911Y0192549D02*
X0348400Y0192549D01*
X0348400Y0193748D02*
X0350812Y0193748D01*
X0351713Y0194946D02*
X0348400Y0194946D01*
X0348400Y0196145D02*
X0352613Y0196145D01*
X0352699Y0196259D02*
X0352699Y0196259D01*
X0352699Y0196259D01*
X0354027Y0197343D02*
X0348400Y0197343D01*
X0348400Y0204534D02*
X0395203Y0204534D01*
X0395877Y0205733D02*
X0348114Y0205733D01*
X0351192Y0206931D02*
X0386008Y0206931D01*
X0383356Y0208130D02*
X0353844Y0208130D01*
X0355042Y0209328D02*
X0382158Y0209328D01*
X0381079Y0210527D02*
X0356121Y0210527D01*
X0356617Y0211725D02*
X0380583Y0211725D01*
X0380086Y0212924D02*
X0372608Y0212924D01*
X0373358Y0213235D02*
X0375721Y0215598D01*
X0377000Y0218685D01*
X0377000Y0222027D01*
X0375721Y0225114D01*
X0373358Y0227477D01*
X0370271Y0228756D01*
X0366929Y0228756D01*
X0363842Y0227477D01*
X0361479Y0225114D01*
X0360200Y0222027D01*
X0360200Y0218685D01*
X0361479Y0215598D01*
X0363842Y0213235D01*
X0366929Y0211956D01*
X0370271Y0211956D01*
X0373358Y0213235D01*
X0374246Y0214123D02*
X0379885Y0214123D01*
X0379885Y0215321D02*
X0375444Y0215321D01*
X0376103Y0216520D02*
X0379885Y0216520D01*
X0380285Y0217718D02*
X0376599Y0217718D01*
X0377000Y0218917D02*
X0380782Y0218917D01*
X0381440Y0220115D02*
X0377000Y0220115D01*
X0377000Y0221314D02*
X0382639Y0221314D01*
X0384276Y0222512D02*
X0376799Y0222512D01*
X0376303Y0223711D02*
X0429521Y0223711D01*
X0428323Y0224909D02*
X0375806Y0224909D01*
X0374728Y0226108D02*
X0427750Y0226108D01*
X0427400Y0227306D02*
X0373529Y0227306D01*
X0370878Y0228505D02*
X0427400Y0228505D01*
X0427683Y0229703D02*
X0352315Y0229703D01*
X0352315Y0228505D02*
X0366322Y0228505D01*
X0363671Y0227306D02*
X0352315Y0227306D01*
X0352315Y0226108D02*
X0362472Y0226108D01*
X0361394Y0224909D02*
X0352315Y0224909D01*
X0352315Y0223711D02*
X0360897Y0223711D01*
X0360401Y0222512D02*
X0352924Y0222512D01*
X0354561Y0221314D02*
X0360200Y0221314D01*
X0360200Y0220115D02*
X0355760Y0220115D01*
X0356418Y0218917D02*
X0360200Y0218917D01*
X0360601Y0217718D02*
X0356915Y0217718D01*
X0357315Y0216520D02*
X0361097Y0216520D01*
X0361756Y0215321D02*
X0357315Y0215321D01*
X0357315Y0214123D02*
X0362954Y0214123D01*
X0364592Y0212924D02*
X0357114Y0212924D01*
X0344906Y0222512D02*
X0341400Y0222512D01*
X0341400Y0221314D02*
X0343269Y0221314D01*
X0342070Y0220115D02*
X0341400Y0220115D01*
X0341400Y0218917D02*
X0341412Y0218917D01*
X0341400Y0223711D02*
X0345515Y0223711D01*
X0345515Y0224909D02*
X0341400Y0224909D01*
X0341400Y0226108D02*
X0345515Y0226108D01*
X0345515Y0227306D02*
X0341400Y0227306D01*
X0341400Y0228505D02*
X0345515Y0228505D01*
X0345515Y0229703D02*
X0341400Y0229703D01*
X0341400Y0230902D02*
X0345515Y0230902D01*
X0345480Y0232100D02*
X0341400Y0232100D01*
X0341400Y0233299D02*
X0345595Y0233299D01*
X0346234Y0234497D02*
X0341400Y0234497D01*
X0341400Y0235696D02*
X0347688Y0235696D01*
X0349142Y0236894D02*
X0341400Y0236894D01*
X0341400Y0238093D02*
X0350597Y0238093D01*
X0351288Y0239291D02*
X0341400Y0239291D01*
X0352563Y0230902D02*
X0428179Y0230902D01*
X0429360Y0232100D02*
X0354017Y0232100D01*
X0390562Y0206931D02*
X0397076Y0206931D01*
X0398752Y0208130D02*
X0393214Y0208130D01*
X0403425Y0268056D02*
X0475100Y0268056D01*
X0475100Y0269254D02*
X0405067Y0269254D01*
X0405651Y0270453D02*
X0475100Y0270453D01*
X0475100Y0271651D02*
X0405776Y0271651D01*
X0405514Y0272850D02*
X0475100Y0272850D01*
X0475100Y0274048D02*
X0404737Y0274048D01*
X0467039Y0284835D02*
X0475100Y0284835D01*
X0475020Y0286033D02*
X0468245Y0286033D01*
X0468600Y0287232D02*
X0474721Y0287232D01*
X0474375Y0288430D02*
X0468600Y0288430D01*
X0468600Y0289629D02*
X0473687Y0289629D01*
X0472852Y0290827D02*
X0468600Y0290827D01*
X0468600Y0292026D02*
X0471607Y0292026D01*
X0469583Y0293224D02*
X0468600Y0293224D01*
X0298220Y0205733D02*
X0297980Y0205733D01*
X0293220Y0205733D02*
X0292980Y0205733D01*
X0236600Y0236894D02*
X0213029Y0236894D01*
X0215427Y0238093D02*
X0236600Y0238093D01*
X0236600Y0239291D02*
X0216625Y0239291D01*
X0217453Y0240490D02*
X0236600Y0240490D01*
X0236600Y0241688D02*
X0217949Y0241688D01*
X0218334Y0242887D02*
X0236600Y0242887D01*
X0236600Y0244085D02*
X0218334Y0244085D01*
X0218334Y0245284D02*
X0236600Y0245284D01*
X0236600Y0246482D02*
X0217971Y0246482D01*
X0217475Y0247681D02*
X0236600Y0247681D01*
X0236600Y0248879D02*
X0216679Y0248879D01*
X0215480Y0250078D02*
X0236600Y0250078D01*
X0236600Y0251276D02*
X0231284Y0251276D01*
X0232483Y0252475D02*
X0236600Y0252475D01*
X0236600Y0253673D02*
X0233681Y0253673D01*
X0234880Y0254872D02*
X0236600Y0254872D01*
X0236600Y0256070D02*
X0236079Y0256070D01*
X0041931Y0097867D02*
X0028007Y0097867D01*
X0028504Y0096668D02*
X0043481Y0096668D01*
X0043882Y0095470D02*
X0028613Y0095470D01*
X0028520Y0094271D02*
X0042097Y0094271D01*
X0041269Y0093073D02*
X0028023Y0093073D01*
X0027025Y0091874D02*
X0040800Y0091874D01*
X0040800Y0090676D02*
X0024828Y0090676D01*
X0022797Y0090676D02*
X0014828Y0090676D01*
X0012797Y0090676D02*
X0005059Y0090676D01*
X0005059Y0091874D02*
X0010601Y0091874D01*
X0009602Y0093073D02*
X0005059Y0093073D01*
X0005059Y0094271D02*
X0009106Y0094271D01*
X0009013Y0095470D02*
X0005059Y0095470D01*
X0005059Y0096668D02*
X0009122Y0096668D01*
X0009618Y0097867D02*
X0005059Y0097867D01*
X0005059Y0099065D02*
X0010639Y0099065D01*
X0011051Y0089477D02*
X0005059Y0089477D01*
X0005059Y0088279D02*
X0009853Y0088279D01*
X0009292Y0087080D02*
X0005059Y0087080D01*
X0005059Y0085882D02*
X0009013Y0085882D01*
X0009013Y0084683D02*
X0005059Y0084683D01*
X0005059Y0083485D02*
X0009431Y0083485D01*
X0010189Y0082286D02*
X0005059Y0082286D01*
X0005059Y0081088D02*
X0011802Y0081088D01*
X0011986Y0079889D02*
X0005059Y0079889D01*
X0005059Y0078691D02*
X0010265Y0078691D01*
X0009463Y0077492D02*
X0005059Y0077492D01*
X0005059Y0076294D02*
X0009013Y0076294D01*
X0009013Y0075095D02*
X0005059Y0075095D01*
X0005059Y0073897D02*
X0009261Y0073897D01*
X0009777Y0072698D02*
X0005059Y0072698D01*
X0005059Y0071500D02*
X0010975Y0071500D01*
X0026650Y0071500D02*
X0056974Y0071500D01*
X0057679Y0072698D02*
X0027848Y0072698D01*
X0028364Y0073897D02*
X0105638Y0073897D01*
X0105822Y0074342D02*
X0105324Y0073138D01*
X0105324Y0071834D01*
X0105822Y0070630D01*
X0106744Y0069708D01*
X0107948Y0069210D01*
X0109252Y0069210D01*
X0110456Y0069708D01*
X0111378Y0070630D01*
X0111876Y0071834D01*
X0111876Y0073138D01*
X0111378Y0074342D01*
X0110983Y0074736D01*
X0111378Y0075130D01*
X0111876Y0076334D01*
X0111876Y0077638D01*
X0111378Y0078842D01*
X0110456Y0079764D01*
X0109252Y0080262D01*
X0107948Y0080262D01*
X0106744Y0079764D01*
X0105822Y0078842D01*
X0105324Y0077638D01*
X0105324Y0076334D01*
X0105822Y0075130D01*
X0106216Y0074736D01*
X0105822Y0074342D01*
X0105857Y0075095D02*
X0028613Y0075095D01*
X0028613Y0076294D02*
X0082159Y0076294D01*
X0082244Y0076208D02*
X0083448Y0075710D01*
X0084752Y0075710D01*
X0085956Y0076208D01*
X0086100Y0076353D01*
X0086244Y0076208D01*
X0087448Y0075710D01*
X0088752Y0075710D01*
X0089956Y0076208D01*
X0090878Y0077130D01*
X0091376Y0078334D01*
X0091376Y0079638D01*
X0090878Y0080842D01*
X0090733Y0080986D01*
X0090878Y0081130D01*
X0091376Y0082334D01*
X0091376Y0083638D01*
X0090878Y0084842D01*
X0089956Y0085764D01*
X0088752Y0086262D01*
X0087448Y0086262D01*
X0086244Y0085764D01*
X0086100Y0085620D01*
X0085956Y0085764D01*
X0084752Y0086262D01*
X0083448Y0086262D01*
X0082244Y0085764D01*
X0081322Y0084842D01*
X0080824Y0083638D01*
X0080824Y0082334D01*
X0081322Y0081130D01*
X0081466Y0080986D01*
X0081322Y0080842D01*
X0080824Y0079638D01*
X0080824Y0078334D01*
X0081322Y0077130D01*
X0082244Y0076208D01*
X0081172Y0077492D02*
X0048612Y0077492D01*
X0048597Y0077477D02*
X0049109Y0077989D01*
X0049534Y0078575D01*
X0049863Y0079220D01*
X0050087Y0079909D01*
X0050194Y0080586D01*
X0046000Y0080586D01*
X0046000Y0081386D01*
X0050194Y0081386D01*
X0050087Y0082063D01*
X0049863Y0082752D01*
X0049534Y0083397D01*
X0049109Y0083983D01*
X0048597Y0084495D01*
X0048011Y0084920D01*
X0047366Y0085249D01*
X0046677Y0085473D01*
X0046000Y0085580D01*
X0046000Y0081386D01*
X0045200Y0081386D01*
X0045200Y0080586D01*
X0046000Y0080586D01*
X0046000Y0076392D01*
X0046677Y0076499D01*
X0047366Y0076723D01*
X0048011Y0077052D01*
X0048597Y0077477D01*
X0049593Y0078691D02*
X0080824Y0078691D01*
X0080928Y0079889D02*
X0050080Y0079889D01*
X0050014Y0082286D02*
X0080844Y0082286D01*
X0080824Y0083485D02*
X0049470Y0083485D01*
X0048337Y0084683D02*
X0081257Y0084683D01*
X0082529Y0085882D02*
X0028613Y0085882D01*
X0028613Y0084683D02*
X0042863Y0084683D01*
X0042603Y0084495D02*
X0042091Y0083983D01*
X0041666Y0083397D01*
X0041337Y0082752D01*
X0041113Y0082063D01*
X0041006Y0081386D01*
X0045200Y0081386D01*
X0045200Y0085580D01*
X0044523Y0085473D01*
X0043834Y0085249D01*
X0043189Y0084920D01*
X0042603Y0084495D01*
X0041730Y0083485D02*
X0028194Y0083485D01*
X0027437Y0082286D02*
X0041186Y0082286D01*
X0041006Y0080586D02*
X0041113Y0079909D01*
X0041337Y0079220D01*
X0041666Y0078575D01*
X0042091Y0077989D01*
X0042603Y0077477D01*
X0043189Y0077052D01*
X0043834Y0076723D01*
X0044523Y0076499D01*
X0045200Y0076392D01*
X0045200Y0080586D01*
X0041006Y0080586D01*
X0041120Y0079889D02*
X0025640Y0079889D01*
X0025823Y0081088D02*
X0045200Y0081088D01*
X0046000Y0081088D02*
X0081365Y0081088D01*
X0085671Y0085882D02*
X0086529Y0085882D01*
X0089671Y0085882D02*
X0163920Y0085882D01*
X0163424Y0084683D02*
X0090943Y0084683D01*
X0091376Y0083485D02*
X0163335Y0083485D01*
X0163360Y0082286D02*
X0091356Y0082286D01*
X0090835Y0081088D02*
X0163856Y0081088D01*
X0164640Y0079889D02*
X0110153Y0079889D01*
X0111440Y0078691D02*
X0145775Y0078691D01*
X0145948Y0078762D02*
X0144744Y0078264D01*
X0143822Y0077342D01*
X0143324Y0076138D01*
X0143324Y0074834D01*
X0143822Y0073630D01*
X0144744Y0072708D01*
X0145948Y0072210D01*
X0147252Y0072210D01*
X0148456Y0072708D01*
X0148600Y0072853D01*
X0148744Y0072708D01*
X0149948Y0072210D01*
X0151252Y0072210D01*
X0152456Y0072708D01*
X0152600Y0072853D01*
X0152744Y0072708D01*
X0153948Y0072210D01*
X0155252Y0072210D01*
X0156456Y0072708D01*
X0157378Y0073630D01*
X0157876Y0074834D01*
X0157876Y0076138D01*
X0157378Y0077342D01*
X0156456Y0078264D01*
X0155252Y0078762D01*
X0153948Y0078762D01*
X0152744Y0078264D01*
X0152600Y0078120D01*
X0152456Y0078264D01*
X0151252Y0078762D01*
X0149948Y0078762D01*
X0148744Y0078264D01*
X0148600Y0078120D01*
X0148456Y0078264D01*
X0147252Y0078762D01*
X0145948Y0078762D01*
X0147425Y0078691D02*
X0149775Y0078691D01*
X0151425Y0078691D02*
X0153775Y0078691D01*
X0155425Y0078691D02*
X0166103Y0078691D01*
X0165050Y0077492D02*
X0157227Y0077492D01*
X0157812Y0076294D02*
X0164026Y0076294D01*
X0163529Y0075095D02*
X0157876Y0075095D01*
X0157488Y0073897D02*
X0163335Y0073897D01*
X0163335Y0072698D02*
X0156431Y0072698D01*
X0152769Y0072698D02*
X0152431Y0072698D01*
X0148769Y0072698D02*
X0148431Y0072698D01*
X0144769Y0072698D02*
X0111876Y0072698D01*
X0111738Y0071500D02*
X0163751Y0071500D01*
X0164386Y0070301D02*
X0142865Y0070301D01*
X0142956Y0070264D02*
X0141752Y0070762D01*
X0140448Y0070762D01*
X0139244Y0070264D01*
X0138850Y0069870D01*
X0138456Y0070264D01*
X0137252Y0070762D01*
X0135948Y0070762D01*
X0134744Y0070264D01*
X0134350Y0069870D01*
X0133956Y0070264D01*
X0132752Y0070762D01*
X0131448Y0070762D01*
X0130244Y0070264D01*
X0129322Y0069342D01*
X0128824Y0068138D01*
X0128824Y0066834D01*
X0129322Y0065630D01*
X0130244Y0064708D01*
X0131448Y0064210D01*
X0132752Y0064210D01*
X0133956Y0064708D01*
X0134350Y0065103D01*
X0134744Y0064708D01*
X0135948Y0064210D01*
X0137252Y0064210D01*
X0138456Y0064708D01*
X0138850Y0065103D01*
X0139244Y0064708D01*
X0140448Y0064210D01*
X0141752Y0064210D01*
X0142956Y0064708D01*
X0143878Y0065630D01*
X0144376Y0066834D01*
X0144376Y0068138D01*
X0143878Y0069342D01*
X0142956Y0070264D01*
X0143977Y0069103D02*
X0165584Y0069103D01*
X0168941Y0067904D02*
X0144376Y0067904D01*
X0144323Y0066706D02*
X0169213Y0066706D01*
X0169793Y0065507D02*
X0143755Y0065507D01*
X0141991Y0064309D02*
X0171035Y0064309D01*
X0176165Y0064309D02*
X0196833Y0064309D01*
X0195634Y0065507D02*
X0177407Y0065507D01*
X0177987Y0066706D02*
X0194436Y0066706D01*
X0193237Y0067904D02*
X0178259Y0067904D01*
X0181616Y0069103D02*
X0192039Y0069103D01*
X0190840Y0070301D02*
X0182814Y0070301D01*
X0183449Y0071500D02*
X0189642Y0071500D01*
X0188443Y0072698D02*
X0183865Y0072698D01*
X0183865Y0073897D02*
X0187245Y0073897D01*
X0186046Y0075095D02*
X0183671Y0075095D01*
X0183174Y0076294D02*
X0184848Y0076294D01*
X0183649Y0077492D02*
X0182150Y0077492D01*
X0182451Y0078691D02*
X0181097Y0078691D01*
X0173763Y0085882D02*
X0173437Y0085882D01*
X0166477Y0088279D02*
X0049674Y0088279D01*
X0048483Y0087080D02*
X0164795Y0087080D01*
X0143973Y0077492D02*
X0111876Y0077492D01*
X0111860Y0076294D02*
X0143388Y0076294D01*
X0143324Y0075095D02*
X0111343Y0075095D01*
X0111562Y0073897D02*
X0143712Y0073897D01*
X0139335Y0070301D02*
X0138365Y0070301D01*
X0134835Y0070301D02*
X0133865Y0070301D01*
X0130335Y0070301D02*
X0111049Y0070301D01*
X0113822Y0068842D02*
X0113324Y0067638D01*
X0113324Y0066334D01*
X0113822Y0065130D01*
X0114744Y0064208D01*
X0115948Y0063710D01*
X0117252Y0063710D01*
X0118456Y0064208D01*
X0118600Y0064353D01*
X0118744Y0064208D01*
X0119948Y0063710D01*
X0121252Y0063710D01*
X0122456Y0064208D01*
X0123378Y0065130D01*
X0123876Y0066334D01*
X0123876Y0067638D01*
X0123378Y0068842D01*
X0122456Y0069764D01*
X0121252Y0070262D01*
X0119948Y0070262D01*
X0118744Y0069764D01*
X0118600Y0069620D01*
X0118456Y0069764D01*
X0117252Y0070262D01*
X0115948Y0070262D01*
X0114744Y0069764D01*
X0113822Y0068842D01*
X0114083Y0069103D02*
X0105617Y0069103D01*
X0105456Y0069264D02*
X0104252Y0069762D01*
X0102948Y0069762D01*
X0101744Y0069264D01*
X0101350Y0068870D01*
X0100956Y0069264D01*
X0099752Y0069762D01*
X0098448Y0069762D01*
X0097244Y0069264D01*
X0096322Y0068342D01*
X0095824Y0067138D01*
X0095824Y0065834D01*
X0096322Y0064630D01*
X0097244Y0063708D01*
X0098448Y0063210D01*
X0099752Y0063210D01*
X0100956Y0063708D01*
X0101350Y0064103D01*
X0101744Y0063708D01*
X0102948Y0063210D01*
X0104252Y0063210D01*
X0105456Y0063708D01*
X0106378Y0064630D01*
X0106876Y0065834D01*
X0106876Y0067138D01*
X0106378Y0068342D01*
X0105456Y0069264D01*
X0106151Y0070301D02*
X0063376Y0070301D01*
X0063226Y0071500D02*
X0105462Y0071500D01*
X0105324Y0072698D02*
X0062521Y0072698D01*
X0063073Y0069103D02*
X0078583Y0069103D01*
X0078322Y0068842D02*
X0077824Y0067638D01*
X0077824Y0066334D01*
X0078322Y0065130D01*
X0079244Y0064208D01*
X0080448Y0063710D01*
X0081752Y0063710D01*
X0082956Y0064208D01*
X0083350Y0064603D01*
X0083744Y0064208D01*
X0084948Y0063710D01*
X0086252Y0063710D01*
X0087456Y0064208D01*
X0088378Y0065130D01*
X0088876Y0066334D01*
X0088876Y0067638D01*
X0088378Y0068842D01*
X0087456Y0069764D01*
X0086252Y0070262D01*
X0084948Y0070262D01*
X0083744Y0069764D01*
X0083350Y0069370D01*
X0082956Y0069764D01*
X0081752Y0070262D01*
X0080448Y0070262D01*
X0079244Y0069764D01*
X0078322Y0068842D01*
X0077934Y0067904D02*
X0063059Y0067904D01*
X0063376Y0066706D02*
X0077824Y0066706D01*
X0078166Y0065507D02*
X0063241Y0065507D01*
X0062556Y0064309D02*
X0079144Y0064309D01*
X0083056Y0064309D02*
X0083644Y0064309D01*
X0087556Y0064309D02*
X0096644Y0064309D01*
X0095959Y0065507D02*
X0088534Y0065507D01*
X0088876Y0066706D02*
X0095824Y0066706D01*
X0096141Y0067904D02*
X0088766Y0067904D01*
X0088117Y0069103D02*
X0097083Y0069103D01*
X0101117Y0069103D02*
X0101583Y0069103D01*
X0106559Y0067904D02*
X0113434Y0067904D01*
X0113324Y0066706D02*
X0106876Y0066706D01*
X0106741Y0065507D02*
X0113666Y0065507D01*
X0114644Y0064309D02*
X0106056Y0064309D01*
X0118556Y0064309D02*
X0118644Y0064309D01*
X0122556Y0064309D02*
X0131209Y0064309D01*
X0132991Y0064309D02*
X0135709Y0064309D01*
X0137491Y0064309D02*
X0140209Y0064309D01*
X0129445Y0065507D02*
X0123534Y0065507D01*
X0123876Y0066706D02*
X0128877Y0066706D01*
X0128824Y0067904D02*
X0123766Y0067904D01*
X0123117Y0069103D02*
X0129223Y0069103D01*
X0107047Y0079889D02*
X0091272Y0079889D01*
X0091376Y0078691D02*
X0105760Y0078691D01*
X0105324Y0077492D02*
X0091028Y0077492D01*
X0090041Y0076294D02*
X0105340Y0076294D01*
X0086159Y0076294D02*
X0086041Y0076294D01*
X0046000Y0077492D02*
X0045200Y0077492D01*
X0045200Y0078691D02*
X0046000Y0078691D01*
X0046000Y0079889D02*
X0045200Y0079889D01*
X0045200Y0082286D02*
X0046000Y0082286D01*
X0046000Y0083485D02*
X0045200Y0083485D01*
X0045200Y0084683D02*
X0046000Y0084683D01*
X0042717Y0087080D02*
X0028333Y0087080D01*
X0027773Y0088279D02*
X0041526Y0088279D01*
X0041029Y0089477D02*
X0026574Y0089477D01*
X0027361Y0078691D02*
X0041607Y0078691D01*
X0042588Y0077492D02*
X0028162Y0077492D01*
X0009936Y0037941D02*
X0005059Y0037941D01*
X0005059Y0036743D02*
X0009396Y0036743D01*
X0005059Y0028353D02*
X0045620Y0028353D01*
X0045324Y0027155D02*
X0005059Y0027155D01*
X0005059Y0025956D02*
X0045480Y0025956D01*
X0046195Y0024758D02*
X0005059Y0024758D01*
X0110435Y0011574D02*
X0116450Y0011574D01*
X0114599Y0012773D02*
X0112286Y0012773D01*
X0113230Y0013971D02*
X0113655Y0013971D01*
X0305350Y0069103D02*
X0319547Y0069103D01*
X0320761Y0070301D02*
X0305863Y0070301D01*
X0305876Y0071500D02*
X0321976Y0071500D01*
X0323190Y0072698D02*
X0305437Y0072698D01*
D17*
X0284600Y0228986D03*
X0354600Y0236986D03*
D18*
X0348915Y0232301D01*
X0348915Y0215080D01*
D19*
X0462600Y0189986D02*
X0462600Y0169986D01*
M02*
