G75*
%MOIN*%
%OFA0B0*%
%FSLAX25Y25*%
%IPPOS*%
%LPD*%
%AMOC8*
5,1,8,0,0,1.08239X$1,22.5*
%
%ADD10R,0.04961X0.01417*%
%ADD11R,0.03937X0.04331*%
%ADD12R,0.02362X0.05906*%
%ADD13R,0.01575X0.05906*%
%ADD14R,0.06000X0.07000*%
%ADD15R,0.04331X0.03937*%
%ADD16R,0.08661X0.02362*%
%ADD17R,0.05512X0.03937*%
%ADD18R,0.12500X0.12500*%
%ADD19C,0.07874*%
%ADD20R,0.01181X0.03150*%
%ADD21R,0.03150X0.01181*%
%ADD22R,0.03543X0.01260*%
%ADD23R,0.04724X0.02362*%
%ADD24R,0.03937X0.05512*%
%ADD25R,0.02362X0.08661*%
%ADD26R,0.04724X0.13780*%
D10*
X0071113Y0072309D03*
X0071113Y0074868D03*
X0071113Y0077427D03*
X0071113Y0079986D03*
X0071113Y0082545D03*
X0071113Y0085104D03*
X0071113Y0087663D03*
X0094087Y0087663D03*
X0094087Y0085104D03*
X0094087Y0082545D03*
X0094087Y0079986D03*
X0094087Y0077427D03*
X0094087Y0074868D03*
X0094087Y0072309D03*
D11*
X0046100Y0042640D03*
X0052100Y0042640D03*
X0052100Y0049332D03*
X0046100Y0049332D03*
X0064100Y0049332D03*
X0070100Y0049332D03*
X0070100Y0042640D03*
X0064100Y0042640D03*
X0082100Y0042640D03*
X0088100Y0042640D03*
X0088100Y0049332D03*
X0082100Y0049332D03*
X0100100Y0049332D03*
X0106100Y0049332D03*
X0106100Y0042640D03*
X0100100Y0042640D03*
X0118100Y0042640D03*
X0124100Y0042640D03*
X0124100Y0049332D03*
X0118100Y0049332D03*
X0136100Y0049332D03*
X0142100Y0049332D03*
X0142100Y0042640D03*
X0136100Y0042640D03*
X0161100Y0055640D03*
X0167600Y0055640D03*
X0167600Y0062332D03*
X0161100Y0062332D03*
X0179100Y0062332D03*
X0186100Y0062332D03*
X0186100Y0055640D03*
X0179100Y0055640D03*
X0152600Y0080640D03*
X0146600Y0080640D03*
X0146600Y0087332D03*
X0152600Y0087332D03*
X0218600Y0082332D03*
X0218600Y0075640D03*
X0218600Y0064332D03*
X0218600Y0057640D03*
X0218600Y0097640D03*
X0218600Y0104332D03*
X0218600Y0115640D03*
X0218600Y0122332D03*
X0211600Y0140640D03*
X0211600Y0147332D03*
X0204600Y0147332D03*
X0204600Y0140640D03*
X0218600Y0155640D03*
X0218600Y0162332D03*
X0218600Y0173640D03*
X0218600Y0180332D03*
X0218600Y0195640D03*
X0218600Y0202332D03*
X0218600Y0214640D03*
X0218600Y0221332D03*
X0126600Y0190832D03*
X0120100Y0190832D03*
X0120100Y0184140D03*
X0126600Y0184140D03*
X0107600Y0203640D03*
X0107600Y0210332D03*
X0077600Y0214140D03*
X0077600Y0220832D03*
X0048600Y0179832D03*
X0048600Y0173140D03*
X0048600Y0152832D03*
X0048600Y0146140D03*
X0087100Y0140332D03*
X0093100Y0140332D03*
X0093100Y0133640D03*
X0087100Y0133640D03*
X0062100Y0097332D03*
X0062100Y0090640D03*
X0341600Y0258140D03*
X0341600Y0264832D03*
X0370100Y0271640D03*
X0370100Y0278332D03*
X0377100Y0264832D03*
X0383600Y0264832D03*
X0390100Y0264832D03*
X0396600Y0264832D03*
X0396600Y0258140D03*
X0390100Y0258140D03*
X0383600Y0258140D03*
X0377100Y0258140D03*
X0377100Y0251332D03*
X0377100Y0244640D03*
X0396600Y0271640D03*
X0396600Y0278332D03*
D12*
X0135100Y0139616D03*
X0130100Y0139616D03*
X0125100Y0139616D03*
X0120100Y0139616D03*
X0115100Y0139616D03*
X0110100Y0139616D03*
X0105100Y0139616D03*
X0100100Y0139616D03*
X0100100Y0118356D03*
X0105100Y0118356D03*
X0110100Y0118356D03*
X0115100Y0118356D03*
X0120100Y0118356D03*
X0125100Y0118356D03*
X0130100Y0118356D03*
X0135100Y0118356D03*
D13*
X0163966Y0127714D03*
X0166525Y0127714D03*
X0169084Y0127714D03*
X0171643Y0127714D03*
X0174202Y0127714D03*
X0176761Y0127714D03*
X0179320Y0127714D03*
X0181880Y0127714D03*
X0184439Y0127714D03*
X0186998Y0127714D03*
X0189557Y0127714D03*
X0192116Y0127714D03*
X0194675Y0127714D03*
X0197234Y0127714D03*
X0197234Y0156258D03*
X0194675Y0156258D03*
X0192116Y0156258D03*
X0189557Y0156258D03*
X0186998Y0156258D03*
X0184439Y0156258D03*
X0181880Y0156258D03*
X0179320Y0156258D03*
X0176761Y0156258D03*
X0174202Y0156258D03*
X0171643Y0156258D03*
X0169084Y0156258D03*
X0166525Y0156258D03*
X0163966Y0156258D03*
D14*
X0228850Y0153986D03*
X0228850Y0163986D03*
X0228850Y0173986D03*
X0228850Y0183986D03*
X0228850Y0193986D03*
X0228850Y0203986D03*
X0228850Y0213986D03*
X0228850Y0223986D03*
X0266350Y0223986D03*
X0266350Y0213986D03*
X0266350Y0203986D03*
X0266350Y0193986D03*
X0266350Y0183986D03*
X0266350Y0173986D03*
X0266350Y0163986D03*
X0266350Y0153986D03*
X0266350Y0124986D03*
X0266350Y0114986D03*
X0266350Y0104986D03*
X0266350Y0094986D03*
X0266350Y0084986D03*
X0266350Y0074986D03*
X0266350Y0064986D03*
X0266350Y0054986D03*
X0228850Y0054986D03*
X0228850Y0064986D03*
X0228850Y0074986D03*
X0228850Y0084986D03*
X0228850Y0094986D03*
X0228850Y0104986D03*
X0228850Y0114986D03*
X0228850Y0124986D03*
D15*
X0277254Y0152986D03*
X0283946Y0152986D03*
X0283946Y0164986D03*
X0283946Y0170986D03*
X0277254Y0170986D03*
X0277254Y0164986D03*
X0277254Y0184986D03*
X0277254Y0190986D03*
X0283946Y0190986D03*
X0283946Y0184986D03*
X0283946Y0204986D03*
X0283946Y0210986D03*
X0277254Y0210986D03*
X0277254Y0204986D03*
X0277254Y0222986D03*
X0283946Y0222986D03*
X0337254Y0243986D03*
X0343946Y0243986D03*
X0383754Y0244486D03*
X0390446Y0244486D03*
X0390446Y0251486D03*
X0383754Y0251486D03*
X0286946Y0124986D03*
X0280254Y0124986D03*
X0280254Y0112986D03*
X0280254Y0106986D03*
X0286946Y0106986D03*
X0286946Y0112986D03*
X0286946Y0092986D03*
X0286946Y0086986D03*
X0280254Y0086986D03*
X0280254Y0092986D03*
X0280254Y0072986D03*
X0280254Y0066986D03*
X0286946Y0066986D03*
X0286946Y0072986D03*
X0286946Y0054986D03*
X0280254Y0054986D03*
X0096946Y0237486D03*
X0090254Y0237486D03*
D16*
X0116364Y0087486D03*
X0116364Y0082486D03*
X0116364Y0077486D03*
X0116364Y0072486D03*
X0136836Y0072486D03*
X0136836Y0077486D03*
X0136836Y0082486D03*
X0136836Y0087486D03*
D17*
X0137269Y0061726D03*
X0137269Y0054246D03*
X0145931Y0057986D03*
X0127931Y0057986D03*
X0119269Y0054246D03*
X0119269Y0061726D03*
X0109931Y0057986D03*
X0101269Y0054246D03*
X0101269Y0061726D03*
X0091931Y0057986D03*
X0083269Y0054246D03*
X0083269Y0061726D03*
X0073931Y0057986D03*
X0065269Y0054246D03*
X0065269Y0061726D03*
X0055931Y0057986D03*
X0047269Y0054246D03*
X0047269Y0061726D03*
X0377769Y0272746D03*
X0377769Y0280226D03*
X0386431Y0276486D03*
D18*
X0199600Y0219486D03*
X0137600Y0219486D03*
D19*
X0164663Y0219486D02*
X0164665Y0219611D01*
X0164671Y0219736D01*
X0164681Y0219860D01*
X0164695Y0219984D01*
X0164712Y0220108D01*
X0164734Y0220231D01*
X0164760Y0220353D01*
X0164789Y0220475D01*
X0164822Y0220595D01*
X0164860Y0220714D01*
X0164900Y0220833D01*
X0164945Y0220949D01*
X0164993Y0221064D01*
X0165045Y0221178D01*
X0165101Y0221290D01*
X0165160Y0221400D01*
X0165222Y0221508D01*
X0165288Y0221615D01*
X0165357Y0221719D01*
X0165430Y0221820D01*
X0165505Y0221920D01*
X0165584Y0222017D01*
X0165666Y0222111D01*
X0165751Y0222203D01*
X0165838Y0222292D01*
X0165929Y0222378D01*
X0166022Y0222461D01*
X0166118Y0222542D01*
X0166216Y0222619D01*
X0166316Y0222693D01*
X0166419Y0222764D01*
X0166524Y0222831D01*
X0166632Y0222896D01*
X0166741Y0222956D01*
X0166852Y0223014D01*
X0166965Y0223067D01*
X0167079Y0223117D01*
X0167195Y0223164D01*
X0167312Y0223206D01*
X0167431Y0223245D01*
X0167551Y0223281D01*
X0167672Y0223312D01*
X0167794Y0223340D01*
X0167916Y0223363D01*
X0168040Y0223383D01*
X0168164Y0223399D01*
X0168288Y0223411D01*
X0168413Y0223419D01*
X0168538Y0223423D01*
X0168662Y0223423D01*
X0168787Y0223419D01*
X0168912Y0223411D01*
X0169036Y0223399D01*
X0169160Y0223383D01*
X0169284Y0223363D01*
X0169406Y0223340D01*
X0169528Y0223312D01*
X0169649Y0223281D01*
X0169769Y0223245D01*
X0169888Y0223206D01*
X0170005Y0223164D01*
X0170121Y0223117D01*
X0170235Y0223067D01*
X0170348Y0223014D01*
X0170459Y0222956D01*
X0170569Y0222896D01*
X0170676Y0222831D01*
X0170781Y0222764D01*
X0170884Y0222693D01*
X0170984Y0222619D01*
X0171082Y0222542D01*
X0171178Y0222461D01*
X0171271Y0222378D01*
X0171362Y0222292D01*
X0171449Y0222203D01*
X0171534Y0222111D01*
X0171616Y0222017D01*
X0171695Y0221920D01*
X0171770Y0221820D01*
X0171843Y0221719D01*
X0171912Y0221615D01*
X0171978Y0221508D01*
X0172040Y0221400D01*
X0172099Y0221290D01*
X0172155Y0221178D01*
X0172207Y0221064D01*
X0172255Y0220949D01*
X0172300Y0220833D01*
X0172340Y0220714D01*
X0172378Y0220595D01*
X0172411Y0220475D01*
X0172440Y0220353D01*
X0172466Y0220231D01*
X0172488Y0220108D01*
X0172505Y0219984D01*
X0172519Y0219860D01*
X0172529Y0219736D01*
X0172535Y0219611D01*
X0172537Y0219486D01*
X0172535Y0219361D01*
X0172529Y0219236D01*
X0172519Y0219112D01*
X0172505Y0218988D01*
X0172488Y0218864D01*
X0172466Y0218741D01*
X0172440Y0218619D01*
X0172411Y0218497D01*
X0172378Y0218377D01*
X0172340Y0218258D01*
X0172300Y0218139D01*
X0172255Y0218023D01*
X0172207Y0217908D01*
X0172155Y0217794D01*
X0172099Y0217682D01*
X0172040Y0217572D01*
X0171978Y0217464D01*
X0171912Y0217357D01*
X0171843Y0217253D01*
X0171770Y0217152D01*
X0171695Y0217052D01*
X0171616Y0216955D01*
X0171534Y0216861D01*
X0171449Y0216769D01*
X0171362Y0216680D01*
X0171271Y0216594D01*
X0171178Y0216511D01*
X0171082Y0216430D01*
X0170984Y0216353D01*
X0170884Y0216279D01*
X0170781Y0216208D01*
X0170676Y0216141D01*
X0170568Y0216076D01*
X0170459Y0216016D01*
X0170348Y0215958D01*
X0170235Y0215905D01*
X0170121Y0215855D01*
X0170005Y0215808D01*
X0169888Y0215766D01*
X0169769Y0215727D01*
X0169649Y0215691D01*
X0169528Y0215660D01*
X0169406Y0215632D01*
X0169284Y0215609D01*
X0169160Y0215589D01*
X0169036Y0215573D01*
X0168912Y0215561D01*
X0168787Y0215553D01*
X0168662Y0215549D01*
X0168538Y0215549D01*
X0168413Y0215553D01*
X0168288Y0215561D01*
X0168164Y0215573D01*
X0168040Y0215589D01*
X0167916Y0215609D01*
X0167794Y0215632D01*
X0167672Y0215660D01*
X0167551Y0215691D01*
X0167431Y0215727D01*
X0167312Y0215766D01*
X0167195Y0215808D01*
X0167079Y0215855D01*
X0166965Y0215905D01*
X0166852Y0215958D01*
X0166741Y0216016D01*
X0166631Y0216076D01*
X0166524Y0216141D01*
X0166419Y0216208D01*
X0166316Y0216279D01*
X0166216Y0216353D01*
X0166118Y0216430D01*
X0166022Y0216511D01*
X0165929Y0216594D01*
X0165838Y0216680D01*
X0165751Y0216769D01*
X0165666Y0216861D01*
X0165584Y0216955D01*
X0165505Y0217052D01*
X0165430Y0217152D01*
X0165357Y0217253D01*
X0165288Y0217357D01*
X0165222Y0217464D01*
X0165160Y0217572D01*
X0165101Y0217682D01*
X0165045Y0217794D01*
X0164993Y0217908D01*
X0164945Y0218023D01*
X0164900Y0218139D01*
X0164860Y0218258D01*
X0164822Y0218377D01*
X0164789Y0218497D01*
X0164760Y0218619D01*
X0164734Y0218741D01*
X0164712Y0218864D01*
X0164695Y0218988D01*
X0164681Y0219112D01*
X0164671Y0219236D01*
X0164665Y0219361D01*
X0164663Y0219486D01*
D20*
X0114990Y0102832D03*
X0113021Y0102832D03*
X0111053Y0102832D03*
X0109084Y0102832D03*
X0107116Y0102832D03*
X0105147Y0102832D03*
X0103179Y0102832D03*
X0101210Y0102832D03*
X0101210Y0096336D03*
X0103179Y0096336D03*
X0105147Y0096336D03*
X0107116Y0096336D03*
X0109084Y0096336D03*
X0111053Y0096336D03*
X0113021Y0096336D03*
X0114990Y0096336D03*
D21*
X0077946Y0099596D03*
X0077946Y0101565D03*
X0077946Y0103533D03*
X0077946Y0105502D03*
X0077946Y0107470D03*
X0077946Y0109439D03*
X0077946Y0111407D03*
X0077946Y0113376D03*
X0071450Y0113376D03*
X0071450Y0111407D03*
X0071450Y0109439D03*
X0071450Y0107470D03*
X0071450Y0105502D03*
X0071450Y0103533D03*
X0071450Y0101565D03*
X0071450Y0099596D03*
D22*
X0350742Y0247549D03*
X0350742Y0249518D03*
X0350742Y0251486D03*
X0350742Y0253455D03*
X0350742Y0255423D03*
X0368458Y0255423D03*
X0368458Y0253455D03*
X0368458Y0251486D03*
X0368458Y0249518D03*
X0368458Y0247549D03*
D23*
X0112950Y0191986D03*
X0112950Y0186986D03*
X0112950Y0181986D03*
X0112950Y0176986D03*
X0112950Y0171986D03*
X0112950Y0166986D03*
X0112950Y0161986D03*
X0112950Y0156986D03*
X0112950Y0151986D03*
X0075250Y0151986D03*
X0075250Y0156986D03*
X0075250Y0161986D03*
X0075250Y0166986D03*
X0075250Y0171986D03*
X0075250Y0176986D03*
X0075250Y0181986D03*
X0075250Y0186986D03*
X0075250Y0191986D03*
D24*
X0111600Y0221155D03*
X0107860Y0229817D03*
X0115340Y0229817D03*
D25*
X0101100Y0227222D03*
X0096100Y0227222D03*
X0091100Y0227222D03*
X0086100Y0227222D03*
X0086100Y0206750D03*
X0091100Y0206750D03*
X0096100Y0206750D03*
X0101100Y0206750D03*
D26*
X0060100Y0173813D03*
X0060100Y0152159D03*
M02*
