G75*
%MOIN*%
%OFA0B0*%
%FSLAX25Y25*%
%IPPOS*%
%LPD*%
%AMOC8*
5,1,8,0,0,1.08239X$1,22.5*
%
%ADD10C,0.11127*%
%ADD11C,0.07700*%
%ADD12R,0.04237X0.04631*%
%ADD13R,0.04631X0.04237*%
%ADD14R,0.06300X0.07300*%
%ADD15R,0.08174X0.06599*%
%ADD16R,0.02662X0.08961*%
%ADD17C,0.16048*%
%ADD18C,0.16835*%
%ADD19R,0.05300X0.02800*%
%ADD20R,0.02800X0.05300*%
%ADD21C,0.13300*%
%ADD22R,0.04237X0.05812*%
%ADD23R,0.01560X0.03843*%
%ADD24R,0.04631X0.07780*%
%ADD25R,0.06599X0.09355*%
%ADD26C,0.07900*%
%ADD27C,0.14300*%
%ADD28R,0.12800X0.30300*%
%ADD29R,0.03056X0.03056*%
%ADD30R,0.07387X0.07387*%
%ADD31C,0.05418*%
%ADD32C,0.07387*%
%ADD33OC8,0.07387*%
%ADD34C,0.06796*%
%ADD35C,0.03253*%
%ADD36C,0.03843*%
D10*
X0017907Y0015766D03*
X0210820Y0015766D03*
X0425820Y0015766D03*
X0466320Y0231612D03*
X0210820Y0244112D03*
X0017907Y0244112D03*
D11*
X0041600Y0247986D03*
X0051600Y0247986D03*
X0061600Y0247986D03*
X0023813Y0225451D03*
X0013813Y0225451D03*
X0013813Y0215451D03*
X0023813Y0215451D03*
X0023813Y0205451D03*
X0013813Y0205451D03*
X0013813Y0195451D03*
X0023813Y0195451D03*
X0023813Y0185451D03*
X0013813Y0185451D03*
X0013813Y0175451D03*
X0023813Y0175451D03*
X0023813Y0165451D03*
X0013813Y0165451D03*
X0013813Y0155451D03*
X0023813Y0155451D03*
X0023813Y0145451D03*
X0013813Y0145451D03*
X0013813Y0135451D03*
X0023813Y0135451D03*
X0023813Y0125451D03*
X0013813Y0125451D03*
X0013813Y0115451D03*
X0023813Y0115451D03*
X0023813Y0105451D03*
X0013813Y0105451D03*
X0013813Y0095451D03*
X0023813Y0095451D03*
X0023813Y0085451D03*
X0013813Y0085451D03*
X0013813Y0075451D03*
X0023813Y0075451D03*
X0023813Y0065451D03*
X0013813Y0065451D03*
X0013813Y0055451D03*
X0023813Y0055451D03*
X0023813Y0045451D03*
X0013813Y0045451D03*
X0013813Y0035451D03*
X0023813Y0035451D03*
X0045600Y0080986D03*
X0045600Y0090986D03*
X0045600Y0100986D03*
X0112100Y0247986D03*
X0122100Y0247986D03*
D12*
X0042600Y0221332D03*
X0035600Y0221332D03*
X0035600Y0214640D03*
X0042600Y0214640D03*
X0035600Y0231640D03*
X0035600Y0238332D03*
X0128100Y0179832D03*
X0134100Y0179832D03*
X0134100Y0173140D03*
X0128100Y0173140D03*
X0099600Y0124332D03*
X0093600Y0124332D03*
X0087600Y0124332D03*
X0081600Y0124332D03*
X0075600Y0124332D03*
X0069600Y0124332D03*
X0069600Y0117640D03*
X0075600Y0117640D03*
X0081600Y0117640D03*
X0087600Y0117640D03*
X0093600Y0117640D03*
X0099600Y0117640D03*
X0218600Y0155640D03*
X0218600Y0162332D03*
X0218600Y0173640D03*
X0218600Y0180332D03*
X0218600Y0195640D03*
X0218600Y0202332D03*
X0218600Y0214640D03*
X0218600Y0221332D03*
X0269100Y0096832D03*
X0269100Y0090140D03*
X0284600Y0084332D03*
X0291600Y0084332D03*
X0291600Y0077640D03*
X0284600Y0077640D03*
X0276100Y0046332D03*
X0276100Y0039640D03*
X0339600Y0083140D03*
X0339600Y0089832D03*
D13*
X0332946Y0082986D03*
X0332946Y0076986D03*
X0326254Y0076986D03*
X0326254Y0082986D03*
X0281946Y0065986D03*
X0275254Y0065986D03*
X0228946Y0088986D03*
X0222254Y0088986D03*
X0222254Y0095986D03*
X0228946Y0095986D03*
X0211946Y0073986D03*
X0211946Y0067486D03*
X0205254Y0067486D03*
X0205254Y0073986D03*
X0206946Y0113986D03*
X0200254Y0113986D03*
X0200254Y0121486D03*
X0206946Y0121486D03*
X0277254Y0124986D03*
X0283946Y0124986D03*
X0282946Y0152986D03*
X0276254Y0152986D03*
X0276254Y0164986D03*
X0282946Y0164986D03*
X0282946Y0170986D03*
X0276254Y0170986D03*
X0276254Y0184986D03*
X0282946Y0184986D03*
X0282946Y0190986D03*
X0276254Y0190986D03*
X0276254Y0205986D03*
X0282946Y0205986D03*
X0282946Y0211986D03*
X0276254Y0211986D03*
X0276254Y0222986D03*
X0282946Y0222986D03*
X0323254Y0133986D03*
X0329946Y0133986D03*
X0329946Y0127986D03*
X0323254Y0127986D03*
X0337254Y0127986D03*
X0343946Y0127986D03*
X0134946Y0166486D03*
X0128254Y0166486D03*
X0075446Y0083986D03*
X0068754Y0083986D03*
X0068754Y0077486D03*
X0075446Y0077486D03*
D14*
X0228850Y0153986D03*
X0228850Y0163986D03*
X0228850Y0173986D03*
X0228850Y0183986D03*
X0228850Y0193986D03*
X0228850Y0203986D03*
X0228850Y0213986D03*
X0228850Y0223986D03*
X0266350Y0223986D03*
X0266350Y0213986D03*
X0266350Y0203986D03*
X0266350Y0193986D03*
X0266350Y0183986D03*
X0266350Y0173986D03*
X0266350Y0163986D03*
X0266350Y0153986D03*
D15*
X0266380Y0134986D03*
X0266380Y0124986D03*
X0266380Y0114986D03*
X0266380Y0104986D03*
X0228820Y0104986D03*
X0228820Y0114986D03*
X0228820Y0124986D03*
X0228820Y0134986D03*
X0227820Y0075986D03*
X0227820Y0065986D03*
X0227820Y0055986D03*
X0227820Y0045986D03*
X0265380Y0045986D03*
X0265380Y0055986D03*
X0265380Y0065986D03*
X0265380Y0075986D03*
D16*
X0299100Y0078750D03*
X0304100Y0078750D03*
X0309100Y0078750D03*
X0314100Y0078750D03*
X0314100Y0099222D03*
X0309100Y0099222D03*
X0304100Y0099222D03*
X0299100Y0099222D03*
X0211100Y0104222D03*
X0206100Y0104222D03*
X0201100Y0104222D03*
X0196100Y0104222D03*
X0196100Y0083750D03*
X0201100Y0083750D03*
X0206100Y0083750D03*
X0211100Y0083750D03*
D17*
X0334506Y0161301D03*
X0348915Y0146892D03*
X0368600Y0141616D03*
X0388285Y0146892D03*
X0402694Y0161301D03*
X0407970Y0180986D03*
X0402694Y0200671D03*
X0388285Y0215080D03*
X0368600Y0220356D03*
X0348915Y0215080D03*
X0334506Y0200671D03*
X0329230Y0180986D03*
X0366510Y0108448D03*
X0379609Y0092836D03*
X0383147Y0072767D03*
X0360566Y0040517D03*
X0340497Y0036978D03*
D18*
X0376178Y0053616D03*
D19*
X0352100Y0121786D03*
X0352100Y0124986D03*
X0352100Y0128186D03*
X0294600Y0155786D03*
X0294600Y0158986D03*
X0294600Y0162186D03*
X0294600Y0174786D03*
X0294600Y0177986D03*
X0294600Y0181186D03*
X0294600Y0194786D03*
X0294600Y0197986D03*
X0294600Y0201186D03*
X0294600Y0214786D03*
X0294600Y0217986D03*
X0294600Y0221186D03*
X0041600Y0164686D03*
X0041600Y0161486D03*
X0041600Y0158286D03*
X0041600Y0151186D03*
X0041600Y0147986D03*
X0041600Y0144786D03*
D20*
X0336400Y0096986D03*
X0339600Y0096986D03*
X0342800Y0096986D03*
D21*
X0313600Y0032986D03*
X0293600Y0032986D03*
D22*
X0319860Y0092655D03*
X0327340Y0092655D03*
X0323600Y0101317D03*
X0319860Y0108655D03*
X0327340Y0108655D03*
X0323600Y0117317D03*
D23*
X0148037Y0172128D03*
X0146069Y0172128D03*
X0144100Y0172128D03*
X0142131Y0172128D03*
X0140163Y0172128D03*
X0140163Y0189844D03*
X0142131Y0189844D03*
X0144100Y0189844D03*
X0146069Y0189844D03*
X0148037Y0189844D03*
D24*
X0146021Y0200986D03*
X0136179Y0200986D03*
D25*
X0160100Y0192388D03*
X0160100Y0167584D03*
D26*
X0432600Y0152986D03*
X0432600Y0227986D03*
D27*
X0462600Y0189986D03*
X0462600Y0169986D03*
X0462600Y0138986D03*
X0462600Y0118986D03*
X0461100Y0083486D03*
X0461100Y0063486D03*
X0461100Y0039486D03*
X0461100Y0019486D03*
D28*
X0455600Y0264986D03*
X0435600Y0264986D03*
X0415600Y0264986D03*
D29*
X0054742Y0221045D03*
X0054742Y0215927D03*
X0054742Y0210045D03*
X0054742Y0204927D03*
X0047458Y0207486D03*
X0047458Y0218486D03*
D30*
X0118364Y0026407D03*
D31*
X0103600Y0031683D03*
X0173600Y0068289D03*
D32*
X0178521Y0073565D03*
X0178521Y0083407D03*
X0168679Y0083407D03*
X0108521Y0026407D03*
X0098679Y0026407D03*
X0088836Y0026407D03*
X0088836Y0016565D03*
X0098679Y0016565D03*
X0108521Y0016565D03*
X0118364Y0016565D03*
X0280021Y0246565D03*
X0280021Y0256407D03*
X0270179Y0256407D03*
D33*
X0270179Y0246565D03*
X0168679Y0073565D03*
D34*
X0270179Y0284675D03*
X0280021Y0284675D03*
D35*
X0341600Y0270486D03*
X0343600Y0252986D03*
X0402100Y0271486D03*
X0406100Y0265986D03*
X0406100Y0261486D03*
X0434600Y0247486D03*
X0455600Y0247486D03*
X0300600Y0207986D03*
X0295600Y0207986D03*
X0290600Y0207986D03*
X0290600Y0187986D03*
X0289600Y0167986D03*
X0294600Y0167986D03*
X0299600Y0167986D03*
X0283600Y0146986D03*
X0287600Y0130986D03*
X0292600Y0112986D03*
X0292600Y0108986D03*
X0305600Y0111986D03*
X0312600Y0111986D03*
X0333600Y0113986D03*
X0333600Y0108486D03*
X0339600Y0108486D03*
X0315600Y0129986D03*
X0315600Y0133986D03*
X0273600Y0109986D03*
X0293600Y0089986D03*
X0292600Y0070986D03*
X0297600Y0070986D03*
X0302600Y0070986D03*
X0293600Y0052986D03*
X0218600Y0050986D03*
X0173100Y0054986D03*
X0154600Y0075486D03*
X0150600Y0075486D03*
X0146600Y0075486D03*
X0141100Y0067486D03*
X0136600Y0067486D03*
X0132100Y0067486D03*
X0120600Y0066986D03*
X0116600Y0066986D03*
X0108600Y0072486D03*
X0108600Y0076986D03*
X0103600Y0066486D03*
X0099100Y0066486D03*
X0085600Y0066986D03*
X0081100Y0066986D03*
X0084100Y0078986D03*
X0088100Y0078986D03*
X0088100Y0082986D03*
X0084100Y0082986D03*
X0061600Y0078986D03*
X0060100Y0070486D03*
X0060100Y0066486D03*
X0051600Y0066986D03*
X0047100Y0066986D03*
X0041600Y0048986D03*
X0059100Y0048986D03*
X0077100Y0048986D03*
X0095100Y0048986D03*
X0113100Y0048986D03*
X0131100Y0048986D03*
X0137100Y0091986D03*
X0135600Y0112986D03*
X0129600Y0112986D03*
X0125100Y0112986D03*
X0120100Y0112986D03*
X0115100Y0112986D03*
X0110100Y0112986D03*
X0105100Y0112986D03*
X0100100Y0112986D03*
X0095600Y0110486D03*
X0092100Y0108486D03*
X0089100Y0106486D03*
X0085600Y0104486D03*
X0082600Y0102486D03*
X0062100Y0102486D03*
X0100100Y0132986D03*
X0105100Y0132986D03*
X0105600Y0146486D03*
X0101100Y0146486D03*
X0110100Y0146486D03*
X0105100Y0161986D03*
X0121600Y0165486D03*
X0128600Y0161486D03*
X0121600Y0174986D03*
X0134100Y0185486D03*
X0120100Y0195986D03*
X0107600Y0197986D03*
X0095600Y0199486D03*
X0095600Y0195486D03*
X0091100Y0195486D03*
X0091100Y0199486D03*
X0107600Y0214986D03*
X0117100Y0216486D03*
X0117100Y0220486D03*
X0141600Y0208486D03*
X0152600Y0188986D03*
X0152600Y0184986D03*
X0105600Y0181986D03*
X0054600Y0199986D03*
X0048600Y0223486D03*
X0054100Y0225986D03*
X0039100Y0226486D03*
X0035600Y0157986D03*
X0083100Y0144986D03*
X0130100Y0145986D03*
X0147100Y0135986D03*
X0149600Y0142486D03*
X0135100Y0132986D03*
X0135100Y0128986D03*
X0176100Y0110486D03*
X0180600Y0110486D03*
X0185100Y0110486D03*
X0189600Y0110486D03*
X0190600Y0120986D03*
X0186600Y0120986D03*
X0194600Y0120986D03*
X0181600Y0138986D03*
X0193600Y0141986D03*
X0201100Y0156586D03*
X0205100Y0156586D03*
X0211600Y0154986D03*
X0202600Y0175986D03*
X0202600Y0182986D03*
X0202600Y0189986D03*
X0202600Y0196986D03*
X0218600Y0187986D03*
X0211600Y0220986D03*
X0268100Y0234486D03*
X0272600Y0234486D03*
X0277100Y0234486D03*
X0281600Y0234486D03*
X0281600Y0238986D03*
X0277100Y0238986D03*
X0272600Y0238986D03*
X0268100Y0238986D03*
X0218600Y0128986D03*
X0211600Y0095986D03*
X0063100Y0032986D03*
X0048600Y0026986D03*
D36*
X0284600Y0228986D03*
X0354600Y0236986D03*
M02*
