%
M48
M72
T01C0.0197
T02C0.0236
T03C0.0400
T04C0.0472
T05C0.0512
T06C0.0650
T07C0.0787
T08C0.0810
T09C0.0840
T10C0.1083
T11C0.1654
%
T01
X4860Y2699
X6310Y3299
X5910Y4899
X4160Y4899
X6010Y6649
X6010Y7049
X6160Y7899
X5160Y6699
X4710Y6699
X8110Y6699
X8560Y6699
X8410Y7899
X8410Y8299
X8810Y8299
X8810Y7899
X9910Y6649
X10360Y6649
X10860Y7249
X10860Y7699
X11660Y6699
X12060Y6699
X13210Y6749
X13660Y6749
X14110Y6749
X14660Y7549
X15060Y7549
X15460Y7549
X13710Y9199
X13560Y11299
X12960Y11299
X12510Y11299
X12010Y11299
X11510Y11299
X11010Y11299
X10510Y11299
X10010Y11299
X9560Y11049
X9210Y10849
X8910Y10649
X8560Y10449
X8260Y10249
X6210Y10249
X10010Y13299
X10510Y13299
X10560Y14649
X10110Y14649
X11010Y14649
X10510Y16199
X12160Y16549
X12860Y16149
X12160Y17499
X13410Y18549
X12010Y19599
X10760Y19799
X9560Y19949
X9560Y19549
X9110Y19549
X9110Y19949
X10760Y21499
X11710Y21649
X11710Y22049
X14160Y20849
X15260Y18899
X15260Y18499
X10560Y18199
X5460Y19999
X4860Y22349
X5410Y22599
X3910Y22649
X3560Y15799
X8310Y14499
X13010Y14599
X14710Y13599
X14960Y14249
X13510Y13299
X13510Y12899
X17610Y11049
X18060Y11049
X18510Y11049
X18960Y11049
X19060Y12099
X18660Y12099
X19460Y12099
X18160Y13899
X19360Y14199
X20110Y15659
X20510Y15659
X21160Y15499
X20260Y17599
X20260Y18299
X20260Y18999
X20260Y19699
X21860Y18799
X21160Y22099
X26810Y23449
X26810Y23899
X27260Y23899
X27710Y23899
X28160Y23899
X28160Y23449
X27710Y23449
X27260Y23449
X29060Y20799
X29560Y20799
X30060Y20799
X29060Y18799
X28960Y16799
X29460Y16799
X29960Y16799
X28360Y14699
X28760Y13099
X29260Y11299
X29260Y10899
X30560Y11199
X31260Y11199
X33360Y11399
X33360Y10849
X33960Y10849
X31560Y12999
X31560Y13399
X27360Y10999
X29360Y8999
X29260Y7099
X29760Y7099
X30260Y7099
X29360Y5299
X21860Y5099
X17310Y5499
X13110Y4899
X11310Y4899
X9510Y4899
X7710Y4899
X21160Y9599
X21860Y12899
X34360Y25299
X34160Y27049
X40210Y27149
X40610Y26599
X40610Y26149
X43460Y24749
X45560Y24749
T02
X35460Y23699
X28460Y22899
T03
X43260Y22799
X43260Y15299
X12210Y24799
X11210Y24799
X6160Y24799
X5160Y24799
X4160Y24799
X2381Y22545
X1381Y22545
X1381Y21545
X2381Y21545
X2381Y20545
X1381Y20545
X1381Y19545
X2381Y19545
X2381Y18545
X1381Y18545
X1381Y17545
X2381Y17545
X2381Y16545
X1381Y16545
X1381Y15545
X2381Y15545
X2381Y14545
X1381Y14545
X1381Y13545
X2381Y13545
X2381Y12545
X1381Y12545
X1381Y11545
X2381Y11545
X2381Y10545
X1381Y10545
X1381Y9545
X2381Y9545
X2381Y8545
X1381Y8545
X1381Y7545
X2381Y7545
X2381Y6545
X1381Y6545
X1381Y5545
X2381Y5545
X2381Y4545
X1381Y4545
X1381Y3545
X2381Y3545
X4560Y8099
X4560Y9099
X4560Y10099
T04
X8884Y2641
X9868Y2641
X10852Y2641
X11836Y2641
X11836Y1656
X10852Y1656
X9868Y1656
X8884Y1656
X16868Y7356
X17852Y7356
X17852Y8341
X16868Y8341
X27018Y24656
X28002Y24656
X28002Y25641
X27018Y25641
T05
X17360Y6829
X10360Y3168
T06
X27018Y28467
X28002Y28467
T07
X29360Y3299
X31360Y3299
T08
X46110Y3949
X46110Y1949
X46110Y6349
X46110Y8349
X46260Y11899
X46260Y13899
X46260Y16999
X46260Y18999
T09
X40797Y18099
X40269Y20067
X38829Y21508
X36860Y22036
X34891Y21508
X33451Y20067
X32923Y18099
X33451Y16130
X34891Y14689
X36860Y14162
X38829Y14689
X40269Y16130
X36651Y10845
X37961Y9284
X38315Y7277
X36057Y4052
X34050Y3698
T10
X1791Y1577
X21082Y1577
X42582Y1577
X46632Y23161
X21082Y24411
X1791Y24411
T11
X37618Y5362
M30
