<svg class="svg-icon" style="width: 1em; height: 1em;vertical-align: middle;fill: currentColor;overflow: hidden;" viewBox="0 0 1024 1024" version="1.1" xmlns="http://www.w3.org/2000/svg"><path d="M490.666667 42.666667A64 64 0 0 0 426.666667 106.666667v512c-26.88 20.053333-42.666667 51.626667-42.666667 85.333333a106.666667 106.666667 0 0 0 106.666667 106.666667 106.666667 106.666667 0 0 0 106.666666-106.666667c0-33.706667-15.786667-64-42.666666-85.333333V554.666667h170.666666v-85.333334h-170.666666V384h170.666666V298.666667h-170.666666V213.333333h170.666666V128h-170.666666v-21.333333A64 64 0 0 0 490.666667 42.666667M0 640v85.333333c28.586667 0 33.706667 8.96 55.04 30.293334S113.92 810.666667 170.666667 810.666667s94.293333-33.706667 115.626666-55.04c4.693333-5.12 8.533333-8.96 12.373334-12.8v-96c-33.706667 11.093333-57.6 32.853333-72.96 48.213333-21.333333 21.333333-26.453333 30.293333-55.04 30.293333s-33.706667-8.96-55.04-30.293333S56.746667 640 0 640m682.666667 0v85.333333c28.586667 0 33.706667 8.96 55.04 30.293334S796.586667 810.666667 853.333333 810.666667s94.293333-33.706667 115.626667-55.04S995.413333 725.333333 1024 725.333333v-85.333333c-56.746667 0-94.293333 33.706667-115.626667 55.04S881.92 725.333333 853.333333 725.333333s-33.706667-8.96-55.04-30.293333S739.413333 640 682.666667 640m-341.333334 213.333333c-56.746667 0-94.293333 33.706667-115.626666 55.04S199.253333 938.666667 170.666667 938.666667s-33.706667-8.96-55.04-30.293334c-15.36-15.36-39.253333-37.12-72.96-48.213333v96c3.84 3.84 7.68 7.68 12.373333 12.8 21.333333 21.333333 58.88 55.04 115.626667 55.04s94.293333-33.706667 115.626666-55.04S312.746667 938.666667 341.333333 938.666667s33.706667 8.96 55.04 30.293333c18.773333 18.346667 49.066667 46.506667 94.293334 53.333333 6.826667 1.706667 14.08 1.706667 21.333333 1.706667 56.746667 0 94.293333-33.706667 115.626667-55.04S654.08 938.666667 682.666667 938.666667s33.706667 8.96 55.04 30.293333S796.586667 1024 853.333333 1024s94.293333-33.706667 115.626667-55.04c4.693333-5.12 8.533333-8.96 12.373333-12.8v-96c-33.706667 11.093333-57.6 32.853333-72.96 48.213333-21.333333 21.333333-26.453333 30.293333-55.04 30.293334s-33.706667-8.96-55.04-30.293334S739.413333 853.333333 682.666667 853.333333s-94.293333 33.706667-115.626667 55.04-26.453333 30.293333-55.04 30.293334c-9.386667 0-15.786667-1.28-21.333333-3.413334-11.946667-4.266667-19.2-12.373333-33.706667-26.88C435.626667 887.04 398.08 853.333333 341.333333 853.333333z" fill="" /></svg>