<?xml version="1.0" encoding="UTF-8" standalone="no"?>
<!DOCTYPE svg PUBLIC "-//W3C//DTD SVG 20010904//EN" "http://www.w3.org/TR/2001/REC-SVG-20010904/DTD/svg10.dtd">
<svg version="1.0" xmlns="http://www.w3.org/2000/svg" width="964.000000pt" height="1280.000000pt" viewBox="0 0 964.000000 1280.000000" preserveAspectRatio="xMidYMid meet">
<metadata>
Created by potrace 1.15, written by Peter Selinger 2001-2017
</metadata>
<g transform="translate(0.000000,1280.000000) scale(0.100000,-0.100000)" fill="#000000" stroke="none">
<path d="M931 12784 c-481 -81 -853 -464 -920 -948 -8 -54 -11 -1809 -11 -5895 l0 -5818 428 -7 c235 -3 681 -11 992 -16 772 -13 1629 -28 2410 -40 360 -6 855 -15 1100 -19 245 -5 446 -8 447 -7 0 0 4 1519 9 3374 l7 3373 551 -3 551 -3 55 -27 c100 -49 172 -125 216 -228 19 -44 19 -110 24 -2715 l6 -2670 21 -85 c61 -243 174 -442 358 -625 318 -319 743 -468 1171 -411 355 47 684 212 939 470 145 147 243 304 299 476 66 203 67 307 3 675 -78 456 -250 1424 -382 2160 -91 504 -141 816 -180 1115 l-55 415 0 1955 c0 1127 -4 2006 -10 2076 -22 290 -109 525 -275 753 -67 90 -1931 1950 -1956 1951 -26 0 -128 -58 -204 -117 -110 -84 -263 -226 -264 -244 -3 -60 242 -346 677 -792 l214 -219 -7 -342 c-15 -752 -20 -1165 -13 -1248 26 -326 232 -630 528 -778 166 -82 294 -110 516 -110 l154 0 0 -102 c0 -57 -4 -236 -10 -398 -5 -162 -14 -457 -20 -655 -6 -198 -15 -502 -20 -675 -5 -173 -14 -477 -20 -675 l-11 -360 60 -500 c34 -275 70 -545 81 -600 11 -55 58 -309 105 -565 114 -613 336 -1816 381 -2055 30 -159 35 -202 29 -265 -29 -333 -326 -613 -685 -646 -284 -27 -606 180 -696 446 -18 53 -19 136 -15 2660 4 2751 5 2700 -41 2870 -97 359 -381 660 -733 778 -163 55 -167 55 -818 59 -565 4 -608 5 -603 21 11 35 27 298 36 602 16 514 32 2231 28 3000 l-3 715 -27 100 c-33 119 -117 295 -186 385 -162 214 -367 349 -642 422 l-85 23 -1710 1 c-1433 2 -1724 0 -1794 -12z m3457 -833 c61 -27 134 -103 154 -159 10 -30 13 -305 13 -1437 l0 -1400 -21 -46 c-27 -58 -85 -116 -143 -143 l-46 -21 -1655 0 -1655 0 -46 23 c-59 29 -112 82 -141 141 l-23 46 0 1395 c0 1344 1 1397 19 1444 36 92 117 159 215 176 25 4 773 7 1661 6 l1615 -1 53 -24z m3537 -2157 c61 -13 122 -29 136 -35 38 -15 94 -76 123 -135 55 -110 59 -140 63 -541 l5 -373 -23 0 c-38 0 -180 53 -255 95 -88 49 -172 134 -210 210 l-29 60 -3 382 -3 381 43 -9 c24 -6 93 -21 153 -35z"/>
</g>
</svg>